<?xml version="1.0" encoding="utf-8"?>
<!-- Generator: Adobe Illustrator 27.0.0, SVG Export Plug-In . SVG Version: 6.00 Build 0)  -->
<svg version="1.1" id="Layer_1" xmlns="http://www.w3.org/2000/svg" xmlns:xlink="http://www.w3.org/1999/xlink" x="0px" y="0px"
	 viewBox="0 0 300 300" style="enable-background:new 0 0 300 300;" xml:space="preserve">
<style type="text/css">
	.st0{fill:#5B3023;}
	.st1{fill:#A7D38D;}
	.st2{fill:#C49D9A;}
</style>
<g id="XeADfU_00000142135470915193066590000015569257530343831980_">
	<g>
		<path class="st2" d="M165.68,137.32c-0.81-0.28-1.36-0.59-1.95-0.66c-1.17-0.14-2.35-0.23-3.52-0.2c-1.21,0.03-2.44,0.13-3.61,0.4
			c-1.88,0.44-2.34-0.21-2.72-1.98c-0.03-0.14,0.13-0.32,0.22-0.47c0.25-0.4,0.5-0.79,0.82-1.28c1.48-0.99,3.36-0.39,5.12-0.73
			c1.33-0.26,2.66-0.52,3.99-0.77c0.21-0.04,0.43-0.03,0.64-0.07c0.94-0.15,1.88-0.29,2.81-0.49c0.18-0.04,0.44-0.26,0.46-0.42
			c0.14-1.19,1.16-1.68,1.89-2.35c1.37-1.25,2.82-2.41,4.22-3.63c0.66-0.58,1.07-1.28,1.19-2.21c0.08-0.63,0.62-1.05,1.33-0.97
			c0.58,0.06,0.97-0.14,1.45-0.48c0.56-0.39,1.35-0.52,2.05-0.61c0.46-0.06,1.08,1.34,0.79,1.75c-0.49,0.71-0.22,0.93,0.5,1.2
			c1.12,0.41,2.14,1.07,3.26,1.48c0.98,0.36,2.03,0.62,3.07,0.78c2.24,0.34,4.52,0.5,6.75,0.89c1.03,0.18,1.96,0.4,3.03,0.07
			c0.63-0.2,1.44,0.04,2.14,0.23c0.66,0.18,1.17,2.08,0.79,2.69c-0.09,0.14-0.2,0.28-0.24,0.43c-0.29,1.11-1.02,1.35-2.1,1.32
			c-1.57-0.05-3.15,0.06-4.72,0.16c-1.11,0.07-2.21,0.23-3.31,0.4c-0.66,0.1-1.3,0.28-1.94,0.46c-0.38,0.11-0.67,0.3-0.34,0.77
			c0.51,0.73,0.96,1.49,1.95,1.72c0.73,0.17,1.15,0.74,1.14,1.52c-0.01,0.57-0.89,1.46-1.49,1.63c-1.26,0.34-2.5,0.76-3.77,1.01
			c-1.42,0.28-2.87,0.42-4.31,0.59c-0.81,0.09-1.62,0.13-2.44,0.18c-1.03,0.05-2.06,0.04-3.08,0.15c-0.52,0.05-1.02,0.29-1.53,0.45
			c-0.1,0.03-0.21,0.14-0.3,0.12c-0.99-0.22-1.87-0.02-2.74,0.49c-0.4,0.23-0.97,0.16-1.42,0.33c-1.33,0.5-2.73,0.48-4.06,0.28
			c-0.85-0.13-1.65-0.28-2.47-0.03c-0.19,0.06-0.48,0.14-0.53,0.29c-0.37,1.05-1.38,1.39-2.18,1.92c-0.85,0.57-2.19,0.13-2.64-0.76
			c-0.23-0.47,0.25-1.92,0.79-2.28c0.93-0.62,1.87-1.23,3.04-1.3c0.14-0.01,0.36,0.01,0.4-0.06c0.66-1.29,2.19-0.96,3.14-1.71
			C165.3,137.54,165.37,137.5,165.68,137.32z M193.18,128.61c-0.01-0.07-0.02-0.15-0.03-0.22c-0.1-0.04-0.19-0.11-0.29-0.11
			c-2.31-0.2-4.62-0.39-6.93-0.59c-0.16-0.01-0.33-0.02-0.49-0.07c-2.2-0.61-4.37-1.31-6.59-1.81c-0.95-0.21-2.05-0.19-2.91,0.48
			c-0.9,0.71-1.75,1.48-2.58,2.27c-0.49,0.46-0.91,0.99-1.51,1.64c0.59-0.04,0.98-0.07,1.38-0.09c0.53-0.02,0.7,0.16,0.62,0.75
			c-0.15,1.02-0.99,1.25-1.69,1.44c-1.13,0.31-2.34,0.32-3.49,0.56c-1.17,0.24-2.32,0.6-3.48,0.91c-0.11,0.03-0.19,0.14-0.26,0.19
			c0.6,0.39,1.23,0.68,1.71,1.14c0.32,0.3,0.69,0.96,0.56,1.23c-0.33,0.71-0.04,1.06,0.42,1.46c0.14,0.12,0.24,0.3,0.31,0.47
			c0.31,0.78,1.16,0.97,1.82,0.46c0.37-0.29,0.82-0.57,1.27-0.66c1.51-0.29,3.04-0.53,4.57-0.7c2.31-0.26,4.63-0.4,6.94-0.68
			c0.63-0.08,1.25-0.4,1.81-0.72c0.28-0.16,0.42-0.57,0.53-0.74c-0.4-0.44-0.68-0.73-0.95-1.03c-0.36-0.4-0.65-0.9-1.08-1.2
			c-0.64-0.44-0.78-0.96-0.71-1.69c0.08-0.74,0.62-0.99,1.14-1.13c0.62-0.16,1.3-0.09,1.95-0.12c0.62-0.03,1.25,0.02,1.86-0.1
			c1.43-0.27,2.84-0.61,4.26-0.92C191.95,128.9,192.56,128.75,193.18,128.61z"/>
		<path class="st2" d="M103.7,149.24c1.33,1.36,2.77,1.93,4.58,1.33c1.04-0.34,2.11-0.57,3.16-0.86c0.14-0.04,0.25-0.18,0.37-0.28
			c0.52-0.41,1-0.92,1.58-1.2c1.81-0.85,3.67-1.61,5.5-2.42c0.47-0.21,0.93-0.46,1.39-0.69c-0.01-0.09-0.02-0.17-0.03-0.26
			c-1.77-0.67-3.63-1.16-5.26-2.08c-0.75-0.43-1.42-1.68-1.43-2.56c-0.01-0.87,2.46-1.97,3.6-0.86c0.74,0.72,1.5,1.45,2.34,2.05
			c1.44,1.03,3.09,1.48,4.87,1.42c1.37-0.05,2.36,0.48,2.82,1.7c0.13,0.35-0.11,0.89-0.29,1.29c-0.31,0.74-1.27,1.18-2.06,1.08
			c-0.3-0.04-0.64,0.04-0.94,0.13c-1.17,0.36-2.35,0.69-3.48,1.14c-1.72,0.69-3.41,1.45-5.09,2.22c-0.49,0.22-0.9,0.63-1.4,0.83
			c-1.57,0.6-2.64,1.8-3.72,3c-0.65,0.72-1.76,0.91-2.61,0.47c-0.23-0.12-0.53-0.28-0.76-0.24c-1.48,0.28-2.46-0.76-3.6-1.34
			c-0.94-0.48-1.57-1.3-2.07-2.24c-0.16-0.31-0.54-0.55-0.87-0.71c-0.64-0.31-0.9-0.81-0.83-1.47c0.06-0.56,0.17-1.13,0.34-1.66
			c0.18-0.55-0.07-0.69-0.5-0.62c-0.97,0.17-1.92,0.51-2.9,0.58c-1.49,0.11-2.35,1.08-3.3,2.01c-0.8,0.78-1.66,1.5-2.53,2.2
			c-1.03,0.83-2.08,0.71-3.19-0.33c-1.34-1.26-1.58-2.74-1.01-4.47c0.3-0.92,0.33-1.91,0.54-2.87c0.06-0.26,0.22-0.58,0.44-0.72
			c0.73-0.48,1.49-0.9,2.26-1.31c0.67-0.36,1.37-0.65,2.04-1c0.79-0.41,1.54-0.9,2.35-1.27c1.37-0.62,2.78-1.16,4.17-1.74
			c0.28-0.12,0.53-0.31,0.81-0.39c0.26-0.07,0.62-0.13,0.81-0.01c0.19,0.12,0.38,0.52,0.32,0.73c-0.29,1.08,0.15,1.69,1.1,2.14
			c0.92,0.43,1.65,1.17,1.94,2.12c0.2,0.66,0.11,1.44,0.03,2.15c-0.05,0.44-0.33,0.86-0.58,1.47c0.39-0.11,0.68-0.11,0.87-0.25
			c2.24-1.62,5.02-2.02,7.41-3.31c0.76-0.41,1.83-0.27,2.76-0.31c0.5-0.02,0.47,0.41,0.33,0.72c-0.4,0.85-1.04,1.39-1.98,1.71
			c-1.33,0.44-2.6,1.07-3.9,1.62c-0.2,0.09-0.38,0.26-0.58,0.31C105.8,146.55,105,148.12,103.7,149.24z M98.27,142.54
			c-0.31-0.79-1.79-1.54-2.46-1.29c-0.12,0.05-0.23,0.48-0.14,0.61C96.29,142.86,97.26,142.63,98.27,142.54z"/>
		<path class="st0" d="M42.99,217.23c0.53-0.59,0.85-1.06,1.27-1.38c0.42-0.32,0.95-0.48,1.43-0.72c0.33-0.16,0.67-0.29,0.99-0.48
			c0.73-0.42,1.46-0.84,2.15-1.32c0.57-0.39,1.09-0.86,1.61-1.32c0.45-0.4,0.81-0.93,1.32-1.24c0.48-0.29,0.61-0.65,0.47-1.06
			c-0.53-1.5,0.61-2.26,1.35-3.19c0.57-0.71,1.32-1.3,1.78-2.06c0.51-0.85,0.81-1.83,1.14-2.77c0.07-0.21-0.08-0.53-0.2-0.76
			c-0.84-1.6,0.26-2.99,1.64-3.36c1-0.27,1.8-0.18,2.73,0.5c1.67,1.22,3.7,1.07,5.61,0.63c1.81-0.41,3.63,0.15,4.63,1.68
			c0.4,0.62,0.27,1.42-0.28,1.92c-0.56,0.51-1.17,0.99-1.24,1.87c-0.02,0.21-0.3,0.43-0.49,0.61c-0.65,0.61-0.81,2.14-0.22,2.76
			c0.14,0.15,0.44,0.18,0.67,0.19c1.23,0.03,2.47-0.08,3.68,0.1c0.89,0.13,1.83,0.47,2.58,0.98c1.01,0.68,0.37,2.39-0.64,3.02
			c-1.61,0.99-3.34,1.83-4.78,3.01c-1.19,0.97-2.04,2.36-3.06,3.56c-0.19,0.22-0.41,0.47-0.67,0.57c-1.32,0.47-2.66,0.76-4.08,0.58
			c-0.88-0.11-1.79-0.05-2.67-0.15c-0.99-0.11-1.98-0.27-2.95-0.47c-0.81-0.16-1.61-0.39-2.42-0.61c-0.33-0.09-0.72-0.14-0.97-0.34
			c-1.39-1.09-2.8-0.95-4.35-0.33c-1.38,0.55-2.82,0.95-4.27,1.29C43.82,219.15,43.06,218.22,42.99,217.23z M68.52,211.65
			c-1.24-0.1-2.39-0.09-3.49-0.3c-1.23-0.24-2.47-1.66-1.45-3.08c0.24-0.33,0.45-0.68,0.6-1.06c0.38-0.94,0.78-1.89,1.06-2.87
			c0.12-0.42,0.06-0.95-0.1-1.37c-0.08-0.21-0.55-0.36-0.85-0.37c-1.04-0.04-2.09,0.06-3.13-0.01c-0.86-0.06-1.72,0.3-2.04,1.06
			c-0.32,0.75-0.61,1.51-0.91,2.27c-0.46,1.14-0.55,2.46-1.63,3.29c-0.1,0.08-0.08,0.3-0.14,0.45c-0.18,0.51-0.29,1.07-0.58,1.5
			c-0.55,0.84-1.21,1.61-1.93,2.54c0.75,0.48,1.48,1.09,2.31,1.43c0.87,0.35,1.83,0.52,2.77,0.62c1.19,0.12,2.42,0.27,3.54-0.41
			c0.45-0.28,0.93-0.54,1.42-0.73c1.14-0.44,2.31-0.82,3.45-1.26C68.26,213.03,68.54,212.36,68.52,211.65z"/>
		<path class="st2" d="M117.35,227.24c-1.52,0.19-3.03,0.41-4.56,0.55c-1.61,0.16-3.23,0.29-4.85,0.34
			c-1.22,0.04-2.39,0.13-3.47,0.82c-0.55,0.36-1.1,0.27-1.57-0.35c-0.35-0.45-0.89-0.76-1.36-1.12c-0.3-0.23-0.6-0.49-0.94-0.63
			c-0.99-0.41-1.99-1.04-3-1.07c-1.97-0.06-3.97,0.07-5.9,0.43c-1.53,0.28-2.98,1.04-4.47,1.55c-0.82,0.28-1.66,0.48-2.5,0.72
			c-0.45,0.13-0.89,0.24-1.34,0.37c-2.16,0.6-4.31,1.2-6.47,1.8c-0.86,0.24-1.71,0.56-2.59,0.7c-0.73,0.12-1.5,0.05-2.25,0
			c-0.42-0.03-0.54-0.59-0.17-0.88c0.29-0.23,0.66-0.41,1.02-0.51c0.81-0.23,1.64-0.39,2.46-0.6c0.55-0.15,0.9-0.41,0.78-1.11
			c-0.19-1.2,0.91-1.66,1.55-2.34c1.57-1.67,3.72-2.44,5.75-3.29c1.69-0.71,3.65-0.8,5.34-1.5c1.31-0.54,2.4-0.24,3.63-0.05
			c0.87,0.13,1.8-0.11,2.69-0.24c1.32-0.19,2.63-0.43,3.95-0.65c1.18-0.2,2.38-0.35,3.54-0.64c2.13-0.53,4.23-1.16,6.35-1.72
			c0.77-0.21,1.02-0.73,1.05-1.46c0.04-1.11,0.47-1.5,1.55-1.31c0.75,0.13,1.47,0.41,2.21,0.57c0.39,0.09,0.81,0.06,1.21,0.13
			c0.22,0.04,0.52,0.1,0.62,0.26c0.45,0.68,0.82,1.41,1.26,2.1c0.23,0.37,0.52,0.7,0.79,1.04c0.27,0.35,0.54,0.69,0.8,1.04
			c0.62,0.83,1.16,1.73,1.88,2.46c0.61,0.62,1.46,0.29,2.26,0.24c0.83-0.05,1.8,0,2.48,0.39c0.94,0.54,0.76,1.55-0.27,2.14
			c-1.65,0.95-3.51,1.2-5.35,1.51c-0.7,0.12-1.39,0.29-2.08,0.44C117.37,227.33,117.36,227.29,117.35,227.24z M115.47,220.32
			c-0.45-0.24-0.87-0.4-1.22-0.66c-0.87-0.66-1.76-0.77-2.78-0.34c-0.75,0.32-1.54,0.56-2.34,0.76c-1.3,0.32-2.62,0.55-3.93,0.84
			c-1.81,0.4-3.61,0.83-5.41,1.25c-0.26,0.06-0.51,0.17-0.76,0.26c0.01,0.07,0.03,0.14,0.04,0.22c0.4,0.03,0.81,0.03,1.2,0.11
			c0.38,0.08,0.86,0.13,1.09,0.38c0.81,0.9,1.85,1.15,2.96,1.11c0.59-0.02,1.01,0.09,1.27,0.63c0.54,1.11,1.44,1.31,2.6,1.14
			c3.1-0.45,6.21-0.83,9.32-1.25c0.37-0.05,0.64-0.26,0.36-0.68c-0.43-0.63-0.9-1.23-1.31-1.87
			C116.17,221.59,115.36,221.21,115.47,220.32z M80.52,227.43c0.05,0.08,0.1,0.17,0.15,0.25c3.42-1.21,6.84-2.41,10.26-3.62
			c-0.83-1.24-0.83-1.24-2.2-0.75c-0.69,0.25-1.37,0.57-2.08,0.73c-2.19,0.5-3.95,1.82-5.8,2.96
			C80.71,227.09,80.63,227.28,80.52,227.43z"/>
		<path class="st0" d="M190.99,208.37c-0.46-0.13-0.71-0.25-0.96-0.27c-0.83-0.08-1.22-0.53-1.41-1.34
			c-0.21-0.9,0.28-1.52,0.71-2.17c0.19-0.29,0.61-0.24,0.92-0.59c0.67-0.74,0.45-1.71,1-2.43c0.57-0.74,1.03-1.33,2.17-1.25
			c1.62,0.12,3.24,0.02,4.72-1.02c1.15-0.81,2.11-0.47,3.18,0.47c0.44,0.39,1.17,0.66,1.75,0.64c0.96-0.04,1.56,0.57,2.01,1.11
			c0.67,0.8,1.37,1.7,1.29,2.89c-0.05,0.74,0.72,1.59,1.62,1.9c0.33,0.11,0.61,0.38,0.9,0.59c0.09,0.06,0.14,0.21,0.23,0.23
			c1.93,0.43,3.77,1.17,5.88,0.8c0.84-0.15,1.88,0.62,2.76,1.11c0.18,0.1,0.18,0.86,0.02,1.2c-0.78,1.55-2.25,2.06-3.82,1.95
			c-1.41-0.1-2.59,0.4-3.81,0.88c-0.23,0.09-0.46,0.26-0.68,0.26c-1.48-0.03-2.65,0.81-3.93,1.34c-1.75,0.71-3.51,1.4-5.25,2.11
			c-0.3,0.12-0.57,0.32-0.85,0.49c-1.09,0.68-1.8,0.58-2.72-0.3c-0.26-0.24-0.68-0.33-1.03-0.43c-0.39-0.12-0.82-0.12-1.18-0.27
			c-1.99-0.83-3.94-1.8-5.97-2.52c-1.34-0.47-2.83-0.53-4.21-0.9c-0.79-0.21-1.51-0.68-2.26-1.05c-0.07-0.03-0.1-0.19-0.1-0.29
			c-0.04-0.93,1.16-2.21,2.08-2.18c1.12,0.04,2.24,0.12,3.35,0.18c0.11,0.01,0.22,0,0.32-0.03
			C188.7,209.13,189.72,208.79,190.99,208.37z M191.31,211.66c-0.01,0.09-0.03,0.18-0.04,0.27c0.84,0.19,1.68,0.36,2.52,0.56
			c0.26,0.06,0.53,0.13,0.78,0.24c0.68,0.32,1.32,0.76,2.03,0.97c1.08,0.31,2.21,0.47,3.32,0.69c0.1,0.02,0.22-0.02,0.32-0.06
			c1.65-0.73,3.31-1.47,4.96-2.19c0.4-0.17,0.82-0.28,1.22-0.45c0.45-0.2,0.91-0.4,1.29-0.7c0.12-0.09,0.13-0.63,0.02-0.7
			c-0.95-0.58-1.98-1.04-2.91-1.65c-0.62-0.4-1.32-0.9-1.61-1.52c-0.44-0.94-0.57-2.02-0.79-3.05c-0.21-1-0.62-1.49-1.49-1.51
			c-0.71-0.01-1.43,0.1-2.14,0.1c-0.75-0.01-1,0.66-1.51,0.97c-0.78,0.49-1.67,0.78-2.5,1.19c-0.57,0.28-0.62,0.66-0.13,1.06
			c0.19,0.15,0.43,0.3,0.65,0.32c0.78,0.07,1.1,0.65,1.46,1.2c0.37,0.56,0.63,1.13,0.17,1.8c-0.13,0.18-0.1,0.48-0.12,0.72
			c-0.11,1.08-1.53,2.06-2.58,1.82C193.26,211.49,192.28,211.31,191.31,211.66z"/>
		<path class="st2" d="M128.23,157.51c1.51,0.44,3.05,0.8,4.51,1.36c1.23,0.47,2.33,1.32,3.58,1.73c1.05,0.34,1.96,0.89,2.84,1.45
			c1.5,0.94,2.89,2.06,4.3,3.13c0.59,0.45,1.15,0.94,1.66,1.47c0.71,0.73,0.67,1.77-0.04,2.66c-0.54,0.68-1.83,0.91-2.55,0.39
			c-0.88-0.65-1.87-0.37-2.79-0.33c-1.47,0.07-2.94,0.32-4.4,0.5c-2.88,0.36-5.78,0.63-8.65,1.11c-2.87,0.48-5.71,1.12-8.55,1.75
			c-3.23,0.72-6.45,1.48-9.65,2.3c-1.28,0.33-2.53,0.83-3.75,1.35c-0.95,0.41-1.87,0.59-2.88,0.27c-0.81-0.25-1.02-0.64-0.65-1.4
			c0.51-1.06,0.5-1.1-0.6-1.49c-1.8-0.64-3.6-1.28-5.42-1.89c-0.32-0.11-0.72-0.11-1.06-0.05c-1.03,0.18-1.66-0.43-2.26-1.08
			c-0.33-0.36-0.38-0.74,0.07-1.13c0.52-0.46,1.03-0.77,1.76-0.72c0.34,0.02,0.71-0.09,1.03-0.23c2.16-0.95,4.3-1.95,6.47-2.87
			c1.91-0.81,3.88-1.49,5.79-2.3c1.76-0.74,3.48-1.6,5.23-2.37c0.79-0.35,1.63-0.61,2.44-0.93c1.58-0.61,3.15-1.24,4.73-1.86
			c1.27-0.5,2.51-1.08,3.81-1.48c1.48-0.45,3.01-0.71,4.51-1.11c0.6-0.16,1.16-0.5,1.74-0.74c0.44-0.18,0.99-0.37,1.2,0.21
			c0.19,0.52-0.02,0.98-0.67,1.2c-0.63,0.21-1.22,0.57-1.83,0.87C128.19,157.37,128.21,157.44,128.23,157.51z M97.08,169.53
			c0,0.11,0,0.22,0,0.34c1.07,0.4,2.14,0.77,3.19,1.2c1,0.41,1.96,0.92,2.96,1.33c1.14,0.47,2.18,1.15,3.58,0.78
			c2.21-0.59,4.48-0.97,6.72-1.44c2.46-0.51,4.92-1.02,7.38-1.53c1.23-0.26,2.46-0.59,3.7-0.77c2.06-0.3,4.13-0.52,6.2-0.76
			c1.65-0.2,3.31-0.4,4.96-0.59c1.65-0.19,3.3-0.36,5.13-0.55c-0.24-0.35-0.38-0.68-0.62-0.88c-1.24-1.02-2.43-2.11-3.77-2.96
			c-1.48-0.94-3.08-1.74-4.69-2.45c-2.12-0.94-4.3-1.74-6.48-2.55c-0.43-0.16-1-0.23-1.43-0.09c-1.16,0.36-2.28,0.85-3.41,1.31
			c-2.31,0.94-4.63,1.87-6.93,2.84c-3.22,1.35-6.42,2.73-9.64,4.08c-1.11,0.47-2.26,0.85-3.38,1.3
			C99.38,168.56,98.23,169.05,97.08,169.53z"/>
		<path class="st0" d="M173.51,154.91c-0.31,0.44-0.33,0.99,0,1.68c0.67,1.37-0.64,3.26-2.16,3.33c-2.24,0.1-4.49,0.19-6.71,0.47
			c-1.38,0.17-2.73,0.69-4.09,1.04c-0.21,0.05-0.44,0.02-0.65,0.07c-0.87,0.19-1.73,0.37-2.01,1.42c-0.08,0.31-0.29,0.59-0.48,0.95
			c-1.51-0.18-2.86-0.84-4.22-1.46c-0.09-0.04-0.23-0.15-0.23-0.21c0.16-1.14-0.94-1.45-1.41-2.17c-0.37-0.57-0.64-1.22-0.89-1.87
			c-0.15-0.39-0.35-0.88-0.24-1.24c0.17-0.58,0.56-1.11,0.88-1.64c0.1-0.17,0.31-0.27,0.56-0.48c-0.8-0.35-1.48-0.69-2.19-0.95
			c-0.88-0.32-0.75-1.14-0.77-1.74c-0.02-0.54,0.43-1.1,1.11-1.13c0.76-0.03,1.52,0,2.28,0.04c1.41,0.08,2.84,0.34,4.23,0.23
			c1.94-0.16,3.86-0.63,5.79-0.92c2.45-0.37,4.92-0.67,7.37-1.05c0.69-0.11,1.34-0.47,2.04-0.58c0.86-0.14,1.75-0.08,2.6-0.23
			c1.4-0.25,2.8-0.53,4.16-0.93c1.62-0.47,3.21-1.06,4.8-1.62c1.08-0.38,2.46,0.15,2.92,1.19c0.14,0.33,0.24,0.67,0.35,1.01
			c0.2,0.63,0.38,1.16,1.12,1.5c0.99,0.45,1.29,1.65,0.9,2.63c-0.41,1.02-1.79,1.57-2.97,1.45c-1.82-0.18-3.64-0.67-5.5-0.03
			c-0.8,0.28-1.71,0.21-2.57,0.34c-0.75,0.12-1.48,0.28-2.22,0.45C174.79,154.57,174.26,154.72,173.51,154.91z M170.83,151.06
			c-0.05-0.08-0.11-0.17-0.16-0.25c-2.74,0.55-5.48,1.09-8.21,1.65c-0.29,0.06-0.55,0.25-0.83,0.29c-1.12,0.16-2.26,0.24-3.38,0.45
			c-0.93,0.17-1.83,0.49-2.75,0.74c-0.97,0.26-1.95,0.52-2.99,0.8c0.35,0.76,0.78,1.35,0.9,2c0.23,1.28,1.11,2.01,1.99,2.79
			c0.69,0.6,1.38,0.49,2.14,0.24c0.51-0.17,1.06-0.24,1.59-0.36c0.23-0.05,0.45-0.1,0.68-0.17c1.08-0.33,2.15-0.7,3.24-0.97
			c1.05-0.26,2.14-0.36,3.18-0.65c1.5-0.41,2.54-1.47,3.37-2.7C168.71,153.25,169.09,151.96,170.83,151.06z M171.97,150.66
			c-0.03,0.08-0.06,0.15-0.09,0.23c0.16,0.12,0.31,0.32,0.48,0.34c0.6,0.08,1.22,0.11,1.82,0.14c0.88,0.04,1.77,0.14,2.64,0.05
			c1.48-0.15,2.95-0.42,4.41-0.68c0.28-0.05,0.73-0.27,0.75-0.46c0.05-0.41-0.02-0.91-0.23-1.25c-0.11-0.18-0.66-0.17-0.97-0.1
			c-0.47,0.11-0.9,0.39-1.37,0.53c-0.91,0.27-1.82,0.58-2.75,0.71C175.1,150.4,173.53,150.5,171.97,150.66z"/>
		<path class="st2" d="M219.4,152.34c-0.12-1.53-0.09-1.54,1.26-2.17c0.88-0.41,1.71-0.94,2.6-1.34c0.51-0.23,1.08-0.3,1.63-0.44
			c0.24-0.06,0.48-0.1,0.72-0.15c0.57-0.13,1.15-0.4,1.71-0.38c0.94,0.02,1.27-0.75,1.79-1.23c0.11-0.11-0.11-0.9-0.31-0.97
			c-1.42-0.45-2.86-0.88-4.33-1.12c-0.94-0.16-1.71-0.54-2.45-1.05c-0.6-0.41-1.1-0.39-1.65,0.27c0.24,0.02,0.41,0.05,0.57,0.04
			c0.62-0.04,1.16,0.09,1.42,0.73c0.3,0.74-0.11,1.3-0.67,1.58c-0.78,0.39-1.54,0.89-2.53,0.79c-0.5-0.05-1.15,0.04-1.28,0.85
			c-0.09,0.56-1.28,0.95-1.92,0.57c-1.97-1.16-4.05-0.54-6.1-0.46c-0.95,0.04-1.9,0.2-2.86,0.31c-1.01,0.11-2.02,0.39-3.01,0.3
			c-0.72-0.06-1.37,0.16-2.06,0.1c-0.12-0.01-0.26,0.13-0.36,0.35c1.13,0,2.26-0.01,3.39,0c2.18,0.02,4.37-0.05,6.55,0.1
			c1.96,0.14,3.9,0.53,5.86,0.81c0.68,0.1,1,0.48,0.84,1.14c-0.14,0.58-0.4,0.89-1.17,0.72c-0.84-0.18-1.75,0.03-2.62-0.07
			c-1.28-0.14-2.53-0.48-3.81-0.56c-1.94-0.13-3.89-0.1-5.83-0.14c-1.95-0.04-3.89-0.11-5.84-0.13c-2.29-0.02-4.58,0-6.87,0.02
			c-0.5,0-0.9-0.12-0.92-0.69c-0.02-0.54,0.02-1.11,0.76-1.13c0.95-0.03,1.9-0.01,2.9-0.01c-0.05-0.4-0.17-0.77-0.12-1.11
			c0.21-1.4,1.38-2.15,2.79-1.85c0.32,0.07,0.65,0.12,0.97,0.12c2.93-0.03,5.86-0.03,8.78-0.13c0.84-0.03,1.67-0.36,2.51-0.47
			c0.62-0.08,1.25,0.04,1.87-0.01c1.34-0.13,2.7-0.21,4.01-0.5c1.38-0.3,2.11-1.75,1.94-3.48c-0.13-1.33,0.53-2.4,1.62-2.64
			c1.67-0.36,3.15,0.24,3.5,1.57c0.24,0.9,1.04,0.63,1.54,0.9c0.95,0.51,2.03,0.87,3.09,1.04c0.97,0.15,2-0.06,3.01-0.07
			c1.02-0.01,2.09-0.14,3.05,0.12c1.21,0.32,1.55,1.53,1.11,2.74c-0.78,2.16-2.34,3.54-4.36,4.46c-0.34,0.16-0.76,0.14-1.11,0.27
			c-0.81,0.29-1.61,0.64-2.42,0.91c-0.52,0.18-1.09,0.22-1.6,0.42c-0.98,0.38-1.99,0.73-2.89,1.26
			C221.14,153.07,220.32,152.71,219.4,152.34z"/>
		<path class="st2" d="M189.45,82.8c-0.01,1.54-1.12,2.41-1.99,3.34c-1.17,1.25-2.74,1.64-4.41,1.39c-0.89-0.13-1.16,0.33-1.15,1.02
			c0.01,0.66-0.3,0.91-0.84,1.13c-0.36,0.15-0.68,0.42-1.01,0.66c-0.29,0.21-0.53,0.54-0.85,0.64c-1.13,0.38-2.3,0.69-3.44,1.04
			c-0.33,0.1-0.67,0.21-0.95,0.39c-0.87,0.55-1.76,0.69-2.75,0.4c-0.72-0.21-1.48-0.3-2.2-0.53c-0.46-0.14-0.88-0.4-1.3-0.65
			c-1.34-0.79-2.89-0.51-4.3-0.91c-1.2-0.33-2.45-0.6-3.52-1.19c-0.57-0.31-1.06-1.22-1.1-1.89c-0.02-0.45,0.74-1.06,1.28-1.39
			c1.66-1.02,3.59-1.28,5.45-1.74c0.83-0.2,1.52-0.55,1.97-1.35c0.63-1.14,0.89-1.23,2.18-1.05c0.18,0.03,0.39,0.02,0.57-0.03
			c1.57-0.49,3.11-1.18,4.72-1.44c1.48-0.24,2.49-1.22,3.73-1.81c0.56-0.26,0.93-0.97,1.36-1.49c0.66-0.8,2.61-1.07,3.37-0.39
			c0.42,0.37,0.69,0.92,1.12,1.29c1.35,1.15,3.18,1.8,3.79,3.71C189.26,82.25,189.36,82.53,189.45,82.8z M185.3,82.93
			c-0.44-1.05-1.11-1.4-2.08-1.36c-0.73,0.03-1.47-0.14-2.21-0.11c-0.49,0.02-0.99,0.21-1.47,0.36c-0.3,0.1-0.57,0.32-0.87,0.43
			c-1.62,0.56-3.27,1.06-4.86,1.69c-0.5,0.2-1.63,0.28-0.91,1.41c0.05,0.07-0.08,0.3-0.17,0.41c-0.95,1.21-2.21,1.5-3.66,1.17
			c-0.94-0.22-1.94,0.15-2.34,0.94c0.17,0.06,0.34,0.17,0.51,0.18c1.13,0.06,2.04,0.54,2.97,1.18c0.71,0.49,1.74,0.52,2.68,0.77
			c0-0.83,0.07-1.45-0.02-2.06c-0.11-0.74,0.14-1.13,0.85-1.33c1.38-0.4,2.77-0.8,4.13-1.27c0.8-0.28,1.53-0.78,2.34-1.01
			c1.28-0.37,2.61-0.57,3.91-0.89C184.52,83.36,184.9,83.11,185.3,82.93z"/>
		<path class="st2" d="M217.84,94.26c-0.53-0.2-1.07-0.4-1.6-0.6c-0.74-0.28-1.56-0.44-2.2-0.87c-0.67-0.45-1.35-1.07-1.72-1.77
			c-0.55-1.04,0.39-2.31,1.58-2.15c0.69,0.09,1.67-0.08,1.9,1.06c0.03,0.17,0.9,0.42,1.09,0.27c1.21-1,2.57-0.52,3.58-0.03
			c1.24,0.6,2.3,0.17,3.44,0.1c0.78-0.05,1.59-0.15,2.32-0.39c0.86-0.29,1.7-0.48,2.6-0.47c0.15,0,0.31-0.27,0.45-0.43
			c0.72-0.81,1.4-1.52,2.72-1.19c1.33,0.33,2.54,2.05,2.18,3.37c-0.12,0.42-0.15,0.99,0.04,1.35c0.55,1.05,1.16,2.08,1.89,3
			c0.29,0.37,0.96,0.45,1.47,0.63c1.18,0.41,1.77,1.9,1.48,3.07c-0.12,0.49-0.82,0.97-1.36,1.18c-1.11,0.42-2.32,0.56-3.44,0.08
			c-1.1-0.46-2.2-0.3-3.32-0.31c-1.82-0.01-3.65-0.1-5.47-0.14c-0.35-0.01-0.71,0.13-1.06,0.1c-1.86-0.18-3.75-0.05-5.57-0.7
			c-0.58-0.21-1.34-0.03-1.98,0.1c-0.78,0.16-1.51,0.29-2.2-0.24c-0.13-0.1-0.29-0.15-0.44-0.22c-1.81-0.74-2-1.22-0.94-2.86
			c0.49-0.75,1-1.53,2.15-1.48c0.76,0.03,1.53-0.21,2.3-0.33C217.77,94.37,217.8,94.32,217.84,94.26z M231.39,97.46
			c1.02-0.06,1.15-0.31,0.51-1.42c-0.12-0.21-0.16-0.46-0.25-0.68c-0.17-0.38-0.3-0.78-0.54-1.11c-0.32-0.45-0.86-0.76-0.68-1.48
			c0.03-0.14-0.45-0.57-0.71-0.59c-0.73-0.05-1.48,0.05-2.22,0.1c-0.4,0.03-0.58,0.16-0.59,0.67c-0.02,1.43-0.95,2.39-2.37,2.62
			c-0.24,0.04-0.45,0.19-0.69,0.26c-0.38,0.11-0.77,0.18-1.14,0.31c-0.17,0.06-0.31,0.22-0.47,0.33c0.14,0.13,0.27,0.36,0.43,0.38
			c1.04,0.12,2.07,0.15,3.12,0.43c1.21,0.32,2.56,0.06,3.85,0.07C230.14,97.34,230.64,97.41,231.39,97.46z"/>
		<path class="st0" d="M96.33,121.71c-0.16,0.83-0.31,1.53-0.44,2.24c-0.12,0.64-0.19,1.29-0.32,1.93
			c-0.13,0.66-0.28,1.31-0.43,1.96c-0.24,1.08-1.03,1.62-1.97,2c-0.43,0.17-0.89,0.31-1.26,0.57c-0.6,0.42-1.15,0.38-1.64-0.08
			c-0.64-0.59-1.2-1.27-1.84-1.87c-0.25-0.24-0.61-0.36-1-0.59c-0.18,1.85-1.69,2.73-3.22,2.07c-0.22-0.09-0.33-0.61-0.35-0.95
			c-0.05-0.8-0.03-1.61,0.01-2.42c0.04-0.78,0-1.61,0.27-2.31c0.6-1.59,1.31-3.12,1.47-4.84c0.03-0.31,0.27-0.59,0.39-0.89
			c0.55-1.41,0.62-2.86,0.24-4.32c-0.14-0.55,0-0.93,0.51-1.13c0.56-0.23,1.14-0.4,1.7-0.62c0.86-0.34,1.71-0.73,2.59-1.04
			c0.58-0.21,1.19-0.33,1.79-0.48c0.16-0.04,0.35,0.02,0.48-0.05c0.85-0.44,1.61-0.24,2.41,0.2c0.58,0.32,1.35,0.34,1.85,0.73
			c1.04,0.82,1.97,1.8,2.93,2.72c0.17,0.16,0.3,0.49,0.48,0.52c1.52,0.19,2.05,1.41,2.69,2.52c0.08,0.14,0.15,0.32,0.27,0.41
			c0.86,0.63,0.5,1.35,0.15,2.05c-0.32,0.65-0.94,0.6-1.56,0.64c-1.08,0.07-2.16,0.22-3.23,0.4
			C98.22,121.26,97.16,121.53,96.33,121.71z M97.49,117.93c0.05-0.78-0.4-1.28-1.47-1.55c-0.95-0.24-1.39-0.81-1.54-1.72
			c-0.04-0.27-0.44-0.63-0.73-0.68c-1.42-0.26-3.25,0.61-3.9,1.86c-0.29,0.56-0.42,1.21-0.6,1.82c-0.44,1.55-0.93,3.08-1.29,4.65
			c-0.41,1.78,0.18,2.32,1.97,1.97c0.11-0.02,0.21-0.09,0.32-0.09c0.52,0.01,0.63-0.33,0.65-0.75c0.04-0.79,0.07-1.58,0.13-2.36
			c0.09-1.15,1.32-2.36,2.47-2.48c0.73-0.08,1.46-0.18,2.19-0.3C96.28,118.19,96.88,118.05,97.49,117.93z"/>
		<path class="st2" d="M214.15,168.44c-0.03,0.71-0.17,1.26-1.09,1.31c-0.35,0.02-0.65,0.48-1.02,0.64
			c-0.35,0.16-0.75,0.25-1.14,0.26c-0.73,0.03-1.47-0.09-2.18,0c-1.16,0.14-2.32,0.36-3.46,0.61c-1.38,0.3-2.75,0.63-4.11,1
			c-0.49,0.13-0.91,0.51-1.4,0.6c-0.56,0.11-1.16-0.01-1.73,0.04c-0.81,0.06-1.63,0.13-2.42,0.28c-1.93,0.39-3.86,0.59-5.81,0.15
			c-0.21-0.05-0.38-0.21-0.58-0.28c-0.35-0.13-0.72-0.38-1.05-0.33c-1.5,0.22-3.05,0.09-4.47,0.99c-0.56,0.36-1.67,0.34-2.27,0.01
			c-0.47-0.26-0.75-1.27-0.71-1.92c0.06-0.98,0.54-1.86,1.66-2.21c0.32-0.1,0.53-0.54,0.84-0.74c1.22-0.76,2.5-1.42,3.68-2.24
			c1.16-0.81,2.57-1.57,3.21-2.72c0.67-1.21,1.45-2.72,0.59-4.34c-0.35-0.67-0.34-1.5,0.26-2.16c0.07-0.08,0.12-0.24,0.19-0.25
			c0.99-0.15,1.99-0.41,2.97-0.36c0.6,0.03,1.36,0.37,1.23,1.34c-0.02,0.15,0.24,0.44,0.43,0.5c1,0.33,2.02,0.59,3.03,0.91
			c1.01,0.33,2.05,0.62,3.01,1.07c1.62,0.77,3.23,1.58,4.78,2.5c1.64,0.97,3.19,2.1,4.79,3.14c0.24,0.16,0.54,0.33,0.8,0.32
			C213.44,166.52,214.18,167.18,214.15,168.44z M208.89,167.18c-4.72-2.54-9.23-5.48-14.95-5.59c0.05,1.22-0.37,2.44-1.04,3.66
			c-0.68,1.23-1.17,2.46-2.75,2.72c-0.23,0.04-0.42,0.24-0.64,0.37c-0.52,0.3-1.03,0.6-1.55,0.9c-0.78,0.45-1.56,0.89-2.35,1.34
			c0.03,0.06,0.07,0.13,0.1,0.19c0.33-0.11,0.65-0.29,0.99-0.33c1.53-0.18,3.06-0.36,4.6-0.46c1.14-0.07,2.29-0.01,3.44-0.04
			c0.57-0.01,1.16-0.21,1.69-0.1c0.91,0.2,1.77,0.21,2.64-0.13c0.07-0.03,0.18-0.01,0.24,0.02c1.29,0.74,2.54,0.11,3.78-0.16
			c0.89-0.19,1.75-0.52,2.62-0.81c0.59-0.19,1.18-0.38,1.74-0.65C207.9,167.9,208.29,167.58,208.89,167.18z"/>
		<path class="st2" d="M56.13,129.64c-0.48-0.04-1.06-0.26-1.43-0.07c-0.99,0.5-1.65-0.03-2.3-0.55c-1.21-0.98-1.23-2.14-0.27-3.36
			c0.47-0.6,0.9-0.71,1.67-0.71c1.38-0.01,2.76-0.35,4.13-0.6c0.9-0.16,1.81-0.35,2.69-0.63c0.66-0.21,1.3-0.55,1.89-0.92
			c0.41-0.25,0.73-0.65,1.1-0.99c-0.52-0.78-0.5-1.77,0.18-2.68c0.61-0.82,1.55-0.77,2.34-0.5c1.7,0.57,3.34,1.24,4.69,2.57
			c0.62,0.61,1.35,1.31,2.53,1.27c0.86-0.03,1.91,0.35,2.57,0.9c0.68,0.57,1.07,1.54,1.45,2.4c0.44,0.99-0.27,1.73-0.77,2.49
			c-0.55,0.83-1.45,1.04-2.26,1.4c-0.47,0.21-1.01,0.29-1.46,0.54c-1.16,0.67-2.52,0.57-3.73,0.99c-0.89,0.31-1.76,0.73-2.58,1.2
			c-1.21,0.71-2.4,1.36-3.88,1.29c-1.55-0.07-2.81,0.8-4.11,1.5c-1.58,0.85-3.27,0.63-4-1.37c-0.29-0.8,0.18-2.38,0.88-2.99
			c0.29-0.25,0.52-0.58,0.78-0.87C56.19,129.84,56.16,129.74,56.13,129.64z M63.73,129.66c0.01,0.06,0.01,0.13,0.02,0.19
			c0.68-0.09,1.39-0.06,2.02-0.28c1.31-0.45,2.57-1.02,3.86-1.53c1.06-0.42,1.06-0.41,0.77-1.5c-0.05-0.18-0.03-0.38-0.04-0.57
			c-0.06-0.78-1.08-1.96-1.69-1.86c-0.86,0.13-1.7,0.35-2.55,0.57c-1.87,0.48-3.72,1.03-5.6,1.48c-0.99,0.24-1.34,0.85-0.91,1.78
			c0.18,0.39,0.29,0.81,0.39,1.23c0.16,0.63,0.62,0.81,1.18,0.77C62.04,129.86,62.88,129.75,63.73,129.66z"/>
		<path class="st2" d="M182.68,98.96c0.55,0.15,1.09,0.32,1.64,0.44c0.67,0.15,1.34,0.34,2.02,0.37c1.61,0.08,3.22,0.03,4.82,0.13
			c0.92,0.06,1.83,0.31,2.75,0.45c1.29,0.2,2.59,0.36,3.88,0.58c1.94,0.33,3.87,0.69,5.8,1.04c1.18,0.21,2.36,0.42,3.54,0.63
			c0.1,0.02,0.26,0.04,0.29,0.1c0.53,1.07,1.47,0.59,2.24,0.54c0.83-0.05,1.61-0.08,2.36,0.4c0.92,0.59,1.36,1.86,0.77,2.79
			c-0.54,0.85-1.19,1.63-1.87,2.37c-0.54,0.57-1.71,0.54-2.47,0.23c-0.51-0.21-1.11-0.28-1.67-0.28c-1.23,0-2.46,0.06-3.69,0.14
			c-1.15,0.07-2.17-0.18-2.89-1.15c-0.52-0.69-1.28-0.37-1.91-0.42c-1.94-0.15-3.89-0.12-5.82-0.29c-1.55-0.13-3.08-0.48-4.62-0.65
			c-0.73-0.08-1.48-0.03-2.21,0.07c-1.97,0.27-3.36-0.93-3.25-2.91c0.02-0.42-0.05-0.65-0.48-0.79c-0.25-0.08-0.49-0.26-0.7-0.43
			c-0.61-0.5-1.18-1.05-0.96-1.95c0.15-0.62,1.28-1.29,2.07-1.29c0.11,0,0.22-0.02,0.33-0.03C182.66,99.03,182.67,99,182.68,98.96z
			 M188.51,103.21c0,0.03-0.01,0.07-0.01,0.1c0.57,0.09,1.15,0.16,1.72,0.27c1.62,0.34,3.23,0.71,4.86,1.03
			c0.71,0.14,1.44,0.17,2.16,0.24c1.65,0.15,3.32,0.07,4.94,0.66c0.74,0.27,1.6,0.22,2.41,0.31c0.02-0.12,0.04-0.25,0.05-0.37
			c-0.87-0.2-1.73-0.41-2.6-0.58c-1.15-0.23-2.35-0.27-3.44-0.66c-1.43-0.51-2.86-0.74-4.36-0.79c-0.52-0.02-1.03-0.19-1.54-0.2
			C191.31,103.19,189.91,103.21,188.51,103.21z"/>
		<path class="st0" d="M159.68,117.92c-0.21-0.51-0.42-0.92-0.54-1.36c-0.2-0.73-0.04-1.33,0.68-1.75c0.81-0.47,1.47-1.1,2.56-1.11
			c0.59-0.01,1.16-0.75,1.76-1.12c0.46-0.29,0.95-0.53,1.42-0.79c0.6-0.32,1.19-0.64,1.79-0.97c0.05-0.03,0.08-0.08,0.12-0.11
			c0.89-0.59,1.66-1.24,2.38-2.08c0.64-0.74,1.97-1.01,3.04-1.23c0.92-0.19,2.09,1.11,2.09,2.04c0,0.16,0.05,0.33,0.12,0.47
			c0.86,1.83,0.77,3.6-0.22,5.06c0.35,0.85,0.72,1.51,0.9,2.23c0.21,0.8-0.41,1.24-0.99,1.63c-0.29,0.2-0.62,0.37-0.95,0.49
			c-1.24,0.43-1.99,1.26-2.18,2.59c-0.08,0.57-0.46,0.87-1.04,0.82c-1.98-0.14-3.87,0.36-5.78,0.74c-0.65,0.13-1.27,0.35-1.92,0.45
			c-0.79,0.12-1.54,0.11-2.28-0.39c-0.31-0.21-0.91-0.01-1.37,0.02c-0.19,0.01-0.38,0.08-0.56,0.07c-0.75-0.03-2.65-1.92-2.7-2.67
			c0-0.05,0-0.11,0-0.16c0.1-0.85,1.72-2.34,2.58-2.46C158.97,118.27,159.34,118.05,159.68,117.92z M169.27,115.94
			c-0.79,0.57-1.51,1.08-2.23,1.6c-0.07,0.05-0.14,0.08-0.22,0.11c-0.99,0.5-1.99,1-2.98,1.51c-0.43,0.22-0.88,0.44-1.26,0.74
			c-0.12,0.1-0.05,0.44-0.06,0.67c0.53-0.01,1.08,0.06,1.59-0.06c0.98-0.22,1.93-0.56,2.89-0.84c0.26-0.08,0.58-0.06,0.77-0.22
			c0.76-0.64,1.48-1.33,2.23-2.01C169.81,117.03,169.61,116.62,169.27,115.94z M171.29,113.56c0.12-0.62,1.18-0.85,0.49-1.67
			C170.55,112.42,170.55,112.42,171.29,113.56z"/>
		<path class="st0" d="M160.37,226.45c-0.54-0.13-1.03-0.23-1.5-0.37c-0.64-0.19-0.78-0.7-0.31-1.17c0.2-0.2,0.5-0.32,0.77-0.45
			c0.69-0.31,1.38-0.6,2.08-0.9c0.15-0.06,0.32-0.2,0.45-0.17c1.28,0.29,2.26-0.5,3.35-0.88c0.18-0.06,0.37-0.17,0.55-0.15
			c0.66,0.1,1.17-0.08,1.58-0.62c0.12-0.15,0.37-0.24,0.57-0.27c0.9-0.16,1.8-0.39,2.71-0.42c0.89-0.03,1.8,0.08,2.67,0.28
			c0.65,0.15,0.85,0.86,0.63,1.65c-0.21,0.76-0.79,1.24-1.45,1.23c-1.22-0.02-2.46-0.17-3.65,0.01c-1.26,0.19-2.48,0.7-3.71,1.09
			c-0.11,0.04-0.23,0.24-0.25,0.37c-0.08,0.67-0.02,1.38-0.22,2.01c-0.21,0.65-0.7,1.21-1.01,1.85c-0.22,0.47-0.52,1.02-0.43,1.47
			c0.06,0.28,0.76,0.45,1.2,0.62c0.25,0.1,0.61,0,0.8,0.14c1.18,0.93,2.6,0.38,3.87,0.69c0.07,0.02,0.15-0.04,0.35-0.11
			c-0.45-0.63-1.05-0.9-1.71-1c-1.27-0.18-1.78-1.16-1.23-2.32c0.35-0.74,0.89-1.13,1.62-1.5c2.41-1.23,4.96-2.23,7-4.09
			c0.1-0.09,0.26-0.19,0.27-0.3c0.06-1.07,0.89-0.72,1.47-0.79c0.69-0.09,0.79,0.5,1.07,0.94c0.5,0.77,0.22,1.25-0.28,1.95
			c-1.06,1.51-2.92,1.57-4.21,2.61c-0.3,0.24-0.56,0.54-0.99,0.98c1.18,0.17,1.48,0.83,1.73,1.56c0.07,0.2,0.38,0.52,0.49,0.48
			c0.89-0.27,1.26,0.41,1.76,0.87c0.72,0.65,1.21,1.44,1.32,2.4c0.03,0.29-0.11,0.69-0.32,0.89c-0.69,0.67-1.51,0.9-2.5,0.67
			c-0.82-0.19-1.68-0.23-2.53-0.28c-2.16-0.14-4.31-0.23-6.47-0.37c-0.64-0.04-1.28-0.23-1.92-0.27c-0.67-0.04-1.31-0.02-1.94,0.44
			c-0.75,0.55-1.89,0.31-2.54-0.37c-0.59-0.62-1.11-1.29-1.65-1.95c-0.06-0.08-0.13-0.23-0.09-0.3c0.26-0.54,0.45-1.15,0.84-1.58
			c0.54-0.59,0.9-1.19,1.04-2c0.13-0.75,0.48-1.47,0.73-2.21C160.4,226.72,160.37,226.61,160.37,226.45z"/>
		<path class="st0" d="M105.01,250.95c-0.59-0.81-1.12-1.34-2.12-1.39c-0.77-0.03-1.55-1.31-1.46-2.04
			c0.13-1.13,0.25-2.27,0.45-3.39c0.36-1.94,0.93-2.45,2.9-2.32c1.27,0.08,2.5,0.06,3.76-0.15c1.13-0.18,2.31-0.13,3.47-0.07
			c1.82,0.1,2.66,1.53,1.94,3.19c-0.34,0.78-0.24,0.92,0.56,1.23c1.3,0.51,2.58,1.05,3.85,1.64c0.66,0.31,1.08,0.87,1.04,1.64
			c-0.04,0.78-0.58,1.22-1.25,1.35c-1.39,0.27-1.61,1.43-1.86,2.45c-0.13,0.54,0.27,1.18,0.31,1.79c0.08,1.17-1.21,2.43-2.36,2.41
			c-0.53-0.01-1.07,0.07-1.6,0.17c-1.16,0.21-1.94-0.64-2.88-1.03c-0.09-0.04-0.18-0.23-0.16-0.34c0.14-0.81-0.37-0.82-0.95-0.85
			c-1.03-0.06-1.97,0.06-2.92,0.59c-1,0.55-1.62-0.43-2.33-0.93c-0.6-0.43-0.18-0.86,0-1.3c0.21-0.51,0.31-1.07,0.58-1.53
			C104.24,251.66,104.66,251.33,105.01,250.95z M111.14,246.5c-0.92-0.09-1.9-0.25-2.88-0.26c-0.4,0-0.79,0.31-1.19,0.48
			c0.17,0.3,0.29,0.66,0.53,0.9c0.87,0.83,1.53,1.72,1.24,3.03c-0.1,0.43-0.09,0.89-0.14,1.33c0.87-0.52,1.66-0.99,2.44-1.47
			c0.86-0.52,1.22-1.79,0.75-2.57C111.64,247.46,111.4,246.97,111.14,246.5z"/>
		<path class="st2" d="M221.32,222.2c1.22,0.7,2.54,1.28,3.64,2.14c0.66,0.52,1.06,1.44,1.39,2.25c0.34,0.83,0.43,1.75,0.69,2.62
			c0.21,0.69,0.02,1.16-0.66,1.34c-1.06,0.27-2.13,0.48-3.19,0.71c-0.53,0.11-1.07,0.24-1.61,0.32c-0.8,0.12-1.6,0.21-2.4,0.32
			c-0.22,0.03-0.44,0.07-0.64,0.14c-1.97,0.69-3.95,1.37-5.91,2.1c-0.31,0.12-0.64,0.41-0.79,0.71c-0.63,1.26-1.59,1.6-2.89,0.95
			c-0.19-0.1-0.44-0.24-0.61-0.19c-1.17,0.29-2.03-0.37-2.98-0.85c-0.92-0.46-1.92-0.77-2.88-1.15c-0.28-0.11-0.56-0.23-0.8-0.39
			c-0.47-0.32-0.87-0.63-1.54-0.58c-0.42,0.03-0.86-0.5-1.33-0.7c-1.15-0.47-2.3-0.96-3.49-1.32c-0.64-0.19-1.04-0.56-0.95-1.13
			c0.07-0.42,0.45-0.97,0.83-1.14c1.74-0.75,3.5-1.46,5.3-2.03c2.05-0.65,4.15-1.11,6.22-1.71c1-0.29,1.94-0.76,2.94-1.05
			c1.49-0.43,3-0.84,4.53-1.14c1.26-0.25,2.56-0.33,3.84-0.48c0.54-0.06,1.08-0.14,1.62-0.17c0.14-0.01,0.29,0.15,0.44,0.2
			c0.37,0.13,0.74,0.25,1.11,0.37C221.24,222.29,221.28,222.25,221.32,222.2z M199.97,229.46c0,0.09-0.01,0.17-0.01,0.26
			c1.44,0.47,2.88,0.92,4.3,1.43c1.3,0.46,2.6,0.79,3.99,0.71c0.17-0.01,0.35,0.18,0.54,0.2c0.67,0.04,1.39,0.21,2.01,0.03
			c1.49-0.42,2.92-1.02,4.38-1.53c2.29-0.8,4.6-1.57,6.89-2.36c0.36-0.13,0.69-0.35,1.03-0.53c-1.17-0.54-1.51-2.12-2.97-2.01
			c-0.12,0.01-0.29-0.24-0.38-0.4c-0.22-0.41-0.37-0.87-0.63-1.24c-0.14-0.2-0.5-0.42-0.7-0.38c-1.45,0.33-2.9,0.7-4.33,1.12
			c-1.94,0.57-3.87,1.17-5.79,1.8c-1.26,0.42-2.48,0.94-3.72,1.4c-0.64,0.24-1.28,0.46-1.93,0.67
			C201.76,228.91,200.86,229.18,199.97,229.46z"/>
		<path class="st0" d="M89.55,87.52c0.44-0.03,0.85-0.09,1.26-0.06c0.55,0.03,1.18-0.03,1.61,0.24c0.69,0.42,1.27,0.34,1.94,0.11
			c1.02-0.35,2.04-0.71,3.08-0.97c0.81-0.21,1.74,0.61,1.76,1.47c0.01,0.38,0.05,0.78-0.01,1.15c-0.15,0.95-0.92,1.34-1.84,1.08
			c-0.47-0.14-1.01-0.21-1.49-0.15c-1.23,0.16-2.46,0.35-3.67,0.65c-1.31,0.33-2.63,0.68-3.86,1.21c-1.34,0.58-2.63,0.23-3.21-1.12
			c-0.04-0.1-0.09-0.23-0.06-0.31c0.35-0.91,0.27-1.82,0.14-2.77c-0.12-0.9,0.85-1.04,1.35-1.49c1.08-0.98,2.26-1.87,3.4-2.78
			c0.82-0.65,1.67-1.27,2.47-1.95c0.38-0.33,0.78-0.7,1-1.14c0.17-0.34,0.25-0.84-0.31-1.11c-0.94-0.46-0.99-1.44-0.85-2.22
			c0.08-0.49,0.77-1.04,1.3-1.22c0.45-0.16,1.18,0.02,1.6,0.32c1.78,1.25,3.91,1.34,5.89,1.88c0.88,0.24,1.94-0.09,2.91-0.26
			c0.25-0.05,0.44-0.47,0.67-0.7c0.78-0.8,1.88-0.87,2.71-0.12c0.54,0.48,1.13,0.94,1.5,1.53c0.22,0.35,0.14,0.97,0.03,1.42
			c-0.18,0.72-0.06,1.29,0.5,1.78c0.14,0.13,0.24,0.31,0.39,0.42c1.29,0.95,0.6,2.23,0.57,3.4c0,0.06-0.09,0.14-0.16,0.18
			c-0.84,0.47-1.41,1.26-2.34,1.68c-1.25,0.57-2.34,1.49-3.53,2.22c-0.5,0.31-1.04,0.66-1.6,0.75c-1.11,0.17-1.57-0.69-1.35-1.79
			c0.21-1.02,1.09-1.36,1.6-2.06c0.54-0.74,1.26-1.3,2.3-1.39c0.34-0.03,0.64-0.62,0.94-0.96c0.24-0.26,0.47-0.54,0.7-0.81
			c-0.37-0.3-0.72-0.63-1.12-0.89c-0.2-0.13-0.46-0.21-0.7-0.23c-0.63-0.04-0.85-0.3-0.8-0.96c0.02-0.22-0.41-0.66-0.67-0.69
			c-0.78-0.09-1.58-0.01-2.37-0.02c-0.54-0.01-1.1,0.01-1.62-0.12c-1.73-0.42-3.17,0.13-4.14,1.63c-0.14,0.22-0.38,0.38-0.57,0.57
			c-0.42,0.43-0.84,0.85-1.26,1.28c-0.15,0.15-0.27,0.4-0.45,0.45c-1.51,0.41-2.36,1.75-3.59,2.56
			C89.57,87.22,89.58,87.3,89.55,87.52z"/>
		<path class="st0" d="M202.04,183.03c1.41-0.25,2.86-0.34,4.2-0.78c1.65-0.54,3.33-0.79,5.02-1.1c0.83-0.15,1.66-0.2,2.46-0.37
			c0.63-0.13,1.23-0.56,1.78-0.94c0.62-0.44,1.2-0.95,1.75-1.49c0.21-0.2,0.32-0.55,0.39-0.85c0.29-1.36,1.29-2.17,2.77-2.22
			c0.83-0.03,2.14,1.02,2.41,1.96c0.05,0.17,0.01,0.37,0,0.56c-0.04,0.86,0.92,1.95,1.76,2.14c0.74,0.17,1.46,0.41,2.16,0.71
			c1,0.44,1.66,2.39,1.17,3.34c-0.06,0.12-0.14,0.31-0.22,0.32c-1.26,0.17-1.76,1.43-2.77,1.95c-0.87,0.45-1.75,0.88-2.57,1.4
			c-0.31,0.19-0.57,0.57-0.7,0.92c-0.57,1.53-0.62,1.35-2.18,1.68c-1.37,0.29-2.22-0.43-3.2-0.94c-0.93-0.49-1.85-0.65-2.88-0.62
			c-0.45,0.02-0.93-0.24-1.37-0.43c-2.01-0.9-4.18-0.92-6.3-1.2c-0.28-0.04-0.67,0.13-0.9,0.33c-0.82,0.73-1.81,0.6-2.75,0.57
			c-0.23-0.01-0.5-0.55-0.66-0.88c-0.24-0.48-0.28-1.1-0.62-1.46c-0.55-0.59-0.88-1.27-0.59-1.92
			C200.47,183.04,201.19,182.69,202.04,183.03z M208.17,184.53c-0.01,0.06-0.03,0.12-0.04,0.19c0.31,0.15,0.6,0.38,0.93,0.43
			c0.88,0.14,1.78,0.15,2.65,0.29c1.61,0.27,3.28,0.43,4.81,0.96c1.42,0.49,2.53,0.05,3.64-0.6c1.1-0.64,2.13-1.41,3.15-2.18
			c0.27-0.21,0.41-0.62,0.56-0.96c0.03-0.06-0.17-0.26-0.3-0.34c-0.95-0.53-1.92-1.01-2.86-1.56c-0.81-0.47-1.71-0.37-2.06,0.49
			c-0.46,1.09-1.11,1.93-2.16,2.42c-0.31,0.14-0.69,0.22-1.02,0.2c-0.87-0.07-1.75-0.38-2.59-0.28
			C211.28,183.79,209.73,184.21,208.17,184.53z"/>
		<path class="st0" d="M169.1,189.78c-2,0.41-4.27,0.87-6.54,1.34c-0.67,0.14-1.35,0.24-2.01,0.41c-1.53,0.4-3.05,0.83-4.56,1.27
			c-0.93,0.27-2.46-0.29-2.97-1.14c-0.39-0.64,0.19-1.47,1.12-1.61c1.03-0.16,2.07-0.32,3.1-0.48c1.57-0.25,3.13-0.49,4.7-0.77
			c1.75-0.31,3.49-0.68,5.24-0.98c0.73-0.12,1.49-0.06,2.21-0.21c0.84-0.17,1.63-0.52,2.47-0.72c0.42-0.1,0.89-0.12,1.31-0.04
			c0.45,0.09,0.84,0.42,1.29,0.52c1.3,0.29,1.41,1.52,1.95,2.4c0.21,0.34,0.29,0.77,0.45,1.15c0.42,1.01,1.41,1.64,2.49,1.57
			c0.56-0.04,1.14-0.25,1.58,0.35c0.51,0.71,1.14,1.35,1.07,2.31c-0.03,0.43,0.01,0.89-0.13,1.3c-0.4,1.22-1.57,1.76-2.93,1.16
			c-1.41-0.62-2.81-0.34-4.2-0.32c-1.7,0.02-3.4,0.26-5.1,0.41c-1.71,0.15-3.43,0.31-5.14,0.43c-0.59,0.04-1.2-0.06-1.79-0.04
			c-1.01,0.03-2.01,0.15-3.01,0.16c-2.49,0.03-4.7-0.74-6.61-2.39c-0.59-0.51-1.29-0.89-1.98-1.26c-0.72-0.39-1.14-1.44-0.88-2.43
			c0.2-0.75,0.83-0.89,1.43-0.78c0.38,0.07,0.83,0.35,1.03,0.68c0.46,0.73,1,1.29,1.84,1.56c0.25,0.08,0.51,0.25,0.68,0.45
			c0.97,1.1,2.36,1.36,3.65,1.78c0.52,0.17,1.16-0.06,1.74-0.08c2.14-0.09,4.28-0.13,6.42-0.27c1.66-0.11,3.31-0.33,4.96-0.53
			c0.78-0.09,1.56-0.22,2.33-0.41c0.29-0.07,0.66-0.31,0.74-0.56c0.07-0.22-0.19-0.56-0.33-0.84c-0.14-0.28-0.24-0.61-0.47-0.8
			c-0.89-0.76-1.76-1.57-2.76-2.16C170.93,189.85,170.12,189.93,169.1,189.78z"/>
		<path class="st2" d="M122.62,120.17c1.56,0.41,2.76-0.34,3.93-1.28c0.72-0.57,1.56-0.99,2.32-1.5c0.23-0.16,0.41-0.4,0.58-0.63
			c0.35-0.48,0.68-0.97,1.02-1.46c0.06-0.09,0.2-0.16,0.21-0.25c0.05-0.57,0.38-0.99,0.9-0.98c0.66,0.01,1.4,0.08,1.96,0.39
			c1.33,0.75,2.52,1.77,3.89,2.43c0.75,0.37,1.75,0.27,2.64,0.29c0.48,0.01,0.99-0.12,1.46-0.26c1.81-0.55,3.61-0.36,5.37,0.16
			c0.71,0.21,1.32,0.75,1.96,1.16c0.09,0.06,0.16,0.26,0.13,0.37c-0.2,0.72-0.34,1.48-0.68,2.13c-0.18,0.34-0.7,0.66-1.1,0.69
			c-1.37,0.12-2.7,0.19-3.83,1.2c-0.43,0.38-1.25,0.28-1.86,0.48c-1.99,0.66-3.93,1.47-5.96,2c-0.93,0.24-2.01,0.04-3-0.13
			c-2.75-0.46-5.49-1.02-8.29-0.95c-1.03,0.03-2.04,0.31-3.06-0.09c-1.04-0.41-1.65-1.02-1.64-1.73c0.01-1.01,0.91-1.88,1.96-1.92
			C121.88,120.29,122.23,120.22,122.62,120.17z M133.08,117.84c-0.03,0.13-0.06,0.27-0.09,0.4c-0.42,0.29-0.83,0.58-1.25,0.86
			c-0.16,0.1-0.34,0.16-0.5,0.25c-0.66,0.38-1.32,0.75-1.96,1.14c-0.51,0.31-1,0.65-1.5,0.98c0.71,0.29,1.33,0.37,1.94,0.49
			c1.17,0.23,2.33,0.55,3.5,0.72c0.69,0.1,1.44,0.11,2.11-0.05c0.75-0.17,1.45-0.58,2.17-0.89c0.21-0.09,0.4-0.19,0.6-0.29
			c-1.29-0.14-1.96-1.09-2.77-1.84C134.63,118.98,133.84,118.43,133.08,117.84z"/>
		<path class="st2" d="M140.09,64.92c1.07-0.05,1.62,0.42,2.11,1.28c0.36,0.62,0.8,1.12,1.77,1.2c2.42,0.19,4.75,0.61,6.43,2.83
			c0.7,0.93,1.33,1.89,1.7,2.91c0.27,0.76-0.13,1.78-0.32,2.66c-0.11,0.49-0.41,0.94-0.61,1.42c-0.43,1.03-2.01,1.42-2.93,0.77
			c-0.26-0.19-0.62-0.3-0.95-0.33c-1.16-0.11-2.34-0.3-3.5-0.22c-0.83,0.06-1.7,0.38-2.45,0.78c-1.21,0.66-2.32,1.54-3.73,0.47
			c-0.21-0.16-0.49-0.25-0.75-0.33c-1.29-0.39-1.64-1.44-1.91-2.6c-0.16-0.69-0.66-1.3-0.78-1.98c-0.13-0.69-0.07-1.46,0.09-2.14
			c0.1-0.4,0.62-0.69,0.85-1.08c0.28-0.49,0.44-1.05,0.7-1.55c0.15-0.28,0.4-0.5,0.6-0.75c0.48-0.59,1.04-1.13,1.42-1.77
			C138.38,65.48,139.02,64.76,140.09,64.92z M141,75.1c1.13-1.17,3.18-1.51,4.66-0.87c0.83,0.36,1.39,0.16,1.67-0.6
			c0.33-0.9-0.62-2.15-1.67-2.17c-0.96-0.02-1.9,0.03-2.68-0.72c-0.27-0.26-0.75-0.33-1.14-0.42c-0.17-0.04-0.52,0.07-0.55,0.18
			c-0.42,1.36-1.77,1.45-2.74,2.05c-0.65,0.4-0.76,0.64-0.11,1.07C139.24,74.16,140.12,74.6,141,75.1z"/>
		<path class="st0" d="M200.71,91.56c1.07,0.26,2.27,0.6,3.49,0.84c1.6,0.31,1.95,0.6,1.95,2.18c0,0.74-0.05,1.32,0.93,1.35
			c0.34,0.01,0.67,0.24,1.01,0.3c0.69,0.12,0.89,0.55,0.84,1.17c-0.13,1.5-1.14,2.72-2.58,3.08c-0.18,0.05-0.38,0.07-0.56,0.03
			c-2.09-0.4-4.18-0.86-6.28-1.21c-1.15-0.19-2.35-0.08-3.48-0.33c-2-0.44-4.27-0.3-5.81-1.89c-0.71-0.73-1.39-0.63-2.17-0.67
			c-1.01-0.04-1.26-0.38-1.22-1.69c0.03-0.98,0.13-1.85,0.98-2.66c0.65-0.62,1.04-1.51,2.09-1.43c1.88,0.15,3.46-0.7,5.16-1.29
			c1.05-0.37,2.02-0.83,3.03-1.27c0.89-0.39,2.32,0.5,2.47,1.48C200.63,90.13,200.65,90.72,200.71,91.56z M196.4,92.14
			c-0.07,0.16-0.24,0.41-0.19,0.47c0.36,0.44-0.03,0.59-0.28,0.74c-0.53,0.3-0.99,0.71-1.71,0.61c-0.42-0.06-0.91,0.17-1.3,0.38
			c-0.16,0.09-0.3,0.63-0.21,0.72c0.42,0.41,0.88,0.95,1.39,1.03c1.42,0.22,2.88,0.23,4.32,0.33c0.41,0.03,0.81,0.05,1.22,0.07
			c0.25,0.01,0.62,0.12,0.72,0c0.14-0.17,0.21-0.59,0.09-0.75c-0.37-0.51-0.8-1-1.29-1.4c-0.33-0.26-0.79-0.42-1.21-0.49
			C196.98,93.7,196.69,93.03,196.4,92.14z"/>
		<path class="st2" d="M41.75,108.58c-1.43,0.19-2.36,0.91-2.41,2.11c-0.05,1.13-0.93,1.66-1.99,1.3c-0.41-0.14-0.85-0.23-1.28-0.23
			c-1.18,0.01-2.18-0.41-3.13-1.06c-0.35-0.24-0.79-0.34-1.18-0.53c-0.68-0.33-1.34-0.72-2.04-1c-0.4-0.16-0.87-0.28-1.28-0.23
			c-0.44,0.06-0.89,0.48-1.26-0.04c-0.4-0.56-0.5-1.18-0.17-1.86c0.27-0.56,0.43-1.17,0.64-1.75c0.1-0.28,0.18-0.58,0.34-0.83
			c0.98-1.53,1.99-3.03,2.95-4.57c0.19-0.3,0.25-0.72,0.24-1.09c-0.03-1.28,1.49-2.65,2.73-2.41c0.1,0.02,0.24,0.06,0.29,0.13
			c0.62,0.95,1.74,1.49,2.08,2.66c0.2,0.68,0.99,1.1,1.69,1.14c1,0.05,2,0.17,2.98,0.34c0.32,0.06,0.63,0.34,0.86,0.6
			c0.63,0.68,1.23,1.39,1.82,2.11c0.28,0.35,0.62,0.72,0.25,1.23c-0.05,0.07-0.06,0.24-0.02,0.32c0.62,1.11-0.01,2.04-0.55,2.89
			c-0.29,0.45-0.96,0.66-1.46,0.98C41.83,108.72,41.79,108.65,41.75,108.58z M38.75,105.03c-0.03-1.29-0.1-1.2-1.26-1.5
			c-1.25-0.32-2.51-0.79-3.6-1.46c-0.71-0.44-0.92-0.31-1.24,0.28c-0.36,0.66-0.7,1.35-1.18,1.92c-1.17,1.39-1.14,1.73,0,2.67
			c0.2,0.17,0.44,0.33,0.69,0.4c0.89,0.24,1.84,0.33,2.67,0.7c0.88,0.39,1.46,0.06,2.09-0.41c0.15-0.11,0.31-0.22,0.47-0.31
			C38.3,106.83,38.91,106.16,38.75,105.03z"/>
		<path class="st0" d="M259.39,205.08c-0.41,0.48-0.77,0.96-1.2,1.38c-0.8,0.78-1.07,0.8-2,0.19c-0.69-0.45-0.98-1.12-0.93-1.96
			c0.1-1.71,0.75-3.33,0.74-5.09c0-0.91-0.01-1.56-0.62-2.32c-1.02-1.27,0.31-3.62,2-3.7c0.44-0.02,0.88,0.06,1.32,0.06
			c1.08-0.01,2.17,0.33,3.17-0.56c0.74-0.66,1.62-0.29,2.48,0.31c1.74,1.21,2.5,3.03,3.39,4.81c0.24,0.49,0.67,0.96,1.12,1.26
			c1.72,1.12,1.45,1.57,1.25,3.33c-0.04,0.32-0.14,0.66-0.09,0.97c0.11,0.72-0.13,1.13-0.72,1.65c-0.9,0.8-1.75,0.55-2.69,0.35
			c-0.21-0.05-0.46-0.17-0.63-0.1c-2.23,0.82-4.34,0.36-6.42-0.52C259.52,205.09,259.43,205.09,259.39,205.08z M259.01,204.1
			c0.23-0.14,0.46-0.28,0.69-0.42c0.73-0.45,1.46-0.69,2.39-0.54c1.58,0.26,3.13,0.13,4.25-1.27c0.17-0.21,0.51-0.53,0.45-0.65
			c-0.21-0.45-0.52-0.87-0.86-1.23c-0.3-0.31-0.79-0.44-1.04-0.78c-1.03-1.35-2.33-1.91-4.01-1.63c-1.12,0.19-1.39,0.41-1.57,1.52
			c-0.17,1.02-0.18,2.09-0.47,3.07C258.62,202.86,258.38,203.42,259.01,204.1z"/>
		<path class="st0" d="M146,87.93c0.67,0.27,1.46,0.41,1.99,0.85c1.34,1.11,3.03,1.18,4.55,1.71c0.79,0.28,1.67,0.35,2.42,0.7
			c0.41,0.2,0.7,0.76,0.93,1.21c0.2,0.38,0.31,0.84,0.32,1.26c0.01,0.28-0.15,0.67-0.37,0.84c-0.66,0.52-1.38,0.96-2.08,1.43
			c-0.16,0.11-0.36,0.21-0.43,0.36c-0.53,1.08-1.04,2.16-1.53,3.26c-0.24,0.54-0.45,1.19-1.12,1.18c-0.81-0.01-1.81,0.17-2.29-0.75
			c-0.43-0.82-1.02-1-1.88-0.9c-0.64,0.07-1.32-0.01-1.96-0.14c-1.14-0.22-2.17,0.02-3.15,0.61c-0.86,0.52-1.82,0.39-2.45-0.33
			c-0.44-0.5-0.44-1.02-0.03-1.55c0.14-0.18,0.33-0.48,0.27-0.6c-0.43-0.82,0.21-1.11,0.67-1.52c0.32-0.28,0.6-0.61,0.89-0.93
			c0.07-0.08,0.08-0.25,0.16-0.28c1.29-0.62,1.32-2.14,2.19-3.05c0.46-0.48,0.73-0.97,0.83-1.67
			C144.06,88.68,145.05,88.04,146,87.93z M143.57,95.8c0.06,0.1,0.13,0.21,0.19,0.31c0.26,0.02,0.52,0.07,0.77,0.06
			c1.33-0.04,2.65-0.16,3.98-0.13c1.83,0.04,2.14-0.97,1.86-2.41c-0.12-0.63-0.45-0.97-1.16-0.84c-0.31,0.06-0.68,0.08-0.97-0.03
			c-0.97-0.35-1.83-0.27-2.53,0.51C144.97,94.1,144.28,94.96,143.57,95.8z"/>
		<path class="st0" d="M200.76,259.07c-0.7,0.15-1.4,0.36-2.11,0.45c-0.83,0.1-1.67,0.17-2.5,0.12c-0.93-0.06-1.87-0.21-2.77-0.44
			c-0.71-0.18-1.44-0.42-2.03-0.83c-0.71-0.49-0.63-1.96,0.03-2.53c0.14-0.12,0.37-0.24,0.52-0.2c0.89,0.25,1.76,0.54,2.64,0.82
			c0.39,0.12,0.79,0.25,1.18,0.37c0.05,0.01,0.11-0.02,0.16-0.01c1.55,0.48,2.62-0.4,3.73-1.25c0.92-0.71,0.91-1.8-0.09-2.43
			c-0.51-0.32-1.14-0.93-1.57-0.82c-1.2,0.3-2.53,0.01-3.64,0.92c-0.94,0.77-2.07,1.32-3.17,1.85c-0.52,0.25-1.16,0.26-1.75,0.32
			c-0.11,0.01-0.29-0.22-0.37-0.38c-0.21-0.42-0.39-0.85-0.56-1.29c-0.3-0.76,0.16-1.43,0.96-1.42c0.16,0,0.41,0.04,0.47-0.04
			c0.61-0.79,1.48-1.12,2.34-1.53c0.27-0.13,0.39-0.66,0.51-1.03c0.38-1.15,0.56-2.42,1.95-2.9c0.61-0.21,1.2-0.62,1.81-0.66
			c1.08-0.07,1.9,1.28,1.62,2.49c-0.19,0.86-0.12,0.93,0.78,0.82c1.33-0.16,2.6-0.08,3.51,1.06c0.25,0.31,0.34,0.75,0.52,1.12
			c0.2,0.42,0.38,0.85,0.64,1.24c0.62,0.92,1.3,1.8,1.91,2.73c0.05,0.08-0.16,0.39-0.3,0.54c-0.47,0.49-1.06,0.89-1.43,1.45
			C203.04,258.71,202.05,259.17,200.76,259.07z"/>
		<path class="st0" d="M113.78,182.84c0.59-0.1,1.18-0.19,1.77-0.3c0.64-0.12,1.28-0.25,1.92-0.38c1.86-0.38,3.71-0.77,5.57-1.14
			c1.14-0.23,2.28-0.4,3.42-0.64c0.31-0.06,0.6-0.25,0.91-0.37c0.84-0.34,1.65-0.73,2.51-0.99c0.38-0.11,0.84,0.07,1.27,0.09
			c0.4,0.02,0.83,0.1,1.2,0c0.73-0.18,1.26,0.06,1.63,0.63c0.34,0.52,0.58,1.1,0.87,1.65c0.1,0.19,0.19,0.43,0.36,0.53
			c0.91,0.56,0.99,1.52,1.19,2.41c0.19,0.83-0.39,1.51-1.3,1.51c-0.92,0-1.85-0.22-2.77-0.2c-2.54,0.07-5.08,0.21-7.62,0.32
			c-0.88,0.04-1.76,0.03-2.63,0.13c-0.88,0.11-1.75,0.37-2.63,0.48c-0.48,0.06-0.98-0.07-1.48-0.11c-0.68-0.07-1.38-0.04-2.02-0.23
			c-0.98-0.29-2.03-0.58-2.84-1.15c-0.41-0.29-0.48-1.22-0.49-1.86c0-0.19,0.7-0.4,1.08-0.6
			C113.72,182.7,113.75,182.77,113.78,182.84z M125.37,183.26c0,0.1,0,0.19,0,0.29c2.04-0.15,4.07-0.29,6.11-0.44
			c0-0.08-0.01-0.15-0.01-0.23C129.36,181.81,127.39,182.87,125.37,183.26z"/>
		<path class="st0" d="M66.53,158.94c-2.43-0.1-4.87-0.12-7.29-0.34c-1.78-0.16-3.53-0.61-5.29-0.92c-0.35-0.06-0.71-0.12-1.05-0.07
			c-0.74,0.12-1.03-0.46-1.37-0.87c-0.36-0.44-0.12-0.95,0.22-1.34c0.13-0.15,0.35-0.29,0.54-0.33c1.72-0.34,3.44-0.66,5.17-0.99
			c1.78-0.34,3.57-0.68,5.35-1.04c0.16-0.03,0.36-0.15,0.45-0.28c1.52-2.17,2.2-1.82,4.35-0.64c0.78,0.43,1.18,0.22,1.78-0.12
			c0.98-0.57,2.09-1.09,3.16-0.48c0.77,0.44,1.38,1.21,1.95,1.92c0.3,0.38-0.42,1.49-0.95,1.83c-1.31,0.83-2.63,1.66-3.86,2.61
			C68.72,158.62,67.69,158.96,66.53,158.94z M65.52,155.75c0.03-0.08,0.06-0.15,0.1-0.23c-0.26-0.16-0.55-0.48-0.78-0.45
			c-0.98,0.14-1.95,0.38-2.92,0.58c0.01,0.09,0.03,0.18,0.04,0.27C63.15,155.87,64.33,155.81,65.52,155.75z"/>
		<path class="st2" d="M213.43,123.12c-0.1-0.63-0.27-1.14-0.25-1.64c0.02-0.45,0.21-0.92,0.43-1.32c0.39-0.71,0.81-1.41,1.32-2.04
			c0.42-0.51,0.99-0.89,1.47-1.36c0.22-0.21,0.49-0.47,0.55-0.74c0.34-1.51,1.38-2.66,3.13-2.2c0.57,0.15,1.26,0.1,1.84-0.06
			c1.35-0.38,2.62-0.22,3.86,0.31c1.11,0.48,1.13,2.11,0.07,2.87c-0.4,0.29-0.82,0.54-1.23,0.8c-0.6,0.38-0.61,0.66-0.09,1.12
			c0.7,0.63,1.49,1.14,1.9,2.08c0.55,1.26-0.11,2.73-1.46,2.96c-0.19,0.03-0.43,0.04-0.54,0.15c-0.68,0.68-1.52,0.63-2.38,0.65
			c-1.59,0.03-3.18,0.16-4.77,0.12c-1.19-0.03-2.27-0.5-3.17-1.33C213.89,123.31,213.62,123.22,213.43,123.12z M219.4,122.28
			c0.01-0.12,0.03-0.24,0.04-0.37c0.35-0.1,0.7-0.19,1.04-0.29c0.4-0.12,0.86-0.18,1.17-0.43c0.11-0.09-0.08-0.64-0.22-0.95
			c-0.17-0.38-0.52-0.7-0.63-1.1c-0.19-0.71-0.78-1.07-1.35-0.63c-0.95,0.73-1.84,1.52-2.74,2.31c-0.12,0.11-0.14,0.32-0.29,0.66
			C217.47,121.77,218.43,122.02,219.4,122.28z"/>
		<path class="st0" d="M167.71,101.2c0.52,0.65,1.04,1.29,1.55,1.94c0.25,0.32,0.56,0.62,0.72,0.98c0.36,0.85-0.3,1.35-0.85,1.72
			c-0.57,0.39-1.28,0.64-1.96,0.79c-1.09,0.24-2.2,0.39-3.31,0.52c-2.27,0.27-4.53,0.82-6.83,0.05c-0.49-0.17-1.09,0.01-1.64,0.01
			c-1.47-0.01-2.38-1.42-1.83-2.79c0.06-0.16,0.13-0.39,0.07-0.52c-0.51-1.08-0.01-2.16,1.13-2.49c0.84-0.24,1.64-0.61,2.47-0.89
			c1.39-0.46,2.8-0.89,4.2-1.33c0.87-0.27,1.74-0.56,2.62-0.77c0.93-0.22,1.87-0.38,2.81-0.55c1.16-0.21,2.02,1.6,1.67,2.75
			C168.48,100.81,168.13,100.92,167.71,101.2z M164.41,103.46c-0.22-0.3-0.43-0.55-0.58-0.83c-0.26-0.47-1.59-0.97-1.88-0.58
			c-0.56,0.73-1.37,0.58-2.07,0.81c-0.84,0.28-1.67,0.6-2.67,0.96C159.83,105.54,161.6,105.23,164.41,103.46z"/>
		<path class="st0" d="M112.65,125.7c0.39-0.14,0.78-0.31,1.18-0.43c1.42-0.43,2.84-0.87,4.27-1.25c0.65-0.17,1.13,0.19,1.68,0.59
			c1.05,0.75,1.37,1.66,1.07,2.81c-0.38,1.44,0.12,2.27,1.43,2.99c1.11,0.61,1.34,1.94,1.63,3.11c0.03,0.11-0.16,0.33-0.31,0.41
			c-1.29,0.74-2.58,1.44-4.18,1.01c-0.41-0.11-0.94,0.28-1.4,0.24c-1.19-0.11-2.37-0.34-3.56-0.49c-0.42-0.05-0.87-0.1-1.26,0.01
			c-0.7,0.2-1.24,0.02-1.53-0.59c-0.48-1.03-0.88-2.1-1.31-3.14c-0.09-0.23-0.19-0.47-0.34-0.65c-0.66-0.79-0.66-1.57-0.05-2.39
			c0.45-0.6,0.81-1.27,1.31-1.82c0.31-0.34,0.82-0.49,1.23-0.73C112.54,125.48,112.6,125.59,112.65,125.7z M114.06,130.71
			c0.11,0.1,0.37,0.48,0.71,0.58c0.91,0.28,1.85,0.47,2.79,0.63c0.26,0.04,0.74-0.07,0.79-0.22c0.09-0.25-0.07-0.6-0.16-0.9
			c-0.24-0.85-0.56-1.68-0.74-2.54c-0.09-0.46-0.17-0.68-0.7-0.64c-0.53,0.04-0.8,0.28-1.07,0.73
			C115.25,129.11,114.71,129.8,114.06,130.71z"/>
		<path class="st0" d="M207.51,130.85c0.56-0.02,1.14-0.15,1.66-0.03c0.3,0.07,0.6,0.51,0.73,0.85c0.18,0.47,0.5,0.4,0.84,0.42
			c0.57,0.03,1.16,0.04,1.71,0.15c0.35,0.07,0.8,0.25,0.97,0.52c0.46,0.72,1.1,1.27,1.18,2.3c0.07,0.84,0.15,1.68,0.2,2.53
			c0.04,0.56-0.21,0.83-0.5,1.2c-0.31,0.41-0.69,0.96-0.65,1.41c0.1,1.01-0.41,1.52-1.14,1.98c-1.41,0.88-2.19,0.62-2.86-0.93
			c-0.09-0.22-0.24-0.52-0.42-0.57c-1.19-0.31-2.27-1.17-3.62-0.67c-0.58,0.21-1.21,0.29-1.82,0.4c-0.14,0.03-0.37-0.01-0.44-0.11
			c-0.5-0.65-1.24-1.28-1.37-2.01c-0.13-0.69,0.26-1.58,0.67-2.23c0.33-0.52,0.62-0.88,0.68-1.59
			C203.51,132.54,204.99,130.65,207.51,130.85z M207.37,136.38c1.05,0.89,2.37,0.43,3.43,0.9c0.08-0.21,0.29-0.52,0.22-0.62
			C210.38,135.79,208.35,135.6,207.37,136.38z"/>
		<path class="st0" d="M200.24,121.9c-0.62-0.28-1.21-0.64-1.86-0.84c-1.56-0.48-2.3-1.68-2.98-3.03c-0.32-0.63-0.89-1.15-1.41-1.66
			c-0.71-0.7-0.77-1.47-0.02-2.12c0.36-0.32,0.58-0.58,0.39-1.12c-0.19-0.52,0.39-1.09,1.07-1.16c1.02-0.11,1.93,0.07,2.91,0.48
			c0.97,0.42,2.12,0.48,3.2,0.59c1.01,0.09,2.03,0.03,3.05,0.03c0.22,0,0.47,0.04,0.64-0.05c0.77-0.4,1.18-0.14,1.42,0.64
			c0.08,0.26,0.19,0.58,0.39,0.72c1,0.69,0.72,1.53,0.34,2.38c-0.34,0.75-0.69,1.5-1.05,2.24c-0.06,0.13-0.21,0.25-0.34,0.31
			c-1.16,0.51-2.4,0.9-3.47,1.56c-0.7,0.43-1.24,1.06-2.18,0.77C200.29,121.73,200.26,121.81,200.24,121.9z M200.62,116.46
			c1.27,1.07,1.46,1.07,1.93,0.05C201.95,116,201.33,115.74,200.62,116.46z"/>
		<path class="st2" d="M140.42,217.72c-0.68,0.06-0.94-0.31-1.25-0.81c-0.47-0.77-0.83-1.38-0.37-2.4c0.26-0.58,0.38-1.6-0.4-2.28
			c-0.21-0.19-0.19-0.66-0.25-1.01c-0.3-1.8,0.13-2.68,1.71-3.48c0.14-0.07,0.3-0.14,0.45-0.15c1.1-0.03,2.2,0.03,3.29-0.1
			c0.49-0.06,0.94-0.49,1.41-0.76c0.43-0.24,0.85-0.48,1.28-0.72c0.7-0.4,1.24-0.17,1.73,0.39c0.27,0.3,0.65,0.51,0.9,0.83
			c0.2,0.25,0.43,0.61,0.4,0.9c-0.13,1.61-0.34,3.22-0.5,4.82c-0.15,1.45-1.44,2.66-2.85,2.98c-1.4,0.31-2.74,0.87-4.1,1.32
			C141.39,217.41,140.9,217.57,140.42,217.72z M144.87,211.61c-0.01-0.12-0.01-0.25-0.02-0.37c-0.33-0.07-0.74-0.3-0.98-0.19
			c-0.55,0.26-1.39,0.15-1.54,1.02c-0.06,0.36-0.01,0.78,0.45,0.6C143.51,212.4,144.18,211.97,144.87,211.61z"/>
		<path class="st0" d="M136.25,242.28c-0.73-0.43-1.2-0.71-1.67-0.98c-0.45-0.25-0.58,0.11-0.83,0.37
			c-0.53,0.56-1.09,1.15-1.75,1.52c-0.85,0.47-1.61-0.12-1.66-1.11c-0.04-0.82,0.05-1.55,0.67-2.19c0.33-0.34,0.52-0.84,0.75-1.28
			c0.7-1.31,2.18-1.88,3.58-1.22c0.76,0.36,1.58,0.59,2.31,0.93c0.93,0.44,1.63,1.35,2.44,2.05c-0.04,0.07-0.08,0.14-0.12,0.21
			c0.14-0.07,0.3-0.12,0.43-0.2c1.26-0.77,2.22-0.52,3.11,0.7c0.32,0.44,0.83,0.76,1.3,1.07c0.59,0.38,0.94,0.79,0.72,1.56
			c-0.16,0.54-0.07,1.16-0.28,1.66c-0.14,0.32-0.61,0.56-0.98,0.7c-1.26,0.47-2.54,0.44-3.88,0.22c-0.48-0.08-1.08,0.47-1.61,0.76
			c-0.16,0.08-0.25,0.31-0.41,0.35c-1.21,0.31-3.59-0.9-3.94-2.11c-0.18-0.63-0.09-1.36,0.01-2.03c0.03-0.19,0.51-0.32,0.8-0.47
			C135.5,242.63,135.79,242.5,136.25,242.28z M138.05,242.56c0.01,0.09,0.02,0.18,0.04,0.27c0.53,0.02,1.25,0.26,1.53,0.01
			c0.3-0.27,0.19-1,0.21-1.53c0-0.06-0.41-0.24-0.46-0.19C138.91,241.58,138.48,242.07,138.05,242.56z"/>
		<path class="st0" d="M109.08,111.16c-1.16-0.36-2.2-0.68-3.41-1.06c0.25-0.8,0.45-1.49,0.69-2.15c0.07-0.19,0.25-0.41,0.43-0.46
			c1.07-0.32,1.66-1.22,2.39-1.94c0.55-0.54,1.62-0.84,2.34-0.54c0.62,0.26,1.33,0.47,1.77,0.93c0.41,0.43,0.63,1.12,0.76,1.74
			c0.27,1.33,1.31,1.8,2.35,2.31c0.81,0.4,1.64,0.77,2.4,1.24c0.58,0.35,0.92,0.87,0.44,1.58c-0.14,0.2-0.23,0.44-0.29,0.68
			c-0.28,1.17-0.92,1.6-2.16,1.49c-1.99-0.17-3.99-0.18-5.95-0.49c-0.82-0.13-1.59-0.78-2.31-1.3c-0.16-0.12-0.05-0.71,0.05-1.06
			C108.67,111.81,108.89,111.52,109.08,111.16z M112.03,111.01c-0.25-0.71-0.56-1.19-1.2-1.18c-0.25,0-0.49,0.36-0.81,0.62
			C110.79,110.67,111.32,110.82,112.03,111.01z"/>
		<path class="st0" d="M142.98,48.39c1.51-0.19,3.08-0.19,4.45-1.08c0.59-0.39,0.57-0.86,0.04-1.13c-0.84-0.43-1.75-0.78-2.68-0.98
			c-0.35-0.07-0.82,0.34-1.21,0.58c-0.59,0.37-1.14,0.82-1.75,1.18c-0.2,0.12-0.61,0.18-0.73,0.07c-0.26-0.25-0.62-0.75-0.53-0.94
			c0.73-1.4,0.53-3.16,1.73-4.36c0.49-0.49,0.98-1.3,1.52-1.36c0.98-0.1,2.13,0.17,2.74,1.04c0.95,1.35,2.35,1.54,3.75,1.9
			c1.03,0.26,1.89,0.84,2.37,1.86c0.14,0.3,0.27,0.59,0.43,0.88c0.28,0.53,0.42,1.01-0.25,1.38c-0.2,0.11-0.34,0.35-0.49,0.54
			c-0.43,0.55-0.85,1.09-1.66,1.06c-0.1,0-0.22,0.05-0.31,0.11c-1.14,0.75-2.43,1.01-3.73,1.3c-1.16,0.27-2.27,0.78-3.37,1.26
			c-0.46,0.2-0.68,0.18-0.89-0.3c-0.19-0.42-0.51-0.79-0.69-1.21C141.38,49.35,142.07,48.36,142.98,48.39z"/>
		<path class="st2" d="M126.24,203.93c0.12,0.94-0.36,1.35-1.32,1.53c-0.77,0.15-1.36,0.92-2.28,0.78c-0.73-0.11-1.5-0.11-1.78-1.01
			c-0.04-0.11-0.23-0.22-0.37-0.24c-1.24-0.19-2.48-0.32-3.71-0.56c-0.84-0.17-1.68-0.42-2.45-0.78c-0.28-0.13-0.54-0.73-0.48-1.06
			c0.05-0.27,0.57-0.48,0.91-0.66c0.15-0.08,0.38-0.02,0.57,0c0.9,0.1,1.67,0.05,2.24-0.9c0.28-0.47,1.02-0.66,1.54-0.99
			c1.22-0.77,2.44-1.56,3.67-2.32c0.28-0.17,0.59-0.31,0.9-0.41c1.1-0.38,1.46-0.25,2.2,0.63c0.76,0.9,1.58,1.76,2.32,2.67
			c0.2,0.24,0.23,0.62,0.33,0.93c0.05,0.15,0.02,0.33,0.09,0.47c0.44,0.84,0.37,1.2-0.51,1.54
			C127.57,203.76,126.95,203.79,126.24,203.93z M125.44,203.04c0.02-0.09,0.04-0.17,0.06-0.26c-0.12-0.09-0.23-0.21-0.36-0.27
			c-0.64-0.34-1.29-0.67-1.93-1c-0.76-0.39-2.19,0.1-2.72,1.1C122.21,202.76,123.83,202.9,125.44,203.04z"/>
		<path class="st0" d="M248.1,177.54c-0.11,0-0.22,0.01-0.33,0c-0.97-0.15-1.82,0.05-2.68,0.59c-1.07,0.67-3.03,0.13-3.59-0.96
			c-0.27-0.53-0.22-1.21-0.36-1.82c-0.12-0.52-0.33-1.02-0.44-1.55c-0.07-0.32-0.11-0.69-0.02-1c0.15-0.49,0.15-0.83-0.28-1.23
			c-0.8-0.72-0.68-1.51,0.22-2.09c0.3-0.19,0.67-0.34,0.86-0.61c0.39-0.56,0.91-0.49,1.4-0.34c0.56,0.18,1.28,0.37,1.3,1.08
			c0.02,0.76,0.45,1.06,0.99,1.35c1.56,0.86,3.13,1.7,4.7,2.55c0.83,0.45,1.21,1.24,1.04,2.09c-0.13,0.62,0.19,1.44-0.79,1.64
			c-0.66,0.14-1.33,0.25-1.99,0.38C248.11,177.6,248.11,177.57,248.1,177.54z"/>
		<path class="st2" d="M188.02,188.49c1.25,0,2.5-0.04,3.74,0.02c0.46,0.02,0.91,0.27,1.35,0.45c0.72,0.29,1.45,0.58,2.14,0.94
			c0.32,0.17,0.79,0.49,0.79,0.74c-0.02,0.67-0.11,1.41-0.43,1.97c-0.79,1.38-2.13,2.18-3.53,2.83c-1.93,0.88-4.14,0.31-5.32-1.43
			c-0.26-0.38-0.22-1.05-0.13-1.56c0.1-0.55,0.05-0.9-0.5-1.11c-0.83-0.32-1-0.91-0.73-1.71c0.24-0.72,0.71-1.16,1.47-1.21
			c0.38-0.03,0.77,0.04,1.15,0.06C188.02,188.48,188.02,188.49,188.02,188.49z"/>
		<path class="st0" d="M87.38,172.29c0.59,0.3,1.17,0.6,1.76,0.9c0.07,0.04,0.16,0.1,0.18,0.17c0.35,1.66,1.71,1.59,2.93,1.69
			c0.77,0.06,1.44,0.38,1.58,1.07c0.13,0.62,0.03,1.46-0.31,1.98c-0.87,1.3-3.1,1.78-4.52,1.15c-0.88-0.39-1.69-0.4-2.62-0.19
			c-0.96,0.22-1.95,0.42-2.74-0.5c-0.51-0.59-0.51-1.3-0.1-1.93c0.29-0.45,0.43-1.02,0.55-1.56
			C84.45,173.43,85.57,172.47,87.38,172.29z"/>
		<path class="st0" d="M80.64,199.24c0.25-0.63,0.42-1.3,0.77-1.86c0.7-1.15,1.78-1.93,2.83-2.75c0.82-0.64,1.8-0.43,2.63-0.87
			c0.89-0.46,1.82-0.85,2.75-1.21c0.57-0.22,1.2-0.29,1.79-0.47c0.32-0.1,0.65-0.24,0.89-0.46c1.3-1.17,2.92-0.87,3.45,0.67
			c0.15,0.43,0.07,0.7-0.33,1.04c-1.2,1.02-2.68,1.27-4.11,1.71c-1.85,0.58-3.71,1.19-5.48,1.97c-1.08,0.47-1.68,1.52-1.94,2.7
			c-0.13,0.56-0.33,1.19-0.95,1.18c-0.64-0.02-1.31-0.26-1.89-0.57C80.82,200.21,80.79,199.67,80.64,199.24z"/>
		<path class="st0" d="M148.7,147.33c-0.58,0.5-1.11,1.01-1.71,1.43c-0.22,0.16-0.63,0.23-0.88,0.14c-0.96-0.38-1.76,0.04-2.61,0.35
			c-0.43,0.16-0.89,0.21-1.34,0.31c-0.36,0.08-0.73,0.18-1.09,0.24c-0.27,0.04-0.55,0.09-0.81,0.05c-1.28-0.21-2.11-2.49-1.31-3.51
			c0.74-0.94,1.86-1.09,2.87-1.48c0.25-0.1,0.62-0.06,0.75-0.22c0.92-1.12,2.2-1.08,3.46-1.15c1.22-0.06,2.63,1.5,2.66,2.69
			C148.71,146.59,148.7,147,148.7,147.33z"/>
		<path class="st0" d="M240.8,214.05c-1.78,0.02-3.38-0.63-4.99-1.27c-1.21-0.48-2.48-0.8-3.7-1.26c-0.71-0.27-1.38-0.66-2.07-1
			c-0.17-0.08-0.34-0.25-0.51-0.25c-1.19-0.01-1.46-0.93-1.83-1.77c-0.36-0.81,0.09-1.69,0.96-1.61c0.91,0.08,1.82,0.37,2.68,0.68
			c0.87,0.32,1.68,0.77,2.52,1.17c0.47,0.22,0.94,0.47,1.42,0.67c1.44,0.6,2.9,1.16,4.34,1.76c0.3,0.12,0.55,0.37,0.84,0.5
			c0.32,0.14,0.67,0.29,1,0.28c0.59-0.02,1.3,0.31,1.35,0.76c0.09,0.65-0.29,1.1-1.03,1.22C241.45,214,241.12,214.02,240.8,214.05z"
			/>
		<path class="st2" d="M166.38,176.76c-1.97,0-3.94-0.02-5.9,0.01c-0.79,0.01-1.59,0.14-2.38,0.19c-1.53,0.08-3.07,0.16-4.6,0.2
			c-0.87,0.02-1.4-0.61-1.8-1.26c-0.32-0.52,0.19-1.44,0.99-1.64c1.02-0.25,2.03-0.65,3.16-0.11c0.64,0.31,1.49,0.2,2.25,0.22
			c1,0.03,2,0.01,3,0.03c0.6,0.01,1.21,0.15,1.79,0.07c1.23-0.17,2.45,0.4,3.72-0.15c0.83-0.36,1.76-0.11,2.36,0.71
			c0.22,0.3,0.55,0.81,0.45,0.97c-0.21,0.32-0.66,0.57-1.06,0.65c-0.64,0.13-1.31,0.09-1.97,0.13
			C166.38,176.78,166.38,176.77,166.38,176.76z"/>
		<path class="st0" d="M246.63,154.39c-0.81-0.12-1.56-0.2-2.3-0.36c-0.54-0.11-1.07-1.31-0.75-1.78c0.4-0.6,0.2-0.97-0.24-1.42
			c-0.96-0.97-1.02-1.45-0.52-2.55c0.27-0.59,0.6-0.94,1.33-0.8c0.3,0.06,0.64-0.15,0.95-0.14c1.43,0.02,2.53,0.78,3.65,1.56
			c1.01,0.71,1.58,1.6,1.68,2.82c0.06,0.81-0.56,1.85-1.35,2.09C248.27,154.05,247.43,154.2,246.63,154.39z"/>
		<path class="st0" d="M134.24,140.42c-0.14-0.01-0.28-0.01-0.41-0.03c-0.5-0.08-1.19,0.18-1.23-0.7c-0.04-0.92,0.46-1.33,1.17-1.68
			c0.98-0.48,2.16-0.47,3.01-1.32c0.35-0.34,1.03-0.33,1.5-0.58c1.21-0.65,2.34-1.5,3.61-1.98c1.01-0.38,2.17-0.38,3.27-0.42
			c0.19-0.01,0.49,0.63,0.59,1.01c0.16,0.59-0.15,0.95-0.72,1.19c-1.37,0.55-2.8,1.02-4.06,1.78c-1.55,0.93-3.13,1.74-4.81,2.37
			c-0.61,0.23-1.26,0.32-1.9,0.48C134.26,140.49,134.25,140.46,134.24,140.42z"/>
		<path class="st2" d="M117.84,96.5c0.02,0.45-0.23,0.82-0.87,0.94c-1.85,0.34-3.3,1.4-4.69,2.59c-0.51,0.43-1.15,0.71-1.75,1.03
			c-0.85,0.46-1.71,0.9-2.57,1.34c-0.58,0.3-1.06,0.09-1.46-0.35c-0.48-0.53-0.2-0.99,0.21-1.35c0.94-0.83,1.87-1.7,2.9-2.41
			c1.37-0.95,2.78-1.86,4.25-2.62c0.81-0.42,1.78-0.55,2.7-0.7C117.06,94.88,117.85,95.84,117.84,96.5z"/>
		<path class="st2" d="M67.82,178.68c-0.08-0.01-0.27,0.01-0.41-0.06c-2.11-1.04-4.32-0.08-6.46-0.33c-0.89-0.1-1.81-0.09-2.65-0.34
			c-1.09-0.32-1.29-1.03-0.76-2.03c0.48-0.92,0.77-0.97,1.79-0.6c0.34,0.12,0.77-0.02,1.16-0.06c0.45-0.04,0.91-0.17,1.34-0.1
			c1.18,0.17,2.36,0.4,3.53,0.65c0.65,0.14,1.28,0.37,1.93,0.56c0.26,0.08,0.53,0.22,0.79,0.2c0.58-0.05,0.76,0.26,0.88,0.74
			C69.22,178.35,68.96,178.69,67.82,178.68z"/>
		<path class="st0" d="M71.16,146.1c-0.37-0.32-0.8-0.52-0.96-0.86c-0.28-0.58,0.12-1.63,0.7-1.95c0.64-0.35,1.39-0.54,1.99-0.95
			c1.48-1.02,3.3-0.77,4.87-1.4c0.3-0.12,0.71-0.04,1.06,0.02c0.59,0.09,0.94,0.97,0.43,1.45c-0.64,0.61-1.48,1.03-2.28,1.45
			c-0.79,0.41-1.63,0.75-2.47,1.07C73.46,145.32,72.38,145.67,71.16,146.1z"/>
		<path class="st2" d="M273.18,157.28c0.02,0.79-0.34,1.37-1.02,1.75c-1.07,0.6-1.4,1.74-2.04,2.66c-0.4,0.58-1.15,1.12-1.83,1.27
			c-0.55,0.12-1.25-0.34-1.86-0.6c-0.1-0.04-0.11-0.34-0.13-0.52c-0.04-0.37,0-0.75-0.08-1.1c-0.17-0.81,0.03-1.08,0.85-1.16
			c0.2-0.02,0.43-0.11,0.56-0.25c0.82-0.89,1.83-1.51,2.85-2.14c0.49-0.3,0.84-0.72,1.51-0.82
			C273,156.21,273.2,156.25,273.18,157.28z"/>
		<path class="st0" d="M39.15,174c-0.45-0.28-1.13-0.47-1.29-0.87c-0.18-0.48,0.06-1.14,0.16-1.71c0.07-0.38,0.2-0.75,0.35-1.11
			c0.16-0.39,0.36-0.76,0.56-1.13c0.21-0.38,0.57-0.72,0.63-1.11c0.09-0.57,0.24-1.13,0.81-1.16c0.64-0.03,1.33,0.14,1.93,0.38
			c0.34,0.13,0.57,0.57,0.82,0.9c0.36,0.47,0.19,1.3-0.39,1.54c-1.4,0.59-1.96,1.75-2.26,3.11C40.31,173.66,40.23,173.73,39.15,174z
			"/>
		<path class="st2" d="M232.88,198.18c-0.52-0.18-1.09-0.36-1.64-0.58c-0.5-0.2-0.6-0.58-0.46-1.08c0.22-0.79,1.07-1.44,1.86-1.42
			c0.14,0,0.29,0.06,0.4,0.01c0.89-0.38,1.79-0.72,2.64-1.18c0.72-0.39,1.83-0.31,2.27,0.29c0.52,0.7,0.45,1.65-0.35,2.14
			C236.18,197.24,234.61,197.79,232.88,198.18z"/>
		<path class="st0" d="M250.89,123.57c-1.39-1.29-0.6-2.56-0.44-3.82c0.17-1.3,1-2.22,1.66-3.23c0.18-0.28,0.68-0.58,0.96-0.52
			c0.53,0.11,1.07,0.49,0.97,1.15c-0.15,0.97-0.43,1.92-0.61,2.88c-0.13,0.72-0.15,1.45-0.3,2.17c-0.06,0.3-0.26,0.7-0.5,0.81
			C252.05,123.28,251.4,123.41,250.89,123.57z"/>
		<path class="st2" d="M225.37,164.37c-1.42,0.05-2.77-1.18-2.36-2.82c0.04-0.17,0.18-0.32,0.29-0.46c1.32-1.6,3.02-1.72,4.84-1.16
			c0.76,0.23,0.44,1.01,0.37,1.49c-0.06,0.43-0.47,0.83-0.78,1.2c-0.34,0.42-0.7,0.84-1.13,1.16
			C226.24,164.05,225.78,164.18,225.37,164.37z"/>
		<path class="st0" d="M222.28,239.25c1.22,0.02,2.06,0.72,2.11,1.67c0.02,0.32-0.18,0.71-0.4,0.97c-0.24,0.28-0.59,0.54-0.93,0.64
			c-1.17,0.33-2.35,0.61-3.54,0.85c-0.28,0.06-0.83-0.06-0.89-0.22c-0.17-0.52-0.42-1.26-0.19-1.61c0.43-0.66,1.13-1.21,1.83-1.61
			C220.94,239.56,221.75,239.42,222.28,239.25z"/>
		<path class="st2" d="M159.01,203.73c1.49,0.05,2.78,1.82,2.43,3.09c-0.04,0.13-0.11,0.25-0.19,0.35
			c-1.11,1.34-3.85,1.03-4.54-0.55c-0.21-0.47-0.46-1.3-0.25-1.51c0.68-0.66,1.42-1.38,2.5-1.38
			C159.04,203.73,159.12,203.73,159.01,203.73z"/>
		<path class="st0" d="M145.1,185.99c-1.5-0.08-1.71-0.81-1.84-2.04c-0.09-0.86,0.82-1.48,1.87-1.51c0.37-0.01,0.78-0.22,1.09-0.44
			c0.63-0.44,1.69-0.64,2.21-0.34c0.57,0.32,0.62,0.77,0.25,1.23c-0.74,0.91-1.49,1.82-2.32,2.64
			C146.08,185.82,145.53,185.84,145.1,185.99z"/>
		<path class="st2" d="M213.4,72.26c-0.61,0.15-1.46,0.44-2.33,0.56c-0.78,0.1-1.58,0.05-2.36-0.04c-0.18-0.02-0.38-0.5-0.41-0.79
			c-0.02-0.17,0.23-0.44,0.42-0.56c0.44-0.28,0.91-0.52,1.38-0.72c0.31-0.13,0.66-0.16,0.99-0.25c0.35-0.1,0.74-0.15,1.02-0.35
			c0.62-0.43,2.23-0.4,2.79,0.13c0.38,0.35,0.51,0.73,0.3,1.25C214.9,72.2,214.39,72.4,213.4,72.26z"/>
		<path class="st0" d="M233.3,131.83c-0.46-0.27-1.04-0.48-1.4-0.88c-0.22-0.24-0.25-0.87-0.08-1.18c0.37-0.71,0.98-1.18,1.88-1.16
			c0.64,0.02,1.29,0,1.92-0.12c1.04-0.2,1.86,0.33,1.74,1.24c-0.04,0.28-0.24,0.68-0.47,0.78
			C235.76,130.98,234.6,131.36,233.3,131.83z"/>
		<path class="st0" d="M163.01,248.9c-1.61,0.09-2.24-0.8-1.73-2.06c0.45-1.11,1.2-1.63,2.39-1.26c0.73,0.23,1.38,0.9,1.89,1.52
			c0.34,0.41-0.47,1.46-1.17,1.6C163.86,248.8,163.31,248.85,163.01,248.9z"/>
		<path class="st2" d="M159.89,215.81c1.33,0.11,2.26,0.88,2.2,1.81c-0.06,0.95-1.45,1.88-2.63,1.77c-0.92-0.09-1.5-0.81-1.41-1.76
			C158.17,216.36,158.81,215.72,159.89,215.81z"/>
		<path class="st2" d="M122.77,107.6c-1.08,0.19-1.33-0.02-1.69-0.96c-0.58-1.52,0.07-2.86,0.47-4.25c0.11-0.37,1.22-0.49,1.72-0.15
			c0.4,0.27,0.8,0.67,0.46,1.23C122.98,104.74,122.61,106.08,122.77,107.6z"/>
		<path class="st0" d="M137.64,228.51c0.04,1.06-0.57,1.78-1.53,1.81c-0.92,0.03-1.65-0.62-1.68-1.51
			c-0.03-0.87,0.67-1.81,1.38-1.85C137.16,226.9,137.6,227.27,137.64,228.51z"/>
	</g>
</g>
</svg>
