<?xml version="1.0" encoding="utf-8"?>
<!-- Generator: Adobe Illustrator 27.0.0, SVG Export Plug-In . SVG Version: 6.00 Build 0)  -->
<svg version="1.1" id="Layer_1" xmlns="http://www.w3.org/2000/svg" xmlns:xlink="http://www.w3.org/1999/xlink" x="0px" y="0px"
	 viewBox="0 0 300 300" style="enable-background:new 0 0 300 300;" xml:space="preserve">
<style type="text/css">
	.st0{fill:#5B3023;}
	.st1{fill:#A7D38D;}
	.st2{fill:#C49D9A;}
</style>
<g id="OnkSiI_00000080920148069098580090000017073024961522615424_">
	<g>
		<path class="st0" d="M81.57,126.38c-0.16,0.05-0.32,0.11-0.47,0.18c-0.33,0.14-0.53,0.6-0.79,0.91c0.06,0.09,0.13,0.18,0.19,0.26
			c0.29-0.08,0.57-0.18,0.86-0.25c0.11-0.02,0.22-0.05,0.32-0.07C81.54,127.1,81.5,126.73,81.57,126.38z"/>
		<path class="st1" d="M137.79,115.44c0.3,0.78,0.53,1.58,0.77,2.38c0.02,0.08,0.05,0.16,0.07,0.24c-0.01-1.08-0.16-2.19-0.41-3.27
			c-0.07,0.09-0.14,0.18-0.21,0.27C137.94,115.17,137.85,115.3,137.79,115.44z"/>
		<path class="st0" d="M78.46,135.5c-0.06-0.28-0.12-0.57-0.18-0.85c-0.13,0.04-0.26,0.09-0.38,0.13
			C78.08,135.02,78.27,135.26,78.46,135.5z"/>
		<path class="st0" d="M81.6,139.26c-0.43-0.53-0.85-1.05-1.28-1.58c-0.17-0.21-0.25-0.48-0.41-0.69c-0.4-0.52-0.81-1.02-1.22-1.53
			c-0.05,0.04-0.11,0.08-0.16,0.12C79.52,136.83,80.54,138.06,81.6,139.26z"/>
		<path class="st0" d="M219.65,74.86c0.47-0.05,0.93-0.11,1.39-0.16c-0.43,0.01-0.86,0.02-1.3,0.03
			C219.71,74.78,219.68,74.82,219.65,74.86z"/>
		<path class="st0" d="M103.07,204.16c0.33-0.08,0.67-0.16,0.99-0.27c-0.2-0.11-0.39-0.26-0.48-0.43c-0.09-0.17,0.2-0.56,0.37-0.82
			c0.02-0.03,0.03-0.05,0.05-0.08c-1.06,0.03-2.13,0.06-3.19,0.09c-0.88,1.38-2.34,2.24-3.13,1.69c0.86-0.35,1.45-0.92,1.89-1.65
			c-1.24,0.03-2.47,0.05-3.71,0.06c0.06,0.15,0.11,0.31,0.13,0.5c0.07,0.67-0.19,1.21-0.76,1.45c2.55-0.03,5.09-0.07,7.64-0.17
			C102.83,204.37,102.88,204.2,103.07,204.16z"/>
		<path class="st1" d="M93.4,154.39c-1.61-0.33-3.13-0.8-4.37-1.99c-0.31-0.29-0.84-0.39-1.29-0.49c-1.96-0.42-2.46-0.62-2.35-2.31
			c0.01-0.18-0.06-0.42-0.18-0.55c-1.35-1.39-2.19-3.03-2.84-4.81c-2.56-2.67-4.96-5.49-7.23-8.43c-0.21,0.06-0.45,0.14-0.74,0.24
			v1.49c-0.08,0.02-0.15,0.04-0.23,0.06c-0.73-1.33-1.85-2.4-2.48-3.79c0.43,1.44,1.01,2.84,1.73,4.2c1.41,2.65,3.09,5.15,4.45,7.84
			c0.11,0.21,0.16,0.43,0.16,0.63c0.24,0.4,0.6,0.76,0.93,1.07c0.7,0.66,1.05,1.44,1.25,2.51c-1.98-0.6-3.92-1.07-5.25-2.58
			c-0.34,0.01-0.69-0.1-1-0.38c-4.86-4.48-5.29-11.08-6.59-17.15c-0.04-0.2-0.04-0.38-0.02-0.55c-0.74-0.19-1.33,0.05-1.86,0.62
			c0.24,0.23,0.38,0.56,0.35,1c-0.17,2.7,0.92,5.24,1.2,7.9c0.07,0.7-0.59,1.31-1.24,1.4c0.04,0.23,0.08,0.47,0.11,0.72
			c-0.22-0.26-0.45-0.51-0.66-0.77c-0.53-0.15-0.88-0.6-1-1.15c-0.09-0.1-0.18-0.21-0.27-0.31c-0.09-0.08-0.17-0.17-0.24-0.27
			c-0.31-0.35-0.61-0.71-0.93-1.08c0.13-0.02,0.26-0.04,0.38-0.04c-1.04-1.89-2.51-3.23-4.3-4.21c-0.48,0.59-0.56,0.51-1.37-0.15
			c-0.29-0.24-0.64-0.4-0.96-0.6c-0.09,0.07-0.17,0.15-0.26,0.22c0.21,0.36,0.35,0.83,0.66,1.07c2.54,1.98,4.62,4.41,6.82,6.73
			c1.21,1.27,2.41,2.56,3.71,3.93c-0.88,0.28-1.34-0.13-1.85-0.51c-0.32-0.24-0.76-0.31-1.11-0.51c-1.31-0.75-2.94-0.9-3.93-2.24
			c-0.25-0.33-0.75-0.59-1.17-0.65c-1.2-0.17-2.11-0.78-3.02-1.52c-0.31-0.26-0.81-0.35-1.24-0.38c-0.55-0.03-1.06,0.04-1.41-0.55
			c-0.11-0.18-0.51-0.34-0.73-0.3c-1.39,0.29-2.37-0.38-3.26-1.29c-0.56-0.57-1.11-1.16-1.66-1.74c-0.06-0.07-0.19-0.15-0.18-0.2
			c0.04-0.18,0.05-0.34,0.04-0.49c-0.87-0.78-1.7-1.62-2.51-2.5c-0.04-0.05-0.08-0.1-0.12-0.14c-0.07,0-0.14,0-0.2-0.01
			c0.02,0.4-0.12,0.91,0.07,1.19c0.97,1.43,1.24,3.27,2.62,4.44c0.07,0.06,0.09,0.17,0.24,0.5c-0.83,0.01-1.54,0.02-2.25,0.03
			c-0.52,0.01-1.04-0.1-1.47,0.44c-0.17,0.21-0.67,0.16-1.15,0.26c-0.05,0.3-0.18,0.68-0.18,1.06c0,0.63,0.28,1.03,1,0.92
			c1.25-0.19,2.27,0.33,3.29,0.99c0.59,0.38,1.34,0.52,2.01,0.76c0.06,0.02,0.17,0.03,0.17,0.06c0.14,1.25,1.15,0.53,1.73,0.75
			c0.57,0.21,1.17,0.35,1.79,0.54c0.47-0.67,1.36-0.87,2.11-0.48c0.56,0.29,1.17,0.49,1.74,0.76c0.21,0.1,0.38,0.3,0.57,0.46
			c-0.18,0.17-0.33,0.41-0.54,0.51c-0.69,0.32-1.41,0.55-2.09,0.87c-0.68,0.32-1.02,0.73-0.89,1.65c0.15,1.09-1.01,1.45-1.71,2.03
			c-0.12,0.1-0.39,0.05-0.46,0.16c-0.1,0.14-0.17,0.3-0.24,0.47c0.28,0.25,0.57,0.5,0.84,0.75c0.57-0.01,1.15-0.1,1.72-0.19
			c0.59-0.09,1.19-0.17,1.74-0.38c1.3-0.49,2.5-1.31,4-0.99c1.97-0.96,3.96,0.53,5.93-0.03c0.11-0.03,0.32,0.01,0.37,0.09
			c0.69,1,1.89,0.92,2.82,1.04c1.35,0.17,2.39,0.8,3.49,1.42c0.76,0.42,0.79,0.57,0.05,1.07c-0.26,0.18-0.6,0.25-0.91,0.35
			c-0.85,0.28-1.71,0.55-2.57,0.81c-0.43,0.13-0.87,0.4-1.28,0.37c-1.24-0.11-2.45-0.12-3.43-1.27c-0.47-0.55-1.64-0.53-2.5-0.73
			c-0.74-0.17-1.5-0.37-2.25-0.41c-0.57-0.03-1.2,0.08-1.73,0.31c-0.8,0.34-1.55,0.81-2.28,1.28c-1.12,0.73-1.18,2.01-0.13,2.49
			c0.25,0.11,0.58,0.1,0.87,0.08c1.34-0.07,2.69-0.18,4.03-0.24c0.31-0.01,0.64,0.13,0.95,0.23c0.47,0.16,0.92,0.41,1.41,0.51
			c0.85,0.17,0.94,0.42,0.5,1.2c-0.37,0.66-0.75,1.37-0.88,2.11c-0.29,1.61,0.47,2.08,1.58,2.05c0.09-0.1,0.2-0.19,0.33-0.28
			c4.78-3.02,9.7-6.35,15.56-6.42c0.68-0.01,1.11,0.38,1.28,0.88c1.02,0.14,2.04,0.44,3.06,0.97c0.5,0.26,1.1,0.32,1.68,0.43
			c0.17-0.03,0.35-0.06,0.52-0.08c1.82-0.2,3.24-1.01,5.06-1.21c1.69-0.22,3.39-0.44,5.1-0.66c-0.15-0.05-0.31-0.12-0.47-0.2
			C95.22,154.69,94.28,154.57,93.4,154.39z"/>
		<path class="st1" d="M217.42,127.15c0.01-0.08,0.02-0.15,0.02-0.23c-0.58-0.1-1.16-0.2-1.74-0.31c-0.63-0.12-1.24-0.34-1.87-0.38
			c-0.62-0.04-1.26,0.1-1.88,0.17c-0.06-0.06-0.11-0.13-0.17-0.19c0.19-0.26,0.33-0.58,0.57-0.76c0.41-0.29,0.87-0.51,1.33-0.71
			c0.57-0.26,0.83-0.65,0.68-1.27c-0.15-0.59-0.47-1.02-1.12-0.92c-0.64,0.1-1.25,0.33-1.87,0.52c-0.41,0.13-0.81,0.33-1.22,0.43
			c-1.17,0.28-2.35,0.73-3.52,0.74c-1.37,0.01-2.36,0.91-3.6,1.11c-1.15,0.19-1.55,0.4-1.42,2.03c1.4,0.37,2.8,0.73,4.14,1.25
			c0.26,0.05,0.52,0.11,0.78,0.17C209.99,127.26,213.74,127.4,217.42,127.15z"/>
		<path class="st0" d="M206.5,128.78c-0.26-0.06-0.52-0.11-0.78-0.17c0.2,0.08,0.4,0.16,0.6,0.24
			C206.38,128.83,206.44,128.81,206.5,128.78z"/>
		<path class="st1" d="M167.45,123.36c-0.57,0.38-1.29,0.53-1.93,0.8c-0.41,0.18-0.82,0.37-1.23,0.65c1.42-0.33,2.86-0.61,4.29-0.86
			c0.31-0.24,0.65-0.5,1.04-0.79C168.71,123,168.11,122.92,167.45,123.36z"/>
		<path class="st1" d="M178.99,122.34c-0.81-0.45-0.47-1.15-0.47-1.79c0-0.81-0.14-1.61-0.12-2.42c0.05-1.65,0.16-3.29,0.25-4.93
			c0.01-0.23,0.12-0.46,0.11-0.69c-0.06-1.82,0.53-3.47,1.41-5.01c0.3-0.53,0.35-0.96,0.15-1.51c-0.14-0.39-0.24-0.87-0.14-1.25
			c0.56-2.13,1.14-4.27,1.81-6.37c0.4-1.26,0.64-1.31,1.83-0.88c0.15,0.05,0.3,0.1,0.51,0.17c0.07-0.21,0.18-0.36,0.16-0.51
			c-0.11-1-1.48-2.16-2.51-2.17c-0.72,0-1.56,1.02-1.85,1.95c-0.25,0.78-0.15,1.9-1.46,2c-0.18,0.01-0.4,0.49-0.49,0.78
			c-0.45,1.51-0.77,3.06-1.32,4.53c-0.55,1.47-1.51,2.79-1.96,4.28c-0.44,1.42-1.44,2.7-1.23,4.32c0.03,0.21-0.16,0.43-0.2,0.66
			c-0.06,0.32-0.18,0.69-0.08,0.97c0.81,2.33,0.69,4.73,0.62,7.13c-0.02,0.54,0.19,1.17-0.15,1.67c1.74-0.15,3.5-0.24,5.26-0.24
			c0-0.01,0-0.02,0-0.03C179.11,122.77,179.11,122.41,178.99,122.34z"/>
		<path class="st0" d="M259.6,182.94c1.77-0.15,3.43-0.21,5.02,0.85c1,0.66,2.56,0.3,3.18-0.64c0.47-0.72,0.91-0.71,1.6-0.46
			c0.3,0.11,0.76,0.06,1.04-0.09c0.95-0.52,1.49-2.69,0.8-3.5c-0.95-1.13-0.72-2.43-0.51-3.62c0.13-0.72,0.09-1.21-0.3-1.76
			c-0.44-0.59-0.81-1.24-1.3-1.78c-0.21-0.23-0.67-0.41-0.97-0.36c-0.61,0.12-0.96-0.01-1.35-0.53c-0.72-0.94-1.58-1.78-2.36-2.67
			c-0.42-0.48-0.81-0.98-1.2-1.48c-0.39-0.5-0.72-1.05-1.14-1.52c-1.26-1.4-2.52-2.8-3.84-4.15c-1.49-1.53-3.03-3-4.54-4.5
			c-0.08-0.08-0.1-0.22-0.17-0.4c0.37-0.12,0.68-0.22,0.99-0.33c-0.01-0.07-0.01-0.15-0.02-0.22c-0.44-0.07-0.88-0.15-1.32-0.21
			c-0.36-0.06-0.79,0.01-1.07-0.17c-1.55-1-3.08-2.04-4.58-3.11c-0.92-0.66-1.78-1.4-2.67-2.1c-0.7-0.55-1.32-1.27-2.11-1.62
			c-2.43-1.07-4.56-2.51-6.41-4.41c-0.39-0.4-1.03-0.56-1.56-0.81c-0.57-0.27-1.18-0.46-1.72-0.78c-0.81-0.48-1.55-1.07-2.36-1.56
			c-1.35-0.81-2.75-1.55-4.1-2.36c-1.8-1.08-3.57-2.2-5.36-3.3c-0.9-0.56-1.81-1.11-2.71-1.68c-0.08-0.05-0.09-0.23-0.16-0.4
			c0.12-0.05,0.24-0.09,0.35-0.13c-1.83-1.07-3.76-1.91-5.76-2.59c-1.01,1.02-2.25,0.31-3.24,0.11c-1.43-0.29-3.02-0.49-4.15-1.46
			c0.23-0.12,0.46-0.23,0.69-0.34c-0.2-0.08-0.4-0.16-0.6-0.24c-0.95-0.2-1.91-0.39-2.86-0.57c0.95,0.18,1.9,0.37,2.86,0.57
			c-1.34-0.52-2.74-0.89-4.14-1.25c0,0.06,0.01,0.11,0.01,0.17c-0.73,0-1.47,0.13-2.16-0.03c-1.43-0.32-2.86-0.69-4.22-1.23
			c-0.8-0.32-0.67-0.48-0.25-1.09c-0.2-0.07-0.4-0.13-0.61-0.18c-3.08-0.84-6.16-1.39-9.23-1.69c0.03,0.34,0.07,0.71,0.07,1.07
			c-0.46,0-0.92,0.01-1.39,0c-1.21-0.03-2.41-0.05-3.62-0.12c-0.92-0.05-1.14-0.32-1.11-1.23c-1.76,0.01-3.51,0.09-5.26,0.24
			c-0.1,0.14-0.23,0.27-0.42,0.38c-0.18-0.08-0.39-0.17-0.64-0.28c-0.07,0.01-0.14,0.01-0.2,0.02c-0.32,0.97-1.07,1.09-1.95,1.09
			c-0.9,0-1.8,0.12-2.78,0.02c0.23-0.18,0.47-0.36,0.72-0.54c-1.44,0.24-2.87,0.53-4.29,0.86c-0.1,0.07-0.21,0.14-0.31,0.22
			c0.92,0.09,1.85,0.18,2.73,0.26c-0.04,0.02-0.15,0.15-0.29,0.18c-2.31,0.55-4.63,1.07-6.94,1.64c-1.36,0.34-2.69,0.8-4.05,1.13
			c-0.45,0.11-1.03,0.15-1.41-0.05c-0.07-0.03-0.12-0.12-0.16-0.24c-1.61,0.6-3.21,1.23-4.79,1.91c-1.85,0.8-3.6,1.79-5.23,2.94
			c-0.02,0.32-0.16,0.68-0.37,0.9c-0.87,0.88-1.86,1.66-2.7,2.57c-1.15,1.24-2.47,2.32-3.2,3.96c-0.33,0.75-1.23,1.24-1.75,1.73
			c-0.12-0.21-0.23-0.42-0.35-0.63c-2.09,3.03-3.76,6.38-4.96,9.9c0.18,0.33,0.25,0.7,0,1.22c-0.3,0.61-0.09,1.45-0.15,2.19
			c-0.1,1.35-0.42,1.51-1.74,1.31c-1.71-0.27-3.43-0.43-5.16-0.58c-0.67-0.06-1.36,0.02-2.03,0.02c-0.23,0-0.56,0.06-0.69-0.07
			c-1.02-0.97-2.28-0.6-3.46-0.67c-2.37-0.15-4.74-0.28-7.1-0.42c-0.17-0.01-0.37-0.07-0.49,0.01c-1.11,0.68-2.23,0.15-3.34,0.03
			c-0.03,0-0.07-0.01-0.1-0.02c-2.81,0.23-5.62,0.55-8.42,0.9c-0.42,0.26-0.84,0.33-1.34,0.17c-1.71,0.22-3.41,0.44-5.1,0.66
			c-1.82,0.2-3.24,1.01-5.06,1.21c-0.17,0.03-0.35,0.06-0.52,0.08c0.11,0.02,0.21,0.04,0.32,0.07l0.01,0.34
			c-0.79,0.19-1.57,0.42-2.36,0.58c-1.85,0.37-3.73,0.62-5.55,1.09c-1.55,0.41-3.04,1.04-4.54,1.62c-0.96,0.37-1.88,0.86-2.84,1.24
			c-0.58,0.23-1.22,0.29-1.79,0.54c-2.42,1.09-4.84,2.18-7.22,3.35c-0.68,0.33-1.08,0.49-1.43,0.43c-1.6,0.86-3.19,1.74-4.77,2.64
			c0.14,0.14,0.29,0.3,0.48,0.47c-1.01,0.59-1.88,1.08-2.73,1.6c-0.71,0.44-1.42,0.89-2.06,1.41c-1.59,1.29-2.99,2.85-5.15,3.25
			c-0.58,0.11-1.11,0.56-1.69,0.62c-1.23,0.13-2.02,0.64-2.28,1.9c-0.06,0.27-0.27,0.57-0.5,0.73c-1.49,1.08-3,2.14-4.52,3.17
			c-1.16,0.78-2.34,1.52-3.53,2.25c-0.17,0.1-0.43,0.08-0.64,0.07c-0.81-0.07-1.77,0.51-1.9,1.17c-0.11,0.57,0.84,1.71,1.62,1.85
			c0.05,0.55,0.1,1.12,0.16,1.8c-0.66-0.17-1.18-0.34-1.36,0.5c0.8-0.18,1.53-0.32,2.06,0.4c0.04,0.05,0.19,0.03,0.29,0.03
			c0.63-0.04,1.25-0.09,1.92-0.15c1.07,1.59,2.57,2.34,4.52,2.16c0.21-0.02,0.47,0.08,0.66,0.19c0.47,0.28,0.62,0.64,0.08,1.01
			c-0.32,0.22-0.68,0.38-1.02,0.58c-0.19,0.11-0.46,0.21-0.55,0.38c-0.71,1.27-1.46,2.53-2.06,3.86c-0.74,1.64-1.55,3.26-1.62,5.14
			c-0.01,0.3-0.74,0.6-1.17,0.85c-0.43,0.25-0.97,0.34-1.35,0.64c-1.07,0.85-1.88,1.98-3.27,2.46c-1.04,0.36-1.8,2.84-1.47,3.89
			c0.31,0.98,0.58,2,0.64,3.01c0.05,0.78,0.25,1.28,0.96,1.58c0.31,0.13,0.63,0.26,0.9,0.46c0.85,0.62,1.7,1.15,1.57,2.52
			c-0.14,1.47,0.48,2.71,1.99,3.28c0.65,0.24,1.36,0.35,1.96,0.67c1.37,0.74,2.53,1.79,4.09,2.25c0.99,0.3,1.83,1.12,2.74,1.69
			c0.66,0.41,1.29,0.9,2,1.16c1.96,0.72,3.67,1.8,5.16,3.24c0.33,0.31,0.76,0.54,1.18,0.73c1,0.46,2.04,0.83,3.03,1.31
			c1.39,0.67,2.73,1.48,4.15,2.08c1.03,0.44,2.17,0.61,3.25,0.93c1.18,0.35,2.34,0.74,3.51,1.13c0.21,0.07,0.42,0.37,0.59,0.34
			c1.28-0.24,2.38,0.18,3.45,0.8c0.18,0.1,0.46,0.01,0.7,0.03c0.23,0.02,0.48,0.01,0.69,0.1c1.16,0.53,2.28,1.16,3.46,1.62
			c0.72,0.28,1.53,0.34,2.31,0.47c0.58,0.09,1.17,0.12,1.75,0.2c0.36,0.05,0.71,0.14,1.06,0.2c0.68,0.1,1.36,0.19,2.28,0.31
			c0.87-0.73,0.87-0.73,1.35-0.44c-0.18,0.23-0.38,0.45-0.53,0.7c-0.02,0.04,0.18,0.31,0.28,0.32c0.56,0.01,1.11-0.04,1.76-0.07
			c0.2,0.5,0.2,0.5,1.28,0.23c-0.04-0.31-0.08-0.62-0.11-0.88c1.28-0.76,2.61-0.96,3.99-0.88c0.64,0.04,1.28,0,1.92,0.01
			c3.27,0.03,6.49,0.46,9.7,1.06c2.17,0.4,4.39,0.53,6.59,0.79c0.27,0.03,0.54,0.09,0.97,0.17c-0.09,0.11-0.17,0.21-0.25,0.3
			c0.28,0,0.56,0.01,0.83,0.01c0.34-0.71,0.87-0.41,1.4-0.31c0.52,0.09,1.03,0.19,1.55,0.28l0.07-0.35l-0.91-0.28
			c0.33-0.18,0.8-0.39,1.01-0.24c0.86,0.61,1.5-0.11,2.22-0.27c0.71-0.16,1.4-0.46,2.11-0.64c1.07-0.26,2.15-0.45,3.22-0.71
			c0.88-0.21,1.74-0.52,2.62-0.74c0.91-0.23,1.95-0.2,2.72-0.65c1.1-0.64,2.26-0.81,3.44-1.05c1.28-0.26,2.58-0.4,3.83-0.75
			c1.37-0.37,2.71-0.87,4.03-1.4c1.64-0.67,3.23-1.45,4.85-2.17c0.28-0.12,0.61-0.15,0.91-0.22c-0.11,0.11-0.21,0.21-0.31,0.3
			c0.84-0.2,1.69-0.31,2.55-0.29c0.99-0.77,2-1.52,3.08-2.19c1.55-0.96,2.86-2.28,4.32-3.39c1.54-1.16,3.2-2.16,4.69-3.39
			c1.99-1.65,3.88-3.43,5.78-5.18c0.48-0.44,0.79-0.53,1.01,0.15c0.2,0.62,0.66,0.84,1.23,1.06c0.77,0.3,1.51,0.72,2.22,1.16
			c0.96,0.6,1.87,1.29,2.82,1.9c0.45,0.29,0.97,0.47,1.44,0.73c2.1,1.14,4.08,2.53,6.43,3.15c0.16,0.04,0.29,0.16,0.43,0.26
			c1.26,0.92,2.74,1.35,4.18,1.89c2.2,0.82,4.35,1.81,6.59,2.52c1.12,0.36,2.28,0.55,3.3,1.16c0.08,0.05,0.2,0,0.3,0.02
			c0.68,0.12,1.36,0.26,2.04,0.38c0.59,0.11,1.18,0.23,1.78,0.3c0.98,0.12,1.92-0.14,2.96,0.21c2.03,0.68,4.12,1.1,6.34,0.4
			c1.24-0.39,2.66-0.34,4-0.31c1.02,0.02,2.03,0.36,3.05,0.5c0.42,0.06,0.87,0,1.29-0.07c0.75-0.13,1.49-0.3,2.23-0.47
			c0.88-0.2,1.76-0.39,2.63-0.62c0.64-0.17,1.25-0.46,1.9-0.57c1.12-0.19,2.24-0.3,3.26-0.89c0.41-0.24,0.95-0.34,1.44-0.37
			c2.01-0.11,4.03-0.15,6.05-0.26c2.38-0.12,4.75-0.29,7.13-0.43c1.01-0.06,2.02-0.05,3.02-0.14c1.26-0.11,2.52-0.27,3.78-0.45
			c0.48-0.07,0.96-0.24,1.43-0.38c0.99-0.28,1.97-0.6,2.97-0.86c0.77-0.2,1.58-0.25,2.34-0.49c1.4-0.44,2.78-0.95,4.17-1.45
			c0.24-0.09,0.45-0.25,0.67-0.4c0.86-0.61,1.7-1.24,2.58-1.82c0.78-0.51,1.61-0.93,2.39-1.44c0.89-0.58,1.74-1.21,2.6-1.83
			c0.13-0.1,0.23-0.25,0.36-0.35c1.39-1.14,1.93-2.82,2.65-4.35c0.36-0.76,0.39-1.77-0.24-2.6c-0.98-1.3-1.86-2.7-2.94-3.91
			c-0.93-1.05-2.09-1.89-3.13-2.85c-0.49-0.46-0.93-0.98-1.42-1.5c0.23-0.27,0.38-0.58,0.62-0.7c0.18-0.08,0.57,0.24,0.71,0.15
			c1.17-0.8,2.53-0.97,3.85-1.2c0.66-0.11,1.24-0.3,1.86-0.58c1.15-0.51,2.05-1.7,3.39-1.72c0.01-0.24,0.01-0.49,0.01-0.73
			c0,0,0-0.01,0-0.01c-0.17,0-0.35,0.01-0.53,0.01c-0.02-0.24,0-0.46-0.06-0.64c-0.39-1.08,0.17-2.16-0.45-3.37
			c-0.9-1.77-2.13-3.16-3.41-4.59c-0.4-0.45-0.82-0.88-1.22-1.33c-0.49-0.55-0.92-1.15-1.46-1.64c-0.92-0.84-1.91-1.6-2.84-2.42
			c-0.38-0.33-0.68-0.74-1.04-1.09c-0.81-0.79-1.66-1.55-2.43-2.38c-0.25-0.27-0.29-0.74-0.5-1.31
			C257.82,182.78,258.73,183.01,259.6,182.94z M260.94,216.6l0.4-0.13c0.21,0.39,0.42,0.78,0.62,1.17c-0.05,0.08-0.1,0.15-0.16,0.23
			c-0.29-0.05-0.77-0.03-0.82-0.17C260.85,217.37,260.94,216.97,260.94,216.6z M240.95,154.36c0.33-0.06,0.81-0.13,1.02,0.05
			c0.83,0.71,1.53,1.58,2.38,2.27c1.15,0.94,2,2.26,3.61,2.64c0.49,0.11,0.89,0.76,1.26,1.22c0.36,0.46,0.62,0.99,0.95,1.48
			c0.38,0.58,0.71,1.2,1.18,1.69c0.64,0.67,1.4,1.22,2.1,1.83c0.73,0.63,1.45,1.28,2.18,1.92c-0.06,0.08-0.12,0.17-0.18,0.25
			c-0.86-0.57-1.7-1.18-2.6-1.69c-1.09-0.61-2.24-1.13-3.37-1.68c-0.03-0.01-0.09,0.01-0.1,0c-0.46-0.94-1.55-0.99-2.26-1.58
			c-0.71-0.59-1.44-1.37-2.26-1.53c-1.26-0.24-2.1-1.03-3-1.71c-1.11-0.83-2.33-1.25-3.63-1.6c-0.27-0.07-0.56-0.16-0.79-0.32
			c-0.99-0.71-1.91-1.53-2.95-2.15c-1.79-1.06-3.62-2.06-5.48-2.98c-2.09-1.04-4.19-2.03-6.44-2.7c-1.21-0.36-2.34-1.01-3.51-1.52
			c0.55-0.28,1.1-0.56,1.65-0.84c0,0-0.01,0.01-0.01,0.01c0.23,0.64,0.68,0.82,1.28,0.52c1.06-0.53,2.12-0.27,3.13,0.07
			c0.75,0.25,1.45,0.69,2.21,1.06c-0.19,1.07-1.18,0.05-1.7,0.68c0.55,0.1,1.02,0.22,1.48,0.26c1.97,0.16,3.63,1.17,5.33,2.02
			c1.5,0.74,2.89,1.71,4.34,2.55c0.97,0.57,1.93,1.19,2.96,1.63c0.49,0.21,1.13,0.13,1.69,0.08c0.18-0.01,0.32-0.34,0.49-0.53
			c-0.17-0.14-0.33-0.28-0.51-0.4c-0.25-0.17-0.54-0.29-0.75-0.49C240.61,154.85,240.81,154.39,240.95,154.36z M253.79,187.61
			c-0.07,0.08-0.13,0.16-0.2,0.24c-1.45-0.9-2.88-1.83-4.36-2.67c-0.74-0.42-1.58-0.68-2.37-1.02c-0.4-0.17-0.84-0.3-1.17-0.57
			c-0.22-0.18-0.26-0.58-0.38-0.87c0.49-0.07,0.74-1.01,1.35-0.47c0.46,0.4,0.87,0.29,1.38,0.29c0.56,0,1.24,0.14,1.65,0.48
			c0.98,0.83,2.11,1.53,2.67,2.82C252.68,186.5,253.31,187.02,253.79,187.61z M235.71,162.03c-0.69,0.58-1.17,0.76-1.8,0.39
			c-0.46-0.27-0.87-0.48-0.64-1.09C234.09,161.56,234.81,161.77,235.71,162.03z M226.07,152.84c-0.03,0.09-0.06,0.18-0.09,0.28
			c-0.75-0.34-1.5-0.67-2.31-1.03C224.35,151.83,224.35,151.83,226.07,152.84z M145.38,139.14c1.25-0.58,2.5-1.17,3.78-1.69
			c0.73-0.3,1.54-0.42,2.27-0.73c2.73-1.2,5.43-2.47,8.16-3.68c0.51-0.23,1.09-0.29,1.65-0.42c1.56-0.36,3.11-0.79,4.69-1.05
			c0.88-0.14,1.78-0.03,2.57-0.61c0.15-0.11,0.54,0.12,0.94,0.22c-0.09-0.27-0.15-0.42-0.26-0.74c0.75-0.12,1.45-0.29,2.16-0.34
			c0.27-0.02,0.89-0.34,0.8,0.43c0.19,0.02,0.39,0.1,0.56,0.05c0.89-0.25,1.76-0.55,2.65-0.78c0.34-0.09,0.71,0,1.07-0.03
			c2.92-0.26,5.83-0.31,8.75,0.02c1.36,0.15,2.73,0.16,4.09,0.27c2.5,0.2,5.02,0.27,7.33,1.46c0.53,0.27,1.15,0.37,1.72,0.56
			c0.19,0.07,0.37,0.18,0.55,0.28c-0.02,0.09-0.05,0.19-0.07,0.28c-0.43-0.06-0.89-0.06-1.3-0.2c-2.32-0.77-4.65-1.43-7.12-1.4
			c-1.3,0.01-1.6,0.23-2.28,1.67c0.42,0.06,0.82,0.24,1.12,0.13c1.27-0.47,2.46,0,3.66,0.23c1.44,0.27,2.86,0.65,4.28,1.02
			c0.25,0.07,0.45,0.33,0.67,0.51c0.15,0.13,0.26,0.32,0.43,0.4c0.74,0.32,1.5,0.61,2.26,0.9c0.85,0.33,1.73-0.12,1.62-0.86
			c-0.04-0.28-0.35-0.56-0.6-0.76c-0.22-0.18-0.52-0.24-0.79-0.36l0.06-0.33c0.65,0.09,1.31,0.11,1.94,0.29
			c1.8,0.52,3.58,1.08,5.36,1.66c0.54,0.17,1.06,0.4,1.56,0.65c0.47,0.24,0.88,0.62,1.36,0.8c1.98,0.74,3.87,1.66,5.56,2.94
			c0.18,0.14,0.44,0.18,0.65,0.28c2.03,1.02,4.22,1.81,6.03,3.13c2.23,1.62,4.64,2.9,7,4.28c0.61,0.36,1.35,0.5,2.03,0.74
			c0.12,0.04,0.29,0.09,0.33,0.18c0.56,1.29,1.78,1.32,2.9,1.61c0.71,0.18,1.39,0.49,2.04,0.83c0.71,0.37,1.39,0.83,2.06,1.27
			c0.31,0.2,0.68,0.41,0.83,0.71c0.16,0.32,0.09,0.75,0.13,1.13c-0.27-0.01-0.55-0.04-0.82-0.03c-0.98,0.04-1.55-0.75-2.32-1.13
			c-0.99-0.48-1.99-0.94-2.94-1.48c-1.42-0.81-2.76-1.77-4.22-2.5c-1.78-0.89-3.66-1.6-5.48-2.42c-0.7-0.31-1.36-0.71-2.03-1.08
			c-0.5-0.28-0.95-0.64-1.46-0.88c-2.56-1.19-5.11-2.38-7.7-3.49c-1.48-0.64-2.99-1.21-4.53-1.67c-1.22-0.37-2.49-0.55-3.75-0.77
			c-2.21-0.39-4.43-0.76-6.65-1.1c-0.73-0.11-1.47-0.14-2.21-0.13c-0.24,0-0.48,0.23-0.72,0.35c0.19,0.23,0.35,0.61,0.59,0.67
			c1.5,0.37,3,0.83,4.52,0.93c1.59,0.1,2.65,1,3.79,1.85c0.26,0.2,0.5,0.48,0.8,0.57c2.83,0.82,5.7,1.53,8.5,2.43
			c2.22,0.71,4.38,1.63,6.55,2.48c0.32,0.12,0.78,0.33,0.21,0.73c-0.67-0.03-1.32-0.65-2.03-0.05c-0.06,0.05-0.52-0.22-0.62-0.42
			c-0.34-0.75-0.98-0.85-1.67-0.92c-1.39-0.14-2.78-0.29-4.15-0.43c-0.05,0.3-0.1,0.6-0.15,0.9c-0.07,0.04-0.14,0.07-0.2,0.11
			c-0.24-1.86-1.74-1.38-2.8-1.63c-2.36-0.55-4.85-0.37-7.15-1.39c-0.95-0.42-2.09-0.4-3.14-0.61c-0.38-0.08-0.74-0.24-1.1-0.36
			c-1.96-0.66-3.95-1.25-5.87-2.01c-1.81-0.72-3.74-0.81-5.6-1.27c-3.57-0.88-7.25-1.14-10.94-1.21c-1.81-0.04-3.62-0.21-5.43-0.31
			c-0.47-0.02-0.94,0.06-1.4,0.03c-0.38-0.02-0.76-0.14-1.14-0.21c-0.35-0.06-0.71-0.14-1.06-0.15c-0.83-0.03-1.73-0.21-2.49,0.02
			c-1.03,0.32-2.36-0.27-3.12,0.96c-0.09,0.15-0.43,0.18-0.65,0.2c-0.94,0.1-1.87,0.19-2.81,0.26c-2.91,0.22-5.82,0.41-8.72,0.66
			c-0.72,0.06-1.42,0.34-2.15,0.42c-0.51,0.05-1.04-0.06-1.56-0.1c-0.03-0.09-0.06-0.18-0.09-0.28
			C144.9,139.46,145.12,139.26,145.38,139.14z M219.01,148.25c-1.25-0.12-2.45-0.35-3.48-1.15
			C216.79,147.18,218.1,147.11,219.01,148.25z M203.91,151.4c-1.19,0.34-2.02-0.34-3.01-0.86
			C202.01,150.57,203.06,150.46,203.91,151.4z M192.05,148.56c-0.01,0.11-0.03,0.21-0.04,0.32c-0.55-0.06-1.12-0.06-1.65-0.18
			c-1.43-0.33-2.86-0.68-4.27-1.1c-1.42-0.42-2.81-0.81-4.32-0.87c-0.68-0.03-1.34-0.66-2.02-1.03c0.01-0.08,0.02-0.16,0.04-0.24
			c1.04,0.19,2.07,0.39,3.11,0.58c0.42,0.08,0.85,0.25,1.26,0.23c1.45-0.06,2.78,0.37,4.11,0.85
			C189.53,147.58,190.78,148.08,192.05,148.56z M162.6,144.36c-1.35,0-2.71-0.06-4.06,0.01c-2.34,0.14-4.67,0.38-7.01,0.55
			c-0.8,0.06-1.6,0.03-2.4,0.05c-0.34,0.01-0.68,0.04-1.03,0.06c0-0.1,0.01-0.21,0.01-0.31c0.32-0.04,0.63-0.09,0.95-0.13
			c1.76-0.2,3.46-0.66,5.28-0.58c1.81,0.08,3.65-0.31,5.48-0.45c0.41-0.03,0.84,0.09,1.25,0.19
			C161.58,143.87,162.08,144.03,162.6,144.36z M66.52,165.69c-0.89,1.06-2.08,1.56-3.24,2.11c-0.08-0.15-0.15-0.29-0.23-0.44
			C64.2,166.8,65.36,166.24,66.52,165.69z M40.67,187.3c-0.46-0.24-0.5-0.66-0.04-0.95c0.48-0.31,0.98-0.68,1.51-0.76
			c1.56-0.24,2.68-1.18,3.83-2.11c0.6-0.48,1.24-0.92,1.9-1.31c1.66-0.98,3.35-1.93,5.03-2.89c0.08-0.04,0.18-0.04,0.41-0.08
			c-0.49,0.57-1.12,0.99-1.26,1.53c-0.31,1.18-0.4,2.43-0.52,3.65c-0.01,0.15,0.38,0.49,0.57,0.48c0.79-0.05,1.61-0.1,2.36-0.34
			c0.68-0.22,1.14-0.08,1.47,0.46c0.58,0.92,1.54,1.12,2.45,1.18c1.04,0.06,1.6-0.89,2.15-1.61c0.32-0.42,0.39-1.06,0.47-1.61
			c0.07-0.5,0.21-0.69,0.69-0.41c-0.41,1.09,0.24,2.62,1.57,3.67c0.97,0.77,1.82,0.64,3.73-0.64c-0.05,0.56-0.08,0.96-0.14,1.36
			c-0.09,0.62-0.43,1.35,0.22,1.77c0.66,0.42,1.27,0.94,2.3,0.57c0.8-0.28,1.22-0.76,1.72-1.31c0.74-0.82,1.57-1.57,2.33-2.37
			c0.67-0.71,0.63-1.28-0.11-1.95c-0.08-0.07-0.19-0.12-0.22-0.21c-0.58-1.5-1.93-1.35-3.14-1.43c-0.6-0.04-1.11,0.15-1.38,0.8
			c-0.11,0.25-0.41,0.42-0.62,0.63l-0.22-0.11c0-0.25-0.03-0.5,0.01-0.75c0.12-0.84-0.26-1.56-1.04-1.8
			c-0.57-0.18-1.16-0.31-1.75-0.41c-0.56-0.1-1.06-0.02-1.39,0.55c-0.36,0.63-0.95,0.8-1.65,0.68c-1.11-0.19-2.23-0.35-3.34-0.55
			c-0.19-0.03-0.4-0.1-0.55-0.23c-0.27-0.23-0.5-0.5-0.75-0.76c0.12-0.08,0.24-0.17,0.36-0.25c-0.73,0.03-1.46,0.1-2.17,0.24
			c-1.78,0.36-2.54-2.37-0.75-2.73c0.23-0.05,0.45-0.08,0.68-0.12c0.71-0.41,1.46-0.76,2.17-1.18c0.33-0.2,0.69-0.5,0.84-0.84
			c0.44-0.94,1.28-1.36,2.15-1.45c1.4-0.14,2.53-0.88,3.71-1.46c2.59-1.27,5.1-2.72,7.7-3.96c1.19-0.57,2.53-0.84,3.8-1.26
			c0.65-0.22,1.39-0.33,1.93-0.72c1.7-1.24,3.71-1.5,5.66-2.02c1.7-0.45,3.33-1.14,5-1.71c0.5-0.17,1-0.36,1.52-0.5
			c0.89-0.25,1.79-0.5,2.69-0.7c1.43-0.32,2.87-0.55,4.29-0.9c0.98-0.24,1.92-0.65,2.89-0.92c0.8-0.22,1.64-0.34,2.46-0.48
			c0.76-0.13,1.53-0.26,2.3-0.31c0.36-0.02,0.73,0.15,1.1,0.21c0.41,0.07,0.84,0.18,1.25,0.15c1-0.08,2-0.34,2.99-0.34
			c2.27,0,4.51-0.52,6.82,0.04c2.07,0.51,4.24,0.64,6.35,0.99c0.76,0.13,1.48,0.45,2.23,0.6c2.16,0.45,4.34,0.85,6.5,1.29
			c0.29,0.06,0.61,0.13,0.85,0.29c1.59,0.99,3.37,1.17,5.18,1.46c2.57,0.41,5.12,1.1,7.44,2.45c-1.04,0.25-2.09,0.33-3.07-0.16
			c-1-0.5-2.18-0.46-2.89,0.04c-1.22,0.85-2.02,0.3-2.88-0.31c-0.62-0.44-1.15-0.32-1.74-0.19l-0.06,0.24
			c0.19,0.09,0.38,0.18,0.62,0.28c-0.14,0.13-0.28,0.26-0.49,0.46c0.82,0.4,1.59,0.77,2.36,1.15c-0.03,0.1-0.06,0.19-0.09,0.29
			c-0.21,0.03-0.43,0.11-0.64,0.08c-0.63-0.09-1.1,0.08-1.5,0.6c-0.18,0.24-0.55,0.47-0.83,0.47c-1.49,0-2.98,0.23-4.45-0.33
			c-0.64-0.25-1.43-0.13-2.22-0.18c0.13,0.92,0.78,0.84,1.25,0.96c2.23,0.58,4.48,1.13,6.72,1.69c0.16,0.04,0.38,0.03,0.48,0.14
			c1.48,1.62,3.59,1.26,5.42,1.75c1.65,0.44,3.31,0.88,4.96,1.33c0.06,0.02,0.13,0.07,0.19,0.07c0.96-0.06,1.53,0.58,2.16,1.14
			c0.21,0.18,0.54,0.23,0.82,0.33c0.55,0.19,1.09,0.37,1.64,0.56c-0.04,0.14-0.08,0.27-0.12,0.41c-0.98-0.24-1.96-0.47-2.93-0.74
			c-2.76-0.74-5.51-1.5-8.26-2.25c-1.26-0.34-2.51-0.73-3.78-1.03c-1.05-0.25-2.12-0.44-3.19-0.61c-1.83-0.29-3.67-0.62-5.51-0.78
			c-1.56-0.14-3.15-0.14-4.72-0.05c-1.47,0.08-2.93,0.39-4.39,0.54c-0.86,0.09-1.73,0.02-2.59,0.09c-0.53,0.04-1.05,0.18-1.56,0.32
			c-0.16,0.04-0.28,0.23-0.42,0.34c0.17,0.11,0.33,0.33,0.5,0.33c1.27,0.03,2.53,0.02,3.87,0.02c0.07,0.35,0.07,0.77,0.25,1.09
			c0.43,0.78,1.13,1.01,2.04,0.82c0.46-0.09,0.93-0.18,1.4-0.16c2.95,0.13,5.9,0.25,8.84,0.45c0.92,0.06,1.84,0.33,2.75,0.56
			c1.84,0.47,3.68,0.98,5.51,1.48c0.52,0.14,1.04,0.41,1.55,0.39c1.56-0.04,2.95,0.55,4.37,1.06c0.22,0.08,0.46,0.19,0.68,0.17
			c2.57-0.22,4.6,1.34,6.88,2.04c1.4,0.43,2.83,0.79,4.27,1.06c0.67,0.12,1.22,0.09,1.05,1.03c-0.03,0.17,0.34,0.58,0.55,0.6
			c0.49,0.04,0.99-0.09,1.49-0.15c0.17-0.02,0.39-0.08,0.52-0.01c0.9,0.48,1.67,0.1,2.3-0.44c0.63-0.54,0.38-1.3,0.13-1.98
			c-0.35-0.95-1.01-1.55-1.98-1.87c-0.52-0.17-0.98-0.53-1.48-0.77c-0.19-0.09-0.44-0.07-0.65-0.15c-0.57-0.23-1.13-0.48-1.69-0.72
			l0.02,0.02c-0.33-0.35-0.67-0.68-0.98-1.04c-0.36-0.42-0.19-0.88,0.36-1.08c1.36-0.49,1.52-1,0.74-2.2
			c-0.56-0.86-1.24-1.26-2.35-1.37c-1.76-0.18-3.64-0.11-5.18-1.28c-0.18-0.14-0.35-0.3-0.6-0.52c0.95-0.39,1.79,0.85,2.73,0.02
			c-0.19-0.17-0.33-0.42-0.51-0.45c-0.97-0.15-1.43-0.77-1.67-1.66c-0.21-0.82-0.94-1.1-1.59-1.44c-0.28-0.15-0.59-0.26-0.89-0.38
			c0.03-0.11,0.05-0.22,0.08-0.33c0.85,0.17,1.7,0.3,2.53,0.54c0.54,0.16,1.02,0.52,1.55,0.73c0.92,0.37,1.9,0.63,2.79,1.07
			c1.4,0.7,2.81,1.41,4.08,2.3c1.21,0.84,2.31,1.75,3.81,2.13c0.71,0.18,1.42,0.78,1.89,1.37c0.61,0.78,1.24,1.26,2.26,1.27
			c0.35,0,0.82,0.2,1.04,0.47c1.3,1.59,3,2.42,4.97,2.82c0.39,0.08,0.76,0.24,1.14,0.36c0.03,0.09,0.07,0.17,0.1,0.26
			c-1.35,0.86-2.71,1.7-4.06,2.58c-0.47,0.31-0.85,0.78-1.36,1.01c-1.16,0.53-2.34,1.03-3.56,1.39c-2.01,0.6-4.09,0.97-6,1.93
			c-0.43,0.22-0.98,0.2-1.47,0.29c-0.25,0.05-0.6,0.03-0.74,0.19c-0.63,0.69-1.43,0.63-2.24,0.65c-0.39,0.01-0.78,0.13-1.17,0.19
			c-2.15,0.35-4.26,0.81-6.3,1.59c-1.05,0.4-2.19,0.57-3.29,0.81c-0.2,0.04-0.44-0.1-0.73-0.36c0.35-0.17,0.7-0.36,1.06-0.52
			c0.63-0.28,1.29-0.51,1.9-0.83c0.46-0.24,0.87-0.6,1.3-0.9c0.62-0.43,0.87-1.71,0.51-2.53c-0.69,0.05-1.37,0.13-2.06,0.11
			c-0.16,0-0.31-0.37-0.57-0.69c0.83,0,1.49,0.05,2.13-0.02c0.33-0.04,0.64-0.31,0.96-0.48c-0.28-0.18-0.54-0.48-0.83-0.51
			c-2.16-0.21-4.33-0.37-6.51-0.54c-0.16,0.59-0.14,0.87,0.4,0.95c0.34,0.05,0.66,0.21,0.98,0.32c0.03,0.1,0.06,0.2,0.09,0.3
			c-0.68,0.5-1.29,1.18-2.05,1.47c-1.91,0.74-3.87,1.36-5.84,1.94c-0.89,0.26-1.85,0.29-2.77,0.47c-2.47,0.46-4.94,0.96-7.42,1.4
			c-0.79,0.14-1.61,0.13-2.41,0.23c-1.63,0.19-3.26,0.36-4.87,0.63c-3.41,0.59-6.79,1.25-10.28,0.82c-0.47-0.06-0.98,0.2-1.47,0.23
			c-3.49,0.19-6.99,0.4-10.49,0.5c-1.98,0.06-3.97-0.01-5.95-0.19c-0.94-0.08-1.89-0.47-2.74-0.89c-0.44-0.22-0.69-0.84-1.18-1.48
			c-1.62-0.28-2.28,0.38-2.04,2.12c-0.37,0.69-0.8,1.16-0.81,1.63c-0.01,0.78,0.61,1.26,1.33,1.46c2.75,0.79,5.51,1.29,8.39,0.74
			c0.86-0.17,1.8,0.03,2.7,0.09c2.2,0.16,4.38,0.47,6.6,0.18c0.66-0.09,1.36,0.13,2.07,0.22c-0.06,0.78-0.58,0.69-0.98,0.7
			c-1.48,0.04-2.96,0.01-4.44,0.07c-1.7,0.07-3.41,0.29-5.11,0.31c-2.22,0.03-4.44-0.08-6.67-0.11c-1.04-0.02-2.09,0.01-3.13,0.01
			c-2.17-0.01-4.36,0.15-6.51-0.08c-2.87-0.32-5.82-0.38-8.57-1.47c-0.12-0.05-0.26-0.05-0.39-0.07c-1.59-0.23-3.2-0.35-4.75-0.73
			c-1.23-0.29-2.4-0.87-3.57-1.37c-1.36-0.59-2.68-1.27-4.04-1.84c-0.51-0.21-1.1-0.27-1.65-0.32c-1.26-0.11-1.58-0.47-1.62-1.68
			c-0.01-0.35-0.35-0.99-0.55-0.99c-0.58,0-1.41,0.06-1.68,0.43c-0.5,0.69-1.01,0.74-1.72,0.62c-1.25-0.21-2.53-0.3-3.75-0.6
			C42.22,188.15,41.44,187.71,40.67,187.3z M136.38,157.35c1.81,0.25,3.55,0.74,5.23,1.41
			C139.72,158.82,137.98,158.32,136.38,157.35z M167.38,170.53c0.09-0.12,0.18-0.23,0.26-0.35c1.21,0.32,2.43,0.64,3.64,0.97
			c1.58,0.43,3.16,0.86,4.73,1.29c1.93,0.52,3.87,1.04,5.79,1.58c0.37,0.11,0.71,0.34,1.01,0.71c-0.33-0.09-0.65-0.19-0.98-0.25
			c-0.91-0.19-1.83-0.36-2.75-0.54c-1.14-0.22-2.28-0.42-3.42-0.68c-1.75-0.4-3.5-0.84-5.25-1.28c-0.75-0.19-1.51-0.37-2.22-0.66
			C167.88,171.19,167.66,170.8,167.38,170.53z M140.88,189.87c-1.04,0.41-2.08,0.83-3.32,1.32c0.64-1.91,2.13-1.27,3.22-1.57
			C140.81,189.71,140.85,189.79,140.88,189.87z M132.66,191.85c-1.3,0.96-2.54,0.24-3.77,0.14
			C130.65,191.05,132.14,191.01,132.66,191.85z M42.05,201.17c0.85-1.33,1.43-2.94,3.22-3.54c0.98-0.33,1.83-1.08,2.67-1.72
			c0.42-0.32,0.68-0.47,1.29-0.4c1.7,0.2,3.11,1.12,4.67,1.6c1.81,0.55,3.59,1.41,5.58,0.98c0.25-0.05,0.54-0.01,0.8,0.06
			c1.76,0.48,3.52,0.98,5.34,1.49c-0.47,0.91-1.27,0.77-1.85,0.51c-1.81-0.79-3.69-0.92-5.61-0.9c-0.39,0-0.83-0.03-1.16-0.21
			c-0.94-0.5-1.88-0.89-2.97-0.83c-0.12,0.01-0.35-0.03-0.37-0.09c-0.34-1.15-1.12-0.58-1.8-0.49c-0.59,0.07-0.8,0.38-0.83,0.93
			c-0.04,0.56,0.29,0.78,0.75,0.9c0.29,0.07,0.58,0.13,0.92,0.21c0.2,1.62,1.73,1.77,2.79,2.44c2.1,1.32,4.51,0.65,6.77,0.98
			c2.56,0.36,5.12,0.69,7.69,1.01c0.73,0.09,1.47,0.07,2.21,0.08c2.35,0.05,4.7,0.15,7.05,0.09c0.57-0.01,1.14-0.52,1.71-0.79
			c-0.03-0.09-0.06-0.18-0.08-0.26c-1.25-0.08-2.5-0.2-3.76-0.22c-0.91-0.01-1.61-0.33-2.18-1.02c-0.74-0.89-1.68-1.25-2.84-1.26
			c-1.35-0.01-2.7-0.15-4.08-0.35c0.54-0.53,1.2-0.77,1.92-0.71c2.44,0.2,4.89,0.43,7.33,0.68c3.51,0.36,7.05,0.62,10.52,1.19
			c2.28,0.38,4.54,0.14,6.81,0.35c0.32,0.03,0.59,0.12,0.82,0.27c0.06,0,0.12,0,0.17,0c1.45-0.01,2.9-0.04,4.35-0.08
			c0.01-0.02,0.02-0.04,0.03-0.05c0.15-0.35,0.86-0.45,1.5-0.75c-0.07,0.26-0.16,0.52-0.27,0.77c1.25-0.03,2.5-0.07,3.75-0.1
			c0.24-0.08,0.49-0.12,0.71-0.07c0.03,0.01,0.06,0.02,0.09,0.04c0.06,0,0.13,0,0.19-0.01c1.99-0.05,3.98-0.06,5.98-0.08
			c1-0.28,1.99-0.61,3.02-0.74c0.03-0.12,0.07-0.22,0.12-0.29c0.45-0.53,2.4-0.63,3.31-0.1c-0.25,0.07-0.42,0.18-0.58,0.16
			c-0.74-0.07-1.33-0.11-1.41,0.9c2.63-0.07,5.26-0.2,7.89-0.42c-0.17-0.74-0.01-1.05,0.75-1.07c1.12-0.03,2.23-0.18,3.34-0.28
			c0.02,0.1,0.05,0.2,0.07,0.3c-0.97,0.31-1.95,0.62-2.95,0.94c0.23-0.02,0.46-0.04,0.7-0.07c3.34-0.34,6.66-0.86,9.94-1.57
			c2.26-0.49,4.5-1.15,6.78-1.56c-0.02-0.14,0.06-0.31,0.21-0.36c1.06-0.37,2.14-0.68,3.22-0.98c0.97-0.27,1.94-0.54,2.89-0.87
			c0.92-0.32,1.8-0.72,2.69-1.13c1.78-0.82,3.59-1.66,5.55-1.92c0.31-0.04,0.39,0.43,0.15,0.57c-0.87,0.51-1.67,1.14-2.49,1.72
			c-2.67,1.88-5.9,2.5-9.05,3.16c-0.04,0.02-0.09,0.04-0.14,0.04c-0.03,0-0.07,0-0.1,0.01c-0.19,0.04-0.38,0.08-0.57,0.12
			c-0.01,0.06-0.03,0.12-0.06,0.16c0.03,0.11,0.05,0.23,0.08,0.34c-0.51,0.08-1.03,0.14-1.54,0.25c-0.54,0.12-1.08,0.3-1.61,0.46
			c-0.02-0.07-0.04-0.15-0.07-0.22c0.19-0.11,0.38-0.2,0.57-0.29c-0.33,0.11-0.66,0.23-0.99,0.34c0.03,0.06,0.04,0.13,0.02,0.21
			c-0.04,0.15-0.12,0.28-0.23,0.38c-0.26,0.27-0.63,0.42-0.97,0.56c-0.47,0.19-0.95,0.32-1.44,0.44c-1.01,0.25-2.04,0.44-3.07,0.64
			c-1.25,0.24-2.47,0.63-3.72,0.89c-1.74,0.36-3.5,0.6-5.26,0.78c-3.57,0.37-7.16,0.48-10.73,0.76c-1.83,0.15-3.66,0.39-5.49,0.55
			c-1.89,0.17-3.79,0.3-5.69,0.39c-3.81,0.18-7.62,0.23-11.44,0.27c-0.17,0-0.26-0.11-0.29-0.24c-0.56,0.09-1.13,0.17-1.69,0.26
			c-1.09,0.18-2.2,0.56-3.28,0.5c-1.42-0.08-2.59,0.35-3.77,1.01c-0.21,0.12-0.53,0.07-0.8,0.08c-2.25,0.08-4.5,0.1-6.75,0.24
			c-1.67,0.11-3.32,0.49-4.99,0.57c-1.88,0.09-3.77,0.03-5.65-0.06c-0.61-0.03-1.2-0.38-1.81-0.55c-2.19-0.61-4.41-0.31-6.63-0.26
			c-1.24,0.03-2.45,0.01-3.65-0.52c-0.69-0.31-1.58-0.17-2.37-0.25c-0.53-0.06-1.05-0.17-1.58-0.23c-0.61-0.07-1.25-0.25-1.82-0.13
			c-2.45,0.5-4.75,0.35-6.83-1.18c-0.18-0.13-0.41-0.21-0.58-0.29C41.38,203.17,41.5,202.04,42.05,201.17z M53.02,227.69
			c1.4-0.07,2.94,0.92,3.47,2.28C55.2,229.29,53.89,228.98,53.02,227.69z M165,206.64c-0.82,1.33-1.78,2.6-2.82,3.77
			c-1.46,1.64-3.06,3.17-4.59,4.76c-0.2,0.2-0.39,0.47-0.44,0.74c-0.21,1.01-0.77,1.69-1.68,2.14c-0.3,0.14-0.54,0.39-0.8,0.61
			c-0.61,0.54-1.14,1.14-2.08,0.44c-0.28-0.21-0.9,0.05-1.24-0.08c-0.35-0.22-0.7-0.44-1.18-0.73c0.03,0.41,0.05,0.68,0.07,1.03
			c-0.5-0.08-0.92-0.14-1.52-0.23c0.59,0.67,0.69,1.26-0.04,1.63c-0.91,0.46-0.92-0.62-1.46-1.14c-1.21,0.32-2.42,0.63-3.63,0.95
			c-0.06,0.02-0.13,0.07-0.16,0.12c-0.6,1.06-1.6,1.39-2.71,1.64c-0.56,0.13-1.04,0.59-1.59,0.78c-0.94,0.32-1.91,0.69-2.89,0.79
			c-1.83,0.19-2.45,0.67-2.7,2.55c-1.11,0.21-2.24,0.49-3.39,0.64c-1.53,0.2-3.07,0.29-4.6,0.44c-0.74,0.07-1.19,0.53-1.23,1.24
			c-0.04,0.67,0.35,1.22,1.04,1.28c0.59,0.04,1.18,0.07,1.77,0.09c0.1-0.07,0.2-0.13,0.3-0.2c0.52-0.39,1.31-0.19,1.75,0.26
			c0.23,0.01,0.45,0.01,0.68,0.02c0.48,0.01,0.96,0,1.44,0l0.04,0.3c-0.59,0.18-1.19,0.36-1.78,0.54c0.02,0.51-0.25,0.99-0.69,1.32
			c-0.9,0.67-1.91,1.15-2.98,1.5c-0.66,1.19-1.79,1.15-2.77,1.35c-0.95,0.19-1.94,0.16-2.89,0.34c-3.2,0.6-6.42,0.99-9.66,1.36
			c-1.74,0.2-3.46,0.32-5.18,0.24c-3.05-0.14-6.14-0.17-9.11-0.77c-1.63-0.33-3.06-0.21-4.62-0.01c-1.25,0.17-2.54,0.02-3.81,0.07
			c-1.48,0.06-2.95,0.21-4.43,0.27c-0.39,0.02-0.78-0.12-1.17-0.19c-0.26-0.05-0.53-0.19-0.77-0.16c-2.23,0.3-4.33-0.35-6.42-0.91
			c-0.88-0.24-1.7-0.71-2.55-1.08c-3.32-1.45-6.65-2.9-9.97-4.38c-0.45-0.2-0.82-0.59-1.4-1.02c1.29-0.62,2.76-0.22,3.33-1.86
			c0.23,0.53,0.34,0.78,0.53,1.23c0.28-0.35,0.55-0.55,0.65-0.81c0.52-1.4,0.74-1.58,2.31-1.61c0.25-0.58,0.08-0.88-0.57-0.89
			c-0.24,0-0.47-0.05-0.71-0.02c-1.29,0.15-1.28,0.16-2.44-0.4c-0.01-0.06-0.02-0.13-0.02-0.19c-0.01-0.47-0.01-0.95-0.01-1.42
			c-0.44,0.1-0.88,0.21-1.32,0.3c-0.78,0.16-1.58,0.25-2.34,0.48c-0.41,0.12-0.9,0.36-1.12,0.7c-0.64,0.98-1.16,2.04-1.71,3.02
			c-1-1.12-2.5-1.74-3.92-2.47c-1.7-0.88-3.39-1.76-5.1-2.62c-0.59-0.29-0.71-0.74-0.65-1.33c0.18-1.91-0.27-2.48-2.08-2.81
			c-0.53-0.1-1.02-0.38-1.54-0.55c-0.59-0.2-1.23-0.3-1.79-0.57c-0.82-0.41-1.59-0.92-2.37-1.41c-0.76-0.48-1.49-0.99-2.25-1.47
			c-0.25-0.16-0.57-0.22-0.83-0.37c-1.37-0.76-1.45-1.18-0.51-2.43c0.11-0.15,0.15-0.37,0.23-0.56c0.42-0.08,0.84-0.2,1.27-0.22
			c0.52-0.03,1.06-0.25,1.47,0.42c0.13,0.22,0.79,0.12,1.37,0.19c-0.01-0.01,0.13,0.27,0.31,0.3c1.58,0.3,3.21,0.4,4.72,0.89
			c1.07,0.34,2.3-0.32,3.25,0.63c0.12,0.12,0.6-0.16,0.91-0.17c1.31-0.05,2.63-0.16,3.94-0.08c2.65,0.17,5.3,0.45,7.94,0.69
			c0.43,0.04,0.8,0.11,0.98,0.36c2.38-0.05,4.76-0.14,7.15-0.24c0.93-0.16,1.86-0.31,2.79-0.42c1-0.13,2.01-0.1,3.02-0.15
			c3.08-0.15,6.18-0.16,9.24-0.52c2.96-0.35,5.88-0.86,8.89-0.89c3.21-0.04,6.42-0.41,9.62-0.69c2.7-0.24,5.4-0.56,8.09-0.88
			c0.26-0.03,0.49-0.36,0.73-0.56c1.04,1.11,2.31,0.54,3.45,0.34c2.28-0.39,4.55-0.9,6.79-1.47c2.2-0.56,4.36-1.27,6.55-1.89
			c0.86-0.24,1.75-0.4,2.62-0.62c0.26-0.06,0.5-0.19,0.76-0.28c1.68-0.59,3.35-1.22,5.04-1.77c2.22-0.71,4.48-1.29,6.69-2.05
			c2.62-0.91,5.25-1.83,7.77-2.97c1.83-0.82,3.45-2.08,5.25-2.99c1.41-0.71,2.25-2.09,3.67-2.77c0.87-0.41,1.31-0.49,1.98,0.22
			c1.09-0.16,1.75-0.91,2.49-1.64c0.86-0.84,1.97-1.44,2.98-2.14c0.98-0.67,1.94-1.37,2.96-1.97c0.71-0.42,1.5-0.7,2.45-1.14
			c0,0.49,0.07,0.78-0.01,1.03c-0.24,0.76-0.43,1.42,0.33,2.08c0.43,0.37,0.03,1-0.6,1.07c-0.31,0.03-0.61,0.13-1.02,0.22
			c0.16,0.19,0.21,0.29,0.28,0.32c1.22,0.63,1.13,0.6,0.68,1.87c-0.69,1.94-1.87,3.57-3.01,5.23c-0.91,1.32-1.71,2.71-2.62,4.04
			c-0.33,0.48-0.81,0.86-1.22,1.29c-0.09,0.09-0.25,0.21-0.24,0.3C166.76,205.21,165.55,205.75,165,206.64z M175.63,207.09
			c1.28,0.4,2.56,0.81,3.86,1.15c1.4,0.36,2.82,0.6,4.21,0.97c1.36,0.36,2.67,0.87,4.03,1.23c2.35,0.63,4.7,1.27,7.08,1.78
			c2.03,0.44,4.09,0.72,6.13,1.04c1.81,0.29,3.56,0.8,5.29,1.38c0.04,0.01,0.06,0.11,0.11,0.23c-2.37,0.63-4.6,0.02-6.87-0.53
			c-2.54-0.62-5.14-0.97-7.7-1.55c-2.22-0.5-4.41-1.14-6.62-1.72c-1.23-0.32-2.46-0.66-3.69-0.98c-0.19-0.05-0.41-0.05-0.59-0.12
			c-1.44-0.54-2.87-1.1-4.31-1.63c-1.12-0.42-2.27-0.77-3.37-1.22c-0.31-0.13-0.51-0.52-0.76-0.8c0.06-0.08,0.12-0.16,0.18-0.24
			C173.63,206.41,174.62,206.77,175.63,207.09z M190.24,226.12c-0.65-0.4-1.29-0.8-1.94-1.2l-0.27,0.23
			c0.09,0.3,0.18,0.61,0.29,1.01c-0.23-0.08-0.51-0.11-0.55-0.21c-0.41-1.27-1.57-1.14-2.52-1.4c-1.89-0.53-3.79-1.05-5.67-1.6
			c-0.28-0.08-0.51-0.31-0.75-0.49c-0.14-0.1-0.3-0.34-0.37-0.31c-1.24,0.45-1.78-0.77-2.66-1.14c-0.89-0.37-1.59-1.15-2.45-1.6
			c-0.54-0.29-1.23-0.28-1.84-0.47c-0.53-0.16-1.06-0.37-1.53-0.65c-1.22-0.71-2.42-1.47-3.77-2.3c0.02-0.09,0.09-0.39,0.23-0.94
			c1.36,0.76,2.59,1.45,3.82,2.16c0.34,0.2,0.64,0.57,1,0.63c1.9,0.31,3.57,1.25,5.33,1.91c1.06,0.4,2.02,1.06,3.06,1.52
			c0.52,0.23,1.13,0.25,1.81,0.39c-0.12,0.46,0.13,0.71,0.68,0.88c1.91,0.6,3.79,1.3,5.7,1.88c0.83,0.25,1.71,0.35,2.58,0.43
			c0.81,0.07,1.35,0.49,1.81,1.07C191.63,226.87,190.67,225,190.24,226.12z M182.46,221.61c0.91-0.49,4.47,0.56,5.34,1.51
			C186.03,222.62,184.27,222.13,182.46,221.61z M198.96,227.6c-1.12-0.39-2.16-0.76-3.33-1.17c0.44-0.36,0.77-0.64,1.21-1
			c0.32,0.35,0.74,0.66,0.94,1.07c0.28,0.6,0.66,0.65,1.18,0.49V227.6z M259.67,217.65c-0.15,0.79-0.58,1.24-0.98,1.79
			c-0.15,0.21-0.38,0.46-0.37,0.68c0.07,0.89-0.42,1.17-1.15,1.51c-1.94,0.9-3.82,1.94-5.73,2.92c-0.23,0.12-0.5,0.18-0.76,0.19
			c-1.01,0.03-2.02,0.06-3.03,0.01c-0.99-0.04-1.88-0.01-2.52,0.96c-0.18,0.28-0.74,0.41-1.13,0.42c-1.07,0.04-2.16-0.1-3.23-0.03
			c-0.85,0.05-1.69,0.27-2.52,0.48c-0.86,0.21-1.57-0.11-2.32-0.46c-0.39-0.18-0.88-0.2-1.32-0.23c-1.21-0.08-2.41-0.13-3.62-0.19
			c-0.23-0.01-0.52-0.11-0.7-0.01c-1.49,0.78-3.04,0.21-4.56,0.29c-1.05,0.05-2.11,0.48-3.11,0.88c-0.69,0.28-1.26,0.86-1.95,1.16
			c-0.33,0.14-0.82-0.04-1.21-0.16c-0.33-0.1-0.63-0.32-1.15-0.59c0.13,0.51,0.2,0.8,0.29,1.15c-0.68,0.13-1.29,0.28-1.91,0.37
			c-1.88,0.28-3.76,0.78-5.68,0.14c-0.19-0.06-0.48,0-0.67,0.1c-1.01,0.55-2.04,0.56-3.13,0.31c-0.81-0.18-1.66-0.18-2.48-0.33
			c-0.44-0.08-0.85-0.31-1.27-0.47c-0.18-0.07-0.38-0.24-0.54-0.21c-1.58,0.32-2.75-0.53-3.95-1.33c0.13-0.24,0.26-0.48,0.41-0.77
			c1.13,0.11,2.32,0.42,3.46,0.29c2.56-0.3,5.07,0.09,7.61,0.21c0.74,0.04,1.53-0.14,2.23-0.4c0.53-0.2,1.01-0.61,0.94-1.36
			c-0.09-0.92,0.85-0.65,1.3-1.02c-0.09-0.38-0.18-0.76-0.28-1.17c-1.54,0.09-3.09,0.1-4.62,0.27c-3.15,0.36-6.27-0.01-9.34-0.53
			c-3.06-0.51-6.06-1.4-9.08-2.12c-2.28-0.54-4.58-1.01-6.84-1.63c-1.41-0.39-2.76-1-4.15-1.49c-1.74-0.61-3.53-1.08-5.21-1.8
			c-1.4-0.6-2.79-1.3-3.88-2.45c-0.17-0.18-0.48-0.23-0.73-0.34c-0.06,0.06-0.12,0.12-0.18,0.18c0.15,0.39,0.31,0.77,0.46,1.16
			c-0.03,0.08-0.06,0.15-0.09,0.23c-0.81-0.33-1.65-0.61-2.41-1.02c-0.19-0.1-0.31-0.7-0.19-0.92c0.51-0.93,1.13-1.8,1.69-2.7
			c0.37-0.59,0.71-1.21,1.08-1.86c1.15,0.7,2.27,1.38,3.64,2.22c-0.5,0.05-0.76,0.12-1.01,0.09c-0.33-0.04-0.65-0.15-0.98-0.23
			c-0.64-0.15-1.18,0.18-1.3,0.68c-0.11,0.47,0.02,1.16,0.33,1.54c0.59,0.74,1.25,1.3,2.44,1.27c1.1-0.03,2.22,0.58,3.34,0.92
			c0.19,0.06,0.37,0.18,0.56,0.22c1.97,0.46,3.94,0.97,5.92,1.36c3.02,0.59,6.06,1.09,9.09,1.66c1.92,0.36,3.83,0.8,5.76,1.16
			c1.46,0.27,2.94,0.47,4.4,0.7c1.75,0.27,3.5,0.64,5.27,0.77c1.87,0.14,3.74,0.79,5.65,0.02c0.59-0.24,1.32-0.1,1.98-0.16
			c0.19-0.02,0.36-0.12,0.53-0.17c0-0.13,0.02-0.24,0-0.25c-1.06-0.4-1.57-1.36-2.26-2.14c-0.23-0.26-0.72-0.37-1.1-0.39
			c-1.47-0.06-2.94-0.04-4.4-0.09c-0.22-0.01-0.43-0.26-0.64-0.39c0.17-0.17,0.32-0.43,0.52-0.49c0.56-0.16,1.15-0.26,1.73-0.35
			c0.33-0.05,0.67-0.05,1.01-0.07c0.8-0.04,1.69-0.27,1.61-1.14c-0.06-0.62-0.68-1.5-1.26-1.71c-1.46-0.52-3.04-0.72-4.57-1.08
			c-0.45-0.11-0.87-0.32-1.27-0.6c1.48-0.75,2.88-0.54,4.25,0.12c0.06,0.03,0.11,0.09,0.17,0.1c0.34,0.04,0.69,0.1,1.03,0.09
			c0.06,0,0.2-0.44,0.14-0.49c-0.26-0.21-0.57-0.38-0.87-0.53c-0.91-0.47-2.02-0.52-2.73-1.4c-0.12-0.14-0.39-0.22-0.6-0.22
			c-1,0.02-2.03,0.23-3,0.08c-1.85-0.28-3.67-0.79-5.51-1.15c-0.75-0.15-1.53-0.13-2.28-0.27c-1.31-0.25-2.61-0.55-3.92-0.85
			c-1.73-0.4-3.46-0.8-5.18-1.24c-2.11-0.54-4.25-1.01-6.31-1.72c-1.75-0.61-3.41-1.5-5.09-2.3c-0.26-0.12-0.43-0.42-0.63-0.62
			c0.42-0.26,0.72-0.45,0.89-0.56c2.32,0.57,4.59,1.17,6.87,1.68c2.13,0.47,4.32,0.72,6.4,1.34c0.89,0.27,1.77,0.46,2.67,0.64
			c1.72,0.36,3.44,0.72,5.15,1.11c1.21,0.27,2.4,0.62,3.61,0.88c1.18,0.25,2.38,0.41,3.57,0.61c1.55,0.26,3.09,0.57,4.65,0.76
			c0.44,0.05,1.01-0.16,1.39-0.43c0.71-0.51,0.57-1.46-0.19-1.89c-1.66-0.92-3.41-1.38-5.3-1.74c-1.56-0.29-3.15-0.5-4.71-0.79
			c-1.98-0.36-3.97-0.7-5.94-1.08c-0.85-0.16-1.68-0.4-2.52-0.6l0.03-0.21c0.82,0.11,1.63,0.22,2.45,0.32c1,0.12,2,0.24,3,0.33
			c2.77,0.24,5.51,0.05,8.2-0.66c0.23-0.06,0.42-0.28,0.62-0.43l-0.1-0.39c-2.33,0-4.67,0.1-7-0.03c-1.74-0.1-3.46-0.51-5.19-0.77
			c-2.19-0.33-4.38-0.6-6.56-1c-2.13-0.4-4.23-0.92-6.33-1.44c-0.84-0.21-1.66-0.53-2.45-0.87c-0.19-0.08-0.27-0.44-0.43-0.74
			c1.34,0,2.47-0.01,3.6,0.01c0.37,0.01,0.74,0.07,1.1,0.16c2.55,0.6,5.09,1.2,7.64,1.82c3.12,0.76,6.25,1.47,9.45,1.8
			c1,0.1,1.98,0.37,2.98,0.4c0.46,0.01,1.18-0.26,1.34-0.6c0.47-1.03,1.2-0.8,1.93-0.57c0.86,0.27,1.69,0.64,2.55,0.97
			c0.4-0.55,0.49-0.81-0.22-1.17c-1.36-0.68-2.71-1.28-4.23-1.56c-0.96-0.18-1.85-0.79-2.81-1c-1.82-0.4-3.67-0.71-5.53-0.97
			c-1.79-0.25-3.6-0.32-5.38-0.59c-1.78-0.27-3.53-0.89-5.31-0.99c-1.71-0.1-2.9-1.09-4.32-1.69c0.01-0.07,0.03-0.14,0.04-0.21
			c0.88,0.07,1.76,0.08,2.62,0.22c2.62,0.42,5.23,0.91,7.85,1.35c2.18,0.37,4.35,0.79,6.54,1.04c1.26,0.14,2.56,0.02,3.83-0.05
			c0.23-0.01,0.44-0.36,0.66-0.56c-0.23-0.19-0.47-0.54-0.7-0.53c-0.73,0.02-1.18-0.27-1.59-0.85c-0.19-0.27-0.59-0.46-0.93-0.55
			c-2.08-0.53-4.15-1.1-6.25-1.51c-2.27-0.45-4.58-0.68-6.86-1.11c-1.51-0.28-2.98-0.75-4.47-1.13c-0.6-0.15-1.09-0.52-0.73-1.12
			c0.19-0.3,0.99-0.55,1.31-0.39c1.74,0.85,3.62,1.15,5.47,1.58c2.25,0.52,4.47,1.12,6.71,1.67c0.26,0.06,0.54,0.17,0.79,0.14
			c1.71-0.19,3.12,0.64,4.6,1.26c0.43,0.18,0.89,0.27,1.34,0.4c0.06-0.09,0.11-0.18,0.17-0.28c-0.19-0.28-0.39-0.56-0.62-0.9
			c0.28-0.24,0.59-0.51,1.03-0.89c-2.13-0.63-4.1-1.21-6.07-1.79c0.33-1.4,0.31-1.48-0.99-1.98c-1.6-0.62-3.28-0.86-4.95-1.2
			c-1.44-0.29-2.96-0.08-4.37-0.83c-0.88-0.47-2.07-0.36-3.13-0.51c0.36-1.31,0.37-1.36,1.59-1.17c2.05,0.33,4.09,0.78,6.14,1.08
			c1.19,0.17,2.41,0.19,3.62,0.21c1,0.02,2.07-0.47,2.88,0.58c0.07,0.09,0.56,0.01,0.66-0.12c0.17-0.23,0.31-0.62,0.22-0.85
			c-0.1-0.27-0.42-0.54-0.71-0.66c-1.96-0.77-3.78-1.96-5.93-2.22c-1.05-0.13-2.11-0.23-3.23-0.36c1.08-1.47,0.54-2.66-1.18-3.02
			c-0.89-0.18-1.76-0.44-2.38-0.6c-0.29-0.49-0.41-0.97-0.71-1.16c-1.26-0.8-2.46-1.67-4.11-1.76c-0.86-0.05-1.82-0.45-2.7-0.73
			c-0.81-0.25-1.7-0.47-2.54-0.73c-2.29-0.7-4.58-1.38-6.87-2.08c-1.73-0.53-3.46-1.05-5.19-1.59c-0.19-0.06-0.36-0.16-0.78-0.35
			c0.46-0.07,0.67-0.13,0.87-0.12c2.36,0.12,4.65,0.58,6.92,1.24c1.6,0.46,3.27,0.64,4.92,0.94c0.79,0.15,1.58,0.31,2.38,0.4
			c0.25,0.03,0.53-0.17,0.79-0.26c-0.1-0.27-0.19-0.54-0.32-0.8c-0.24-0.47-0.4-1.06-0.78-1.37c-0.67-0.53-1.43-1.09-2.24-1.28
			c-1.81-0.42-3.67-0.6-5.51-0.91c-0.42-0.07-0.82-0.3-1.24-0.35c-1.25-0.16-2.52-0.23-3.77-0.39c-2.8-0.36-5.59-0.76-8.38-1.14
			c-0.79-0.11-1.49-0.35-2.04-1.35c1.22-0.07,2.26-0.22,3.29-0.15c1.2,0.08,2.38,0.36,3.57,0.56c2.05,0.33,4.1,0.68,6.15,0.99
			c0.68,0.1,1.37,0.09,2.06,0.13c0.04-0.1,0.08-0.21,0.12-0.31c-0.4-0.31-0.75-0.76-1.2-0.91c-1.36-0.44-2.74-0.89-4.15-1.11
			c-2.35-0.36-4.72-0.56-7.08-0.8c-1.2-0.12-2.4-0.16-3.6-0.25c-0.22-0.02-0.54-0.04-0.64-0.18c-1.03-1.37-2.67-1.42-4.1-1.92
			c-0.43-0.15-0.87-0.32-1.29-0.49c-0.15-0.06-0.28-0.2-0.44-0.24c-1.36-0.34-2.74-0.62-4.08-1.03c-0.88-0.27-1.71-0.73-2.58-1.05
			c-0.7-0.26-1.44-0.45-2.26-0.7c0.14-0.32,0.22-0.76,0.48-1.02c0.55-0.56,0.6-1.19,0.4-1.86c-0.19-0.65,0.05-1.03,0.67-1.06
			c2.24-0.1,4.55-0.59,6.69,0.24c1.81,0.7,3.61,0.04,5.38,0.46c0.68,0.17,1.39,0.24,2.24,0.37c-2.39,0.34-4.6,0.9-6.91,0.53
			c-0.63-0.1-1.32,0.17-1.94,0.27c0.04,1.16,0.63,1.33,1.39,1.31c3.23-0.08,6.45-0.1,9.68-0.25c2.44-0.12,4.78,0.28,7.03,1.1
			c2.55,0.93,5.01,2.12,7.54,3.09c2.21,0.85,4.47,1.56,6.7,2.35c1.08,0.39,2.13,0.86,3.2,1.25c0.75,0.28,1.58,0.39,2.3,0.74
			c2.09,1,4.12,2.11,6.2,3.12c0.68,0.33,1.48,0.42,2.17,0.74c1.81,0.85,3.6,1.74,5.38,2.66c1.22,0.63,2.4,1.34,3.6,2.02
			c0.28,0.16,0.55,0.34,0.82,0.53c0.33,0.23,0.61,0.53,0.96,0.73c1.34,0.74,2.7,1.46,4.06,2.18c2.31,1.23,4.6,2.48,6.93,3.65
			c1.04,0.52,2.24,0.74,3.24,1.32c2.87,1.67,5.68,3.47,8.52,5.21c1.34,0.81,2.7,1.58,4.04,2.39c0.34,0.21,0.66,0.46,0.98,0.71
			c1.42,1.1,2.81,2.24,4.26,3.28c2.36,1.7,4.67,3.53,7.19,4.95c1.98,1.11,3.73,2.43,5.37,3.95c0.51,0.47,0.87,1.11,1.33,1.64
			c0.26,0.3,0.54,0.66,0.89,0.8c1.81,0.7,2.56,2.52,3.94,3.67c1.45,1.21,2.77,2.58,4.13,3.88c0.26,0.25,0.5,0.53,0.74,0.81
			c0.25,0.29,0.51,0.58,0.72,0.9c0.2,0.3,0.34,0.64,0.51,0.97c-0.08,0.04-0.16,0.09-0.24,0.13c-0.09-0.02-0.23,0-0.27-0.06
			c-0.25-0.31-0.48-0.78-0.9-0.31c-0.09,0.1,0.17,0.79,0.39,0.87c1.19,0.44,1.44,1.69,2.23,2.46c0.23,0.22,0.26,0.66,0.35,1
			c0.05,0.16-0.02,0.43,0.07,0.48C259.92,216.32,259.83,216.83,259.67,217.65z M160.92,149.03c0.02-0.1,0.04-0.2,0.06-0.3
			c1.07,0.23,2.15,0.47,3.22,0.7c-0.02,0.12-0.04,0.23-0.06,0.35C162.95,150,161.89,149.7,160.92,149.03z M166.07,150.29
			c0.16-0.27,0.33-0.54,0.5-0.82c0.21,0.94,1.08,1.04,1.77,1.22c0.69,0.18,1.45,0.1,2.23,0.13
			C169.61,151.64,167.3,151.36,166.07,150.29z M170.68,152.11c0.03-0.11,0.07-0.22,0.1-0.34c0.45,0.11,0.91,0.2,1.36,0.33
			c0.93,0.26,1.86,0.51,2.78,0.81c1.04,0.33,2.1,0.64,3.1,1.08c0.93,0.41,1.8,0.97,2.67,1.51c0.14,0.09,0.13,0.41,0.26,0.89
			C177.26,155.13,173.83,153.95,170.68,152.11z M203.69,166.64c1.58,0.09,2.95,0.51,4.15,1.44c0.54,0.42,1.27,0.58,1.88,0.93
			c0.83,0.47,1.59,1.06,2.43,1.51c0.78,0.41,1.66,0.65,2.43,1.08c0.44,0.24,0.77,0.7,1.15,1.06c-0.07,0.11-0.14,0.21-0.2,0.32
			c-0.63-0.14-1.29-0.2-1.88-0.44c-1.04-0.43-2.08-0.92-3.04-1.5c-1.06-0.64-2.01-1.45-3.05-2.12c-1-0.64-2.06-1.2-3.09-1.8
			C204.22,166.95,203.96,166.79,203.69,166.64z M259.51,196.5c1.17,0.58,2.35,1.08,3.3,2.07c0.55,0.58,0.44,1.29,0.68,1.92
			c0.04,0.1-0.27,0.47-0.46,0.5c-2.11,0.35-4.23,0.67-6.36,0.96c-0.24,0.03-0.56-0.13-0.76-0.3c-0.94-0.82-1.87-1.67-2.77-2.53
			c-0.55-0.53-1.02-1.14-1.59-1.66c-1.36-1.23-2.8-2.38-4.1-3.66c-0.99-0.98-2.22-1.57-3.32-2.37c-1.3-0.94-2.32-2.28-3.49-3.41
			c-0.33-0.32-0.74-0.56-1.12-0.82c-0.71-0.48-1.4-1-2.14-1.42c-1.16-0.66-2.36-1.23-3.53-1.87c-0.73-0.4-1.46-0.81-2.15-1.28
			c-1.02-0.69-2.14-1.22-3.19-1.88c-2.54-1.6-5.32-2.81-8.01-4.18c-0.12-0.06-0.24-0.11-0.41-0.18v-0.83
			c-0.05,0.05-0.1,0.11-0.16,0.16c-1.02-0.64-2.04-1.28-3.05-1.93c0.01-0.05,0.01-0.11,0.02-0.16c0.21,0,0.42-0.01,0.62,0
			c1.07,0.06,2.03-0.59,2.26-1.56c0.25-1.05-0.2-2.06-1.24-2.46c-2.39-0.92-4.34-2.47-6.18-4.18c-0.16-0.15-0.41-0.22-0.61-0.32
			c-1.57-0.76-3.22-1.39-4.68-2.32c-1.41-0.9-2.92-1.34-4.48-1.74c-0.38-0.1-0.78-0.09-1.18-0.14c-0.37,1.14-0.7,2.18-1.03,3.21
			c-0.45-0.09-0.96-0.18-1.47-0.3c-0.19-0.04-0.44-0.12-0.52-0.26c-0.56-0.96-1.59-1-2.47-1.35c-0.88-0.36-1.75-0.73-2.62-1.11
			c-1.95-0.86-3.91-1.73-5.85-2.62c-0.24-0.11-0.43-0.32-0.66-0.45c-0.7-0.37-1.42-0.7-2.11-1.09c-0.73-0.42-1.42-0.92-2.15-1.32
			c-0.96-0.53-1.93-1.03-2.93-1.49c-1.37-0.62-2.76-1.19-4.14-1.78c-0.82-0.35-1.63-0.73-2.48-1.02c-0.78-0.26-1.69-0.2-2.24-0.99
			c-0.06-0.09-0.24-0.11-0.37-0.14c-1.27-0.27-2.55-0.53-3.82-0.79c0,0,0,0.01,0,0.01c-0.79-0.24-1.62-0.41-2.38-0.74
			c-1.38-0.6-2.75-0.8-4.27-0.69c-1.08,0.08-2.22-0.4-3.32-0.7c-0.89-0.25-1.76-0.6-2.93-1.01c0.56-0.17,0.92-0.32,1.29-0.39
			c0.91-0.18,1.83-0.34,2.75-0.47c0.39-0.06,0.8,0,1.2-0.03c1.43-0.1,2.85-0.25,4.28-0.32c0.46-0.02,0.93,0.12,1.4,0.19
			c0.02-0.09,0.04-0.17,0.06-0.26l-1.29-0.73c0.02-0.1,0.05-0.19,0.07-0.29c0.35,0,0.7,0.02,1.04,0c0.79-0.06,1.58-0.17,2.37-0.22
			c0.43-0.03,0.87-0.02,1.3,0.04c1.57,0.21,3.15,0.34,4.69,0.7c0.95,0.22,1.82,0.72,2.86,0.58c0.29-0.04,0.62,0.22,1.14,0.43
			c-0.32,0.38-0.55,0.72-0.83,0.98c-0.92,0.85-0.87,1.73-0.12,2.72c0.95,1.26,2.01,1.4,3.44,0.99c0.71-0.2,1.56,0.09,2.35,0.19
			c0.72,0.09,1.43,0.28,2.15,0.29c1,0.02,1.91,0.01,2.91,0.47c1.15,0.53,2.55,0.52,3.83,0.76c0.39,0.07,0.78,0.24,1.17,0.26
			c0.68,0.03,1.41,0.13,2.02-0.09c1.01-0.36,1.07-1.48,0.2-2.15c-0.41-0.32-0.86-0.59-1.2-1.03c1.03,0.4,2.06,0.79,3.08,1.19
			c0.72,0.28,1.45,0.54,2.13,0.89c0.75,0.39,1.41,0.93,2.16,1.32c1.53,0.81,3.06,1.64,4.66,2.29c0.53,0.21,1.4,0.09,1.86-0.24
			c0.27-0.19,0.05-1.08,0.05-1.73c0.5,0.04,1.34-0.47,1.76,0.63c0.06,0.15,0.42,0.17,0.63,0.27c1.32,0.67,2.63,1.38,3.96,2.03
			c1.04,0.51,2.13,0.94,3.18,1.44c0.79,0.38,1.57,0.78,2.31,1.25c1.84,1.17,3.7,2.31,5.47,3.59c0.99,0.72,1.81,1.67,2.72,2.5
			c0.3,0.27,0.65,0.47,0.95,0.74c0.6,0.52,1.19,1.06,1.79,1.59c0.63,0.55,1.22,1.16,1.91,1.6c1.07,0.68,2.21,1.26,3.34,1.85
			c0.41,0.21,0.88,0.32,1.32,0.49c0.31,0.12,0.64,0.23,0.89,0.43c1.26,1,2.51,2.01,3.72,3.07c0.38,0.33,0.62,0.83,0.92,1.26
			c-0.07,0.08-0.13,0.15-0.2,0.23c-1.06-0.66-2.1-1.36-3.19-1.96c-1.58-0.87-3.2-1.66-4.8-2.51c-2.51-1.34-5-2.73-7.53-4.03
			c-1.28-0.66-2.58-1.22-3.63-2.25c-0.21-0.2-0.77-0.18-1.12-0.08c-0.47,0.14-0.88,0.46-1.48,0.78c2.49,2.07,5.5,3.07,7.98,4.89
			c-0.04,0.08-0.07,0.15-0.11,0.23c-0.91-0.39-1.81-0.81-2.74-1.17c-0.3-0.12-0.66-0.1-0.99-0.14c0.11,0.33,0.12,0.79,0.35,0.96
			c0.75,0.56,1.59,1,2.37,1.51c0.3,0.2,0.56,0.47,0.77,0.83c1.06-0.02,1.84,0.58,2.58,1.31c0.61,0.6,1.15,1.34,2.14,1.37
			c0.12,0,0.25,0.1,0.36,0.18c1.38,1.02,2.72,2.09,4.14,3.05c1.27,0.86,2.63,1.58,3.94,2.44c-1.95-0.41-3.6-1.74-5.71-2.15
			c0.06,0.42,0.11,0.73,0.16,1.1c1-0.03,1.56,0.48,2.2,1.19c0.97,1.09,2.23,1.92,3.39,2.82c1.29,1,2.56,2.03,3.93,2.9
			c1.87,1.19,3.55,2.64,5.6,3.63c2.2,1.07,4.42,2.2,6.19,4.07C256.98,195.48,258.34,195.92,259.51,196.5z"/>
		<path class="st1" d="M59.3,165.75c-0.39-0.4-0.9-0.69-1.34-1.06c-1.01-0.85-2.21-1.58-2.97-2.62c-0.96-1.31-1.81-2.73-2.52-4.23
			c-1-2.11-2.06-4.19-3.12-6.28c-0.71-0.63-1.43-1.24-2.15-1.86c0.06,0.23,0.1,0.47,0.11,0.72c-1.04-0.83-2.02-1.61-3.08-2.46
			c0.29-0.09,0.57-0.14,0.83-0.14c-0.59-0.53-1.16-1.08-1.7-1.64c-2.05-1.02-3.39-2.82-4.43-4.88c-0.47-0.94-0.6-2.06-0.88-3.1
			c-0.04-0.16-0.04-0.36-0.14-0.47c-0.79-0.9-0.4-1.88-0.22-2.86c0.17-0.94,0.29-1.9,0.47-2.84c0.15-0.78,0.35-1.52,1.12-2
			c0.5-0.31,0.91-0.79,1.42-1.24c0.32,0.23,0.63,0.45,0.77,0.55c0.61-0.63,1.03-1.37,1.65-1.62c0.65-0.27,1.5-0.14,2.25-0.05
			c1.69,0.18,3.37,0.42,5.05,0.68c1.7,0.27,3.39,0.58,5.08,0.86c0.26-0.11,0.57-0.14,0.92-0.04c0.32,0.09,0.63,0.2,0.94,0.3
			c1.22,0.13,2.44,0.15,3.67,0.51c0.86,0.25,2.02-0.07,2.91-0.45c2.31-1,4.65-1.88,7.2-1.72c1.46,0.09,2.91,0.46,4.26,0.88
			c0.23,0.3,0.48,0.58,0.69,0.9c0.3,0.44,0.57,0.9,0.86,1.36c0.85,1.36,1.67,2.74,2.56,4.07c0.36,0.54,0.94,0.93,1.34,1.45
			c1.03,1.31,1.96,2.69,3.03,3.97c0.82,0.97,1.77,1.83,2.68,2.72c1.51,1.48,3.06,2.92,4.55,4.42c0.51,0.51,1.04,1.08,1.3,1.73
			c0.04,0.1,0.05,0.22,0.04,0.35c0.24,0.19,0.48,0.37,0.72,0.56c0.03-0.14,0.06-0.29,0.1-0.49c1.91,1.62,3.58,3.18,4.81,5.23
			c-0.09,0.08-0.19,0.14-0.28,0.2c2.79-0.35,5.61-0.67,8.42-0.9c-0.13-0.03-0.27-0.07-0.36-0.16c-0.74-0.67-1.43-1.39-2.2-2.02
			c-0.39-0.31-0.9-0.6-1.37-0.63c-0.94-0.06-1.64-0.35-2.27-1.08c-0.48-0.56-1.21-0.89-1.76-1.4c-1.58-1.46-3.15-2.92-4.66-4.45
			c-0.91-0.93-1.7-1.98-2.54-2.97c-0.72-0.84-1.56-1.6-2.16-2.52c-1.75-2.67-4.27-4.61-6.32-6.98c-0.66-0.76-1.12-1.69-1.67-2.55
			c-0.11-0.17-0.14-0.4-0.28-0.53c-1.43-1.28-1.82-3.15-2.7-4.73c-0.4-0.72-0.55-1.57-0.87-2.34c-0.49-1.2-1.09-2.36-1.52-3.58
			c-0.55-1.59-0.98-3.23-1.45-4.85c-0.13-0.47-0.19-0.95-0.28-1.43c0.09-0.07,0.18-0.15,0.27-0.22c1.56,0.54,3.13,1.03,4.65,1.65
			c0.24,0.1,0.38,0.75,0.35,1.13c-0.09,0.96,0.21,1.53,1.19,1.77c1.79,0.44,3.56,0.93,5.33,1.41c0.47,0.13,0.94,0.29,1.4,0.45
			c0.98,0.33,1.99,0.58,2.93,1.01c1.59,0.73,3.12,1.58,4.68,2.37c1.28,0.64,2.62,1.17,3.84,1.89c1.08,0.63,2.03,1.47,3.04,2.22
			c-0.04,0.05-0.08,0.11-0.12,0.16c1,0.58,1.95,1.25,2.86,2.01c0.18,0.15,0.31,0.32,0.38,0.5c0.88,0.57,1.56,1.59,2.45,2.47
			c-0.36,0.11-0.57,0.24-0.63,0.19c-1.06-0.91-2.26-0.22-3.38-0.27c-1.74-0.08-3.51,0.28-5.06-0.78c-1.22,0.16-2.46,0.07-3.71-0.03
			c-0.41,0.16-0.81,0.37-1.17,0.63c-0.3,0.22-0.66,0.54-0.72,0.87c-0.02,0.1,0.05,0.23,0.16,0.35c2.77,0.16,5.5,0.82,8.12,1.7
			c2.86,0.97,5.63,2.19,8.39,3.42c2.46,1.1,4.77,2.22,6.93,3.85c0.2,0.15,0.39,0.3,0.59,0.45c0.38,0.2,0.75,0.41,1.13,0.62
			c0.75,0.42,1.4,0.64,2.16-0.06c1.29,1.22,2.47,2.45,3.41,3.95c0.55,0.87,1.04,1.76,2.33,2.11c1.73,0.47,3.34,1.46,4.52,2.92
			c0.13,0.16,0.25,0.31,0.34,0.48c1.2-3.52,2.87-6.88,4.96-9.9c-0.78-1.4-1.57-2.71-2.18-4.09c-0.36-0.83-0.36-1.82-0.46-2.75
			c-0.11-0.99,0.05-2.05-0.25-2.96c-0.6-1.77-0.31-3.56-0.2-5.3c0.02-0.4,0.21-0.8,0.38-1.22c0-0.99-0.13-1.95-0.35-2.89
			c-0.16-0.11-0.36-0.21-0.61-0.31c-1.01-0.4-1.04-0.44-0.84-1.99c0.29,0.05,0.58,0.09,0.86,0.14c-0.13-0.41-0.26-0.82-0.38-1.24
			c-0.64-0.09-0.69-0.48-0.45-1.04c0.03-0.07,0.05-0.13,0.08-0.2c-0.06-0.23-0.13-0.45-0.19-0.68c-0.1-0.39-0.03-0.75,0.15-1.04
			c0,0,0-0.01,0-0.01c-0.3-0.52-0.69-1.13-1.29-0.8c-0.44,0.24-0.69,0.9-0.94,1.42c-0.1,0.21,0.01,0.53,0.02,0.8
			c-0.12,0.01-0.24,0.02-0.35,0.03c-0.08-0.7-0.13-1.4-0.26-2.09c-0.24-1.35-0.52-2.69-0.79-4.03c-0.26-1.3-0.53-2.6-0.8-3.9
			c-0.03-0.16-0.01-0.36-0.09-0.49c-0.99-1.47-0.58-3.17-0.82-4.77c-0.21-1.42,0.17-2.98-1.08-4.17c-0.25-0.24-0.22-0.81-0.25-1.23
			c-0.06-0.68-0.24-1.17-1.26-1.05c0.67,1.15-0.1,1.77-0.73,2.52c-0.64,0.75-1.35,1.58-0.61,2.69c0.03,0.05,0.06,0.15,0.04,0.19
			c-0.52,0.93,0.06,1.87-0.04,2.77c-0.1,0.93-0.58,1.82-0.8,2.75c-0.16,0.69-0.17,1.42-0.25,2.13c-0.01,0.13,0.04,0.27,0.02,0.4
			c-0.26,1.54-0.54,3.08-0.8,4.62c-0.04,0.25-0.02,0.51-0.05,0.76c-0.04,0.32-0.11,0.64-0.16,0.97c-0.11,0-0.22-0.01-0.33-0.01
			c-0.04-0.27-0.06-0.54-0.13-0.8c-0.17-0.63-0.37-1.26-0.56-1.88c-0.06-0.19-0.16-0.37-0.21-0.56c-0.38-1.73-0.8-3.45-1.11-5.19
			c-0.17-0.97-0.15-1.97-0.25-2.95c-0.06-0.59-0.26-1.18-0.29-1.77c-0.04-1.07,0-2.15,0.01-3.22c0-0.24,0.04-0.48-0.01-0.7
			c-0.49-2.09-1.03-4.16-1.48-6.26c-0.11-0.53-0.05-1.15,0.1-1.69c0.29-1.08,0.78-2.1,1.03-3.19c0.39-1.72,0.67-3.47,0.94-5.22
			c0.1-0.66,0.21-1.34,0.21-2c-0.7-1.02-1.43-2.02-2.21-2.98c0.17,0.91,0.26,1.85-0.35,2.78c-0.3-0.19-0.61-0.38-0.91-0.57
			c-0.29,0.43-0.29,0.43,0.27,1.31c-0.73,1.35-1.46,2.69-2.22,4.1c-0.56-0.33-0.99-0.84-1.21-1.59c-0.43-1.46-0.92-2.9-1.4-4.34
			c-0.05-0.15-0.16-0.32-0.29-0.41c-1.58-1.05-2.29-2.66-2.92-4.35c-0.54-1.47-1.34-2.86-1.32-4.49c0-0.12-0.05-0.29-0.14-0.36
			c-1.2-1.09-1.24-2.68-1.77-4.07c-0.09-0.23-0.27-0.42-0.48-0.74c-0.17,0.28-0.35,0.44-0.34,0.58c0.11,1.17,0.23,2.33,0.41,3.49
			c0.1,0.65,0.29,1.29,0.47,1.93c0.32,1.13,0.71,2.25,1,3.4c0.16,0.67,0.17,1.36,0.66,1.93c0.05,0.06-0.08,0.3-0.2,0.52
			c1.19,2.41,2.45,4.78,3.66,7.18c0.82,1.63-1.63,3.06-2.45,1.43c-0.25-0.5-0.51-1.01-0.76-1.51c-0.35-0.1-0.67-0.33-0.91-0.65
			c-0.82-1.08-1.56-2.2-2.23-3.35c0.03,0.15,0.05,0.31,0.07,0.47c-0.38,0.12-0.73,0.23-1.08,0.35c0.11,0.16,0.22,0.32,0.33,0.48
			c0.14,0.05,0.27,0.1,0.41,0.15c-0.06,0.06-0.13,0.12-0.19,0.17c1.94,2.85,3.89,5.68,5.59,8.68c1.77,3.13,3.46,6.58,4.06,10.19
			c0.01,0.03,0.02,0.07,0.04,0.1c0.23,0.57,0.46,1.14,0.67,1.72c0.38,1.06,0.9,2.1,1.09,3.19c0.33,1.84,0.31,3.75,0.68,5.58
			c0.54,2.69,0.73,5.41,1.02,8.13c0.18,1.71,0.66,3.4,1.11,5.07c0.6,2.25,1.28,4.48,1.94,6.71c0.19,0.64,0.6,1.27,0.6,1.91
			c0.01,1.29,0.14,2.45,1.31,3.25c0.03,0.02-0.01,0.12-0.04,0.4c-0.74-0.72-1.41-1.33-2.04-1.98c-0.7-0.72-1.41-1.45-2.05-2.22
			c-0.69-0.84-1.36-1.71-1.95-2.63c-1.24-1.94-2.42-3.93-3.63-5.89c-0.66-1.07-1.42-2.08-2.03-3.18c-0.63-1.15-1.11-2.38-1.68-3.56
			c-0.21-0.45-0.51-0.85-0.74-1.29c-0.52-1-0.99-2.03-1.54-3.02c-0.33-0.6-0.81-1.12-1.17-1.7c-0.72-1.17-1.41-2.35-2.09-3.53
			c-0.37-0.64-0.61-1.36-1.04-1.95c-0.64-0.88-1.53-1.6-2.06-2.54c-0.85-1.51-1.49-3.15-2.21-4.73c-0.16-0.36-0.36-0.71-0.49-1.08
			c-0.66-1.96-1.3-3.93-1.97-5.89c-0.47-1.36-0.27-2.7-0.06-4.08c0.39-2.61,0.87-5.25,0.87-7.87c0-1.69-0.28-3.5-1.32-5.04
			c-0.25-0.37-0.18-0.96-0.31-1.43c-0.14-0.51-0.33-1-0.55-1.48c-0.52-1.17-1.11-2.3-1.6-3.48c-0.45-1.07-1.07-1.9-2.24-2.25
			c-0.35-0.1-0.78-0.43-0.88-0.74c-0.65-2.01-1.23-4.05-1.83-6.09c1.74,0.64,3.56,0.81,5.39,0.98c0.96,0.09,1.84,0.78,2.81,1.04
			c1.02,0.27,2.09,0.33,3.13,0.51c2.14,0.35,4.39,0.26,6.25,1.73c1.19,0.94,2.55,1.67,3.71,2.64c1.73,1.44,3.34,3.02,5.03,4.5
			c0.46,0.34,0.91,0.69,1.36,1.04c0.1,0.08,0.2,0.16,0.3,0.24c0.4,0.28,0.8,0.57,1.14,0.91c0.57,0.56,1.3,1,1.78,1.65
			c0.54,0.53,1.06,1.09,1.55,1.68c2.08,1.44,3.74,3.31,5.27,5.35c0.69,0.93,1.65,1.66,2.39,2.55c0.73,0.88,1.37,1.85,2.02,2.8
			c0.49,0.71,0.91,1.47,1.42,2.16c0.66,0.9,1.43,1.74,2.06,2.66c0.26,0.38,0.37,0.91,0.4,1.38c0.05,0.75,0.38,0.99,1.1,0.94
			c0.21-0.02,0.43,0.2,0.66,0.31c-0.11,0.48-0.92,0.71-0.29,1.23c0.35-0.4,0.72-0.37,1.01,0.04c0.35,0.49,0.7,0.99,0.93,1.54
			c0.52,1.21,0.97,2.44,1.44,3.67c-0.07,0.03-0.14,0.07-0.21,0.1c-0.24-0.48-0.47-0.98-0.73-1.45c-0.26-0.48-0.54-0.95-1.16-0.92
			c0.67,1.06,1.3,2.16,1.87,3.29c1.72,3.44,3.38,6.93,4.56,10.59c0.82,2.54,1.54,5.45,1.32,8.22c0.55,1.66,1.05,3.35,1.64,4.99
			c0.71,1.96,0.6,3.99,0.68,6.01c0.03,0.81,0.1,1.61,0.07,2.42c0,0.02,0,0.04,0,0.06c1.63-1.15,3.38-2.14,5.23-2.94
			c1.58-0.68,3.18-1.31,4.79-1.91c-0.09-0.26-0.12-0.66-0.06-0.92c0.22-0.91,0.59-1.78,0.86-2.68c0.32-1.08,0.61-2.17,0.91-3.26
			c0.03-0.1,0.01-0.23,0.07-0.29c1.27-1.35,1.64-3.19,2.59-4.7c0.16-0.26,0.36-0.48,0.58-0.77c0.58,0.47,0.86,0.14,1.13-0.41
			c0.7-1.41,1.45-2.8,2.15-4.2c0.45-0.9,0.86-1.83,1.29-2.74c0.08-0.16,0.22-0.3,0.33-0.45c0.67-0.95,1.33-1.91,2.01-2.85
			c0.57-0.78,1.11-1.59,1.77-2.29c0.75-0.8,1.41-1.58,1.74-2.7c0.14-0.49,0.95-0.75,1.41-1.18c1.53-1.44,3.31-2.53,5.09-3.62
			c0.97-0.59,1.75-1.49,2.68-2.17c0.91-0.67,1.88-1.29,2.86-1.85c1.35-0.78,2.72-1.52,4.13-2.19c0.52-0.25,1.17-0.24,1.75-0.34
			c0.96-0.16,1.91-0.33,2.87-0.48c0.17-0.03,0.36,0.05,0.55,0.09l-0.23,0.22c0.06,0.32,0.19,0.64,0.18,0.96
			c-0.02,0.71-0.04,1.44-0.2,2.13c-0.12,0.51-0.49,0.95-0.68,1.45c-0.15,0.39-0.2,0.81-0.32,1.35c-0.47,0.37-0.7,0-0.92-0.8
			c-0.26,0.57-0.46,0.92-0.58,1.29c-0.34,1.05-0.67,2.1-0.96,3.16c-0.2,0.73-0.31,1.48-0.47,2.22c-0.25,1.16-0.57,2.32-0.73,3.49
			c-0.21,1.59-0.36,3.19-0.4,4.79c-0.04,1.84,0.07,3.68,0.11,5.52c0.03,1.29,0.03,2.58,0.07,3.87c0.01,0.31,0.12,0.61,0.22,1.05
			c1.09-0.82,0.32-1.81,0.56-2.61c0.25-0.84,0.69-1.67,0.09-2.58c0.48-0.27,0.7-0.13,0.73,0.38c0.03,0.57,0.17,1.16,0.09,1.71
			c-0.12,0.89,0.09,1.67,0.51,2.41c0.28,0.47,0.14,0.75-0.19,1.14c-0.79,0.95-1.62,1.91-2.17,2.99c-0.17,0.33-0.16,0.75-0.12,1.21
			c3.07,0.3,6.15,0.85,9.23,1.69c0.2,0.05,0.4,0.11,0.61,0.18c0.03-0.04,0.06-0.09,0.1-0.14c1.05-1.54,2.82-1.9,4.25-2.77
			c1.44-0.88,3.12-1.38,4.75-1.9c2.19-0.7,4.41-1.3,6.64-1.86c0.87-0.22,1.8-0.25,2.7-0.29c0.28-0.01,0.64,0.15,0.84,0.35
			c0.47,0.46,0.94,0.38,1.35,0.04c1.12-0.92,2.32-1.22,3.74-0.8c0.8,0.24,1.64,0.34,2.46,0.45c0.3,0.04,0.62-0.06,1.03-0.11
			c-0.41-0.69-1.64,0.15-1.49-1.2c2.71-0.9,5.5-1.83,8.46-2.82c-0.27-0.42-0.41-0.74-0.47-0.73c-0.89,0.2-1.25-0.63-1.88-0.89
			c-0.74-0.31-1.61-0.48-2.41-0.45c-1.6,0.07-3.2,0.35-4.8,0.48c-0.69,0.06-1.39-0.05-2.08-0.07c-0.2-0.01-0.41,0-0.59,0.07
			c-1.13,0.39-2.24,0.86-3.39,1.19c-0.53,0.15-1.15-0.06-1.68,0.08c-1.55,0.43-3.08,0.93-4.61,1.44c-1.49,0.5-2.98,1.02-4.46,1.55
			c-2.94,1.03-5.97,1.84-8.65,3.54c-0.83,0.52-1.67,1.17-2.79,0.95c-0.14-0.03-0.33,0.17-0.65,0.13c0.22-0.3,0.44-0.59,0.65-0.9
			c0.32-0.47,0.62-0.95,0.95-1.42c0.11-0.16,0.24-0.35,0.4-0.41c0.79-0.32,1.08-1.03,1.47-1.71c0.32-0.55,0.88-0.97,1.32-1.46
			c0.64-0.73,1.27-1.47,1.9-2.2c1.55-1.82,3.59-2.74,5.85-3.28c0.34-0.08,0.67-0.21,1.05-0.36c0.17-0.5,0.6-0.91,1.29-0.91
			c0.92,0,1.84,0.01,2.76,0.02c-0.05-0.04-0.11-0.07-0.16-0.12c-0.28-0.22-0.76-0.3-1.14-0.28c-1.23,0.06-2.48-0.07-3.63,0.61
			c-0.31,0.18-0.82,0.03-1.43,0.03c0.55-0.51,0.93-0.89,1.33-1.23c0.8-0.66,1.68-1.02,2.77-0.95c1.24,0.08,2.49-0.04,3.73,0.01
			c1.54,0.06,3.08,0.25,4.63,0.28c1.11,0.03,2.22-0.12,3.32-0.15c1.9-0.05,3.82,0.11,5.7-0.15c1.91-0.26,3.78-0.87,5.65-1.38
			c1.69-0.46,3.36-1.01,5.07-1.52c0,0.68,0.08,1.25-0.02,1.79c-0.08,0.45-0.29,0.95-0.6,1.26c-0.52,0.52-0.93,1-0.88,1.81
			c0.03,0.4-0.17,0.84-0.35,1.21c-0.67,1.36-1.37,2.72-2.08,4.06c-0.14,0.26-0.34,0.52-0.58,0.69c-0.54,0.38-0.72,0.84-0.8,1.51
			c-0.07,0.53-0.57,1.02-0.93,1.48c-1.14,1.46-2.2,3.01-3.49,4.33c-1.49,1.53-3.15,2.89-4.79,4.28c-1.02,0.86-2.08,1.67-3.19,2.4
			c-1.14,0.75-2.15,1.9-3.75,1.64c-0.06-0.01-0.17-0.02-0.2,0.01c-0.04,0.04-0.07,0.08-0.11,0.12c2,0.69,3.93,1.52,5.76,2.59
			c0.25-0.09,0.48-0.17,0.66-0.32c2.15-1.8,4.32-3.57,6.39-5.46c2.92-2.67,6.01-5.19,8.22-8.53c1.02-1.54,2.45-2.82,2.99-4.67
			c0.05-0.15,0.2-0.27,0.27-0.42c1.02-1.94,2.75-3.55,2.75-5.96c0-0.09,0.07-0.19,0.11-0.28c1.09-2.43,1.69-4.99,2.15-7.6
			c0.06-0.34,0.26-0.68,0.47-0.96c0.8-1.03,1.65-2.02,2.46-3.05c0.66-0.84,1.2-1.78,1.92-2.56c1.27-1.4,2.21-2.91,2.29-4.86
			c0.01-0.2,0.22-0.39,0.35-0.58c0.13-0.19,0.33-0.35,0.38-0.56c0.43-1.82,0.89-3.63,1.23-5.47c0.15-0.8,0.26-1.78-0.06-2.46
			c-0.54-1.16-1.84-1.92-1.78-3.42c0-0.11-0.13-0.24-0.22-0.33c-1.54-1.57-1.9-3.47-1.7-5.58c0.04-0.46-0.14-1.08-0.46-1.41
			c-0.58-0.61-1.23-1.27-2.27-1.01c-0.17,0.04-0.43-0.27-0.64-0.42c-0.19-0.13-0.35-0.37-0.55-0.41c-1.59-0.27-3.19-0.47-4.77-0.74
			c-0.68-0.12-1.39-0.25-2.01-0.53c-1.47-0.67-2.97-1.05-4.58-0.99c-1.87,0.08-3.75,0.22-5.62,0.17c-2.71-0.07-5.35,0.22-7.94,1.04
			c-0.57,0.18-1.19,0.27-1.79,0.31c-1.57,0.11-3.09,0.22-4.63,0.76c-1.93,0.69-4.05,0.79-5.86,1.96c-0.73,0.47-1.75,0.49-2.51,0.93
			c-1.29,0.74-2.52,1.61-3.73,2.5c-1.61,1.19-3.17,2.45-4.76,3.67c-0.73,0.57-1.46,1.14-2.21,1.69c-0.59,0.43-1.21,0.84-1.82,1.24
			c-0.75,0.5-1.48,1.04-2.27,1.45c-0.83,0.42-1.54,0.84-1.96,1.76c-0.32,0.7-0.98,1.13-1.86,1.18c-0.51,0.03-1.01,0.29-1.51,0.47
			c-0.3,0.11-0.59,0.25-0.88,0.39c-1.42,0.65-2.9,1.22-4.25,1.99c-1.56,0.89-3.02,1.96-4.4,2.87c-0.3,0.35-0.49,0.67-0.77,0.88
			c-0.77,0.56-1.75,0.92-2.33,1.63c-1.19,1.43-2.9,2.22-4.07,3.66c-0.79,0.98-1.68,1.89-2.53,2.83c-1.31,1.44-2.58,2.93-3.97,4.3
			c-0.72,0.71-1.38,1.34-1.32,2.45c0.01,0.25-0.2,0.58-0.4,0.76c-1.76,1.59-2.23,3.97-3.58,5.81c-0.12,0.17-0.12,0.46-0.1,0.69
			c0.05,1.04-0.43,1.86-0.96,2.71c-0.89,1.42-2.18,2.58-2.58,4.33c-0.36,1.56-0.97,3.06-1.46,4.58c-0.04,0.13-0.05,0.27-0.08,0.41
			c-0.1-0.07-0.19-0.14-0.29-0.2c-0.29-0.93-0.5-1.89-0.88-2.77c-1.41-3.26-2.9-6.49-4.3-9.76c-0.28-0.66-0.66-1.41,0.12-2.11
			c0.35-0.31,0.51-0.83,0.79-1.31c-1.18-0.38-1.76-1.2-1.77-2.43c0-0.19-0.1-0.39-0.18-0.56c-0.54-1.1-1.08-2.2-1.63-3.3
			c-0.46-0.89-0.87-1.82-1.41-2.66c-1.01-1.58-2.16-3.06-3.14-4.66c-1.47-2.4-2.82-4.88-4.25-7.31c-0.92-1.56-1.85-3.11-2.86-4.61
			c-0.48-0.71-1.17-1.27-1.74-1.92c-0.21-0.25-0.32-0.58-0.52-0.84c-0.68-0.9-1.26-1.93-2.11-2.63c-1.03-0.85-2.16-1.54-2.91-2.71
			c-0.45-0.7-1.09-1.28-1.67-1.89c-1.01-1.05-2.22-1.97-3.02-3.16c-0.87-1.28-2.23-1.82-3.3-2.78c-0.79-0.72-1.66-1.35-2.48-2.03
			c-0.9-0.75-1.74-1.57-2.69-2.25c-1.1-0.79-2.34-1.4-2.91-2.74c-0.06-0.14-0.21-0.27-0.35-0.34c-1.34-0.67-2.71-1.21-3.96-2.14
			c-1.15-0.85-2.73-0.88-4.25-0.84c-1.5,0.04-3.01-0.3-4.52-0.49c-0.13-0.02-0.26-0.08-0.38-0.14c-1.45-0.64-2.73-1.6-4.39-1.89
			c-1.94-0.34-3.81-1.08-5.73-1.56c-0.6-0.15-1.28-0.15-1.89-0.03c-1.16,0.23-2.26,0.15-3.37-0.19c-0.99-0.3-1.99-0.36-2.91,0.28
			c-0.79,0.55-1.54,1.17-2.39,1.63c-1.07,0.58-2.23,1-3.33,1.54c-1.14,0.57-2.12,1.33-2.95,2.32c-1.02,1.22-2.07,2.44-3.21,3.55
			c-0.66,0.64-0.92,1.32-0.98,2.18c-0.12,1.59-0.23,3.18-0.83,4.7c-0.55,1.4-0.88,2.86-0.8,4.38c0.01,0.17,0.17,0.33,0.25,0.5
			c0.16,0.36,0.43,0.72,0.44,1.08c0.04,1.62-0.54,3.3,0.55,4.82c0.12,0.16,0.03,0.46,0.08,0.68c0.14,0.72,0.08,1.66,0.51,2.09
			c0.63,0.62,0.69,1.22,0.71,1.96c0.02,1.27,0.25,2.57,0.08,3.81c-0.28,2.05,0.63,3.89,0.79,5.85c0.1,1.2,0.39,2.39-0.23,3.54
			c-0.11,0.2-0.12,0.56-0.01,0.77c0.77,1.61,0.74,3.41,1.26,5.08c0.2,0.66,0.19,1.38,0.36,2.05c0.15,0.59,0.42,1.15,0.61,1.74
			c0.14,0.44,0.13,0.95,0.34,1.36c0.95,1.88,1.87,3.75,2.29,5.87c0.33,1.66,0.89,3.3,1.53,4.88c0.46,1.13,1.23,2.12,1.83,3.19
			c0.14,0.25,0.17,0.57,0.27,0.85c0.02,0.05,0.1,0.08,0.21,0.17c0.21-0.08,0.46-0.16,0.81-0.29c-0.03,0.36-0.06,0.6-0.06,0.7
			c-2.01,0.14-3.98,0.02-5.8,0.48c-1.56,0.39-3.11,0.84-4.69,1.23c-2.4,0.6-4.74,0.21-7.1,0.34c-0.15,0.01-0.32-0.07-0.46-0.15
			c-1.62-0.97-3.47-0.57-5.2-0.85c-1.18-0.19-2.41-0.03-3.61-0.08c-1.14-0.04-2.27-0.23-3.4-0.21c-1.14,0.02-2.27,0.2-3.41,0.31
			c-0.13,0.01-0.29-0.01-0.39,0.05c-1.09,0.71-2.32,0.53-3.5,0.51c-1.09-0.02-1.78,0.57-1.78,1.67c-0.01,1.28,0,2.56-0.01,3.84
			c0,0.75-0.16,1.34-0.99,1.67c-0.65,0.26-1.01,1.45-0.68,1.97c0.52-0.67,0.73-1.79,2.05-1.52c-0.15,0.73-0.3,1.34-0.39,1.97
			c-0.15,1.02-0.44,2.07-0.33,3.07c0.16,1.45,0.54,2.89,0.99,4.27c0.35,1.07,0.93,2.06,1.46,3.07c0.34,0.65,0.78,1.24,1.15,1.87
			c0.37,0.64,0.61,1.38,1.08,1.92c1.28,1.46,2.63,2.85,4,4.22c0.82,0.83,1.93,1.43,2.57,2.37c1.33,1.93,2.44,4,3.62,6.03
			c0.2,0.34,0.22,0.81,0.46,1.09c0.88,0.99,1.84,1.91,2.75,2.89c0.36,0.39,0.74,0.79,0.99,1.26c0.55,1.02,1.19,1.93,2.29,2.44
			c0.19,0.09,0.35,0.23,0.52,0.41c1.58-0.9,3.17-1.79,4.77-2.64C60.06,166.46,59.76,166.22,59.3,165.75z M124.8,132.53
			c0.3-0.32,0.45-0.86,0.49-1.31c0.05-0.59-0.09-1.2-0.15-1.79c-0.11-1.06-0.28-2.12-0.32-3.18c-0.04-1.3,0.01-2.6,0.08-3.89
			c0.14-2.65,0.32-5.3,0.5-7.95c0.09-1.24,0.22-2.48,0.35-3.71c0.02-0.2,0.15-0.4,0.23-0.59c0.09,0.02,0.18,0.03,0.27,0.05
			c0.41,2.85,0.63,5.73,1.28,8.52c0.7,3.02,0.16,6.01,0.25,9.01c0.07,2.24,0.06,4.52,0.51,6.69c0.38,1.84,0.51,3.68,0.81,5.51
			c0.23,1.4,0.81,2.75,1.23,4.12c0.05,0.16,0.04,0.34,0.06,0.5c-0.11,0.05-0.21,0.09-0.32,0.14c-0.33-0.63-0.64-1.27-0.98-1.9
			c-0.17-0.31-0.37-0.63-0.61-0.89c-0.86-0.92-1.77-1.81-2.62-2.75c-0.18-0.2-0.21-0.55-0.31-0.83c-0.08-0.22-0.1-0.57-0.25-0.63
			c-0.95-0.39-0.77-1.21-0.83-1.96c-0.02-0.3-0.06-0.61-0.17-0.88C123.82,133.53,123.85,133.56,124.8,132.53z M109.68,89.08
			c-0.12,0.04-0.23,0.09-0.35,0.13c-0.42-1.02-0.83-2.05-1.25-3.07c0.13-0.05,0.25-0.11,0.38-0.16
			C108.67,87.1,110.15,87.67,109.68,89.08z M230.82,103.76c1.33-1.48,3.05-1.98,4.79-2.64
			C235.48,102.37,232.37,104.07,230.82,103.76z M245.49,80.11c0.07,0.02,0.13,0.04,0.2,0.06v1.65c-0.35-0.23-0.58-0.39-0.87-0.58
			C245.07,80.82,245.28,80.47,245.49,80.11z M191.28,108.05c0.14-0.57,0.39-1.14,0.42-1.71c0.08-1.64-0.02-3.28,0.13-4.91
			c0.07-0.77,0.55-1.5,0.85-2.24c0.47-1.14,0.94-2.28,1.45-3.49c-0.42-0.17-0.65-0.28-0.89-0.35c-1.21-0.36-1.35-0.59-0.68-1.69
			c0.5-0.83,0.72-1.9,1.75-2.38c0.17-0.08,0.23-0.53,0.24-0.82c0.03-0.8,0.01-1.59,0.01-2.47c-0.17,0.03-0.4,0.06-0.62,0.1
			c-0.04-0.08-0.08-0.16-0.13-0.24c0.38-0.28,0.71-0.64,1.03-1c-0.47-0.35-0.71-0.98-0.5-1.57c-0.41,0.26-0.83,0.51-1.25,0.76
			c-0.23,0.14-0.75,0.12-0.92-0.05c-0.32-0.33-0.04-0.6,0.29-0.88c1.86-1.62,3.68-3.31,5.55-4.93c0.7-0.61,1.47-1.15,2.28-1.61
			c3.24-1.85,6.5-3.66,9.76-5.47c0.29-0.16,0.62-0.27,0.95-0.3c1.57-0.16,3.14-0.31,4.7-0.46c1.4-0.25,2.82-0.37,4.19-0.42
			c0.07,0,0.14-0.01,0.21-0.01c0.54-0.05,1.08-0.11,1.63-0.16c1-0.1,1.99-0.4,2.98-0.42c1.2-0.02,2.4,0.12,3.6,0.26
			c0.72,0.08,1.44,0.25,2.14,0.46c1.8,0.52,3.59,1.08,5.37,1.64c0.01,0,0.01,0.01,0.02,0.01c1.51,0.31,2.95,1.02,4.23,1.88
			c0.36,0.24,0.72,0.5,1.06,0.76c-0.05-0.12-0.1-0.23-0.15-0.35c0.96-0.17,0.86-0.99,1.06-1.66c0.08-0.27,0.34-0.48,0.52-0.72
			c0.22,0.21,0.59,0.4,0.62,0.64c0.09,0.67,0.06,1.36,0.05,2.05c0,0.22-0.07,0.45,0.06,0.74c0.13-0.22,0.25-0.44,0.5-0.87
			c0.21,0.62,0.36,1.04,0.48,1.38c-0.47,0.17-0.91,0.32-1.33,0.47c0.92,1.03,1.62,2.22,1.93,3.63c0.12,0.56,0.18,1.12,0.19,1.67
			c0.2-0.39,0.39-0.76,0.58-1.13c0.82,1.33,0.03,2.87,0.32,4.32c-0.38-0.63-0.28-1.55-0.96-1.97c-0.06,0.57-0.17,1.13-0.31,1.69
			c0.56,2.48-0.17,4.66-2.22,6.32c-1.07,0.87-2.21,1.65-3.37,2.4c-1.16,0.74-2.05,1.69-2.25,3.06c-0.19,1.26-0.77,2.06-2.02,2.29
			c-0.72,0.13-1.46,0.22-2.19,0.22c-1.03,0-2,0.04-2.98,0.55c-1.58,0.82-3.25,1.49-4.92,2.09c-0.94,0.34-1.98,0.42-2.98,0.62
			c-2.68,0.53-5.39,0.74-8.11,0.58c-1.55-0.09-3.1-0.26-4.91-0.42c0.75-0.53,1.33-0.95,1.91-1.35c1.39-0.94,2.78-1.87,4.16-2.82
			c0.24-0.17,0.42-0.43,0.64-0.64c0.7-0.68,1.4-1.37,2.52-1.13c0.16,0.03,0.34,0.02,0.5-0.02c0.56-0.15,1.12-0.29,1.68-0.44
			c0.36-0.2,0.73-0.4,1.09-0.61c0.2-0.11,0.4-0.23,0.6-0.34c1.27-0.82,2.52-1.69,3.93-2.26c1.57-0.63,3.23-0.79,4.9-0.99
			c-1.08,0.03-2.17,0.03-3.25-0.03c-1.32-0.07-2.63-0.28-3.95-0.42c-0.04-0.08-0.08-0.17-0.12-0.25c0.78-0.58,1.64-1.08,2.31-1.77
			c1.4-1.45,2.78-0.36,4.18-0.11c0.29,0.05,0.58,0.19,0.87,0.19c2-0.05,3.99-0.17,5.9-0.87c0.11-0.04,0.19-0.16,0.49-0.42
			c-0.56-0.1-0.91-0.21-1.27-0.22c-1.58-0.03-3.17,0.05-4.74-0.06c-0.91-0.06-1.8-0.41-2.85-0.67c0.31-1.28,1.36-1.94,2.24-2.74
			l0.03-0.01c0.98-1.73,2.4-3.03,3.97-4.21c0.47-0.35,0.98-0.81,1.16-1.33c0.27-0.77,0.75-1.12,1.44-1.4
			c0.51-0.2,0.97-0.52,1.45-0.78c-0.03-0.11-0.06-0.22-0.09-0.32c-0.38,0.06-0.81,0.02-1.14,0.19c-1.34,0.67-2.78,0.44-4.15,0.38
			c-1.11-0.05-1.77,0.36-2.43,1.1c-0.89,1-1.79,1.99-2.75,2.92c-0.26,0.26-0.73,0.31-1.1,0.45l-0.25-0.23
			c0.19-0.61,0.38-1.22,0.55-1.84c0.04-0.14,0.07-0.28,0.1-0.42c-0.39-0.41-0.58-1.02-0.26-1.65c1.07-2.18,2.76-4.25,5.15-4.99
			c-0.69-0.19-1.38-0.41-2.07-0.6c-0.19-0.05-0.39-0.09-0.59-0.12c-1.07-0.12-2.12-0.19-3.18-0.18c0.06,0.14,0.1,0.29,0.11,0.45
			c0.03,0.26,0,0.49-0.09,0.71c0.46-0.05,0.92-0.11,1.37-0.16l0.06,0.36c-0.7,0.24-1.39,0.48-2.09,0.71l0.01,0.19
			c0.29,0.07,0.58,0.13,0.89,0.2c-0.81,1.49-1.68,2.96-2.4,4.48c-0.58,1.23-0.99,2.54-1.48,3.81c-0.11,0.28-0.29,0.53-0.38,0.81
			c-0.11,0.36-0.33,0.81-0.21,1.1c0.22,0.54,0.07,0.85-0.35,1.09c-0.94,0.54-1.65,1.42-2.82,1.64c-0.65,0.12-1.23,0.61-1.84,0.94
			c-0.65-1.38-0.43-2.41,0.68-3.41c0.27-0.24,0.47-0.55,0.67-0.85c0.41-0.61,0.8-1.24,1.19-1.87c0.27-0.43,0.77-0.88,0.74-1.29
			c-0.11-1.33,0.94-1.82,1.58-2.62c0.62-0.77,1.1-1.65,1.61-2.49c0.26-0.43,0.51-0.87,0.79-1.38c-0.21-0.05-0.4-0.14-0.58-0.26
			c-0.53,0.19-1.06,0.38-1.58,0.56c-0.36,0.12-0.78,0.35-1.1,0.27c-0.59-0.15-1.15-0.38-1.81-0.65c-0.79,0.99-1.61,1.97-2.4,2.97
			c0.08,0.04,0.14,0.08,0.15,0.13c0.09,0.42,0.1,1.01-0.14,1.31c-1.16,1.48-2.41,2.88-3.61,4.32c-0.14,0.16-0.3,0.42-0.27,0.59
			c0.23,1.15-0.54,1.9-1.04,2.75c-0.06,0.42-0.08,0.85-0.07,1.29c0.05,1.83-2.79,1.82-2.83,0c-0.04-1.75,0.32-3.39,0.95-4.94
			c-0.01-0.82-0.4-1.19-1.16-1.21c-0.79-0.02-1.36,0.46-1.42,1.25c-0.13,1.61-0.11,3.24-0.39,4.82c-0.21,1.19-0.4,2.47-1.35,3.43
			c-0.22,0.22-0.33,0.58-0.46,0.89c-0.91,2.22-1.83,4.44-2.69,6.68c-0.31,0.82-0.49,1.71-0.65,2.58c-0.25,1.4-1.62,3.89-2.83,4.8
			c0.04-0.41-0.04-0.78,0.1-0.91c0.88-0.82,0.79-1.99,1.14-3c0.31-0.88,0.59-1.78,0.86-2.68c-1.07,2.19-2.25,4.3-3.47,6.32
			c-0.09,0.35-0.18,0.71-0.28,1.06c-0.53,1.84-1.7,3.1-3.42,3.92c-0.35,0.16-0.58,0.58-0.92,0.75c-0.34,0.17-0.76,0.17-1.16,0.26
			c-0.31-1.24-0.64-2.43-0.89-3.64C191.01,108.7,191.2,108.36,191.28,108.05z M213.84,94c1.08-1.21,2.13-2.46,3.25-3.62
			c0.3-0.31,0.83-0.41,1.28-0.55c0.14-0.04,0.43,0.08,0.48,0.2c0.05,0.12-0.05,0.44-0.16,0.5c-1.13,0.56-1.71,1.65-2.55,2.49
			c-0.49,0.5-1.3,0.64-1.65,1.35c-0.02,0.05-0.29-0.03-0.44-0.05L213.84,94z M219.46,96.24c0.51-1.05,2-1.35,3.21-0.54
			C221.48,95.91,220.49,96.07,219.46,96.24z M68.16,81.05c-0.73-0.63-1.19-1.42-1.46-2.19c-0.82-2.33-1.39-4.74-1-7.27
			c0.17-1.09,0.08-2.25,0.41-3.29c0.51-1.62,1.4-3.13,1.9-4.75c0.56-1.83,2.29-2.51,3.32-3.95c0.12,0.15,0.23,0.3,0.34,0.46
			c0.29-0.26,0.66-0.39,1.05-0.35c-0.22-0.65,0.04-1.15,0.76-1.45c1.31-0.56,2.55-1.34,4.08-1.29c0.67,0.02,1.35-0.24,2.02-0.33
			c1.69-0.22,3.11,0.61,4.61,1.16c0.21,0.08,0.45,0.09,0.68,0.13c-0.32,0.2-0.64,0.4-1.09,0.68c0.57,1.7,1.16,3.47,1.76,5.24
			c0.21,0.63,0.36,1.28,0.66,1.86c0.46,0.9,0.09,1.49-0.6,1.97c-0.59,0.41-0.68,0.86-0.32,1.45c0.26,0.43,0.5,0.87,0.74,1.31
			c0.37,0.69,1.03,1.25,0.86,2.19c-0.03,0.2,0.29,0.47,0.47,0.7c0.24,0.31,0.72,0.62,0.7,0.92c-0.08,1.83,0.79,3.44,1.12,5.16
			c0.2,1.06,0.08,2.19,0.09,3.29c0,0.47,0.03,0.94-0.05,1.4c-0.16,0.97-0.36,1.94-0.61,2.89c-0.03,0.13-0.54,0.3-0.63,0.22
			c-0.59-0.51-1.16-1.04-1.66-1.64c-0.5-0.6-0.86-1.3-1.34-1.92c-0.95-1.22-1.92-2.42-2.9-3.62c-0.24-0.06-0.47-0.19-0.68-0.44
			c-3.04-3.57-6.49-6.78-9.83-10.07c-0.06,0-0.11,0-0.17,0c-1,0.16-2.02-0.34-2.21-1.38c-0.18-0.99-0.66-1.03-1.43-0.72
			c-0.18,0.54-0.17,1.04,0.09,1.44c0.5-0.16,1.09-0.08,1.42,0.34c3.97,4.97,6.29,10.94,9.58,16.31c1.14,0.97,1.91,2.33,2.99,3.36
			c1.25,1.2,2.04,2.87,3.15,4.5c-1.43-0.32-2.63-0.54-3.81-0.86c-1.33-0.36-2.47-0.12-3.57,0.72c-0.16,0.12-0.41,0.12-0.68,0.09
			c-0.4,0.27-0.92,0.38-1.46,0.13c-0.61-0.28-1.22-0.57-1.8-0.89c-0.78-0.15-1.26-0.53-1.62-1.02c-1-0.73-1.9-1.59-2.6-2.67
			c-0.32-0.48-0.29-0.96-0.07-1.33c-0.16-0.7-0.33-1.39-0.47-2.09c-0.06-0.32-0.12-0.71,0.01-0.99
			C69.5,83.12,69.18,81.92,68.16,81.05z M74.13,72.6c-0.22,0.2-0.42,0.4-0.45,0.42c-0.83-0.74-1.52-1.36-2.22-1.98
			c0.03-0.05,0.05-0.09,0.08-0.14C72.37,71.44,73.19,71.98,74.13,72.6z M70.96,107.97c-0.1-0.14-0.25-0.27-0.3-0.43
			c-0.62-1.82-1.68-3.5-1.62-5.54c0.02-0.82-0.23-1.64-0.28-2.46c-0.01-0.25,0.23-0.52,0.36-0.78c0.08,0.04,0.17,0.07,0.25,0.11
			c0.59,3.01,1.18,6.02,1.77,9.03C71.08,107.92,71.02,107.94,70.96,107.97z M73.44,111.05c-0.48-1.69-1.01-3.33-1.41-5
			c-0.31-1.26-0.47-2.55-0.7-3.83c-0.23-1.3-0.49-2.6-0.68-3.91c-0.17-1.16-0.24-2.33-0.4-3.48c-0.18-1.27-0.42-2.52-0.63-3.78
			c-0.03-0.18-0.03-0.37-0.04-0.57c1.16,0.02,1.33,0.17,1.14,1.19c-0.1,0.54,0.07,0.82,0.53,1.04c1.33,0.62,2.75,1.12,3.94,1.94
			c1.38,0.95,2.88,1.42,4.4,2.01c2.98,1.17,5.81,2.71,8.68,4.15c1.13,0.56,2.22,1.22,3.28,1.9c0.34,0.22,0.53,0.66,0.83,0.95
			c0.16,0.15,0.42,0.21,0.52,0.25c0.28,1.83,1.46,2.94,2.58,4.25c-0.23,0.58-0.24,1.17,0.91,0.93c-0.24,0.27-0.39,0.45-0.54,0.62
			c0.24,0.17,0.49,0.34,0.79,0.55c-0.03,0.18-0.09,0.47-0.15,0.82c0.4,0.18,0.68,0.32,0.92,0.84c0.52,1.1,0.7,2.47,1.87,3.22
			c0.12,0.08,0.13,0.34,0.19,0.51c0.06,0.18,0.08,0.45,0.21,0.51c0.9,0.43,1.08,1.34,1.49,2.1c0.26,0.5,0.58,0.98,0.93,1.42
			c0.63,0.79,1.3,1.55,2.04,2.43c-0.65,0.23-1.01,0.04-1.21-0.45c-0.29-0.7-0.82-1.1-1.51-1.38c-0.83-0.33-1.7-0.65-2.13-1.57
			c-0.08-0.17-0.46-0.3-0.67-0.27c-1.07,0.15-1.89-0.26-2.62-0.98c-0.09-0.09-0.19-0.24-0.3-0.26c-2.03-0.22-3.25-1.86-4.89-2.76
			c-1.58-0.87-3.22-1.67-4.89-2.32c-0.57-0.22-1.49-0.12-1.99,0.22c-1.67,1.12-3.16,0.57-4.71-0.17c-1.51-0.72-3.1-1.2-4.78-1.3
			C74.06,110.85,73.71,111,73.44,111.05z"/>
		<path class="st0" d="M172.58,123.4c0.07-0.01,0.14-0.01,0.2-0.02c-0.06-0.02-0.11-0.05-0.17-0.07
			C172.6,123.34,172.59,123.37,172.58,123.4z"/>
		<path class="st0" d="M150.85,196.33c0.49-0.11,0.97-0.29,1.44-0.51c-0.46,0.15-0.93,0.29-1.4,0.41
			C150.87,196.26,150.86,196.3,150.85,196.33z"/>
		<path class="st0" d="M115.68,203.54c0.46-0.04,0.93-0.08,1.39-0.12c2.68-0.19,5.37-0.31,8.05-0.53c0-0.01,0-0.03,0-0.04
			c0-0.18,0.14-0.28,0.3-0.3c1.5-0.2,3.02-0.48,4.5-0.85c0.72-0.23,1.43-0.47,2.14-0.72c-2.38,0.4-4.78,0.7-7.18,0.92
			c-2.93,0.27-5.88,0.42-8.82,0.49c-0.18,0.23-0.43,0.47-0.65,0.71c0.02,0.01,0.04,0.02,0.07,0.02
			C115.66,203.19,115.75,203.38,115.68,203.54z"/>
		<path class="st0" d="M135.11,201.03c0.14-0.05,0.27-0.1,0.41-0.15c-1.35,0.43-2.7,0.84-4.07,1.19c0.45-0.09,0.89-0.18,1.34-0.28
			c0.71-0.16,1.41-0.35,2.12-0.53C134.93,201.17,134.99,201.08,135.11,201.03z"/>
		<path class="st0" d="M139.94,199.99c0.08,0.01,0.16,0.01,0.23,0.03c0.09-0.04,0.18-0.07,0.27-0.12c0.09-0.04,0.17-0.08,0.25-0.13
			c0.05-0.03,0.1-0.06,0.13-0.08c-0.24,0.08-0.49,0.17-0.73,0.25C140.04,199.95,139.99,199.97,139.94,199.99z"/>
		<path class="st0" d="M108.04,203.01c0.02,0.03,0.03,0.07,0.04,0.1c0.02,0.02,0.04,0.05,0.05,0.08c0.18-0.11,0.41-0.17,0.65-0.23
			C108.54,202.98,108.29,203,108.04,203.01z"/>
		<path class="st0" d="M112.4,203.75c-0.01,0.02-0.01,0.03-0.02,0.05c0.02,0,0.03,0,0.05,0c0.69-0.04,1.45-0.11,2.13-0.33
			c-0.03-0.01-0.07-0.01-0.1-0.02c-0.47,0.15-0.97,0.19-1.48,0.2C112.78,203.69,112.59,203.72,112.4,203.75z"/>
		<path class="st1" d="M230.42,96.29c-0.18,0-0.36-0.01-0.54-0.01c-0.35,0.04-0.69,0.09-1.04,0.15c0.6,0.06,1.22,0.11,1.75-0.06
			c0.08-0.03,0.16-0.05,0.24-0.07C230.69,96.3,230.55,96.29,230.42,96.29z"/>
		<path class="st1" d="M234.97,95.57c0,0.22-0.14,0.45-0.37,0.49c-0.38,0.07-0.76,0.12-1.14,0.15c0.41,0.05,0.81,0.11,1.22,0.15
			c0.36,0.04,0.72,0.07,1.15-0.05C235.62,95.94,235.31,95.72,234.97,95.57z"/>
		<path class="st1" d="M234.21,92.76c-0.28,0-0.58-0.06-0.84,0.01c-0.28,0.08-0.55,0.21-0.83,0.32
			C233.1,93,233.66,92.89,234.21,92.76z"/>
		<path class="st1" d="M216.64,108.71c-1.66-0.53-3.28-0.46-4.9,0.08C213.38,108.79,215.01,108.76,216.64,108.71z"/>
		<path class="st1" d="M205.43,88.09c-0.12,0.68-0.27,1.35-0.43,2.02c0.06-0.06,0.11-0.12,0.17-0.17c0.36-0.35,0.66-0.77,0.92-1.19
			c0.11-0.18,0.03-0.47,0.03-0.71C205.91,88.07,205.63,88.04,205.43,88.09z"/>
		<path class="st0" d="M121.74,242.12c-0.04-0.13-0.16-0.25-0.38-0.35c-0.23-0.1-0.48-0.16-0.76-0.24
			c-0.16,0.35-0.28,0.63-0.37,0.83C120.74,242.28,121.24,242.2,121.74,242.12z"/>
		<path class="st0" d="M90.52,242.54c-0.84-0.37-1.67-0.73-2.45-1.07c-0.42,0.37-0.76,0.67-1.16,1.02
			C88.11,242.5,89.32,242.52,90.52,242.54z"/>
		<path class="st1" d="M230.52,85.96c0.95-0.77,1.98-1.17,3.22-1.43c1.12-0.24,2.2-0.45,3.34-0.4c0.23,0.01,0.53,0.01,0.66,0.15
			c0.38,0.38,0.69,0.84,1.02,1.26c-0.44,0.3-0.85,0.76-1.33,0.86c-1.94,0.38-3.9,0.68-5.86,0.95c-0.88,0.12-1.28-0.45-1.09-1.38
			L230.52,85.96z"/>
		<path class="st0" d="M133.62,97.14c0.15-0.19,0.3-0.39,0.44-0.57c-0.14-0.83-1.26-1.14-1.07-2.13c0.01-0.03-0.39-0.14-0.59-0.21
			c-0.14,0.66,0.14,1.18,0.43,1.7C133.09,96.33,133.36,96.73,133.62,97.14z"/>
		<path class="st0" d="M234.01,199.12c1.02,0.29,2.07-0.04,3.22,0.48c1.1,0.49,1.8,1.53,2.96,1.83c0.58,0.15,1.18,0.24,1.76,0.41
			c0.69,0.2,1.4,0.38,2.05,0.68c0.54,0.26,0.92,0.63,0.78,1.43c-0.14,0.77,0.18,1.56,1.12,1.76c1.46,0.32,2.2,1.31,2.67,2.64
			c0.11,0.3,0.4,0.61,0.69,0.76c1.05,0.57,1.99,1.22,2.61,2.29c0.5,0.87,0.47,1.61-0.2,2.36c-0.14,0.15-0.32,0.29-0.37,0.47
			c-0.31,0.98-1.12,0.92-1.71,0.6c-1.31-0.72-2.68-0.49-4.05-0.52c-0.46-0.01-0.92,0-1.37,0c-0.11-0.99,0.46-1.26,1.1-1.31
			c-0.24-0.88-0.47-1.75-0.73-2.61c-0.06-0.19-0.25-0.33-0.32-0.51c-0.13-0.33-0.36-0.71-0.28-0.99c0.07-0.23,0.53-0.45,0.83-0.47
			c0.68-0.03,1.36,0.06,2.06-0.01c-0.57-0.67-1.14-1.25-2.05-1.31c-0.25-0.02-0.49-0.21-0.74-0.3c-1.23-0.49-2.63-0.74-3.64-1.51
			c-1.2-0.93-2.65-0.41-3.79-1.11c-0.87-0.53-1.7-1.16-2.47-1.84c-0.25-0.22-0.34-0.73-0.34-1.11
			C233.81,200.57,233.93,199.92,234.01,199.12z"/>
		<path class="st0" d="M244.37,220.11c0.08-1.12,0-2.2,0.26-3.18c0.41-1.54,2.53-1.89,3.66-0.78c0.54,0.53,1.28,0.86,1.94,1.24
			c0.44,0.25,0.93,0.4,1.35,0.67c0.29,0.19,0.49,0.52,0.86,0.93c-0.48,0.06-0.68,0.13-0.87,0.1c-1.41-0.21-2.51,0.16-3.4,1.38
			c-0.34,0.47-0.42,0.86-0.44,1.35c-0.04,0.97-0.41,1.3-1.34,1.07c-1.15-0.3-2.31-0.63-3.41-1.07c-0.39-0.16-0.78-0.65-0.89-1.07
			c-0.22-0.78,0.23-1.13,1.02-0.94C243.6,219.92,244.07,220.04,244.37,220.11z"/>
		<path class="st0" d="M225.29,187.01c0.65,0.32,1.3,0.64,1.96,0.96c1.04,0.51,2.09,1,3.12,1.52c0.2,0.1,0.37,0.27,0.56,0.41
			c0.57,0.4,1.11,0.85,1.7,1.2c0.61,0.36,1.07,0.78,1.24,1.51c0.04,0.18,0.36,0.36,0.58,0.43c0.93,0.27,1.43,0.95,1.69,1.81
			c0.07,0.24-0.01,0.68-0.18,0.8c-0.18,0.13-0.59,0.06-0.84-0.05c-0.26-0.11-0.46-0.38-0.69-0.58c-0.58-0.49-1.27-0.69-1.96-0.97
			c-0.82-0.33-1.59-1.05-2.12-1.79c-0.9-1.28-2.06-2.15-3.42-2.84c-0.56-0.28-1.14-0.61-1.59-1.03c-0.27-0.25-0.31-0.74-0.45-1.12
			C225.03,187.19,225.16,187.1,225.29,187.01z"/>
		<path class="st0" d="M224.78,218.03c0.47,0.65,0.8,1.1,1.03,1.41c1.13-0.23,2.22-0.46,3.31-0.66c0.65-0.12,1.1,0.14,1.32,0.8
			c0.17,0.51,0.39,1.01,0.6,1.5c0.38,0.87,0.03,1.64-0.89,1.79c-0.56,0.09-1.21,0.19-1.69-0.01c-1.29-0.54-2.52-1.22-3.76-1.88
			c-0.17-0.09-0.36-0.38-0.34-0.56C224.44,219.71,224.59,219.02,224.78,218.03z"/>
		<path class="st0" d="M173.22,160.98c2.16-0.26,13.9,3.49,14.75,4.69c-1.51,0.21-2.96,0.33-4.23-0.7c-0.1-0.08-0.24-0.13-0.36-0.13
			c-2.19-0.06-3.99-1.5-6.13-1.76c-0.45-0.06-0.89-0.25-1.34-0.27C174.7,162.74,173.99,161.96,173.22,160.98z"/>
		<path class="st0" d="M240.31,196.01c0.79,1.14,1.52,2.23,2.81,2.91c-1.5,0.26-3.35-0.92-3.56-2.23
			C239.46,196.12,239.76,195.81,240.31,196.01z"/>
		<path class="st0" d="M184.21,170.03c-1.02,0-1.96,0.01-2.89,0c-0.79-0.01-0.75-0.53-0.69-1.16
			C181.84,169.37,183.3,168.88,184.21,170.03z"/>
		<path class="st0" d="M180.02,169.37c-0.57,0-1.14,0-1.71,0c-0.09-0.35-0.17-0.66-0.29-1.12c0.75,0.24,1.43,0.46,2.11,0.67
			C180.09,169.07,180.05,169.22,180.02,169.37z"/>
		<path class="st0" d="M215.88,215.56c0.55,0.24,1.11,0.47,1.66,0.71C216.06,216.89,216.06,216.89,215.88,215.56z"/>
		<path class="st0" d="M95.55,164.42c-0.94,0.01-1.88,0.04-2.83,0.04c-0.53,0-1.15-0.21-1.58-0.01c-1.03,0.48-2.11,0.57-3.2,0.7
			c-0.63,0.07-1.28,0.07-1.9,0.2c-1.64,0.32-3.29,0.63-4.9,1.07c-1.16,0.31-2.29,0.76-3.37,1.28c-1.18,0.56-2.21,1.5-3.43,1.88
			c-1.66,0.52-2.29,1.54-2.35,3.14c-0.01,0.27-0.07,0.53-0.08,0.64c-0.02,1.25,1.03,2.67,2.02,2.76c1.39,0.12,2.15,0.02,2.63-1.76
			c0.33-1.22,0.64-2.59,2.26-2.87c0.15-0.03,0.26-0.21,0.4-0.29c2.63-1.55,5.36-2.77,8.52-2.63c1.13,0.05,2.27,0.03,3.38-0.1
			c1.39-0.16,2.76-0.48,4.14-0.71c0.84-0.14,1.65-1.01,1.7-1.85C97.03,164.81,96.63,164.41,95.55,164.42z"/>
		<path class="st0" d="M90.78,185.54c-0.33-0.03-0.66-0.01-0.97-0.09c-0.24-0.06-0.45-0.25-0.67-0.39c0.15-0.26,0.26-0.69,0.47-0.74
			c1.87-0.46,3.7-0.76,5.68-0.24c1.27,0.34,2.72-0.02,4.09,0.01c1.67,0.04,3.52-0.18,4.77,1.16c1.13,1.21,2.34,1.04,3.65,0.78
			c0.51-0.1,0.97-0.05,1.03,0.45c0.04,0.26-0.36,0.78-0.64,0.86c-1.29,0.33-2.6,0.66-3.92,0.78c-2.77,0.26-5.55,0.5-8.33,0.55
			c-1.88,0.04-3.78-0.05-5.65-0.56c-1.13-0.31-2.36-0.3-3.27-1.11c-0.28-0.25-0.4-0.9-0.29-1.3c0.06-0.25,0.67-0.37,1.04-0.51
			c0.09-0.03,0.27,0.08,0.34,0.17c0.15,0.21,0.24,0.64,0.38,0.65c0.75,0.07,1.5,0.03,2.26,0.03
			C90.76,185.88,90.77,185.71,90.78,185.54z"/>
		<path class="st0" d="M164.57,176.74c-0.87-0.36-1.57-0.58-2.19-0.93c-0.2-0.11-0.22-0.55-0.32-0.85c0.27-0.04,0.64-0.2,0.81-0.09
			C163.48,175.32,164.55,175.32,164.57,176.74z"/>
		<path class="st0" d="M156.68,177.42c0.07-0.29,0.14-0.58,0.2-0.86c0.81-0.09,1.17,0.26,1.21,1.07c-0.55-0.09-0.99-0.16-1.43-0.23
			L156.68,177.42z"/>
		<path class="st0" d="M134.43,215.67c-0.27,0.22-0.53,0.6-0.82,0.63c-2.51,0.22-4.78,1.38-7.25,1.74c-0.63,0.09-1.2,0.52-1.86,0.83
			c0.26,0.07,0.55,0.25,0.81,0.22c1.36-0.18,2.72-0.36,4.06-0.65c1.65-0.36,3.28-0.84,4.92-1.27c0.13-0.03,0.28-0.04,0.37-0.12
			c1.53-1.35,3.51-1.37,5.33-1.88c0.85-0.24,1.58-0.92,2.55-0.68c1.57-1.5,3.77-1.37,5.6-2.19c0.09-0.04,0.23-0.02,0.28-0.08
			c1.2-1.45,3.07-1.77,4.64-2.51c1.46-0.69,3.2-0.96,4.89-0.47c0.9,0.26,1.54,1.53,1.08,2.37c-0.31,0.56-0.8,1.14-1.35,1.43
			c-1.39,0.72-2.79,1.41-4.39,1.71c-1.63,0.3-3.19,0.99-4.78,1.51c-0.63,0.21-1.26,0.43-1.89,0.64c-1.89,0.64-3.56,1.64-5.18,2.8
			c-0.89,0.64-1.94,1.04-2.93,1.53c-2.95,1.47-5.94,2.81-9.15,3.66c-1.32,0.35-2.55,1.04-3.84,1.49c-1.13,0.39-2.29,0.75-3.46,0.96
			c-1.44,0.26-2.92,0.46-4.38,0.46c-1.07,0-2.15-0.35-3.21-0.62c-0.23-0.06-0.38-0.44-0.61-0.74c-0.2,0.11-0.4,0.29-0.59,0.29
			c-0.25,0-0.49-0.14-0.74-0.22c0.16-0.23,0.29-0.62,0.5-0.66c1.11-0.24,2.25-0.37,3.36-0.59c0.37-0.07,0.71-0.31,1.06-0.47
			c-0.17-0.29-0.3-0.62-0.51-0.88c-0.6-0.75-0.52-2.13,0.26-3.43c-1.53-0.36-3-0.05-4.47,0.17c-0.59,0.09-1.18,0.16-1.77,0.21
			c-1.34,0.12-2.68,0.19-4.02,0.32c-1.35,0.13-2.7,0.32-4.05,0.45c-0.99,0.1-2,0.1-2.99,0.21c-2.77,0.31-5.53,0.68-8.3,0.94
			c-0.63,0.06-1.3-0.25-1.95-0.31c-1-0.09-2.01-0.1-3.01-0.14c-0.97-0.03-1.95,0.02-2.9-0.1c-0.41-0.05-0.88-0.37-1.12-0.72
			c-0.1-0.15,0.35-0.65,0.51-1.01c0.64-1.4,1.9-1.02,3.03-1.09c1.33-0.07,2.66-0.23,4-0.35c0.74-0.06,1.49-0.24,2.2-0.15
			c1.85,0.24,3.53-0.26,5.18-0.96c2.45-1.05,5.02-1.51,7.67-1.7c1.17-0.08,2.33-0.29,3.48-0.5c1.94-0.35,3.88-0.72,5.81-1.14
			c1.67-0.36,3.31-0.87,4.99-1.2c1.52-0.29,3.06-0.53,4.6-0.6c2.74-0.11,5.25-1.02,7.75-2.01c1.36-0.54,2.78-0.92,4.17-1.37
			c0.12-0.04,0.24-0.11,0.36-0.17c1.59-0.9,3.28-1.49,5.1-1.72c0.29-0.04,0.55-0.24,0.84-0.34c1.07-0.37,2.14-0.74,3.21-1.1
			c0.06-0.02,0.14-0.01,0.2-0.04c2.22-1.29,4.63-2.12,7.08-2.84c1.47-1.58,3.82-1.69,5.35-3.18c0.13-0.13,0.36-0.15,0.55-0.2
			c1.32-0.33,2.6-0.8,3.54-1.82c0.75-0.81,1.67-0.55,2.44-0.36c0.72,0.18,0.93,0.99,0.95,1.74c0.01,0.2,0.01,0.4,0.02,0.61
			c0.09,1.9,0.07,1.84-1.73,2.38c-2.08,0.63-4.12,1.34-5.9,2.72c-0.88,0.68-2.03,1.02-3.08,1.48c-0.76,0.33-1.54,0.61-2.39,0.94
			c-0.24,1.03-1.36,1.01-2.18,1.38c-0.34,0.15-2.13,1.31-2.47,1.55c-0.44,0.31-0.99,0.48-1.5,0.69c-0.15,0.06-0.42-0.01-0.49,0.08
			c-0.74,1.05-1.92,0.94-2.97,1.2c-0.1,0.02-0.24,0.04-0.28,0.1c-0.64,1.28-2.04,0.88-3.04,1.37c-1.03,0.5-2.15,0.83-3.24,1.21
			c-0.65,0.22-1.33,0.38-2,0.57c0-0.39,0-0.78,0-1.42c-1.05,0.26-1.96,0.48-2.88,0.71c-1.19,0.32-2.37,0.65-3.56,0.95
			c-1.37,0.33-2.74,0.62-4.11,0.95c-0.23,0.06-0.44,0.24-0.66,0.36c0.02,0.11,0.04,0.21,0.06,0.32c0.62-0.06,1.25-0.08,1.85-0.2
			c1.04-0.21,2.05-0.54,3.09-0.74c0.8-0.15,1.86,0.42,2.23-0.86c0.02-0.07,0.26-0.06,0.36-0.14c0.25-0.2,0.48-0.43,0.72-0.65
			c0.73,0.84,1.53,0.23,2.08,0.1C133.96,215.32,134.2,215.49,134.43,215.67z M123.32,219.25c-0.02-0.13-0.04-0.26-0.06-0.39
			c-1.29,0.3-2.58,0.61-3.87,0.91C120.76,219.9,122.14,220.15,123.32,219.25z"/>
		<path class="st0" d="M101.89,233.89c-0.76-0.32-1.33-0.23-1.76,0.65c-0.37,0.76-1.13,0.56-1.79,0.31
			c-0.59-0.22-1.13-0.31-1.26,0.63c-0.09-0.05-0.18-0.09-0.26-0.14c0.08-0.52,0.2-1.04,0.23-1.57c0.02-0.25-0.12-0.51-0.18-0.77
			c-0.21,0.15-0.5,0.26-0.62,0.47c-1.08,1.85-1.09,1.9-3.15,1.33c-0.83-0.23-1.57-0.73-2.38-1.03c-0.26-0.1-0.73-0.08-0.91,0.09
			c-1.79,1.69-2.41,1.11-4.07,0.28c-1.46-0.73-2.8-1.82-4.57-1.82c-0.17,0-0.49-0.4-0.47-0.42c0.34-0.45-0.09-1.32,0.8-1.48
			c0.08-0.01,0.18-0.27,0.17-0.4c-0.09-0.86,0.3-1.03,1.09-0.94c0.36,0.04,0.84-0.19,1.14-0.44c0.77-0.67,0.85-0.69,1.2,0.23
			c0.21,0.56,0.52,0.93,1.2,0.8c0.15-0.03,0.41-0.02,0.47,0.06c0.67,1,2.02,0.56,2.79,1.35c0.17,0.17,0.49,0.18,0.71,0.09
			c0.32-0.14,0.64-0.31,0.98-0.41c0.54-0.17,1.11-0.26,1.64-0.45c2.07-0.72,2.78-0.44,3.69,1.51c0.06-0.1,0.14-0.18,0.14-0.25
			c0.07-1.62,0.99-2.52,2.61-2.66c0.62-0.05,1.21-0.34,1.83-0.44c0.26-0.04,0.68,0.03,0.8,0.2c0.37,0.56,0.64,1.19,0.92,1.8
			C103.46,231.78,103.25,232.52,101.89,233.89z"/>
		<path class="st0" d="M76.39,233.13c0.19-0.3,0.36-0.58,0.51-0.83c-0.29-0.87-0.89-0.95-1.62-0.72c-1.33,0.43-2.52,0.32-3.44-0.88
			c-0.08-0.1-0.21-0.19-0.33-0.22c-1.02-0.25-2.04-0.52-3.08-0.73c-0.51-0.1-0.76-0.28-0.46-0.8c0.17-0.29,0.28-0.65,0.53-0.85
			c0.85-0.7,1.35-1.48,0.74-2.57c1.16-0.48,1.47,0.26,1.72,0.85c1.14,0.08,2.17,0.12,3.2,0.23c0.27,0.03,0.61,0.17,0.78,0.37
			c0.71,0.88,1.66,0.86,2.57,0.61c1.31-0.36,2.05,0.34,2.66,1.28c0.51,0.79,0.36,1.65-0.19,2.35c-0.54,0.7-1.23,1.28-1.85,1.92
			C77.57,233.72,77.02,233.55,76.39,233.13z"/>
		<path class="st0" d="M54.41,213.82c-0.55-0.25-1.33-0.33-2.04-0.14c0.02,0.01,0.03,0.02,0.05,0.03
			C53.09,213.75,53.75,213.79,54.41,213.82z"/>
		<path class="st0" d="M152.6,216.68c0.36,0.06,0.72,0.13,1.37,0.24c-0.37,0.35-0.65,0.73-0.76,0.69c-0.3-0.12-0.52-0.42-0.78-0.65
			C152.49,216.87,152.54,216.77,152.6,216.68z"/>
		<path class="st1" d="M101.38,79.2c-0.68-0.22-0.96-0.72-1.34-1.13c-0.81-0.88-0.33-2.29-1.45-2.92c-0.09-0.05-0.13-0.23-0.17-0.36
			c-0.66-2.04-1.32-4.08-1.99-6.11c-0.25-0.76-1.03-1.4-0.42-2.49c0.28,0.23,0.67,0.39,0.76,0.65c1.05,2.81,2.04,5.65,3.07,8.47
			c0.37,1.02,0.83,2.01,1.23,3.01C101.2,78.61,101.28,78.91,101.38,79.2z"/>
		<path class="st0" d="M217.12,163.16c-0.68-0.88-1.56-1.72-2.53-2.23c-2.98-1.55-6.05-2.93-9.08-4.39
			c-1.27-0.61-2.48-1.41-3.81-1.77c-1.43-0.39-2.98-0.38-4.48-0.51c-1.14-0.1-1.83,0.7-1.62,1.82c0.29,1.58,0.97,2.15,2.58,2.31
			c0.99,0.1,2,0.23,2.95,0.53c1.37,0.43,2.66,1.07,4.02,1.55c2.03,0.71,4.17,1.08,5.93,2.52c0.98,0.8,2.26,1.25,3.42,1.83
			c0.29,0.15,0.62,0.21,0.84,0.28c0.39-0.05,0.66-0.07,0.92-0.13C217.39,164.71,217.8,164.04,217.12,163.16z"/>
	</g>
</g>
</svg>
