<?xml version="1.0" encoding="utf-8"?>
<!-- Generator: Adobe Illustrator 27.0.0, SVG Export Plug-In . SVG Version: 6.00 Build 0)  -->
<svg version="1.1" id="Layer_1" xmlns="http://www.w3.org/2000/svg" xmlns:xlink="http://www.w3.org/1999/xlink" x="0px" y="0px"
	 viewBox="0 0 300 300" style="enable-background:new 0 0 300 300;" xml:space="preserve">
<style type="text/css">
	.st0{fill:#5B3023;}
	.st1{fill:#A7D38D;}
	.st2{fill:#C49D9A;}
</style>
<g id="MjP278_00000070080972706782189320000001079356705149237680_">
	<g>
		<path class="st2" d="M220.32,224.12c-0.63-2.03-1.18-4.08-1.94-6.06c-0.74-1.93-1.66-3.78-2.54-5.65
			c-1.09-2.31-2.11-4.65-3.34-6.88c-1.55-2.82-3.72-5.14-6.55-6.74c-0.19-0.11-0.34-0.23-0.44-0.35c-0.33-0.22-0.63-0.48-0.93-0.74
			c-0.13-0.11-0.25-0.23-0.38-0.34c-0.01,0.03-0.01,0.06-0.02,0.09c-0.94-0.53-1.87-0.99-2.73-1.56c-0.73-0.48-1.38-1.08-2.05-1.65
			c-0.62-0.53-1.17-0.34-1.64,0.18c-0.46,0.51-0.35,1.08,0.08,1.53c0.97,1.03,1.94,2.05,2.98,3c0.46,0.41,1.13,0.58,1.65,0.94
			c0.17,0.12,0.38,0.33,0.5,0.52c0.36,0.2,0.7,0.43,1.01,0.7c0.12,0.1,0.23,0.21,0.34,0.32c0.01-0.04,0.02-0.09,0.03-0.13
			c2.93,1.26,4.78,3.43,6.19,6.08c0.85,1.6,2.01,3.03,2.79,4.66c0.95,1.98,1.63,4.09,2.44,6.14c0.17,0.42,0.34,0.85,0.56,1.24
			c0.62,1.07,0.64,2.21,0.5,3.38c-0.05,0.38-0.08,0.7-0.56,0.92c-0.33,0.15-0.45,0.76-0.66,1.17c-0.07-0.07-0.15-0.11-0.14-0.14
			c0.25-1.25-0.54-2.07-1.22-2.91c-1.12-1.39-2.35-2.7-3.39-4.15c-1.45-2.03-2.64-4.24-4.15-6.22c-1.15-1.51-1.62-3.46-3.17-4.69
			c-0.1-0.08-0.12-0.27-0.12-0.47c-0.29-0.31-0.57-0.63-0.84-0.97c-0.23-0.29-0.45-0.61-0.64-0.95c-0.05,0.02-0.1,0.05-0.15,0.07
			c-0.29-0.37-0.58-0.75-0.86-1.12c-1.28-1.66-2.56-3.32-3.84-4.98c-0.14-0.18-0.31-0.44-0.48-0.46c-1.65-0.14-1.49-1.68-2.06-2.65
			c-0.11-0.19-0.08-0.46-0.2-0.65c-0.77-1.28-0.99-2.69-1.08-4.14c-0.01-0.23-0.13-0.6-0.26-0.64c-0.92-0.23-1.01-1.06-1.18-1.72
			c-0.24-0.9-0.5-1.61-1.59-1.67c-0.27-0.02-0.51-0.39-0.79-0.46c-0.38-0.09-0.88-0.17-1.17,0c-0.23,0.14-0.37,0.71-0.29,1.03
			c0.18,0.71,0.51,1.37,0.79,2.06c1.33,3.31,2.72,6.6,3.97,9.94c0.3,0.79,0.19,1.73,0.27,2.61c0.13,1.38,0.43,2.77,0.34,4.14
			c-0.08,1.27,0.18,2.46,0.5,3.63c0.05,0.1,0.09,0.21,0.14,0.31c0.41,0.91,0.81,1.82,1.2,2.74c0.37,0.89,0.68,1.81,1.11,2.67
			c0.15,0.3,0.31,0.59,0.48,0.88c0.02,0,0.04,0,0.06,0.01c0.02,0.06,0.03,0.12,0.05,0.18c0.51,0.88,1.06,1.75,1.54,2.65
			c0.25,0.04,0.48,0.23,0.67,0.54c0.48,0.8,0.98,1.6,1.55,2.33c1.02,1.32,2.05,2.65,3.18,3.87c0.54,0.58,1.28,1.05,2.02,1.38
			c2.38,1.05,4.79,2.04,7.23,2.97c0.67,0.26,1.47,0.36,2.17,0.26c0.52-0.08,0.97-0.61,1.45-0.94c-0.01-0.11-0.03-0.21-0.04-0.32
			c-0.44-0.19-0.87-0.41-1.32-0.57c-1.35-0.49-2.72-0.94-4.07-1.45c-0.29-0.11-0.5-0.42-0.74-0.66c-0.31-0.31-0.63-0.63-0.9-0.97
			c-0.21-0.27-0.43-0.58-0.51-0.91c-0.15-0.63-0.44-0.93-1.1-1.19c-0.8-0.31-1.49-1-2.1-1.64c-1.09-1.13-2.13-2.31-3.09-3.55
			c-0.56-0.73-1.01-1.55-1.46-2.36c-0.07-0.06-0.12-0.16-0.16-0.23c-0.18-0.33-0.34-0.67-0.48-1.02c-0.27-0.66-0.6-1.29-0.89-1.93
			c-0.02,0.05-0.03,0.1-0.05,0.14c-0.87-0.82-1.28-1.77-1.67-2.71c-0.3-0.72-0.48-1.5-0.67-2.26c-0.26-1.06-0.47-2.13-0.73-3.19
			c-0.21-0.87-0.46-1.74-0.7-2.6c-0.13-0.48-0.27-0.95-0.4-1.43c0.07-0.04,0.14-0.07,0.21-0.11c0.21,0.23,0.45,0.44,0.63,0.7
			c1.47,2.14,2.94,4.29,4.38,6.45c0.14,0.21,0.3,0.52,0.3,0.75c0.28,0.36,0.55,0.71,0.82,1.08c0.15,0.21,0.31,0.43,0.45,0.66
			c0.11-0.09,0.23-0.18,0.34-0.27c0.14,0.28,0.25,0.58,0.41,0.84c0.63,1.01,1.26,2.03,1.94,3.01c1.41,2.02,2.84,4.02,4.29,6
			c1.1,1.5,2.24,2.98,3.41,4.43c0.58,0.72,1.23,1.41,1.94,2.01c0.71,0.61,1.44,0.29,1.71-0.63c0.05-0.18,0.22-0.32,0.32-0.49
			c0.27-0.41,0.51-0.84,0.8-1.23c0.13-0.17,0.37-0.26,0.55-0.38c0.11,0.17,0.3,0.33,0.32,0.51c0.05,0.39,0.03,0.79,0,1.19
			c-0.06,0.83,0.22,1.17,1.08,1.19c0.78,0.01,0.91-0.53,0.9-1.16C220.41,224.62,220.39,224.36,220.32,224.12z M196.93,210.85
			c0.78,1.27,1.57,2.54,2.33,3.82c0.05,0.08-0.09,0.28-0.18,0.56c-0.86-1.49-1.64-2.85-2.43-4.21
			C196.74,210.96,196.83,210.9,196.93,210.85z M196,207.39c0.2,0.48,0.4,0.96,0.6,1.44c-0.13,0.05-0.26,0.09-0.39,0.14
			c-0.13-0.5-0.26-1-0.39-1.5C195.88,207.44,195.94,207.41,196,207.39z"/>
		<path class="st2" d="M225.95,201.28c-1.17-2.3-2.35-4.59-3.54-6.88c-0.93-1.8-2.34-3.26-3.87-4.47c-1.24-0.98-2.86-1.57-4.39-2.06
			c-1.93-0.61-3.95-0.95-5.93-1.4c-0.35-0.08-0.53-0.22-0.55-0.53c-0.33-0.07-0.65-0.16-0.97-0.27c0,0.04-0.01,0.07-0.01,0.11
			c-0.58-0.19-1-0.45-1.42-0.43c-0.52,0.02-1.04,0.24-1.56,0.39c-0.36,0.11-0.77,0.4-0.81-0.32c0-0.05-0.23-0.09-0.45-0.17
			c0.19,0.97,0.46,1.66,1.42,1.99c0.84,0.28,1.23,0.46,1.4,0.84c0.58,0.29,1.17,0.56,1.78,0.78c0.1-0.3,0.28-0.4,0.69-0.29
			c2.24,0.59,4.49,1.15,6.74,1.73c0.05,0.01,0.12,0.02,0.16,0.06c2.16,1.47,4.57,2.68,5.86,5.13c1.22,2.31,2.4,4.63,3.54,6.98
			c0.32,0.67,0.78,0.65,1.32,0.56c0.6-0.1,0.76-0.54,0.73-1.07C226.1,201.71,226.05,201.48,225.95,201.28z"/>
		<path class="st2" d="M120.08,228.07c-0.11,0.16-0.21,0.32-0.31,0.48c0.05,0,0.11,0,0.18,0c0.1-0.17,0.19-0.35,0.28-0.53
			C120.18,228.04,120.13,228.06,120.08,228.07z"/>
		<path class="st2" d="M95.21,241.76c2.07,1.04,4.1,2.17,6.19,3.15c0.88,0.41,1.9,0.51,2.85,0.78c0.23,0.07,0.45,0.22,0.66,0.35
			c0.94,0.63,1.4,0.47,1.8-0.69c-0.49-0.06-0.9-0.11-1.31-0.16c-0.02-0.1-0.05-0.19-0.03-0.2c1.46-0.82,1.79-2.46,2.68-3.68
			c0.55-0.75,1.12-1.48,1.65-2.25c0.47-0.7,0.96-1.4,1.32-2.16c0.26-0.55,0.48-0.91,0.78-1.14c0.38-0.56,0.76-1.12,1.15-1.68
			c-0.05-0.11-0.01-0.26,0.12-0.46c0.21-0.3,0.41-0.61,0.56-0.94c0.43-0.94,0.67-1.32,1.18-1.39c0.18-0.29,0.37-0.57,0.55-0.86
			c0.09-0.15,0.18-0.29,0.27-0.44c-0.07-0.01-0.13-0.02-0.2-0.03c0-0.1-0.01-0.21-0.01-0.31c0.16-0.04,0.32-0.07,0.48-0.11
			c0.12-0.2,0.24-0.4,0.36-0.6h-0.4c0.26-0.34,0.5-0.59,0.79-0.7c0.05-0.1,0.11-0.2,0.16-0.29c0.08-0.16,0.14-0.33,0.23-0.48
			c-1.2-0.37-2.44-0.72-3.46-1.38c-2.08-1.34-4.62-1.62-6.6-3.12c-1.03-0.78-2.06-1.59-3.19-2.2c-0.48-0.26-1.25-0.16-1.83-0.01
			c-0.31,0.08-0.71,0.62-0.7,0.94c0.04,1.2-0.91,1.72-1.53,2.47c-0.01,0.06-0.05,0.12-0.12,0.17c-0.79,0.58-1.51,1.24-2.18,1.97
			c-0.17,0.19-0.34,0.38-0.51,0.58c-0.24,1.3-1.61,2-2.18,3.36c-0.05-0.03-0.1-0.06-0.15-0.08c-0.99,1.59-1.9,3.24-2.91,4.81
			c-0.1,0.15-0.28,0.14-0.39,0.05c-0.19,0.34-0.38,0.7-0.58,1.06c0.11,0.06,0.24,0.1,0.33,0.19c0.15,0.13,0.4,0.33,0.37,0.43
			c-0.06,0.18-0.3,0.45-0.44,0.43c-1.1-0.11-1.42,0.83-2.23,1.57c0.77,0.34,1.38,0.6,1.99,0.89
			C92.22,240.32,93.73,241.02,95.21,241.76z M93.98,237.43c1.04-1.21,1.63-2.65,2.2-4.09c-0.08-0.07-0.12-0.19-0.05-0.31
			c0.39-0.66,0.79-1.32,1.2-1.97c0.8-1.28,1.64-2.54,2.58-3.72c0.7-0.88,1.46-1.72,2.33-2.43c-0.05-0.16,0.02-0.4,0.2-0.76
			c0.27-0.52,0.59-1.02,1.04-1.8c1.67,1.15,3.22,2.22,4.77,3.29c-0.03,0.08-0.06,0.16-0.1,0.24c0.44,0.19,0.89,0.35,1.34,0.51
			c1,0.36,2.04,0.72,2.91,1.34c0.3,0.22,0.61,0.47,0.87,0.75c0.1,0.08,0.17,0.16,0.21,0.24c0,0-0.01,0-0.01,0
			c0.14,0.25-0.06,0.46-0.22,0.67c-0.19,0.25-0.33,0.53-0.51,0.79c-0.19,0.29-0.4,0.57-0.61,0.84c-0.01,0.01-0.02,0.03-0.03,0.04
			c0.06,0.02,0.12,0.03,0.19,0.05c-0.08,1.03-1.06,1.75-1.72,2.63c-0.09,0.12-0.37,0.14-0.65,0.12c-0.27,0.36-0.52,0.73-0.71,1.12
			c0.15,0.03,0.29,0.06,0.44,0.09c0,0.01-0.04,0.18-0.13,0.31c-0.82,1.15-1.61,2.32-2.47,3.44c-0.94,1.23-1.93,2.42-2.91,3.63
			c-0.37,0.45-0.68,0.71-1.41,0.43c-2.64-1.02-5.05-2.4-7.23-4.19c-0.33-0.27-0.82-0.36-1.18-0.61
			C94.13,237.94,93.92,237.51,93.98,237.43z"/>
		<path class="st0" d="M142.26,65.67c-3.89,0.85-7.84,0.4-11.76,0.51c-3.21,0.09-6.43-0.27-9.65-0.43
			c-0.54-0.03-1.07-0.04-1.61-0.04c-0.16,0-0.41,0.06-0.45,0.16c-0.25,0.57-0.74,0.28-1.12,0.39c-1,0.29-1.57-0.61-2.39-0.68
			c-0.45-0.04-0.92,0.03-1.45,0.06c-0.25-0.1-0.6-0.33-0.98-0.38c-1.56-0.23-3.12-0.42-4.68-0.61c-0.21-0.03-0.42,0-0.66,0.18
			c0.23,0.05,0.46,0.11,0.68,0.16l-0.08,0.28c-0.39-0.13-0.79-0.24-1.18-0.4c-0.22-0.09-0.4-0.35-0.61-0.38
			c-1.18-0.12-2.37-0.14-3.54-0.31c-1.36-0.2-2.82-0.27-4.02-0.85c-1.3-0.63-2.7-1.29-3.6-2.55c-0.18-0.25-0.27-0.55-0.42-0.83
			c-0.17-0.32-0.31-0.68-0.55-0.94c-0.35-0.38-0.58-2.06-0.28-2.48c0.03-0.05,0.06-0.11,0.11-0.13c1.93-0.9,3.85-1.82,5.79-2.7
			c0.89-0.4,1.8-0.74,2.73-1.04c0.55-0.18,1.17-0.19,1.71-0.39c0.98-0.36,1.9-0.85,2.88-1.2c0.98-0.35,2-0.61,3.01-0.88
			c1.14-0.31,2.28-0.62,3.43-0.87c0.99-0.21,2-0.33,3-0.51c1.36-0.24,2.72-0.46,4.07-0.75c3.52-0.76,7.06-1.3,10.69-0.97
			c0.19,0.02,0.38-0.03,0.57-0.04c0.04-0.11,0.08-0.21,0.11-0.32c-0.36-0.15-0.72-0.29-1.08-0.43c1.41-0.68,1.69-0.55,1.73,0.97
			c0.8,0,1.61,0.05,2.41-0.01c0.31-0.02,0.53,0.03,0.69,0.14c0.02-1.58-0.07-3.21-0.05-4.82c-0.37,1.82-1.05,2.21-2.89,2.02
			c-1.92-0.19-3.81-0.29-5.72,0.12c-2.37,0.51-4.77,0.93-7.16,1.37c-1.16,0.21-2.33,0.4-3.51,0.56c-0.56,0.08-1.15-0.02-1.69,0.12
			c-1.59,0.41-3.16,0.88-4.73,1.35c-2.54,0.77-5.09,1.52-7.61,2.35c-1.72,0.56-3.46,1.13-5.11,1.88c-2.34,1.06-4.61,2.27-6.88,3.47
			c-0.32,0.17-0.58,0.6-0.69,0.97c-0.21,0.71-0.28,1.45-0.41,2.18c-0.09,0.01-0.19,0.02-0.28,0.02c-0.1-0.39-0.19-0.79-0.3-1.24
			c-0.13,0.1-0.36,0.22-0.34,0.29c0.16,0.66,0.36,1.3,0.52,1.87c-0.35,0.42-0.82,0.78-1.03,1.26c-0.24,0.56-0.28,1.21-0.34,1.83
			c-0.09,0.96-0.19,1.92,0.36,2.81c0.44,0.71,0.86,1.44,1.3,2.16c0.25,0.41,0.44,0.86,0.77,1.2c0.55,0.57,1.17,1.07,1.84,1.68
			c-0.02,0.03-0.04,0.06-0.06,0.09c1.14,0,2.28-0.15,3.42-0.09c-2.71-1.46-4.43-3.95-5.1-6.96c-0.04-0.2,0-0.38,0.08-0.51
			c-0.08-0.33-0.15-0.66-0.23-0.99c-0.04-0.16-0.01-0.33-0.01-0.66c1.08,1.1,2.08,2.12,3.14,3.2c0.28-0.41,0.43-0.63,0.58-0.86
			c0.06,0,0.15-0.02,0.17,0c0.8,1.29,2.06,1.53,3.45,1.7c1.25,0.15,2.47,0.58,3.7,0.91c0.59,0.15,1.16,0.37,1.76,0.5
			c0.26,0.06,0.56-0.03,0.63-0.03c0.51,0.15,0.85,0.3,1.21,0.33c0.28,0.03,0.66-0.53,0.78,0.25c0.02,0.16,0.65,0.23,1,0.36
			c1.06,0.4,2.12,0.84,3.3,0.53c0.13-0.03,0.38-0.05,0.41,0.01c0.56,1.07,1.63,0.44,2.43,0.69c0.86,0.27,1.84,0.19,2.77,0.25
			c1.48,0.1,2.97,0.28,4.45,0.25c1.32-0.03,2.64-0.29,3.96-0.46c0.09-0.01,0.21-0.11,0.24-0.2c0.37-0.94,0.81-0.79,1.3-0.09
			c0.06,0.08,0.24,0.18,0.28,0.15c0.66-0.46,1.21,0.17,1.81,0.16c1.83-0.03,3.66-0.1,5.48-0.22c1.52-0.1,3.03-0.28,4.54-0.48
			c0.44-0.06,0.86-0.29,1.42-0.5c0.39,0.63,1.22,0.46,1.98,0.3c1.16-0.26,2.28-0.65,3.44-0.93c0.52-0.13,1.06-0.2,1.57-0.07
			c-0.84-0.74-1.7-1.47-2.61-2.21C142.82,65.42,142.55,65.61,142.26,65.67z M92.52,59.19c-0.19,0.02-0.6-0.45-0.58-0.49
			c0.2-0.33,0.49-0.6,0.74-0.89c0.17,0.22,0.35,0.44,0.63,0.79C92.99,58.86,92.77,59.17,92.52,59.19z M104.75,65.12
			c-0.51-0.08-1.02-0.15-1.54-0.23c0.02-0.13,0.03-0.25,0.05-0.38c0.51,0.07,1.02,0.15,1.53,0.22
			C104.78,64.87,104.77,64.99,104.75,65.12z"/>
		<path class="st2" d="M166.27,47.44c-0.25-0.74-0.59-1.46-0.97-2.14c0.2,0.54,0.48,1.06,0.72,1.59
			C166.1,47.06,166.17,47.23,166.27,47.44z"/>
		<path class="st0" d="M166.33,47.61c-0.67-0.07-1.15-0.14-1.64-0.17c-0.36-0.03-0.66-0.11-0.93-0.24c0.22,0.39,0.43,0.77,0.63,1.17
			c0.76,0.18,1.55,0.31,2.27,0.59C166.59,48.51,166.47,48.06,166.33,47.61z"/>
		<path class="st2" d="M192.01,65.19c-0.48,0.26-0.96,0.53-1.44,0.79c0.42-0.13,0.84-0.25,1.27-0.37c0.61-0.15,0.95-0.85,1.25-1.48
			C192.72,64.48,192.43,64.96,192.01,65.19z"/>
		<path class="st2" d="M192.32,75.45c0.32-0.18,0.65-0.35,0.98-0.54c-0.53,0.23-1.06,0.46-1.6,0.68
			C191.92,75.57,192.14,75.55,192.32,75.45z"/>
		<path class="st1" d="M152.28,64.25c0.41,0.41,0.86,0.73,1.35,1c-0.06-0.05-0.12-0.1-0.18-0.15
			C153.08,64.8,152.67,64.53,152.28,64.25z"/>
		<path class="st1" d="M211.11,50.57c-0.35-2.3-1.35-4.15-3.16-5.49c-1.38-1.02-2.71-2.22-4.49-2.5c-1.17-0.18-2.36-0.29-3.54-0.35
			c-3-0.17-5.93-0.11-8.55,1.74c-1.64,1.16-3.45,2.06-5.12,3.18c-2.37,1.59-4.67,3.29-7.02,4.92c-0.25,0.18-0.62,0.19-0.89,0.27
			c-0.08,0.29-0.11,0.65-0.27,0.95c-0.2,0.36-0.57,0.58-0.89,0.16c-0.33-0.42-0.55-0.93-0.91-1.54h1.55
			c0.03-0.08,0.06-0.16,0.09-0.24c-0.42-0.19-0.85-0.38-1.27-0.58c-0.73-0.35-1.53-0.6-2.15-1.08c-1.23-0.96-2.59-1.48-4.1-1.7
			c-0.1-0.01-0.19-0.03-0.28-0.05c-0.4-0.09-0.74-0.27-0.89-0.76c-0.26-0.81-0.55-1.6-0.84-2.39c-0.32-0.86-0.63-1.73-1.03-2.54
			c-0.43-0.87-0.96-1.69-1.7-2.39c-0.37-0.35-0.68-0.76-0.98-1.17c-1.31-1.76-2.8-3.34-4.6-4.6c-0.97-0.68-2.05-1.19-3.05-1.84
			c-1.45-0.95-3.02-1.64-4.74-1.64c-1.95,0-3.91,0.17-5.85,0.37c-2.16,0.23-4.12,1.07-5.63,2.65c-0.93,0.98-1.62,2.18-2.44,3.26
			c-1.22,1.59-2.21,3.25-2.6,5.28c-0.01,0.04-0.02,0.07-0.02,0.11c-0.02,1.61,0.07,3.23,0.05,4.82c0.25,0.17,0.33,0.49,0.36,0.91
			c0.14,1.89,0.28,3.78,0.47,5.66c0.16,1.63,0.84,3.09,1.61,4.51c1.14,2.09,2.62,3.93,4.18,5.72c0.07,0.08,0.17,0.15,0.24,0.24
			c0.19,0.25,0.38,0.5,0.56,0.76c-0.04,0.02-0.08,0.04-0.12,0.06c0.91,0.74,1.77,1.47,2.61,2.21c0.21,0.06,0.43,0.15,0.63,0.29
			c1.2,0.85,2.39,1.73,3.62,2.53c0.74,0.48,1.56,0.85,2.34,1.28c0.18,0.1,0.35,0.21,0.75,0.47c-0.15,0.03-0.3,0.07-0.45,0.1
			c0.05,0.07,0.08,0.15,0.09,0.23c0.13-0.03,0.26-0.06,0.38-0.09c0.36-0.09,0.64,0.1,0.77,0.36c0.65-0.08,1.27,0.01,1.87,0.29
			c0.02,0.1,0.03,0.21,0.05,0.31c-0.78,0.23-1.55,0.55-2.35,0.66c-2.59,0.37-5.22,0.52-7.79,1.03c-1.75,0.35-3.48,0.3-5.23,0.43
			c-1.99,0.14-3.96,0.59-5.95,0.71c-2.49,0.16-4.99,0.18-7.49,0.15c-2.21-0.03-4.42-0.11-6.62-0.33c-2.54-0.26-5.06-0.68-7.58-1.07
			c-1.84-0.29-3.68-0.6-5.5-0.98c-0.64-0.13-1.28-0.28-1.92-0.43c-1.36-0.17-2.72-0.39-4.08-0.68c-1.73-0.37-3.47-0.72-5.11-1.42
			c-0.08-0.03-0.16-0.05-0.24-0.07c-0.04-0.01-0.07-0.04-0.11-0.08c-0.05-0.02-0.1-0.05-0.15-0.07c-0.16-0.07-0.31-0.15-0.46-0.24
			c-1.14-0.07-2.28,0.09-3.42,0.09c-0.34,0.49-0.81,1.07-1.14,1.73c-0.32,0.62-0.52,1.32-0.7,2c-0.14,0.54-0.18,1.12-0.34,1.65
			c0.74,0.84,1.64,1.58,2.49,2.31c1.13,0.43,2.21,1,3.35,1.4c1.81,0.65,3.65,1.22,5.48,1.8c0.34,0.11,0.72,0.1,1.08,0.17
			c0.28,0.05,0.56,0.11,0.84,0.18c0.08,0.02,0.15,0.13,0.22,0.12c1.6-0.25,2.96,0.74,4.51,0.83c1.55,0.09,3.08,0.46,4.63,0.64
			c0.33,0.04,0.69-0.19,0.91-0.25c0.31,0.19,0.59,0.45,0.91,0.52c1.1,0.23,2.22,0.44,3.34,0.57c0.55,0.07,1.11-0.08,1.67-0.07
			c0.49,0.01,0.98,0.16,1.47,0.15c1.49-0.03,2.98-0.15,4.48-0.17c2.57-0.04,5.15-0.03,7.72-0.04c0.92,0,1.84,0.06,2.76,0.01
			c1.3-0.07,2.59-0.21,3.88-0.32c0.87-0.07,1.75-0.13,2.62-0.23c2.27-0.26,4.55-0.55,6.82-0.81c0.42-0.05,0.85,0,1.27-0.04
			c0.34-0.04,0.68-0.14,1.01-0.23c0.11-0.03,0.21-0.13,0.3-0.12c1.74,0.15,3.37-0.45,5.03-0.79c0.14-0.03,0.31-0.05,0.39-0.15
			c1.19-1.34,2.97-1.35,4.47-1.99c0.93-0.4,1.82-0.91,2.76-1.3c0.85-0.36,1.72-0.74,2.62-0.91c0.79-0.14,1.62,0.02,2.44,0.02
			c0.93,0,1.86-0.06,2.79-0.05c1.01,0.01,2.03,0.04,3.04,0.07c0,0,0.01,0,0.01,0c1.31-0.36,2.78-0.17,4.11-0.1
			c0.93,0,1.86,0,2.78,0.06c0.29-0.01,0.59-0.06,0.7-0.19c0.22-0.26,0.63-0.25,0.9-0.05c0.04-0.03,0.08-0.05,0.13-0.07
			c-0.02-0.25,0-0.47,0.09-0.6c0.2-0.3,0.6-0.47,0.91-0.69c0.07,0.08,0.14,0.17,0.21,0.25c-0.15,0.18-0.29,0.36-0.46,0.57
			c0.06,0.03,0.12,0.1,0.18,0.1c0.76,0,1.43,0.21,2.08,0.5c1.39-0.41,2.76-0.88,4.11-1.41c0.19-0.16,0.41-0.29,0.64-0.36
			c0.14-0.04,0.29-0.06,0.44-0.07c0.54-0.22,1.07-0.44,1.6-0.68c0.59-0.33,1.17-0.69,1.69-1.11c1.62-1.32,3.16-2.75,4.74-4.13
			c1.28-1.12,2.6-2.2,3.85-3.36c1.34-1.25,2.78-2.44,3.88-3.88c1.48-1.93,2.6-4.12,2.87-6.62C210.52,54.06,211.4,52.46,211.11,50.57
			z M197.1,44.01c0.92-0.17,1.84-0.31,2.76-0.47c0.04,0.08,0.09,0.16,0.13,0.24c-0.21,0.12-0.41,0.27-0.64,0.36
			c-0.65,0.24-1.31,0.48-1.98,0.65c-0.24,0.06-0.54-0.03-0.78-0.13c-0.09-0.04-0.11-0.27-0.17-0.41
			C196.64,44.16,196.87,44.05,197.1,44.01z M191.36,45.82l0.17,0.31c-0.54,0.32-1.08,0.64-1.61,0.96l-0.18-0.34
			C190.28,46.44,190.82,46.13,191.36,45.82z M170.41,50.06c0.04,0.11,0.09,0.21,0.14,0.29c0.3,0.46,0.77,0.49,1.25,0.67
			c0.68,0.25,1.28,0.84,1.81,1.38c0.58,0.59,0.97,1.37,1.56,1.94c0.51,0.49,0.43,0.81,0.05,1.28c-0.31,0.4-0.53,0.87-0.78,1.31
			c-0.13,0.22-0.21,0.47-0.38,0.66c-1.03,1.19-2.08,2.37-3.13,3.55c-0.08,0.09-0.24,0.12-0.6,0.29
			C170.65,57.53,170.24,53.82,170.41,50.06z M148.17,32.62c0.04,0.12,0.09,0.23,0.13,0.35c-0.48,0.12-0.97,0.23-1.45,0.35
			c-0.03-0.09-0.06-0.18-0.09-0.28C147.23,32.9,147.7,32.76,148.17,32.62z M109.99,76.06c0.51,0.05,1.02,0.1,1.68,0.17
			c-0.14,0.27-0.29,0.64-0.34,0.63c-0.49-0.13-0.97-0.32-1.45-0.49C109.91,76.27,109.95,76.17,109.99,76.06z M107.16,75.71
			c0.67,0.04,1.33,0.08,2,0.12c-0.02,0.13-0.04,0.26-0.06,0.39c-0.66-0.1-1.32-0.2-1.97-0.3C107.14,75.84,107.15,75.77,107.16,75.71
			z M97.93,73.97c0.95,0.2,1.91,0.41,2.86,0.61c-0.01,0.09-0.03,0.17-0.04,0.26c-0.96-0.15-1.92-0.31-2.89-0.46
			C97.88,74.25,97.9,74.11,97.93,73.97z M161.09,77.5c-1.62,0.88-3.43,1.05-5.2,1.4c-1.3,0.26-2.57,0.65-3.87,0.87
			c-1.61,0.28-3.24,0.42-4.86,0.65c-2.06,0.3-4.11,0.78-6.18,0.93c-3.28,0.24-6.57,0.34-9.86,0.38c-2.79,0.03-5.59-0.07-8.39-0.22
			c-3.19-0.17-6.37-0.49-9.56-0.67c-1.6-0.09-3.24,0.16-4.82-0.06c-2.76-0.38-5.52-0.88-8.23-1.55c-1.87-0.47-3.66-1.3-5.46-2.03
			c-0.33-0.13-0.56-0.53-0.86-0.78c-0.18-0.15-0.41-0.25-0.6-0.38c-0.22-0.15-0.62-0.33-0.61-0.47c0.02-0.32,0.2-0.86,0.39-0.9
			c0.64-0.13,1.34-0.19,1.98-0.08c0.8,0.14,1.54,0.57,2.33,0.71c2.7,0.45,5.41,0.83,8.11,1.22c1.73,0.25,3.47,0.5,5.21,0.69
			c0.68,0.08,1.45,0.29,1.83-0.31c0.62,0.19,1.08,0.44,1.54,0.46c0.81,0.04,1.63-0.13,2.44-0.09c0.68,0.03,1.35,0.21,2.02,0.35
			c0.61,0.12,1.2,0.38,1.81,0.41c3.25,0.13,6.51,0.26,9.77,0.28c2.52,0.01,5.04-0.07,7.56-0.25c2.57-0.19,5.13-0.55,7.7-0.84
			c2.15-0.25,4.32-0.42,6.45-0.78c1.25-0.21,2.65,0.08,3.7-0.93c1.26,0.21,2.55-1.03,3.85,0.22c0.65,0.62,1.66,0.87,2.56,1.32
			C161.63,77.18,161.37,77.35,161.09,77.5z M154.69,65.75c-0.41,0.09-0.73-0.22-1.06-0.51c-0.49-0.27-0.95-0.59-1.35-1
			c-0.41-0.3-0.81-0.6-1.17-0.95c-1.03-1-1.98-2.1-2.9-3.2c-0.81-0.97-1.61-1.97-2.3-3.03c-0.68-1.05-1.47-2.14-1.75-3.32
			c-0.4-1.71-0.41-3.52-0.49-5.29c-0.01-0.24,0.15-0.49,0.31-0.71c-0.02-0.34-0.03-0.69-0.03-1.04c-0.04-0.11-0.08-0.22-0.12-0.33
			c0.04,0,0.08-0.02,0.12-0.03c0.03-0.85,0.15-1.68,0.48-2.41c-0.08,0-0.16,0-0.24,0c-0.19-1.1,0.8-1.2,1.46-1.6
			c0.24-0.14,0.49-0.33,0.62-0.56c0.35-0.62,0.85-0.99,1.55-1.05c1.6-0.12,3.2-0.23,4.8-0.29c0.35-0.01,0.7,0.19,1.06,0.28
			c2.43,0.63,4.24,2.05,5.45,4.23c0.07,0.12,0.12,0.25,0.17,0.4c1.1,1.59,1.68,3.56,1.91,5.48c0.47,0.92,0.82,1.89,0.66,3.05
			c-0.04,0.27-0.1,0.48-0.19,0.63c0.44,0.65,0.67,1.43,0.71,2.27c0.09,0.26,0.18,0.53,0.24,0.8c0.25,1.09,0.43,2.2,0.68,3.29
			c0.22,0.99,0.52,1.95,0.73,2.94c0.06,0.3,0.03,0.53-0.1,0.69c0.02,0.32,0.02,0.63,0,0.95c0.12,0.18,0.09,0.52-0.01,1.11
			c-0.16,0.97-0.36,1.93-0.64,2.87c-0.07,0.25-0.46,0.48-0.75,0.56c-0.45,0.13-0.94,0.13-1.44,0.19c-0.03-0.52-0.1-0.93-0.78-0.74
			c-0.17,0.05-0.43-0.13-0.62-0.25c-0.86-0.57-1.7-1.17-2.55-1.75c-0.49-0.33-0.99-0.65-1.43-0.95c0.21-0.03,0.41-0.06,0.61-0.1
			C155.78,66.18,155.23,65.98,154.69,65.75z M160.06,71.4c0.12,0.07,0.24,0.3,0.21,0.4c-0.06,0.16-0.23,0.35-0.38,0.39
			c-0.6,0.14-1.2,0.23-1.91,0.36C158.11,71.84,159.6,71.1,160.06,71.4z M163.07,76.7c-0.09,0.01-0.23-0.14-0.28-0.24
			c-0.03-0.05,0.08-0.25,0.14-0.25c0.52-0.02,1.04-0.01,1.57-0.01c0.01,0.11,0.01,0.23,0.02,0.34
			C164.03,76.59,163.55,76.66,163.07,76.7z M163.47,74.75c-0.37-0.07-1.01-0.18-1.63-0.33c-0.61-0.15-0.61-0.51-0.24-0.93
			c0.33-0.38,0.65-0.76,1.01-1.11c0.49-0.48,0.74-0.18,0.85,0.43c0.3-0.21,0.52-0.36,0.72-0.5c0.37,0.16,0.72,0.32,1.28,0.57
			C164.84,73.47,164.24,74.03,163.47,74.75z M166.36,55.43c-0.41-1.77-0.98-3.51-1.51-5.26c-0.17-0.55-0.45-1.06-0.67-1.59
			c0.06-0.08,0.11-0.15,0.17-0.23c0.02,0,0.03,0.01,0.05,0.01c-0.2-0.39-0.41-0.78-0.63-1.17c-0.6-0.3-1.01-0.84-1.34-1.52
			c-0.25-0.52-0.56-1.05-0.96-1.47c-1.55-1.66-3.1-3.32-4.69-4.93c-0.37-0.15-0.76-0.31-1.16-0.47c-0.74,0.04-1.18-0.11-1.49-0.6
			c-1-0.39-2.05-0.74-3.09-0.97c-0.21,0.08-0.42,0.15-0.63,0.17c-0.48,0.05-0.97,0-1.44-0.06c-0.01,0-0.02,0-0.02,0
			c-0.95,0.34-1.84,0.84-2.63,1.49c-1.22,1-2.25,2.23-3.42,3.28c-0.17,0.15-0.36,0.2-0.54,0.17c-0.08,0.29-0.16,0.58-0.24,0.87
			c-0.12,0.46-0.34,0.8-0.71,1.01c-0.04,0.1-0.08,0.2-0.13,0.3c-0.05,0.41-0.13,0.81-0.23,1.22c0.64,0.06,0.62,0.33,0.32,1.32
			c-0.21,0-0.41,0-0.62,0c-0.01,0.17-0.02,0.34-0.03,0.51c0.28,0.02,0.57,0.04,0.88,0.06c0,1.49,0.01,2.93,0,4.37
			c-0.01,0.98,0.17,1.92,0.45,2.82c0.21,0.54,0.43,1.08,0.67,1.59c0.15,0.33,0.32,0.67,0.49,1c0.08,0.14,0.16,0.29,0.25,0.43
			c0.1,0.17,0.18,0.34,0.26,0.51c0.26,0.46,0.53,0.92,0.82,1.37c0.04,0.02,0.07,0.05,0.11,0.09c0.24,0.25,0.46,0.51,0.67,0.78
			c-0.16-0.3-0.31-0.61-0.39-0.97c2.04,2.23,3.83,4.68,6.58,6.36c-0.17,0.04-0.32,0.06-0.47,0.08c0.2,0.14,0.39,0.28,0.57,0.44
			c0.16,0.14,0.23,0.3,0.22,0.45c0.07-0.04,0.15-0.07,0.2-0.05c0.47,0.17,0.92,0.4,1.38,0.61c-0.05,0.14-0.1,0.28-0.15,0.42
			c-0.52-0.15-1.04-0.29-1.54-0.46c-0.02-0.01-0.04-0.04-0.06-0.09c-0.02,0.02-0.03,0.04-0.05,0.05c0.98,0.74,2.02,1.4,3.13,1.94
			c-0.25-0.27-0.43-0.47-0.62-0.67c0.02-0.06,0.03-0.12,0.05-0.18c0.26,0.05,0.66,0.02,0.76,0.18c0.75,1.14,1.95,1.31,3.13,1.54
			c0.36,0.07,0.71,0.19,1.07,0.29c0,0.11,0.01,0.21,0.01,0.32c-0.42,0.14-0.84,0.28-1.27,0.41c-0.87,0.27-1.67,0.44-2.58-0.13
			c-0.15-0.1-0.3-0.19-0.46-0.28c-0.09,0-0.19-0.02-0.29-0.07c-1.46-0.65-2.81-1.51-4.07-2.5c-0.54-0.31-1.08-0.62-1.61-0.93
			c-0.03-0.02-0.02-0.1-0.05-0.22c0.09-0.01,0.18-0.02,0.26-0.03c-0.32-0.29-0.62-0.58-0.93-0.88c-0.32-0.01-0.67,0.02-0.87-0.14
			c-1.97-1.53-3.79-3.21-5.2-5.28c-0.32-0.48-0.45-1.09-0.71-1.61c-0.22-0.44-0.51-0.84-0.84-1.4c0.55-1.02-0.44-1.88-0.72-2.91
			c-0.56-2.06-1.57-3.98-1.71-6.17c-0.06-0.96-0.05-1.21,0.59-1.24c0-0.14,0.01-0.28,0.01-0.42c-0.09,0-0.18-0.01-0.26-0.02
			c-0.21-0.02-0.55-0.42-0.55-0.64c0-0.19,0.27-0.51,0.48-0.6c-0.01-0.48,0.09-0.94,0.37-1.38c0.01-0.02,0.03-0.04,0.05-0.07
			c-0.79-0.25-0.45-0.98-0.12-2.46c0.29-1.33,0.98-2.5,2.03-3.41c0.15-0.13,0.26-0.31,0.34-0.48c0.82-1.65,2.02-2.77,3.8-3.46
			c1.74-0.67,3.48-1.16,5.32-1.21c0.63-0.02,1.26,0.33,1.89,0.37c2.45,0.15,4.74,0.8,6.72,2.24c1.06,0.77,1.97,1.75,2.88,2.71
			c1.19,1.26,2.02,2.77,2.62,4.4c0.01,0.03,0.02,0.07,0.04,0.07c1.09,0.31,0.71,1.27,0.93,1.98c0.03,0.09,0.06,0.18,0.09,0.27
			c0.38,0.68,0.72,1.4,0.97,2.14c0.03,0.06,0.05,0.11,0.08,0.17c-0.01,0-0.01,0-0.02,0c0.14,0.44,0.26,0.89,0.33,1.35
			c0.02,0.01,0.03,0.01,0.05,0.02c0.23,0.1,0.32,0.68,0.38,1.05c0.26,1.55,0.58,3.1,0.71,4.66c0.17,2.05,0.18,4.1,0.26,6.16
			c0,0.1-0.09,0.2-0.26,0.52c-0.24-0.34-0.49-0.54-0.53-0.78C166.95,58.88,166.75,57.13,166.36,55.43z M169.01,76.82
			c-0.69-0.67-1.61,0.47-2.23-0.41c0.02-0.11,0.03-0.22,0.05-0.33c0.36,0.07,0.72,0.22,1.07,0.18c0.35-0.04,0.68-0.27,1.11-0.46
			V76.82z M167.07,71.13c0.26-0.78,0.65-1.12,1.44-0.87c0.02-0.09,0.04-0.18,0.06-0.27c-0.3-0.16-0.6-0.33-0.84-0.46
			c0.34-0.2,0.78-0.46,1.4-0.83c-0.12,0.49-0.19,0.81-0.3,1.26c0.19,0.12,0.44,0.29,0.88,0.57
			C168.68,70.76,167.92,70.93,167.07,71.13z M182.2,60.61c0-0.01,0-0.02,0-0.02c0-0.19,0.11-0.44,0.25-0.56
			c1.41-1.21,2.95-2.29,4.24-3.62c1.56-1.61,3.72-1.74,5.58-2.61c0.59-0.27,1.17-0.64,1.79-0.75c0.96-0.16,1.96-0.15,2.94-0.19
			c0.46-0.01,0.94,0.16,1.37,0.05c1.32-0.32,3.06,0.38,3.41,1.68c0.14,0.53-0.3,1.25-0.55,1.86c-0.27,0.64-0.64,1.23-0.94,1.86
			c-0.23,0.47-0.29,0.93-1.12,0.83c-0.44-0.05-0.97,0.73-1.46,1.14c0.05,0.07,0.1,0.14,0.15,0.21c0.2-0.05,0.41-0.11,0.65-0.17
			c-0.03,0.09-0.04,0.2-0.09,0.22c-0.55,0.3-1.12,0.58-1.67,0.88c-0.19,0.1-0.46,0.18-0.54,0.35c-0.48,0.93-0.96,1.78-2.22,1.77
			c-0.27,0-0.57,0.31-0.82,0.53c-0.02,0.02-0.04,0.04-0.06,0.06c-0.31,0.63-0.64,1.33-1.25,1.48c-0.43,0.12-0.85,0.24-1.27,0.37
			c-1.46,0.8-2.93,1.57-4.45,2.24c-1.36,0.6-2.84,0.92-4.29,1.3c-0.15,0.04-0.49-0.16-0.63-0.31c-0.03-0.04-0.05-0.08-0.05-0.11
			c0-1.43,0.07-2.86,0.13-4.33h-0.52c0.13-0.27,0.17-0.5,0.31-0.65C182.02,63.12,182.27,61.92,182.2,60.61z M186.89,70.09
			c-0.85,0.33-1.53,0.6-2.2,0.86C185.22,70.36,185.7,69.67,186.89,70.09z M181.56,71.88c-0.89,0.24-1.77,0.48-2.66,0.72l-0.11-0.4
			c0.89-0.24,1.77-0.49,2.66-0.73C181.49,71.6,181.53,71.74,181.56,71.88z M179.96,63.61c-1.75,2.13-4.09,3.47-6.67,4.39
			c-0.07-0.06-0.13-0.13-0.2-0.19c0.79-0.82,1.56-1.65,2.36-2.44c0.85-0.83,1.69-1.67,2.61-2.43c0.88-0.73,1.84-1.35,2.82-2.06
			c0.08,0.22,0.12,0.42,0.14,0.61C181.09,62.46,180.41,63.06,179.96,63.61z M173.2,69.1c1.69-0.81,3.42-1.55,5.05-2.47
			c0.8-0.45,1.41-1.25,2.24-2c-0.02,0.29,0.02,0.43-0.03,0.47c-1.01,0.85-1.18,2.08-1.51,3.25c-0.08,0.31-0.2,0.69-0.43,0.85
			c-0.1,0.06-0.19,0.13-0.29,0.19c0.11,0.39-0.09,0.9-0.63,0.9c-0.2,0-0.36-0.08-0.47-0.19c-0.27,0.17-0.55,0.34-0.82,0.5
			c-0.35,0.2-0.69,0.4-1.05,0.59c-0.56,0.29-1.23,0.37-1.86,0.52c-0.11,0.03-0.34-0.03-0.37-0.1c-0.35-0.85-1.08-0.89-1.83-0.92
			c-0.1,0-0.2-0.08-0.31-0.13c-0.04-0.11-0.08-0.22-0.12-0.33C171.59,69.85,172.4,69.49,173.2,69.1z M170.85,74.6v-0.64
			c0.21,0.01,0.49-0.06,0.61,0.05c0.2,0.17,0.31,0.44,0.46,0.67C171.59,74.65,171.26,74.63,170.85,74.6z M208.71,52.05
			c-0.47,2.71-1.03,5.39-2.53,7.72c-1.03,1.6-2.35,3.02-3.58,4.48c-0.3,0.35-0.8,0.53-1.16,0.84c-1.24,1.07-2.43,2.2-3.69,3.25
			c-1.3,1.08-2.65,2.12-4,3.14c-0.74,0.56-1.55,1.03-2.31,1.56c-2.02,1.42-4.36,1.42-6.67,1.55c-0.62,0.03-1.24,0.02-1.85,0.12
			c-0.57,0.1-1.05-0.01-1.38-0.28c-0.3,0.05-0.6,0.09-0.9,0.11c-0.07,0.01-0.15,0.03-0.22,0.04c0.01,0.09,0.02,0.18,0.02,0.28
			c-0.32,0.11-0.65,0.33-0.99,0.34c-2.17,0.08-4.35,0.13-6.52,0.15c-0.34,0-0.69-0.21-1.02-0.35c-0.01,0,0.06-0.19,0.09-0.3
			c0.7-0.24,1.38-0.52,2.1-0.7c1.41-0.37,2.84-0.67,4.26-1.01c0.22-0.05,0.43-0.17,0.65-0.18c0.4-0.02,0.69-0.04,0.9,0
			c0.94-0.24,1.87-0.45,2.83-0.58c2.06-0.7,4.01-1.64,5.86-2.8c0.32-0.2,0.72-0.28,1.06-0.46c0.91-0.5,1.8-1.03,2.69-1.56
			c1.19-0.7,2.41-1.36,3.55-2.14c0.71-0.49,1.28-1.17,1.91-1.77c0.14-0.13,0.24-0.37,0.4-0.41c2.19-0.5,3-2.31,3.93-4.04
			c0.24-0.44,0.51-0.87,0.8-1.29c0.78-1.13,1.2-2.38,1.18-3.74c-0.01-0.41-0.24-0.9-0.53-1.2c-0.89-0.91-1.84-1.78-2.82-2.6
			c-0.24-0.2-0.69-0.22-1.04-0.21c-1.32,0.04-2.63,0.1-3.95,0.22c-0.6,0.05-1.23,0.15-1.78,0.4c-1.58,0.69-3.06,1.75-4.71,2.15
			c-0.38,0.09-0.73,0.21-1.07,0.35c-1.63,0.97-3.17,2.07-4.53,3.47c-3.1,3.19-6.81,5.79-10.41,8.38c-0.29,0.21-0.57,0.14-0.76-0.05
			c-0.25,0.2-0.5,0.39-0.76,0.57c-0.13,0.19-0.25,0.38-0.37,0.57c-0.15,0.25-0.38,0.34-0.6,0.32c-0.12,0.18-0.24,0.36-0.38,0.5
			c-0.29,0.3-0.64,0.55-0.97,0.82c-0.08-0.07-0.17-0.15-0.25-0.22c0.18-0.36,0.29-0.79,0.55-1.08c0.14-0.16,0.28-0.32,0.42-0.47
			c-0.06-0.16-0.06-0.36,0.06-0.56c1.1-1.86,2.77-3.3,4.4-4.68c0.01-0.01,0.02-0.02,0.03-0.02c-0.01,0-0.03,0-0.04,0.01
			c0.23-0.2,0.46-0.39,0.89-0.76c-0.23-0.08-0.41-0.14-0.64-0.22c0.18-0.12,0.26-0.22,0.31-0.2c0.57,0.17,0.9-0.12,1.28-0.52
			c0.83-0.86,1.74-1.65,2.65-2.5c0.05,0.05,0.1,0.1,0.15,0.14c0.44-0.42,0.89-0.84,1.34-1.26c-0.01-0.29,0.12-0.53,0.44-0.78
			c1.67-1.3,3.28-2.67,4.97-3.94c1.25-0.94,2.54-1.85,3.9-2.61c1.57-0.87,3.23-1.59,4.88-2.31c0.37-0.16,0.84-0.08,1.26-0.11
			c0.84-0.07,1.72,0,2.49-0.26c1.19-0.39,2.27-0.48,3.44,0.05c1.04,0.48,2.22,0.68,3.22,1.23
			C207.01,47.66,209.08,49.88,208.71,52.05z"/>
		<path class="st0" d="M162.74,65.35c0.7-0.11,1.05-0.13,1.19,0.09c0.02-0.32,0.02-0.63,0-0.95c-0.14,0.18-0.38,0.28-0.71,0.32
			c-1.99,0.24-3.98,0.53-5.97,0.76c-0.52,0.06-1.06-0.02-1.59-0.05c-0.17-0.01-0.4-0.12-0.48-0.05c-0.18,0.16-0.34,0.24-0.49,0.27
			c0.54,0.23,1.09,0.42,1.63,0.63c1.9-0.3,3.74-0.58,5.58-0.87C162.18,65.47,162.46,65.4,162.74,65.35z"/>
		<path class="st0" d="M146.52,230.49c0-0.09-0.01-0.17-0.01-0.26c4.21-0.71,8.54-0.05,12.76-0.74c0.01-0.13,0.01-0.26,0.02-0.38
			c-0.38-0.05-0.77-0.16-1.15-0.14c-0.96,0.05-1.92,0.2-2.88,0.23c-3.19,0.1-6.38,0.19-9.58,0.23c-1.42,0.02-2.83-0.09-4.25-0.16
			c-0.25-0.01-0.5-0.07-0.78-0.12c-0.44,0.65-0.9,1.28-1.36,1.91c0.16-0.08,0.34-0.12,0.52-0.13c1.14-0.08,2.29-0.03,3.43,0.01
			c2.09,0.07,4.17,0.22,6.26,0.26c1.84,0.03,3.69-0.06,5.53-0.08c0.45,0,0.89,0.08,1.34,0.12c0.02,0.08,0.04,0.16,0.07,0.24
			c-0.39,0.11-0.77,0.3-1.17,0.33c-3.56,0.24-7.12,0.52-10.68,0.65c-1.78,0.07-3.56-0.15-5.35-0.24c-0.16-0.01-0.32-0.07-0.51-0.11
			c-0.01-0.12,0-0.23,0.02-0.33c-1.65,2.2-3.35,4.36-4.56,6.76c0.52-0.62,1.1-1.19,1.67-1.78c0.1-0.11,0.3-0.15,0.46-0.17
			c0.73-0.06,1.47-0.06,2.2-0.14c1.31-0.14,2.63-0.27,3.93-0.5c1.21-0.22,2.39-0.67,3.61-0.84c1.4-0.19,2.82-0.18,4.24-0.28
			c3.5-0.23,7.01-0.49,10.51-0.71c0.04,0,0.09,0,0.14,0.02c-0.42-1.2-0.78-2.43-1.11-3.66H146.52z M142.27,230.39
			c-0.01-0.1-0.01-0.19-0.02-0.29h2.54C143.98,230.77,143.11,230.29,142.27,230.39z"/>
		<path class="st0" d="M89.83,226.7c-0.34-0.37-0.58-0.82-0.85-1.24c-0.13-0.21-0.24-0.44-0.42-0.77c0.21-0.6,0.49-0.65,1.11-0.06
			c0.28,0.27,0.75,0.36,1.24,0.49c0.45-0.7,0.9-1.41,1.36-2.11c-1.13-0.39-2.24-0.83-3.32-1.34c-0.76-0.35-0.81-1.17-0.98-1.88
			c-0.1-0.4-0.1-0.89-0.35-1.16c-1.31-1.44-1.48-3.33-2.14-5.02c-0.01-0.03-0.01-0.06-0.02-0.08c-0.8-2.7-1.59-5.39-2.39-8.09
			c-0.76-2.54-1.57-5.07-2.29-7.63c-0.33-1.17-0.46-2.39-0.68-3.58c-0.34-1.77-0.72-3.53-1.01-5.31c-0.27-1.68-0.36-3.39-0.69-5.05
			c-0.32-1.61-0.91-3.15-1.26-4.76c-0.5-2.31-0.87-4.65-1.33-6.97c-0.18-0.89-0.45-1.76-0.67-2.64c-0.04-0.17-0.06-0.35,0.05-0.57
			c0.18,0.62,0.36,1.24,0.54,1.87c0.54-0.76,0.08-1.45-0.24-1.93c-0.68-1.02-0.74-2.1-0.85-3.23c-0.21-2.17-0.53-4.33-0.66-6.5
			c-0.1-1.83,0.08-3.68,0.01-5.52c-0.09-2.61-0.45-5.21-0.42-7.81c0.04-3.65,0.37-7.3,0.52-10.95c0.08-1.83,0.02-3.66,0.03-5.49
			c0.01-1.94-0.14-3.87,0.43-5.8c0.47-1.62,0.54-3.37,0.78-5.06c0.13-0.89,0.4-1.11,1.26-0.83c2.1,0.71,4.19,1.47,6.28,2.21
			c0.62,0.22,0.48,0.64,0.35,1.11c-0.09,0.35-0.11,0.74-0.08,1.1c0.01,0.09,0.36,0.22,0.54,0.2c0.15-0.02,0.38-0.21,0.41-0.36
			c0.11-0.61,0.16-1.22,0.24-1.91c1.56,0.44,2.53-0.28,3.39-1.3c0.16-0.19,0.4-0.31,0.61-0.45c0.43-0.27,0.96-0.45,1.29-0.81
			c1.18-1.29,2.79-1.78,4.31-2.46c0.9-0.4,1.74-0.96,2.65-1.34c1.57-0.65,3.15-1.12,4.95-0.89c1.87,0.25,3.79,0.16,5.68,0.22
			c0.14,0,0.27,0.05,0.64,0.13c-0.5,0.63-0.92,1.15-1.34,1.68c-0.97,1.21-2.02,2.37-2.89,3.66c-0.35,0.52-0.3,1.31-0.45,2.11
			c1.23-0.48,2.34-0.99,3.51-1.34c1.24-0.38,2.51-0.64,3.78-0.88c2.25-0.43,4.52-0.76,6.76-1.24c0.83-0.18,1.57-0.75,2.4-0.99
			c1.9-0.55,3.82-1.01,5.73-1.49c0.22-0.06,0.45-0.05,0.68-0.07c1.91-0.13,3.83-0.31,5.74-0.35c0.8-0.02,1.61,0.25,2.45,0.39
			c-0.1,0.84-0.31,1.43-1.11,1.81c-0.49,0.23-0.79,0.84-1.26,1.38c0.87,0.35,1.16,0.68,0.78,1.43c-0.13,0.26,0.2,0.9,0.49,1.21
			c0.35,0.38,0.82,0.23,1.19-0.15c1.69-1.75,3.76-2.87,6.04-3.65c0.16-0.05,0.35-0.11,0.45-0.23c0.92-1.05,2.28-1.09,3.47-1.47
			c1.76-0.56,3.57-1.05,5.39-1.35c1.91-0.32,3.87-0.41,5.81-0.54c1.07-0.07,2.16-0.06,3.23-0.03c0.49,0.01,0.98,0.16,1.44,0.24
			c-0.07,0.6-0.13,1.08-0.21,1.73c-0.33,0.23-0.83,0.59-1.33,0.95c-0.08-0.29-0.18-0.65-0.29-1c-0.09,0.01-0.18,0.03-0.28,0.04
			c0,0.5-0.2,1.2,0.05,1.46c0.33,0.35,1.03,0.53,1.54,0.47c0.85-0.1,1.74-0.32,2.33-1.09c0.05-0.07,0.12-0.16,0.19-0.17
			c1.76-0.33,2.59-2.11,4.22-2.67c1.6-0.55,3.11-1.39,4.74-1.76c1.56-0.36,3.17-0.93,4.84-0.4c0.85,0.27,1.72,0.49,1.87,1.61
			c0.06,0.44,0.27,0.88,0.51,1.26c0.49,0.76,0.2,1.25-0.44,1.71c-0.76,0.55-0.96,0.95-0.93,1.78c0.78-0.07,1.58-0.05,2.32-0.25
			c0.43-0.12,0.9-0.51,1.12-0.9c0.67-1.17,1.84-1.7,2.91-2.26c1.68-0.88,3.46-1.61,5.26-2.23c1.4-0.49,2.89-0.71,4.52-1.09
			c-0.29-0.23-0.44-0.35-0.66-0.52c1.22,0,2.35-0.03,3.47,0.03c0.16,0.01,0.44,0.48,0.41,0.7c-0.27,1.66,0.62,2.99,1.12,4.44
			c0.48,1.38,0.86,2.8,1.24,4.21c0.72,2.67,1.41,5.35,2.13,8.01c0.44,1.63,0.93,3.25,1.35,4.89c0.25,0.98,0.42,1.98,0.59,2.98
			c0.44,2.44,0.86,4.89,1.3,7.34c0.71,3.94,0.94,7.93,1.01,11.93c0.02,1.3,0.23,2.59,0.28,3.89c0.08,2.18,0.12,4.36,0.14,6.54
			c0.02,2.55,0.01,5.09,0.01,7.67c1.55,0.53,3.07,1.25,4.58,2.3c0.34,0.23,0.84,0.38,1.33,0.4c-0.55-0.25-1.11-0.49-1.7-0.76
			c0.2-0.37,0.46-0.73,0.61-1.14c0.26-0.68,0.55-1.37,0.64-2.07c0.12-0.92,0.09-1.87,0.06-2.81c-0.01-0.36-0.19-0.72-0.28-1v-2.01
			c-0.08,0-0.16,0-0.24,0c0.02,0.43,0.05,0.86,0.07,1.3c-0.26-0.2-0.49-0.45-0.52-0.71c-0.08-0.78-0.1-1.57-0.12-2.35
			c-0.02-0.93-0.03-1.86-0.04-2.79l0.02,0.02c-0.63-0.67-0.81-1.44-0.7-2.37c0.15-1.22,0.55-2.43,0.09-3.69
			c-0.27-0.76-0.45-1.55-0.61-2.35c-0.29-1.38-0.68-2.77-0.76-4.17c-0.18-3.54-0.32-7.08-1.14-10.55c-0.04-0.19-0.03-0.39-0.04-0.59
			c-0.15-1.61-0.28-3.22-0.44-4.82c-0.28-2.7-0.58-5.39-0.87-8.09c-0.17-1.58-0.4-3.14-1.17-4.57c-0.28-0.52-0.66-1.09-0.66-1.63
			c-0.02-1.84-0.86-3.44-1.43-5.1c-0.3-0.87-1.02-1.59-1.56-2.4c1.24-0.36,2.41-0.6,3.52,0.2c0.13,0.09,0.34,0.07,0.49,0.15
			c0.98,0.5,1.95,1.01,2.92,1.52c0.27,0.14,0.53,0.3,0.81,0.38c0.78,0.22,1.57,0.4,2.35,0.6c0.66,0.16,1.32,0.42,1.98,0.44
			c0.4,0.01,0.94-0.28,1.18-0.6c0.18-0.24,0.03-0.76-0.04-1.15c-0.05-0.3-0.25-0.57-0.29-0.86c-0.32-2.86-1.21-5.57-2.17-8.26
			c-1.11-3.11-3.09-5.57-5.54-7.71c-0.23-0.2-0.4-0.46-0.59-0.71c-1.01-1.32-1.92-2.69-3.17-3.85c-1.87-1.73-3.88-3.41-4.54-6.08
			c-0.06-0.24-0.24-0.45-0.35-0.68c-0.44-0.97-1.03-1.91-1.27-2.93c-0.58-2.53-3.01-4.42-5.45-4.93c0.04-0.05,0.09-0.09,0.14-0.13
			c-1.35,0.52-2.73,1-4.11,1.41c0.76,0.34,1.48,0.79,2.24,1.13c0.58,0.26,1.19,0.48,1.78,0.71c0.16,0.06,0.36,0.03,0.49,0.12
			c0.89,0.67,1.77,1.36,2.51,1.93c-0.05,0.44-0.23,0.85-0.1,1.13c0.86,1.87,1.76,3.72,2.68,5.56c1.33,2.68,3.29,4.89,5.51,6.82
			c1.96,1.71,3.54,3.62,4.66,5.96c1.48,3.09,3.05,6.13,4.58,9.2c0.12,0.24,0.2,0.5,0.4,0.99c-0.45-0.17-0.67-0.23-0.88-0.34
			c-1.1-0.56-2.14-1.29-3.3-1.65c-1.68-0.53-3.45-0.79-5.18-1.19c-0.21-0.05-0.42-0.25-0.54-0.44c-1.33-2.2-2.71-4.37-3.94-6.62
			c-0.2-0.37-0.39-0.76-0.57-1.14c-0.04-0.06-0.08-0.13-0.1-0.22c0,0,0-0.01,0-0.01c-0.13-0.28-0.25-0.57-0.37-0.85
			c-0.09-0.03-0.18-0.09-0.26-0.17c-0.5-0.53-0.99-1.08-1.45-1.64c-0.03,0.02-0.05,0.03-0.08,0.05c-0.59-0.71-1.31-1.35-1.75-2.15
			c-0.18-0.33-0.36-0.68-0.52-1.02c-0.81-1.17-1.56-2.37-2.29-3.59c0.09,0.28,0.17,0.55,0.29,0.82c0.15,0.35,0.38,0.66,0.58,0.98
			c-0.74,0.32-2.05-1.07-2.59-2.9c-0.08,0.18-0.2,0.31-0.17,0.38c0.23,0.6,0.05,0.97-0.48,1.34c-0.52,0.37-0.5,1.22,0.03,1.64
			c2.73,2.14,4.34,5.19,6.36,7.89c0.49,0.65,0.49,1.59,1.27,2.09c0.12,0.08,0.04,0.48,0.04,0.74c-0.01,0.88,0.36,1.53,1.01,2.13
			c0.56,0.51,0.93,1.22,1.53,2.02c-1.02,0.14-1.76,0.23-2.5,0.34c-3.21,0.45-6.34,1.16-9.39,2.28c-1.02,0.37-2.06,0.78-3.2,0.68
			c-0.19-0.02-0.4-0.06-0.55-0.17c-1.53-1.04-2.63-2.41-3.43-4.1c-1.05-2.2-2.16-4.37-3.41-6.46c-0.79-1.32-1.93-2.43-2.85-3.68
			c-0.63-0.86-1.15-1.81-1.73-2.75c0.17-0.24,0.35-0.48,0.59-0.81c-1.38-0.08-1.68-0.96-1.88-2.07c-0.11-0.61-0.56-1.17-0.92-1.71
			c-0.35-0.53-0.86-0.75-1.47-0.39c-0.7,0.42-0.87,0.99-0.54,1.65c0.53,1.06,1.11,2.11,1.58,3.2c0.16,0.38,0.08,0.87,0.08,1.3
			c0.01,0.74,0,1.48,0,2.22c0.07,0.01,0.14,0.03,0.21,0.04c0.15-0.19,0.3-0.38,0.59-0.73c0.37,0.68,0.77,1.22,0.99,1.83
			c0.29,0.83,0.75,1.44,1.45,2c1.7,1.35,2.99,3.08,4.03,4.98c0.59,1.08,1.2,2.14,1.8,3.22c-4.92,0.07-9.68,0.77-13.85,4.15
			c-0.81-1.65-1.63-3.17-2.31-4.75c-0.52-1.21-0.84-2.52-1.32-3.75c-0.55-1.39-1.22-2.73-1.76-4.11c-0.41-1.04-0.51-2.25-1.1-3.17
			c-1.09-1.71-2.41-3.28-3.66-4.88c-0.41-0.53-0.92-0.5-1.42-0.1c-0.55,0.45-0.7,0.92-0.3,1.62c1.33,2.31,2.71,4.6,3.86,7
			c1.26,2.64,2.32,5.38,3.41,8.09c0.33,0.83,0.5,1.72,0.79,2.78c-4.21-0.09-8.33-0.55-12.39,0.51c-3.97,1.03-7.72,2.56-11.17,4.84
			l-0.23-0.27c0.43-0.56,0.74-1.3,1.31-1.64c1.53-0.91,1.46-2.28,1.36-3.72c-0.04-0.59,0.01-1.18-0.06-1.76
			c-0.24-2.05-0.53-4.1-0.76-6.15c-0.12-1.06-0.15-2.09,0.35-3.14c0.37-0.78,0.33-1.76,0.49-2.64c0.3-1.61,0.61-3.21,0.92-4.82
			c0.02-0.08,0.07-0.17,0.05-0.25c-0.1-0.5-0.06-1.15-0.36-1.45c-0.25-0.25-0.9-0.1-1.52-0.13c-0.12-0.68-0.65-0.63-1.1-0.51
			c-0.09,0.02-0.16,0.66-0.03,0.91c0.82,1.54,0.76,3.01-0.28,4.7c-0.1-1.2-0.19-2.18-0.27-3.16c-0.11-0.01-0.23-0.01-0.34-0.02
			c-0.06,0.29-0.2,0.59-0.17,0.87c0.13,0.98,0.34,1.95,0.5,2.93c0.08,0.47,0.19,0.96,0.14,1.42c-0.12,1.1-0.32,2.18-0.5,3.27
			c-0.02,0.1-0.11,0.18-0.25,0.39c-0.35-0.5-0.63-0.94-0.95-1.36c-0.27-0.36-0.55-0.72-0.88-1.01c-0.11-0.1-0.45-0.09-0.57,0.01
			c-0.1,0.08-0.12,0.43-0.03,0.55c1.45,1.85,1.97,4,2.2,6.28c0.16,1.51,0.44,3.01,0.7,4.51c0.18,1.05,0.13,1.09-0.92,1.22
			c-1.23,0.15-2.45,0.47-3.68,0.6c-2.11,0.21-4.26,0.19-6.35,0.51c-1.96,0.31-3.87,0.95-5.8,1.43c-2.19,0.55-4.38,1.11-6.57,1.65
			c-1.12,0.28-2.25,0.53-3.54,0.84c0.16-0.26,0.2-0.38,0.28-0.45c0.82-0.69,1.7-1.33,2.47-2.07c0.48-0.46,0.97-0.58,1.54-0.41
			c0.73,0.22,1.46,0.46,2.15,0.76c0.61,0.27,1.1,0.02,1.3-0.43c0.18-0.4,0.21-1.14-0.04-1.4c-2.35-2.42-3.18-5.46-3.76-8.64
			c-0.39-2.15-0.84-4.3-1.33-6.43c-0.39-1.68-0.24-3.32,0.13-4.97c0.08-0.35-0.02-0.74-0.04-1.11c-0.38,0.1-0.75,0.22-1.14,0.31
			c-1.23,0.28-1.14,1.27-1.31,2.22c-0.42,2.36-0.28,4.72-0.22,7.1c0.04,1.84-0.1,3.68-0.08,5.52c0.01,0.78,0.23,1.55,0.46,2.31
			c1.11-1.29-0.16-2.76,0.42-4.1c0.46,0.15,0.75,0.36,0.58,0.91c-0.06,0.21-0.08,0.47-0.01,0.67c0.35,1-0.01,1.93-0.23,2.89
			c-0.08,0.34-0.01,0.71-0.01,1.16c-0.26-0.02-0.52,0.03-0.74-0.05c-1.82-0.67-3.66-0.55-5.52-0.23c-1.95,0.33-3.95,0.44-5.86,0.9
			c-1.38,0.33-2.67,1.06-4,1.63c-0.96,0.41-1.91,0.85-2.87,1.27c-0.28,0.13-0.56,0.25-0.82,0.41c-1.01,0.61-2.01,1.24-3.23,2
			c-0.1-5.35,0.64-10.36,2.12-15.27c1.48-4.91,3.68-9.5,6.48-13.91c-1.27-0.32-2.14,0.2-2.8,0.86c-0.62,0.62-0.99,1.49-1.46,2.27
			c-0.8,1.32-1.69,2.61-2.35,4c-0.88,1.84-1.71,3.72-2.3,5.66c-0.61,2.01-1.05,4.06-1.87,6.03c-0.58,1.38-0.68,2.96-0.99,4.46
			c-0.18,0.87-0.36,1.73-0.53,2.6c-0.16,0.87-0.31,1.74-0.45,2.62c-0.06,0.38-0.09,0.76-0.14,1.14c-1.04-0.26-1.95-0.54-2.88-0.69
			c-1.06-0.17-2.14-0.24-3.21-0.31c-0.5-0.03-0.7-0.21-0.56-0.68c0.01-0.03,0.02-0.07,0.03-0.1c-0.86-0.09-1.73-0.12-2.6-0.13
			c-0.01,0.02-0.01,0.03-0.02,0.05c-0.24,0.6-0.55,0.85-1.19,0.81c-2.6-0.14-5.04,0.63-7.47,1.38c-0.71,0.22-1.37,0.56-2.25,0.92
			c0.54-2.34,0.9-4.64,1.62-6.82c0.72-2.18,1.64-4.31,3.05-6.2c1.26-1.69,2.34-3.52,3.59-5.22c0.51-0.69,1.27-1.2,1.91-1.79
			c1.4-1.31,2.75-2.68,4.22-3.92c1.29-1.09,2.75-1.97,4.07-3.03c1.59-1.28,3.1-2.65,4.64-3.97c0.4-0.34,0.79-0.68,1.19-1.02
			c0.35-0.38,0.69-0.75,1.04-1.12c0.61-0.83,1.3-1.6,2.09-2.29c0.21-0.18,0.45-0.22,0.65-0.16c0.1-0.14,0.2-0.29,0.27-0.44
			c0.21-0.5,0.39-1.07,0.34-1.59c-0.02-0.22-0.65-0.39-1.1-0.63c0.09-0.82,0.74-1.31,1.73-0.94c0.02,0.01,0.04,0.02,0.06,0.02
			c-0.85-0.73-1.75-1.48-2.49-2.31c-0.15,0.51-0.41,0.98-0.97,1.33c-0.18,0.11-0.16,0.52-0.31,0.75c-0.19,0.31-0.38,0.62-0.6,0.91
			c0,0.08-0.02,0.16-0.05,0.24c-0.26,0.62-0.48,1.29-0.83,1.87c0.12-0.03,0.23-0.06,0.34-0.09c0.52,0.49,0.41,0.81-0.05,1.16
			c-1.55,1.18-3.12,2.34-4.61,3.59c-1.03,0.87-1.9,1.93-2.93,2.8c-0.37,0.31-0.78,0.59-1.2,0.87c-0.3,0.29-0.6,0.57-0.88,0.82
			c-1.23,1.12-2.71,2.35-4.32,3.14c-0.58,0.43-1.17,0.87-1.76,1.32c0.26-0.3,0.52-0.6,0.78-0.9c-0.22,0.08-0.44,0.15-0.67,0.2
			c-0.29,0.33-0.57,0.66-0.86,0.99c0,0,0,0,0,0c-0.18,0.19-0.37,0.37-0.52,0.59c-0.46,0.7-0.86,1.43-1.34,2.11
			c-0.39,0.55-0.92,0.99-1.29,1.55c-0.67,1.01-1.28,2.06-1.9,3.09c-1.24,2.06-2.53,4.09-3.69,6.19c-0.54,0.98-0.83,2.09-1.2,3.16
			c-0.15,0.42-0.14,0.91-0.33,1.31c-0.66,1.39-1.09,2.8-0.49,4.32c-1.04,0.42-1.44,1.68-0.99,3.15c0.48-0.13,0.99-0.43,1.45-0.36
			c1.17,0.17,2.08-0.11,3.15-0.7c2.71-1.48,5.78-1.85,8.84-2.11c0.86-0.07,1.13,0.25,0.98,1c-0.27,1.32-0.57,2.64-0.92,3.95
			c-0.28,1.06-0.76,2.08-0.98,3.15c-0.56,2.75-0.92,5.55-1.55,8.28c-0.53,2.33-1.01,4.62-0.93,7.03c0.07,1.92-0.16,3.85-0.13,5.77
			c0.05,2.89,0.16,5.78,0.34,8.66c0.16,2.66,0.42,5.31,0.68,7.96c0.3,3.07,0.64,6.13,0.98,9.19c0.18,1.68,0.37,3.37,0.61,5.05
			c0.28,1.99,0.49,4,0.99,5.93c0.37,1.42,0.03,2.87,0.54,4.25c0.28,0.76,0.42,1.58,0.64,2.37c0.64,2.29,1.36,4.56,1.92,6.87
			c0.46,1.91,0.74,3.87,1.1,5.81c0.07,0.36,0.07,0.75,0.2,1.08c0.71,1.79,1.41,3.58,2.19,5.34c1.37,3.07,2.79,6.13,4.2,9.18
			c0.18,0.39,0.47,0.74,0.73,1.13c-0.85,0.77-0.81,1.27,0.3,1.88c0.73,0.39,1.2,0.88,1.35,1.72c0.05,0.25,0.48,0.66,0.67,0.62
			c0.78-0.15,0.87,0.4,1.11,0.88c0.28,0.56,0.62,1.08,0.91,1.63c0.1,0.19,0.14,0.41,0.25,0.72c-1.06-0.4-1.95-0.74-2.84-1.08
			c-0.09,0.13-0.18,0.27-0.27,0.4c0.18,0.08,0.37,0.16,0.54,0.25c0.49,0.27,0.97,0.58,1.48,0.82c0.71,0.32,1.13,0.62,1.29,0.98
			c0.38-0.57,0.75-1.15,1.12-1.73C89.85,226.72,89.84,226.71,89.83,226.7z M198.6,109.7c0.14,0.14,0.28,0.36,0.27,0.53
			c-0.01,0.14-0.24,0.38-0.36,0.38c-0.18-0.01-0.45-0.17-0.5-0.32c-0.12-0.34-0.12-0.73-0.19-1.19
			C198.17,109.36,198.41,109.5,198.6,109.7z M179.15,111.94c0.32,0.6,0.55,1.04,0.8,1.51C179.27,113.58,179.02,113.13,179.15,111.94
			z M176.41,110.25c0.8-0.24,1.51,0.26,2.27,0.35c-0.01,0.11-0.03,0.22-0.04,0.33c-0.75-0.15-1.5-0.3-2.26-0.45
			C176.39,110.4,176.4,110.32,176.41,110.25z M112.09,108.63c0.12,0.79,0.2,1.38,0.3,2.05
			C111.67,110.46,111.54,109.78,112.09,108.63z M70.67,95.32c0.38,0,0.61,0.15,0.35,0.54c-0.27,0.4-0.61,0.76-1.07,1.05
			C70.19,96.38,70.43,95.85,70.67,95.32z M59.96,119.56c-0.05,0.13-0.18,0.24-0.31,0.32c-0.04,0.03-0.25-0.1-0.24-0.14
			c0.03-0.29,0.04-0.62,0.17-0.86c0.09-0.17,0.38-0.24,0.65-0.4C60.11,119,60.06,119.29,59.96,119.56z M60.7,116.92
			c-0.24,0.07-0.78-0.08-0.8-0.21c-0.16-0.8,0.26-1.28,1.19-1.51C60.95,115.85,61.77,116.58,60.7,116.92z M71.92,140.15
			c0.07,0.67,0.19,1.19,0.17,1.69c-0.03,1.05-0.21,2.11-0.17,3.16c0.07,2.18,0.29,4.35,0.33,6.52c0.05,2.34-0.08,4.69-0.05,7.03
			c0.02,1.55,0.17,3.1,0.33,4.64c0.22,2.1,0.51,4.2,0.77,6.3c0.03,0.27,0.04,0.55,0.07,0.93C71.69,168.37,70.42,142.66,71.92,140.15
			z M73.55,171.46c0.09-0.01,0.17-0.01,0.26-0.02c0.06,0.57,0.13,1.15,0.19,1.72c-0.1,0.01-0.2,0.02-0.31,0.03
			C73.65,172.61,73.6,172.03,73.55,171.46z M74.08,182.17c-0.15-0.69-0.29-1.37-0.44-2.06l0.35-0.07c0.13,0.69,0.26,1.38,0.38,2.07
			C74.27,182.12,74.17,182.15,74.08,182.17z M79.23,203.8c-0.26-0.78-0.52-1.56-0.77-2.34c0.13-0.04,0.26-0.09,0.39-0.13
			c0.27,0.78,0.53,1.55,0.8,2.33C79.51,203.71,79.37,203.76,79.23,203.8z M82.31,211.3c-0.27-0.59-0.54-1.17-0.81-1.76
			c0.09-0.04,0.18-0.08,0.28-0.13l0.87,1.74C82.53,211.21,82.42,211.25,82.31,211.3z"/>
		<path class="st2" d="M243.25,217.37c-0.18-1.98-0.37-3.95-0.59-5.92c-0.12-1.09-0.26-2.18-0.44-3.26
			c-0.1-0.61-0.28-1.21-0.45-1.82c-0.41-1.52-0.62-3.14-1.3-4.53c-1.17-2.38-2.61-4.62-3.99-6.9c-1.69-2.8-3.64-5.4-5.95-7.72
			c-0.18-0.18-0.31-0.41-0.5-0.58c-1.61-1.47-3.03-3.25-4.87-4.33c-3.83-2.24-7.87-4.12-11.84-6.13c-0.63-0.32-1.27-0.61-1.93-0.9
			c-0.49-0.02-0.99-0.17-1.33-0.4c-1.51-1.05-3.04-1.77-4.58-2.3c0,0.16,0,0.31,0,0.47c-0.43,0-0.63,0.04-0.81-0.01
			c-2.22-0.57-4.47-1.05-6.65-1.75c-0.25-0.08-0.49-0.17-0.73-0.27c-2.14-0.26-4.31-0.52-6.5-1.08c-0.21-0.03-0.49-0.08-0.81-0.15
			c-0.29,0.02-0.57,0.03-0.82-0.05c-2.02-0.65-3.98-1.54-6.04-1.99c-0.72-0.15-1.24-0.42-1.65-0.79c-0.73-0.15-1.44-0.36-2.11-0.78
			c-0.67-0.53-1.44-1.27-2.23-1.32c0.01,0.13,0.01,0.26,0.02,0.4c-0.28,0.02-0.56,0.09-0.82,0.05c-0.13-0.02-0.25-0.03-0.36-0.03
			c-0.28,0.17-0.56,0.36-0.82,0.55c-0.04,0.1-0.07,0.21-0.09,0.34c-0.02,0.12-0.12,0.25-0.22,0.33c-1.03,0.76-1.08,0.85-0.96,1.99
			c-1.97,0.03-1.89,1.81-2.46,2.99c-0.48,1.01-0.72,2.13-1.13,3.18c-0.05,0.12-0.21,0.22-0.39,0.28c-0.07,0.25-0.13,0.49-0.19,0.74
			c0.22,0.01,0.47,0.05,0.72,0.05c-0.31,0.89-0.6,1.74-0.89,2.59l-0.2-0.17c-0.19,0.18-0.57,0.5-0.54,0.53
			c0.52,0.76,0.09,1.43-0.22,2.07c-0.55,1.14-1.15,2.25-1.83,3.57c-0.43-0.56-0.78-1.05-1.17-1.49c-0.42-0.46-0.83-0.99-1.36-1.29
			c-0.98-0.56-2.06-0.96-2.41-2.2c-0.04-0.15-0.3-0.36-0.43-0.34c-1.1,0.17-1.57-0.73-2.27-1.26c-0.36-0.28-0.81-0.48-1.25-0.61
			c-0.61-0.18-1.25-0.29-1.88-0.38c-0.62-0.1-1.27-0.26-1.88-0.18c-0.72,0.09-1.3-0.13-1.82-0.51c-0.66-0.48-1.3-1-1.88-1.58
			c-0.42-0.41-0.65-0.4-1.01,0.06c-0.16,0.2-0.56,0.4-0.78,0.34c-1.21-0.34-2.41-0.72-3.59-1.15c-1.81-0.65-3.6-1.35-5.39-2.04
			c-0.87-0.34-1.71-0.75-2.59-1.06c-0.92-0.33-1.87-0.57-2.8-0.86c-0.62-0.19-1.23-0.4-1.84-0.61c-0.31-0.11-0.61-0.23-0.76-0.28
			c-0.79,1.18-1.58,2.13-2.11,3.2c-1.34,2.71-3.73,4.62-5.27,7.18c-0.91,1.5-2.22,2.75-3.32,4.14c-0.66,0.84-1.25,1.73-1.9,2.63
			c0.08,0.03,0.24,0.09,0.2,0.07c-3,3.91-6.69,7.28-9.46,11.65c0.36-0.1,0.57-0.15,0.81-0.22c0.07,0.17,0.08,0.37,0.19,0.48
			c0.49,0.51,0.43,0.84-0.16,1.18c0.81,1.43,1.52,2.93,1.86,4.53c0.22,0.09,0.32,0.29,0.31,0.69c-0.01,1.06,0.19,2.15-0.01,3.16
			c-0.14,0.71-0.73,1.38-1.24,1.97c-1.04,1.19-2.21,2.27-3.22,3.48c-0.88,1.05-2,1-3.11,0.84c-0.82-0.12-1.6-0.49-2.4-0.75
			c-1.77-0.58-3.23,0.25-3.43,2.06c-0.2,1.75-1.06,2.9-2.65,3.61c-0.47,0.21-0.88,0.62-1.23,1.02c-0.82,0.93-1.57,1.93-2.4,2.86
			c-0.19,0.22-0.63,0.45-0.86,0.37c-0.01,0-0.02-0.01-0.03-0.01c-0.46,0.7-0.91,1.4-1.36,2.11c0.14,0.04,0.29,0.08,0.43,0.13
			c-0.28,0.51-0.51,1.02-0.83,1.46c-0.07,0.1-0.48,0.11-0.64,0.01c-0.37,0.58-0.74,1.15-1.12,1.73c0.19,0.42,0.03,0.92-0.42,1.66
			c-1.2,1.99-2.54,3.91-3.5,6.01c-0.79,1.73-1.8,3.17-3.25,4.34c-0.35,0.28-0.63,0.65-0.89,1.02c-0.53,0.73-0.31,1.21,0.57,1.38
			c0.23,0.05,0.44,0.17,0.66,0.24c0.21,0.06,0.45,0.18,0.64,0.13c0.65-0.16,1.13,0.08,1.19,0.72c0.19,2.3,1.35,4.16,2.64,5.98
			c0.43,0.6,0.8,1.24,1.11,1.72c-0.26,0.26-0.59,0.54-0.56,0.57c0.37,0.53,0.69,1.27,1.21,1.48c1.95,0.78,3.98,1.38,5.96,2.07
			c0.39,0.14,0.72,0.43,1.11,0.59c2.07,0.86,4.3,1.33,6.12,2.74c0.17,0.13,0.42,0.13,0.63,0.21c1.17,0.41,2.35,0.77,3.49,1.24
			c1.06,0.44,2.03,1.12,3.12,1.46c1.57,0.5,3.14,0.85,4.15,2.35c0.42,0.62,0.95,0.49,1.31-0.19c0.1-0.2,0.25-0.38,0.41-0.53
			c0.35-0.32,0.72-0.62,1.15-0.98c0.68,0.17,0.95-0.07,1.32-0.96c0.53-1.3,1.02-2.66,1.77-3.84c1.19-1.88,2.44-3.72,4.19-5.19
			c1.38-1.15,2.29-2.73,3.31-4.22c1.14-1.66,2.61-3.08,3.88-4.65c1.33-1.64,2.58-3.35,3.9-5c0.07-0.09,0.15-0.18,0.23-0.27
			c1.21-2.41,2.9-4.57,4.56-6.76c0.06-0.36,0.27-0.59,0.54-0.72c0.47-0.63,0.92-1.27,1.36-1.91c-0.05-0.01-0.11-0.02-0.16-0.03
			c5.95-9.75,12.88-18.65,19.87-27.63c0.01,0.18,0.05,0.3,0.02,0.41c-0.43,2.11-0.94,4.2-1.27,6.32c-0.19,1.22-0.06,2.48-0.12,3.72
			c-0.14,2.78-0.42,5.55-0.46,8.32c-0.04,2.6,0.13,5.21,1.18,7.67c0.06,0.15,0.1,0.33,0.1,0.49c-0.03,0.63,0.05,1.18,0.64,1.56
			c0.12,0.08,0.13,0.32,0.2,0.5h-0.81c0.33,1.23,0.7,2.46,1.11,3.66c0.18,0.04,0.39,0.17,0.44,0.29c0.78,2,1.64,3.95,2.91,5.72
			c0.61,0.84,0.92,1.92,1.61,2.67c1.61,1.75,3.34,3.38,5.06,5.02c1.49,1.43,2.95,2.91,4.56,4.21c2.85,2.3,6.35,3.12,9.82,3.79
			c2.77,0.54,5.62,0.73,8.43,1.02c2.84,0.29,5.66,1.03,8.55,0.14c1.91-0.58,3.8-1.15,5.5-2.29c-0.23-0.09-0.47-0.13-0.68-0.08
			c-2.09,0.5-4.16,1.07-6.26,1.5c-0.81,0.17-1.68,0.03-2.63,0.03c0.15-0.24,0.17-0.3,0.21-0.32c0.1-0.05,0.21-0.07,0.32-0.1
			c2.13-0.62,4.26-1.25,6.4-1.87c0.51-0.15,1.01-0.42,1.53-0.46c1.38-0.11,2.76-0.12,4.14-0.19c0.51-0.03,1.01-0.12,1.51-0.22
			c0.95-0.2,1.88-0.52,2.83-0.61c1.71-0.16,3.27-0.7,4.56-1.8c0.61-0.52,1.01-1.27,1.53-1.9c0.45-0.55,1.66-0.22,1.6-1.39
			c0-0.04,0.24-0.12,0.38-0.15c0.36-0.08,0.72-0.22,1.08-0.21c0.87,0.01,1.26-0.48,1.51-1.23c0.1-0.31,0.26-0.65,0.5-0.86
			c1.49-1.33,3.02-2.62,4.52-3.94c0.17-0.14,0.31-0.34,0.4-0.54c0.43-0.99,1.16-1.67,2.03-2.31c0.82-0.61,1.86-1.39,2.05-2.27
			c0.2-0.89,0.67-1.09,1.21-1.47c0.34-0.24,0.71-0.5,0.96-0.83c0.73-0.99,1.48-1.98,2.09-3.05c0.32-0.56,0.36-1.28,0.52-1.93
			c-0.08-0.03-0.17-0.06-0.25-0.08c-0.4,1.68-1.4,2.95-2.82,3.92c0.84-1.69,1.68-3.37,2.54-5.09c0.13,0.1,0.29,0.23,0.43,0.35
			c0.83-0.98,2.25-1.62,1.59-3.43c-0.52,0.95-0.52,2.13-1.76,2.33c0.77-2.86,1.51-5.66,2.33-8.72c0.43,0.57,0.68,0.9,1.07,1.41
			C243.26,218.46,243.3,217.91,243.25,217.37z M230.89,190.26c0.48,0.5,0.9,1.05,1.35,1.58c-0.05,0.03-0.1,0.07-0.15,0.1
			c-0.53-0.41-1.08-0.8-1.59-1.23c-0.13-0.11-0.14-0.36-0.2-0.54C230.5,190.2,230.78,190.15,230.89,190.26z M228.95,188.93
			c-1.02-0.96-2.11-1.98-3.31-3.1C226.9,186.1,229.02,188.27,228.95,188.93z M176.9,219.75c-1-0.7-1.38-1.44-1.47-2.49
			c-0.11-1.31-0.53-2.59-0.69-3.9c-0.3-2.42-0.83-4.83-0.4-7.28C175.18,210.57,176.03,215.08,176.9,219.75z M175.82,220.27
			c1.99,0.49,2.09,2.32,2.6,3.83c0.22,0.64,0.17,1.36,0.25,2.05C177.58,225.29,175.73,221.12,175.82,220.27z M179.82,229.28
			c-0.43-0.29-0.77-0.51-1.16-0.78C179.36,228.09,179.67,228.3,179.82,229.28z M170.11,232.96c0.13,0.72,0.21,1.19,0.32,1.81
			c-0.37,0.13-1.01,0.51-1.15,0.37c-0.41-0.4-0.62-1.01-0.91-1.53C168.97,233.39,169.55,233.17,170.11,232.96z M166.81,230.24
			c0.07-0.66,0.62-0.47,0.98-0.5c0.56-0.05,0.85,0.62,0.81,1.79C167.05,231.32,166.72,231.07,166.81,230.24z M170.99,235.74
			c1.22,0.73,3.4,4.59,3.15,5.77c-1.81-1.23-2.72-3.14-4.04-4.74C170.37,236.45,170.66,236.12,170.99,235.74z M172.84,234.42
			c-0.1-0.2-0.23-0.42-0.22-0.62c0.01-0.25,0.15-0.5,0.23-0.74c0.19,0.14,0.44,0.23,0.56,0.41c0.92,1.32,1.82,2.65,2.73,3.98
			c0.08,0.12,0.15,0.24,0.24,0.34c1.18,1.28,1.18,1.27-0.16,2.72c-0.41-0.67-0.78-1.24-1.1-1.83
			C174.34,237.27,173.59,235.84,172.84,234.42z M173.22,229.83c0.77,0,1.47-0.04,2.16,0.02c0.33,0.03,0.68,0.22,0.96,0.42
			c0.17,0.12,0.34,0.44,0.29,0.61c-0.04,0.15-0.38,0.26-0.6,0.31c-0.24,0.06-0.5,0.02-0.76,0.04
			C173.8,231.34,173.8,231.35,173.22,229.83z M174.41,172.22c-0.11,1.9-0.21,3.6-0.31,5.4
			C172.67,176.52,172.79,173.42,174.41,172.22z M169.34,188.77c0.05-0.16,0.19-0.29,0.2-0.45c0.24-2.42,1.55-4.47,2.26-6.72
			c0.17-0.54,0.39-1.06,0.53-1.6c0.14-0.56,0.43-0.79,1-0.6c-0.7,1.56-0.48,3.19-0.39,4.85c0.06,1.13,0.32,2.33-0.2,3.46
			c-0.07,0.15-0.12,0.33-0.11,0.49c0.12,1.41-0.2,2.75-0.65,4.06c-0.05,0.15-0.02,0.33-0.03,0.58c0.19-0.07,0.32-0.13,0.51-0.2
			v10.98c-0.39-0.1-0.59-0.15-0.74-0.19c0,0.52-0.13,1.09,0.03,1.55c0.2,0.56,0.25,1.01,0.13,1.61c-0.15,0.71,0.01,1.5,0.07,2.24
			c0.1,1.19,0.23,2.37,0.35,3.55c0.04,0.42,0.19,0.85,0.14,1.26c-0.31,3.01,0.85,5.72,1.63,8.52c0.42,1.51,0.67,3.07,1.04,4.6
			c0.18,0.75,0.45,1.48,0.68,2.2c-0.72,0.17-1.34,0.38-1.98,0.45c-0.78,0.08-1-0.61-1.15-1.16c-0.97-3.44-1.51-6.95-1.78-10.51
			c-0.26-3.48-0.33-6.95-0.11-10.45c0.07-1.04,0.31-2.08,0.25-3.16c-0.06-1.08,0.44-2.18,0.57-3.28c0.08-0.69-0.03-1.41-0.1-2.12
			c-0.01-0.12-0.19-0.23-0.3-0.35c-0.11,0.13-0.28,0.24-0.33,0.39c-0.24,0.78-0.45,1.56-0.67,2.34l-0.22,0
			c-0.06-0.33-0.17-0.66-0.17-0.99c-0.05-2.29-0.09-4.58-0.1-6.88c0-0.58,0.19-1.15,0.25-1.73c0.04-0.49,0.01-0.99-0.16-1.5
			c-0.19,0.43-0.38,0.85-0.57,1.28c-0.09-0.03-0.17-0.06-0.26-0.09C168.67,190.37,169.1,189.58,169.34,188.77z M167.44,196.04
			c0.25-0.39,0.32-0.89,0.47-1.34c0.08,0,0.17,0.01,0.25,0.01c0,1.07,0.03,2.14-0.01,3.2c-0.04,1.05-0.22,2.09-0.22,3.13
			c0,0.46,0.33,0.9,0.44,1.37c0.1,0.4,0.13,0.82,0.15,1.24c0.03,0.76,0,1.53,0.08,2.29c0.03,0.29,0.26,0.56,0.4,0.84
			c0.09-0.01,0.18-0.03,0.26-0.04c0.22-1.31,0.43-2.63,0.65-3.94c0.12,0.01,0.23,0.02,0.35,0.03c0.02,0.21,0.08,0.42,0.05,0.62
			c-0.2,1.21-0.51,2.37-0.46,3.66c0.08,2.19-0.36,4.39-0.36,6.59c0,1.94,0.29,3.87,0.49,5.81c0.18,1.68,0.42,3.36,0.62,5.05
			c0.01,0.11-0.11,0.23-0.23,0.46c-0.09-0.25-0.12-0.38-0.19-0.48c-0.09-0.14-0.22-0.26-0.33-0.38c-0.13,0.13-0.36,0.26-0.37,0.39
			c-0.01,0.47,0.06,0.95,0.1,1.43c0.03,0.33,0.05,0.65-0.08,1.03c-0.08-0.12-0.2-0.23-0.25-0.36c-0.63-1.67-1.25-3.34-1.87-5.01
			c-0.18-0.49-0.1-0.77,0.43-1.09c0.49-0.29,1.38-0.52,0.96-1.6c-0.55,0.34-1.07,0.68-1.63,1.03c-0.11-0.16-0.22-0.25-0.22-0.34
			c-0.03-1.49-0.08-2.98-0.05-4.47c0.01-0.25,0.39-0.49,0.58-0.75c0.19-0.26,0.35-0.54,0.44-0.86c-1.04,0.21-1.07,0.21-1.05-0.77
			c0.03-1.1,0.13-2.2,0.21-3.3c0.01-0.14,0.06-0.29,0.02-0.42c-0.83-2.86-0.28-5.81-0.59-8.71
			C166.31,198.86,166.59,197.37,167.44,196.04z M165.58,215.52c0.16-0.01,0.33-0.02,0.49-0.03c0.06,0.55,0.13,1.11,0.19,1.66
			l-0.26,0.01C166.09,216.6,165.33,216.08,165.58,215.52z M165.94,214.23c-0.06,0.07-0.62-0.13-0.81-0.34
			c-0.2-0.23-0.32-0.6-0.33-0.91c-0.02-0.67-0.07-1.39,0.12-2.01c0.12-0.38,0.66-0.63,1.01-0.94c0.09,0.05,0.19,0.11,0.28,0.16
			c0.02,0.44,0.04,0.88,0.07,1.31c0.04,0.56,0.18,1.12,0.13,1.66C166.4,213.54,166.18,213.94,165.94,214.23z M163.16,213.98
			l-0.26,0.03c-0.12-0.23-0.32-0.46-0.34-0.7c-0.14-2.32-0.06-4.63,0.49-6.9c0.3-1.21,0.56-2.42,0.88-3.62
			c0.11-0.42,0.32-0.82,0.63-1.19C163.39,205.65,163.27,209.81,163.16,213.98z M165.76,202.51c0.07,0.34,0.19,0.67,0.19,1.01
			c0.03,1.61,0.03,3.22,0.04,4.84c0.01,1.15-0.46,1.57-1.71,1.41C164.39,207.3,164.6,204.85,165.76,202.51z M162.96,214.85
			c0.11,0.75,0.2,1.39,0.32,2.28c0.19-0.33,0.38-0.56,0.46-0.82c0.09-0.3,0.08-0.62,0.11-0.93c0.12-0.01,0.23-0.03,0.35-0.04
			c0.39,1.58,0.78,3.17,1.2,4.85c-0.71,0.11-1.23,0.18-1.81,0.27c-0.07-0.98-0.14-1.89-0.21-2.79c-0.11-0.01-0.22-0.01-0.33-0.02
			l-0.14,2.34C162.08,215.38,162.08,215.38,162.96,214.85z M114.7,196.78c1.96-3.04,3.88-6.11,5.89-9.12
			c0.97-1.45,2.14-2.77,3.16-4.19c0.81-1.12,1.52-2.32,2.3-3.47c1.45-2.14,3.06-4.15,5.03-5.83c0.06-0.06,0.15-0.1,0.19-0.17
			c1.07-1.72,2.57-1.54,4.17-0.98c2.7,0.93,5.4,1.84,8.09,2.78c0.2,0.07,0.46,0.19,0.54,0.36c0.36,0.73,1.05,0.79,1.71,0.95
			c0.69,0.17,1.37,0.33,2.05,0.53c2.19,0.64,4.37,1.29,6.55,1.94c0.32,0.1,0.63,0.21,1.14,0.38c-0.63,0.75-1.15,1.34-1.64,1.96
			c-1.38,1.76-2.74,3.54-4.13,5.28c-0.4,0.5-0.93,0.91-1.37,1.38c-0.99,1.04-2.03,2.04-2.92,3.15c-1.04,1.3-1.97,2.7-2.92,4.07
			c-1.35,1.96-2.76,3.89-4.28,5.72c-0.35,0.43-0.93,0.66-1.41,0.99c-0.16,0.11-0.37,0.18-0.46,0.33c-0.66,1.09-1.29,2.2-1.87,3.19
			c-1.9-0.41-3.71-0.7-5.45-1.21c-1.6-0.47-3.12-1.19-4.68-1.78c-1.83-0.69-3.69-1.33-5.51-2.05c-1.21-0.48-1.19-0.54-1.02-1.85
			c-0.21,0.31-0.42,0.63-0.69,1.03c0.08-0.02,0.01,0.02-0.02,0c-0.67-0.36-1.34-0.71-2-1.1
			C114.46,198.66,114.25,197.48,114.7,196.78z M109.23,216.34c0.76-0.54,1.64-0.99,2.23-1.68c1.02-1.21,1.86-2.57,2.77-3.87
			c0.15-0.21,0.24-0.48,0.43-0.62c1.88-1.33,1.24-3.15,0.96-4.88c-0.12-0.77-0.42-1.5-0.71-2.53c0.66,0.16,1.05,0.21,1.41,0.34
			c2.5,0.93,4.98,1.89,7.48,2.8c0.85,0.31,1.76,0.43,2.61,0.73c1.07,0.37,2.08,0.89,3.15,1.24c0.67,0.22,1.4,0.24,2.09,0.35
			c0.16,0.23,0.42,0.54,0.62,0.88c0.3,0.52,0.58,1.05,0.83,1.59c0.17,0.38,0.23,0.82,0.42,1.19c0.7,1.32,1.05,2.67,0.55,4.16
			c-0.22,0.65-0.11,1.45-0.44,2.01c-1.2,2-2.59,3.84-5.06,4.42c-0.72,0.17-1.4,0.53-2.13,0.7c-2.35,0.57-4.45-0.11-6.49-1.3
			c-1.04-0.6-2.25-0.92-3.38-1.39c-0.39-0.16-0.79-0.34-1.14-0.57c-0.55-0.35-1.02-0.88-1.62,0.01c-0.09,0.13-0.94-0.13-1.35-0.36
			c-1.17-0.68-2.31-1.42-3.44-2.17c-0.23-0.15-0.37-0.43-0.55-0.64C108.74,216.62,109,216.5,109.23,216.34z M122.87,224.46
			c-0.27,0.33-0.44,0.53-0.63,0.76c-0.44-0.48-0.83-0.91-1.22-1.33c0.02-0.06,0.04-0.11,0.06-0.17
			C121.65,223.95,122.21,224.18,122.87,224.46z M85.5,241.39c-0.29-0.1-0.7-0.15-0.84-0.37c-0.19-0.3-0.28-1.03-0.21-1.06
			c1.01-0.4,0.71-1.49,1.23-2.18c1.04,0.31,1.55-0.39,2.04-1.17c0.77-1.22,1.55-2.43,2.35-3.67c-0.13-0.08-0.2-0.26-0.06-0.39
			c0.31-0.28,0.61-0.58,0.89-0.9c0.13-0.21,0.27-0.41,0.4-0.62c0.02,0.03,0.03,0.06,0.04,0.09c0.16-0.2,0.32-0.4,0.47-0.61
			c0.32-0.44,0.62-0.9,0.92-1.36c-0.01-0.01-0.02-0.01-0.03-0.02c0.05-0.06,0.11-0.13,0.16-0.19c1.16-1.84,2.25-3.77,3.8-5.27
			c1.78-2.5,3.44-4.83,5.11-7.17c0.1,0.06,0.19,0.12,0.29,0.18c-0.13,0.26-0.25,0.52-0.38,0.77c-0.22,0.44-0.22,0.93,0.25,1.09
			c0.44,0.15,1.1,0.53,1.43-0.13c0.3-0.62,0.67-0.53,1.08-0.28c1.59,0.95,3.35,1.62,4.75,2.9c0.48,0.45,1.12,0.46,1.73-0.12
			c0.17,0.39,0.24,0.85,0.51,1.1c0.47,0.44,1.04,0.77,1.59,1.11c0.89,0.55,1.75,1.19,2.7,1.59c1.3,0.54,2.68,0.87,4.02,1.32
			c0.34,0.11,0.69,0.29,0.95,0.52c0.06-0.05,0.13-0.09,0.2-0.13c0.2-0.1,0.44,0.07,0.38,0.29c-0.23,0.87-0.63,1.68-1.09,2.44
			c-0.43,0.71-0.93,1.38-1.46,2.02c-0.32,0.4-0.67,0.78-1.01,1.17c-0.17,0.43-0.59,0.92-1.06,1.31c-0.14,0.19-0.27,0.39-0.4,0.59
			c0,0,0,0.01-0.01,0.01c-0.48,0.9-0.96,1.8-1.51,2.66c-0.07,0.11-0.18,0.14-0.27,0.11c-0.14,0.25-0.29,0.49-0.43,0.73
			c-0.86,1.46-1.68,2.95-2.59,4.39c-0.8,1.27-1.73,2.45-2.55,3.71c-0.57,0.88-1.07,1.81-1.59,2.72c-0.14,0.24-0.23,0.52-0.37,0.76
			c-0.4,0.67-0.85,0.75-1.61,0.39c-2.4-1.14-4.86-2.17-7.3-3.24c-2.75-1.2-5.49-2.44-8.27-3.59
			C88.36,242.31,86.92,241.89,85.5,241.39z M109.02,250.94c-0.07,0.02-0.14,0.05-0.21,0.06c-0.26,0.03-0.52,0.05-0.77,0.07
			c0.08-0.17,0.11-0.42,0.24-0.5C108.67,250.35,108.97,250.44,109.02,250.94z M104.36,251.8c-1.54,0.51-2.43-0.49-3.37-1.38
			C102.31,250.39,103.21,251.39,104.36,251.8z M107.83,257.51c-2.66-1.39-5.58-2.02-8.42-2.87c-1.91-0.57-3.96-0.69-5.73-1.73
			c-0.36-0.22-0.87-0.19-1.31-0.28c-1.12-0.22-1.42-0.75-1.63-1.83c-0.16-0.82-0.66-1.6-1.12-2.34c-0.8-1.29-1.69-2.53-2.46-3.98
			c0.41,0.11,0.84,0.16,1.22,0.33c3.2,1.35,6.4,2.73,9.59,4.09c0.14,0.06,0.3,0.08,0.45,0.12c-0.02,0.09-0.03,0.19-0.05,0.28
			c-0.77-0.16-1.54-0.31-2.32-0.47c-0.05,0.09-0.1,0.18-0.15,0.27c0.37,0.27,0.71,0.67,1.13,0.78c1.4,0.36,2.57,1.07,3.79,1.81
			c0.86,0.52,1.48,1.52,2.7,1.51c0.34,0,0.68,0.47,1.03,0.73c0.74-0.8,1.47-0.67,2.27,0.65c0.55,0.92,0.93,1.95,1.42,2.97
			C108.09,257.54,107.93,257.57,107.83,257.51z M113.27,262.33c0.07,0,0.14-0.01,0.21-0.01c0.04,0.59,0.07,1.17,0.11,1.76
			C112.4,263.5,113.35,262.91,113.27,262.33z M114.31,262.98c-0.16-0.41-0.29-0.75-0.43-1.11c0.59-0.2,1.1-0.37,1.81-0.61
			C115.2,261.87,114.83,262.33,114.31,262.98z M160.43,198.1c-2.11,2.62-4.25,5.23-6.31,7.89c-2.42,3.1-4.78,6.25-7.15,9.38
			c-1.35,1.78-2.65,3.6-4,5.38c-0.82,1.08-1.69,2.12-2.53,3.17c-0.9,1.12-1.8,2.24-2.68,3.38c-0.34,0.45-0.63,0.94-0.93,1.42
			c-0.29,0.47-0.64,0.74-1.07,0.86c-0.15,0.23-0.31,0.47-0.46,0.7c-0.85,1.29-1.71,2.58-2.62,3.84c-0.08,0.23-0.26,0.46-0.48,0.65
			c-0.45,0.61-0.92,1.21-1.4,1.8c0.01,0.13,0.02,0.25-0.04,0.33c-1.43,1.89-2.88,3.77-4.3,5.67c-0.64,0.85-1.23,1.75-1.86,2.61
			c-0.84,1.14-1.74,2.24-2.56,3.39c-1.15,1.61-2.21,3.28-3.37,4.88c-0.85,1.17-1.83,2.24-2.69,3.4c-0.67,0.9-1.27,1.85-1.85,2.82
			c-0.36,0.59-0.83,0.41-1.14,0.14c-0.83-0.74-1.95-1.09-2.49-2.27c-0.47-1.03-1.41-1.83-2.11-2.76c-0.29-0.38-0.56-0.79-0.76-1.22
			c-0.33-0.69,0.25-1.08,0.6-1.53c0.28-0.37,0.56-0.74,0.84-1.11c0,0-0.01,0-0.01,0c0.29-0.6,0.55-1.21,0.89-1.78
			c0.36-0.6,0.74-1.2,1.2-1.73c0.46-0.52,0.71-1.06,0.9-1.75c0.29-1.03,0.9-1.99,1.44-2.93c0.99-1.71,2.02-3.4,3.09-5.06
			c0.38-0.59,0.88-1.13,1.4-1.62c0.1-0.26,0.22-0.52,0.36-0.77c0.67-1.22,1.63-2.25,2.39-3.41c0.76-1.15,1.44-2.36,2.21-3.51
			c0,0,0,0-0.01,0c0.42-0.77,0.66-1.56,1.18-2.06c0.39-0.38,1.13-0.54,1.73-0.57c1.86-0.09,3.59-0.66,5.16-1.56
			c1.73-0.99,3.55-2.01,4.32-4.01c0.39-1.01,0.54-2.13,0.68-3.22c0.24-1.86,0.92-3.68,0.65-5.6c-0.04-0.25-0.03-0.58-0.18-0.73
			c-0.63-0.63-0.4-1.22-0.02-1.83c0.7-1.14,1.38-2.3,2.11-3.42c0.24-0.37,0.42-0.87,1.15-0.7c0.25,0.06,0.68-0.59,1.01-0.93
			c0.77-0.8,1.55-1.59,2.3-2.41c0.14-0.16,0.26-0.44,0.23-0.64c-0.1-0.56,0.21-0.79,0.64-0.94c0.67-0.24,1.31-1.32,1.69-1.73
			c0.62-0.67,0.07-1.5,0.56-2.07c0.5-0.58,1.09-1.06,1.62-1.61c0.71-0.74,1.57-1.36,1.88-2.44c0.08-0.28,0.41-0.65,0.68-0.7
			c0.9-0.17,1.37-0.73,1.66-1.52c0.17-0.45,0.56-0.68,0.84-1c0.5-0.56,0.84-1.27,1.23-1.92c1.14-1.88,2.23-3.78,3.43-5.62
			c0.2-0.31,0.83-0.33,1.45-0.55c-0.14,0.57-0.21,0.85-0.3,1.23c0.5-0.3,0.92-0.74,1.28-0.7c0.38,0.04,0.71,0.56,1.08,0.84
			c1.21,0.92,2.39,1.87,3.66,2.7c0.48,0.32,1.16,0.35,1.86,0.55c-0.18,0.56-0.3,1.11-0.52,1.61c-0.8,1.81-1.67,3.59-2.46,5.41
			c-0.63,1.45-1.13,2.95-1.8,4.37C161.44,197.17,160.85,197.58,160.43,198.1z M162.89,228.51c-0.27-0.77-0.46-1.56-0.69-2.34
			c-0.7-2.34-1.18-4.72-0.96-7.18c0.02-0.25,0.04-0.51,0.07-0.76c0.01-0.11,0.07-0.21,0.1-0.31c0.06,0,0.13,0,0.19-0.01
			c0.04,0.32,0.09,0.64,0.13,0.96c0.27,2.1,0.44,4.21,0.85,6.28c0.2,1,0.1,2.18,1,2.99c0.09,0.08-0.05,0.41-0.08,0.62
			C163.28,228.68,162.93,228.65,162.89,228.51z M163.95,231.06c-0.26-0.43-0.51-0.86-0.88-1.48
			C164.03,229.67,164.32,230.19,163.95,231.06z M165.76,227.68c-0.15-0.53-0.36-1.04-0.55-1.56c-0.1,0-0.2,0.01-0.3,0.01
			c-0.05,0.62-0.11,1.25-0.16,1.87c-0.11,0.01-0.21,0.02-0.32,0.03c-0.44-2.1-0.88-4.2-1.34-6.39c0.45,0,0.65,0.01,0.84,0
			c1.32-0.05,1.28-0.04,1.71,1.28c0.54,1.66,1.15,3.3,1.73,4.95c0.09,0.25,0.11,0.53,0.17,0.79
			C166.36,228.94,166.07,228.76,165.76,227.68z M166.56,234.51c0.33,0.16,0.62,0.21,0.73,0.38c1.07,1.61,2.09,3.25,3.15,4.86
			c0.33,0.5,0.73,0.96,1.1,1.44c-0.07,0.06-0.15,0.12-0.22,0.18C169.35,239.46,167.65,237.36,166.56,234.51z M168.95,240.1
			c2.57,2.32,5.18,4.69,7.81,7.07C175.16,247.12,168.83,241.27,168.95,240.1z M179.86,248.18c-0.12,0.07-0.52-0.36-0.98-0.7
			c0.5-0.07,0.72-0.1,0.93-0.14c0.81-0.16,1.09-0.83,0.52-1.43c-0.53-0.56-1.19-0.99-1.79-1.5c-0.19-0.16-0.38-0.34-0.5-0.55
			c-0.28-0.49-0.53-1-0.79-1.51c-0.46-0.92-0.14-1.63,0.86-1.86c0.16-0.04,0.43,0.1,0.56,0.24c1.14,1.33,2.26,2.69,3.39,4.03
			c0.04,0.04,0.07,0.09,0.09,0.14c0.44,0.85-0.2,1.45-0.61,1.98C181.12,247.44,180.47,247.83,179.86,248.18z M181.58,249.44
			c0.71-0.81,1.37-1.56,2.05-2.34c1.23,0.55-0.63,1.33,0.34,1.95c0.32-0.12,0.8-0.3,1.3-0.49c0.78,0.75,1.59,1.51,2.45,2.34
			c-0.73-0.07-1.48-0.05-2.18-0.24C184.19,250.3,182.6,250.66,181.58,249.44z M185.8,246.65c1.76,0.64,2.84,2.12,4.2,3.25
			C188.22,249.31,186.85,248.18,185.8,246.65z M185.47,251.69c1.15-0.06,2.36-0.16,3.57-0.17c0.88-0.01,1.77,0.03,2.62,0.19
			c0.93,0.17,1.82,0.52,2.8,0.81c0.04-0.22,0.1-0.48,0.18-0.92c1.2,0.37,2.39,0.73,3.67,1.12
			C195.19,254.7,186.73,253.3,185.47,251.69z M205.63,250.37c-0.71,0.36-1.42,0.71-2.14,1.06c-0.18,0.09-0.37,0.2-0.55,0.2
			c-1.82-0.04-3.64,0.37-5.45-0.35c-0.93-0.37-2.05-0.49-3.06-0.42c-1.48,0.1-2.48-0.55-3.61-1.71c3.52,0.95,6.88,1.24,10.28,1.29
			c-0.68-0.54-1.49-0.46-2.27-0.51c-0.77-0.04-1.56,0.01-2.3-0.14c-1.18-0.24-2.33-0.7-3.52-0.9c-1.64-0.27-3.04-1.01-4.33-1.98
			c-0.68-0.51-1.32-1.08-1.91-1.69c-0.16-0.17-0.09-0.56-0.14-0.91c-1.55,0.42-2.34-0.84-3.16-1.68c-2.45-2.51-4.74-5.17-7.09-7.77
			c-0.34-0.38-0.71-0.74-1.02-1.14c-0.18-0.24-0.29-0.54-0.45-0.85c0.77-0.18,1.36-0.38,1.96-0.43c0.26-0.02,0.63,0.18,0.82,0.39
			c1.16,1.28,2.27,2.61,3.42,3.89c0.67,0.75,1.37,1.42,2.45,1.67c0.56,0.13,0.99,0.82,1.5,1.21c1.35,1.03,2.72,2.03,4.07,3.04
			c1.5,1.12,2.98,2.25,4.49,3.35c0.29,0.21,0.65,0.32,0.97,0.47c0.7,0.34,1.4,0.7,2.11,1.01c0.42,0.18,0.86,0.34,1.31,0.43
			c1.22,0.22,2.44,0.42,3.66,0.58c1.37,0.17,2.75,0.3,4.13,0.41c0.59,0.05,1.2,0.01,1.8,0.01c0.02,0.12,0.04,0.25,0.07,0.37
			C207,249.64,206.32,250.01,205.63,250.37z M211.64,251.18c-0.06-0.13-0.13-0.26-0.19-0.39c0.37-0.18,0.73-0.41,1.12-0.53
			c0.86-0.28,1.81-0.26,2.49-1.1c0.32-0.39,0.99-0.69,1.66-0.03C215.17,250.3,213.35,250.6,211.64,251.18z M216.61,250.55
			l-0.15-0.37c0.83-0.21,1.23-1.48,2.31-1.08c0.06,0.13,0.11,0.26,0.17,0.4C218.16,249.86,217.39,250.2,216.61,250.55z
			 M240.64,210.75c-0.36,2.38,0.16,4.82-0.59,7.17c-0.77,2.42-1.53,4.85-2.18,7.31c-0.66,2.51-2.07,4.65-3.17,6.95
			c-0.42,0.88-1.08,1.67-1.72,2.41c-1.57,1.82-3.12,3.68-4.84,5.35c-1.26,1.23-2.89,2.07-4.17,3.29c-1.08,1.03-2.23,1.34-3.64,1.45
			c-0.88,0.07-1.7,0.71-2.59,0.95c-1.33,0.36-2.69,0.87-4.07,0.13c-0.12-0.06-0.31-0.14-0.39-0.09c-1.4,0.97-2.93,0.34-4.34,0.18
			c-2.34-0.28-4.66-0.8-6.94-1.42c-2.14-0.59-4.26-1.35-6.3-2.22c-1.38-0.6-2.63-1.52-3.92-2.32c-0.73-0.45-1.59-0.83-2.09-1.47
			c-0.71-0.9-1.95-1.54-1.83-2.97c0.01-0.13-0.13-0.33-0.25-0.42c-1.53-1.1-2.41-2.73-3.58-4.38c0.1-0.02,0.19-0.05,0.29-0.07
			c-0.11-0.16-0.21-0.33-0.31-0.5c-0.22-0.39-0.42-0.8-0.59-1.23c-0.12-0.09-0.21-0.19-0.26-0.29c-0.52-1.06-0.95-2.16-1.37-3.27
			c-0.3-0.79-0.53-1.61-0.79-2.42c-0.03-0.08-0.05-0.17-0.05-0.25c0-2.23-1.23-4.1-1.82-6.16c-0.45-1.55-0.91-3.09-1.32-4.64
			c-0.38-1.45-0.73-2.9-1.02-4.37c-0.21-1.08-0.29-2.18-0.45-3.27c-0.61-4.34-0.74-8.7-0.64-13.07c0.01-0.42,0.15-0.84,0.18-1.26
			c0.2-2.57,0.42-5.13,0.55-7.7c0.04-0.79,0.24-1.38,0.98-1.67c-0.01-0.11-0.01-0.2-0.03-0.21c-0.89-0.29-0.95-0.99-0.96-1.79
			c-0.04-2.55-0.29-5.09,0.31-7.62c0.16-0.69,0.14-1.43,0.19-1.96h3.1c0.01,0.08,0.02,0.15,0.03,0.23
			c-0.07,0.06-0.16,0.12-0.22,0.19c-0.14,0.18-0.27,0.37-0.41,0.56c0.24,0.09,0.58,0.33,0.72,0.25c1.42-0.83,2.6,0.06,3.86,0.47
			c1.57,0.51,2.98,1.4,4.73,1.47c1.45,0.05,2.89,0.53,4.33,0.81c0.97,0.19,1.97,0.27,2.91,0.56c1.41,0.44,2.89,0.47,4.25,1.31
			c1.07,0.66,2.54,0.69,3.84,0.99c0.22,0.05,0.53,0.02,0.65,0.16c0.57,0.64,1.34,0.78,2.1,1c0.11,0.03,0.24,0.13,0.35,0.24
			c0.07,0.03,0.16,0.06,0.23,0.08c0.12,0.04,0.24,0.08,0.35,0.11c0.25,0.08,0.49,0.15,0.73,0.25c0.13,0.05,0.26,0.11,0.39,0.17
			c0.21-0.03,0.49,0.03,0.84,0.2c1.76,0.85,3.48,1.79,5.21,2.7c0.4,0.21,0.81,0.4,1.2,0.64c0.64,0.39,1.31,0.75,1.87,1.23
			c0.83,0.71,1.58,1.52,2.39,2.26c0.2,0.18,0.5,0.26,0.86,0.24c-0.44-0.56-0.89-1.11-1.4-1.76c0.24,0.02,0.44-0.03,0.53,0.05
			c2.41,2.23,5.34,3.84,7.58,6.31c1.32,1.45,3,2.58,4.37,3.99c1.25,1.29,2.42,2.7,3.43,4.19c1.05,1.54,1.95,3.19,2.74,4.88
			c0.52,1.1,0.74,2.35,1.05,3.55c0.34,1.28,0.63,2.57,0.95,3.86C240.56,210.31,240.67,210.54,240.64,210.75z"/>
		<path class="st0" d="M164.97,173.56c-0.8-0.45-1.5-1.1-2.31-1.53c-0.56-0.29-1.22-0.46-1.85-0.51c-1.39-0.13-2.41,0.75-3.49,1.45
			c-0.54,0.34-0.88,0.94-1.75,0.8c-0.35-0.06-0.85,0.69-1.24,1.11c-0.06,0.06,0.13,0.53,0.25,0.54c0.51,0.06,1.11,0.2,1.52,0
			c0.61-0.3,1.12-0.85,1.63-1.34c1.86-1.78,3.6-1.86,5.63-0.27c0.76,0.59,1.51,1.21,2.33,1.7c1.14,0.68,2.36,0.91,3.64,0.24
			c0.11-0.06,0.25-0.07,0.4-0.07c0.06-0.25,0.12-0.5,0.19-0.74c-0.12,0.04-0.25,0.08-0.35,0.09
			C167.81,175.28,166.4,174.36,164.97,173.56z"/>
		<path class="st2" d="M175.19,165.82c0.26-0.2,0.53-0.38,0.82-0.55C175.6,165.28,175.33,165.45,175.19,165.82z"/>
		<path class="st0" d="M180.2,164.61c-0.74-2.26-0.75-4.62-1.09-6.93c-0.23-1.59-0.37-3.21-0.43-4.82
			c-0.03-0.86,0.25-1.71-0.14-2.56c-0.17-0.37-0.02-0.7,0.45-0.83c0.76-0.21,0.63-0.81,0.58-1.39c-0.06-0.61-0.44-0.66-0.94-0.71
			c-1.31-0.15-2.62-0.36-3.92-0.56c-0.58-0.08-0.88,0.08-0.97,0.74c-0.07,0.5-0.15,1-0.99,1.11c-1.63,0.21-3.31,0.48-4.8,1.12
			c-1.47,0.63-2.98,1-4.51,1.31c-1.77,0.36-3.55,0.64-5.33,0.9c0.07,0.15-0.01,0.37-0.22,0.37c-4.13-0.06-8.01,1.61-12.02,2.29
			c-3.74,0.63-7.51,0.31-11.28,0.49c-1.96,0.09-3.91,0.27-5.87,0.47c-1.91,0.19-3.82,0.43-5.75,0.49
			c-3.87,0.11-7.72-0.29-11.58-0.42c-0.95-0.03-1.91-0.02-2.86-0.05c-0.89-0.03-1.78-0.13-2.65-0.28c-0.2,0.22-0.4,0.38-0.62,0.5
			c0.23,0.11,0.47,0.22,0.71,0.32c0.73,0.3,1.47,0.58,2.13,1c0.06,0.04,0.1,0.1,0.12,0.17c0.32-0.04,0.64-0.07,0.96-0.08
			c1.66-0.07,3.33-0.03,5-0.12c3.08-0.16,6.17-0.34,9.25-0.57c1.7-0.13,3.38-0.44,5.07-0.56c1.04-0.07,2.1,0.16,3.14,0.1
			c1.94-0.1,3.88-0.31,5.82-0.48c1.83-0.16,3.66-0.37,5.5-0.49c1.12-0.07,2.25-0.01,3.53-0.01c-4.06,1.9-8.22,2.13-12.46,2.23
			c-4.36,0.11-8.72,0.46-13.07,0.78c-4.65,0.34-9.29,0.37-13.92-0.23c-0.1-0.01-0.2-0.07-0.3-0.1c0-0.04-0.01-0.08-0.01-0.12
			c-0.35-0.07-0.7-0.19-1.01-0.3c-0.85-0.3-1.67-0.68-2.49-1.05c-0.65-0.3-1.32-0.55-2-0.78c-0.89-0.31-1.79-0.63-2.64-1.04
			c-0.47-0.23-1-0.5-1.4-0.88c-0.33,0-0.67,0.02-0.99,0.02c-1.25,0.02-1.57,0.33-1.91,1.47c-0.04,0.13-0.07,0.28-0.07,0.42
			c-0.01,2.3,0.02,4.59-0.02,6.89c-0.02,1.24-0.18,2.48-0.25,3.73c-0.15,2.55-0.43,5.1-0.37,7.64c0.05,2.02,0.53,4.02,0.83,6.03
			c0.49,3.34,0.92,6.68,1.51,10c0.71,3.98,1.57,7.94,2.38,11.91c0.14,0.71,0.35,1.4,0.49,1.91c0.44,0.1,0.75,0.17,1.05,0.25
			c0.43,0.11,0.85,0.32,1.28,0.34c3.63,0.14,7.24-0.14,10.84-0.53c0.25-0.03,0.44-0.02,0.58,0.04c-0.34-1.61-1.04-3.1-1.86-4.53
			c-0.02,0.01-0.05,0.03-0.07,0.04c-0.55,0.3-0.52,1.02-0.01,1.42c0.19,0.15,0.43,0.26,0.86,0.51c-0.43,0.07-0.67,0.18-0.87,0.13
			c-1.79-0.41-3.54,0.1-5.3,0.16c-0.36,0.01-0.81-0.13-1.09-0.36c-0.53-0.45-1.04-0.26-1.6-0.17c-0.37,0.06-0.78,0-1.15-0.1
			c-0.32-0.09-0.66-0.25-0.9-0.48c-0.3-0.29-0.66-0.64-0.74-1.01c-0.25-1.24-0.45-2.49-0.54-3.75c-0.02-0.29,0.09-0.58,0.21-0.88
			c-0.1-0.44-0.2-0.89-0.26-1.33c-0.07,0.01-0.14,0.03-0.22,0.04c-0.18-0.79-0.38-1.55-0.51-2.31c-0.44-2.6-0.88-5.19-1.29-7.79
			c-0.33-2.11-0.66-4.23-0.93-6.35c-0.06-0.49,0.13-1.01,0.12-1.51c-0.01-0.31-0.25-0.62-0.27-0.93c-0.05-0.62-0.05-1.25-0.01-1.87
			c0.13-1.97,0.32-3.94,0.43-5.92c0.08-1.55,0.07-3.11,0.11-4.67c0-0.17,0.01-0.34,0.05-0.5c0.35-1.33,0.54-2.67-0.2-4.16
			c0.5,0.08,0.82,0.1,1.11,0.19c0.56,0.19,1.11,0.41,1.66,0.65c0.25,0.11,0.57,0.23,0.71,0.44c1,1.59,2.62,1.77,4.25,1.89
			c0.84,0.06,1.69-0.09,2.54-0.08c2.98,0.04,5.96,0.18,8.93,0.15c2.42-0.03,4.84-0.27,7.26-0.4c2.72-0.15,5.44-0.26,8.15-0.41
			c3.19-0.18,6.39-0.29,9.56-0.64c2.2-0.25,4.37-0.84,6.55-1.3c2.65-0.56,5.3-1.15,7.96-1.71c0.8-0.17,1.63-0.19,2.42-0.37
			c1.42-0.33,2.82-0.73,4.23-1.09c0.9-0.23,1.78-0.53,2.69-0.69c2.62-0.46,5.02-1.52,7.45-2.51c0.99-0.4,2.04-0.66,3.07-0.94
			c0.76-0.21,1.05,0.28,1.12,0.9c0.25,2.41,0.51,4.82,0.69,7.23c0.15,2.03,0.22,4.08,0.33,6.18c0.79,0.06,1.56,0.79,2.23,1.32
			c0.67,0.42,1.38,0.63,2.11,0.78C180.85,166.38,180.51,165.57,180.2,164.61z"/>
		<path class="st2" d="M143.95,46.7c0,0.35,0.01,0.7,0.03,1.04c0.08-0.12,0.16-0.23,0.22-0.33
			C144.11,47.17,144.03,46.93,143.95,46.7z"/>
		<path class="st0" d="M145.31,45.58c-0.14,0.17-0.25,0.31-0.38,0.47c0.08,0.04,0.15,0.1,0.22,0.09c0.79-0.03,1.58-0.16,2.36-0.1
			c1.07,0.09,2.13,0.31,3.19,0.5c2,0.34,4,0.68,5.98,1.07c0.41,0.08,0.76,0.42,1.16,0.57c0.61,0.22,1.25,0.35,1.87,0.55
			c0.2,0.07,0.46,0.19,0.55,0.36c0.3,0.58,0.65,1.15,0.94,1.73c-0.23-1.92-0.81-3.89-1.91-5.48c0.08,0.22,0.15,0.47,0.27,0.81
			c-5.19-1.06-10.07-2.31-15.14-2.22c-0.33,0.72-0.45,1.56-0.48,2.41C144.42,46.15,144.48,45.24,145.31,45.58z"/>
		<path class="st2" d="M76.74,112.24c-0.01,0.01-0.02,0.02-0.03,0.04c-0.01,0.1-0.03,0.19-0.03,0.29c-0.01,0.14,0.02,0.26,0.07,0.37
			c0.21-0.72,0.43-1.43,0.66-2.14C77.23,111.29,77.02,111.78,76.74,112.24z"/>
		<path class="st2" d="M80.63,101.53c-0.05,0.09-0.1,0.17-0.15,0.26c-0.13,0.3-0.26,0.6-0.38,0.9c-0.03,0.08-0.06,0.15-0.09,0.23
			c0.24-0.5,0.47-1,0.71-1.5C80.69,101.46,80.66,101.5,80.63,101.53z"/>
		<path class="st2" d="M75.32,112.42c-0.02-0.01-0.04-0.03-0.05-0.04c-0.22,0.19-0.45,0.38-0.63,0.61c-0.07,0.09-0.14,0.18-0.2,0.27
			c0.33,0.01,0.65,0.02,0.98,0.04c-0.02-0.06-0.03-0.12-0.05-0.18C75.31,112.89,75.3,112.65,75.32,112.42z"/>
		<path class="st2" d="M212.17,195.95c-0.34-0.22-0.86-0.24-1.3-0.24c-1.38,0.01-2.49-0.67-3.61-1.33
			c-0.19-0.11-0.33-0.23-0.46-0.36c-1.17-0.36-2.18-1.06-3.1-1.88c-0.55-0.32-1.09-0.67-1.63-1.02c-0.55-0.35-1.07-0.74-1.62-1.08
			c-0.58-0.36-1.07-0.27-1.41,0.39c0.03,0.06,0.05,0.16,0.11,0.21c1.13,0.88,2.28,1.73,3.39,2.62c0.67,0.54,1.3,1.13,1.91,1.73
			c0.03,0.03,0.05,0.07,0.07,0.11c0.5,0.18,0.98,0.43,1.47,0.66c0.12-0.06,0.25-0.1,0.32-0.07c1.38,0.69,2.74,1.43,4.1,2.16
			c0.17,0.09,0.32,0.28,0.5,0.31c1.81,0.27,2.62,1.76,3.63,3c0.48,0.59,0.77,1.33,1.28,1.88c0.32,0.35,0.89,0.62,1.35,0.62
			c0.2,0,0.56-0.75,0.58-1.16c0.04-1.1-0.35-2.06-1.11-2.94C215.37,198.06,213.78,196.99,212.17,195.95z"/>
		<path class="st2" d="M195.08,214.17c0.21,1.03,0.43,1.47,1.03,1.67c-0.15-0.28-0.3-0.57-0.44-0.86c-0.38-0.8-0.67-1.64-1-2.45
			C194.82,213.07,194.97,213.62,195.08,214.17z"/>
		<path class="st2" d="M137.68,90.27C137.73,90.38,137.7,90.33,137.68,90.27L137.68,90.27z"/>
		<path class="st2" d="M243.03,219.24c0.09,0.84,0.41,1.39-0.21,2.1c-0.41,0.47-0.36,1.33-0.57,2c-0.07,0.24-0.31,0.42-0.47,0.63
			c-0.07-0.24-0.25-0.51-0.19-0.73c0.31-1.23,0.67-2.45,1.02-3.66C242.63,219.5,242.77,219.45,243.03,219.24z"/>
		<path class="st2" d="M209.93,160.97c-0.05-0.8-0.1-1.6-0.14-2.37c0.32,0.24,0.74,1.92,0.51,2.27c-0.05,0.08-0.26,0.05-0.39,0.07
			C209.91,160.94,209.93,160.97,209.93,160.97z"/>
		<path class="st2" d="M84.93,223.4c-0.35-0.31-0.7-0.61-1.05-0.92c0.09-0.1,0.18-0.21,0.27-0.31c0.36,0.3,0.72,0.59,1.07,0.89
			C85.13,223.17,85.03,223.29,84.93,223.4z"/>
		<path class="st0" d="M119.97,181.25c-0.55,0.17-1.1,0.35-1.66,0.5c-0.45,0.12-0.98,0.1-1.36,0.34c-1.18,0.73-2.38,0.51-3.52,0.08
			c-1.84-0.69-3.73-0.62-5.63-0.62c-0.72,0-1.31,0.24-1.4,1.15c-0.04,0.45-0.33,0.87-0.51,1.3c-0.11-0.02-0.22-0.04-0.32-0.05
			c0.11-0.82,0.22-1.63,0.34-2.5c-1.32,0.52-1.66,1.61-0.98,2.7c0.13,0.21,0.14,0.49,0.2,0.73c-0.26-0.03-0.55,0-0.77-0.11
			c-1.15-0.54-1.37-1.5-0.96-2.84c0.33-1.06,1.12-1.47,1.99-1.72c0.94-0.27,1.61-0.82,2.22-1.52c0.66-0.75,1.86-0.88,2.5-0.11
			c0.93,1.12,2.13,1.46,3.46,1.7c0.65,0.12,1.25,0.53,1.9,0.64c0.62,0.1,1.28,0.05,1.9-0.06c0.87-0.16,1.73-0.5,2.54,0.06
			C119.94,181.03,119.95,181.14,119.97,181.25z M109.87,179.85c-0.31-0.82-0.82-1.07-1.37-0.76c-0.22,0.12-0.34,0.4-0.51,0.61
			c0.23,0.12,0.45,0.32,0.68,0.33C109.05,180.04,109.43,179.92,109.87,179.85z"/>
		<path class="st2" d="M228.2,197.81c0.28,0.2,0.59,0.39,0.85,0.62c0.57,0.5,1.13,1.01,1.66,1.54c0.34,0.33,0.69,0.67,0.92,1.08
			c0.94,1.62,1.89,3.23,2.72,4.9c1.51,3.03,2.77,6.16,3.19,9.54c0.28,2.2,0.35,4.43,0.52,6.7c-0.28,0.04-0.46,0.07-0.65,0.09
			c-0.59,1.1-0.59,1.1-1.07,0.87c-0.23,0.43-0.43,0.89-0.72,1.28c-0.15,0.21-0.46,0.3-0.7,0.45c-0.14-0.28-0.4-0.56-0.41-0.84
			c-0.02-1.07,0.08-2.15,0.06-3.22c-0.06-2.41-0.17-4.82-0.23-7.23c-0.01-0.25,0.19-0.5,0.28-0.75c0.04-0.12,0.13-0.26,0.1-0.37
			c-0.36-1.57-0.65-3.16-1.14-4.69c-0.26-0.83-0.92-1.52-1.32-2.31c-0.37-0.72-0.53-1.56-0.95-2.24c-0.67-1.1-1.51-2.09-2.22-3.17
			c-0.41-0.62-0.73-1.32-1.08-1.98C228.07,197.98,228.13,197.89,228.2,197.81z M236.6,216.25c-0.11,0-0.21,0-0.32,0
			c-0.07,0.71-0.19,1.43-0.18,2.14c0.02,1.24,0.11,2.49,0.22,3.73c0.02,0.2,0.28,0.38,0.44,0.56c0.07-0.05,0.13-0.1,0.2-0.15
			C236.84,220.44,236.72,218.34,236.6,216.25z"/>
		<path class="st2" d="M226.18,218.09c-0.1,0.02-0.44,0.1-0.96,0.22c0-1.09,0.01-2.05-0.01-3.01c0-0.21-0.01-0.45-0.13-0.61
			c-0.42-0.6-1.03-1.1-1.3-1.76c-0.21-0.52-0.19-1.27,0.03-1.79c0.18-0.44,1.13-0.19,1.52,0.53c0.72,1.34,1.44,2.71,1.26,4.32
			c-0.01,0.11-0.02,0.23-0.04,0.34C226.45,216.86,226.33,217.38,226.18,218.09z"/>
		<path class="st2" d="M225.86,227.81c1.3,0.77,1.64,1.87,1.86,2.97c0.16,0.79,0.09,1.63,0.1,2.45c0,0.57-0.29,0.91-0.89,0.88
			c-0.58-0.03-0.59-0.44-0.63-0.9c-0.11-1.29-0.3-2.57-0.43-3.86C225.83,228.89,225.86,228.43,225.86,227.81z"/>
		<path class="st2" d="M223.18,189.15c2.29,0.75,4.63,2.86,4.18,3.72c0.31,0.38,0.64,0.72,0.88,1.12c0.1,0.17,0,0.45,0,0.69
			c-0.24-0.02-0.51,0.01-0.72-0.08c-0.16-0.07-0.31-0.27-0.37-0.45c-0.57-1.73-1.94-2.82-3.23-3.97c-0.31-0.28-0.68-0.49-1.02-0.73
			C223,189.35,223.09,189.25,223.18,189.15z"/>
		<path class="st2" d="M202.48,183.44c-0.06-0.01-0.22,0.01-0.34-0.05c-1.7-0.82-3.41-1.61-5.09-2.48
			c-0.62-0.33-1.35-0.68-1.15-1.66c0.1-0.49,0.32-0.61,0.77-0.42c1.82,0.76,3.67,1.46,5.46,2.28c0.47,0.21,0.88,0.71,1.15,1.17
			C203.63,182.88,203.22,183.43,202.48,183.44z"/>
		<path class="st2" d="M188.58,176.88c1.31,0.44,2.46,1.17,3.34,2.26c0.13,0.16-0.05,0.71-0.26,0.94c-0.11,0.13-0.65,0.06-0.84-0.1
			c-0.7-0.58-1.36-1.2-1.97-1.87c-0.25-0.28-0.33-0.71-0.49-1.07C188.44,176.98,188.51,176.93,188.58,176.88z"/>
		<path class="st2" d="M198.91,190.06c-0.35-0.15-0.7-0.29-1.05-0.44c0.05-0.11,0.09-0.22,0.14-0.32
			C198.5,189.11,198.79,189.4,198.91,190.06z"/>
		<path class="st0" d="M110.44,61.13c0.17-0.22,0.28-0.37,0.39-0.52c-0.02-0.07-0.04-0.14-0.07-0.21c-0.45,0.09-0.9,0.19-1.53,0.32
			c-0.75-1.01-1.6-2.17-2.46-3.32c-0.5-0.68-0.28-1.29,0.18-1.86c0.5-0.62,1.09-1.16,1.55-1.8c1.2-1.66,3.15-1.93,4.86-2.61
			c0.66-0.26,1.11,0.24,1.35,0.86c0.25,0.65,0.04,1.09-0.59,1.36c-0.91,0.39-1.82,0.76-2.7,1.2c-1.27,0.64-1.27,1.79-0.6,2.99
			c0.76,1.36,1.84,1.16,2.99,1.25c1.98,0.15,3.95,0.37,5.92,0.6c1.88,0.22,3.76,0.64,5.64,0.69c1.41,0.04,2.84-0.35,4.26-0.58
			c1.55-0.25,3.08-0.56,4.63-0.8c0.79-0.12,1.18,0.46,1.28,1.08c0.1,0.61-0.35,1.09-0.96,1.21c-0.7,0.14-1.43,0.16-2.14,0.25
			c-0.36,0.05-0.77,0.05-1.07,0.23c-1.3,0.78-2.7,0.99-4.18,0.95c-0.14,0-0.31-0.02-0.42,0.05c-1.78,1.14-3.52-0.01-5.27-0.09
			c-0.85-0.04-1.7-0.09-2.54-0.17c-2.69-0.27-5.38-0.55-8.07-0.84C110.76,61.36,110.64,61.25,110.44,61.13z"/>
		<path class="st0" d="M123.13,53.71c0.14-0.34,0.24-0.56,0.4-0.95c-0.48-0.05-0.88-0.09-1.52-0.15c0.31,0.47,0.45,0.69,0.65,0.99
			c-0.62,0.11-1.21,0.37-1.66-0.29c-0.41-0.61-0.24-0.9,0.44-1.19c0.79-0.34,1.54-0.78,2.29-1.22c0.75-0.43,1.43-0.17,1.64,0.66
			c0.08,0.32,0.34,0.64,0.29,0.93c-0.1,0.59-0.32,1.16-1.14,1.1C124.1,53.55,123.66,53.65,123.13,53.71z"/>
		<path class="st2" d="M136.69,178.92c-0.29-0.24-0.48-0.37-0.64-0.54c-0.13-0.13-0.33-0.33-0.3-0.43c0.07-0.19,0.27-0.43,0.43-0.45
			c0.41-0.05,0.88-0.1,1.25,0.05c1.62,0.66,3.22,1.4,4.82,2.11c0.21,0.09,0.49,0.14,0.6,0.3c0.82,1.26,2.31,1.43,3.46,2.15
			c0.82,0.51,1.18,1.57,0.64,2.37c-0.82,1.21-1.74,2.36-2.6,3.54c-0.35,0.47-0.64,0.99-1.01,1.44c-2.61,3.17-5.2,6.35-7.86,9.47
			c-0.57,0.67-1.35,1.2-2.11,1.68c-0.31,0.2-0.84,0.23-1.2,0.12c-1.74-0.56-3.45-1.2-5.17-1.82c-1.73-0.62-3.44-1.27-5.18-1.83
			c-0.36-0.12-0.88,0.04-1.25,0.22c-0.63,0.32-1.05,0.18-1.09-0.53c-0.02-0.3,0.04-0.65,0.2-0.89c1.13-1.76,2.25-3.53,3.46-5.23
			c1.55-2.19,3.18-4.32,4.8-6.46c1.26-1.67,2.55-3.32,3.81-4.99c0.22-0.29,0.41-0.61,0.56-0.94c0.5-1.1,1.42-1.27,2.22-0.38
			C135.17,178.63,135.73,178.92,136.69,178.92z M122.03,195.23c1.18,0.46,2.24,0.9,3.32,1.3c2.03,0.74,4.19,1.11,6.13,2.15
			c0.55,0.29,1.48,0.67,2.09-0.34c0.71-1.18,1.51-2.32,2.4-3.37c0.41-0.49,0.59-1.45,1.75-1.13c-0.27-0.29-0.43-0.46-0.49-0.52
			c2.27-3.16,4.48-6.24,6.78-9.43c-0.48-0.28-0.76-0.45-1.05-0.6c-0.67-0.36-1.45-0.59-1.98-1.09c-0.93-0.86-1.9-1.39-3.19-1.56
			c-1.04-0.14-2.07-0.58-3.02-1.04c-0.88-0.42-1.07-0.44-1.56,0.45c-0.15,0.27-0.31,0.54-0.5,0.79c-1.3,1.71-2.61,3.42-3.92,5.12
			c-0.45,0.58-0.95,1.12-1.39,1.71c-1.21,1.63-2.41,3.28-3.59,4.93C123.18,193.48,122.59,194.39,122.03,195.23z"/>
		<path class="st2" d="M132.16,202.08c0.1-0.01,0.21,0,0.31,0.01c-0.17-0.02-0.36-0.05-0.55-0.07c0.02,0.05,0.04,0.1,0.06,0.15
			C132.02,202.12,132.08,202.09,132.16,202.08z"/>
	</g>
</g>
</svg>
