<?xml version="1.0" encoding="utf-8"?>
<!-- Generator: Adobe Illustrator 27.0.0, SVG Export Plug-In . SVG Version: 6.00 Build 0)  -->
<svg version="1.1" id="Layer_1" xmlns="http://www.w3.org/2000/svg" xmlns:xlink="http://www.w3.org/1999/xlink" x="0px" y="0px"
	 viewBox="0 0 587.4 560.8" style="enable-background:new 0 0 587.4 560.8;" xml:space="preserve">
<style type="text/css">
	.st0{fill:none;}
	.st1{fill:#5B3023;}
</style>
<path class="st0" d="M96.6,336.9"/>
<path class="st1" d="M96,337.9c1.6,1,3.1,2.1,4.6,3.2c6.7,5.3,11.9,12.2,16.4,19.4c9,14.6,16,30.1,22.6,45.8
	c8.9,21.2,17,42.9,27.7,63.3c14.5,27.7,36.8,50.4,65.4,62.9c29.2,12.8,61.9,17,93.6,14.3c44.6-3.8,87.3-20.4,126.9-41.4
	c37.4-19.8,73.7-44.7,96.8-80.1S581,342,560.5,304.9c-27.4-49.5-92.1-63.8-132-104c-45.4-45.7-54.4-120.7-105-160.7
	C291.2,14.6,247,8.5,205.9,13.1C142.3,20.3,80.6,52.6,43.8,105c-36,51.2-51.2,135.9-11.7,189.7c1.6,2.1,3.2,4.2,5,6.1
	c1.8,2,3.8,3.9,5.9,5.7c3.6,3,6.7,6.5,10.5,9.3c7,5.4,14.7,9.9,23,13C83.2,331.3,90,334.1,96,337.9z"/>
</svg>
