<?xml version="1.0" encoding="utf-8"?>
<!-- Generator: Adobe Illustrator 27.0.0, SVG Export Plug-In . SVG Version: 6.00 Build 0)  -->
<svg version="1.1" id="Layer_1" xmlns="http://www.w3.org/2000/svg" xmlns:xlink="http://www.w3.org/1999/xlink" x="0px" y="0px"
	 viewBox="0 0 800 800" style="enable-background:new 0 0 800 800;" xml:space="preserve">
<style type="text/css">
	.st0{fill:none;}
	.st1{fill:#C49D99;}
</style>
<g>
	<path class="st0" d="M244.2,631c7.4,0.4,14.8,0.4,22.1-0.1c6.8-0.5,13.5-1.3,20.1-2.3C272.3,627.6,258.1,628.4,244.2,631z"/>
	<path class="st1" d="M286.4,628.5c11.4,0.8,22.6,2.8,33.6,6c38.7,11.4,71.8,36.6,108.6,53.1c32.5,14.6,67.8,22.1,103.3,24.7
		c55,4,127.7,6.5,169.1-36.8c18.1-18.9,27.6-45.4,27.1-71.6c-0.6-31.9-15.1-62.1-32.9-88.6c-28-41.8-64.9-77.7-88.2-122.3
		C579.3,340,571.7,276.5,535.3,229c-47.8-62.4-132.9-81-207.5-81.8c-26.5-0.3-53.9,1.6-77.7,13.4c-28.1,14-47.9,40.3-64.3,67.2
		c-30.1,49.3-52.2,103.6-65.2,159.9c-10.8,47.1-15.1,97.1-0.3,143.1c10.8,33.5,33.5,62.7,63.8,80.7c15,8.9,31.7,15,49,17.8
		C251.1,632.1,269,626.6,286.4,628.5"/>
</g>
</svg>
