<?xml version="1.0" encoding="utf-8"?>
<!-- Generator: Adobe Illustrator 27.0.0, SVG Export Plug-In . SVG Version: 6.00 Build 0)  -->
<svg version="1.1" id="Layer_1" xmlns="http://www.w3.org/2000/svg" xmlns:xlink="http://www.w3.org/1999/xlink" x="0px" y="0px"
	 viewBox="0 0 800 800" style="enable-background:new 0 0 800 800;" xml:space="preserve">
<style type="text/css">
	.st0{fill:#C49D99;}
</style>
<g id="rdQmpH_00000101790700844959158840000017478005723210935969_">
	<g>
		<path class="st0" d="M477.9,202.9c-1.9,0.7-3.3,1.7-4.7,1.6c-1.9-0.1-4.1,0.4-5.8-1.3c-1.3-1.4-2.3-4.5-1.7-6
			c0.6-1.6,3.6-3.6,5.5-3.5c2.8,0.1,5.8-0.3,7.4,3c0.1,0.3,1.2,0.3,1.8,0.1c0.8-0.3,1.4-1.1,2.2-1.3c2.1-0.6,4.7,0.8,5.8,3.1
			c0.6,1.2-0.2,4.2-1.5,5.3c-3,2.8-5.3,2.7-8.2-0.2C478.4,203.3,477.9,202.9,477.9,202.9z"/>
		<path class="st0" d="M244,631.4c5-0.6,8,3.6,6.2,8.2c-0.5,1.3-2.5,2-3.8,2c-4.1-0.2-7.3-2.9-11.1-4c-2.4-0.7-3.9-4.8-1.5-7.8
			c1-1.3,2.7-2,4.1-3c1-0.7,1.9-1.5,2.9-2.1c0.6-0.4,1.6-0.8,2-0.5c0.8,0.5,1.8,1.4,1.9,2.2C244.7,627.9,244.2,629.6,244,631.4z"/>
		<path class="st0" d="M332.8,308.3c0.4-1.7,0.1-2.5-1.4-3c-1.5-0.5-2.4-1.7-2.4-3.5c0-2-0.3-3.9,2.1-4.9c2.2-0.9,4.2-2.1,6.4-2.8
			c2.2-0.8,3,0,2.8,2.3c0,0.2,0,0.4-0.1,0.6c-2.4,4.4-1.7,9.3-2.5,13.9c-0.1,0.7-1.1,1.7-1.7,1.8c-0.9,0.1-2.4,0.4-2.6-1.3
			C333.2,310.1,332.9,309,332.8,308.3z"/>
		<path class="st0" d="M687.3,550.8c1.2-0.3,2.5-0.5,3.7-0.9c3.1-1,5.7,0.4,8.4,1.7c0.4,0.2,0.6,1.2,0.5,1.8
			c-0.7,2.7-2.9,4.5-4.8,6.4c-0.2,0.2-0.8,0-1.1,0c-1.4-0.2-2.9-0.6-4.3-0.7c-2.8-0.3-4.7-2.2-6.9-3.7c-0.4-0.3-0.7-1.6-0.4-1.9
			c0.9-1.1,2-2,3.2-2.7c0.4-0.3,1.2,0,1.8,0C687.3,550.7,687.3,550.8,687.3,550.8z"/>
		<path class="st0" d="M388.2,505.3c0.7-4.4,3.9-6.6,8.1-5.6c0.8,0.2,1.6,0.3,2.4,0.2c2.3-0.3,4.1,0.5,5.5,2.2
			c0.4,0.4,0.8,1,0.8,1.5c0.2,2.8-4.5,6.2-6.9,4.9c-1.2-0.7-2.1-0.7-3.2,0.2c-1.2,0.9-4.8,0.5-5.7-0.5
			C388.6,507.4,388.5,506.3,388.2,505.3z"/>
		<path class="st0" d="M99.5,523.3c1.3-0.1,2.7-0.3,4-0.3c0.9,0,2.4,0.1,2.5,0.4c0.3,1.1,0.2,2.3,0,3.5c-0.3,1.1-0.8,2.2-1.4,3.2
			c-1,1.6-1.9,3.6-3.4,4.5c-1.1,0.7-3.3,0.4-4.6-0.3c-2.2-1.3-4-3.2-3.9-6.2c0-2.2,1.3-3.4,2.9-4.3c1.1-0.6,2.7-0.5,4.1-0.7
			C99.5,523.1,99.5,523.2,99.5,523.3z"/>
		<path class="st0" d="M143.7,509.7c3.1-0.9,4.2,2.3,6.3,3.9c0.3,0.3,0.1,1.3,0,1.9c-0.4,4.3-3.6,7.3-7.7,6.8
			c-1-0.1-2.2-1.3-2.8-2.3c-0.8-1.4-1.3-3.1-1.5-4.7C137.5,511.9,139.7,509.8,143.7,509.7z"/>
		<path class="st0" d="M670.7,255.3c3.6,0.6,6.9,1.3,8.7,4.8c0.9,1.9,0.3,3.9-1.7,4.8c-1.2,0.5-2.5,0.9-3.7,1.5
			c-2.5,1.3-4.6,0.1-6.5-1.3c-0.6-0.5-0.6-1.9-0.8-2.9c-0.5-2.9,1-4.8,2.9-6.6C669.9,255.3,670.4,255.3,670.7,255.3z"/>
		<path class="st0" d="M305.1,684.3c-0.8-0.3-2.5-0.7-4-1.6c-1.7-1.1-1.3-2.9-0.8-4.5c0.5-1.6,1.3-3.1,2-4.6
			c1.2-2.3,3.6-2.7,5.4-0.8c0.7,0.8,1.4,1.7,2.3,2.2c1.9,1.3,1.9,3.2,1.8,5C311.7,682.8,309.6,684.2,305.1,684.3z"/>
		<path class="st0" d="M100.7,422.3c-0.1-3.1,0.8-5.1,3.1-6.4c1.5-0.8,3-1.6,4.6-2c1.8-0.4,3.2,1.4,3.1,3.2c0,1.7,0.4,3.4,0.4,5.1
			c0,2.3-2.1,4-4.4,3.8c-1.3-0.1-2.5-0.3-3.7-0.5C101.8,425.2,100.4,424.1,100.7,422.3z"/>
		<path class="st0" d="M730.1,489.4c0.1-0.9,0-2.3,0.5-2.7c1.5-1.1,3.2-2.1,5-2.5c3.2-0.8,6,2.2,5.9,6c0,3.1-2.3,6.1-4.8,6.1
			C733,496.4,730.5,493.7,730.1,489.4z"/>
		<path class="st0" d="M356.7,368.3c-1.1-0.3-2.3-0.4-3.3-0.9c-2.3-1.1-1.4-3.3-1.3-5.1c0.1-1.6,1.6-1.7,2.7-2.2
			c1.8-0.9,3.5-2.1,5.1-3.4c1.6-1.3,2.9-1.7,3.8-0.8c2.2,2.3,2.3,4.2,0.6,5.8c-0.8,0.7-1.5,1.5-1.9,2.5
			C361.1,367.4,360.5,367.9,356.7,368.3z"/>
		<path class="st0" d="M626.1,409.3c0.9,0.6,1.8,1.2,2.6,1.7c0.4,0.3,0.8,0.8,1.3,0.9c1.4,0.5,1.9,1.3,1.6,2.8c-0.1,0.3,0,0.7,0.1,1
			c0.1,1.1,0.8,2.7,0.3,3.3c-1,1.3-2.6,2.6-4.1,2.8c-1.4,0.3-3.1-0.8-4.7-1.2c-2.2-0.5-2-2.3-2.2-3.9c-0.3-2.2-0.6-4.3,1.6-5.7
			C623.6,410.3,624.8,409.9,626.1,409.3z"/>
		<path class="st0" d="M618,587.2c2.8,0,6.7,4.4,6.7,7.6c0,2-3.8,5-6.3,4.9c-1.6,0-5.5-4.2-5.5-5.8
			C612.8,589.8,614.8,587.2,618,587.2z"/>
		<path class="st0" d="M413.7,633.6c-0.2,2-2.6,4.2-5,4.7c-1.8,0.3-3.3,0.3-4.1-1.9c-0.5-1.3-1.7-2.5-2-3.8
			c-0.5-2.6,1.8-6.7,4.2-7.7c1.2-0.5,2.3-0.8,3,1c0.6,1.5,1.9,2.8,2.7,4.2C413.1,631.2,413.3,632.4,413.7,633.6z"/>
		<path class="st0" d="M704.3,336.8c-1.6,0.6-2.2-0.7-3.2-1.8c-1.9-2.1-1.5-4.3-1.2-6.6c0.1-0.4,0.6-1.1,0.9-1.1
			c2-0.1,4.1-0.3,6,0.1c2.1,0.4,4.1,1.4,6.2,2.1c1.2,0.4,1.2,1.1,0.7,2C712.6,333.4,707,336.7,704.3,336.8z"/>
		<path class="st0" d="M650.7,349.5c0-0.4,0-1,0.1-1.6c0.4-3.3,3.3-4.7,6.4-3.7c3.4,1.1,4.4,3.4,4.6,6.6c0.1,2.7-2.7,5.4-5.3,4.9
			C652.1,355,650.6,353.4,650.7,349.5z"/>
		<path class="st0" d="M720.9,533c0.9,0.9,2.2,2.2,3.4,3.6c0.9,1.1-0.3,3.5-1.9,5.1c-2.8,2.7-5.6,1.4-8.4,0.1
			c-1.2-0.5-2.5-1.1-3.3-2.1c-1.6-1.9,0.5-5,3.6-5.6C716.3,533.9,718.3,533.5,720.9,533z"/>
		<path class="st0" d="M674.3,396.2c1.7,0,4.6,2.1,5,3.8c0.4,1.5-0.8,4.6-2.4,5.3c-1,0.4-2.3,0.5-3.3,0.2c-2.7-0.7-5.3-1.6-7.9-2.7
			c-0.9-0.4-2.2-1.5-2.1-2.1c0.1-1,1.1-2.4,2-2.7C668.4,397.2,671.3,396.8,674.3,396.2z"/>
		<path class="st0" d="M647.4,310.8c-1.2-0.3-3.1-0.3-3.4-1c-0.8-1.9-1.3-4.1-1.2-6.1c0.2-2.5,3.3-5.2,5.7-4.7
			c2.2,0.5,4.6,1.5,5.7,4.1c0.7,1.8,0.2,3.2-1.2,4.5c-0.2,0.2-0.4,0.4-0.5,0.6C651.5,310.3,649.8,311.1,647.4,310.8z"/>
		<path class="st0" d="M529.7,269c-0.1,4.3-4.2,6.6-8.1,4.5c-1.8-1-3.7-1.8-3.7-4.4c0-2.3,0.6-3.9,2.9-4.6c0.6-0.2,1.1-0.5,1.6-0.8
			c4-2.1,7.4,0.1,7.3,4.7C529.7,268.6,529.7,268.8,529.7,269z"/>
		<path class="st0" d="M629,584.5c2.6-1.1,5.2-2.1,7.6-3.4c2-1.1,3.7-0.8,5.4,0.4c0.5,0.4,1.1,0.7,1.7,1c0.5,5.1-1,5.7-6.4,7.2
			c-1.4,0.4-2.9,0.2-4.4,0.3c-2.8,0.1-3.5-1.4-3.6-3.6C629.2,586,629.1,585.5,629,584.5z"/>
		<path class="st0" d="M724.4,373.9c1.5,0.8,3.3,1.4,4.5,2.6c1.4,1.3,1.8,3.3,1.1,5.2c-0.5,1.4-4.2,3.2-5.8,2.9
			c-2-0.3-4.4,0.2-5.9-1.8c-0.6-0.8-1.1-2.1-0.9-3c0.5-3.2,3.5-5.4,6.8-5.4C724.2,374.3,724.3,374.1,724.4,373.9z"/>
		<path class="st0" d="M465.3,188.4c-0.8,2-1.3,3.6-2,5c-0.2,0.4-1.2,0.6-1.7,0.5c-3.4-0.7-6.9-0.8-9.8-3.2
			c-1.4-1.2-1.7-3.1-0.1-3.9c2.2-1.2,4.5-2.6,6.9-3c1.4-0.2,3.3,1.1,4.7,2C464.2,186.3,464.6,187.5,465.3,188.4z"/>
		<path class="st0" d="M465.6,680.2c-1.1-0.6-2.2-1.2-3.3-1.7c-0.7-0.3-1.5-0.6-2.3-0.8c-1.6-0.4-2.4-1.3-2.6-3
			c-0.2-1.7,0.9-2.5,1.9-2.9c2.2-0.8,4.5-1.5,6.8-1.6c3.3-0.2,5.3,2.1,5.2,5.4C471.2,678.5,469.7,679.7,465.6,680.2z"/>
		<path class="st0" d="M514.4,287.3c0.3-2.9,3.5-5.9,6.2-5.7c1.5,0.1,3,0.4,4.5,0.7c0.5,0.1,1.3,0.7,1.2,1c-0.4,2.5-0.5,5.3-1.7,7.4
			c-1.7,3-6.4,2.6-8.5-0.2C515.5,289.5,515,288.4,514.4,287.3z"/>
		<path class="st0" d="M614.8,566.7c-3.9,0.8-5.2-1.9-5.5-5.5c-0.3-3.2,2.2-5,5.2-5.4c3.5-0.4,5.8,0.7,5.5,2.5c-0.3,2,2.1,3.8,0.1,6
			C618.6,565.9,617,567,614.8,566.7z"/>
		<path class="st0" d="M634.8,499.1c0.1-2.2,2.1-4.9,4.1-5.5c2.2-0.7,4,0.1,5.9,2.2c4.1,4.4,2,7-2.7,8.8
			C638.9,505.8,634.7,502.6,634.8,499.1z"/>
		<path class="st0" d="M50.5,399.2c-1.9-0.4-3.8-1.7-5-3.8c-0.4-0.7-0.3-1.9-0.1-2.7c0.9-2.8,5.4-5.2,8.1-4.1c2.3,1,4,2.8,4.6,5.4
			c0.1,0.4,0,0.8-0.1,1.2C57.4,396.7,52.7,399.4,50.5,399.2z"/>
		<path class="st0" d="M414.7,191.9c1.9,0.1,3.9-0.2,5.5,0.4c1.3,0.5,2.5,2,3.1,3.3c0.7,1.6-0.6,4.4-2.1,5.4c-0.5,0.4-1,0.9-1.6,1.2
			c-0.6,0.2-1.5,0.5-1.9,0.2c-2.2-1.6-4.3-3.4-6.4-5.1c-1.1-0.9-2-2.3-1.1-3.5c0.7-0.9,2.1-1.3,3.3-1.9
			C413.8,191.8,414.3,191.9,414.7,191.9C414.7,191.9,414.7,191.9,414.7,191.9z"/>
		<path class="st0" d="M152.5,531.4c0.8,4.5-2.5,5.8-6.5,6.3c-2.6,0.3-4.7-2-4.9-4.7c-0.3-4.3,2.6-5.8,6.9-6.2
			C150.5,526.5,152.4,528.5,152.5,531.4z"/>
		<path class="st0" d="M569.9,244.1c0.1-1.6,0.3-3.3,0.4-5c0.1-1,0.4-2,0.3-2.9c-0.2-1.7,0.7-2.9,2-3.3c1.2-0.3,3.2-0.3,3.9,0.5
			c1.7,1.9,3.9,3.4,4.1,6.5c0.2,3.1-2.2,5.3-5.2,4.7C573.8,244.1,572,244.2,569.9,244.1z"/>
		<path class="st0" d="M396.5,709.6c-0.1-3.4,1.7-4.8,4.5-4.1c1.1,0.3,2.4,0.4,3.5,0.4c2.4,0.1,4,2,3.5,4.2
			c-0.4,1.6-0.9,3.2-1.8,4.5c-2,2.6-4.4,2.6-6.8,0.4C397.6,713.5,396.1,711.8,396.5,709.6z"/>
		<path class="st0" d="M486.1,570.8c1.1,3.8-1.4,5.9-3.4,8.2c-0.8,0.9-4.6,0.9-5.9,0.1c-2.5-1.6-2.9-5.4-1.3-7.4
			c2.4-2.9,4.4-3.9,7.8-2.9C484.4,569.3,485.3,570.2,486.1,570.8z"/>
		<path class="st0" d="M632.2,263.6c-1.7-0.5-3.4-0.8-5-1.6c-1.9-1-2.1-4.3-0.5-5.8c2-1.9,4.5-2.9,7.2-3.1c0.7,0,1.7,0.6,2.1,1.2
			c0.8,1.4,1.5,3,2,4.5c0.8,2.5-0.2,4-2.8,4.4c-1,0.1-2,0-3,0C632.3,263.3,632.2,263.5,632.2,263.6z"/>
		<path class="st0" d="M660.9,437.1c-1.4-0.1-2.8-0.1-4.2-0.4c-2.5-0.5-3.1-2.8-1.5-4.8c0.9-1,1.8-2,2.6-3.1c2.2-3,7-2.6,8.8,0.7
			C668.8,433.9,666.5,437,660.9,437.1z"/>
		<path class="st0" d="M598.8,212c0.3-4.9,2.1-6.8,6.7-7.1c2.2-0.1,3.3,0.8,3.6,2.9c0.1,0.6,0.1,1.4,0.5,1.7
			c1.6,1.6,0.4,2.5-0.5,3.9c-1.9,3.1-5.1,1.9-7.7,2.6C600,216.3,598.7,214,598.8,212z"/>
		<path class="st0" d="M616.5,336.1c-2,4.6-7.3,6.5-10.9,3.7c-0.9-0.7-1-2.3-1.6-3.4c-0.8-1.5-0.2-2.2,1-3.1
			c0.9-0.6,1.6-1.6,2.3-2.5c1.2-1.2,2.6-1.6,4-0.5c1.3,1,2.4,2.3,3.5,3.5C615.3,334.5,615.8,335.2,616.5,336.1z"/>
		<path class="st0" d="M348.2,697.5c-3,0-6.3-2.2-7.3-5.1c-0.2-0.6,0.1-1.7,0.6-2.3c0.7-1,1.8-1.8,2.7-2.7c2.5-2.6,3.6-1.7,5.9,0.3
			c2,1.8,2.5,4.1,2.7,6.6C352.7,696.2,350.9,697.5,348.2,697.5z"/>
		<path class="st0" d="M706.9,468.6c-2.5,0.5-4.2-0.6-5.3-2.7c-0.7-1.2-1.7-2.3-2-3.6c-0.6-2.6,1.2-4.1,4.5-4
			c1.4,0.1,2.8,0.2,4.2,0.3c1.2,0.1,3.7,2.8,3.4,4.2c-0.4,1.8-0.9,3.6-1.9,5.1C709.4,468.4,707.9,468.3,706.9,468.6z"/>
		<path class="st0" d="M546.8,212.9c1.8,0.6,3.7,1.1,5.4,2c2.6,1.3,2,4-0.2,6.6c-1.6,1.8-3.6,2.9-6,1.5c-0.2-0.1-0.5-0.3-0.8-0.2
			c-2.9,0.5-2.9-1.5-3-3.4c0-0.7-0.2-1.4-0.4-2.2c-0.4-2.5,0.3-3.4,2.9-3.6c0.6,0,1.2-0.1,1.8-0.2
			C546.7,213.2,546.7,213.1,546.8,212.9z"/>
		<path class="st0" d="M366.5,432.9c2.7,0.6,5.6,0.7,8.1,1.8c1.5,0.7,2.4,2.7,3.4,4.3c0.5,0.9-1.4,3.1-3.1,3.7
			c-2.2,0.9-4.8,0.2-6.4-1.7c-1.4-1.6-3.1-3.1-4.1-5C362.7,433.3,363.4,432.4,366.5,432.9z"/>
		<path class="st0" d="M255.5,236.1c-1.9-0.5-5.8-3.3-6.2-4.9c-0.1-0.6,0.2-1.6,0.6-1.9c2.4-1.8,4.8-3.6,7.3-5.2
			c1.2-0.8,2.8,0.1,3.4,2.1c0.9,2.9,0.2,5.8-1.4,8.2C258.6,235.3,256.8,235.5,255.5,236.1z"/>
		<path class="st0" d="M584.1,588.5c2.6,0,5.2,2.5,5,5.3c-0.2,3.1-1.7,5.2-6.9,5.1c-2.2,0-4.6-1.9-4.7-3.5
			C577.5,590.1,580.1,588.5,584.1,588.5z"/>
		<path class="st0" d="M557.8,183.1c-0.7,0-1,0-1.3,0.1c-1.8,0.2-3.4-0.5-4-2.1c-0.6-1.6-0.8-3.6,1-5c0.6-0.5,1-1.1,1.5-1.6
			c2.3-2.1,3.8-2.3,6.2-0.8c3.7,2.4,3.8,2.7,3.1,5.2c-0.7,2.3-3.3,4-6.2,4.1C557.9,183.1,557.7,183.1,557.8,183.1z"/>
		<path class="st0" d="M532.6,388.3c-1.5-0.5-3-0.7-4.4-1.4c-2.7-1.3-3.2-4.1-1.1-6.3c3.2-3.4,8-3.4,10.8,0.3c0.7,1,0.6,3.3-0.1,4.3
			C536.7,386.7,535.2,388.6,532.6,388.3z"/>
		<path class="st0" d="M63.3,503.5c-1.3-0.3-2.7-0.3-3.8-0.9c-2.6-1.5-2.1-4-1.4-6.2c0.5-1.8,1.9-2.8,3.8-3c0.5,0,0.9-0.3,1.4-0.3
			c1.4-0.1,3.5-0.6,3.9,0.1c1,1.5,2.5,3.1,1.8,5.5C68,501.5,65.9,503.5,63.3,503.5z"/>
		<path class="st0" d="M567.1,547.4c-1.4-1.1-2.9-2.1-4.1-3.5c-1-1.2-0.3-2.5,0.5-3.7c1.2-1.6,2.1-3.8,4.3-3.8c2,0.1,3.9,1,5.8,1.7
			c0.4,0.2,0.8,1.1,0.8,1.7c0,1.1-0.2,2.3-0.4,3.4c-0.6,3-0.9,3.2-3.8,3.4c-0.9,0.1-1.9,0.2-2.8,0.2
			C567.3,547.1,567.2,547.3,567.1,547.4z"/>
		<path class="st0" d="M446.9,238.9c2.6,0,4.8,0.4,6.1,2.9c1.4,2.7,1.5,4.2-0.6,6.3c-0.7,0.7-2,1-3.1,1c-3,0-5.6-1.2-6.9-3.9
			c-0.6-1.2-0.1-3.2,0.5-4.5C443.5,239.1,445.2,238.5,446.9,238.9z"/>
		<path class="st0" d="M287.6,215.8c-1.4-0.6-3-1.2-4.4-2.1c-1.8-1.2-1.8-3.7-0.2-5.2c0.4-0.4,0.8-0.9,1.3-1.3
			c3.1-3.1,6.9-2.7,9.3,1c0.9,1.3,0.7,5.3-0.6,6C291.5,215.1,289.7,215.3,287.6,215.8z"/>
		<path class="st0" d="M497.4,338.2c-3.2,0-4.9-2.4-4.8-6.5c0.1-1.9,3.3-4.7,5.3-4.5c3.3,0.3,6.2,2.7,6.1,5
			C503.9,335.1,500.5,338.2,497.4,338.2z"/>
		<path class="st0" d="M370.3,654c-0.2,3.7-1.8,5.5-5.4,5.6c-3.2,0.1-5.3-1.9-5.4-5.3c0-1.1,0.1-2.3,0.4-3.4c0.5-2,2.6-2.8,4.9-2.1
			c0.5,0.2,1,0.4,1.5,0.6c1.1,0.3,2.5-0.4,3.1,1.2C369.7,651.7,370,652.9,370.3,654z"/>
		<path class="st0" d="M57,443.3c-0.6-0.4-1.3-0.7-1.8-1.1c-0.5-0.4-0.7-1-1.2-1.4c-2.2-2.1-2.2-2.1-0.8-4.7
			c0.4-0.8,0.9-1.6,1.4-2.4c1.1-1.6,2.8-2,4.6-1.3c2.2,0.8,4.2,1.8,5,4.2c0.3,0.7,0.4,1.9,0,2.4C62.4,441.1,60.4,443.3,57,443.3z"/>
		<path class="st0" d="M565.2,624c2.6-1.8,5.2-3.4,7.7-5.1c2-1.4,4.2-1.6,5.6-0.5c2.4,1.9,2,5.9-0.8,7.3c-1.8,0.9-3.7,1.6-5.6,2.1
			C569.7,628.3,565.9,626.1,565.2,624z"/>
		<path class="st0" d="M523.9,667.5c0.5,2.3-1.6,3.3-3.3,4.6c-0.2,0.2-0.6,0.3-0.7,0.2c-2.8-1.3-5.7-2.4-8.2-4.1
			c-1.1-0.7,0.8-4.8,2.3-5.3c0.9-0.3,1.8-0.6,2.6-0.9C519.5,660.9,524.1,664.1,523.9,667.5z"/>
		<path class="st0" d="M483.3,316.2c0.1-1,0.2-2.4,0.5-3.9c0.1-0.4,0.7-1,1.1-0.9c2.8,0.2,5.6,0.4,8.4,0.8c1.2,0.2,1.7,1.1,1.4,2.4
			c-0.5,1.9,0.3,4.3-2.1,5.4c-1,0.4-2.1,0.7-3.1,0.8c-0.8,0.1-1.6-0.2-2.4-0.3C483.6,320.2,483.5,320.2,483.3,316.2z"/>
		<path class="st0" d="M357.8,170.8c-3.5,0-5.3-2.2-4.5-5.2c0.4-1.4,1.8-2.7,3-3.7c2.2-1.9,6.6-1.2,8.3,1.1c1.2,1.6,1,3.6-0.4,5
			C362.6,169.6,360.8,170.8,357.8,170.8z"/>
		<path class="st0" d="M378.7,304.3c1.1,0.3,2.2,0.4,3.1,0.9c3,1.7,3.9,2.5,1,5.1c-0.3,0.3-0.5,0.6-0.6,1c-0.5,1.4-0.8,3.2-2.6,3.2
			c-2.3-0.1-4.9,0.1-6.4-2.4c-0.3-0.5-0.6-0.9-0.9-1.3c-1.4-2.2-0.7-4.4,1.8-5.2C375.6,304.9,377.1,304.6,378.7,304.3z"/>
		<path class="st0" d="M247.3,593.1c3.3,0.3,4.4,1.2,5.6,4.6c0.3,0.8,0.8,1.7,0.6,2.4c-1.4,4.8-5.1,5.7-8.9,2.2
			c-3.6-3.3-2.7-6.4,0.1-8.3C245.5,593.5,246.5,593.4,247.3,593.1z"/>
		<path class="st0" d="M574.3,332.8c-0.2,1.2-0.3,2.4-0.7,3.5c-0.5,1.2-1.1,2.7-2,3.1c-1.5,0.7-3.4,0.9-4.7-0.9
			c-0.8-1.2-2.1-2.2-2.4-3.5c-0.8-3.4,1-6.2,4.4-7.2c0.8-0.2,2.1,0.1,2.7,0.6C572.7,329.7,574.7,330.5,574.3,332.8z"/>
		<path class="st0" d="M569,287.6c-3.4,0-6.9-2.5-8-5.5c-0.9-2.5,0.3-4.3,2.9-4.3c3.7,0.1,7.4,0.7,9.4,4.4c0.4,0.7,0.3,2.2-0.2,2.8
			C572,286.2,571.1,288.2,569,287.6z"/>
		<path class="st0" d="M284.6,602.6c2.8-0.1,5.2,1.9,5.3,4.4c0.1,2.6-3.3,5.2-6.3,5.6c-3.2,0.4-5.2-3.2-5.6-7
			C277.8,603.9,280.4,602.7,284.6,602.6z"/>
		<path class="st0" d="M491.1,248.5c-4.1-0.1-6.2-2.6-8-5.7c-0.7-1.1,1.7-3.8,3.4-3.9c1.7-0.2,3.3-0.3,5-0.4c0.5,0,1.1,0.1,1.5,0.3
			c2.4,1.6,2.7,7.3,0.4,8.9C492.8,248.2,491.9,248.3,491.1,248.5z"/>
		<path class="st0" d="M530.1,320.8c1.1,0.1,2.1,0.1,3.2,0.3c2.9,0.3,4.1,3.1,2.4,5.5c-0.1,0.1-0.2,0.2-0.2,0.3
			c-2.5,3.8-4.9,4.6-9.1,3c-0.4-0.1-0.9-0.4-0.9-0.6c-0.2-1.9-0.9-4-0.4-5.7C525.6,321.4,527.9,320.9,530.1,320.8z"/>
		<path class="st0" d="M67.1,318.7c0-0.8,0-1.6,0-2.4c0.2-4.6,5.3-7.4,9.4-5.1c2.1,1.2,2.7,6.1,0.9,7.7c-2.4,2.1-4.8,2.3-7.6,0.7
			C68.9,319.1,68,319,67.1,318.7z"/>
		<path class="st0" d="M610.7,444.3c2.8,0.1,5.9,3.3,5.4,6c-0.3,1.3-1.7,2.4-2.6,3.6c-1.2,1.6-2.5,1.3-4,0.3
			c-1.3-0.9-2.8-1.6-4.2-2.3c-1.4-0.7-1.7-1.8-1.2-3.1C605,446.4,608.3,444.2,610.7,444.3z"/>
		<path class="st0" d="M200.2,520.8c-1.5-0.5-3.4-0.7-4.3-1.7c-1.3-1.4-2.4-3.4-2.7-5.3c-0.5-2.8,1.3-3.8,4-2.9
			c1.1,0.4,2.3,0.6,3.5,0.7c2.5,0,5,3,4.9,5.9c-0.1,1.6-2.6,3.1-5.1,2.9C200.3,520.5,200.2,520.7,200.2,520.8z"/>
		<path class="st0" d="M471.4,384c-2.2,0.2-3.6-0.9-4.4-2.4c-0.8-1.3,0.4-3.8,1.7-5c1.4-1.3,2.8-2.5,5-2.6c2.5,0,4.4,0.8,5.1,2.8
			c0.6,1.8-0.7,4.8-2.7,5.7C474.6,383.1,473,383.5,471.4,384z"/>
		<path class="st0" d="M416.8,283.6c-2.1,0.4-3.2-1.3-4.6-2.4c-0.4-0.3-0.4-1.3-0.3-1.9c0.9-4.3,4.9-6.8,9.1-5.4
			c0.8,0.3,1.3,1.2,1.9,2c0.2,0.3,0.1,0.9,0.2,1.4c0.8,3.8,0.5,4.1-3.8,5.9C418.6,283.5,417.7,283.5,416.8,283.6z"/>
		<path class="st0" d="M586,400.5c0.1,2.7-1.8,4-3.2,5.6c-0.1,0.1-0.2,0.2-0.4,0.1c-2.8-0.5-5.6-0.8-8.3-1.7
			c-0.8-0.3-1.2-2.1-1.4-3.3c-0.1-0.4,1.1-1.1,1.7-1.5c1-0.7,1.9-1.4,3-1.9c0.8-0.4,1.7-0.8,2.6-0.7c1.4,0.2,2.8,0.7,4.2,1.1
			C585.6,398.5,586.3,399.3,586,400.5z"/>
		<path class="st0" d="M543.9,464.3c-0.5,1.4-0.7,2.9-1.5,4c-0.5,0.7-2,0.7-3,1c-2.9,0.9-5.1-0.4-7-2.4c-0.4-0.4-0.7-1.3-0.5-1.7
			c0.9-2.2,1.8-4.2,4.8-4.7c2-0.4,3.6-1.3,5.4,0.4C543.1,461.8,544.2,462.6,543.9,464.3z"/>
		<path class="st0" d="M305.7,632.5c-0.1,2.5-2.1,4.9-4.7,5.5c-1.9,0.5-4.1-0.8-5.3-3.1c-0.1-0.2-0.3-0.5-0.4-0.7
			c-0.6-1.5-1.6-3.1-0.3-4.7c1.5-1.7,5.6-2.5,7.8-1.4C304.6,629,305.9,630.3,305.7,632.5z"/>
		<path class="st0" d="M314.3,376.9c-3.8,0-5.9-2.5-5.3-5.1c0.4-1.7,1.1-3.3,1.8-4.9c0.9-1.8,2.3-1.8,4.2-1.1
			c3.4,1.3,3.3,4.6,4.4,7.2c0.1,0.3-0.2,1.2-0.5,1.4C317.1,375.5,315.2,376.4,314.3,376.9z"/>
		<path class="st0" d="M355.5,136c-0.2-4.2,1.8-6,6-6.6c2-0.2,4.2,0.9,4.3,2.7c0.1,1.7-0.2,3.8-1.2,5.2c-1.1,1.4-2.5,3-4.9,2.9
			C356.8,140,355.6,139.1,355.5,136z"/>
		<path class="st0" d="M229.4,520.8c-3.5,0-6.2-3.2-5.4-6.7c0.2-0.8,1.4-1.7,2.4-2.1c1.4-0.6,3-0.7,4.4-1.2c2.4-0.8,5.1,1.2,4.9,3.7
			C235.5,517.4,232.1,520.8,229.4,520.8z"/>
		<path class="st0" d="M405.3,173.7c-0.1-3.2,1.2-4.1,4.4-3.6c2.1,0.4,3.7,1.2,5.2,2.6c2.5,2.3,2.1,5.5-1,6.8
			C409.4,181.4,405.5,178.7,405.3,173.7z"/>
		<path class="st0" d="M110.5,271.7c0,2.5-1.3,3.1-2.6,3.8c-1,0.5-2.1,0.9-3.2,1.4c-1.4,0.8-2.7,0.8-3.8-0.3
			c-1.3-1.3-2.3-2.5-1.2-4.5c1.2-2.2,2.1-4.7,4.9-5.4c0.3-0.1,0.6-0.3,0.9-0.4c2.1-0.5,3.1,0,3.8,2
			C109.8,269.7,110.2,271,110.5,271.7z"/>
		<path class="st0" d="M491.6,143.8c0.4,3-1.8,4.3-4.5,4.6c-3.5,0.4-5.5-2-5.6-5.9c0-3.1,0.8-4.8,2.5-4.8
			C488.9,137.9,491.6,138.7,491.6,143.8z"/>
		<path class="st0" d="M536.7,499.4c1.1,0.3,2.3,0.5,3.3,0.9c3,1.2,3.9,5.6,1.5,7.8c-0.6,0.6-2,0.9-2.9,0.7c-2-0.5-4-1.3-6-2.1
			c-2.1-0.9-2.7-2.8-1.4-4.8C532.5,499.9,534.3,499.2,536.7,499.4z"/>
		<path class="st0" d="M129,331.3c3.6,0.1,5.1,1.8,4.6,5.4c0,0.3-0.1,0.5-0.1,0.8c-0.1,1.7,0.1,3.5-2.4,3.9c-2.9,0.5-5-0.2-6.3-2.2
			c-0.5-0.7-0.9-1.5-1.4-2.2c-1.2-1.9-0.1-4.9,2.1-5.3C126.8,331.5,127.9,331.5,129,331.3z"/>
		<path class="st0" d="M201.8,598.2c1.4,0.1,2.6,0.2,3.9,0.3c4.2,0.5,6.7,5.2,4.7,9.3c-0.4,0.8-2.9,1.3-4.1,0.9
			c-1.9-0.7-3.6-2.1-5.1-3.6c-1.6-1.6-1.7-3.5-0.2-5.4C201.4,599.3,201.5,598.8,201.8,598.2z"/>
		<path class="st0" d="M556.6,420.4c-0.5,0.1-1.1,0.1-1.6,0.2c-3.2,0.7-5.9-1.5-6.3-4.8c-0.1-1.2,0.1-2.1,1.3-2.6
			c0.2-0.1,0.4-0.2,0.5-0.3c1.1-0.7,4.3-1.6,5.5-1.5c2.9,0.3,5.4,5.2,3.7,7.5c-0.7,0.9-1.9,1.3-2.9,1.9
			C556.8,420.8,556.7,420.6,556.6,420.4z"/>
		<path class="st0" d="M431.2,643.8c1.2-0.2,2.5-0.2,3.7-0.6c2.5-0.7,4.5-0.2,5.5,1.5c0.6,1.1-0.5,4.2-2,5.4
			c-2.7,2.1-9.6,0.7-11.3-2.4c-1.3-2.4-0.5-3.9,2.2-4c0.6,0,1.2,0,1.8,0C431.2,643.7,431.2,643.7,431.2,643.8z"/>
		<path class="st0" d="M532,401.4c0,3.2-1.6,4.4-3.5,5.3c-1.4,0.7-4.6,0.1-5.7-1.3c-0.9-1.1-2.6-1.5-2.2-3.6
			c0.5-2.7,1.5-4.1,4.2-4.5c0.5-0.1,0.9-0.1,1.4-0.1c1,0,2.3-0.4,2.8,0.1C530.3,398.7,531.3,400.4,532,401.4z"/>
		<path class="st0" d="M248.1,543c1.6-0.1,3.4,0.7,3.7,2.3c0.3,1.7-0.1,3.9-1,5.4c-2,3.5-6.5,3.7-9,0.6c-0.7-0.8-0.8-2.4-0.6-3.6
			C241.5,545.7,245.7,543,248.1,543z"/>
		<path class="st0" d="M136,440.9c-1.9,0.3-3.8-0.8-4.2-2.4c-0.4-1.7,0.3-3.8,1.2-5.5c0.6-1.2,2.1-2,3.4-2.6c1.6-0.7,4.6,1.2,5.3,3
			C143.3,438,141.1,441,136,440.9z"/>
		<path class="st0" d="M738.3,432c0.1,2.3-1.2,4-2.7,5c-1.5,1.1-3.4,0.9-5.2-0.3c-2.3-1.6-3.6-3.9-3.3-6.6c0.3-2.2,2.1-2.7,3.7-2.6
			c2.2,0.3,4.4,1,6.4,1.9C737.8,429.8,738,431.1,738.3,432z"/>
		<path class="st0" d="M319.1,195.2c0.1,2.2-2.9,6.1-4.7,6.2c-2.1,0.1-5.8-3.8-5.9-6.3c-0.1-2.2,2.6-4.9,5-5
			C316.6,190.1,318.9,192.2,319.1,195.2z"/>
		<path class="st0" d="M479.3,605.4c0,3.9-3.9,6.2-7.4,4.2c-0.8-0.4-1.7-0.8-2.4-1.4c-2.5-2.1-1.8-5.5,1.4-6.9
			c0.3-0.1,0.7-0.1,0.9-0.3c1.2-0.9,2.4-2,3.9-1.1C477.7,601.1,479.1,602.9,479.3,605.4z"/>
		<path class="st0" d="M398.1,251.6c0.2-2.8,3.1-5.3,6.1-5.2c1.8,0.1,4.8,3.5,4.7,5.4c-0.1,2.2-4.1,5.9-6.4,5.8
			C400.5,257.6,398,254.2,398.1,251.6z"/>
		<path class="st0" d="M579.5,328.2c2.7,0.1,7,3.7,7,5.8c-0.1,2.5-3.5,5.1-6.4,5.1c-2.2-0.1-4.7-2.7-4.7-4.9
			C575.3,331.9,578,328.1,579.5,328.2z"/>
		<path class="st0" d="M166.2,331.5c0.5-2.9,0.6-5.9,2.9-8.3c1.4-1.4,3.6-1.8,5.1-0.4c2.4,2.2,2,8.2-0.7,10
			c-2.1,1.4-3.7,1.4-5.7-0.1C167.3,332.3,166.8,331.9,166.2,331.5z"/>
		<path class="st0" d="M318.3,153.1c-0.1,0.2-0.3,1-0.8,1.4c-1.2,1-2.5,1.9-4,2.6c-2,1-4.5-0.3-5-2.4c-0.4-1.5-0.5-3-0.6-4.5
			c-0.1-1.7,4.5-4.6,6.1-3.9C315.9,147.1,318.3,150.6,318.3,153.1z"/>
		<path class="st0" d="M429.2,639.3c0-1.6-0.1-3.2,0-4.8c0.1-3.3,3.2-4.3,5.6-3.6c2.6,0.8,4,2.7,4.7,5.2c0.1,0.2,0.1,0.5,0,0.8
			c-0.7,2.7-5.3,5.3-7.8,4.3C430.7,640.8,430,639.9,429.2,639.3z"/>
		<path class="st0" d="M154.4,399.4c-0.2,3.5-4.2,6.1-7.4,4.7c-0.7-0.3-1.5-0.4-2.3-0.6c-2.4-0.7-3.2-2.6-1.9-4.7
			c2.4-4,8.1-5.1,11.2-1C154.4,398.2,154.3,398.8,154.4,399.4z"/>
		<path class="st0" d="M160.7,268.3c1.9-0.6,2.7,0.9,3.6,2c1.8,2.2,1.8,5.4-0.1,6.8c-0.7,0.6-2,0.8-2.9,0.7c-2-0.3-3.9-0.8-5.8-1.4
			c-1.4-0.4-2.2-4.2-1-5.1c1.3-1,2.7-1.9,4.1-2.7C159.1,268.3,159.9,268.4,160.7,268.3z"/>
		<path class="st0" d="M589.3,349.2c3.4-0.1,5.7,2,5.7,5.3c0,1.7-2.6,4-4.6,4.1c-3.3,0.1-7.1-2.4-7.1-4.7
			C583.3,351.4,585.9,349.3,589.3,349.2z"/>
		<path class="st0" d="M509.5,598c-0.1,3.3-1.2,4.2-4.6,4.1c-2.8-0.1-4.9-1.5-7.1-2.8c-1.5-0.9-1.6-2.3-0.9-3.7
			c0.7-1.3,1.8-2.3,3.6-1.8c1.9,0.4,3.8,0.6,5.7,0.8C509,594.7,509.5,595.2,509.5,598z"/>
		<path class="st0" d="M506.8,170.9c-0.6-1.7-1.3-3.3-1.7-5c-0.4-1.8,2.1-4.3,4.3-4.6c2.8-0.3,5.2,0.9,5.8,2.8c0.9,3-0.2,6-3.1,7.3
			c-0.6,0.3-1.6,0-2.4-0.2c-0.8-0.2-1.6-0.5-2.3-0.8C507.2,170.6,507,170.7,506.8,170.9z"/>
		<path class="st0" d="M338.9,229c0,2.3,0.3,4.2-0.1,6c-0.7,3.3-4.9,4.8-8,2.9c-1.4-0.8-3.2-1.4-3-3.6c0.3-2.2,1.7-3.6,3.6-4.1
			C333.8,229.5,336.4,229.4,338.9,229z"/>
		<path class="st0" d="M382.8,645.6c-1.7-0.4-3-0.4-4.1-1c-2-1-2-3.2-0.2-4.5c0.8-0.6,1.7-1.1,2.4-1.9c1.6-1.7,3.5-1.6,5.5-1
			c0.9,0.3,2,0.3,2.6,0.9c0.8,0.9,1.5,2.1,1.8,3.2c0.1,0.6-0.7,1.8-1.4,2C387.1,644.5,384.8,645,382.8,645.6z"/>
		<path class="st0" d="M164.3,222.2c0.1,3.3-2,5.2-6,5.3c-1.3,0-4.3-3.6-4.2-5.3c0.2-2.9,1.7-5,6-5.2
			C162.4,216.9,164.2,219.1,164.3,222.2z"/>
		<path class="st0" d="M487.9,123.4c2.4,0,5.2,3.6,5.2,6.5c0,1.5-4,4.1-6.1,4.1c-1.5,0-5.2-4.4-5.2-6.1
			C481.7,126.5,485.9,123.4,487.9,123.4z"/>
		<path class="st0" d="M446.6,156.5c-2,0-5-3.2-4.9-5.3c0-0.8,0-2.1,0.5-2.4c1.6-0.9,3.3-2,5.1-2.2c2.7-0.3,6.2,3.2,6.1,5.5
			C453.3,154.2,449.7,156.5,446.6,156.5z"/>
		<path class="st0" d="M225.5,274.2c0.9,0.2,1.9,0.2,2.7,0.5c0.6,0.2,1.2,0.7,1.4,1.2c1,2.1-0.8,7.4-3,8.2c-1.1,0.4-2.8,0.4-3.6-0.3
			c-1.4-1-2.6-2.5-3.5-4c-0.9-1.5-0.3-3.1,1.1-4c1.4-0.9,3.1-1.3,4.7-1.9C225.4,274,225.4,274.1,225.5,274.2z"/>
		<path class="st0" d="M426.3,566.7c-3.2-1.4-6.2-2.5-9-3.9c-0.5-0.3-1-1.9-0.8-2.2c0.7-0.8,1.9-1.8,2.9-1.8
			c2.7-0.2,5.5-0.3,8.1,0.3c1.6,0.4,2.8,2.1,4.1,3.3c0.2,0.1,0.1,0.9-0.1,1C429.9,564.5,428.2,565.6,426.3,566.7z"/>
		<path class="st0" d="M431.2,100.9c4-0.1,5.1,1.6,5.9,4.4c0.1,0.4,0.3,1.1,0.1,1.3c-1.6,1.5-3.1,3.3-5,4.2c-1.8,0.8-4.2-1-5-3.1
			c-0.4-1.1-0.7-2.4-0.6-3.5C427.1,101.6,428.2,100.8,431.2,100.9z"/>
		<path class="st0" d="M240.9,218.4c-0.3,2,0.7,4.1-1.9,4.6c-1.3,0.2-3.3,1.2-3.8,0.7c-1.5-1.4-2.8-3.3-3.3-5.3
			c-0.6-2.7,3.2-6.4,5.8-6.2c1.8,0.1,2.5,1.4,2.9,2.8C240.9,216.3,240.8,217.6,240.9,218.4z"/>
		<path class="st0" d="M453.1,113.1c-4-0.1-6-1.8-5.9-4.7c0.1-2.1,4.1-5.5,6.3-5.4c1.8,0.1,4.6,3.3,4.5,5.4
			C457.9,111.9,456.5,113.2,453.1,113.1z"/>
		<path class="st0" d="M189.1,433.5c-3.8,0-5.1-2-3.5-5.3c1.2-2.7,2.9-4.8,6.2-4.8c2.7,0,4.1,1.6,3.4,4.2c-0.3,1.3-0.5,2.7-1.2,3.7
			C192.8,433,191.1,433.8,189.1,433.5z"/>
		<path class="st0" d="M206.3,346.8c3,0.5,3.9,1.3,4.4,4c0.1,0.4,0.2,0.8,0.2,1.2c0.7,3.3,0.2,4.1-3.1,4.4c-0.3,0-0.5,0-0.8,0.1
			c-3.7,1.1-3.9,1-6-2.2c-0.7-1.1-1-2.3,0.2-3.4c0.7-0.7,1.2-1.6,2-2.2C204.2,347.9,205.3,347.4,206.3,346.8z"/>
		<path class="st0" d="M194.7,577.6c-0.2,2.7-1.5,4-4.4,4.3c-2.4,0.3-6-2-6.7-4.2c-0.1-0.5-0.1-1.1,0.1-1.6c1.3-4.1,5.6-5.2,8.7-2.3
			C194.8,576.2,194.8,576.2,194.7,577.6z"/>
		<path class="st0" d="M687,471.1c-2.9,0.1-5.4-1.6-6.2-3.9c-0.6-1.7,0-3.1,1.6-3.9c3-1.4,7.8-0.9,9.6,1c1.3,1.3,1.2,2.2-0.3,3.4
			c-0.4,0.3-0.8,0.7-1,1.2C689.7,470.4,688.6,471.6,687,471.1z"/>
		<path class="st0" d="M328.6,644.8c-3.5,0.2-6.5-2.5-6.7-5.6c0-0.4,0.1-1.1,0.4-1.2c2-0.9,4-2.2,6.2-2.5c2.4-0.3,3.2,2.2,4.1,4
			c1,2,0.4,4.1-1.5,4.8C330.2,644.6,329.2,644.7,328.6,644.8z"/>
		<path class="st0" d="M338.3,524.9c0.5,0.5,1.8,1.2,2.2,2.3c0.6,1.3,1.4,3.1-0.5,4.3c-0.9,0.6-1.8,1.4-2.7,2.1
			c-2.4,1.7-4.8,1.1-6-1.6c-0.7-1.5-2.3-2.9-0.9-4.8c0.5-0.7,1.2-1.4,2-1.5C334,525.2,335.8,525.1,338.3,524.9z"/>
		<path class="st0" d="M292,366.2c1.8,0,3.1,1,3.4,2.7c0.5,2.6-0.9,5.8-2.8,6.8c-2.1,1-6,0.1-7.4-1.9c-0.4-0.5-0.4-1.7-0.1-2.4
			C286.4,368.3,288.9,366.8,292,366.2z"/>
		<path class="st0" d="M387.3,246.6c3.3,0.2,6.5,4.9,5.4,8c-0.6,1.6-1.6,2.8-3.6,2.4c-1.4-0.3-3.1,0.5-4.3-1.3
			c-1.2-1.8-1.7-3.7-1.4-5.9C383.7,248.2,385.7,246.5,387.3,246.6z"/>
		<path class="st0" d="M442.8,353.8c-0.3,5.2-0.9,6.2-3.6,6.1c-4.5-0.3-6.1-1.7-5.8-5.3c0.1-2,3.7-4.9,5.9-4.8
			C441.6,350,442.9,351.4,442.8,353.8z"/>
		<path class="st0" d="M425.4,513c0.2,3.2-0.5,4-3.3,4.5c-3.4,0.6-5.6-0.3-6.3-2.9c-0.2-0.7-0.2-1.7,0.2-2.2c1-1.5,2.2-2.8,3.4-4.2
			c1.3-1.4,3-1.3,4.2,0.2C424.8,509.9,426,511.4,425.4,513z"/>
		<path class="st0" d="M282,497.1c-4-0.6-6.1-3.8-4.4-7.1c2.3-4.4,5.6-4.3,8.5-1.8c0.4,0.4,0.8,1.3,0.6,1.7
			c-0.6,1.8-1.2,3.7-2.1,5.3C284.1,496.1,282.9,496.5,282,497.1z"/>
		<path class="st0" d="M531.8,548.5c3.3,0.4,5.1,2,4.8,4.8c-0.1,0.7-0.4,1.4-0.9,1.9c-0.7,0.7-1.5,1.3-2.3,2
			c-2.3,2.1-6.1,1.2-7.3-1.7c-0.7-1.6,0.1-3.9,2-5.2C529.2,549.5,530.6,549.1,531.8,548.5z"/>
		<path class="st0" d="M192.8,469c1.3,0.7,3.4,1.8,5.3,3.1c0.5,0.4,0.9,1.8,0.6,2.3c-1.1,1.6-2.2,3.4-3.8,4.4c-1.3,0.9-3-0.1-4-1.4
			c-1-1.3-2.1-2.6-2.5-4.2C187.7,470.8,189.2,469,192.8,469z"/>
		<path class="st0" d="M419.7,452.9c-1.8,0-4.8-2.1-5.3-3.9c-0.4-1.3-0.4-2.6,1.2-3.1c2.3-0.7,4.7-1.3,7.1-1.8
			c1.3-0.3,2,0.4,2.1,1.7c0,0.3,0,0.7,0,1C425.5,450.2,423.2,452.9,419.7,452.9z"/>
		<path class="st0" d="M289.9,284.9c3.1,0,4.5,1.2,4.5,4.2c0,2.3-2.9,5.3-5.1,5.3c-2.1,0-4.8-2-4.9-3.6
			C284.3,288.1,287.3,284.9,289.9,284.9z"/>
		<path class="st0" d="M434.3,410.2c2.2,0,3.6,0.9,4,2.6c0.4,1.8-0.7,3.7-2.1,4.7c-2.5,1.7-5,1.1-7.5,0.3c-1.9-0.6-2-3.5-0.1-5.1
			C430.2,411.3,432,409.9,434.3,410.2z"/>
		<path class="st0" d="M301.2,330.5c2.2,0.5,5.1,0.2,7,2.6c0.5,0.6,0.9,1.5,0.9,2.2c-0.2,2.2-3.1,4.4-5.4,3.9
			c-2.9-0.6-4.5-2.8-5.9-5C296.8,332.5,298.6,330.5,301.2,330.5z"/>
		<path class="st0" d="M316,446.1c-1.2-0.8-2.6-1.4-3.5-2.5c-0.9-1.1-1.4-2.6,0.3-3.8c1.3-0.9,2.3-2,3.5-3c1.8-1.6,4-1.1,5,1.1
			C323.3,441.9,320.8,445.7,316,446.1z"/>
		<path class="st0" d="M260.5,356.2c-1.1-0.1-1.7-0.1-2.4-0.2c-2-0.4-2.5-1.4-2-3.3c1-3.9,3.2-5.6,6.6-5.3c2,0.2,3.8,1.8,3.9,3.4
			c0.1,2.1-1.5,4.5-3.3,4.9C262.3,356,261.2,356.1,260.5,356.2z"/>
		<path class="st0" d="M243,425.5c-0.1,3-2.9,6-5.7,6c-2.1,0-4.4-2.3-4.3-4.4c0.1-1.9,3.4-5.8,4.9-5.7
			C239.8,421.3,243,423.9,243,425.5z"/>
		<path class="st0" d="M259.8,309.3c0.5,2-0.7,3.4-2.3,4c-1.6,0.6-3.3,0.2-4.6-1.3c-1.2-1.4-3-2.4-2.4-4.6c0.3-1,0.7-2.3,1.5-2.7
			C256.1,302.3,259.6,304.4,259.8,309.3z"/>
		<path class="st0" d="M216.1,193.5c-3.8,0.1-4.8-0.6-5.6-3.8c-0.5-1.9,0.2-3,1.9-3.9c2.5-1.3,5.8-1.2,7.3,1.1
			c0.8,1.3,0.5,3.4,0.3,5.1c-0.2,1.5-1.6,1.5-2.9,1.4C216.8,193.4,216.4,193.5,216.1,193.5z"/>
		<path class="st0" d="M184.1,394.2c2.8-0.1,5.3,1.9,5.7,4.6c0,0.4,0,0.8-0.1,1.2c-0.7,1.7-4.9,3.3-6.6,2.7
			c-2.5-0.8-4.6-3.7-3.8-5.9c0.4-1.1,1.9-1.8,3-2.5C182.6,394.1,183.4,394.3,184.1,394.2z"/>
		<path class="st0" d="M500.2,418.5c2.3-2.1,5.1-1.9,7.9-2c0.5,0,1,0.3,1.4,0.7c0.9,0.8,1.5,4.2,0.9,5.3c-0.9,1.9-2.7,2.3-4.6,2.1
			c-1.1-0.1-2.3-0.5-3.3-1C500.3,422.6,500.1,420.6,500.2,418.5z"/>
		<path class="st0" d="M283.2,538.2c-1.7-0.1-3.8-1.9-3.6-3.8c0.2-1.9,0.7-4,1.6-5.6c1.3-2.2,3.4-1.9,4.7,0.3
			c0.6,1.1,1.2,2.3,1.6,3.5C288.4,535.2,286,538.3,283.2,538.2z"/>
		<path class="st0" d="M289.5,409c1,1.3,1.6,2.2,2.3,3c1.2,1.5,1.3,3.6,0.2,5.2c-1,1.4-2.9,2-5.1,1.3c-1.7-0.5-2.7-1.6-2.8-3.7
			c-0.1-1.8,0-3.5,1.4-4.6C286.7,409.5,288.3,409.4,289.5,409z"/>
		<path class="st0" d="M336.7,585c1.7,0.3,3.4,0.6,5.1,1c1.9,0.4,2.6,1.5,2.5,3.8c-0.1,1.8-1.3,3.2-2.9,3.3c-1.1,0-2.5,0.2-3.2-0.4
			c-1.7-1.6-3.3-3.4-4.6-5.4C332.8,586,334.4,585,336.7,585z"/>
		<path class="st0" d="M403.6,364.4c-3.1-0.4-5.2-2.4-5.2-5.2c0-0.5,0.2-1.1,0.5-1.3c1.6-1,3.1-2.1,4.9-2.7c2.4-0.8,4.7,1.8,3.9,4.3
			c-0.4,1.1-0.7,2.2-1.4,3.1C405.6,363.4,404.5,363.8,403.6,364.4z"/>
		<path class="st0" d="M480.7,481.9c-0.2-0.1-1.2-0.4-1.7-1c-1.1-1.2-2.1-2.4-2.8-3.8c-1.1-2.1,0.3-3.8,3.2-4.2
			c2.6-0.4,5.8,2.1,6.2,4.7C485.9,480.4,484.4,481.9,480.7,481.9z"/>
		<path class="st0" d="M340.8,479.7c0.7-1,1.3-2.4,2.2-3.1c1.9-1.3,4.2-1.7,6.4-0.7c0.6,0.2,1.3,1.3,1.2,1.7c-0.9,2.3-1.3,5-4.3,6.1
			C343.4,484.7,341.4,483.4,340.8,479.7z"/>
		<path class="st0" d="M367,585.8c0-2.5,1-3.1,5.4-3c2.3,0,4.1,1.3,4.1,2.9c0,3.4-1.7,5.1-5,5.1C369.3,590.8,366.9,588.1,367,585.8z
			"/>
		<path class="st0" d="M466.6,533.4c-2.6,0.1-5.9-3.1-5.5-5.3c0.3-1.8,1.3-2.5,3-2.4c1.2,0.1,2.4,0.3,3.6,0.3
			c2.1,0.1,3.1,0.9,3.3,2.7c0.2,2.3-1.1,4.3-2.9,4.6C467.6,533.4,467.1,533.4,466.6,533.4z"/>
		<path class="st0" d="M291.3,568.6c-2.2-0.1-4-2.2-4-4.6c0-1.9,2.7-5,4.2-5c1.6,0.1,4.6,2.8,4.6,4.2
			C296.2,565.1,293,568.7,291.3,568.6z"/>
		<path class="st0" d="M448.3,423.4c2.2-0.1,2.7,0.4,2.8,2.5c0.1,1.1,0.2,2.1,0.2,3.2c0.1,2.1-1.6,3.5-3.7,3.1
			c-3.7-0.7-4.9-2.3-4.2-5.9C443.9,424.3,445.3,423.5,448.3,423.4z"/>
		<path class="st0" d="M243.9,182.3c1.5,0.5,2.8,0.8,4,1.3c1.3,0.6,1.3,1.8,0.8,2.9c-0.8,1.5-1.7,2.9-2.6,4.2
			c-0.3,0.4-1.2,0.6-1.7,0.5c-2.9-0.6-4.6-5.5-2.7-7.7C242.3,182.9,243.2,182.7,243.9,182.3z"/>
		<path class="st0" d="M377.7,393.8c0.4-3.6,4-5.8,7.1-4.3c1.7,0.8,2,4.4,0.5,5.5c-0.8,0.5-1.5,1.1-2.4,1.4c-1.2,0.4-2.7,1-3.7,0.5
			C378.4,396.6,378.2,394.9,377.7,393.8z"/>
	</g>
</g>
</svg>
