<?xml version="1.0" encoding="utf-8"?>
<!-- Generator: Adobe Illustrator 27.0.0, SVG Export Plug-In . SVG Version: 6.00 Build 0)  -->
<svg version="1.1" id="Layer_1" xmlns="http://www.w3.org/2000/svg" xmlns:xlink="http://www.w3.org/1999/xlink" x="0px" y="0px"
	 viewBox="0 0 3464.1 656.3" style="enable-background:new 0 0 3464.1 656.3;" xml:space="preserve">
<style type="text/css">
	.st0{fill:#C49D99;}
</style>
<g id="_x34_hvpFc_00000109008594152640905970000005074053641752677779_">
	<g>
		<path class="st0" d="M3460.1,656.3c-9.6-4-19-8.3-29.6-9.1c-4-0.3-8-2-11.7-3.7c-21.1-9.3-42.2-18.4-62.9-28.3
			c-6.8-3.2-12.4-8.7-18.8-12.7c-14.6-9.1-29.5-17.4-46.2-22.7c-23.1-7.4-45.8-16.2-68.6-24.5c-11.3-4.1-22.4-8.9-33.8-12.6
			c-13.8-4.5-27.9-8.1-41.8-12.2c-5.4-1.6-10.7-3.6-16.1-5.1c-11.8-3.1-23.6-6.2-35.5-8.8c-13.4-2.9-26.9-5.6-40.4-7.9
			c-10.6-1.8-21.3-2.9-32-4.5c-14.5-2.3-29-4.8-43.6-7.1c-11.3-1.8-22.6-3.3-33.9-5.2c-14.9-2.6-29.7-5.6-44.6-8.1
			c-15.1-2.6-30.1-5-45.2-7.3c-18.1-2.8-36.3-5.4-54.5-8.2c-19.1-2.9-38.2-5.9-57.2-9c-11.8-1.9-23.5-4.3-35.4-6
			c-17.7-2.5-35.4-4.9-53.1-6.7c-23.9-2.4-48-4.3-71.9-6.3c-19.3-1.6-38.6-3.3-58-4.5c-15.6-1-31.2-1.2-46.7-2.1
			c-7.5-0.4-15-1.8-22.6-2.4c-7.5-0.7-15.1-0.9-22.6-1.6c-15.3-1.3-30.6-2.6-46-4.1c-9.1-0.9-18.1-1.8-27.2-3
			c-26.5-3.8-53-7.5-79.5-11.7c-15.7-2.5-31.4-5.4-47-8.7c-21.6-4.5-43.2-9.4-64.8-14.5c-20.1-4.8-40.1-10-60.1-15
			c-13.5-3.4-27.1-6.8-40.6-10.1c-17.7-4.4-35.5-8.4-53-13.2c-12.8-3.5-25.5-7.8-38.1-11.9c-17.5-5.7-35.1-11.2-52.5-17.5
			c-11.3-4.1-22.2-9.5-33.4-14.2c-17.6-7.5-35.3-14.9-52.9-22.5c-5.2-2.2-10.2-4.9-15.3-7.2c-20.5-9.5-40.9-19.3-61.7-28.3
			c-10.1-4.4-21-6.9-31.4-10.5c-6.9-2.4-13.6-5.5-20.6-7.6c-12.7-3.8-25.6-7.2-38.5-10.6c-9-2.4-18.1-4.7-27.3-6.6
			c-8-1.6-16.2-2.5-24.3-3.9c-5.3-0.9-10.6-2.3-15.9-3.2c-4-0.7-8-1.1-11.9-1.7c-10.9-1.7-21.8-3.7-32.7-5.1
			c-16.4-2.2-32.8-3.9-49.2-6c-8.4-1.1-16.7-2.7-25-4c-18.1-2.9-36.2-5.8-54.4-8.6c-13.8-2.1-27.6-4.5-41.5-6.1
			c-11.7-1.4-23.5-1.6-35.3-2.7c-9.2-0.8-18.4-1.9-27.5-3c-11.1-1.2-22.3-2.6-33.4-3.7c-11.4-1.2-22.9-2.5-34.3-3.3
			c-14.8-1.1-29.6-1.6-44.4-2.5c-7.2-0.5-14.3-1.6-21.5-2.2c-16.9-1.4-33.7-2.4-50.6-4c-12.3-1.2-24.6-3.2-36.9-4.7
			c-9.2-1.1-18.4-1.8-27.6-3.1c-20.5-2.9-41-6.1-61.5-9.3c-11.6-1.8-23.1-3.6-34.7-5.6c-10.4-1.8-20.7-3.7-31.1-5.6
			c-11.8-2.2-23.7-4.2-35.5-6.6c-15.7-3.2-31.3-6.7-47-10.2c-10.3-2.3-20.5-4.5-30.8-6.9c-14.5-3.4-29-7.2-43.5-10.5
			c-10.1-2.3-20.3-4.3-30.4-6.4c-20.7-4.3-41.3-8.8-62-13c-15.4-3.1-30.8-5.9-46.2-8.9c-10.5-2.1-20.9-4.6-31.5-6.4
			c-11.5-1.9-23.2-3-34.7-4.8c-15.2-2.3-30.3-5-45.5-7.5c-5.6-0.9-11.1-1.8-16.7-2.7c-1.6-0.3-3.3-0.7-5.4-1.1
			c1.1-0.6,1.7-0.9,2.2-1.1c-3,0.5-6.3-7-8.9-0.1c-4.8-0.5-9.5-0.9-14.3-1.4c-8.4-0.8-16.8-1.8-25.3-2.4
			c-20.9-1.4-41.8-2.9-62.7-3.9c-11.9-0.6-23.9-0.4-35.9-0.7c-7.6-0.1-15.3-0.8-22.9-0.4c-13.8,0.6-27.5,1.5-41.2,2.8
			c-19.6,1.8-39.1,3.9-58.7,6.2c-10.9,1.3-21.7,3.2-32.5,5.1c-11.1,1.9-22.2,3.9-33.3,6.3c-9.4,2-18.6,4.6-27.9,7.1
			c-7.4,2-14.7,4-22,6.1c-2.8,0.8-5.5,2-8.4,2.7c-18.1,4.4-36.2,8.9-54.4,12.8c-10.2,2.1-20.6,3-30.9,4.4c-6.9,1-13.7,2.4-20.7,2.7
			c-4.2,0.2-8.6-1.2-12.9-1.9c0-1.3,0-2.7,0-4c4.2-3.7,9.1-3.3,14.4-3.4c10.2-0.3,20.4-1.7,30.6-2.9c7.9-1,15.7-2.1,23.5-3.7
			c16.3-3.4,32.6-7,48.8-10.8c8.2-1.9,16.1-4.6,24.3-6.6c19.8-4.8,39.5-9.5,59.4-13.8c10.5-2.3,21.1-3.9,31.7-5.6
			c5.9-0.9,11.8-1.2,17.7-1.9c14.1-1.6,28.3-3.5,42.4-4.7c17.7-1.5,35.4-3.2,53.1-3.6c20.4-0.4,40.8,0.1,61.2,0.8
			c17.5,0.6,35,2.1,52.6,3.4c13.1,0.9,26.1,1.8,39.1,3.4c9.6,1.2,19,3.5,28.6,5.1c10.6,1.7,21.3,2.9,31.9,4.5
			c10.5,1.6,21,3.5,31.6,5.1c8.8,1.3,17.7,2.1,26.5,3.6c17,2.9,34,5.9,50.9,9.3c22.7,4.6,45.4,9.6,68.1,14.4c13,2.7,26.2,5.1,39.2,8
			c19.7,4.4,39.2,9.1,58.8,13.7c16.6,3.8,33.1,7.5,49.7,11.3c11.4,2.6,22.8,5.3,34.3,7.5c13.9,2.6,27.9,4.7,41.9,7.1
			c16.3,2.8,32.5,5.8,48.8,8.5c15.1,2.5,30.2,4.9,45.4,7c19.2,2.6,38.3,5.1,57.6,7.1c17.6,1.9,35.3,3,53,4.5
			c12.4,1.1,24.8,2.3,37.2,3.2c13.2,1,26.4,1.5,39.6,2.6c16.3,1.4,32.6,3.3,48.9,4.8c16,1.5,32,2.7,47.9,4.3c16,1.6,32,3.2,47.9,5.3
			c18.4,2.4,36.7,5.1,55,7.9c19.4,2.9,38.8,6.1,58.3,9c10,1.4,20,2,30,3.5c13.2,1.9,26.2,4.2,39.4,6.3c16,2.6,32,4.9,47.9,7.9
			c17,3.2,34,6.6,50.8,10.7c14.9,3.7,29.6,8.3,44.3,12.7c24.3,7.3,47.8,16.8,70.7,27.6c11.7,5.5,23.2,11.3,35,16.5
			c28,12.4,56.1,24.8,84.4,36.5c18.1,7.5,36.4,14.4,55,20.5c19.1,6.3,38.6,11.2,57.9,16.7c12.9,3.7,25.7,7.5,38.7,10.9
			c14.7,3.8,29.4,7.3,44.1,10.9c25,6.3,49.9,12.9,74.9,18.8c16.1,3.8,32.4,6.7,48.6,10c12.7,2.6,25.4,5.5,38.3,7.6
			c17.3,2.9,34.7,5.3,52.1,7.9c20.5,3,40.9,6.4,61.4,8.8c18.3,2.1,36.8,3,55.2,4.3c30.7,2.2,61.3,4.5,92,6.6
			c13.3,0.9,26.6,1.2,39.9,2.3c25.6,2.1,51.3,4.3,76.9,6.9c22.4,2.3,44.8,5.1,67.2,7.9c8.7,1.1,17.3,3,25.9,4.3
			c14.6,2.3,29.3,4.2,43.8,6.6c14.5,2.4,29,5.4,43.5,7.7c16.7,2.7,33.5,4.8,50.2,7.5c16.5,2.7,32.9,6.1,49.5,8.9
			c16.9,2.9,33.9,5.5,50.9,8.1c14,2.2,28.1,4.4,42.1,6.5c13.4,2,26.9,3.7,40.2,6.1c13.1,2.3,26,5,39,7.9c13.7,3,27.5,5.9,41.1,9.6
			c14.7,4,29.4,8.4,43.8,13.3c21.1,7.3,41.9,15.4,62.9,22.9c18.9,6.8,38.3,12.3,56.7,20.1c14.2,6,27.5,14.5,40.8,22.5
			c9.5,5.7,18.1,12.7,29.1,15.9c6.3,1.8,12.3,5.1,18,8.4c15.2,8.7,31.3,14.9,48.1,19.6c5.9,1.7,11.5,4,17.2,6.1
			c4,1.5,6.8,4.1,6.8,8.8C3462.8,656.3,3461.4,656.3,3460.1,656.3z"/>
		<path class="st0" d="M3177.1,656.3c-4.2-4.6-4.3-7-0.3-9.6c0.5-0.3,1.4-1,1.7-0.8c4.1,2.9,7.8-0.8,11.7-0.7c2.5,0,5.1,0.8,7.3,1.8
			c0.5,0.2,0.2,4.1-0.9,4.9c-1.7,1.4-4.4,2.2-6.6,2.2c-2.7,0-5.5-1.8-6.8,2.1C3181.1,656.3,3179.1,656.3,3177.1,656.3z"/>
		<path class="st0" d="M2960.1,656.3c-0.3-1.8,0.6-3.5-2.7-4.5c-3.3-1-4.3-4.8-2.9-8.8c1.4-4.1,4.1-4.2,7.5-3.3
			c5.5,1.5,2.5,5.5,2.4,8.6c0.5-0.2,0.9-0.4,1.4-0.6c1.4,2.9,2.9,5.8,4.3,8.7C2966.8,656.3,2963.4,656.3,2960.1,656.3z"/>
		<path class="st0" d="M2167.1,656.3c-4.1-2.2-2.9-5.9-2.9-9.2c6.5-4.3,11.1,0.4,17.1,2.9c-2.7,2.4-5,4.4-7.2,6.3
			C2171.8,656.3,2169.4,656.3,2167.1,656.3z"/>
		<path class="st0" d="M3313.1,656.3c0.1-1.8,0.2-3.6,0.5-5.4c0.2-1.3,0.3-3,1.2-3.6c2.8-2.1,12.8,1.3,13.8,4.8
			c0.4,1.3-0.3,2.8-0.4,4.2C3323.1,656.3,3318.1,656.3,3313.1,656.3z"/>
		<path class="st0" d="M2501.1,656.3c-0.8-1.6-2.1-3.3-2.2-4.9c-0.1-2.1,0.3-4.7,1.6-6.1c1.1-1.2,4-1.7,5.6-1.1
			c1.7,0.7,3.7,3,3.9,4.7c0.2,2.4-1.1,4.9-1.8,7.3C2505.8,656.3,2503.4,656.3,2501.1,656.3z"/>
		<path class="st0" d="M551.1,656.3c-1-4.1,0.9-6.7,4.7-7.8c5-1.4,10.5,0.4,12.3,3.7c0.8,1.5,2,2.7,3,4.1
			C564.4,656.3,557.8,656.3,551.1,656.3z"/>
		<path class="st0" d="M2427.1,656.3c-1.1-2.3-2.2-4.5-3.4-7c3.2-2.6,7-6.1,11.2-3.4c3.4,2.2,2.9,6.6,1.2,10.3
			C2433.1,656.3,2430.1,656.3,2427.1,656.3z"/>
		<path class="st0" d="M1722.1,656.3c-0.3-0.9-0.8-1.8-1-2.8c-0.4-2.8-1.9-6.3,1.8-7.8c2.8-1.2,5.7-0.7,8,2c2.6,3,3,5.7,0.2,8.6
			C1728.1,656.3,1725.1,656.3,1722.1,656.3z"/>
		<path class="st0" d="M2993.1,656.3c-4.3-2.8-5.4-8.5-2.1-11.3c2.1-1.8,8.2-1.2,8.8,1.5c0.6,2.5-0.8,5.6-1.8,8.3
			c-0.3,0.7-2,1-3,1.4C2994.4,656.3,2993.8,656.3,2993.1,656.3z"/>
		<path class="st0" d="M93.1,656.3c-1.2-1-2.3-2.1-4.9-4.3c5.6-1.6,9.9-3.8,14.1-3.7c4.2,0.1,3.2,4.9,3.8,8
			C101.8,656.3,97.4,656.3,93.1,656.3z"/>
		<path class="st0" d="M2784.1,656.3c-2.4-3.8,0-6.9,1.8-9.8c0.5-0.8,3.1-1.1,4.2-0.6c2.3,1.1,5.8,1.7,5,5.7c-0.3,1.6-0.7,3.2-1,4.8
			C2790.8,656.3,2787.4,656.3,2784.1,656.3z"/>
		<path class="st0" d="M1614.1,656.3c0-0.3,0-0.7,0.1-1c0.6-2.3,1.2-6.7,1.8-6.7c3.5-0.1,7.1,0.5,10.4,1.8c0.9,0.4,0.5,3.8,0.7,5.9
			C1622.8,656.3,1618.4,656.3,1614.1,656.3z"/>
		<path class="st0" d="M3341.1,656.3c-1.3-3.5-0.7-6.2,2.8-8.3c5.2-3.1,6.8,1.8,10.1,3.9c-0.6,1.5-1.3,2.9-1.9,4.4
			C3348.4,656.3,3344.8,656.3,3341.1,656.3z"/>
		<path class="st0" d="M1791.1,656.3c0.3-1.3,0.4-2.7,1-3.8c1.4-2.5,1.5-6.4,6.1-5.4c4.2,0.8,5.9,3,5,7.2c-0.1,0.6-0.1,1.3-0.1,2
			C1799.1,656.3,1795.1,656.3,1791.1,656.3z"/>
		<path class="st0" d="M3055.1,656.3c0.2-2.5-0.5-5.6,0.7-7.4c1.9-2.7,4.9-1.7,7.4,0.2c3.3,2.5,2.5,4.8-0.1,7.2
			C3060.4,656.3,3057.8,656.3,3055.1,656.3z"/>
		<path class="st0" d="M1502.1,656.3c0.5-2.1,0.7-5.8,1.4-5.9c3-0.4,6.3-0.3,9,0.8c1.6,0.6,2.4,3.4,3.5,5.2
			C1511.4,656.3,1506.8,656.3,1502.1,656.3z"/>
		<path class="st0" d="M3239.1,656.3c-0.8-2.4-1.7-4.8-2.6-7.2c7.9-1.3,12.2,1.3,12.6,7.2C3245.8,656.3,3242.4,656.3,3239.1,656.3z"
			/>
		<path class="st0" d="M760.1,656.3c-0.3-4.1,3.3-4,5.7-4.7c2.5-0.7,5.2-0.6,8.1-0.9c1,1.7,2.1,3.7,3.3,5.6
			C771.4,656.3,765.8,656.3,760.1,656.3z"/>
		<path class="st0" d="M340.1,656.3c1.4-1.7,3.4-5,4-4.8c2.6,1,4.7,3.1,7,4.8C347.4,656.3,343.8,656.3,340.1,656.3z"/>
		<path class="st0" d="M3095.1,656.3c5.6-4.9,9.4-5.6,12.8-2.1c0.4,0.4,0.1,1.4,0.2,2.1C3103.8,656.3,3099.4,656.3,3095.1,656.3z"/>
		<path class="st0" d="M2708.1,656.3c3.8-2.8,10.9-2.8,15,0C2718.1,656.3,2713.1,656.3,2708.1,656.3z"/>
		<path class="st0" d="M75.3,215.5c7.1,1.1,10.2-2.7,12.6-7c1.9-3.5,4.7-4.9,8.2-3.8c1.8,0.6,3.6,2.4,4.6,4.1c1.8,3.1-0.9,4.9-3,6.2
			c-2.5,1.6-5,2.6-4.2,6.3c0.2,0.7-1.4,2.1-2.4,2.7c-1.6,1.1-3.6,1.7-5.2,2.8c-4.9,3.5-6.5,3.2-8.5-2.3
			C76.4,221.9,76.1,218.9,75.3,215.5z"/>
		<path class="st0" d="M1185.2,235.6c4.2-2.5,7.1-4.3,10.1-6.2c-3.5-0.8-6.8-0.7-8.9-2.3c-2.8-2-1.7-6.4,1.3-8.8
			c2.6-2,6.8-0.9,9.1,2.1c2.7,3.5,5.8,6.7,8.2,10.4c1.2,1.9,2.2,5.2,1.4,6.9c-1.2,2.5-3.3,5.7-7.4,3.9
			C1194.8,239.8,1190.5,237.9,1185.2,235.6z"/>
		<path class="st0" d="M3218.9,588c-3.6-2-6-3.2-8.2-4.6c-1-0.7-2.4-1.9-2.3-2.7c0.1-1,1.5-2.1,2.6-2.5c2.6-1,5.4-2.1,8.1-2
			c2.2,0,5.4,1.2,6.3,2.8c0.9,1.6-0.5,4.5-1,6.8c-0.4,1.8-1.3,3.6-1.4,5.4c-0.3,4.2-6.5,11.5-9.7,11.4c-4-0.1-4.7-3.1-5.4-6
			c-0.7-2.8,1-4.1,3.5-5C3213.5,590.8,3215.5,589.6,3218.9,588z"/>
		<path class="st0" d="M543.9,324.2c1.6-0.8,2.7-1.2,3.5-1.8c2.6-1.9,8.8-1.7,9.4,1c0.6,2.6,0,6.4-1.6,8.4c-2.3,3-5.9,2.1-8.7-0.5
			c-0.9-0.9-1.6-2.1-2.2-3.3c-1.2-2.4-2.4-3.7-5.7-3.2c-4.5,0.7-6.4-3.1-7.2-6.6c-0.3-1.1,2-3.7,3.6-4.3c3.9-1.5,7.4,0.4,9.5,3.6
			C545.4,318.8,544.2,321.4,543.9,324.2z"/>
		<path class="st0" d="M3268.9,619c7,6.7,7.5,8.2,4,11.7c-2.9,2.9-6.8,2.6-9.9-0.7c-2.9-3.1-1.5-7,3.9-11.5
			c-4.7-4.5-5.8-8.6-3.1-11.2c2.9-2.9,6.6-3,9.2-0.2C3276.5,610.9,3276,612.3,3268.9,619z"/>
		<path class="st0" d="M3156.9,557.6c6.7,0.3,10.7,1.2,12.9,8.3c1.3,4.2,3.7,7.5,0.5,11.3c-1.3,1.5-4,2.7-5.9,2.5
			c-1.6-0.2-3.2-2.4-4.2-4.1c-1.6-2.6-3.2-5.3-3.7-8.2C3155.9,564.3,3156.7,561.1,3156.9,557.6z"/>
		<path class="st0" d="M341.3,233.8c-3-1.1-5.4-1.4-6.8-2.8c-1.7-1.7-4.5-4.1-1.3-7c3.2-2.9,6.5-2.5,9.6,0.3
			c1.9,1.7,4.6,2.6,6.9,3.9c1.8,0.9,4.9,1.7,5.1,2.8c0.3,2.5,0,6.7-1.6,7.5c-2.8,1.5-6.6,1.4-10,1.2c-0.7,0-1.3-3.2-1.9-5
			C341.2,234.1,341.3,233.4,341.3,233.8z"/>
		<path class="st0" d="M954.6,354.5c-6.9-0.5-10.9-3.2-10.3-7.3c0.7-4.6,4-6.1,8.6-5.7c0.1-1.3,0.2-2.6,0.4-3.8
			c0.9-6.2,2.6-7.5,8.6-6.4c0.5,0.1,1,0.6,1.3,1c2.4,3.4,1.2,9.4-2.6,10.8c-3.2,1.1-4.2,3-4.3,6.1
			C956.1,351,955.1,352.8,954.6,354.5z"/>
		<path class="st0" d="M1760.1,517.5c-1.6,2.1-2.8,4.5-4.8,6.2c-2.7,2.3-5.3,1.9-7.2-1.6c-1.7-3.2-2-6,1.6-8.1
			c2.3-1.3,3.9-2.8,2.9-5.9c-0.9-2.9,1.1-4.6,3.5-4.8c2.3-0.2,5.3,0,7,1.3c1.3,1,2,4.2,1.5,6c-0.6,2.3-2.6,4.2-4,6.2
			C1760.5,517.2,1760.3,517.3,1760.1,517.5z"/>
		<path class="st0" d="M445.3,196.1c4.3-1.5,8.2-4.2,11.6-3.6c1.9,0.3,2.9,6.1,4.7,10.4c3.8,1.7,6.9,6.1,5.5,9.1
			c-1,2.1-8,4.2-9.8,2.9c-2-1.4-2.1-7.4-0.1-10.2C451.1,204.4,451.1,204.4,445.3,196.1z"/>
		<path class="st0" d="M204.1,106.1c4.7-1.4,10.2,0,9.8,2.7c-0.4,3-2.3,7.9-4.3,8.3c-6.2,1.2-5.7-5.3-7.7-8.5c-3.9-0.6-8.5,0-11.3-2
			c-4.6-3.4,2.2-6.2,1.7-9.7C199.2,96.5,202,98.8,204.1,106.1z"/>
		<path class="st0" d="M570.5,570.4c-1.5-1.9-3.7-3.5-4-5.4c-0.4-2.1,0.7-4.6,1.3-6.9c0.6-2,1.4-4,2.5-5.8c0.7-1.2,2-2.1,3.1-3
			c0.2-0.2,0.6,0,1,0c10.3-0.3,10.3,0.5,6.5,10.3c-1.2,3-3.5,5.6-5.6,8.2C574.3,568.8,572.7,569.2,570.5,570.4z"/>
		<path class="st0" d="M156.2,222.1c2.9,2.8,5.4,5.2,2,9.2c-2.6,3.2-5.2,3.6-9.7,1.7c0.6-2.7,1.8-5.7,1.8-8.7
			c-0.1-3.2-1.4-6.4-2.3-10.3c3.1-3.3,7.6-4.5,12.3-2.3c1.2,0.6,2.6,2.2,2.5,3.3c-0.2,1.8-1.2,3.6-2.4,5
			C159.7,221,158,221.3,156.2,222.1z"/>
		<path class="st0" d="M548.2,488.2c-3.8,5.1-7.1,10-11,14.6c-3.5,4.2-6.4-0.4-11-0.8c2-3.2,3.4-5.5,4.8-7.7c1-1.7,2.2-3.3,2.7-5.1
			c1.9-7.1,5.4-8.4,11.2-3.8C545.9,486.1,546.7,486.9,548.2,488.2z"/>
		<path class="st0" d="M547.7,279.5c1-0.2,1.3-0.3,1.6-0.3c9,0.2,9.3,0.5,9.8,9.6c0.1,1.1,0.8,2.1,0.9,3.2c0.2,2.4,1.3,6.2,0.2,7.1
			c-2,1.6-5.5,2.1-8.1,1.8c-1.5-0.2-3.2-2.9-3.8-4.8c-0.4-1.3,0.8-3.2,1.2-4.7C548.9,287.6,548.3,283.5,547.7,279.5z"/>
		<path class="st0" d="M273.7,98.4c3-1.5,5.3-2.8,7.7-3.7c1.1-0.4,3.1-0.7,3.8,0c4,3.5,8.1,7.1,11.6,11.1c2.9,3.3,0.4,5.8-2.8,6.3
			c-2.3,0.4-5.5-0.2-7.4-1.6C282.2,107,278.3,102.7,273.7,98.4z"/>
		<path class="st0" d="M257.9,476.8c3-1.1,6.1-3.2,9-3.1c2,0.1,3.8,3.3,6.6,6c2.1-1.1,5.6-2.7,8.7-4.9c3.1-2.2,6-2.2,7.4,1
			c0.8,2-0.6,4.9-1.2,7.4c-0.1,0.4-1.4,0.8-2.1,0.8c-4.7-0.4-9.3-0.8-14-1.3c-0.8-0.1-1.9-0.6-2.4-0.2c-6.3,4.6-7.9-2.3-11.6-4.1
			C258.2,477.9,258.1,477.4,257.9,476.8z"/>
		<path class="st0" d="M134.5,334.1c3.3,1.2,7.2,3.7,6.1,8.3c-0.4,1.8-5.5,3.5-8.4,3.4c-3.5-0.1-4.4-5.5-2.4-11.9
			c-3.2-1.6-6.4-3.2-9.5-5c-0.7-0.4-1.5-1.5-1.3-2.1c0.2-0.6,1.3-1.3,2.1-1.5c1.8-0.4,3.6-0.6,5.4-0.8c3-0.5,6.3-0.9,7.9,2.3
			C135.2,328.6,134.5,331.1,134.5,334.1z"/>
		<path class="st0" d="M3046.5,577.2c6.9,0.2,10.2,2.8,9.5,7c-0.1,0.8-0.4,1.6-0.8,2.2c-3.3,4.4-15.2,6-19.2,2.4
			c-1.3-1.1-2.1-3.5-1.9-5.2c0.2-1.2,2.3-2.3,3.8-3C3041,579.2,3044.3,578.1,3046.5,577.2z"/>
		<path class="st0" d="M1856.1,390.5c-4,1.8-4.8-3.1-7.1-5.3c-0.7-0.7,0.2-3.3,0.9-4.7c1.4-2.7,7.4-1.9,10.6,1.3
			c1.3,1.3,2.8,2.6,4.5,3.5c4.7,2.3,6,9,1.8,11.8c-1.5,1-5,0.1-7.1-1C1858.2,395.2,1857.5,392.7,1856.1,390.5z"/>
		<path class="st0" d="M2464.7,515.4c0.1,2.3,0.3,4.3,0.4,6.3c1.5,0.6,3.2,1,4.4,1.9c1.7,1.3,4,2.9,4.4,4.7c0.3,1.4-1.9,4.4-3.4,4.6
			c-2.3,0.4-5.6-0.1-7.2-1.6c-2.6-2.5-2.8-7.4-7.9-7.2c-0.1-3.5-0.1-7-0.1-10.5c2.2,0.1,4.3,0.1,6.5,0.4
			C2462.7,514.2,2463.6,514.9,2464.7,515.4z"/>
		<path class="st0" d="M661.5,506.8c3.1-0.2,6-0.2,8.8-0.6c1.9-0.3,3.7-1.6,5.6-1.7c2.7-0.2,6.7-0.6,7.8,0.9c1.3,1.7,0.8,5.6-0.3,8
			c-1.1,2.4-3.8,4-7.1,2.1c-1-0.6-2.5-0.8-3.7-0.6C664.3,516,664.3,516.1,661.5,506.8z"/>
		<path class="st0" d="M146.7,272.3c-2.9-4.6,0.4-6.5,2.8-7.2c2.3-0.7,5.3,0.3,7.7,1.2c0.7,0.3,1.2,3.6,0.5,4.5
			c-2.7,3.3-6.3,3.8-11.1,0.9c0.5,2.8,0.7,4.7,1.2,6.5c1.1,4.2-1.5,5.3-4.8,5.8c-3.9,0.6-8.6-1.8-8.1-4.9c0.3-2.1,3-4.3,5.2-5.7
			C141.5,272.4,143.8,272.7,146.7,272.3z"/>
		<path class="st0" d="M63.2,334.1c-3.4-1.9-8-4-12-6.9c-1-0.7-1.1-4.8-0.1-5.7c1.5-1.3,4.4-1.7,6.5-1.5c2.6,0.2,5.2,1.8,7.8,2.2
			c3.6,0.6,6,2,5.9,5.9C71.3,330.7,67.2,334.1,63.2,334.1z"/>
		<path class="st0" d="M791.5,597.5c2.3-1.6,3.1-2.6,4.1-2.9c2.7-0.7,2.8-1.6,1.5-4.2c-1-2-1.1-5.4,0.1-7.1c1-1.4,4.4-1.9,6.6-1.6
			c3,0.4,4,2.9,3.4,6c-0.6,3.4-0.7,6.8-1.3,10.2c-0.8,4.2-5.9,5.9-9.3,3.3C795.2,600.2,793.7,599.1,791.5,597.5z"/>
		<path class="st0" d="M343.3,464.5c1.4,1.3,3.8,2.5,4.7,4.4c0.7,1.5,0.3,4.5-0.8,5.8c-1.2,1.2-4.1,2-5.7,1.4
			c-3.1-1.1-5-0.9-7.3,1.7c-1,1.1-4.6,1-6.4,0.1c-1.6-0.7-2.2-3.3-3.3-5c2.1-1.1,4.1-2.7,6.3-3.1c3.6-0.6,7.7,0.5,9.4-4.3
			C340.2,465,341.6,464.9,343.3,464.5z"/>
		<path class="st0" d="M2885.6,636.6c0.9,0.7,4.9,2.3,4.8,3.6c-0.2,2.9-2.3,5.7-4.1,8.3c-1.1,1.5-3.1,2.2-4.6,3.5
			c-3.6,3.1-7.3,1.9-8.3-2.8C2872.5,645,2879.6,636.5,2885.6,636.6z"/>
		<path class="st0" d="M1063.5,178.8c-0.6,3.7-0.5,8-5.8,8.2c-4.2,0.1-7.4-3.1-7.2-6.1c0.3-5.1,6.3-3.1,9.4-5
			c-0.4-0.3-0.7-0.5-1.1-0.8c1-1.5,1.8-4,3.1-4.3c2.6-0.6,5.5-0.2,8.2,0.4c0.5,0.1,1.1,2.7,0.8,3.8
			C1070.1,177.6,1066.8,179.1,1063.5,178.8z"/>
		<path class="st0" d="M435.6,162.9c0.6-1,1.1-1.9,1.7-2.9c1.4-2.5,2.8-5.2,6.4-4.3c3.2,0.9,5.4,2.6,5.4,6.6c0,3.3,1.1,6.6,1.6,9.8
			c-7.3,3.1-10.2,1.6-11.8-5.4C438.5,165.5,437,164.5,435.6,162.9z"/>
		<path class="st0" d="M434.1,474.5c2.6-5.8,6.2-5.8,10.3-2.9c-0.8,1.5-1.5,3.2-2.3,4.6c4.2,0.9,8.1,1.4,11.9,2.6
			c1.6,0.5,2.6,2.6,3.9,4c-2.5,1.6-5.7,5-7.4,4.3c-3.9-1.4-10.7-0.9-9.7-8.5c0.1-0.5-1.4-1.4-2.3-1.9
			C437.1,475.8,435.6,475.2,434.1,474.5z"/>
		<path class="st0" d="M271,336.4c-3.6,0-6-3.4-4.8-6.7c1.8-4.8,14.3-8.1,18.3-4.8c2.9,2.3,2.2,5-0.2,6.5c-3.1,2-6.8,3.2-10.4,4.7
			C273.1,336.4,272,336.3,271,336.4z"/>
		<path class="st0" d="M3310.2,609.7c0,2.9-7.6,10.9-10.3,10.5c-3-0.4-6.2-1.9-5-5.3c1.5-4.1,3.8-8.6,7.1-11.2
			C3305.9,600.6,3310.2,604.1,3310.2,609.7z"/>
		<path class="st0" d="M735.9,509.5c1.4-1.1,2.7-2.4,4.2-3.4c3.6-2.6,7.6-0.8,8,3.6c0.1,1.2,0.1,2.8,0.9,3.6c2.6,3.1,2,5.5-0.8,8
			c-3.5,3.2-6.3,1-9-0.9c-0.6-0.4-0.6-1.7-0.7-2.6c-0.3-2.5-0.6-5-0.9-7.4C737,510.1,736.4,509.8,735.9,509.5z"/>
		<path class="st0" d="M1446,455.3c-1.1-1.8-3-3.7-2.6-4.4c1.2-2.4,2.9-5.8,4.9-6.2c4.4-1,9.2-0.5,13.7-0.3c1.2,0,2.4,1.2,3.6,1.8
			c-0.7,1-1.2,2.6-2.1,3C1458.1,451.2,1452.6,453,1446,455.3z"/>
		<path class="st0" d="M487.9,352.1c-6.5-0.1-8.6-2-8.4-6.8c0.1-2.5,4.8-5.7,8.3-5.6c3.6,0.1,8.9,4.8,8.3,7.8
			C495,352.5,490.3,351.2,487.9,352.1z"/>
		<path class="st0" d="M887.2,232.2c-0.4,2.3-1.2,4.2-1.1,6.1c0.1,4.5-2.7,5.3-5.8,4.2c-3-1.1-5.8-3-8.1-5.2c-0.7-0.7-0.1-4.1,1-5.2
			C877.3,228.1,879.5,228.2,887.2,232.2z"/>
		<path class="st0" d="M282.8,420.9c0.8,4.8-3,6.2-5.4,6.7c-3.7,0.7-7.8-0.1-11.6-0.6c-0.1,0-0.5-3.5,0.3-4.4c1.8-2,4.1-3.8,6.6-5
			c2.1-1.1,4.8-2.2,7-1.7C280.9,416.1,281.7,419.1,282.8,420.9z"/>
		<path class="st0" d="M2010.5,392.4c-5.6,0-11,4.6-16.9-0.7c-3.3-2.9-1.6-5.4-0.1-7c1.6-1.7,5.5-3.6,6.9-2.8
			c3.9,2.3,7.1,5.9,10.5,9C2010.8,391.4,2010.7,391.9,2010.5,392.4z"/>
		<path class="st0" d="M136.1,142.8c-2.3-2.2-4.8-3.7-5.8-6c-1.9-3.9,1.8-4.8,4.3-5.6c3.1-0.9,6.3-1.5,9.5-1.8
			c1-0.1,2.8,0.6,3.1,1.4c0.5,1.4,0.8,3.9,0.1,4.6C144.2,138,140.6,140,136.1,142.8z"/>
		<path class="st0" d="M886.6,193.6c2-1.6,3.6-3.5,5.7-4.3c2-0.8,5.4-1.5,6.4-0.5c1.8,1.8,3.3,5.2,2.9,7.6c-0.3,2.2-3.1,4.8-5.3,5.6
			c-2.9,1-6.3,0.8-6.7-4C889.5,196.4,887.7,195,886.6,193.6z"/>
		<path class="st0" d="M2903.6,602.9c6.4-2.3,9.6,0.6,12,4.3c1.3,2,2.8,5.4,2,6.9c-1.2,2-4.6,3.9-6.8,3.6c-1.7-0.2-3.5-3.5-4.5-5.8
			C2905,609.1,2904.5,605.9,2903.6,602.9z"/>
		<path class="st0" d="M702.8,145.2c0.1,3.8-3,6.9-6.9,6.9c-3.2,0-6.8-4-6.9-7.7c-0.1-3.7,1.2-6,5.3-6.1
			C700.5,138.2,702.7,139.9,702.8,145.2z"/>
		<path class="st0" d="M2945.1,532.6c-0.1,5.1-3.3,8.7-6.7,8.6c-3.4-0.2-7.2-3.6-7.1-6.4c0.1-4,4.4-8.7,8.1-8
			C2942.7,527.4,2945.4,529.4,2945.1,532.6z"/>
		<path class="st0" d="M2057.8,486.3c0.1,3.6-3.7,6.6-8.1,6.5c-2.7-0.1-6.6-4.8-5.3-8.1c1-2.5,4.6-4.8,7.4-5.7
			C2055.2,478,2057.7,481.7,2057.8,486.3z"/>
		<path class="st0" d="M291.5,596.3c-0.4-0.2-1.7-0.4-2.7-1.1c-2.1-1.5-4.3-3-6.2-4.8c-1.2-1.2-2.8-3.6-2.4-4.3
			c0.9-1.6,3.6-3.8,4.7-3.4c4.2,1.4,9.2,1.6,11.6,6.4C298.2,592.1,295.9,596.2,291.5,596.3z"/>
		<path class="st0" d="M1688.2,408.4c-5.4-0.1-7.4-1.6-7.2-5.8c0.1-3.5,3.9-6.9,7.6-7c3.9,0,6.9,3,6.8,6.9
			C1695.2,406.8,1693.3,408.4,1688.2,408.4z"/>
		<path class="st0" d="M938.1,626.4c-3.3,0-7.7-3.6-6.6-6.2c1.2-2.8,4.1-5.8,6.9-6.6c4-1.2,7.6,2.7,7.5,6.8
			C945.9,624.5,943.4,626.4,938.1,626.4z"/>
		<path class="st0" d="M1019.2,277.3c2.9,3.2,8.2,5.8,4.1,10.9c-1.4,1.7-5.6,2.6-7.8,1.8c-2.4-0.8-5.8-4-5.7-6
			C1010,278.6,1015.6,278.9,1019.2,277.3z"/>
		<path class="st0" d="M990,267.2c2.6,3.2,5.3,5.1,5.8,7.3c0.8,4.2-2.3,7.7-5.6,7.7c-4.6-0.1-10.6-4.3-9.2-6.7
			C982.6,272.4,986.2,270.5,990,267.2z"/>
		<path class="st0" d="M389.2,502.8c5.4,1.2,7.8,4.9,7.6,9.6c-0.1,2-2.4,4.7-4.3,5.5c-3.4,1.4-5.5-1-7.3-4
			C382.1,508.5,385.2,505.7,389.2,502.8z"/>
		<path class="st0" d="M1449.4,640.1c2,3.4,7.2-0.2,6.4,5.5c-0.9,6-3.7,10.4-6.6,9.1c-3.3-1.5-5.9-4.3-8.9-6.6
			C1443.2,645.5,1446.1,643,1449.4,640.1z"/>
		<path class="st0" d="M2011,622.8c-1-3.1,0.5-5,4.1-5c5.2,0.1,9.1,2.7,8.8,5.8c-0.6,6.3-2.4,8.3-7.3,8.3
			C2013.2,631.8,2010.7,627.9,2011,622.8z"/>
		<path class="st0" d="M2506.7,564.6c0.2,4.1-2.2,6-8,6.1c-5.1,0.1-4.1-4.2-4.7-7.1c-1-4.9,2.9-5.7,6.2-6.2
			C2504.3,556.8,2506.5,559.5,2506.7,564.6z"/>
		<path class="st0" d="M979.2,182.8c0.2-1,0.2-1.2,0.3-1.3c3.6-2.3,16.8-0.6,18.9,2.8c0.8,1.3,0.5,4.1-0.4,5.2
			c-1.1,1.3-4,2.7-5.1,2.1C988,189.1,983.7,185.8,979.2,182.8z"/>
		<path class="st0" d="M1731.7,610.1c0.6-0.8,1-1.7,1.7-2c2.2-1,15,2.2,16.5,4.2c0.6,0.7,1,2.4,0.6,2.8c-1.9,1.8-3.8,4-6.1,4.9
			c-2.9,1.1-4.9-0.2-6.1-3.7C1737.4,613.9,1734.2,612.4,1731.7,610.1z"/>
		<path class="st0" d="M1008.2,644.4c4.4-1.6,7.7-2.8,11.1-4c1.2,1,2.5,1.8,3.4,3c1.3,1.7,3.5,4,3.1,5.3c-0.7,1.9-3.1,3.8-5.2,4.3
			c-2,0.4-4.7-0.6-6.4-1.9C1012,649.6,1010.6,647.3,1008.2,644.4z"/>
		<path class="st0" d="M403.8,304.2c0.5,4.5-2.7,6.3-6.1,7.1c-3.1,0.7-8.1-4.1-7.9-7.2c0.3-3.8,2.2-6,6.5-5.9
			C402.2,298.4,403.8,299.6,403.8,304.2z"/>
		<path class="st0" d="M1251.4,387.9c3.2,1.3,6.3,1.8,8.3,3.6c2.1,1.8,4,4.6,4.3,7.1c0.3,2.4-5.9,4.9-8.3,3.9
			C1251.1,400.5,1248.6,391,1251.4,387.9z"/>
		<path class="st0" d="M732.3,102.6c4.3-1.3,8.6-3,13.1-3.7c1.2-0.2,3.7,2,4,3.5c0.5,2.2,0.2,5-0.8,7.1c-0.4,0.9-3.5,1.5-4.8,0.9
			c-4-1.7-7.8-4-11.6-6C732.2,103.7,732.2,103.2,732.3,102.6z"/>
		<path class="st0" d="M1646.1,551.9c1,0.9,1.7,1.6,2.4,2.3c2.1,2.2,5.4,4.4,2.6,7.7c-2.5,3-5.8,5.8-10.1,2.3
			c-1.8-1.4-3.7-2.7-5.5-4.1c1.9-1.7,3.8-3.4,5.8-5C1642.8,554,1644.3,553.1,1646.1,551.9z"/>
		<path class="st0" d="M1861.8,485.9c-2.8,1.8-5.9,5.5-8.4,5.1c-2.9-0.4-6.7-4.1-7.4-6.9c-0.7-2.9,2.2-6.2,6.8-5.5
			C1857,479.1,1861.3,482.2,1861.8,485.9z"/>
		<path class="st0" d="M1457.2,328.5c1.1-4.5,4.5-7.9,7.7-8c3.4-0.1,7.9,4.2,6.7,7.5c-1,2.8-4.4,6.6-6.8,6.6
			C1462.3,334.6,1459.8,330.7,1457.2,328.5z"/>
		<path class="st0" d="M1112.4,401.5c0.2-4.2,5-9.5,8.2-8.8c2.2,0.5,5.3,2.4,5.8,4.3c0.9,3.4-5.5,9.8-8.6,8.9
			C1115.7,405.4,1111.6,405.8,1112.4,401.5z"/>
		<path class="st0" d="M725.5,513.1c-6-3.6-14.3,4-19.5-4.8c0.5-0.6,1.2-1.2,1.7-2c3.6-5.8,6.8-6,11.5-1c1.4,1.5,3.3,2.5,4.9,3.9
			c0.9,0.8,1.7,1.7,2.5,2.6C726.2,512.3,725.9,512.7,725.5,513.1z"/>
		<path class="st0" d="M1935.1,609.7c-1.9,1.8-3.6,4.7-5.8,5.2c-3.9,0.9-8.4-3.1-8.3-6.3c0-4.7,2.9-7.4,8-7
			C1933.3,601.9,1933.9,605.2,1935.1,609.7z"/>
		<path class="st0" d="M348.6,319c0.7,3.5-0.8,5.1-4.4,5.3c-5.7,0.4-9.3-2-8.7-7c0.3-2.2,3.6-4.9,6.1-5.6
			C345.2,310.7,348.2,314.4,348.6,319z"/>
		<path class="st0" d="M741.9,551.9c0.1,2.6-5.2,6.5-9.2,6.2c-1.7-0.1-4.6-1.3-4.7-2.4c-0.8-5.2,3.6-10.4,8.2-10.7
			C741.2,544.8,741.4,548.4,741.9,551.9z"/>
		<path class="st0" d="M1876.3,469.1c-9-1.5-11.6-3.3-10.7-7.5c0.9-4,4.8-7.1,7.9-6.3C1878.7,456.8,1879.6,460.8,1876.3,469.1z"/>
		<path class="st0" d="M1817.1,397.1c5.8,0.6,7.2,2.3,6.9,7.6c-0.3,4.2-3.3,5-6.3,5.5c-2.7,0.4-7.5-5.7-7.1-8.4
			C1810.9,398.8,1813.7,396.8,1817.1,397.1z"/>
		<path class="st0" d="M1007.3,167.7c5.6-0.4,8.1,1.8,8.7,6.6c0.5,4.1-2.3,5.3-5.3,5.7c-3.8,0.6-8.7-3.8-8.7-7.9
			C1002,168.6,1004,166.8,1007.3,167.7z"/>
		<path class="st0" d="M2533.6,566.4c-0.8-1.4-2.8-3.6-3.1-6c-0.5-3.3,4.5-6.7,8.7-6.4c2.5,0.2,5.6,0.2,5.5,4.2
			C2544.4,563,2540.4,566.5,2533.6,566.4z"/>
		<path class="st0" d="M1066.6,282c5.9,0,7.7,1.5,7.4,6.5c-0.2,4.1-3.1,5.5-6.7,5.6c-3.8,0.1-7.5-3.8-7.3-7.8
			C1060.2,281.5,1064.2,282.7,1066.6,282z"/>
		<path class="st0" d="M846.9,279.6c0,3.2-3.4,7.3-6.1,7.3c-4,0.1-7.7-3.5-7.3-7.5c0.3-2.9,0.9-6,4.9-6
			C841.9,273.5,846.9,277.1,846.9,279.6z"/>
		<path class="st0" d="M1575.9,599.5c2.4-2.1,4.1-4.1,6.1-5.2c2.1-1.2,4.6-1.6,6.9-2.4c3-1,5.5-0.1,6,3c0.5,3,1,6.9-3.6,7.2
			c-3,0.2-6-0.7-9-1.1C1580.6,600.7,1578.9,600.2,1575.9,599.5z"/>
		<path class="st0" d="M414.2,380.4c0.7,3.8-1.4,6.1-5.1,6.5c-4,0.4-6.9-3.2-7.1-7.6c-0.2-4.1,1.5-6.1,5.7-6
			C412.8,373.3,414.3,374.9,414.2,380.4z"/>
		<path class="st0" d="M1364.8,419.2c-4.1,0.2-6.4-2.1-6.7-6.6c-0.2-2.4,5.1-8.5,6.8-7.5c2.5,1.6,5,4.4,5.9,7.2
			C1372,416,1368.8,419.1,1364.8,419.2z"/>
		<path class="st0" d="M920.2,393.7c1.1-4.7,5.6-10.2,7.7-8.8c2.7,1.7,5,4.9,5.9,8c1,3-3.6,7.6-6.2,6.5
			C924.8,398.3,922.6,395.7,920.2,393.7z"/>
		<path class="st0" d="M3018.6,548.1c4.4,0.2,6.9,2.7,6.7,6.8c-0.3,4.4-3.4,5.7-7.1,6.1c-2.6,0.3-6.8-4.4-6.8-7.3
			C3011.3,550.2,3014.3,547.9,3018.6,548.1z"/>
		<path class="st0" d="M1359.5,481.3c1.2-2.3,1.7-4.1,2.8-4.9c0.7-0.5,2.4,0.4,3.7,0.8c0.7,0.2,1.5,0.2,2.1,0.6c2,1,4.7,1.6,5.6,3.3
			c0.8,1.4,0.2,4.9-1.1,5.9c-1.7,1.4-5.3,2.4-6.8,1.5C1363.2,486.8,1361.5,483.7,1359.5,481.3z"/>
		<path class="st0" d="M1703,475.5c0.1,4.7-2.9,8.6-6.2,8.7c-2.8,0.1-6.9-4.7-6.8-8.1c0.2-4.4,4-5.2,7-5.6
			C1700.6,470,1702.8,472.4,1703,475.5z"/>
		<path class="st0" d="M794.9,182.2c-0.7,2.5-0.1,7.4-4.7,6.4c-3.1-0.7-6.5-3.8-7.9-6.8c-1.4-2.9,3.3-7.1,6.7-7
			C792.7,175,795,177.6,794.9,182.2z"/>
		<path class="st0" d="M1080.3,364.7c0.5-0.5,1.9-3,3.3-3.1c6.6-0.3,10.8,2,10.7,5.1c-0.1,4.1-3.4,7.4-7.5,7.5
			C1083.5,374.2,1080.3,370.4,1080.3,364.7z"/>
		<path class="st0" d="M1764.7,589.6c-4.4-1.9-8.1-3.4-11.6-5.2c-0.2-0.1,0.5-3.3,1.4-3.8c2.2-1.2,4.8-1.9,7.4-2.3
			c1.7-0.3,4.3-0.3,5.1,0.7c1.5,1.9,2.8,4.7,2.6,6.9C1769.4,587.2,1766.3,588.4,1764.7,589.6z"/>
		<path class="st0" d="M1064.9,248.3c1.5,0.6,6.6-1.4,6.4,4.5c-0.1,3.4-4.6,7.3-7.9,7.5c-4.6,0.2-5.7-3.7-6-6.5
			C1057.2,250.7,1058.6,247,1064.9,248.3z"/>
		<path class="st0" d="M232.2,554.2c-6.6,4-9.8,4.4-13.6,0.7c-1.2-1.1-2-4.5-1.2-5.4c1.7-1.9,4.8-4.2,6.7-3.8
			C227.9,546.7,233.5,547,232.2,554.2z"/>
		<path class="st0" d="M1067.4,197.2c-0.1-4.2,2.3-6.3,6.1-5.9c3.4,0.3,7.8,0.2,8.6,5c0.5,2.6-6.2,7.2-9.8,7.1
			C1069.4,203.2,1067.5,200.9,1067.4,197.2z"/>
		<path class="st0" d="M337.6,606.4c-3-1.6-6.2-2.2-7.5-4.1c-1.2-1.9-1.6-6.3-0.4-7.3c1.7-1.4,5.2-0.9,7.8-0.6
			c1,0.1,2.1,1.6,2.8,2.7c1.1,1.8,2.8,4.1,2.4,5.7C342.4,604.3,339.5,605.2,337.6,606.4z"/>
		<path class="st0" d="M2770.9,604c0.1-4.4,2.8-7.9,6.2-6.5c3,1.2,6.5,4.6,7.1,7.5c0.7,3.4-3.3,5.1-6.9,5.1
			C2772,610.2,2770.8,609,2770.9,604z"/>
		<path class="st0" d="M1091.4,466.1c3.3-4.8,6.7-7.1,10.8-4.9c1.9,1,4,4.9,3.5,6.6c-0.8,2.5-5.2,6.4-5.9,6
			C1096.4,471.8,1094,468.6,1091.4,466.1z"/>
		<path class="st0" d="M436,138.5c-1.2,4.3-2.5,6.7-6.3,6.6c-5-0.1-8.4-2.9-8.4-6.9c0-2.4,5.3-6.1,9.5-5.3
			C432.8,133.2,434.3,136.5,436,138.5z"/>
		<path class="st0" d="M1416.5,525.5c0.4-3,3.4-4.1,6.7-3.9c3.8,0.1,7.3,2.4,7.2,5.9c-0.1,2.3-3.3,5.8-5.7,6.3
			C1419.8,534.9,1416.4,531.2,1416.5,525.5z"/>
		<path class="st0" d="M930,311.2c0,4.6-2.3,7.2-6.5,7.1c-3.2-0.1-8.1-4.4-6.9-6.8c1.2-2.4,4-5,6.4-5.3
			C925.7,305.7,930.6,305.2,930,311.2z"/>
		<path class="st0" d="M888.7,303.8c-2,5.5-5.7,7.4-10.2,8.2c-3.2,0.6-4.7-0.4-4.1-4c1.4-8.1,2.8-9.9,8.2-8.5
			C884.8,300.2,886.7,302.4,888.7,303.8z"/>
		<path class="st0" d="M2119.6,619.8c-2.1,2.3-3.8,5.8-6.4,6.7c-3.1,1.1-8.6-5.3-7.4-8.9c0.7-2.1,4.2-4.3,6.6-4.5
			C2115.4,612.9,2118.9,614.4,2119.6,619.8z"/>
		<path class="st0" d="M791.2,485.1c-4-0.5-8.6,1.5-10.1-3.5c-0.7-2.1-3.6-5.3,0.5-7c3.4-1.4,7.1-3,10.6,0.3
			C796.6,478.9,791.3,481.6,791.2,485.1z"/>
		<path class="st0" d="M1319.1,369.2c-5.8-0.7-9.4-4-8.7-7.9c0.3-1.7,8.4-6.4,10.1-5.1c1.9,1.5,3.4,4.8,3.2,7.1
			C1323.5,365.4,1324.1,370,1319.1,369.2z"/>
		<path class="st0" d="M2554.2,645.7c-0.3,4.6-3.2,7.7-7.6,6.7c-2-0.4-4.8-2.9-5.1-4.8c-0.7-4.2,3.1-9,5.9-8.9
			C2551.1,638.8,2554.4,642.3,2554.2,645.7z"/>
		<path class="st0" d="M2968.2,585.3c0.4,4.7-3.2,5.3-6.4,5.5c-5,0.4-7-1.6-7-6.2c0-3.6,3.1-6.1,7.6-5.8
			C2966.4,579.1,2968.4,581.2,2968.2,585.3z"/>
		<path class="st0" d="M1516.8,507.1c5.9-6.6,7.2-7.1,12.8-4.3c2.9,1.5,4.7,3.6,2.6,7.2c-1.8,3-6.1,4.9-8.5,3.1
			C1521.3,511.4,1519.2,509.3,1516.8,507.1z"/>
		<path class="st0" d="M668.8,178.4c-0.5,6.7-3.6,10.7-10.4,11.5c-2.6-2.3-5.1-5.1-2.6-9C658.8,176.3,663.6,175.5,668.8,178.4z"/>
		<path class="st0" d="M2779.5,528.2c3.6,2.9,7,4.4,8.3,7c1.3,2.8-4.5,8.1-8.3,8.3c-2.9,0.1-5.8-3.6-5.2-8.2
			C2774.6,533.1,2777.1,531.3,2779.5,528.2z"/>
		<path class="st0" d="M935,342.4c0.9,0.8,4,2.2,4.6,4.3c1,3.4-4.6,10.1-7.2,9.1c-2.3-0.9-5-3.5-5.5-5.8
			C925.8,345.3,928.6,342.5,935,342.4z"/>
		<path class="st0" d="M1526.1,576.3c7.2-8.1,8.2-8.5,13.3-4.3c3.1,2.5,2.4,6,0,8.1c-1.7,1.5-5.1,2.1-7.2,1.5
			C1530,580.9,1528.3,578.3,1526.1,576.3z"/>
		<path class="st0" d="M2167,577.9c2.6-2.7,3.9-5.5,5.9-6c3.5-0.9,7.1-0.2,7.4,4.7c0.1,0.8,0.5,1.5,0.8,2.3c0.5,1.4,1.1,2.7,1.7,4.1
			c-1.7,0.3-3.3,0.9-5,0.9c-1.6,0-3.4-0.2-4.8-0.9C2171.2,582,2169.7,580.3,2167,577.9z"/>
		<path class="st0" d="M1839.5,569.1c2.3,0,4.7-0.8,4.6,3.2c-0.2,6.4-2.3,10.6-5.8,10.5c-2.1-0.1-6.6-5.6-6.5-8.1
			C1831.8,570.6,1833.9,569.1,1839.5,569.1z"/>
		<path class="st0" d="M3057.3,536.7c-0.9-3.9,1.7-5.3,5.2-5.5c3.7-0.2,6.1,1.6,6.3,5.4c0.3,4.3-3,8.9-6.2,8.5
			C3058.1,544.5,3057.3,540.9,3057.3,536.7z"/>
		<path class="st0" d="M1146.2,460.4c-0.8,0.8-2.3,3.2-4.1,3.6c-4,0.8-9.3-3.2-9.2-6.1c0.2-4.1,2.9-6.3,7.7-6.5
			C1144.1,451.2,1146.2,454,1146.2,460.4z"/>
		<path class="st0" d="M2205.2,570.2c-4.8-0.2-7.5-2.9-7.3-8.2c0.2-4.2,4.1-3.9,6.6-4.3c4.1-0.6,7.1,2.3,6.9,5.8
			C2211.1,567.1,2210.4,570.6,2205.2,570.2z"/>
		<path class="st0" d="M747.1,342.9c-0.7-0.8-3-2.1-3.2-3.7c-0.6-4.1,4.8-10.5,7.9-9.5c2,0.6,4.4,3.2,4.7,5.2
			C757.1,339,752.6,343.1,747.1,342.9z"/>
		<path class="st0" d="M3152.2,622.6c-0.6-3.6,1.5-5.7,4.9-5.1c3.1,0.5,7.3,0.8,7.7,5.3c0.4,4.2-3.2,7.8-7.1,7.7
			C3152.8,630.3,3152,627,3152.2,622.6z"/>
		<path class="st0" d="M2674.1,581c3.5,0.1,6.7,3.2,6.5,6.3c-0.2,2.5-5.2,6.2-8.3,5.5c-2.6-0.6-6.1-0.9-5.9-5.1
			C2666.7,583.4,2669.5,580.9,2674.1,581z"/>
		<path class="st0" d="M407.5,586.1c-3.5-3.2-7.8-5.3-7.9-7.7c-0.2-2.4,3.6-5.2,5.6-7.8c2.5,2.4,5.9,4.4,7.2,7.3
			C413,579.4,409.7,582.6,407.5,586.1z"/>
		<path class="st0" d="M1266.8,250.4c3.2,0.3,5.1,0.8,6.8,0.6c4.4-0.5,4.7,3.2,5.3,5.7c0.7,2.9-1.2,5.3-4.3,5.3
			c-2.2,0-4.6-0.8-6.5-2c-1.4-0.9-2.4-2.7-3-4.3c-0.5-1.2-0.5-2.8-0.1-4C1265.4,250.7,1266.9,250.3,1266.8,250.4z"/>
		<path class="st0" d="M2236.8,486.5c4.7,0.5,10.4-0.7,11.3,5.9c0.2,1.8-1.6,5.2-3,5.6c-3,0.6-7.9,0.9-9.2-0.8
			C2233.8,494.3,2233.7,489.8,2236.8,486.5z"/>
		<path class="st0" d="M589.6,609.3c-3.7,0-7.5-3.7-7.1-6.9c0.6-4.5,4.5-6.2,7.9-5.5c2.3,0.5,5.3,4.2,5.5,6.6
			C595.9,606.8,593.8,610.3,589.6,609.3z"/>
		<path class="st0" d="M1965.3,499.3c3.5,4.6,2.7,8.8-0.9,11.8c-1.4,1.2-5.9,0.8-7-0.5c-1.6-1.9-2.3-5.5-1.8-8
			C1957,495.6,1962.6,501.8,1965.3,499.3z"/>
		<path class="st0" d="M2643,623.1c3.5,0,9.2,4.1,8.8,6.6c-0.5,3.5-2.7,7.2-6.1,6.2c-3-0.9-5.8-4.4-7.2-7.4
			C2637.7,626.8,2638.9,622.8,2643,623.1z"/>
		<path class="st0" d="M898.2,594.2c-3.7,0.2-4.8-3-5.2-6c-0.5-4.3,2.5-7.1,7-6.8c3,0.2,5.9,1.2,6.1,5
			C906.4,589.8,902.2,594.1,898.2,594.2z"/>
		<path class="st0" d="M866.4,321.1c-5.6,0.7-4.6-3.9-5.6-6.2c-1.1-2.4,3.4-6.1,6.7-6.1c3.5,0,7.8,3.9,7.3,7.4
			C873.9,321.3,869.1,320.2,866.4,321.1z"/>
		<path class="st0" d="M2218.2,474.8c3.8,0,6.9,3.1,6.7,7c-0.1,3.9-2.8,5.8-6.1,5.6c-3.5-0.2-6.8-1.9-7.2-6.1
			C2211.3,477.8,2214.6,474.7,2218.2,474.8z"/>
		<path class="st0" d="M154.7,534.2c2.8,0.2,4.9,3.7,4.7,6.5c-0.1,2.3-3.4,6-5.5,6.2c-2.6,0.3-7.5,0.5-7.7-4.6
			C146,538.7,150.1,534.2,154.7,534.2z"/>
		<path class="st0" d="M1191.6,309.3c-5.1,0.4-6.1-4.1-5.6-6.1c0.6-2.5,3.7-5.3,6.3-6.3c2.4-0.9,6.3-0.3,6.6,4
			C1199.2,305.8,1196,309.2,1191.6,309.3z"/>
		<path class="st0" d="M1820.2,356.6c1.6-0.8,4.2-3.3,5.9-2.8c2.9,0.9,6.2,3.2,7.5,5.9c1.3,2.8-2.8,6.5-6.3,6.5
			C1822.9,366.2,1820.1,363.1,1820.2,356.6z"/>
		<path class="st0" d="M562.9,197.5c0.8,3.9-1.2,5-5,4.7c-3.4-0.3-7.3,0.4-7.4-4.7c-0.1-3.8,3.5-7.7,6.9-7.7
			C561.1,189.6,563,192.2,562.9,197.5z"/>
		<path class="st0" d="M995.4,606.3c-2.3-0.1-7.6-6.2-6.5-8.2c1.1-2,3.8-4.1,6-4.4c4.1-0.5,7.7,3.5,7.6,7.1
			C1002.4,602.4,997.3,606.4,995.4,606.3z"/>
		<path class="st0" d="M737.5,384.2c-3.2,0.3-6.1-0.5-6.7-4.4c-0.4-2.8,4.7-6.9,8.2-7c3.5-0.1,6.3,3.2,6.2,7.1
			C745,383.2,743.2,384.2,737.5,384.2z"/>
		<path class="st0" d="M1082.2,392.6c0.3-4-0.1-7.8,1.1-10.9c0.5-1.4,4.3-2.4,6.5-2.2c4.5,0.4,5.9,5,5,7.8
			C1093.2,392.5,1087.6,391.9,1082.2,392.6z"/>
		<path class="st0" d="M816.2,479.2c-4.4-1.3-7.3-2.3-6.9-6.5c0.3-3.3,0.5-7.1,4.6-7.7c3.8-0.6,8.3,4.7,7.3,9
			C820.8,476,817.9,477.5,816.2,479.2z"/>
		<path class="st0" d="M2388.1,617.1c2.3-1.7,4.9-3.6,7.5-5.5c2.1,2.9,4.7,5.7,6.1,8.9c0.4,0.9-2.3,4.5-3.8,4.8
			C2392.7,626.1,2389.9,622.6,2388.1,617.1z"/>
		<path class="st0" d="M928.9,150c3.1,0,6.4,3.9,6.1,7.7c-0.2,2.8-0.8,5.7-4.9,5.6c-4.3-0.2-7.8-2.8-7.8-6.1
			C922.3,152.9,925,149.9,928.9,150z"/>
		<path class="st0" d="M1471.7,591.3c-3.8-0.9-7.9-5.5-7.5-8.6c0.5-4,4-4.8,7.2-5.2c2.8-0.3,7.4,4.3,6.4,6.6
			C1476.5,586.8,1473.8,588.9,1471.7,591.3z"/>
		<path class="st0" d="M772.8,138.5c-3.6-0.1-5.1-2.6-5.5-5.7c-0.4-2.9,3.6-7.1,6.5-6.7c3.1,0.4,7,0.3,7,5
			C780.7,135.8,777.8,138.4,772.8,138.5z"/>
		<path class="st0" d="M1156.1,521.9c4.8-2.1,9.1-3.6,12,1.1c1,1.6,0.8,5-0.2,6.6c-1.8,2.8-4.9,3-8.3,1.8
			C1153.9,529.4,1157.1,525.1,1156.1,521.9z"/>
		<path class="st0" d="M475.1,552.7c5.2-2.1,10.4-4.4,15.7-6.1c0.9-0.3,3.1,1.9,3.8,3.4c0.5,1,0,3.5-0.8,4c-2.2,1.2-4.8,2.2-7.2,2.2
			c-3.7,0-7.4-1-11.1-1.5C475.4,554,475.3,553.3,475.1,552.7z"/>
		<path class="st0" d="M630.4,497.5c0.7,1.3,2.2,3.2,2.7,5.3c0.6,2.4-4.7,7.3-7.4,7.4c-2.8,0.1-5.8-3.6-5.8-7.3
			C619.9,499.5,623.1,497.5,630.4,497.5z"/>
		<path class="st0" d="M1305.5,217.4c-0.7-4.3,2.6-5.2,5.5-5.9c2.4-0.5,7.3,5.5,6.2,8.6c-0.7,2.2-3.6,4.4-6,5
			C1308,225.9,1305.5,222.1,1305.5,217.4z"/>
		<path class="st0" d="M510,120.1c-1.5,2.5-2.6,5.7-4.8,7.5c-1.4,1.1-5.2,1.2-6.5,0.1c-2.4-1.9-4.5-5-2.6-8.6
			C498.1,115.5,503.4,115.8,510,120.1z"/>
		<path class="st0" d="M2960.1,617.2c3-0.1,6.8,3.7,7,7c0.2,2.5-4,6.5-6.7,5.6c-2.6-0.8-5.5-2.9-6.7-5.2
			C2952.6,622.3,2957.6,617.2,2960.1,617.2z"/>
		<path class="st0" d="M3199.4,591.5c-6.7-0.1-11.8-3.3-11.2-6.2c1.3-6,6.9-4.2,10.6-4.8c4.2-0.7,4.1,4,4,6.4
			C3202.8,588.7,3200.1,590.6,3199.4,591.5z"/>
		<path class="st0" d="M210,230.8c-2.8-1.4-4.4-2.2-6-3c-1.9-0.9-3.8-1.6-5.6-2.6c-1.1-0.6-2-1.4-3-2.1c0.9-0.8,1.7-2,2.7-2.3
			c3.5-0.9,7.2-2.2,10.6-1.8c1.8,0.2,4.2,3.4,4.6,5.6C213.7,226.4,211.4,228.5,210,230.8z"/>
		<path class="st0" d="M1824,328.8c-0.7,0.6-2.2,3-3.9,3.2c-4.6,0.6-9.1-4-9-8.4c0.1-5.2,4.6-3.9,7.3-4.4
			C1821.5,318.5,1823.9,322.2,1824,328.8z"/>
		<path class="st0" d="M1356.9,228.9c3.7-4.5,7.9-4.9,12-2.7c1.8,1,3.3,3.5,3.7,5.5c0.2,1-2.1,3.3-3.6,3.7c-1.9,0.6-4.6,0.5-6.3-0.5
			C1360.5,233.6,1358.9,231.1,1356.9,228.9z"/>
		<path class="st0" d="M2192.3,620.1c3.4-0.1,5.8,3.2,6,7.8c0.2,4.7-4,4.9-6.2,4.9c-2.3,0-5.7-2.2-6.6-4.3
			C2184.1,625.3,2188.9,620.2,2192.3,620.1z"/>
		<path class="st0" d="M1431.5,419.3c-3.4-3.7-5.7-6.2-8.1-8.7c3-1.8,5.8-4.6,9.1-5.3c4.1-0.8,5.6,3.4,5.1,6.3
			C1437.2,414,1434.3,415.9,1431.5,419.3z"/>
		<path class="st0" d="M1741.6,313.3c-3.2,2.7-4.9,5.3-6.8,5.5c-2.4,0.3-5.4-0.8-7.3-2.4c-1.4-1.1-2-3.8-2.1-5.9
			c-0.2-2.6,1.1-4.5,4.2-3.6c1.9,0.5,3.9,0.8,5.6,1.7C1737,309.6,1738.5,311,1741.6,313.3z"/>
		<path class="st0" d="M2393.1,490.3c1.3-5.6,2.3-10.1,7.5-9.8c2,0.1,5.7,3,5.5,4.3c-0.4,3.1-1.9,7.3-4.2,8.4
			C2399.9,494.2,2396.1,491.5,2393.1,490.3z"/>
		<path class="st0" d="M944.8,422.3c-0.4-4.8,3.2-4.8,6.4-5.3c4.3-0.6,5.4,2.1,5.6,5.5c0.3,4.9-1.9,7.7-6.3,7.5
			C945.9,429.9,945.1,426.2,944.8,422.3z"/>
		<path class="st0" d="M2183.1,605.3c3.4,3.3,5.6,5.4,7.8,7.6c-2.5,2.5-4.7,5.6-7.7,7.1c-0.8,0.4-5.7-3.6-5.7-5.5
			C2177.7,611.8,2180.6,609.2,2183.1,605.3z"/>
		<path class="st0" d="M1781.7,624.4c1.1-0.9,3.5-4.1,4.8-3.7c3.5,1.1,6.4,3.8,9.6,5.8c-2.4,2.2-4.4,5.4-7.1,6.4
			C1785.8,634,1781.9,629.6,1781.7,624.4z"/>
		<path class="st0" d="M1465.2,203.5c0.1,4.7-3.6,7.8-8.8,7.7c-5.5-0.1-1.8-5.3-4-7.3c2.2-1.8,4.2-4.5,6.7-5.1
			C1462.6,197.9,1465,200.2,1465.2,203.5z"/>
		<path class="st0" d="M1699.6,544.6c-0.4,2.7-0.5,5-1.2,7.1c-1.4,4.2-3.5,4.6-7.3,1.8c-1.7-1.2-3.7-2-5.4-3.3
			c-0.9-0.7-1.5-1.9-1.7-2.9c-0.1-0.5,0.9-1.6,1.6-1.9c3.5-1.4,6.9-4.1,10.9-1.3C1696.9,544.5,1697.9,544.4,1699.6,544.6z"/>
		<path class="st0" d="M859.9,391.2c-4,0.5-5.4-3.1-4.9-5.2c0.7-2.7,3-5.8,5.5-7.1c2.5-1.3,8.1,3.4,8.3,6
			C869,387.3,863.6,391.1,859.9,391.2z"/>
		<path class="st0" d="M654,622.2c-2.1-0.8-5.8-0.1-5.6-4.7c0.1-3.2,4.9-8.7,7.5-7.8c2.4,0.8,5.2,3,5.9,5.2
			C662.7,617.8,657.6,622.2,654,622.2z"/>
		<path class="st0" d="M2457.5,634.8c-2.9-2.5-6.3-4.7-8.4-7.7c-1.2-1.7,5.1-6,9.3-4.9c2.2,0.6,4.7,3.9,5.3,6.4
			C2464.5,631.9,2461.9,633.9,2457.5,634.8z"/>
		<path class="st0" d="M120.6,395.3c0.6,1.6,1.8,3.4,1.9,5.3c0.1,2.9-0.1,6-1,8.8c-0.5,1.6-2.3,3.7-3.8,4c-1.6,0.3-5-0.8-5.2-1.9
			c-0.5-2.3-0.2-5.3,0.9-7.4C115,401.2,117.5,398.9,120.6,395.3z"/>
		<path class="st0" d="M492.2,262.1c0-1.3,0-2.1,0-3c0.2-3.4-0.1-7.3,4.7-7.9c3.6-0.5,8.5,3.3,8.8,7.2c0.1,1.3-2.1,3.8-3.6,4.1
			C499,263,495.8,262.3,492.2,262.1z"/>
		<path class="st0" d="M1367.5,587.7c0.1-2.1,5.3-6.4,7-5.2c2.4,1.7,5.4,5,5.2,7.4c-0.2,2.3-3.7,5.1-6.4,6.3
			C1371.1,597.2,1367.4,591.5,1367.5,587.7z"/>
		<path class="st0" d="M3088.9,597.5c5.2-0.4,5.9,4,5.6,6.8c-0.3,2.2-3.4,5-5.8,5.7c-3.5,1.1-6.7-3-6.3-7.4
			C3082.8,599.1,3085.4,597.5,3088.9,597.5z"/>
		<path class="st0" d="M1919.5,422.8c0.6-3.1,3.2-3.7,6.5-3.6c4.2,0.2,6.8,2.9,5.8,7.7c-0.4,2.1-3.3,4.5-5.6,5.1
			C1922.9,432.9,1919.3,427.8,1919.5,422.8z"/>
		<path class="st0" d="M36.6,500c-2.6-5-1.7-9.3,2-12.7c1-0.9,4.3-1.1,4.5-0.7c1.3,3.2,2.9,6.6,2.6,9.8c-0.1,1.4-4.2,2.6-6.5,3.7
			C38.6,500.4,37.6,500.1,36.6,500z"/>
		<path class="st0" d="M375.9,449.7c5.9-6.9,10.1-8.7,12.2-5.2c1.3,2.2,1.8,6.5,0.5,8.5C385.8,457.2,380.6,455.6,375.9,449.7z"/>
		<path class="st0" d="M1805.6,557.2c-3.1-2.2-6.3-4.5-9.4-6.7c3.3-2,6.4-4.7,10-5.7c1.3-0.4,3.8,3.2,5.7,5
			c-2.1,1.8-0.4,6.9-5.4,6.2C1806.1,556.4,1805.8,556.8,1805.6,557.2z"/>
		<path class="st0" d="M661.4,535.9c-0.2,3.9-1.5,6.3-5.6,6.2c-2.4-0.1-8-5.3-7.2-7.4c0.9-2.1,3.2-4.7,5.2-5.1
			C657.7,528.8,661.4,532.7,661.4,535.9z"/>
		<path class="st0" d="M3116.5,588.4c2.1,1,5.7,1.2,5.7,5.4c0,3.6-4.3,7.3-8.6,7.3c-3.5,0-4.4-2.7-4.4-5.6
			C3109.1,590.6,3111.3,588.4,3116.5,588.4z"/>
		<path class="st0" d="M800.2,270.6c0-4,0.7-7.3,4.8-7.6c4-0.3,7.9,3.2,8,6.3c0.1,3.7-2.8,5.8-7.8,6.1
			C801.3,275.6,800,273.6,800.2,270.6z"/>
		<path class="st0" d="M1270.6,188.3c-1.6,3.7-4.4,6.5-8.5,5.6c-3.4-0.8-6.3-3.3-9.7-5.2C1260.1,182,1265.8,182,1270.6,188.3z"/>
		<path class="st0" d="M820,265.7c2.6-5.7,5-9.8,10.9-7.6c1.2,0.5,3,2.5,2.7,3.3c-1.1,3.3-2.8,6.5-4.3,9.7
			C826.2,269.3,823.1,267.5,820,265.7z"/>
		<path class="st0" d="M2370.9,513.7c-3.6,2.9-6.3,6.8-8.3,6.4c-2.8-0.6-5.8-3.7-7.3-6.5c-1.2-2.3,4.3-6.9,7.5-5.9
			C2365.4,508.4,2367.4,511,2370.9,513.7z"/>
		<path class="st0" d="M2658.2,613.4c4-2,7.9-3.5,11.2-0.4c1.4,1.3,2.1,5.7,1.2,6.6c-2.2,2-5.8,4.1-8.4,3.6
			C2656.6,622.3,2659.7,616.8,2658.2,613.4z"/>
		<path class="st0" d="M1357.5,290.1c-0.1-6.3,2.5-8.9,6.3-7.6c2.8,1,4.8,4.3,7.2,6.6c-2.4,1.9-4.8,5.2-7.3,5.3
			C1361.4,294.4,1358.9,291.1,1357.5,290.1z"/>
		<path class="st0" d="M997,391.2c-0.2,7.8-1.7,10.2-6.1,9.9c-4.6-0.3-8.3-3.3-7.2-6.2c0.9-2.2,3-4.9,5-5.4
			C991.1,388.9,994,390.5,997,391.2z"/>
		<path class="st0" d="M2316,606.4c-0.2,4.6-4.3,5.4-7.3,5.7c-3.3,0.4-5.5-2.4-5.6-6c-0.1-3.2,3.7-7,7.2-6.6
			C2314.1,599.9,2315.9,602.5,2316,606.4z"/>
		<path class="st0" d="M2576.2,534.4c-3.7,2.8-6.2,5.7-9.1,6.4c-1.3,0.3-4.7-3.8-5.3-6.3c-0.8-3.7,3.8-8.1,7-7
			C2571.3,528.3,2573,531.3,2576.2,534.4z"/>
		<path class="st0" d="M2655,551.5c-4-0.2-9.8-4.6-8.7-6.7c1.2-2.2,3.8-4.6,6.2-5.1c3.7-0.9,9.2,3.8,8.4,6.6
			C2660.1,549.1,2658.9,552.4,2655,551.5z"/>
		<path class="st0" d="M2768.2,619.6c2.5,3.5,5.4,5.8,5.9,8.6c0.7,3.9-2.4,5.8-6.2,5.7c-3.6-0.1-7-4.4-6-8.9
			C2762.2,623.3,2765.2,622.1,2768.2,619.6z"/>
		<path class="st0" d="M212.5,277.5c-0.1,4.6-3.4,5.4-7,5.6c-3.3,0.1-5.8-3.1-5.6-7.2c0.1-3.3,1.7-5.2,5.3-5
			C210.1,271,212.4,273.1,212.5,277.5z"/>
		<path class="st0" d="M722.5,205.7c-4.5,1.8-8.4,5.1-12.8,1.9c-1.3-0.9-2-4.8-1.2-6.1c1.3-2,4.2-4.2,6.5-4.2
			C720.1,197.1,720.3,202.2,722.5,205.7z"/>
		<path class="st0" d="M1980,445.6c0.7,0.7,3.1,1.9,3.7,3.7c0.9,2.7-3.5,8.5-5.8,8.3c-3.3-0.3-7.4,0.6-7.8-4.6
			C1969.9,449.4,1973.8,446,1980,445.6z"/>
		<path class="st0" d="M2023.8,538.5c-0.8-4.2,1-6.8,5.3-6.8c4.5,0,7,2.6,6.8,6.4c-0.1,2.7-4.8,6.6-7.8,6.1
			C2025,543.7,2022,542.8,2023.8,538.5z"/>
		<path class="st0" d="M566.6,390.1c-2-4.3-2.5-8.5,1.4-11.3c1.7-1.2,5-1.3,7.2-0.6c1.3,0.5,2.6,3.7,2.2,5.4
			C576.5,387.8,572.1,390.2,566.6,390.1z"/>
		<path class="st0" d="M1881.3,608.8c0.9,1.5,3.7,4.2,3.2,5.8c-0.8,2.5-4.8,6.5-5.7,6c-3.3-1.5-6.4-4.2-8.5-7.3
			C1869.1,611.5,1873.8,609.1,1881.3,608.8z"/>
		<path class="st0" d="M642.9,113c0.2,4.2-2.9,4.7-5.5,4.9c-3.5,0.4-7.4-4-7.2-7.8c0.2-3.7,3.3-4.2,6.1-4.3
			C640.1,105.5,642.8,108.9,642.9,113z"/>
		<path class="st0" d="M412.1,97.4c-3.3-0.1-7.9-3.9-6.6-5.8c1.9-2.7,5-5.4,8-6.1c1.5-0.3,4.8,3.5,5.9,6
			C420.4,93.7,415.2,97.5,412.1,97.4z"/>
		<path class="st0" d="M1640.6,334.5c-2-2.2-5.1-4.2-5.7-6.7c-1-3.9,2.9-8.4,5.8-7.1c2.7,1.3,5.5,4.5,6.3,7.4
			C1647.7,330.8,1645.4,333.7,1640.6,334.5z"/>
		<path class="st0" d="M2136.7,449.6c0.4-3.1,0.4-6.8,4.8-7c3.1-0.1,8.2,5,7.2,8c-0.7,2.1-3.7,4.8-5.6,4.8
			C2140.3,455.2,2135.5,455.1,2136.7,449.6z"/>
		<path class="st0" d="M1072.4,512.1c4.4,0.9,8.5,1.6,12.4,2.4c-0.7,7.7-2.5,10.2-6.2,9.9C1072.8,523.9,1071.8,522.2,1072.4,512.1z"
			/>
		<path class="st0" d="M1309.7,321.5c0-4.4,3.5-8,7.3-8c3.4,0,5.7,1.9,6.1,5.1c0.3,2.8-4.5,7.9-7.1,7.3
			C1313.2,325.4,1309.2,325.5,1309.7,321.5z"/>
		<path class="st0" d="M1823.8,513.7c-1.4,1.1-4.7,4.9-5.6,4.4c-2.8-1.5-5.8-4.5-6.5-7.4c-0.4-1.6,3.6-5,6.3-6.1
			C1820.6,503.5,1823.9,508.2,1823.8,513.7z"/>
		<path class="st0" d="M44.5,96.5c5.4,0.3,10.5,6.5,10,13.1c-2.9,0-6.4,1-8.7-0.2C39.2,106,45.4,100.9,44.5,96.5z"/>
		<path class="st0" d="M2715.9,528.1c-0.1-3.5,4.5-8.7,6.8-7.6c2.5,1.1,6.3,4.4,6,5.7c-0.8,2.8-3.6,6.2-6.2,6.9
			C2719.2,534.1,2716.5,531.2,2715.9,528.1z"/>
		<path class="st0" d="M1544.2,433.4c-4.5,0.3-5.6-2.8-5.7-6.6c-0.1-2.9,3.7-5.7,7.5-5.4c3.1,0.2,5.3,1.4,5.2,5
			C1551.2,431.5,1549.3,433.5,1544.2,433.4z"/>
		<path class="st0" d="M1118.6,277.3c-2.6,2-3.8,6.5-8.5,4.6c-0.7-0.3-1.8-0.2-2.1-0.7c-1.4-2-3.9-4.3-3.5-6.1
			c0.3-1.8,3.3-3.7,5.4-4.4c1.4-0.4,3.7,0.9,5.2,2.1C1116.6,273.9,1117.5,275.7,1118.6,277.3z"/>
		<path class="st0" d="M1581,473.6c-3-0.2-7.3-4.7-6.4-7.7c0.6-2,3.4-4.1,5.6-4.6c3.1-0.7,7.9,4,7.6,6.5
			C1587.6,470.6,1583.9,473.8,1581,473.6z"/>
		<path class="st0" d="M1888.2,493.5c-1-4.7,1.7-7.2,5.6-6.6c2.7,0.5,6,3,7.1,5.5c1.1,2.6-4.1,7.2-7,6.6
			C1891.1,498.4,1886.3,499.1,1888.2,493.5z"/>
		<path class="st0" d="M815.6,357c-2.3-1.1-5.6-1.6-5.3-5.9c0.2-3.9,3.2-6,6.1-5.6c2.8,0.4,7.1,0.9,7.5,5.4
			C824.2,354,820,357.1,815.6,357z"/>
		<path class="st0" d="M3022.7,582c-4.2-0.1-6.9-3.1-6.6-8.1c0.4-4.9,5.1-3.9,7.8-4.1c1.7-0.1,4.5,3.2,5.1,5.5
			C3029.9,578.3,3025.8,582.1,3022.7,582z"/>
		<path class="st0" d="M1085.1,629.2c1.7-4,3.8-7.9,8.8-7.8c1.9,0,4.2,2,5.4,3.8c0.7,1.1,0.3,4-0.7,5.1
			C1094.1,635.3,1089.7,632.1,1085.1,629.2z"/>
		<path class="st0" d="M2836.6,546.7c1,1.2,3.4,3,4.3,5.4c0.9,2.6-3.7,7.4-6.4,7.4c-2.8-0.1-5.9-0.1-6.1-4.2
			C2828.2,550.7,2831.2,546.8,2836.6,546.7z"/>
		<path class="st0" d="M1464.6,280.7c5.1,0.6,7.7,3.6,7,7.6c-0.3,1.9-3.8,4.1-6.1,4.7c-1.8,0.4-5.2-1.2-5.9-2.8
			C1457.3,285.2,1461,282.7,1464.6,280.7z"/>
		<path class="st0" d="M2627.4,614.2c-2.1,1.9-3.9,4.4-6.3,5.5c-2,0.9-6.9-5-6.9-7.7c0-2.8,4-6.1,7.7-5.7
			C2625.9,606.6,2626.5,609.8,2627.4,614.2z"/>
		<path class="st0" d="M370.9,102c4,0.4,8,0.7,12.5,1.1c-1.2,3.1,2.4,7.4-3.6,7.6c-0.3,0-0.6,2.3-0.8,3.5
			C371.8,114.6,370.9,113.2,370.9,102z"/>
		<path class="st0" d="M765.4,316c-0.9,4.7-4.3,8.4-7.7,8.1c-4.2-0.5-5.5-3.5-5.5-7.4c-0.1-4.5,3.6-5.2,6.4-4.8
			C761,312.2,763.2,314.6,765.4,316z"/>
		<path class="st0" d="M696.2,269.8c5.2-0.6,7.3,3.5,6.8,6.5c-0.3,2.2-4.6,4.7-7.4,5.2c-2,0.4-6.2-0.6-5.5-5.2
			C690.7,272.7,692.1,270,696.2,269.8z"/>
		<path class="st0" d="M791.8,243.6c-5.2-0.3-4.5-5.3-5.1-8.1c-0.7-3.8,3.7-5,6.2-4.2c2.6,0.9,5.3,3.6,6.5,6.1
			C800.7,240.1,796.3,243.4,791.8,243.6z"/>
		<path class="st0" d="M253.1,278.2c-4,0-7.5-3.1-6.5-6.8c0.6-2.3,4.8-5.8,5.9-5.3c2.7,1.2,5.7,4.1,6.2,6.7
			C259.3,275.8,257.3,279.3,253.1,278.2z"/>
		<path class="st0" d="M353.2,531.9c0-5.6,2.9-6.7,6.7-6.8c3.6-0.1,6.1,1,6,5.2c-0.1,3.2-3.5,6.5-7.2,6.4
			C355.2,536.6,352.8,535,353.2,531.9z"/>
		<path class="st0" d="M117,503.3c-4.7,0-8.4-3.1-8.4-5.8c0-2.7,4.8-6.7,8.2-5.8c2.1,0.5,4.9,3.4,4.9,5.2
			C121.8,500,119.5,502.7,117,503.3z"/>
		<path class="st0" d="M2115.9,449.6c-0.8-4,1.6-5.7,5.9-5.5c2.8,0.1,6.5,4.1,6.1,7.7c-0.3,3-1.9,5.6-5.8,5.4
			C2119.3,457,2115.8,453.2,2115.9,449.6z"/>
		<path class="st0" d="M665.1,170.2c-5.3,0.1-9.8-3.4-9.8-6.3c0-2.9,4.7-7.8,6.7-6.4c2.6,1.7,4.5,5.1,5.7,8.2
			C668.1,166.9,665.7,169.2,665.1,170.2z"/>
		<path class="st0" d="M285.7,151.2c6.9-1.8,12-3.1,17.6-4.6c-1.2,2.8-2.2,4.8-2.9,6.8c-1.6,4.2-4.8,7-9,5.7
			C289.2,158.5,288.1,154.7,285.7,151.2z"/>
		<path class="st0" d="M2152,434.7c-0.2-3.6,1.1-5.6,5.1-5.5c4.4,0.2,7.2,2.7,7.2,6.9c0,3.9-2.6,5-5.8,5.1
			C2153.7,441.4,2152,439.5,2152,434.7z"/>
		<path class="st0" d="M1305,594.1c-1,4.8-3.7,7.6-7.6,7.2c-3.1-0.3-7.9-1.5-6.7-4.5c1.3-3.2,6-5.2,9.6-7
			C1300.9,589.3,1303.4,592.5,1305,594.1z"/>
		<path class="st0" d="M1008.5,358.6c1.6,2.3,3.6,4.1,4,6.2c0.3,1.7-0.8,4.6-2.3,5.6c-2.5,1.7-6.7,5.8-7.4-1.8c0-0.5-1.4-0.8-2-1.2
			c-2.5-1.7-2.5-3.3,0.3-4.7C1003.1,361.4,1005.2,360.3,1008.5,358.6z"/>
		<path class="st0" d="M1497.5,244.4c-0.1-5.3,3-9,7.2-8.5c2,0.2,5.4,3.2,5.2,4.3c-0.6,2.8,0.4,7.8-4.1,7.6
			C1502.9,247.6,1498.2,248.1,1497.5,244.4z"/>
		<path class="st0" d="M655.1,411.3c0.3-5,4.9-8.4,8.3-7.7c1.8,0.4,4.3,3.1,4.5,5c0.6,4.9-2.6,8.1-7.2,7.3
			C658.7,415.6,657,412.9,655.1,411.3z"/>
		<path class="st0" d="M702.6,395.8c5.4-1.3,9.3-7.1,15.6-2.4c-0.4,3.6-0.8,8.3-5.3,9.6C707.9,404.6,705.4,400.2,702.6,395.8z"/>
		<path class="st0" d="M2562.1,602.8c6.6,3.6,4,8,2.7,11.6c-0.4,1.1-3.9,1.4-5.9,1.4c-4.3,0-5.5-4.2-4.3-6.4
			C2556.1,606.4,2559.8,604.6,2562.1,602.8z"/>
		<path class="st0" d="M2595.7,522.9c-5.1-2.5-9.7-4.2-7.8-9.6c0.6-1.8,3.3-3.4,5.4-4.1c2.5-0.9,6.5-0.2,6.4,2.6
			C2599.5,515.4,2597.2,519.1,2595.7,522.9z"/>
		<path class="st0" d="M1467.4,407c-1.4-8.3,0.7-11.6,10.2-10.5C1480.8,407.3,1478.6,409.5,1467.4,407z"/>
		<path class="st0" d="M778.2,233.1c2.6,3,4.9,4.7,5.7,6.9c0.9,2.8-3.3,7.9-5.9,8.1c-3,0.2-7.3-4.7-6.4-8.5
			C772.1,237.4,775.2,235.9,778.2,233.1z"/>
		<path class="st0" d="M34,272.1c3.2,2.7,6.7,5.2,9.6,8.2c0.8,0.9,0.7,3.8-0.2,5c-1.1,1.6-3.2,2.9-5.1,3.3c-0.9,0.2-2.9-1.9-3.3-3.3
			c-1.1-4-1.7-8.2-2.4-12.4C33,272.7,33.5,272.4,34,272.1z"/>
		<path class="st0" d="M1901.1,539.4c-0.2-4,2.9-5.7,6.1-5.6c2.1,0,6.4-0.9,6.1,3.7c-0.3,5.2-3.3,9-6.7,8.8
			C1902.6,546.1,1900.9,543.6,1901.1,539.4z"/>
		<path class="st0" d="M1679.1,638.8c0.6-0.6,1.9-3,3.6-3.2c4.5-0.7,8.3,2.4,7.9,6c-0.4,3.3-1.6,6.4-5.7,6.7
			C1681.1,648.4,1679.2,645.7,1679.1,638.8z"/>
		<path class="st0" d="M75.1,545.4c2.2,5,1.4,8.8-2.9,11c-1.6,0.8-5.2,0.9-5.8,0c-1.4-2.3-2.7-5.6-2-7.9
			C66.1,542.7,71.2,546,75.1,545.4z"/>
		<path class="st0" d="M1932,483c-0.7,3.9-5.2,4-8.5,4.5c-5.7,0.8-3.6-4.7-4.2-7.1c-0.9-3.9,3.2-4.6,5.9-5.1
			C1928,474.7,1931.9,478.9,1932,483z"/>
		<path class="st0" d="M935.4,203.5c4-5.3,8.9-6.2,12.8-2.7c3.7,3.3,1.4,5.9-0.9,8.4C944.6,212.2,941.8,210.8,935.4,203.5z"/>
		<path class="st0" d="M3104.3,558.9c4.6-0.9,7,1.6,6.2,5.6c-0.4,2.2-3.4,4.7-5.8,5.4c-2.8,0.9-8.8-4.5-8-6.5
			C3098,560.2,3100.2,557.6,3104.3,558.9z"/>
		<path class="st0" d="M770.3,469.4c-0.9-0.7-3.6-1.9-4.7-4c-1.1-1.9,4.3-7.6,6.8-7.7c2.8-0.2,7.4,3,7.4,5.1
			C780,466.4,776.8,469.1,770.3,469.4z"/>
		<path class="st0" d="M751.8,172.1c-0.3,4.6-4,4.8-7.1,5.1c-3.1,0.3-6.2-3.2-5.8-6.6c0.5-4.2,3.9-5.4,7.2-5.4
			C750.1,165.3,751.5,168.5,751.8,172.1z"/>
		<path class="st0" d="M1963,418.8c4.9-0.9,7,3.3,9.4,6.4c1.9,2.5,0.2,4.6-2.2,5.9c-2.6,1.5-5.3,2.3-7.3-0.8
			C1960.6,426.7,1958.7,422.7,1963,418.8z"/>
		<path class="st0" d="M1599,525.3c-0.9,4.6-4.4,8.5-8,7.5c-2.4-0.7-5.4-4.3-5.7-6.9c-0.6-5.5,4.7-4.8,7.8-4.7
			C1595.1,521.3,1597,523.9,1599,525.3z"/>
		<path class="st0" d="M770.2,417.1c4.3,1.2,9.4,5.8,8.1,7.6c-1.7,2.6-4.6,4.6-7.3,6.3c-1.2,0.7-6.1-5.8-5.3-7.7
			C766.6,421,768.6,419.2,770.2,417.1z"/>
		<path class="st0" d="M1591.6,251.3c-2.2,1.6-4.2,3.8-6.7,4.8c-2.2,0.8-7.3-5-6.7-8.2c0.3-1.8,2.6-4.2,4.4-4.5
			C1586.1,242.7,1590.8,247.2,1591.6,251.3z"/>
		<path class="st0" d="M1121.7,367.4c5.9-0.4,10.1-0.7,12.1,3.6c0.6,1.4,0,4.8-1,5.2c-3,1.3-6.4,1.6-9.6,2.3
			C1122.7,375,1122.2,371.5,1121.7,367.4z"/>
		<path class="st0" d="M2113.4,514.7c-1.9-3-5-5.2-2.2-9.6c2.6-4.1,5.9-2.6,8.8-1.6c1.4,0.5,3,3.3,2.8,4.9
			C2122.3,513.5,2118.2,514.5,2113.4,514.7z"/>
		<path class="st0" d="M1529.1,222.3c5.1,0.4,6.9,4.5,6.4,6.7c-0.6,2.5-5,6.3-6.4,5.8c-2.8-1-4.8-4.5-7.1-7
			C1524.3,225.9,1526.7,224.1,1529.1,222.3z"/>
		<path class="st0" d="M77.3,424.8c4.4,0.9,8.8,1.8,13.1,2.8c3.6,0.8,4.5,3.9,3.1,6.3c-1.1,1.8-5.6,3.7-6.4,2.9
			c-4-3.3-7.3-7.6-10.9-11.5C76.6,425.2,76.9,425,77.3,424.8z"/>
		<path class="st0" d="M1003.9,409.6c-0.1-4,2.4-6.5,6.7-6.7c2.5-0.1,6.6,4.1,5.6,6.7c-0.9,2.4-3.2,5-5.6,6.1
			C1008.3,416.7,1003.9,412.3,1003.9,409.6z"/>
		<path class="st0" d="M3233.7,588c4.9-0.3,6.7,2,6.8,6.2c0,3.5-1.4,5.6-5.1,5.7c-4.1,0.1-6.7-2.6-6.9-6.6
			C3228.2,589.1,3230.3,587.7,3233.7,588z"/>
		<path class="st0" d="M558.9,225.2c-2.2-1.9-5.6-3.4-6.4-5.7c-1-3,3.5-7.2,6.4-6.7c3,0.5,6.6,0.9,6.2,5.4c-0.3,3.2-0.4,6.7-5.3,5.8
			C559.4,224.4,559.1,224.8,558.9,225.2z"/>
		<path class="st0" d="M1588.2,305.5c1.7-2,3.5-4,5.2-6c2.7,2.5,6.9,4.6,7.7,7.6c0.7,2.7-2.9,5.4-6.8,5.3
			C1590.2,312.3,1588.9,309.9,1588.2,305.5z"/>
		<path class="st0" d="M2056.9,588.6c5.1,0.6,8.7,4,8,6.9c-0.8,3.4-2.7,6.1-6.7,6c-3.3-0.1-6.5-4.3-5.3-7.8
			C2053.7,591.5,2055.9,589.8,2056.9,588.6z"/>
		<path class="st0" d="M2187.7,492c-4.5,0.5-8.5-0.6-9.7-5c-0.5-1.8,0.9-5.3,2.5-6.1c1.9-1,5.6-1,7.3,0.2
			C2191.8,484.1,2189.5,488.1,2187.7,492z"/>
		<path class="st0" d="M2234.1,545.6c3.3,1.7,7.4,2.6,8.8,5c0.9,1.6-1.9,5.9-4,8c-0.9,0.9-5.1,0.1-6.5-1.3
			C2229.2,553.9,2231.3,550.3,2234.1,545.6z"/>
		<path class="st0" d="M56,627.9c-0.1,0,1.3-0.4,2.2,0.1c2.1,0.9,5.4,2.1,5.5,3.4c0.2,2-1.4,5-3.2,6.1c-1.3,0.8-4.2-0.3-6.2-1.2
			c-1.7-0.8-3.2-2.2-4.5-3.6c-1-1-1.7-2.3-2.6-3.5c1.4-0.6,2.7-1.3,4.1-1.6C52.4,627.3,53.7,627.7,56,627.9z"/>
		<path class="st0" d="M1139.1,342.6c-2.7-3.4-9.2-4.5-5.9-10.6c1.8-3.3,8.3-3.6,10.9-1.1C1146.6,333.3,1145.1,337,1139.1,342.6z"/>
		<path class="st0" d="M3024.3,602.4c-4.3,0.2-8.3-2.4-8.2-5.4c0.2-4,3-5.4,6.7-5.4c4.5-0.1,5.9,1.7,6.4,7.1
			C3029.7,603.3,3026.4,602,3024.3,602.4z"/>
		<path class="st0" d="M622.5,462c0.2-3.4,3.9-4.7,6.7-5.1c1.6-0.2,5.1,3.3,5.2,5.3c0.1,3.2-1.4,7-5.7,7.4
			C625,470,622.4,466.9,622.5,462z"/>
		<path class="st0" d="M161.3,141.1c6.2,0.1,8.1,2.6,7.8,6.7c-0.3,4.4-3.4,5.7-7.2,5.5c-4.5-0.2-5.1-4.2-4.7-7.1
			C157.5,143.9,160.4,142.1,161.3,141.1z"/>
		<path class="st0" d="M638.6,253.8c3.9-1.6,8-4.7,11.7-0.8c1.3,1.3,1.2,5,0.2,7c-0.7,1.5-4.1,3.3-5.5,2.8
			C641.3,261.5,637.7,259.3,638.6,253.8z"/>
		<path class="st0" d="M1021,581.9c1-5,4.9-4.7,8.7-4.9c3.8-0.2,5.5,2.4,4.1,4.8c-1.7,2.9-4.8,6-7.9,6.8
			C1023.8,589.1,1020.5,585.9,1021,581.9z"/>
		<path class="st0" d="M2370.1,635.2c4.6-0.4,6.6,3.7,6.1,5.8c-0.7,2.6-3.9,5.5-6.7,6.3c-3.6,1.1-6.1-1.6-6.3-5.6
			C2363.1,638.4,2366.9,635.2,2370.1,635.2z"/>
		<path class="st0" d="M2596.2,578.6c-3.5,0.3-6-0.8-5.9-4.8c0.1-3.7,1.7-6.5,5.7-6.6c3.4-0.1,7.3-0.3,7.3,5
			C2603.3,576,2600.7,578.5,2596.2,578.6z"/>
		<path class="st0" d="M2723,595.3c-3.7-0.1-7.8-4.3-7-8.2c0.3-1.4,3.3-2.9,5.2-3.2c3.5-0.4,7.3,0.1,7.9,4.6
			C2729.5,591.7,2725.9,595.4,2723,595.3z"/>
		<path class="st0" d="M2246.6,591.9c-1.2,4.5-2.7,8.4-7.8,8.2c-1.7-0.1-4.6-2.1-4.6-3.3c0-2.7,0.7-6.2,2.5-7.9
			C2241,584.8,2243.5,589.8,2246.6,591.9z"/>
		<path class="st0" d="M506.7,108.3c4.1,0.4,8.2,0.4,12.2,1.4c1.4,0.3,3,3,3,4.6c0,1.4-1.9,3.7-3.3,4.1c-1.9,0.6-4.8,0.5-6.2-0.7
			c-2.4-2-3.9-5-5.9-7.6C506.6,109.5,506.7,108.9,506.7,108.3z"/>
		<path class="st0" d="M581.7,189.5c5-1,4.9,2.8,5.1,5.9c0.2,3.6-1.8,6-5.5,6.3c-2.7,0.3-6.4-3.6-6.3-6.4
			C575,190.9,577.3,189,581.7,189.5z"/>
		<path class="st0" d="M2602.4,643.8c0.2-2.6,0.6-6,5.7-5.5c4.5,0.5,5.5,4.1,5.9,7.3c0.4,3.2-1.9,5.3-5.4,4.7
			C2605.5,649.8,2601.7,649.8,2602.4,643.8z"/>
		<path class="st0" d="M1770.6,454.4c-4.7-0.2-8.6-3.4-7.6-7c0.5-1.9,3.6-4,5.8-4.4c3.2-0.6,7.7,4.3,7.4,7
			C1775.9,453,1773.9,454.6,1770.6,454.4z"/>
		<path class="st0" d="M357.3,384.7c-3.2-3.9-3.8-8.2-0.2-12.2c0.8-0.9,3.9-1.2,4.7-0.5c1.8,1.8,4.4,4.7,3.9,6.5
			C364.8,382.2,362.7,386.2,357.3,384.7z"/>
		<path class="st0" d="M404.1,457.8c0.2-6.2,3.5-7.7,6.9-8.2c3.8-0.6,5.9,3,5.2,5.5c-0.8,2.8-3.7,5.7-6.4,6.8
			C408.5,462.4,405.6,458.9,404.1,457.8z"/>
		<path class="st0" d="M591.1,450.3c4.3,0.9,8.3,4.8,7.3,8.4c-0.6,2.2-4.1,3.6-6.3,5.4c-2-2.7-4.6-5.3-5.6-8.3
			C586,454.6,589.4,452.2,591.1,450.3z"/>
		<path class="st0" d="M2021.6,568.3c1.5,2.4,4.2,4.8,4.3,7.3c0.1,3.4-2.6,5.9-6.5,5.8c-4.3,0-5.5-3.1-6-6.4
			C2012.9,572.1,2016.9,569,2021.6,568.3z"/>
		<path class="st0" d="M1706.6,521.6c-5.7-0.7-6-4.4-6-7.4c0-3.6,2.4-6.8,6.1-5.7c2.5,0.7,6.1,4.3,5.9,6.3
			C1712.4,517.2,1708.8,519.3,1706.6,521.6z"/>
		<path class="st0" d="M1255.9,313.1c1,1.5,3.2,3.6,3.9,6.1c0.7,2.5-5.4,7.7-7.7,6.6c-1.9-0.9-4.1-3.4-4.3-5.4
			C1247.3,316.3,1251,312.9,1255.9,313.1z"/>
		<path class="st0" d="M2981.7,609.6c4.6,0.4,9.2-0.3,12.1,1.5c1.6,1,0.6,6.3,0.7,9.6C2986.3,621.4,2984.8,620.2,2981.7,609.6z"/>
		<path class="st0" d="M817,152c-1.6-2-3.9-3.9-4.5-6.2c-0.7-3.1,4.5-7.8,7.4-6.7c2.1,0.8,4.3,3.5,4.9,5.7
			C825.6,148,821.6,151.2,817,152z"/>
		<path class="st0" d="M2852.9,538.4c-2,4.1-4,8.3-9.4,6.8c-1.8-0.5-4.2-3.1-4.1-4.5c0.2-2.2,1.9-5.6,3.7-6.2
			C2846.9,533.2,2851.3,533.3,2852.9,538.4z"/>
		<path class="st0" d="M703.2,269.6c-2.9-3.6-6-5.9-6.4-8.6c-0.2-1.5,4.8-5.7,6-5.2c2.8,1.2,5.3,4.2,6.8,7.1
			C710,263.6,706.2,266.5,703.2,269.6z"/>
		<path class="st0" d="M299.7,300.3c0.8,4.8-3.6,5.1-5.9,5.3c-3.9,0.4-5.4-3-5.5-6.5c0-3.5,2-5.7,5.6-6
			C296.6,293,299.8,297,299.7,300.3z"/>
		<path class="st0" d="M567.6,308.9c-0.1,3,2.1,6.7-2.5,8.2c-5.3,1.8-8.1-0.3-12.5-9.1c2.6-0.2,4.9-0.7,7.1-0.5
			C562.2,307.6,564.6,308.3,567.6,308.9z"/>
		<path class="st0" d="M2082.4,421.9c-2.1,2.1-4.3,5.9-6.4,5.8c-2.4-0.1-5.4-3.1-7-5.5c-1.2-1.8,4.1-7,6.5-7
			C2078.3,415.3,2081.3,418.1,2082.4,421.9z"/>
		<path class="st0" d="M2852.5,492.9c1.9,2.1,4.8,3.9,5.4,6.3c0.9,3.5-3.5,8.4-6.3,7.4c-2.4-0.9-4.7-3.8-5.8-6.4
			C2844.7,497.5,2848.4,493.9,2852.5,492.9z"/>
		<path class="st0" d="M721.5,639.8c1.5-3.4,10.1-8.8,12.8-7.8c1.8,0.7,4.6,3.8,4.3,4.3c-1.3,2.2-3.5,3.9-5.4,5.8
			c-0.1,0.1-0.6-0.1-0.9-0.2C728.8,641.2,725.2,640.5,721.5,639.8z"/>
		<path class="st0" d="M576.7,237.9c1,1.1,3.6,2.8,4.4,5.2c0.9,2.7-4.7,7.1-8.4,6.4c-1.9-0.4-4.8-2.4-5-4
			C567,241.6,571.1,238,576.7,237.9z"/>
		<path class="st0" d="M355.6,134c3-3.2,5-7.1,6.8-7c2.6,0.2,6.1,2.8,7.1,5.2c1.1,2.6-4.3,8.3-6.5,7.4
			C360.7,138.8,358.9,136.6,355.6,134z"/>
		<path class="st0" d="M2134.2,543.8c4.4-0.8,7.1,2.4,6.5,5.3c-0.5,2.4-4.4,5-7.3,5.7c-4.5,1.2-5.6-3.2-5.6-6.3
			C2127.8,545.1,2130.4,543.1,2134.2,543.8z"/>
		<path class="st0" d="M741.7,255.1c3.1,0.6,6.9,0.2,9.1,1.9c1.7,1.3,1.9,5.4,1.4,8c-0.2,1.1-4.3,2.8-5.8,2.2
			C742,265.5,739.9,261.8,741.7,255.1z"/>
		<path class="st0" d="M844.5,220c-1.6-7-0.2-12.1,3.3-12.7c3.1-0.5,7.2,3.5,7.3,7C855.1,218.4,851.9,220.2,844.5,220z"/>
		<path class="st0" d="M3229.8,615.4c-4.2-0.1-6.4-2.5-5.6-7.4c0.3-1.7,3.5-4.7,4.3-4.3c2.9,1.1,6.6,2.9,7.5,5.4
			C3237.4,612.5,3233.8,615.4,3229.8,615.4z"/>
		<path class="st0" d="M574.5,491.5c-5.3,1.2-8.5-1.7-11-5.7c-0.6-1-1.3-2.7-0.9-3.3c0.7-1,2.4-2.1,3.6-2c2.9,0.1,5.9,0.5,8.5,1.6
			c1.1,0.4,1.8,3,1.7,4.5C576.3,488.3,575.1,489.9,574.5,491.5z"/>
		<path class="st0" d="M518.1,223.2c-0.3,3.3-3.7,5-6.9,4.5c-2.3-0.4-5.6-3.4-5.7-5.3c0-2.2,2.5-5.4,4.7-6.6
			C512.4,214.6,518.1,219.8,518.1,223.2z"/>
		<path class="st0" d="M2293.9,540.1c6.4,2.8,10.2,7.1,8.8,9.6c-1.2,2.3-7.8,4.6-9.5,2.8c-1.5-1.6-3-4.2-2.9-6.3
			C2290.4,544.2,2292.5,542.2,2293.9,540.1z"/>
		<path class="st0" d="M240.4,528c0.5-3.1,4.3-4.5,6.8-4.1c2.5,0.4,5.9,3.3,6.3,5.6c0.4,1.9-1.4,6.1-5.9,5.7
			C243.1,534.9,240.5,532.9,240.4,528z"/>
		<path class="st0" d="M3224.3,625.2c-1.1,4.1-4.8,7.3-8.2,7c-3.4-0.2-4.8-2.4-4.7-5.6c0.1-4.3,2.8-7.7,6.5-6.7
			C3220.3,620.5,3222.2,623.4,3224.3,625.2z"/>
		<path class="st0" d="M3145.9,638.3c-0.3-3.7,1.3-6,4.7-5.5c2.7,0.5,7.3-1.4,7.5,4.1c0.1,4-2.7,7.6-6.3,7.3
			C3148.4,643.9,3145.2,642.6,3145.9,638.3z"/>
		<path class="st0" d="M2788.4,508.8c-0.7-4.1,1.3-5.7,4.6-5.7c3.4,0.1,6.6,1,7,5.2c0.5,4.5-2.5,6.5-6.1,6.8
			C2789.6,515.5,2788,512.5,2788.4,508.8z"/>
		<path class="st0" d="M2868.5,611.7c6.3,0.2,7.5,3.9,6.9,6.9c-0.4,2.2-3.7,4.7-6.1,5.3c-3.2,0.8-6.9-3.4-5.8-6.7
			C2864.4,614.8,2867.3,613,2868.5,611.7z"/>
		<path class="st0" d="M2441.4,552.8c1,1,4.3,2.8,4.5,4.7c0.2,2.9-0.6,8.1-4.9,7.3c-2.9-0.6-5.8-4.3-7.3-7.4
			C2432.5,555.1,2436,552.7,2441.4,552.8z"/>
		<path class="st0" d="M2266.4,468.9c-0.3,4.3-1.5,7.4-5.3,7.8c-3.5,0.4-7.3-3.4-6.6-6.7c0.5-2.1,0.2-5.8,4.6-5.5
			C2262.7,464.9,2264.9,466.4,2266.4,468.9z"/>
		<path class="st0" d="M508.6,334.6c0.3-2.2-0.1-4.8,1.1-6.5c1.4-2,4.5-4.6,6.1-4.2c2.1,0.6,4.5,3.8,4.7,6.1
			C521,335,518,336,508.6,334.6z"/>
		<path class="st0" d="M614.2,585.5c1.9,1.8,4.9,3.3,5.4,5.5c0.8,3.5-3.4,8.5-6,7.8c-2.9-0.8-6.2-1.7-6-6
			C607.7,589,609.3,586.9,614.2,585.5z"/>
		<path class="st0" d="M43,252.2c-3.4-0.1-6.6-3.4-5.9-6.9c0.6-3.1,2.6-5.2,6.2-5c3.5,0.2,6.2,3.2,5.9,7.1
			C48.9,251,46.5,252.4,43,252.2z"/>
		<path class="st0" d="M538.1,66.2c-5.7-0.2-7.2-1.8-7.1-7c0-4.3,3.4-4.5,6-5c2.7-0.4,5.8,4.1,5.7,7.8
			C542.8,65.1,541.4,66.4,538.1,66.2z"/>
		<path class="st0" d="M2240.5,640c4.2,0.4,6.1,3.2,6.2,6.7c0.1,3.8-2.8,5.5-6.4,6c-5.1,0.6-4.9-3.2-5.2-6.4
			C2234.6,642.2,2237.3,640.8,2240.5,640z"/>
		<path class="st0" d="M402.3,613.4c5.3,0.5,10.8,5,10.6,8.3c-0.1,1.5-1.2,3.3-2.4,4.2c-0.6,0.4-2.5-0.6-3.7-1.2
			c-2.2-1.3-4.5-2.7-6.3-4.5c-1.1-1.1-2-3.3-1.6-4.5C399.4,614.5,401.6,613.9,402.3,613.4z"/>
		<path class="st0" d="M608.2,123.1c-2.7-3.1-5.2-5.9-7.5-8.9c-0.4-0.6,0-2.7,0.4-2.8c2.5-0.7,5.2-1.8,7.6-1.4
			c2.3,0.4,4.8,2.3,6,4.2c0.5,0.8-1.8,3.6-2.9,5.3C611.2,120.6,610.2,121.2,608.2,123.1z"/>
		<path class="st0" d="M2334.8,446c3.8,0.1,8.5,3.7,7.2,6.4c-1.1,2.4-3.9,4.9-6.4,5.5c-3.1,0.8-5.5-3.4-5.5-7.7
			C2330.1,447,2331.4,445.6,2334.8,446z"/>
		<path class="st0" d="M673.4,549.7c-3.5,2.5-5.9,5.1-8.8,5.9c-1.2,0.3-5.3-4.2-4.9-5.1c1.3-3,4.1-5.5,6.3-8.1
			C668.1,544.5,670.2,546.5,673.4,549.7z"/>
		<path class="st0" d="M800.8,342.1c-2.5-0.8-5-1.5-7.5-2.3c-2.8-1-4.6-2.7-3.3-5.9c0.7-1.8,1.8-4.3,3.2-4.7
			c2.4-0.7,5.3-0.1,6.3,3.2c0.9,3,1.9,5.9,2.8,8.9C801.8,341.6,801.3,341.9,800.8,342.1z"/>
		<path class="st0" d="M963,521.5c4.8,2.3,8.6,3.9,12.2,6.1c0.6,0.4,0.3,3.4-0.5,4.7c-0.6,1.1-3.2,2.5-3.7,2.1
			c-3.9-2.8-7.6-6-11.3-9.1C960.8,524.1,961.9,522.8,963,521.5z"/>
		<path class="st0" d="M1881.2,574.2c1.9,1.9,4.7,3.6,5.6,5.9c1,2.5-3.4,6.1-6.7,6.1c-3.6,0-6.4-2.7-6.2-6
			C1874.1,577,1876.4,575.2,1881.2,574.2z"/>
		<path class="st0" d="M1660.4,484.2c5.1,0.8,6.8,4,6,6.7c-0.6,2.4-3.9,6.1-5.7,5.9c-2.6-0.3-4.9-3.5-7.4-5.4
			C1655.7,488.9,1658,486.6,1660.4,484.2z"/>
		<path class="st0" d="M477.7,584.9c-3.8,1.8-11.7,0.2-13.1-3.2c-0.7-1.8-2.8-4.8,0.7-6.3c3.2-1.4,6.6-1.7,8.7,1.8
			C475.5,579.5,476.4,582.1,477.7,584.9z"/>
		<path class="st0" d="M2878.4,573.2c0.2-4.6,2.2-6.8,6.4-6.5c4.5,0.3,4.3,4.2,4.4,7c0.1,4.4-4,5.1-7.1,5.4
			C2878.6,579.4,2878.1,576.4,2878.4,573.2z"/>
		<path class="st0" d="M105.2,520.3c-6.6,0.1-7.6-3.3-7.9-6.8c-0.4-4,2.7-4.7,5.9-4.8c4.1-0.1,7.5,2.8,6.6,6.6
			C109.2,517.7,106.1,519.4,105.2,520.3z"/>
		<path class="st0" d="M914.2,242.3c-0.8-4.3,2.5-4.3,5.6-4.3c4.3,0.1,6.4,3.2,6,6.7c-0.2,1.9-3.3,4.6-5.4,5
			C916.4,250.4,914.2,247.4,914.2,242.3z"/>
		<path class="st0" d="M1684.2,592.8c2.3-3.3,4.1-5.9,5.8-8.4c2.4,2.7,5.4,5.2,6.8,8.3c1,2.3-4.8,6.5-7.8,5.6
			C1687.3,597.7,1686.2,595.2,1684.2,592.8z"/>
		<path class="st0" d="M1680.8,278.9c-6.6-0.3-9.2-3.2-8.5-8.3c0.2-1.3,2.5-3.1,3.9-3.2c4.3-0.2,9.7,4.2,8.7,7.3
			C1684.3,276.7,1681.6,278.1,1680.8,278.9z"/>
		<path class="st0" d="M480.5,479.3c4.9,1,8.1,2,7.4,6.2c-0.7,3.8-3.8,6-7.1,5.2c-2.4-0.6-4.1-3.8-6.1-5.8
			C476.9,482.7,479.1,480.6,480.5,479.3z"/>
		<path class="st0" d="M185,95.8c-0.8,2.5-1.1,5.2-2.3,7.4c-2.1,3.9-8.4,4.5-10.8,0.8c-0.8-1.2,0-5,1.2-5.7c3.4-1.9,7.3-2.8,11-4.1
			C184.4,94.8,184.7,95.3,185,95.8z"/>
		<path class="st0" d="M523.1,277.1c-2.1,1.9-3.9,4.6-6.3,5.4c-2.8,0.9-6.9-3.6-6.3-7.2c0.3-1.7,2.9-4.3,4.5-4.4
			C518.3,270.8,523.1,270.2,523.1,277.1z"/>
		<path class="st0" d="M2996.6,640.5c-6-0.3-5.5-4.1-5.5-7.8c0-3.7,2.8-5.4,5-4.4c2.7,1.2,5.3,4.1,6.6,6.8
			C3003.7,637.1,2998.9,640.6,2996.6,640.5z"/>
		<path class="st0" d="M703.4,106.4c0.6,6.9-2.9,7.6-6.4,7.9c-5.2,0.4-5.1-4.4-5.3-7.2c-0.1-1.5,3.8-4.8,5.5-4.6
			C699.8,102.9,702.1,105.5,703.4,106.4z"/>
		<path class="st0" d="M949.8,598.3c-2,0.9-4,1.8-6.2,2.8c-3.5-2.5-7-5.5-4.8-10.3c0.7-1.6,4.8-2.9,6.7-2.3
			C949.8,590,950.6,594,949.8,598.3z"/>
		<path class="st0" d="M1909.3,392.5c4.3-0.9,8.5-0.8,10.8,3.6c0.9,1.6,1,4.5,0.1,6.1c-1.7,3.2-5,2-7.4,0.9
			C1908.2,400.9,1908.6,396.9,1909.3,392.5z"/>
		<path class="st0" d="M1933.1,373.1c-4.9,0.1-7.7-2.8-7.8-6.6c-0.2-4.2,2.2-5.3,5.9-5.4c4.1-0.1,5.7,2.8,5.7,5.7
			C1936.8,369.7,1935.2,372.6,1933.1,373.1z"/>
		<path class="st0" d="M598.4,439c-2.6-3.6-5.5-5.9-5.8-8.4c-0.4-3.2,2.5-6.6,5.9-5.7c2.7,0.8,5.9,3.9,6.5,6.5
			C605.4,433.1,601.4,435.8,598.4,439z"/>
		<path class="st0" d="M572.7,510.5c1.5,1.7,4,3.2,4.4,5.1c0.8,3.8-2.3,7.6-5.3,7.6c-3,0-6.7-3.3-6.7-6.1
			C565,513.9,567.9,511.5,572.7,510.5z"/>
		<path class="st0" d="M702.1,218.2c-0.3,3.6-4.5,7.6-8.1,6.7c-2-0.5-4.2-3.2-4.7-5.3c-0.7-3,4-6.5,7.6-6
			C699.5,213.9,703.1,213.7,702.1,218.2z"/>
		<path class="st0" d="M874.1,156.4c6-7.7,9.3-9.4,12.2-5.8c1.4,1.7,1.9,5.4,1,7.4C885.7,161.2,878,160.2,874.1,156.4z"/>
		<path class="st0" d="M1936.1,644.5c-2.8,3-5,5.9-7.8,8c-1.1,0.8-4.6,0.3-5-0.5c-1-2-1.8-5.2-0.9-6.9
			C1925,640.4,1928.4,640.4,1936.1,644.5z"/>
		<path class="st0" d="M812.9,540.5c-2.1-3-4.8-5.4-4.3-6.3c1.3-2.8,3.4-6.4,5.9-7.1c4.1-1.2,7.3,2.2,6,6.4
			C819.8,535.8,816.3,537.5,812.9,540.5z"/>
		<path class="st0" d="M476.4,591.2c2.8,4.4,1.6,8.4-1.7,11.1c-1.2,1-5.3-0.2-6.9-1.6c-1.3-1.2-1.7-4.6-1-6.5
			C468.6,589.3,473,591.5,476.4,591.2z"/>
		<path class="st0" d="M192.8,197.6c2-3.4,3.8-6.4,5.6-9.4c2.5,1.8,5.3,3.3,7.2,5.6c0.7,0.9-0.2,4.3-1.4,5.5
			C200.5,203,197.3,199.5,192.8,197.6z"/>
		<path class="st0" d="M511.4,370c-1.3-1.9-4-4.4-4.4-7.2c-0.2-1.5,3.6-4.9,5.7-5c2.9-0.2,6.2,2.2,5.6,6
			C517.9,366.4,517.3,370,511.4,370z"/>
		<path class="st0" d="M622.8,282.9c-0.4,5.9-3.2,7-6.8,7.3c-3.7,0.3-5.1-1.9-5.1-5.1c-0.1-4,3.1-7,7.4-6.3
			C620.3,279.2,621.8,282,622.8,282.9z"/>
		<path class="st0" d="M2536.3,478c0.1,4.9-3.1,9-5.8,8c-2.7-0.9-7-0.8-6.9-5.6c0.1-2.1,5.8-7.2,8-6.3
			C2533.8,474.9,2535.3,477.1,2536.3,478z"/>
		<path class="st0" d="M3012.3,534.4c0.1,6.3-3.4,8.1-7.1,7.4c-2.3-0.4-4.6-3.4-5.9-5.8c-0.9-1.7,5-6.1,7.5-5.3
			C3008.8,531.2,3010.5,533,3012.3,534.4z"/>
		<path class="st0" d="M729.7,191.6c-11.1-0.5-11.8-1.2-11.4-9.7c3.9-1.1,8.3-2.1,11.2,1.4C730.8,185,729.7,188.6,729.7,191.6z"/>
		<path class="st0" d="M478.7,120.7c-1.2,1.3-2.8,4.5-4.9,5c-4.3,1-6.3-1.9-6.8-6.7c-0.3-4.1,2.4-5.3,5.3-5.5
			C475.7,113.3,478.1,115.4,478.7,120.7z"/>
		<path class="st0" d="M1121.3,646.2c-6.3,0.8-7.7-2.7-7.9-5.8c-0.2-3.1,1.4-5.9,5.6-5.7c3.5,0.2,6.8,1.5,6.4,5.2
			C1125.1,642.5,1122.3,644.8,1121.3,646.2z"/>
		<path class="st0" d="M3352.1,637.3c-0.2,1.9-1.3,4.5-5.2,4.4c-3.8-0.1-7.7-3.4-6.6-6.1c1-2.5,3.7-5.6,5.9-5.9
			C3349.5,629.3,3352.4,631.8,3352.1,637.3z"/>
		<path class="st0" d="M590.9,113.6c4.4,1,8.9,4.4,7.8,6.5c-1.3,2.4-3.7,4.5-6.2,5.7c-2,1-7.4-4.8-6.5-7.1
			C586.8,116.6,589.2,115.2,590.9,113.6z"/>
		<path class="st0" d="M3160,614.6c-2.9-0.1-6.3-4.4-5.5-8.1c0.3-1.4,2.9-3.1,4.6-3.3c4.1-0.4,7.3,2.9,7.4,6.7
			C3166.6,612.3,3163.2,614.7,3160,614.6z"/>
		<path class="st0" d="M463.5,256.2c-6.3,0-7.1-3.1-7.5-6.5c-0.6-4.8,3.5-5.7,6.1-5c2.4,0.6,5.3,3.8,5.6,6.2
			C467.9,252.6,464.5,255,463.5,256.2z"/>
		<path class="st0" d="M839.1,387.4c0.9-3.6,1.7-7,2.6-10.4c0.6,0,1.1,0,1.7-0.1c2.3,3.2,9.8,1.6,7.7,8.4
			C849.5,390.3,845.8,390.7,839.1,387.4z"/>
		<path class="st0" d="M1063.1,447.8c-4.3,0-7.8-2.9-6.6-6.6c0.7-2.2,4.2-4.1,6.7-4.7c1.3-0.3,4.5,2.7,4.7,4.4
			C1068.5,445.8,1066.7,447.8,1063.1,447.8z"/>
		<path class="st0" d="M582.3,450.5c-2.1-0.9-5.5-1.6-5.3-6c0.2-3.1,3.9-5.7,8-5.6c3,0.1,4.6,1.6,4.6,4.6
			C589.5,447.4,586.6,450.6,582.3,450.5z"/>
		<path class="st0" d="M896.7,473c0.3,4.2-2,6.6-5.2,5.7c-2.4-0.7-5.5-3.6-5.8-5.8c-0.5-3.8,2.5-5.6,6.7-5.6
			C897.2,467.3,895.7,471.1,896.7,473z"/>
		<path class="st0" d="M614.6,636.5c3.4-2.9,7.5-3.7,11.2-1.3c1.2,0.8,1.7,5.1,0.7,6.5c-1.1,1.6-4.3,2.4-6.6,2.5
			C614.5,644.5,614.6,640.4,614.6,636.5z"/>
		<path class="st0" d="M83.1,495.4c-4.3,2.1-8.5,4.8-13,1.6c-0.9-0.7-1.7-3.5-1.3-3.7c2.4-1.9,5-4,7.9-4.8
			C81.1,487.3,82.8,489.5,83.1,495.4z"/>
		<path class="st0" d="M2888,620c-3.6-3.1-6.1-6.5-2.6-10.9c1-1.2,3.9-2.2,4.9-1.6c2,1.2,4.4,3.3,4.8,5.4
			C2896.5,618.7,2891.1,618.4,2888,620z"/>
		<path class="st0" d="M623.7,97.8c0.3-2.1,0.3-4.3,1-6.3c1.2-3.7,4.9-4.6,7.1-2.8c2,1.6,3,5.6,2.7,8.4c-0.3,3.4-3,4.4-6.3,2.4
			C626.9,98.8,625.3,98.4,623.7,97.8z"/>
		<path class="st0" d="M1883.5,370.9c-3.6-7.2-3.6-10.7-0.1-12c3.8-1.4,7.8-0.2,8.8,2.7C1893.5,365.5,1889.7,369.7,1883.5,370.9z"/>
		<path class="st0" d="M599.8,156.5c0.8-3.9,3.9-5.9,6.8-5c2.4,0.7,4,4,5.9,6.1c-2.4,1.9-4.8,5.1-7.3,5.3
			C602.2,163.2,600.1,160,599.8,156.5z"/>
		<path class="st0" d="M1117.8,585c-7.8,3.9-10.8,4-12.4,0.4c-1.2-2.5,1.6-8.1,4.5-9C1113.9,575.2,1115.9,577.3,1117.8,585z"/>
		<path class="st0" d="M889.1,270.4c0.1-4.3,2.7-7.6,5.8-7.4c4.5,0.1,4.6,3.8,5,6.7c0.5,3-3.8,6.1-7.5,5.9
			C889.5,275.4,888.9,274.5,889.1,270.4z"/>
		<path class="st0" d="M1174,570.2c2.9,0.1,5.5,0.6,4.9,4.4c-0.5,3.1-0.6,6.6-4.8,7c-3.3,0.3-7-3.2-7-6.3
			C1166.9,572.3,1169.8,570.1,1174,570.2z"/>
		<path class="st0" d="M658.8,345.3c-2,2-3.2,3.9-4.9,4.7c-2.5,1.2-5.3,1.9-8,2.1c-1.1,0.1-3.3-1.7-3.3-2.7c-0.1-3.1,9.2-8.8,12-7.6
			C656,342.5,657,343.7,658.8,345.3z"/>
		<path class="st0" d="M1230,562.5c1-0.5,2.6-1.9,4.3-2.1c4.5-0.4,7.3,2.4,6.6,6.9c-0.3,1.9-2.6,4.5-4.5,4.9
			C1233.1,572.9,1230.1,568.7,1230,562.5z"/>
		<path class="st0" d="M1803.2,299.3c-4.5-0.9-7.2-4.1-7.2-7.9c0-4.5,3.8-3.7,6.2-4c3.5-0.5,6.8,2.2,6.6,5.1
			C1808.6,294.8,1805.2,297,1803.2,299.3z"/>
		<path class="st0" d="M2450.1,468.4c-7.1,6.3-8.2,6.3-12.1,2.1c-3.9-4.1,0.1-6.1,2.2-7.7c1.4-1,4.6-0.8,6.3,0.1
			C2448.1,463.7,2448.8,466.3,2450.1,468.4z"/>
		<path class="st0" d="M2920.2,545c-0.2-4.7,2.1-6.8,5-6.4c2.4,0.4,5.8,2.4,6.5,4.5c1.2,3.8-2.4,7.7-5.7,7.4
			C2922,550.2,2920.4,547.5,2920.2,545z"/>
		<path class="st0" d="M274.7,621.2c-1.9-1.8-4.9-3.3-5.4-5.4c-1-4.2,1.7-7.1,5.6-6.3c2.4,0.5,5.7,2.6,6.2,4.6
			C281.9,617.9,279.3,620.1,274.7,621.2z"/>
		<path class="st0" d="M3133.9,610.6c2.8,1.6,5.7,2.7,7.8,4.7c1.4,1.3,2.9,4.6,2.2,5.6c-1.5,2.1-4.2,4-7.1,1.4
			c-1.5-1.3-3-2.7-4.4-4.2C3129.1,614.6,3131.1,612.4,3133.9,610.6z"/>
		<path class="st0" d="M227.6,184.9c0.8,3.7-2.1,5.8-5.1,5.8c-3.5,0.1-5.8-2.6-5.4-6.6c0.4-3.6,2.2-5.5,6.1-5.5
			C227.3,178.8,228.1,181.1,227.6,184.9z"/>
		<path class="st0" d="M1193.3,469.1c-4-0.8-9-4.6-8.6-7.1c0.8-4.3,5.1-4.7,7.7-4c2.3,0.5,4.5,3.7,5.4,6.2
			C1198.2,465.1,1194.9,467.4,1193.3,469.1z"/>
		<path class="st0" d="M1264.6,476.2c6.2,0.1,9,2.3,8.1,6.3c-0.5,2.2-3.5,5.2-5.5,5.3c-1.8,0.1-5.1-2.9-5.5-5
			C1261.2,480.2,1262,476.5,1264.6,476.2z"/>
		<path class="st0" d="M656.9,472.4c0-4.2,3.2-7.6,7-7.2c1.6,0.2,4,2,4.2,3.3c0.7,4.4-2.9,8.8-6.4,8.9
			C657.7,477.5,656.7,475.2,656.9,472.4z"/>
		<path class="st0" d="M441.9,337.6c0.8-3.3,2.6-5.5,6.6-5.6c4.6-0.1,5.6,3.3,4.7,6.1c-0.7,2.4-3.6,5.3-5.9,5.7
			C443.8,344.4,441.7,341.7,441.9,337.6z"/>
		<path class="st0" d="M153.7,562.1c-3.2,0.5-5.2-0.5-5.3-4c-0.1-3.3,3-6.8,5.9-6.8c2.8,0.1,7.1,3.9,6.5,6.3
			C159.9,561.1,157.3,562.6,153.7,562.1z"/>
		<path class="st0" d="M60.5,553.9c-4.4,5.6-8.8,7-12.1,4.1c-2.2-1.9-3.8-4.4-0.6-6.5c2.1-1.4,4.9-2.5,7.2-2.2
			C57,549.6,58.6,552.2,60.5,553.9z"/>
		<path class="st0" d="M868.9,347.4c-1.2-3.7,1.6-4.5,4.3-4.6c3.4-0.1,6.8,4.3,6.9,7.6c0.1,4-2.7,4.6-5.4,4.7
			C872,355.3,868.8,350.8,868.9,347.4z"/>
		<path class="st0" d="M318.3,526c1.5,2.2,3.7,4.1,4.3,6.5c0.8,3.3-3,7.2-6.3,6.2c-2.1-0.6-4.7-4-4.7-6.2c-0.1-2.1,2.8-4.3,4.4-6.5
			C316.7,526,317.5,526,318.3,526z"/>
		<path class="st0" d="M499.2,440.1c5.6,0.3,8.7,3.2,8.2,6.3c-0.4,2.3-4.8,3.8-7.5,5.7c-1.6-2.5-4.1-4.9-4.6-7.7
			C495.1,443.1,498.3,441.1,499.2,440.1z"/>
		<path class="st0" d="M1182,401.1c-1.2-2.9-1.8-5-2.9-6.8c-1.4-2.5-2.1-5,1-6.1c2-0.7,5.4-0.6,6.8,0.7c1.5,1.4,2.7,5.1,1.8,6.7
			C1187.7,397.9,1184.6,399.2,1182,401.1z"/>
		<path class="st0" d="M396.9,222.4c-4.2-0.1-6.1-2.2-6.2-5.6c-0.1-4.2,3.9-5,6.3-4.3c2.9,0.8,7.3,3.6,7.4,5.6
			C404.6,222.8,399.4,221.4,396.9,222.4z"/>
		<path class="st0" d="M949.9,454.7c-0.7-3.1,0.9-5.2,3.9-5.5c3.7-0.4,7.5,3.7,7.2,7.6c-0.2,3.4-2.3,4.7-5.7,4.6
			C950.9,461.3,949.4,459,949.9,454.7z"/>
		<path class="st0" d="M826.3,494.2c-2.6-4-2.5-7.8,0.1-10.7c1.3-1.4,4.8-1.9,6.7-1.2c1.4,0.5,2.8,3.8,2.6,5.7
			C835.2,493.3,830.5,493.4,826.3,494.2z"/>
		<path class="st0" d="M309.4,52.3c-3.3,0-6.2-0.5-6.3-4.9c-0.1-4.4,2.7-5.7,6.2-6.1c3.2-0.4,5.6,2.7,5.5,6.7
			C314.6,50.8,312.8,52.3,309.4,52.3z"/>
		<path class="st0" d="M2678,502.1c-3.5,0.6-7,1.2-10.5,1.8c-0.4-2.3-1.4-4.7-0.9-6.8c0.4-1.8,2.4-4.1,4.1-4.4
			c6.2-1.1,4.6,5.5,7.5,7.8C2678,501,2678,501.6,2678,502.1z"/>
		<path class="st0" d="M2257.6,429.2c4.1-0.2,6.5,1.2,6.6,5.2c0.1,3.3-3.3,5.4-7.9,5.6c-5.4,0.2-3.3-4-3.7-6.3
			C2252.2,430.1,2254.4,428.6,2257.6,429.2z"/>
		<path class="st0" d="M86,355.5c-1.6,2.5-3,5.6-5.3,7.7c-1,0.9-4.7,0.8-5.4-0.1c-1.3-1.8-2.6-5.1-1.8-6.8
			C76.4,350.1,81.1,351.4,86,355.5z"/>
		<path class="st0" d="M804.2,149c4.8-1,5.8,2.5,6,5.5c0.3,3.9-3.1,4.5-6.1,4.7c-3.2,0.2-5.9-0.6-6-4.8
			C797.9,149.7,800.6,148.7,804.2,149z"/>
		<path class="st0" d="M457,385.1c-5.4-0.3-7.2-3.9-7-7.2c0-1.3,4.6-2.9,7.3-3.7c2.2-0.6,6.4,4.3,5.3,6.7
			C461.7,382.8,458.9,383.7,457,385.1z"/>
		<path class="st0" d="M3042.3,652.9c-5.2-0.6-6.4-3.7-6.4-6.7c0-4.9,4.3-4.5,7.6-4.9c4.9-0.5,4.5,4.1,4.1,6.1
			C3047.2,649.5,3044.2,651.1,3042.3,652.9z"/>
		<path class="st0" d="M533.6,432.9c-0.6,5.6-4.5,5.9-7.2,6.1c-4.3,0.3-4.6-4-4.8-6.8c-0.2-4.3,4.2-4.7,6.7-4.5
			C530.2,427.8,531.9,431,533.6,432.9z"/>
		<path class="st0" d="M1571.5,378c2.6,3,5.6,5.3,5.3,6.3c-1,2.9-3.5,5.3-5.4,7.8c-2-2.3-5-4.4-5.7-7
			C1565.3,383.7,1568.7,381.2,1571.5,378z"/>
		<path class="st0" d="M513.9,411.8c2.2-3.6-2.2-9.6,4.9-10.3c4.3-0.4,7.5,2.7,7.1,6.1C525.6,411.1,521.3,412.8,513.9,411.8z"/>
		<path class="st0" d="M884,519.3c-6-2.7-9.1-6.9-7.5-9.7c1.4-2.3,6.4-3.7,8.3-2.3C888.9,510.4,888.7,513.3,884,519.3z"/>
		<path class="st0" d="M1526.3,301.6c3.1,1.7,6.3,3.4,9.4,5.1c-1.6,2.5-2.8,5.4-4.9,7.2c-0.8,0.7-5-0.3-5.4-1.4
			c-1.1-2.9-1.1-6.2-1.5-9.4C1524.8,302.6,1525.6,302.1,1526.3,301.6z"/>
		<path class="st0" d="M642.6,554.6c1.9,4.9,0.4,7.8-4,8.7c-1.8,0.4-5-0.1-5.7-1.3c-1.1-1.9-1.5-5.2-0.5-7
			C635.3,549.8,639.1,555.1,642.6,554.6z"/>
		<path class="st0" d="M1206,640.1c-4.6,0.4-8.7,5.4-11.7-0.7c-1.7-3.5,0.4-8.9,3-8.8c2,0,4.7,0.7,5.9,2.1
			C1204.7,634.4,1205,637.2,1206,640.1z"/>
		<path class="st0" d="M245.2,371.9c-3.9,0.4-7.9,5-11.6-0.3c-0.8-1.2-0.9-4.5-0.4-4.7c2.7-1.2,5.9-2.7,8.7-2.4
			C245.3,364.9,246.6,368,245.2,371.9z"/>
		<path class="st0" d="M1141,516.5c0,3.6-2.9,6.5-6.8,5.6c-2.2-0.5-5.4-3.4-5.3-5.1c0.1-3.2,2.9-5.8,6.6-5.8
			C1138.7,511.4,1141.4,512.5,1141,516.5z"/>
		<path class="st0" d="M855.8,429c-6.9-1.7-11.2-5-10.5-8c0.6-2.3,5.4-4.7,7.8-4C857,418.2,858.2,423,855.8,429z"/>
		<path class="st0" d="M3136.8,564.1c6.5-4.4,11.3-3.7,12.4,2c0.4,1.9-1.2,4.8-2.8,6.4c-0.6,0.6-4-0.4-5.3-1.6
			C3139.4,569.2,3138.4,566.6,3136.8,564.1z"/>
		<path class="st0" d="M379.7,79.4c-4.4,5.2-11.2,4.8-14.9-1c-0.4-0.7-0.3-2.5,0.3-3C370.2,71.4,376.7,73.2,379.7,79.4z"/>
		<path class="st0" d="M2688.8,494.6c0.7,4.1-1.5,7.3-4.9,7.1c-2.1-0.1-4.8-3.8-5.7-6.5c-0.9-2.9,3.3-5.8,7.2-5.6
			C2688.7,489.8,2689.7,491.6,2688.8,494.6z"/>
		<path class="st0" d="M3067.4,557.9c1.9,0.2,4.9-0.4,5.8,0.7c2.3,2.8,7.7,4,5.8,9.2c-0.5,1.4-2.3,3.5-3.2,3.4
			c-2-0.2-4.8-1.2-5.7-2.8C3068.7,565.6,3068.4,562.1,3067.4,557.9z"/>
		<path class="st0" d="M170.8,322.6c6.2-5.7,9-6.5,12-3c1.2,1.4,2.1,4.6,1.4,5.7c-1,1.5-4.2,2.9-5.8,2.4
			C175.6,326.9,173.4,324.5,170.8,322.6z"/>
		<path class="st0" d="M1072.1,576.4c1,5.1-3.3,6-6,6.3c-1.4,0.1-4.4-3.8-4.6-6.1c-0.2-2.4,1.1-5.8,5.3-5.6
			C1070.6,571.1,1072.9,572.3,1072.1,576.4z"/>
		<path class="st0" d="M2918.6,509.2c3.7,0.5,6,2.1,5.7,6.1c-0.3,2.9-0.8,6.4-4.4,5.6c-2.5-0.6-5.7-3.2-6.3-5.4
			C2913,512.9,2914.6,509.3,2918.6,509.2z"/>
		<path class="st0" d="M1396.2,346.6c2.2-0.5,4.4-1.6,6.5-1.3c2.5,0.4,5,1.7,7.1,3.2c1.3,0.9,2,2.9,2.9,4.4
			c-2.4,0.9-5.4,3.1-7.1,2.3c-3.4-1.5-6.2-4.6-9.2-7C1396.3,347.7,1396.2,347.1,1396.2,346.6z"/>
		<path class="st0" d="M944.7,502.8c-3.3-3.6-4-7.3-1.5-10.7c1-1.3,4.3-1.9,6.1-1.3c1.6,0.5,3.6,3,3.6,4.7
			C952.9,500.6,948.2,501,944.7,502.8z"/>
		<path class="st0" d="M514.2,132.3c3,2.5,6.1,4.1,7.4,6.6c0.5,1-2.7,4.1-4.2,6.2c-2.7-2.3-5.5-4.6-8.2-7
			C510.7,136.5,512.1,134.8,514.2,132.3z"/>
		<path class="st0" d="M380.4,464.3c-2.9,4.1-7.1,4.2-11.1,3.6c-1.3-0.2-2.7-2.8-3-4.4c-0.2-1.4,0.8-3.9,1.9-4.4
			c1.6-0.8,4.2-0.9,5.8-0.1C376.3,460.1,378,462.3,380.4,464.3z"/>
		<path class="st0" d="M2580.4,500.1c-1.8,4.5-6.1,3.6-9.8,2.6c-1.2-0.3-2-3.9-1.9-6c0-1.2,1.8-3.1,3.1-3.4
			C2576.5,492.1,2579.8,493.9,2580.4,500.1z"/>
		<path class="st0" d="M890.5,374.1c-8.6,2.3-11.6-1.2-9.4-10.3C890.7,364.2,891.8,365.3,890.5,374.1z"/>
		<path class="st0" d="M1043.5,379.2c2.8-5.1,5.6-7.8,9.6-6.7c1.8,0.5,4.4,3.7,4.1,5.2c-0.4,2.1-3.2,5.3-4.8,5.3
			C1049.5,382.9,1046.7,380.7,1043.5,379.2z"/>
		<path class="st0" d="M1048.8,283.6c1.9,3.2,3.7,6.9-0.8,9.1c-2,1-5.2,0.6-7.6-0.1c-1.1-0.3-2.5-3.8-2-4.4
			C1041.1,285.3,1044,282,1048.8,283.6z"/>
		<path class="st0" d="M554,178.5c-1.2,4.6-1.6,8.1-3.1,10.9c-0.6,1.1-4,1.2-5.8,0.8c-1.3-0.3-2.9-2.4-3-3.8
			c-0.1-1.9,0.6-4.8,1.9-5.5C546.6,179.5,549.8,179.3,554,178.5z"/>
		<path class="st0" d="M2821.9,586.3c-2-5.7-3.4-9.9-4.9-14.2c6-1.2,13.4,5.5,11.7,9.9C2828.1,583.8,2824.8,584.6,2821.9,586.3z"/>
		<path class="st0" d="M1031.7,556.4c-1.1,1.6,0,6.2-5,5.8c-3.2-0.3-6.2-1.2-5.7-5.7c0.3-2.8,4.1-6.3,7.1-6.2
			C1031.4,550.5,1032.4,552.4,1031.7,556.4z"/>
		<path class="st0" d="M303,275.4c-0.4-4.4,1-6.2,4.6-6.3c4,0,6.9,2.4,6,6.1c-0.5,1.9-3.3,4.2-5.4,4.7
			C304.6,280.8,303,278.7,303,275.4z"/>
		<path class="st0" d="M2933.2,551.6c2.6,2.8,5.4,4.7,6.3,7.2c0.4,1-3.4,3.5-5.2,5.2c-2.4-2.5-4.8-5.1-7.2-7.6
			C2928.7,555.1,2930.4,553.7,2933.2,551.6z"/>
		<path class="st0" d="M313.5,641.3c2.2-1.8,4.3-4.5,7-5.3c1.5-0.5,5.2,1.8,5.6,3.4c0.4,1.8-1.3,5.4-2.9,6.1
			C319.9,647.1,316.3,646.1,313.5,641.3z"/>
		<path class="st0" d="M202.8,544.6c-2.9,2.3-4.8,4.9-7,5.3c-3.8,0.7-6.8-2.4-6.3-5.8c0.3-2.2,3.8-5.6,5.8-5.6
			C197.5,538.6,199.7,542,202.8,544.6z"/>
		<path class="st0" d="M1402.2,247.5c10.8-3.4,13.9-2.1,14.6,6.1C1411.1,256.5,1405.6,254.3,1402.2,247.5z"/>
		<path class="st0" d="M143,458.2c-4.5,1.1-5.5-2.1-5-5c0.4-2.2,3.1-5.8,4.3-5.6c2.5,0.3,6.3,2.6,6.6,4.5
			C149.5,455.2,147.8,459,143,458.2z"/>
		<path class="st0" d="M988.1,266.1c-1-1.2-4.1-3.4-4.3-5.8c-0.2-1.7,3.6-5.4,5.5-5.3c2,0.1,5,3.3,5.6,5.6
			C995.4,263,994.4,266.7,988.1,266.1z"/>
		<path class="st0" d="M398.5,161.1c-1.8-2-3.5-3.9-5.3-5.9c2.1-1.7,4.1-4.3,6.4-4.7c2.7-0.5,6.8-0.3,6.5,4.5
			C405.8,159,403.3,160.4,398.5,161.1z"/>
		<path class="st0" d="M2776.2,491.3c-4.4-1-6.5-2.4-6.6-5.8c0-4.3,3.7-5.8,6.7-5.9c1.9,0,5.7,3.8,5.4,4.8
			C2780.8,487,2778.2,489.1,2776.2,491.3z"/>
		<path class="st0" d="M784.9,585.9c-3.1,6.9-5.8,8.1-12.1,5.1c-1.1-0.5-2.2-2-2.5-3.3c-0.2-0.5,1.4-1.8,2.4-2.4
			C776.9,583.1,781.1,581.6,784.9,585.9z"/>
		<path class="st0" d="M82,175.7c-0.8,4.2-1.9,7.1-5.4,6.2c-2.8-0.8-5-3.4-7.5-5.2c2.1-2,4.1-5.2,6.5-5.6
			C77.4,170.7,79.8,174,82,175.7z"/>
		<path class="st0" d="M1302.4,177.6c0.4,5.1-3,6.4-6.2,6.1c-1.8-0.2-5-3.6-4.6-4.7c0.7-2.3-0.1-6.9,4.1-6.4
			C1298.5,172.9,1303.4,172.4,1302.4,177.6z"/>
		<path class="st0" d="M395.9,269.6c3.8-0.7,7,0.1,7.2,4.4c0.2,3.6-2.9,4.5-5.8,4.7c-3.2,0.2-7.5-3.8-6.7-6.6c0.4-1.5,3-2.4,4.5-3.6
			C395.4,268.8,395.6,269.2,395.9,269.6z"/>
		<path class="st0" d="M1003.9,474c3.6-1.1,3.7,3.4,3.4,5.6c-0.2,2-2.9,4.8-5,5.2c-3.2,0.7-6-1-6.1-5.2
			C996.2,475.1,999.2,474.6,1003.9,474z"/>
		<path class="st0" d="M57.4,397.3c-1.7-2.8-4.2-5.4-3.7-6.4c1.5-2.9,4.2-5.1,6.4-7.6c1.7,1.8,5.1,4.4,4.7,5.1
			C63.2,391.3,60.6,393.6,57.4,397.3z"/>
		<path class="st0" d="M120.5,82.7c3,2.8,5.8,4.3,6.8,6.7c1.1,2.4-3.6,7.1-6.1,6c-2.4-1-5-3.6-5.8-6C115.1,88,118.3,85.6,120.5,82.7
			z"/>
		<path class="st0" d="M213.5,153.2c0.6,0.6,3.2,2.4,3,3.4c-0.7,3.1-1.2,7.7-5.7,7.2c-2.2-0.2-5.7-3.2-5.7-4.9
			C205.1,155.5,207.8,153,213.5,153.2z"/>
		<path class="st0" d="M696.2,366.5c1.5-2.3-1.2-6.9,4.4-7.1c5.9-0.2,7.3,3.6,8.7,9.6c-4.5-0.3-8.6-0.5-12.6-0.7
			C696.5,367.7,696.4,367.1,696.2,366.5z"/>
		<path class="st0" d="M222.9,439.6c4.6,0.8,7.8,2.2,7.5,5.9c-0.2,2-3.3,3.8-5.1,5.6c-2.1-2.2-4.6-4.2-6.2-6.7
			C218.8,443.8,221.6,441.2,222.9,439.6z"/>
		<path class="st0" d="M2142.3,519.5c-2-3-4.7-5.3-4.6-7.6c0.1-1.9,3.1-4.3,5.3-5.3c2.2-0.9,7,4.7,5.8,7
			C2147.8,515.8,2145.1,517.1,2142.3,519.5z"/>
		<path class="st0" d="M246.2,64.1c5.5-4.5,12.7-3.7,14.5,3.4C254.9,72.3,254.1,74.1,246.2,64.1z"/>
		<path class="st0" d="M2799.4,613.5c2.2,1.7,4.4,3.5,6.5,5.2c-2.3,2-4.3,4.8-6.9,5.6c-1.5,0.4-4-2.6-6-4.1c1.6-2.1,0.3-7.1,5.7-5.4
			C2798.9,614.3,2799.1,613.9,2799.4,613.5z"/>
		<path class="st0" d="M158.2,636.6c-1.2,1-4.1,4.4-5.2,3.9c-2.7-1.2-4.6-4.3-6.9-6.6c1.5-1.4,3-3.7,4.7-4
			C155.9,629.3,158.3,631.3,158.2,636.6z"/>
		<path class="st0" d="M44.9,587.7c2-2.2,3.8-4.7,6.2-6.4c1.2-0.8,4.1-0.8,5.1,0.1c1.3,1.2,1.9,3.7,1.7,5.5
			c-0.1,1.1-2.3,2.6-3.7,2.8c-2.9,0.4-5.9,0.1-8.9,0.1C45.2,589.1,45,588.4,44.9,587.7z"/>
		<path class="st0" d="M226.4,266.1c5.4-6.4,8.1-7.2,11.8-3.9c3.7,3.3-0.1,5.5-1.3,7.4C235.3,272.1,229.4,270,226.4,266.1z"/>
		<path class="st0" d="M1031.2,470.7c-3.2,0-4.1-2.3-4.2-5c-0.2-3.9,1.9-5.6,5.7-5.8c4.6-0.3,5.1,3.5,5.3,6.2
			C1038.2,470.3,1034.6,470.6,1031.2,470.7z"/>
		<path class="st0" d="M284.1,197c2.9-0.7,5.9-2,8.8-2c2.9,0,6,1.4,5.3,5.4c-0.4,2.4-5.9,4.5-8.4,3c-2.1-1.2-3.9-3.2-5.8-4.9
			C284,198,284,197.5,284.1,197z"/>
		<path class="st0" d="M2981.2,572.7c-3-0.3-5.2-1.6-5.1-5.7c0-3.2,1.2-5,4.5-5c3.9-0.1,6.8,2.9,6.9,6.6
			C2987.5,573,2984.4,572.4,2981.2,572.7z"/>
		<path class="st0" d="M495.9,112.6c-10.4-0.6-10.4-0.6-11.6-8.5c3.2-0.5,7.3-2.4,9.4-1.1C495.6,104.2,495.2,108.9,495.9,112.6z"/>
		<path class="st0" d="M239.1,396.1c3.7-0.1,4.7-6.8,9.3-2.9c1.6,1.3,2.5,3.3,3.7,5c-2.4,1.5-4.6,3.7-7.2,4.2
			C241.3,403.1,240,400,239.1,396.1z"/>
		<path class="st0" d="M2494.4,494.4c0.2,4.8-3.2,5.2-5.6,4.4c-2-0.7-4.8-3.6-4.6-5.3c0.2-2.1,2.6-5.1,4.7-5.8
			C2492.2,486.8,2494.4,490.2,2494.4,494.4z"/>
		<path class="st0" d="M136.4,203.2c3.1-2.6,4.7-4.6,6.8-5.5c1.4-0.7,4.1-0.6,5.1,0.3c1.5,1.3,2.5,3.7,2.6,5.7
			c0.1,1-2.6,3.1-3.7,2.9C143.7,206,140.4,204.5,136.4,203.2z"/>
		<path class="st0" d="M228.9,598.1c-0.4-3.6,2.1-5,4.9-5.5c2.7-0.6,7.4,3.6,6.7,6.3c-0.4,1.7-2.9,3.7-4.7,3.9
			C231.1,603.5,229,601.7,228.9,598.1z"/>
		<path class="st0" d="M1163.8,216.7c-3.3-2.7-5.8-4.8-8.4-7c1.7-1.8,3.1-4.7,5.1-5.1c3.3-0.7,7.9,4.6,7.2,7.8
			C1167.3,213.7,1165.7,214.7,1163.8,216.7z"/>
		<path class="st0" d="M282.6,614.1c0-5,3.4-6.1,5.6-6.2c3.4-0.2,6.3,2.2,5.7,5.8c-0.4,2-3.4,4.9-5.1,4.8
			C286.7,618.4,284.7,615.7,282.6,614.1z"/>
		<path class="st0" d="M850,550.2c-4.3,0.5-5-4.1-4.3-5.3c1.2-2.3,4.1-4.3,6.7-5.2c1-0.3,4.1,2.6,4.6,4.5
			C857.6,546.9,853.2,550.3,850,550.2z"/>
		<path class="st0" d="M403.7,336.3c6.3-0.2,6.2,3.3,6.4,6.5c0.3,4.1-3.4,4.2-5.4,4.1c-2.2-0.2-6-0.6-5.5-4.6
			C399.7,338.9,401.9,336.8,403.7,336.3z"/>
		<path class="st0" d="M210.2,637.1c2.3-3.7,5.8-4.6,9.7-3.5c1.2,0.3,2.6,2.6,2.5,3.8c-0.2,1.7-1.4,4.1-2.9,4.7
			C214.7,644.3,212.2,641,210.2,637.1z"/>
		<path class="st0" d="M1658.3,434.6c5.6-4,9.9-4.4,12.1-1.1c2.2,3.4-0.1,5.7-2.5,7.6C1664.8,443.4,1662.7,441.9,1658.3,434.6z"/>
		<path class="st0" d="M84.8,143.5c1,1.9,2.6,3.6,2.7,5.4c0,1.5-1.4,4-2.7,4.4c-2.4,0.8-5.4,1-7.9,0.5c-1-0.2-2.3-4.3-2-4.6
			C77.4,147.2,80.2,146,84.8,143.5z"/>
		<path class="st0" d="M700,464.7c-5.1,0.4-4.7-2.5-4.8-5.1c-0.2-3.3,0.2-6.2,4.3-6.2c3.8,0,5.3,2.7,5.5,6.1
			C705.1,463.6,702.5,464.8,700,464.7z"/>
		<path class="st0" d="M826.2,161.5c5-5.7,7.7-6.5,10.7-3.1c2.5,2.7,1.5,5.2-0.9,7.2C832.6,168.4,830,167.3,826.2,161.5z"/>
		<path class="st0" d="M103.6,588.9c-2.1,1.8-4,4.8-6.3,5c-2.2,0.3-4.7-2.3-7.1-3.6c1.1-1.9,2-5.2,3.4-5.5c2.9-0.4,6,0.8,9,1.3
			C103,587.1,103.3,588,103.6,588.9z"/>
		<path class="st0" d="M431,574.6c-2.3,1.2-4.7,3.4-7.3,3.7c-2.7,0.3-5.6-1.6-4.8-5.2c0.4-1.7,1.8-4.3,2.9-4.4
			C425.3,568.2,429.3,568.2,431,574.6z"/>
		<path class="st0" d="M2352.6,547.3c-2.2-2.6-5.4-4.8-5.2-6.4c0.4-2.1,3.5-3.7,5.4-5.5c1.9,2.5,3.9,5,5.8,7.6
			C2357.1,544.1,2355.4,545.3,2352.6,547.3z"/>
		<path class="st0" d="M2213.5,441.2c-3.2-0.4-7.3,1.6-9-3.5c-1.1-3.4,1.5-4.6,3.5-5.6c1.6-0.8,4.8-1.1,5.7-0.1
			C2216.1,434.6,2216.5,438.1,2213.5,441.2z"/>
		<path class="st0" d="M251.8,239.6c-1.7,1.8-3.3,4.2-5.5,5.4c-1.1,0.6-3.6-0.9-5.1-2c-2.7-1.9-1.7-4.3,0-6.1
			C245.2,232.8,246.9,233.3,251.8,239.6z"/>
		<path class="st0" d="M527.2,118.5c3.8-3.5,14.9-2.1,16.8,2c0.3,0.6,0,2.1-0.6,2.5c-1.4,1-3.6,2.7-4.6,2.2
			C534.8,123.4,531.1,120.8,527.2,118.5z"/>
		<path class="st0" d="M2227.7,527.9c-2.8,0.2-5.8,1.1-8.3,0.3c-1.5-0.4-3.2-3.8-2.8-5.3c0.5-1.8,3-4.2,4.8-4.4
			c5.5-0.5,4,5.3,6.5,7.7C2227.8,526.8,2227.8,527.3,2227.7,527.9z"/>
		<path class="st0" d="M718.9,634c-3.8,2.1-6.2,4.4-9,4.8c-2.6,0.4-6.1-1.7-4.9-4.9c0.9-2.4,4-4.9,6.5-5.3
			C713.4,628.3,715.7,631.4,718.9,634z"/>
		<path class="st0" d="M324.8,210.3c-2-2.1-5.6-4.1-5.7-6.3c-0.2-4.8,4.6-3.5,7.6-3.8c3.4-0.4,4.4,1.6,4.5,4.8
			C331.4,209.4,328.6,209.3,324.8,210.3z"/>
		<path class="st0" d="M84.9,636.5c-0.8-6.2,3.3-7.7,7.7-8.8c0.3,3.1,6.7,4.5,2.4,9.2C91,641.1,88.2,636.6,84.9,636.5z"/>
		<path class="st0" d="M867.5,637.3c-2.5-3.1-5-4.8-5.1-6.6c-0.3-4.4,3.9-5,6.9-5c1.5,0,4.6,3.3,4.3,3.9
			C872.4,631.9,870.3,633.9,867.5,637.3z"/>
		<path class="st0" d="M102.8,248.1c-2.5-3-5.5-5.5-5.1-6.4c1.2-2.5,3.8-4.3,5.8-6.4c1.9,2,4.9,3.9,5.2,6
			C108.9,243,105.6,245.1,102.8,248.1z"/>
		<path class="st0" d="M460.4,55.9c2.5,2.9,5.6,4.9,5.6,6.8c-0.1,4-4.5,4.1-7.3,4c-1.7-0.1-3.3-3-4.9-4.6
			C455.8,60.4,457.6,58.6,460.4,55.9z"/>
		<path class="st0" d="M1226.3,207.5c1.2-2.9,0.2-7.4,5.2-6.9c1.9,0.2,4.4,1.2,5.4,2.6c0.8,1.1,0.4,4.3-0.7,5.2
			C1233.2,210.8,1229.7,210.8,1226.3,207.5z"/>
		<path class="st0" d="M633.2,205.5c-0.9,2.4-1.7,4.5-2.6,7.2c-4.2-0.9-8.2-1.9-12.3-2.8C620.5,203.7,623,202.9,633.2,205.5z"/>
		<path class="st0" d="M412.6,170.5c-2.1,1.4-4.2,4.1-6.3,4c-2.1-0.1-4.1-2.8-6.1-4.3c1.7-2,3.3-5.5,5-5.5c2.5,0,4.9,2.4,7.4,3.8
			C412.6,169.2,412.6,169.9,412.6,170.5z"/>
		<path class="st0" d="M242.4,128.9c-3.1,1.9-5.3,3.7-7.7,4.4c-0.8,0.2-3.2-2.5-3.5-4c-0.6-3.7,3.3-8.5,6-7.4
			C239.2,122.6,240.2,125.7,242.4,128.9z"/>
		<path class="st0" d="M278.8,305c-4-0.7-7.6-1.4-10.7-2c-1.3-4.9,2.1-6.6,5.2-6.9c2.5-0.3,5.3,1.7,8,2.7
			C280.3,301.4,279.7,302.9,278.8,305z"/>
		<path class="st0" d="M112.5,589.3c-1.8-1.8-3.6-3.7-5.4-5.5c2.4-1.7,4.6-4.2,7.3-4.9c1.1-0.3,4.2,2.9,4.6,4.9
			c0.7,3.6-2.2,4.7-5.5,4.3C113.2,588.6,112.8,588.9,112.5,589.3z"/>
		<path class="st0" d="M192.3,519.1c1.7-4.8,5.1-7.3,8.7-9c0.8-0.4,3.9,2.5,4.4,4.3c0.3,1.2-1.8,4.1-3.4,4.5
			C199.4,519.6,196.3,519.1,192.3,519.1z"/>
		<path class="st0" d="M316.4,98c-1.5,0.7-3,1.4-4.5,2c-2.6,1.2-10.5-3.3-10.7-6.2c-0.1-0.7,0.2-1.8,0.7-2.2
			c2.2-2,12.1,0.9,12.9,3.7c0.1,0.3,0,0.7,0,1C315.3,96.9,315.9,97.4,316.4,98z"/>
		<path class="st0" d="M375.6,253.1c0.3,0,0.7-0.1,1,0c2,0.7,4.2,1.2,6,2.4c0.4,0.2-0.2,3.5-0.8,3.8c-2.3,0.8-4.9,0.9-7.4,1.2
			c-0.1,0-0.3-0.1-0.4-0.2c-1.9-1.6-3.8-3.3-5.6-4.9c2.3-1.1,4.6-2.1,6.9-3.2C375.4,252.4,375.5,252.8,375.6,253.1z"/>
		<path class="st0" d="M803.4,638.9c2.4-4.5,5.9-3.8,8.8-1.6c1.5,1.1,2.1,3.7,2.3,5.8c0.1,0.7-2.1,2.4-3.3,2.5
			C806.9,645.8,804.2,643.5,803.4,638.9z"/>
		<path class="st0" d="M718.8,314c3-0.8,4.9,0.3,4.7,4.2c-0.2,2.8-0.7,6-4.2,5c-2.7-0.8-6.2-3-6.8-5.3
			C711,312.9,715.6,314.4,718.8,314z"/>
		<path class="st0" d="M47.4,455.1c-1.7-2.7-3-3.9-3.3-5.4c-0.5-2.8,4.6-6.6,8.7-6.2c1.3,0.1,2.5,2.1,3.7,3.3
			C53.9,449.3,51.2,451.7,47.4,455.1z"/>
		<path class="st0" d="M448.7,300c-4.7,2.2-7.8,5.1-10.8,1.6c-1-1.1-0.8-4.4,0.1-5.7c1.2-1.7,5.1-3.9,5.6-3.4
			C445.7,294.4,447,297.3,448.7,300z"/>
		<path class="st0" d="M369.6,400.3c-2.5-3.1-5.4-5.1-5.3-7c0.1-1.9,3.2-3.6,5-5.4c1.9,2.3,4,4.5,5.3,7.1
			C375,395.7,372.2,397.8,369.6,400.3z"/>
		<path class="st0" d="M182.7,250.9c1.1,2.5,3,5.1,2.9,7.6c0,1.2-3.7,3.5-5.5,3.3c-1.8-0.2-4.9-3.6-4.6-4.5c0.9-2.5,3.4-4.4,5.2-6.6
			C181.4,250.8,182,250.9,182.7,250.9z"/>
		<path class="st0" d="M338.8,332.7c1,2.1,3.2,4.5,2.7,6.1c-0.7,2.1-3.2,4.4-5.4,5.1c-1.7,0.5-5.7-0.3-4.7-3.7
			c0.9-2.8,3.4-5.1,5.1-7.7C337.3,332.5,338.1,332.6,338.8,332.7z"/>
		<path class="st0" d="M128.8,545.6c-2.5-2.6-4.1-4.3-5.7-6c2.5-1.7,4.8-3.9,7.6-4.9c0.8-0.3,4.4,3.4,4.1,4.2
			C133.8,541,131.5,542.6,128.8,545.6z"/>
		<path class="st0" d="M1011.4,308.6c2-2.7,3.4-6.4,5.5-6.9c1.9-0.4,4.8,2.6,6.8,4.4c0.5,0.5,0,3-0.9,3.8
			C1019.2,313,1015.9,310.6,1011.4,308.6z"/>
		<path class="st0" d="M114.3,427c-3.1,2.4-5.1,5-6.5,4.7c-2.7-0.6-5.1-2.8-7.6-4.4c2.6-1.7,4.9-4,7.7-4.8
			C109.2,422.2,111.3,424.8,114.3,427z"/>
		<path class="st0" d="M368.1,188.5c-1,0.6-2.7,2.5-4.6,2.7c-3,0.4-7.1-4.2-6.1-7c0.6-1.6,3.2-3.2,5.1-3.4
			C365.7,180.4,368.2,183.6,368.1,188.5z"/>
		<path class="st0" d="M449.4,528.7c4.5-0.5,8.5-6.5,14,0.1c-1,1.6-2.3,5.4-3.3,5.3c-3.8-0.3-7.4-1.9-11.2-3
			C449.1,530.3,449.3,529.5,449.4,528.7z"/>
		<path class="st0" d="M39.1,300.5c3.9-1.4,7.5-4.3,11.8-1.2c2,1.4,2.5,2.7,0.2,4.6C46.1,308,41.4,306.8,39.1,300.5z"/>
		<path class="st0" d="M389.7,603.3c1.8-2.2,2.1-6.6,6.7-5c2,0.7,3.9,2.3,5.3,4c0.3,0.4-1.2,3.2-2.4,3.9
			C395.5,608.2,392.1,607.5,389.7,603.3z"/>
		<path class="st0" d="M172.6,382.9c-0.8,1.7-1.6,3.1-2,4.7c-0.9,3.6-3.5,3.5-5.5,1.8c-2-1.7-4.5-4.4-4.5-6.7
			c-0.1-2.7,6.3-3.4,9.9-1.4C171.1,381.6,171.5,382.1,172.6,382.9z"/>
		<path class="st0" d="M307.1,230.5c0.4,0.6,2.1,2.1,2.5,3.9c0.6,3.1-2.9,7.1-5.2,6.1c-2-0.9-4.4-3.4-4.6-5.4
			C299.4,232,301.6,229.8,307.1,230.5z"/>
		<path class="st0" d="M104.5,625.4c5.9-2.3,9.4-1.7,10.2,1.5c0.9,3.6-0.5,6.7-4.1,7C104.8,634.4,105.5,629.2,104.5,625.4z"/>
		<path class="st0" d="M230.8,508.4c-4.5,2.5-7.8,3.1-10.3,0.3c-1.3-1.3-1.4-3.7-2.1-5.6c2.4-0.6,5.2-2.3,6.9-1.5
			C227.6,502.7,228.8,505.7,230.8,508.4z"/>
		<path class="st0" d="M464,427c-3.3-3-6.7-4.7-7-6.8c-0.5-4.3,4.1-3.9,6.8-4.3c1-0.2,3.5,2.7,3.7,4.4
			C467.7,422,465.8,423.9,464,427z"/>
		<path class="st0" d="M327.2,177.1c-5.2,0.2-6.5-1.8-6.6-5.2c-0.1-4.3,3.3-3.9,5.8-4.2c4.4-0.6,4.4,3.3,4.2,5.6
			C330.5,174.9,327.9,176.4,327.2,177.1z"/>
		<path class="st0" d="M184,426.6c2.5-2.8,4.5-6.5,9.2-5.7c1.4,0.2,3.8,2.8,3.5,3.4c-0.7,1.8-2.3,4-4,4.3c-2.6,0.6-5.4-0.3-8.2-0.5
			C184.4,427.6,184.2,427.1,184,426.6z"/>
		<path class="st0" d="M12.1,586.9c3.4,0.9,6.9,1.6,10.2,2.8c3.2,1.2,2.9,3.8-0.6,7.1C11.1,591.5,9.7,591.9,12.1,586.9z"/>
		<path class="st0" d="M348.1,255.1c-1,2.8-2,6.1-5.8,4.9c-2.2-0.7-4.2-2.7-5.9-4.5c-0.3-0.3,0.8-2.8,1.8-3.5
			C340.6,250.3,344.9,251.7,348.1,255.1z"/>
		<path class="st0" d="M209.7,343.2c-2.1-0.2-4-0.3-5.9-0.6c-2.6-0.4-6.3-0.6-5.3-4c0.5-1.9,4.2-3.5,6.6-4c3.5-0.7,4.2,2.3,4.6,5.1
			C209.8,340.7,209.7,341.6,209.7,343.2z"/>
		<path class="st0" d="M217.2,625.8c0.5-4.3,0.8-9,6.6-7.1c1.8,0.6,4.4,4.6,3.9,5.7C225.4,629.4,221.3,628,217.2,625.8z"/>
		<path class="st0" d="M1160.9,193.6c-1.8,4.1-4.1,6.1-8.8,4.7c-2.6-0.8-5-2-3.6-4.4c1.1-1.9,4.2-3.4,6.5-3.5
			C1157,190.3,1159,192.5,1160.9,193.6z"/>
		<path class="st0" d="M126.4,163.4c-5.2,0-10.5-3.8-9.7-6.8c0.3-1.3,3.4-3.3,3.9-3c2.9,2.1,5.4,4.7,7.9,7.3
			C128.5,161,126.8,162.8,126.4,163.4z"/>
		<path class="st0" d="M30.5,451.8c-1.4,1.7-2.9,4.9-4.2,4.8c-3-0.3-5.9-2.1-8.8-3.3c0.7-1.3,1.3-3.8,2.1-3.8
			c3.3-0.2,6.7,0.2,10.1,0.5C29.9,450.5,30.2,451.1,30.5,451.8z"/>
		<path class="st0" d="M2325,501.6c-3.1,0.2-5-0.5-5-4c0.1-3.5,2.1-5.6,5.1-5.2c1.8,0.2,4.4,2.4,4.8,4.1
			C2330.7,499.9,2327.8,501,2325,501.6z"/>
		<path class="st0" d="M288.9,528.2c0.2-4.5,7.2-9.1,10.6-7.1c0.9,0.5,2.1,2.4,1.8,2.9c-0.8,1.6-2.2,3.6-3.7,4
			C295,528.7,292.1,528.2,288.9,528.2z"/>
		<path class="st0" d="M182.6,371.6c-3.3,2.1-5.4,4.2-7.8,4.6c-1.5,0.2-3.4-2.2-5.1-3.4c2.3-1.8,4.4-4.1,6.9-5.1
			C177.7,367.3,179.8,369.7,182.6,371.6z"/>
		<path class="st0" d="M505.4,611.7c-1.8-3.4-3.5-5.6-3.9-8c-0.1-0.9,3.4-3.5,4.6-3.2c2.1,0.5,3.8,2.8,5.6,4.4
			C510,606.8,508.2,608.7,505.4,611.7z"/>
		<path class="st0" d="M276.7,399.7c1.5-4.6,2.7-7.5,6.6-6.4c1.7,0.5,4.1,2,4.2,3.3c0.2,1.7-1.5,5.1-2.4,5.1
			C282.4,401.8,279.6,400.5,276.7,399.7z"/>
		<path class="st0" d="M360.2,440c-2.3-2.4-4.9-4.2-4.6-5.1c0.7-2.1,2.6-3.9,4.1-5.8c1.7,1.7,4.2,3.1,4.9,5.1
			C365,435.3,362.3,437.4,360.2,440z"/>
		<path class="st0" d="M642.5,611c-1.2-0.9-3-1.9-4.3-3.3c-0.6-0.6-1-2.3-0.7-3c0.4-0.7,1.9-1.1,2.9-1.1c1.6,0,3.4,0.2,4.9,0.8
			c1.4,0.5,2.6,1.7,3.8,2.6c-1.3,1.1-2.5,2.3-3.9,3.3C644.7,610.7,644,610.7,642.5,611z"/>
		<path class="st0" d="M336.9,507c2.6-1.2,5-2.8,7.7-3.6c2-0.6,5-0.6,4.6,2.5c-0.2,1.6-2.4,4.1-3.9,4.2c-2.7,0.2-5.5-1-8.3-1.6
			C337,508,337,507.5,336.9,507z"/>
		<path class="st0" d="M623.6,332.9c-1,5.5-4,7.8-9.2,7.3C613,332.4,615.6,330.3,623.6,332.9z"/>
		<path class="st0" d="M169.6,618.5c-0.5-4-2.2-7.8,3.1-9.1c3.1-0.8,5,1.7,5,3.9C177.6,618.4,173,617.5,169.6,618.5z"/>
		<path class="st0" d="M317.8,399.9c4.9-4.9,5.7-5.1,8.8-0.5c0.7,1,0.2,4.4-0.7,4.8C322.1,405.9,319.1,404.6,317.8,399.9z"/>
		<path class="st0" d="M3186.5,609.4c-3.7-0.8-7.3-1.5-7.2-5.9c0-1,2.8-2.8,4.3-2.8C3186.4,600.6,3187.8,604.8,3186.5,609.4z"/>
		<path class="st0" d="M107.5,290.1c-1.9-2.7-3.9-4.2-3.8-5.6c0.1-1.7,1.8-3.4,2.9-5.1c1.5,1.9,3.3,3.7,4.4,5.9
			C111.2,285.9,109.4,287.5,107.5,290.1z"/>
		<path class="st0" d="M369.2,534.3c1.8-5,4.6-6,7.6-4c1,0.7,1,3,1.5,4.5C375.3,534.7,372.3,534.5,369.2,534.3z"/>
		<path class="st0" d="M34.1,373.7c-2,1.1-3.9,2.9-5.1,2.5c-1.6-0.6-3.4-2.7-3.7-4.3c-0.2-1.1,2.1-2.6,3.4-3.9
			C30.3,369.6,31.9,371.3,34.1,373.7z"/>
		<path class="st0" d="M149.8,505c2.3-7.4,4.7-8,12.2-2.9C157.4,503.2,154.1,504,149.8,505z"/>
		<path class="st0" d="M76.8,321.7c1.7,2.5,3.2,3.9,3.7,5.7c0.2,0.6-2.6,2.9-3.1,2.7c-1.6-0.9-3.1-2.4-4.1-4
			C73.1,325.6,75,323.9,76.8,321.7z"/>
		<path class="st0" d="M47.2,187.3c-3.8-0.7-5.8-1.1-9.7-1.8c2.8-2.7,4.6-4.5,6.5-6.3C44.9,181.6,45.9,183.9,47.2,187.3z"/>
		<path class="st0" d="M588.5,347.9c3.8-1.4,6.6-2.1,6.9,1.8c0.1,1.3-1.8,2.8-2.7,4.2C591.4,352,590,350,588.5,347.9z"/>
		<path class="st0" d="M59.7,249c-4.5-3-5.8-5.3-3.3-7.9c0.5-0.5,4.1,0.6,4.3,1.4C61.1,244.2,60.2,246.2,59.7,249z"/>
	</g>
</g>
</svg>
