<?xml version="1.0" encoding="utf-8"?>
<!-- Generator: Adobe Illustrator 27.0.0, SVG Export Plug-In . SVG Version: 6.00 Build 0)  -->
<svg version="1.1" id="Layer_1" xmlns="http://www.w3.org/2000/svg" xmlns:xlink="http://www.w3.org/1999/xlink" x="0px" y="0px"
	 viewBox="0 0 79.7 79.8" style="enable-background:new 0 0 79.7 79.8;" xml:space="preserve">
<style type="text/css">
	.st0{fill:#5B3023;}
	.st1{fill:#FFFFFF;}
</style>
<g>
	<path class="st0" d="M75.5,64.2c0.1-10.6-0.6-21.1-2.1-31.6c-0.1-0.8-0.8-1-1.4-0.8c-0.6-1.2-1.7-2.4-2.3-3.2
		c-1.5-1.9-3.1-3.6-5.1-5c0.2-2.5,0.3-5.3-0.5-6.9c-1.1-2.5-1.5-2.2-4.6-2.3c-3.5-0.1-6.9-0.2-10.4-0.4c-1.9-3.5-5.4-6.4-8.5-8.9
		c-0.5-0.4-1.1-0.4-1.6,0c-3.3,3-7.4,5.2-10.9,8c-0.1,0.1-0.1,0.2-0.2,0.3c-4.1-0.1-8.1-0.1-12.2,0c-0.4,0-0.6,0.2-0.8,0.4
		c-0.3,0.1-0.6,0.4-0.6,0.9c-0.1,2.8-0.1,5.7,0,8.5c-0.1,0-0.3,0.1-0.4,0.1c-2,1.3-3.8,3-5.5,4.8c-0.7,0.8-2.5,2.2-2.9,3.6
		c-0.5,0-1,0.3-1,1c0.6,13.4,0.7,26.6,0.3,39.7c-0.3,0.4-0.5,0.8-0.7,1.3c-0.3,0.6,0.5,1.5,1.1,0.8c0.1-0.2,0.3-0.3,0.4-0.5
		c0.1,0.1,0.3,0.1,0.4,0.1c11.1-0.4,22.3-0.5,33.4-0.2c4.8,0.1,9.5,0.4,14.3,0.6c5.3,0.3,11.3,1.6,16.7,1.3
		C76.7,75.5,75.4,69.5,75.5,64.2z M64.5,26.1c0.8,0.9,1.6,1.8,2.4,2.7c0.6,0.7,1.1,1.5,1.7,2.2c0.3,0.4,0.6,0.9,0.8,1.3
		c0.1,0.2,0.2,0.4,0.3,0.5c0.1,0.2,0.2,0.3,0.3,0.4c-2,0.6-3.7,1.7-5.3,3c0-3-0.1-5.9-0.2-8.9V26.1z M39.7,7.4
		C42,9.5,44,11.9,46.3,14c-5.4-0.2-10.7-0.4-16.1-0.4C33.5,11.7,36.5,9.3,39.7,7.4z M16.8,31.2c-0.1-5.3-0.2-10.5-0.6-15.8
		c10.9,0.8,21.7,0.9,32.4,1.1c2.7,0.1,5.9-0.3,8.5,0.2c3.5,0.8,3.9,0.9,4.7,4.7c1.1,5.1,0.3,11.6,0.5,16.8v0.1
		c-0.4,0.3-0.7,0.7-1.1,1c-3.5,3.3-6.9,6.6-10.4,9.9c-1-0.8-2-1.4-3.1-1.8c0.4-0.6,0.1-1.8-0.8-1.7c-3.2,0.2-6.3,0.8-9.5,0.9
		c-2.3,0.1-4.7-0.4-6.8,0.6c0,0-0.1,0-0.1,0.1c-0.1,0-0.1,0-0.2,0.1c-0.1,0-0.1,0.1-0.1,0.2c-0.7,0.7-1.4,1.5-2.1,2.2
		c-5.1-1.9-7.9-5.3-11.5-9.2c-0.1-0.1-0.3-0.3-0.4-0.4l0.1-0.1C18,38.2,16.9,33.5,16.8,31.2z M9.9,30c1.4-1.4,2.9-2.7,4.5-3.9v1.5
		c0,1.8,0.1,3.6,0.1,5.5c0,1.2,0.1,2.4,0.1,3.6c-0.2,0.7-0.3,1.2-0.1,1.5c-0.1,0-0.1,0.1-0.1,0.2c-2.3-2-4.9-3.8-7.5-5.4
		C8.1,32.4,9.1,30.8,9.9,30z M7.4,51.7c-0.1-5.3-0.2-10.6-0.5-16c4.1,3,7.6,6.2,11,10c2.4,2.7,5.2,4.6,8.5,5.9
		c-3.2,3.5-6.5,7-9.8,10.3c-2.8,2.8-6.7,4.9-9.5,7.7c0-0.4,0.1-0.9,0.3-1.5C6.6,63.1,7.5,57,7.4,51.7z M56.1,72.3
		c-6-0.4-11.9-0.7-17.9-0.8c-6-0.1-11.9-0.2-17.9-0.1c-2.4,0-4.8,0.1-7.2,0.1c-1.6,0-3.2,0.1-4.8,0.1c-0.1,0-0.2-0.1-0.2-0.2
		c3.6-3.2,7.9-5.8,11.3-9.3c2.4-2.4,4.7-4.9,7.1-7.4c1.7-1.8,4.3-3.7,5.4-5.9c0-0.1,0-0.1,0-0.2c1.9,0.6,4.2,0.3,6.2,0.2
		c2.9-0.1,5.8-0.3,8.6-0.9c1.3,3.1,4.4,5.2,6.6,7.8c2.6,3,5,6.2,7.5,9.3c1,1.2,4.3,6,7.4,8.4C64.2,73.7,58.7,72.5,56.1,72.3z
		 M72.8,71.5c-0.2,0.4-0.5,0.6-0.8,0.9c-0.3-0.1-0.6-0.1-0.8,0c-0.1,0-0.1,0.1-0.2,0.1c-0.1,0.1-0.2,0.2-0.2,0.2
		c-1.1-1.6-3.4-4.1-3.6-4.3c-1-1-1.9-2.1-2.8-3.2c-2-2.4-4-4.8-5.9-7.3c-1.6-2-3.5-4.8-5.6-7.1c5.8-5.7,11.3-11.5,17.9-16.3
		c0.1,0,0.1,0.1,0.1,0.1c0.1,0,0.1,0,0.2,0.1h0.3c0.9,6.6,1.5,13.1,1.7,19.7c0.1,2.4,0.1,4.8,0.1,7.2C73.1,64,73.9,69.6,72.8,71.5z"
		/>
	<path class="st1" d="M70,33.2c-2,0.6-3.7,1.7-5.3,3c0-3-0.1-5.9-0.2-8.9v-1.2c0.8,0.9,1.6,1.8,2.4,2.7c0.6,0.7,1.1,1.5,1.7,2.2
		c0.3,0.4,0.6,0.9,0.8,1.3c0.1,0.2,0.2,0.4,0.3,0.5C69.8,33,69.9,33.1,70,33.2z"/>
	<path class="st1" d="M14.5,38.2c-0.1,0-0.1,0.1-0.1,0.2c-2.3-2-4.9-3.8-7.5-5.4c1.2-0.6,2.2-2.2,3-3c1.4-1.4,2.9-2.7,4.5-3.9v1.5
		c0,1.8,0.1,3.6,0.1,5.5c0,1.2,0.1,2.4,0.1,3.6C14.4,37.4,14.3,37.9,14.5,38.2z"/>
	<path class="st1" d="M46.3,14c-5.4-0.2-10.7-0.4-16.1-0.4c3.3-1.9,6.3-4.3,9.5-6.2C42,9.5,44,11.9,46.3,14z"/>
	<path class="st1" d="M26.4,51.6c-3.2,3.5-6.5,7-9.8,10.3c-2.8,2.8-6.7,4.9-9.5,7.7c0-0.4,0.1-0.9,0.3-1.5c-0.8-5,0.1-11.1,0-16.4
		c-0.1-5.3-0.2-10.6-0.5-16c4.1,3,7.6,6.2,11,10C20.3,48.4,23.1,50.3,26.4,51.6z"/>
	<path class="st1" d="M61.8,21.4c-0.8-3.8-1.2-3.9-4.7-4.7c-2.6-0.5-5.8-0.1-8.5-0.2c-10.7-0.2-21.5-0.3-32.4-1.1
		c0.4,5.3,0.5,10.5,0.6,15.8c0.1,2.3,1.2,7-0.5,8.9l-0.1,0.1c0.1,0.1,0.3,0.3,0.4,0.4c3.6,3.9,6.4,7.3,11.5,9.2
		c0.7-0.7,1.4-1.5,2.1-2.2c0-0.1,0-0.2,0.1-0.2c0.1-0.1,0.1-0.1,0.2-0.1c0-0.1,0.1-0.1,0.1-0.1c2.1-1,4.5-0.5,6.8-0.6
		c3.2-0.1,6.3-0.7,9.5-0.9c0.9-0.1,1.2,1.1,0.8,1.7c1.1,0.4,2.1,1,3.1,1.8c3.5-3.3,6.9-6.6,10.4-9.9c0.4-0.3,0.7-0.7,1.1-1v-0.1
		C62.1,33,62.9,26.5,61.8,21.4z M42.9,37.5c-0.6-0.2-0.8-0.6-0.9-1.2c0-0.2-0.1-0.5-0.1-0.8c-2.6,1.8-6.5,1.5-8.1-2.2
		c-1-2.3-0.4-5,1.8-6.3c2.1-1.3,4.5-1.1,6,0.9c0.1,0.1,0,0.2-0.1,0.2c-2.7-1.2-7.1,0.7-6,4.2c1,3.1,4.5,3.2,6.2,1.2
		c-0.3-2.4-0.4-4.9,0.6-7.1c0.3-0.5,1.1-0.3,1.3,0.2c0.5,1.3,0.6,2.6,0.7,4c0.2,0.2,0.3,0.4,0.3,0.7c0,0.4-0.1,0.8-0.2,1.1
		c0,1,0,2.1,0.1,3.1c3.2,0.5,3.2-4.7,2.8-6.4c-0.4-1.8-1.4-3.5-2.8-4.7c-2.8-2.4-7-2.4-10-0.4c-3.4,2.3-5.3,8.1-3.3,11.9
		c2.1,3.9,7,5.1,11,4.1c1.6-0.3,2.2,2,0.7,2.4c-5.9,1.4-13.3-1.2-14.8-7.8c-1.2-6,2.3-12.5,8.2-14.2c5.7-1.7,11.4,1.8,13.1,7.4
		C50.6,32,48.7,39.8,42.9,37.5z"/>
	<path class="st1" d="M72.8,71.5c-0.2,0.4-0.5,0.6-0.8,0.9c-0.3-0.1-0.6-0.1-0.8,0c-0.1,0-0.1,0.1-0.2,0.1c-0.1,0.1-0.2,0.2-0.2,0.2
		c-1.1-1.6-3.4-4.1-3.6-4.3c-1-1-1.9-2.1-2.8-3.2c-2-2.4-4-4.8-5.9-7.3c-1.6-2-3.5-4.8-5.6-7.1c5.8-5.7,11.3-11.5,17.9-16.3
		c0.1,0,0.1,0.1,0.1,0.1c0.1,0,0.1,0,0.2,0.1h0.3c0.9,6.6,1.5,13.1,1.7,19.7c0.1,2.4,0.1,4.8,0.1,7.2C73.1,64,73.9,69.6,72.8,71.5z"
		/>
	<path class="st1" d="M68.2,73.4c-4,0.3-9.5-0.9-12.1-1.1c-6-0.4-11.9-0.7-17.9-0.8c-6-0.1-11.9-0.2-17.9-0.1
		c-2.4,0-4.8,0.1-7.2,0.1c-1.6,0-3.2,0.1-4.8,0.1c-0.1,0-0.2-0.1-0.2-0.2c3.6-3.2,7.9-5.8,11.3-9.3c2.4-2.4,4.7-4.9,7.1-7.4
		c1.7-1.8,4.3-3.7,5.4-5.9c0-0.1,0-0.1,0-0.2c1.9,0.6,4.2,0.3,6.2,0.2c2.9-0.1,5.8-0.3,8.6-0.9c1.3,3.1,4.4,5.2,6.6,7.8
		c2.6,3,5,6.2,7.5,9.3C61.8,66.2,65.1,71,68.2,73.4z"/>
	<path class="st0" d="M42.9,37.5c-0.6-0.2-0.8-0.6-0.9-1.2c0-0.2-0.1-0.5-0.1-0.8c-2.6,1.8-6.5,1.5-8.1-2.2c-1-2.3-0.4-5,1.8-6.3
		c2.1-1.3,4.5-1.1,6,0.9c0.1,0.1,0,0.2-0.1,0.2c-2.7-1.2-7.1,0.7-6,4.2c1,3.1,4.5,3.2,6.2,1.2c-0.3-2.4-0.4-4.9,0.6-7.1
		c0.3-0.5,1.1-0.3,1.3,0.2c0.5,1.3,0.6,2.6,0.7,4c0.2,0.2,0.3,0.4,0.3,0.7c0,0.4-0.1,0.8-0.2,1.1c0,1,0,2.1,0.1,3.1
		c3.2,0.5,3.2-4.7,2.8-6.4c-0.4-1.8-1.4-3.5-2.8-4.7c-2.8-2.4-7-2.4-10-0.4c-3.4,2.3-5.3,8.1-3.3,11.9c2.1,3.9,7,5.1,11,4.1
		c1.6-0.3,2.2,2,0.7,2.4c-5.9,1.4-13.3-1.2-14.8-7.8c-1.2-6,2.3-12.5,8.2-14.2c5.7-1.7,11.4,1.8,13.1,7.4
		C50.6,32,48.7,39.8,42.9,37.5z"/>
</g>
</svg>
