<?xml version="1.0" encoding="utf-8"?>
<!-- Generator: Adobe Illustrator 27.0.0, SVG Export Plug-In . SVG Version: 6.00 Build 0)  -->
<svg version="1.1" id="Layer_1" xmlns="http://www.w3.org/2000/svg" xmlns:xlink="http://www.w3.org/1999/xlink" x="0px" y="0px"
	 viewBox="0 0 222 96" style="enable-background:new 0 0 222 96;" xml:space="preserve">
<g>
	<path d="M48.93,52.96c-0.99,0.44-1.8,0.81-2.61,1.17c-0.12,0.05-0.25,0.14-0.36,0.12c-0.34-0.06-0.68-0.16-1.02-0.25
		c0.14-0.28,0.25-0.58,0.45-0.81c0.17-0.2,0.45-0.31,0.68-0.47c1.56-1.09,3.13-2.17,4.68-3.28c0.2-0.14,0.33-0.4,0.46-0.62
		c1.89-3.2,3.68-6.48,5.7-9.6c2.57-3.99,5.45-7.77,8.96-11.01c1.39-1.28,2.84-2.5,4.64-3.21c0.54-0.21,1.13-0.38,1.71-0.42
		c1.36-0.09,2.21,0.67,2.37,2.02c0.16,1.32-0.19,2.54-0.72,3.72c-1.05,2.38-2.73,4.3-4.48,6.18c-2.73,2.94-5.8,5.51-8.84,8.11
		c-1.96,1.67-3.93,3.33-5.87,5.02c-0.45,0.39-0.88,0.86-1.18,1.38c-2.57,4.45-4.87,9.03-6.77,13.8c-0.4,0.99-0.75,2-1.12,3
		c0.05,0.03,0.09,0.06,0.14,0.09c0.36-0.43,0.7-0.87,1.07-1.29c1.56-1.8,3.12-3.62,4.71-5.4c0.39-0.44,0.9-0.77,1.35-1.15
		c0.74-0.63,1.62-0.67,2.52-0.56c0.53,0.06,0.93,0.33,1.04,0.86c0.16,0.83,0.3,1.66,0.4,2.5c0.06,0.53,0.04,1.07,0.05,1.61
		c0,0.81,0.47,1.23,1.17,1.5c1.41,0.53,2.77,0.35,4.09-0.29c1.61-0.77,2.91-1.95,4.26-3.09c0.98-0.84,2.03-1.6,3.03-2.42
		c0.13-0.1,0.2-0.29,0.25-0.46c0.47-1.56,1.14-3.02,2.24-4.24c0.84-0.94,1.86-1.49,3.15-1.55c0.32-0.01,0.66-0.22,0.95-0.4
		c0.6-0.37,0.79-0.37,1.29,0.14c1.32,1.35,2.97,1.9,4.82,1.93c1.84,0.04,3.59-0.5,5.35-0.91c0.78-0.18,1.5-0.44,2.21-0.85
		c1.79-1.04,3.71-1.06,5.64-0.45c0.91,0.29,1.45,0.95,1.57,1.91c0.11,0.91-0.22,1.63-1.06,2.09c-0.26,0.14-0.46,0.37-0.72,0.5
		c-0.26,0.13-0.43,0.03-0.38-0.3c0.04-0.29,0.08-0.58,0.09-0.87c0.03-0.76-0.28-1.09-1.06-1.09c-1.53,0-2.78,0.7-3.92,1.64
		c-2,1.66-3.28,3.75-3.64,6.35c-0.15,1.1,0.44,1.84,1.55,2.03c1.33,0.23,2.62,0.05,3.89-0.37c5.46-1.8,10.48-4.48,15.33-7.52
		c0.23-0.15,0.42-0.41,0.56-0.66c0.59-1,1.23-1.97,2.27-2.53c0.59-0.31,1.29-0.41,1.93-0.62c0.36-0.12,0.74-0.23,1.06-0.42
		c0.6-0.36,0.78-0.38,1.25,0.11c1.27,1.32,2.85,1.89,4.64,1.96c1.71,0.07,3.35-0.31,4.97-0.79c0.2-0.06,0.37-0.33,0.47-0.55
		c1.25-2.79,2.39-5.63,3.75-8.36c4.06-8.15,9.48-15.29,16.29-21.35c1.36-1.21,2.9-2.13,4.78-2.3c2.21-0.2,3.44,1.28,2.84,3.43
		c-0.57,2.04-1.38,3.99-2.45,5.82c-2.61,4.48-5.84,8.49-9.47,12.17c-3.21,3.26-6.56,6.38-9.87,9.54c-0.53,0.51-1.21,0.87-1.73,1.39
		c-0.49,0.49-1,1.04-1.25,1.66c-1.22,3.02-1.86,6.17-1.63,9.44c0.08,1.12,0.32,2.2,1.04,3.12c0.43,0.56,0.99,0.86,1.7,0.93
		c1.81,0.19,3.38-0.47,4.9-1.33c2.35-1.34,4.39-3.1,6.33-4.96c0.84-0.8,1.61-1.68,2.43-2.55c0.02,0.03-0.01-0.02-0.04-0.07
		c-0.19-0.28-0.38-0.56-0.57-0.84c0.29-0.2,0.59-0.55,0.88-0.56c1.25-0.02,1.7-0.83,2.16-1.82c0.96-2.09,2.36-3.85,4.34-5.09
		c0.97-0.61,1.98-0.53,2.82,0.2c0.18,0.15,0.33,0.41,0.38,0.64c0.28,1.34-0.17,2.48-1.01,3.5c-1.02,1.24-2.29,2.15-3.74,2.82
		c-0.57,0.27-0.97,0.61-1.17,1.29c-0.47,1.67,0.29,2.54,1.96,2.69c1.81,0.16,3.47-0.47,5.09-1.18c3.68-1.61,6.95-3.88,10.11-6.32
		c0.19-0.15,0.33-0.4,0.42-0.63c2.97-7.86,6.76-15.27,11.98-21.9c2.74-3.47,5.72-6.72,9.11-9.56c1.13-0.95,2.44-1.6,3.93-1.84
		c2.38-0.39,3.79,1.16,3.13,3.47c-0.66,2.31-1.63,4.49-2.89,6.54c-3.01,4.87-6.7,9.19-10.76,13.2c-2.65,2.62-5.38,5.15-8.1,7.7
		c-0.54,0.51-1.21,0.87-1.73,1.39c-0.5,0.5-1.02,1.07-1.28,1.7c-1.21,3.02-1.86,6.17-1.61,9.44c0.08,1.12,0.33,2.2,1.05,3.11
		c0.42,0.54,0.97,0.84,1.65,0.91c1.83,0.2,3.42-0.46,4.95-1.34c2.2-1.26,4.12-2.89,5.97-4.62c0.92-0.86,1.82-1.74,2.71-2.63
		c0.96-0.95,1.8-1.98,2.51-3.16c1.94-3.23,4.7-5.5,8.37-6.55c1.55-0.44,3.08-0.4,4.51,0.46c1.41,0.84,1.41,2.81,0.01,3.68
		c-0.31,0.2-0.47,0.14-0.52-0.23c-0.04-0.31-0.1-0.62-0.15-0.93c-0.13-0.95-0.79-1.53-1.76-1.41c-0.56,0.07-1.12,0.25-1.63,0.49
		c-2.19,1.01-3.93,2.59-5.33,4.51c-0.74,1.01-1.42,2.09-1.92,3.23c-0.31,0.7-0.22,1.58-0.3,2.38c-0.03,0.33,0.18,0.5,0.47,0.48
		c0.36-0.02,0.77-0.03,1.06-0.21c2.64-1.69,4.91-3.76,6.59-6.43c0.53-0.85,1.15-1.11,1.66-0.8c0.6,0.36,0.74,1.22,0.41,2.05
		c-0.37,0.93-0.72,1.87-0.97,2.83c-0.13,0.49-0.1,1.07,0.02,1.57c0.23,0.96,0.75,1.32,1.76,1.37c0.96,0.05,1.86-0.2,2.74-0.59
		c2.49-1.08,4.54-2.77,6.48-4.62c1.27-1.21,2.54-2.44,3.8-3.66c0.09-0.09,0.18-0.22,0.29-0.25c0.18-0.05,0.38-0.03,0.57-0.03
		c0,0.19,0.01,0.37,0.01,0.56c0,0.05-0.05,0.1-0.09,0.14c-2.88,3.47-6.08,6.6-10.09,8.78c-1.39,0.75-2.87,1.14-4.48,1.07
		c-2.4-0.1-3.31-1.58-3.57-3.51c-0.06-0.47-0.01-0.95-0.01-1.57c-0.47,0.5-0.82,0.9-1.18,1.27c-1.52,1.55-3.24,2.83-5.29,3.58
		c-0.5,0.18-1.09,0.22-1.63,0.19c-1.03-0.06-1.69-0.78-1.76-1.81c-0.03-0.4,0-0.81,0-1.34c-0.2,0.18-0.32,0.29-0.45,0.41
		c-1.95,1.77-3.85,3.59-5.86,5.28c-1.6,1.34-3.43,2.35-5.48,2.84c-1.56,0.38-3.13,0.47-4.62-0.27c-0.44-0.22-0.88-0.51-1.21-0.87
		c-1.27-1.42-2.03-3.06-2.19-4.99c-0.18-2.22-0.05-4.41,0.36-6.58c0.02-0.12,0.03-0.25,0.05-0.49c-0.63,0.48-1.19,0.9-1.75,1.31
		c-3.05,2.26-6.23,4.31-9.89,5.43c-1.3,0.4-2.67,0.64-4.02,0.74c-2.3,0.16-3.75-1.15-4.05-3.55c-0.22,0.22-0.39,0.39-0.57,0.56
		c-2.14,1.96-4.24,3.99-6.45,5.87c-1.59,1.35-3.43,2.35-5.48,2.84c-1.56,0.38-3.13,0.47-4.62-0.27c-0.45-0.23-0.91-0.53-1.24-0.91
		c-1.24-1.41-2-3.04-2.15-4.95c-0.24-2.94,0.06-5.81,0.86-8.63c0.04-0.12,0.05-0.25,0.08-0.44c-2.95,0.5-5.88,1.13-8.79,0.02
		c-0.05,0.7-0.03,1.5-0.16,2.27c-0.44,2.49-2.07,4.07-4.2,5.21c-0.74,0.4-1.59,0.36-2.39,0.16c-0.67-0.16-1.14-0.63-1.28-1.27
		c-0.19-0.85-0.24-1.74-0.35-2.63c0,0-0.13,0.04-0.24,0.11c-2.68,1.47-5.33,2.99-8.04,4.41c-2.28,1.2-4.66,2.19-7.18,2.81
		c-1.66,0.41-3.33,0.55-4.97-0.12c-1.8-0.74-2.7-2.34-2.45-4.27c0.3-2.35,1.22-4.41,2.82-6.16c0.13-0.14,0.25-0.29,0.39-0.45
		c-1.52,0.17-2.98,0.41-4.45,0.49c-1.45,0.08-2.93,0.15-4.33-0.71c0,0.28-0.01,0.51,0,0.74c0.2,2.94-1.31,4.95-3.59,6.53
		c-0.69,0.48-1.47,0.68-2.31,0.64c-1.25-0.05-1.95-0.62-2.24-1.83c-0.05-0.19-0.09-0.38-0.13-0.56c-0.79,0.84-1.5,1.73-2.34,2.47
		c-2.13,1.9-4.53,3.34-7.37,3.91c-1.47,0.29-2.92,0.24-4.3-0.42c-0.85-0.41-1.36-1.1-1.44-2.03c-0.06-0.74-0.06-1.48-0.05-2.22
		c0.01-0.68,0.07-1.36,0.12-2.17c-0.27,0.12-0.45,0.19-0.61,0.28c-1.59,0.85-2.79,2.15-3.91,3.5c-1.36,1.64-2.62,3.36-3.94,5.03
		c-0.29,0.38-0.57,0.82-0.96,1.05c-0.29,0.18-0.77,0.13-1.14,0.06c-0.45-0.08-0.69-0.46-0.7-0.89c-0.01-0.57-0.05-1.17,0.11-1.71
		c0.81-2.69,1.67-5.37,2.52-8.05c0.05-0.15,0.1-0.31,0.05-0.54c-0.91,0.93-1.8,1.89-2.75,2.79c-3.89,3.66-8.15,6.84-12.77,9.51
		c-2.95,1.7-6.13,2.6-9.61,2.46c-4.98-0.21-7.48-3.15-8.26-7.6c-0.46-2.62,0.03-5.2,0.6-7.76c1.84-8.32,6.22-15.27,11.63-21.67
		c3.13-3.7,6.46-7.21,10.34-10.14c3.02-2.28,6.27-4.16,9.9-5.29c1.38-0.43,2.8-0.56,4.23-0.39c2.35,0.28,3.71,1.83,3.76,4.31
		c0.04,1.83-0.57,3.49-1.43,5.08c-1.68,3.12-3.9,5.83-6.49,8.21c-2.78,2.55-5.93,4.54-9.63,5.57c-0.89,0.25-1.7,0.39-2.47-0.23
		c-0.14-0.11-0.32-0.4-0.28-0.44c0.14-0.16,0.39-0.39,0.53-0.36c1.05,0.28,1.97-0.04,2.89-0.47c4.69-2.18,8.64-5.29,11.82-9.37
		c1.43-1.84,2.49-3.86,2.75-6.22c0.04-0.35,0.08-0.7,0.07-1.05c-0.03-1.85-1.07-2.8-2.92-2.66c-1.69,0.13-3.26,0.67-4.75,1.44
		c-4.05,2.1-7.48,5-10.57,8.31c-3.97,4.23-7.6,8.72-10.37,13.84c-1.36,2.51-2.74,5.03-3.76,7.68c-1.41,3.66-2.3,7.47-1.98,11.46
		c0.1,1.28,0.46,2.47,1.07,3.59c0.81,1.48,2.21,2.02,3.77,2.23c1.98,0.27,3.92-0.06,5.69-0.9c5.45-2.59,10.56-5.73,14.95-9.92
		c2.02-1.93,3.95-3.97,5.82-6.05C48.03,54.94,48.37,53.95,48.93,52.96z M167.84,53.11c0.07,0.04,0.14,0.09,0.21,0.13
		c0.47-0.46,0.92-0.94,1.4-1.39c4.98-4.65,9.55-9.67,13.87-14.94c2.53-3.09,4.63-6.43,5.77-10.3c0.13-0.46,0.32-0.9,0.41-1.37
		c0.09-0.48-0.16-0.76-0.63-0.64c-0.59,0.15-1.23,0.36-1.7,0.73c-0.99,0.77-1.9,1.64-2.81,2.51c-3.09,2.94-5.65,6.31-8.07,9.81
		c-2.83,4.08-5.16,8.43-7.26,12.92C168.63,51.41,168.23,52.26,167.84,53.11z M128.03,53.09c0.06,0.05,0.11,0.09,0.17,0.14
		c0.15-0.12,0.31-0.23,0.44-0.37c0.33-0.32,0.64-0.67,0.98-0.99c4.66-4.33,8.93-9.03,13.03-13.9c2.34-2.78,4.46-5.69,5.83-9.08
		c0.48-1.18,0.85-2.4,1.2-3.62c0.14-0.5-0.14-0.8-0.64-0.67c-0.59,0.15-1.22,0.38-1.7,0.75c-0.99,0.77-1.9,1.65-2.81,2.51
		c-3.32,3.14-6.02,6.79-8.57,10.55c-2.42,3.56-4.46,7.34-6.31,11.23C129.11,50.79,128.57,51.94,128.03,53.09z M56.44,45.66
		c0.18-0.06,0.22-0.06,0.25-0.08c0.38-0.32,0.76-0.65,1.15-0.97c3.87-3.27,7.62-6.65,11-10.43c1.26-1.41,2.55-2.81,3.21-4.62
		c0.23-0.63,0.37-1.32,0.41-1.99c0.04-0.59-0.31-0.87-0.89-0.77c-0.52,0.09-1.09,0.21-1.5,0.5c-0.84,0.6-1.66,1.26-2.36,2.01
		c-4.03,4.36-7.4,9.2-10.24,14.41C57.13,44.32,56.82,44.94,56.44,45.66z M76.25,57.16c-0.17-0.29-0.29-0.78-0.59-0.94
		c-0.44-0.23-0.75,0.24-1.03,0.56c-0.06,0.07-0.1,0.15-0.16,0.22c-0.89,1.1-1.48,2.34-1.77,3.72c-0.05,0.25-0.12,0.67,0.01,0.75
		c0.19,0.14,0.54,0.09,0.82,0.07c0.15-0.01,0.33-0.09,0.45-0.2C75.22,60.28,75.86,58.88,76.25,57.16z M112.94,57.29
		c-0.01-0.13-0.02-0.26-0.04-0.39c-0.14-0.79-0.59-0.97-1.19-0.44c-0.19,0.17-0.34,0.39-0.5,0.59c-0.86,1.07-1.44,2.28-1.71,3.63
		c-0.05,0.27-0.13,0.73-0.01,0.8c0.22,0.14,0.58,0.07,0.88,0.05c0.14-0.01,0.29-0.09,0.4-0.18C112,60.28,112.63,58.87,112.94,57.29z
		 M146.7,58.44c1.23-0.86,2.36-1.83,3.03-3.2c0.1-0.21,0.11-0.46,0.16-0.7c-0.07-0.04-0.15-0.08-0.22-0.11
		C148.34,55.49,147.64,57.05,146.7,58.44z"/>
	<path d="M156.39,43.42c-0.06,0.14-0.13,0.48-0.33,0.69c-1.1,1.22-2.23,2.42-3.36,3.62c-0.09,0.09-0.2,0.19-0.32,0.21
		c-0.19,0.04-0.5,0.1-0.58,0c-0.13-0.15-0.22-0.49-0.13-0.64c0.87-1.46,1.75-2.92,2.68-4.33c0.19-0.29,0.59-0.52,0.94-0.62
		C155.91,42.17,156.39,42.61,156.39,43.42z"/>
</g>
</svg>
