<?xml version="1.0" encoding="utf-8"?>
<!-- Generator: Adobe Illustrator 27.0.0, SVG Export Plug-In . SVG Version: 6.00 Build 0)  -->
<svg version="1.1" id="Layer_1" xmlns="http://www.w3.org/2000/svg" xmlns:xlink="http://www.w3.org/1999/xlink" x="0px" y="0px"
	 viewBox="0 0 1277.2 2067.5" style="enable-background:new 0 0 1277.2 2067.5;" xml:space="preserve">
<style type="text/css">
	.st0{fill:#C49D9A;}
	.st1{fill:#FFFFFF;}
	.st2{fill:#BD9D9A;}
</style>
<g id="GDIjXl.tif">
	<g>
		<path class="st2" d="M1237.3,352.8c-6.9-4.1-13.8-8.6-21.3-11.3c-11.9-4.3-24.3-7.2-36.5-10.8c-2.4-0.7-4.8-1.8-6.8-3.3
			c-2.5-1.9-4.7-4.3-7-6.5c6.3-11.7,21.1-15.9,27.7-28.5c-4.6-2.7-7.6-1.2-10.5,0.8c-10.5,7.2-21.4,13.9-28.5,25
			c-2,3.1-5,4.7-8.7,4.8c-7.4,0.2-14.8,0.3-24.5,0.5c4-3.3,6.3-5.2,8.7-7.2c9.5-8,19.1-15.9,28.3-24.2c2.8-2.5,6.4-5,5.1-10.6
			c-1.6,0.4-3.1,0.4-4.1,1.1c-4.3,2.9-8.5,6-12.7,9.1c-10.6,7.9-21.2,16-31.9,23.9c-4.3,3.2-10.6,3.8-12.6,9.9
			c-0.2,0.6-1.4,1-2.2,1.2c-8.2,1.6-16.4,3.1-25.9,4.9c4.3-4.7,7.3-8.7,11-11.9c13-11.4,26.2-22.6,39.2-33.9c2.6-2.2,5.3-4.5,4-9.7
			c-2.6,1.1-5.1,1.6-7.1,2.9c-4.3,2.8-8.6,5.8-12.6,9.1c-9.9,8-19.4,16.5-29.4,24.2c-6.7,5.2-12.7,10.8-17.3,17.9
			c-1.4,2.1-3.1,4.8-5.2,5.5c-6.9,2.3-14.1,3.7-23.1,5.9c2.3-3.8,3.2-6,4.7-7.5c9.3-9.4,18.4-19.2,28.4-27.9
			c8.7-7.5,18.6-13.7,27.9-20.6c2.1-1.6,5.4-2.8,4.1-7.8c-2.6,0.5-5.5,0.5-7.8,1.6c-4.1,2-8,4.6-11.9,7.1c-11,7-21,15.1-30.5,24.1
			c-10.7,10.1-21.3,20-29.4,32.4c-1,1.6-2.8,3.2-4.5,3.6c-4.8,1.3-9.7,2-16.7,3.3c2.6-4.6,3.7-7.6,5.6-9.9
			c8.4-9.9,16.7-19.9,25.8-29.1c9.2-9.2,19.4-17.3,29.2-25.9c2.8-2.4,6.2-4.4,4.6-9.6c-1.5,0.2-3.1,0-4.1,0.7
			c-6.5,4.2-13.5,8-19.2,13.2c-10.9,9.9-21.4,20.3-31.3,31.2c-9.1,9.9-20,18.5-25.5,31.4c-0.7,1.6-2.6,3.3-4.4,3.8
			c-4.2,1.3-8.6,2-14.3,3.3c8.8-14.6,16.9-27.6,27.3-38.8c4.5-4.8,9.4-9.4,14.1-14.1c2.1-2.1,5.2-3.8,3.3-8.7c-2.8,1-5.8,1.3-8,2.8
			c-11.6,8.3-21.3,18.7-29.6,30c-7,9.5-12.8,19.9-19.2,29.8c-1,1.6-2.5,3.4-4.2,3.9c-5.7,1.9-11.5,3.4-18.3,5.3
			c6.1-12.3,11.7-23.6,20.3-33c7.8-8.5,15.6-17,23.5-25.5c2.5-2.7,5.8-4.9,5-10c-7.1,0.8-12.3,4.9-17,9.3
			c-12.4,11.4-22.7,24.6-32.3,38.4c-4.3,6.2-9.3,12.2-11.7,19.1c-2.7,7.7-8.3,9.2-16.3,12.4c2.5-5,4.1-8.2,5.7-11.4
			c10.3-20.9,24.3-39.2,40.3-56c2.6-2.7,5.3-5.4,7.5-8.4c0.8-1,0.3-3,0.4-4.6c-1.6,0.1-3.6-0.3-4.6,0.5c-4.8,3.6-9.9,7.2-13.9,11.5
			c-17.3,18.5-30.7,39.8-43,61.7c-5.3,9.4-11.5,17.1-22.8,19.3c0-0.6-0.1-1.2,0-1.7c10.3-25.5,25.5-47.8,44.3-67.7
			c1.2-1.3,2.8-2.2,3.6-3.7c0.7-1.3,1-3.3,0.5-4.6c-0.3-0.8-2.6-1.4-3.7-1.2c-1.9,0.5-3.9,1.4-5.3,2.7c-3.4,3.1-6.8,6.3-9.8,9.8
			c-9.2,11.1-18.2,22.5-24.9,35.4c-7,13.5-17.6,25.1-21.3,39.8c-3.7,1.8-7,3.4-11.6,5.7c1.3-4.5,1.9-7.9,3.3-10.9
			c5.7-12,11.3-24.1,17.5-35.8c8.1-15.1,17.4-29.3,32-39.2c1.1-0.8,2.3-3.4,1.9-4c-1.1-1.3-3.2-2.9-4.6-2.6
			c-2.4,0.4-4.9,1.9-6.8,3.5c-9.5,7.7-17.4,16.8-23.5,27.5c-6.1,10.7-12.7,21.3-18.1,32.4c-5.6,11.6-14,22-16,35.3
			c-0.2,1.5-1.6,3.1-2.9,4c-4.1,2.8-8.5,5.2-14.6,8.9c1.7-6.1,2.5-10.3,4-14.3c2.4-6.5,5-12.9,7.9-19.3c7.1-15.8,15.2-31.2,26-44.8
			c4.1-5.2,8.6-10.1,12.8-15.2c1.8-2.2,3.7-4.8,0.1-7.9c-7.4,3.4-12.9,9.2-17.8,15.6c-15.1,19.9-26.8,41.8-36.4,64.8
			c-3.3,8-6.4,16.1-8.9,24.3c-1.8,5.9-4.2,8.9-11,10c3.7-25.8,14.6-48.6,29.2-69.7c6.5-9.5,14.5-17.9,21.8-26.8
			c2-2.4,4.9-4.6,1.5-8.1c-5.2-0.1-8.7,2.8-11.6,6.5c-6.4,8.1-12.8,16.2-18.9,24.5c-2.4,3.3-4.9,4.3-8.7,2.2
			c4.7-5.3,9.6-10.2,13.7-15.8c4.9-6.7,10.8-13.4,13.1-21.1c3.1-10.1,9.3-17.5,15.8-25.1c7.3-8.5,15.1-16.7,22.4-25.2
			c1.7-2.1,3.4-5.3,3.1-7.7c-0.5-3.2,1.2-4.8,2.5-6.9c5.9-9.7,15.8-15.1,24.2-22.1c9.5-7.9,18.5-16.4,27.5-25
			c3-2.8,5.6-6.4,4.2-12.2c-5.3,1.8-7.9,5.7-10.8,9c-7.3,8.3-15,16-24.3,22c-11.9,7.7-23.5,15.8-35.6,23
			c-10.9,6.5-22.2,12.3-33.5,17.9c-4.9,2.4-10.4,3.9-16.9,2.6c3.8-5.7,6.9-10.4,10.2-15.4c8.1,4.1,13.7,1.2,19.2-3.3
			c5.6-4.6,11.8-8.4,17.6-12.7c14.2-10.5,28.2-21.1,42.4-31.5c4.1-3,8.6-5.8,13.1-8.1c16.8-8.4,33.7-16.5,50.5-24.8
			c3.2-1.6,5.9-4,9.4-6.3c-4.1-3.6-7.1-1.8-9.8-0.7c-4.8,2-9.3,4.5-14.1,6.7c-9.9,4.6-19.8,9.1-31.3,14.3c6.2-17,18.1-26.2,31.2-34
			c5.7-3.4,12.2-5.4,17.9-8.8c11.7-6.9,23.1-14.2,34.6-21.5c2.9-1.8,6.1-3.9,3.1-9.3c-2.1,0.8-4.6,1.3-6.6,2.6
			c-12,7.4-24,15-35.9,22.5c-5.2,3.3-10.6,5.8-15.4,2.9c-7,5.3-12.8,10.5-19.4,14.3c-10.5,6.1-21.5,11.2-32.3,16.6
			c-1.3,0.6-2.7,0.9-4.1,1.3c0.5-2,1.4-3,2.5-3.9c9.1-7.5,18.2-15.1,27.5-22.5c3.8-3,7.8-6.1,12.2-8.1c8.6-3.9,17.8-6.8,26.4-10.7
			c10.5-4.8,20.9-9.9,31.1-15.4c3.5-1.8,8.1-3.6,7.1-10.9c-16.1,5.2-30,13.9-44.8,19.9c-2.6-2.3-4.6-5.4-7.2-5.9
			c-2.8-0.6-6.2,1.2-9.4,1.9c0.6-7.9,1.2-15.6,1.7-23.4c0.4-7.2,0.6-14.4,0.9-21.6c0.1-3.1-0.7-5.1-4.5-4.4c-0.4,0.8-0.9,1.6-1,2.4
			c-2.7,13.9-5.5,27.8-7.8,41.7c-0.8,5.2-0.9,10.8,4.4,14.7c-7,5.8-13.7,11.4-21,17.5c-2.2-24.5-3.4-48.1-0.9-71.8
			c0.2-2.3,0.9-4.6,0.9-6.8c0-1.2-1-3.4-1.7-3.4c-1.4-0.1-3.8,0.5-4.3,1.4c-1.5,3.4-2.8,7-3.2,10.7c-2.2,19.2-2.9,38.5-2.2,57.8
			c0.2,6.6,1.2,12.3,6.2,17.4c-8.3,6.9-16.2,13.4-25.1,20.8c-0.7-9.7-1.8-17.7-1.6-25.7c0.3-18.1,1.4-36.3,1.9-54.4
			c0.1-3.4,0.9-7.5-3.4-10.2c-4.1,4.3-4.6,9.4-5.1,14.5c-0.4,4.9-0.5,9.8-0.9,14.7c-1.4,19.6-2.8,39.1-1.3,58.7
			c0.8,9.8-0.6,19-11.3,23.8c-0.8-1.6-1.9-3.1-2.2-4.8c-3.4-15.9-4.5-32-3.9-48.2c0.5-12.1,1.8-24.2,6.9-35.5
			c0.9-2.1,1.6-4.7-1.1-6.1c-3.3-1.7-5.1,0.7-6,3.1c-2.5,6.7-5.5,13.5-6.5,20.5c-3.7,26.2-3.4,52.4,3.4,78.2c0.5,2,0.3,4.9-0.8,6.4
			c-4,5.5-8.6,10.6-14.2,17.3c-1.7-8.2-3.6-14.3-4.1-20.5c-1.3-14.4-2.2-28.8-2.9-43.2c-0.9-18.6,1.9-36.8,6.3-54.9
			c0.7-3,4.4-6.4-0.1-9.2c-2.6-1.6-4.6,0.5-6.6,7.1c-6,19.5-8.8,39.4-8.7,59.8c0.1,22.3,2.8,44.4,6.4,66.4c0.4,2.2,1.2,5.1,0.2,6.7
			c-4.7,7.4-9.4,14.9-17,22c-1-12.1-2.3-22.7-2.8-33.3c-0.9-21-3.1-42-0.3-63.1c0.7-5.4,0.8-11,0.8-16.4c0-1.3-1.7-2.7-2.6-4
			c-1.3,1.2-3.4,2.3-3.7,3.7c-1.6,10.5-3.7,21.1-4.1,31.7c-0.5,15.8,0.2,31.7,0.5,47.6c0.1,5.4,0.7,10.8,1.1,16.3
			c0.8,9.4,1.6,18.9,2.4,28.3c0.1,1.4,0.2,3-0.4,4.1c-3.9,6.3-8.1,12.4-12.1,18.6c-0.6-0.1-1.2-0.2-1.8-0.3
			c-1.4-9.3-3-18.6-4.2-27.9c-4-30.4-7.7-60.8-2.6-91.5c0.2-1.3-0.9-2.9-1.5-4.5c-4.7,1.4-5.7,5-6.1,8.2c-1.4,10.9-3.7,21.9-3,32.7
			c1.9,30.8,3,61.8,9.8,92.1c0.4,1.9,0.7,4.3-0.1,5.9c-2.4,4.8-5.4,9.3-8.5,14.5c-5.4-6.6-7.8-13.2-8.5-20.5
			c-2.7-31.9-7.7-63.7-3.9-95.9c0.4-3.2,0.6-7-4.4-8.4c-0.7,1.4-1.9,2.5-2,3.7c-1.2,11.7-3.2,23.5-3,35.2
			c0.3,18.7,1.7,37.5,3.2,56.1c1.2,14.3,1.3,29.1,12.1,40.6c-4.4,7.7-8.5,15-13,22.8c-7.4-11.5-12.3-26.1-13.1-40
			c-0.5-10.4-0.9-20.8-0.5-31.2c0.3-8.3,1.8-16.6,2.6-24.9c0.2-2.4,1.3-5.4-3.3-6.2c-0.7,0.8-2.2,1.6-2.5,2.8
			c-2.1,7.7-5,15.5-5.6,23.4c-1.5,20.2-0.3,40.3,4.7,60.1c2.2,8.8,4.2,17.3,9.8,24.7c1,1.3,1.4,3.9,0.8,5.5
			c-1.4,3.9-3.4,7.6-6.9,10.8c-1.4-2.4-2.8-4-3.4-5.9c-4-11.7-8.8-23.3-11.6-35.3c-3.8-16.6-7.4-33.3-5-50.6c0.6-4,0.7-8.1,0.5-12.1
			c-0.1-1.4-1.5-2.7-2.3-4.1c-1.3,0.9-3,1.5-3.8,2.7c-1.1,1.6-1.8,3.7-2,5.7c-0.7,8.3-2,16.7-1.4,25c2.1,27.3,9.9,53.3,19.4,78.7
			c3.3,8.8,2.6,15.7-3.8,23.7c-2.2-6.5-4.3-11.8-5.9-17.3c-6.2-20.2-13-40.2-11-61.8c0.2-2.6,0.3-4.9-2.8-5.3
			c-2.8-0.4-4.5,1.3-4.6,4c-0.4,8.6-1.8,17.4-0.5,25.7c1.8,12.2,5.3,24.2,8.5,36.2c2.9,11,6.4,21.9,10.1,34.3
			c-1.3,2.5-0.9,7.9-5.3,10.9c-1-0.6-1.7-0.8-1.9-1.2c-11.7-23.2-20.8-47-18.2-73.7c0.4-3.8,1.3-8-2.1-11.5c-5,0.3-5.6,4.2-5.8,7.4
			c-0.5,8.9-0.9,17.9-0.4,26.8c0.3,5.7,2.2,11.3,3.5,16.9c3.7,15.8,9.9,30.7,16.8,45.3c2.6,5.5,2.2,9.5-1.1,14.8
			c-1.5-2-2.8-3.1-3.5-4.6c-9.8-21-18.7-42.2-21.5-65.5c-0.5-3.7,0.1-7.5-0.3-11.2c-0.2-1.4-1.8-3.8-2.6-3.7
			c-1.7,0.1-3.5,1.3-4.7,2.6c-0.9,0.9-1.3,2.8-1.1,4.1c1.5,10.5,1.9,21.4,5,31.4c6.4,20.9,14.2,41.3,21.5,62.4
			c-2,1.3-3.7,2.4-5.9,3.9c-1.8-5.6-3.7-10.4-5-15.3c-3.6-13.3-7.4-26.7-10.5-40.1c-2.3-10-10-18.5-7.8-29.6c0.2-0.8-1-2-1.5-2.9
			c-1.6-2.9-3-6-5-8.6c-1.2-1.6-3.5-3.5-5.1-3.4c-3.2,0.3-3.6,3.2-2.7,6.1c0.3,1.1,1,2.1,1.5,3.1c2.8,6.4,2.3,12.2-2.8,17.3
			c-9.8-12.6-14.4-29.6-31.3-37.6c-0.6,3.2-1,5.1-1.5,7.4c-2.7-2.5-5.2-4.5-7.4-6.7c-1.4-1.4-2.6-3.1-3.9-4.6
			c-4.6-5.4-4.6-5.4-11.2-2.5c-8.9-7.9-17.6-16-26.7-23.6c-3.2-2.7-7.3-4.4-11.2-6.2c-0.9-0.4-3.1,0.5-3.6,1.4c-0.5,0.9,0,3,0.8,3.7
			c3.3,2.8,6.9,5.1,10.3,7.8c20.3,16.6,37.8,35.5,50.3,58.8c5.9,10.9,12.3,21.6,17.9,32.7c2.5,5,3.7,10.6,6.1,17.8
			c-8.8-4.4-16.6-6.5-16.2-16.7c0.1-2.1-1.1-4.5-2.2-6.4c-11.6-18.6-23.2-37.3-39.2-52.5c-13.6-12.9-27.9-25.1-41.9-37.5
			c-0.8-0.7-2-0.9-3.1-1.3c-1,1.3-1.9,2.3-2.7,3.4c-20.5-15.9-20.5-15.9-25.6-13.9c14.5,14.7,29.3,28.7,43,43.8
			c13.6,15,25.9,31.2,36.2,50.6c-12.8-6.2-23.8-11.5-37.3-18.1c2.1-1.2,3.8-1.6,4.6-2.7c3.5-5.3,3.3-6.8-0.7-11.5
			c-8.7-10.4-17.4-20.8-26.2-31.1c-11.8-14-25.1-26.3-40.4-36.4c-4.9-3.2-10.2-6.1-16.4-5.1c-1.1,4.6,2.4,5.4,4.6,6.9
			c5,3.3,10.4,6.2,15.3,9.6c20,14.1,34,33.6,47.4,53.5c2.5,3.7,4.4,7.7,4.3,14.1c-2.1-2.3-3.4-3.3-4.2-4.5c-1.5-2.4-2.5-5.2-4.2-7.5
			c-11.5-16-24.9-30.3-39.3-43.6c-15.5-14.3-31.9-27.6-49.9-38.7c-4.6-2.9-9.5-5.4-14.5-7.6c-3.7-1.6-6.8-0.8-7.1,4.9
			c20.7,9,38.4,22.7,55.5,37.3c16.1,13.7,41.5,42,43.8,50.5c-5.8-2.6-11.3-5-17.2-7.7c2.8-8.1-1-13.2-6.9-17.9
			c-6.5-5.2-12.8-10.8-18.8-16.7c-20.6-20.6-45.7-34.1-71.5-46.6c-1.5-0.7-3.7-1.7-4.8-1.1c-6.2,3.5-10-0.9-14.5-3.7
			c-6-3.8-12.3-7.3-18.7-10.4c-3.8-1.9-8.2-2.9-11.3,1.9c38.1,21.4,74.7,44,102.3,78.7c-7-2.4-13.9-4.8-21.4-7.4
			c2.3-4.8,0.8-8.2-2.5-11.1c-2.2-1.9-4.2-4.1-6.6-5.6c-24.6-16.1-47-35.6-73.2-49.4c-8.1-4.3-16.5-8.3-24.9-11.9
			c-2.7-1.2-6.5-3.2-9.7,2.2c11.9,8.4,26.1,12.1,37.8,20.3c11.8,8.3,24,15.9,35.6,24.5c11.2,8.4,21.8,17.7,32.7,26.6
			c-7.4-0.8-14.2-2.3-20.7-4.4c-2.2-0.7-4.2-2.7-6-4.3c-4.9-4.4-9-10.2-14.5-13.3c-22.1-12.6-44.6-24.3-66.9-36.4
			c-7.9-4.3-15.6-8.7-23.5-13c-2.3-1.2-4.6-2.6-7-3.2c-2.9-0.7-4.2,1.2-4.1,5c3.6,2.3,7.5,5.1,11.8,7.3c7.9,4.1,16.2,7.4,24,11.6
			c12.9,7,25.8,14.1,38.4,21.8c9.6,5.8,18.6,12.4,27.9,18.6c-0.2,0.3-0.5,0.6-0.7,0.9c-11.1-1.8-22.1-3.5-33-5.3
			c-1.7-2.9-2.7-6.1-4.8-8.2c-13.4-13.4-28.3-24.5-46.3-31.2c-19.5-7.3-39-14.4-59.2-19.4c-7.9-2-8.5-2-12.9,5.4
			c-3.2,1.4-7.5-2.5-10.8,3.1c2.5,1.5,4.7,3.3,7.2,4.2c4.6,1.6,9.4,2.8,14.2,4c12.4,3.2,24.2,7.8,34.4,15.8
			c6.1,4.8,12.5,9.3,18.7,14.1c1.4,1.1,2.5,2.5,4.3,4.2c-7.3,0.1-13.8,0.8-16.8-6.8c-0.2-0.6-1.4-0.9-2.2-1.3
			c-6-2.9-11.8-6.1-18-8.5c-18-6.9-36.6-12.4-53.8-21.6c-3.1-1.7-6.9-3.4-11.3,0.4c1.8,1.8,3.2,4.2,5.3,5.2c6.9,3.6,14,6.9,21.1,9.9
			c9.3,3.9,18.8,7.3,28.1,11.3c4.4,1.9,8.3,4.7,13.5,7.7c-7,2.7-12.2,0.2-17.4-0.3c-3.6-0.3-6.4-1.4-7.7-5.6
			c-1.3-4.1-4.8-5.2-8.9-3.8c-1.8,12.3,6.2,17.1,16.6,20.8c-6,4.3-11.3,6.2-17.1,6.8c-2.9,0.3-5.8,0.2-8.6,0.9
			c-1.4,0.3-3.4,1.7-3.7,2.8c-0.2,1.2,1.1,3.1,2.3,4.1c1.3,1,3.2,1.7,4.8,1.7c6,0.1,12-0.1,17.8-2.4c8.3-3.2,17.1-4.9,24.4-10.4
			c0.5-0.4,1.6,0,2.5,0c0.5,0.4,1,0.9,1.5,1.3c-1,0.6-2.1,1-3,1.7c-11.4,8.9-22.6,18-36.1,23.6c-9.6,4-19.3,7.8-28.9,11.6
			c-3.1,1.2-5.8,2.5-4.5,7.6c6-1.8,11.8-3.4,17.5-5.1c25.6-7.6,48.3-20.2,67.4-38.9c1.2-1.1,2.9-2.6,4.3-2.5c7,0.2,14,0.8,22,1.4
			c-1.5,1.9-1.9,2.7-2.6,3.2c-19.5,14.6-40.1,27.1-63.2,35.2c-3.5,1.2-7.4,1.4-10.9,2.7c-1.5,0.5-2.4,2.7-3.5,4.1
			c1.5,0.9,3.2,2.8,4.6,2.6c6.3-0.9,12.7-1.7,18.6-3.8c19.7-7,37.2-18.4,55.2-28.8c5.4-3.1,9.7-7,11.6-13.4
			c7.8,1.6,15.8,0.2,23.9,5.2c-5.2,5-9.5,10.2-14.8,13.9c-23.4,16.3-45.3,35.1-72.4,45.5c-2.5,1-4.9,2.4-3.1,6.1
			c7,2,12.8-1.6,18.6-4.6c25.6-13.6,48.6-31.1,72.3-47.5c2.6-1.8,5.7-3.8,6.9-6.4c3.3-7,8.7-7.5,15.1-6.3c4.8,0.9,9.7,1.4,14.5,2.5
			c14.3,3.4,28.7,6.7,42.8,10.8c13.8,4,28,7.1,40.9,14.6c-2.2,6.7-2.9,14.2-6.7,19.6c-16.1,23.4-35.4,43.4-63.7,52.1
			c-0.8,0.3-1.9,0.4-2.3,1c-0.9,1.3-1.9,2.8-1.9,4.3c0,0.6,2.3,2.1,3.3,1.9c5-1,10.4-1.6,14.9-3.7c14.1-6.5,25.4-17,36.8-27.2
			c13.8-12.4,26.4-25.7,29.5-45.9c17,5.4,33.3,11.6,49.2,20c-15.7,23.1-30.9,45.2-56.6,57.2c2.7,4.2,5.6,4.8,8.8,3.2
			c3.3-1.7,7-3.1,9.7-5.6c9.7-8.7,19.3-17.3,28.3-26.7c6.9-7.2,12.8-15.4,19.2-23.2c6.5,2.9,12.8,5.7,20.3,9.1
			c-5,6.5-8.9,12.5-13.7,17.8c-5.6,6.2-11.9,11.7-17.8,17.7c-8.3,8.3-17.6,14.9-28.8,18.5c-2.1,0.7-5.1,1.7-5.7,3.3
			c-1.7,4.3-5,4.2-8.4,4.7c-3.7,0.5-7.3,1.3-8.4,6.6c2.4,0,4.4,0.3,6.2,0c6.9-1,13.7-2.4,20.5-3.3c3-0.4,6.1-0.1,9.2,0.3
			c13.3,1.9,26.5,2.4,39.6-1.3c9.4-2.7,18.9-5.4,28-8.8c13.5-5.1,26.8-10.8,35.5-23.8c7.4,2.2,13.8,5.6,19.2,10.9
			c-3.9-0.9-7.3-0.4-11.1,1.7c-10.3,5.8-20.8,11.4-31.7,16c-18.1,7.5-36.3,14.7-55.7,18.6c-3.3,0.7-5,2.5-4.1,6.2
			c19.7,1.1,36.1-9.5,54.1-14.4c-1,3.2-3.2,6.2-2.4,8.1c1.4,3.4,5,1.3,7.7,0.8c2.9-0.5,5.7-1.3,8.5-1.5c3.8-0.2,7.6,0,11.4,0.1
			c-10,6-20.7,8-31.5,9.5c-2.8,0.4-6.7,0.6-8,2.3c-2.5,3.5-6.1,4-9.3,5.7c-3.1,1.6-8.7,1.6-7,8c0.2,0.6-2.9,2.3-4.7,3
			c-3.8,1.5-7.7,2.4-11.4,3.9c-2.3,0.9-3.8,2.6-2.1,5.4c14-1.4,27.9-3.2,41.9-3.9c14.2-0.7,28.5-1.5,42.8,1.6
			c-1.8,1.6-4,3.3-5.6,2.8c-3.9-1.2-6.2,0.1-7.7,3.4c-1.6,3.4-4.1,4.2-7.7,4.1c-31.4-0.3-62.1,4.5-92.7,10.7
			c-3.6,0.7-7.1,2.5-10.4,4.2c-0.9,0.5-1.2,2.3-1.8,3.6c1.4,0.7,3,2,4.2,1.8c3.9-0.8,7.7-2.5,11.7-3.2c16-2.6,32-5.2,48-7.2
			c10-1.3,20.2-1.6,30.3-2.4l0.5,2c-4.7,2.4-9.5,4.9-14,7.2c-7.5-3.7-8.9-3.8-17-3.2c-29.2,2.1-56.9,9.9-83.4,21.9
			c-6.7,3-12.4,8.2-18.6,12.3c-3.1,2-6.1,4.2-9.2,6c-7.4,4.4-15,8.5-22.3,13.1c-2.5,1.6-4.9,4-4.2,8.6c2.2-0.7,4-1.1,5.6-2
			c8.7-4.4,17-10.3,26.2-13.2c19.6-6,39.6-10.6,59.5-15.4c7.5-1.8,15.3-3,22.9-4.4c4.1-0.8,6.7-3.5,6.2-6.9
			c-0.6-4.1-4.1-4.7-7.2-4.7c-2.5,0-5.1,0.8-7.6,1.5c-14.9,4.7-29.7,9.6-44.5,14.2c-2.5,0.8-5.2,0.8-8.6,1.3
			c21.7-15.2,75.2-27,90.6-20.5c-15.8,12.2-31.7,24.5-47.8,37c-4.2-7-10.6-5.7-17.2-3.2c-5.9,2.2-11.7,5.1-17.7,6.9
			c-28.7,8.5-55.2,22-81,36.8c-2.2,1.3-3.8,3.6-6,5.7c4,3.8,6.9,3,10.2,1c8.9-5.2,17.8-10.4,27-15.2c19.9-10.4,41.1-17.6,62.8-23.4
			c-10,4.5-20.4,7.9-30.4,12.3c-12.8,5.7-25.4,11.9-38,18.2c-6.9,3.5-13.6,7.5-20.3,11.2c-6,3.3-12.1,6.6-18.1,10.1
			c-3.2,1.9-5.2,4.5-3.8,8.4c4.1,2,6.7-0.5,9.6-2.3c6.1-3.9,12.2-7.5,18.5-11.1c3.7-2.1,7.9-3.6,11.5-5.9
			c19.1-12.2,40-20.4,61.4-27.7c2.7-0.9,5.8-0.9,10.5-1.6c-2.8,2.8-4.3,4.1-5.6,5.6c-6.3,7.1-12.3,13.9-23.6,12.5
			c-4.4-0.5-9.3,2.7-13.8,4.6c-11.2,4.7-22.7,8.7-33.3,14.5c-17.8,9.7-34.7,20.8-50.2,33.8c-4.8,4.1-9.2,8.7-13.6,13.3
			c-0.7,0.8-0.5,2.5-0.7,3.7c1.5,0.1,3.2,0.5,4.5,0c1.2-0.4,2.2-1.8,3.2-2.9c12.2-13,27.4-22.2,42.2-31.6
			c15.6-9.9,32.4-17.8,50.7-21.9c3.1-0.7,6.1-1.7,9.1-2.6c0.2,0.4,0.4,0.9,0.6,1.3c-5.5,6.9-11,13.8-16.9,21.1
			c-4-4.7-7.4-4.5-11.8-1.4c-8.7,6.2-17.7,11.9-26.8,17.5c-14.8,9.1-29.8,17.7-44.4,26.9c-5.3,3.4-10.1,7.7-14.9,11.8
			c-2.8,2.4-3.2,5.2,0.1,8.7c9.6-7.3,18.8-15.2,28.7-21.7c9.9-6.5,20.6-11.6,30.9-17.4c10.4-5.8,20.8-11.7,31.2-17.6
			c0.4,0.5,0.9,1.1,1.3,1.6c-3.8,3.7-6.9,9-11.4,10.8c-11.9,4.8-22.5,11.7-33,18.7c-14.2,9.4-27.9,19.6-41.7,29.5
			c-4,2.9-8,5.8-11.7,8.9c-2.3,1.9-4.9,4-4.3,8.5c2.3-0.7,4.4-0.9,5.9-1.9c11.3-7.5,22.5-15.1,33.7-22.8c6.2-4.3,11.9-9.2,18.2-13.2
			c7.3-4.6,14.1-10.4,24.8-11.7c-4.9,8.4-9.1,15.5-13.3,22.7c-0.4,1.5-0.7,3-1.1,4.5c-1.9,5.7-7.2,8.5-10.7,12.8
			c-13,15.9-26.6,31.2-44.3,42.2c-1.6,1-2.6,3-3.8,4.5c0.5,0.5,1,1,1.4,1.5c19-3.9,30.6-18.8,43.8-30.9c7.8,4.4,12.1,3.2,15.5-4.2
			c1.6-3.4,2.5-7.1,3.7-10.6c1.5-4.4,3.1-8.7,4.7-13.1c0.8,0.1,1.6,0.2,2.3,0.4c1,6.8,2.3,13.6,2.8,20.4c1.7,20.1-0.8,39.7-6.2,59.1
			c-1,3.7-3,7.6-0.2,12.9c1.7-2.4,3.1-4,4.1-5.9c5.1-9.9,7.2-20.6,8.5-31.5c2.7-22.8,3.6-45.4-2.8-67.8c-0.4-1.3-0.7-3.1-0.1-4.2
			c4.2-8.4,8.9-16.6,14.8-24.4c5.3,4.2,5.6,9.8,5.8,14.7c1,27.6-0.6,54.8-11,80.9c-0.8,2.1-1.4,4.4-1.6,6.7
			c-0.1,0.9,0.9,2.4,1.6,2.6c1.2,0.3,3,0.2,3.8-0.6c1.2-1.1,2-2.9,2.5-4.5c3.6-13.6,8.2-27.2,10.4-41.1c2.4-15,2.8-30.4,3.8-45.6
			c0.5-8.3-0.7-16.2-9.2-21.6c5.8-6.6,8.9-14.9,17-19.7c0.8,2.9,1.5,5.1,1.9,7.4c3.4,20.2,0.6,40.3-2.7,60.2
			c-1.9,11.3-6.2,22.2-9.4,33.3c-0.7,2.3-1.4,4.5,1.7,6.2c3.5-0.6,5.7-3.2,6.9-6.6c1.7-4.6,3.3-9.2,4.6-14c6.4-23.6,7.9-47.8,9.7-72
			c0.6-8.1-0.6-16.2-7.2-23.1c5.6-5.4,10.8-10.4,16.9-16.2c0.8,3.7,1.7,5.9,1.8,8.1c0.6,21.3,1.8,42.7,1.3,64
			c-0.2,8.9-1.1,18.5-6.2,26.7c-1,1.6-0.9,3.9-1.5,7.1c7.3-2.3,11-6.2,12.1-11.8c1.6-8.5,2.9-17.1,3.4-25.7
			c0.6-10.6,0.4-21.3,0.5-32c0.2-15.2,1.7-30.4-3.1-45.7c3.3-2.9,6.4-5.7,9.9-8.8c1.4,3.5,2.3,6.2,3.6,8.7
			c4.9,9.6,6.4,19.7,5.6,30.3c-0.4,6.1-0.7,12.1-1.5,18.1c-2.5,19.2-3.2,38.9-15.5,55.4c-0.4,0.5-0.1,1.6-0.1,2.8
			c4.3,0.4,7.1-1.5,9.6-4.7c17.3-22.5,36.8-43,59.8-59.8c8-5.8,16.3-11,24.5-16.5c0.4,0.4,0.8,0.8,1.2,1.3c-3.2,8.8-6.4,17.5-9,24.7
			c-5.5,1.1-9.5,1.1-12.5,2.8c-6,3.4-11.7,7.4-17,11.8c-10,8.2-19.7,16.9-29.6,25.3c-11.7,10-22.3,21.1-30.1,34.5
			c-3.8,6.6-8.6,13.3-3.2,21.3c-7.8,11.8-18.2,21.7-22.3,35.8c5.4,1.9,6.9-1.7,9-4.3c8.7-11.1,17.2-22.4,26.2-33.4
			c14.8-18,32.9-32.3,51.8-45.8c1.6-1.1,3.7-1.5,7-2.8c-3.6,9.3-6.5,16.8-9.4,24.1c-7.7,1-7.9,0.7-14,5.8c-10.8,9-21.5,18.3-32,27.7
			c-20.4,18.3-34.8,40.7-43.6,66.6c-0.6,1.7-1.2,4.3-0.4,5.5c1.9,2.8,0.6,4.7-0.1,7.2c-1.1,3.6-1.5,7.5-2.3,11.7
			c6.3-0.1,7.3-4.1,8.6-7.4c6.1-15.3,15-28.6,27.6-39.3c7.1-6,13.8-12.4,21.3-17.7c5.1-3.7,10.1-8.3,17.3-9.6
			c-2.1,8.7-4.1,16.6-6,24.6c-2.5-0.9-4.9-1.7-7-2.5c-32,28.1-60.4,58.4-78.9,97.1c3.1,2.3,5.2,3.6,7.1,0.1c1.8-3.3,3.2-6.9,5.4-9.9
			c13-17.7,25.4-35.9,41.7-50.8c9.4-8.6,19.2-16.8,28.9-25.2c-2.2,9-2.6,18.4-11.4,23.4c-1.4,0.8-2.5,2.4-3.6,3.7
			c-13.9,16.6-28.5,32.6-40.5,50.7c-4.4,6.7-8.2,13.8-12,20.9c-0.6,1.1,0.3,3,0.5,4.6c1.5-0.2,3.6,0.1,4.5-0.8
			c2.1-1.9,3.6-4.5,5.3-6.8c9.9-13.5,19.6-27.2,29.8-40.4c3.5-4.6,8.2-8.2,13.4-13.3c-0.4,7.8-4.9,11.4-7.8,16
			c-7.5,12-15,24-22.4,36c-1.3,2.1-3.1,4.4,0.2,7.8c10.4-5.6,12.4-18.8,22.1-25.9c2.4,7.8,5.2,14.8,6.6,22.1
			c1.3,7.1,1.1,14.5,1.5,21.7l2,0.8c1.6-1.3,4.1-2.4,4.5-4.1c1.3-5.2,2.7-10.7,2.6-16c-0.2-7.2-1.9-14.3-2.9-21.4
			c-1.4-9.9-0.6-19.6,2.4-29.1c3.1-9.9,6.4-19.8,9.7-29.7c0.9-2.8,2.3-5.4,4.3-10c2.5,5.1,4.4,8,5.5,11.1
			c4.4,13.2,7.1,26.8,7.1,40.8c0,13.3-0.3,26.5-1,39.8c-0.3,5.8-2.7,11.2-6.8,17.3c-1.8-20,1.1-39.3-8.2-56.9
			c-5,1.7-4.4,4.9-4.1,8.1c1.7,16.9,3.4,33.9,4.8,50.8c1,12.5-1,24.6-6,36.3c-5.9,13.8-11.2,27.9-16.4,42
			c-7.7,20.8-14.6,41.9-22.6,62.6c-11.2,29.3-23.2,58.4-34.7,87.6c-8.6,22.1-16.8,44.3-25.3,66.4c-10.6,27.1-21.4,54.2-32.1,81.3
			c-3.5,8.9-7.1,17.7-10.5,26.6c-3.6,9.2-7.6,18.2-10.4,27.6c-2.7,8.9-9.5,15.7-11.3,25.1c-1.1,5.8-4.1,11.3-6,17
			c-2.2,6.6-3.9,13.3-6.4,19.7c-4.3,11-9.2,21.8-13.7,32.7c-8.3,20-16.5,40-24.6,60c-1.4,3.5-3,5.6-7.4,5.9
			c-4.6,0.3-6.6,4.2-3.9,7.2c3.5,3.8,1.9,6.5,0.4,10c-6.9,15.2-13.6,30.5-20.6,45.7c-6.6,14.4-13.1,28.9-20.2,43
			c-6,11.9-12.9,23.2-19.2,34.9c-4.1,7.6-7.8,15.4-11.9,23.1c-6.7,12.8-13.2,25.7-20.3,38.2c-8.8,15.5-18.3,30.7-27.2,46.1
			c-9.9,17.2-19.5,34.7-29.3,52c-11.7,20.6-23.4,41.2-35.2,61.7c-9.8,17-19.8,33.8-29.6,50.8c-7.6,13.3-16.4,25.7-26.6,37
			c-0.5,0.5-1,1-1.5,1.5c5.5-0.4,10.9-0.7,16.4-1c0.7-0.9,1.3-1.7,1.9-2.7c10.9-18,21.6-36.1,32.4-54.2
			c10.6-17.8,21.5-35.6,31.9-53.5c8.7-15,16.8-30.3,25.3-45.4c12.1-21.4,24.2-42.7,36.5-63.9c16.4-28.2,32.2-56.7,46-86.3
			c5.3-11.5,12.6-22,18.8-33.1c3.1-5.5,6-11.2,8.6-17c11-24.8,21.9-49.7,32.9-74.5c0.8-1.8,1.8-3.6,3-5.7c12.6,4.4,25,9.2,38.5,9.1
			c13.2-0.1,26.5,0.3,39.1-6.6c-5.3,12.3-10.6,24.6-15.9,36.9l0.1-0.2c-3.2,7.7-6.4,15.5-9.7,23.1c-6.8,15.9-13.9,31.7-20.6,47.7
			c-2.1,4.9-3.9,9.2-9.7,11.1c-3.6,1.2-6.5,4.7-9.8,7c-12.3,8.3-26.1,12-40.8,12.8c-3.1,0.2-8.1-1.6-8.1,3.5c0,4.3,4.7,3.3,7.6,3.6
			c13,1.1,25.1-3,37-7.5c3.4-1.3,6.9-2.4,11.7-4.1c-3.7,8.8-6.7,16.2-9.8,23.6c-0.3,0.8-0.6,2-1.2,2.2
			c-10.5,4.1-16.1,15.4-27.6,18.4c-17.5,4.6-35,7.3-53.1,6.5c-5-0.2-10-0.4-15.5-0.6c0.6,6.3,4.7,7.1,8.2,7.6
			c6.3,0.9,12.7,1.7,19,1.3c19.9-1.3,39.6-3.7,58.2-11.4c-0.7,9-1.6,10.6-9.5,12.8c-11.7,3.2-23.5,6-35.2,8.9
			c-3.8,0.9-8,1.1-10.6,5.2c2.6,3.5,5.9,2.7,8.8,2.1c11.3-2.2,22.6-4.7,33.9-7.2c1.1-0.2,2.1-0.6,4.1-1.1c-0.5,5.2-3.1,9-4.4,13.1
			c-2.6,8.5-7.6,13.5-16.8,15.4c-9.6,1.9-18.8,5.4-28.2,8c-6.2,1.7-12.4,2-18.8,0.3c-1.8-0.5-5.1,0.2-5.9,1.4
			c-1.9,3,1.1,5.4,3.3,5.8c5.9,1.1,11.9,2,17.8,1.7c11.1-0.6,21.4-4.5,31.6-8.8c1.8-0.7,3.6-1.2,7.3-2.4c-2.5,7.3-4.5,13.1-6.8,20.2
			c-4.1-4.6-6.8-4.7-11.2-1.3c-10.2,7.8-21.7,13.1-35.2,12.3c-3.2-0.2-6.4-0.4-9.5-0.1c-1.7,0.2-3.3,1.5-4.9,2.3
			c1.2,1.7,2,4.2,3.6,4.9c2.6,1.1,5.7,1.6,8.5,1.3c10.5-1.4,21.1-2.9,31.5-5.1c3.9-0.9,7.4-3.9,12.9-7c-3.3,11-7.6,19.5-13.3,27.2
			c-1.3,2.3-2.6,4.7-3.8,7c-9,14.8-21.2,24.7-38.9,26.9c-9.7,1.2-19.4,3-29.3,0.7c-0.8-0.2-1.8-0.5-2.6-0.2
			c-1.2,0.4-3.2,1.1-3.3,1.8c-0.2,1.4,0.3,3.9,1.3,4.3c3.4,1.5,7.1,3.3,10.6,3.2c15.2-0.5,30.6-1,46.5-6.9c-5.2,11.5-8,22.4-19,29.4
			c-22.3,14.1-46.4,18.5-72.1,15.4c-3.6-0.4-7.1-2-10.6-3.1c-2.9,5.7-2.8,6.9,1.7,8.6c8.8,3.5,18.1,3.5,27.3,3.1
			c17.7-0.9,34.9-3.9,51.5-11.9c-0.6,1.3-1.1,2.7-2,3.8c-3.5,4.9-7.2,9.7-10.8,14.5c-3.1,4.3-10.9,6.5-15.3,3.6
			c-4.8-3.1-8.7-3.8-13.1,0.6c-1.7,1.7-4.5,2.8-7,3c-9.1,1-18.3,1.4-27.5,2.2c-1.6,0.1-3.2,0.7-6,1.4c1.6,2.2,2.4,4.3,3.8,4.8
			c3.4,1.4,7.1,2.6,10.7,2.9c8.1,0.5,16.2,0.4,24.6,0.5c-12.8,8.2-26.4,12.1-41.4,11.3c-5.9-0.3-11.8,0.3-18,0.5
			c0.3,7.8,7.5,5.5,10.3,9.7c-1.7,1.2-3.4,2.4-5.1,3.6c1.7,0,3.4,0,5.1-0.1c18.1-8.1,36.2-16.1,54.2-24.3
			c15.7-7.6,31.2-15.7,46.1-24.8c-0.5,0.2-1,0.3-1.5,0.5c2.9-5.8,4.7-9.6,6.6-13.4c11.7-23.8,21-48.8,35.5-71.3
			c10-15.6,15.9-33.3,22.6-50.5c7.4-18.7,13.8-37.9,26.1-54.3c0.8-1,0.7-2.7,0.9-4.1c0.3-2,0.1-4.1,0.8-5.9
			c5.8-14.5,11.4-29.1,17.7-43.4c7-16.1,14.8-32,21.9-48.1c7.4-16.6,14.4-33.4,21.5-50.1c5.5-13,10.6-26.3,16.1-39.3
			c6.2-14.6,13-28.9,19-43.5c12.1-29.4,23.6-59,35.9-88.3c4.1-9.7,8.7-19,11.4-29.3c2.7-10.6,7.6-20.5,11.5-30.8
			c6.3-17.1,12.6-34.2,18.9-51.2c8.6-23,16.9-46.1,26-69c5.5-14,11.4-27.7,14.6-42.5c1.8-8.4,4.3-16.8,7.2-25
			c8.9-25.1,16.3-50.5,23.3-76.2c4.8-17.5,9.5-35.1,14.7-52.5c4.5-14.9,10.2-29.5,14.7-44.4c8.8-29.2,20.4-57.4,29.2-86.7
			c4.5-15.1,10.9-29.8,15.4-44.9c6.3-21,11.8-42.2,17.6-63.3c0.8-2.8,1.1-5.7,1.6-8.5c1.1-5.7,1.9-11.4,3.4-16.9
			c2.6-9.2,5.3-18.3,8.5-27.3c3.3-8.9,7.5-17.5,11.1-26.3c6.8-16.5,15.3-32.3,23.5-48.2c4.3-8.2,9.4-15.9,14.5-23.6
			c2-3,4.2-6.3,9.1-6.4c3.2,6,4.1,12.3,3.4,19c-7,3.2-10.5,9-13.4,15.5c-4.5,10-9.3,19.9-13.5,30c-4.4,10.7-8.4,21.5-12,32.5
			c-2.7,8.2-4.5,16.7-7.1,24.9c-2.4,7.4-5.6,14.6-8.2,21.9c-1.3,3.8-2.3,7.7,1,12.4c1.6-1.7,3.2-2.8,3.9-4.3
			c1.5-3.7,2.3-7.8,3.9-11.5c6.7-15,12.9-30.2,20.5-44.7c6.3-12,14.1-23.2,21.4-34.5c1.6-2.4,4.2-4.1,6.3-6.2
			c0.6,0.3,1.2,0.6,1.9,0.9c-1.3,10.8,2.4,21.5,0.4,32.4c-8,1.6-12.7,6.4-16,12.9c-7.4,14.7-15.4,29.1-22.2,44
			c-5.1,11.3-9.2,23.1-12.9,34.9c-1.9,6.1-3.2,12.8-0.4,19.2c5.3,0.1,4.6-3.9,5.3-6.7c1.1-4.5,1.3-9.3,3-13.4
			c6.5-15.7,13.2-31.4,20.4-46.7c4.1-8.9,9.4-17.2,14.2-25.7c2.1-3.8,4.7-7.1,8.9-9.2c1.9,8,1.6,7.8-3.1,11.7
			c-3,2.5-5.3,5.9-7.4,9.2c-1.7,2.7-2.3,5.9-3.7,8.8c-11,22.6-22.2,45-30.8,68.7c-5.2,14.5-8.7,29.2-9.8,44.6
			c-0.3,3.5,0.2,5.7,5.5,5.7c2.4-17.3,6-34.4,12.6-50.7c6.5-16.2,13.6-32.2,23.4-47c0.4,2.6,0.2,5-0.6,7.1
			c-6.7,17.8-14.2,35.4-20.2,53.4c-5.2,15.6-8.8,31.7-12.9,47.6c-0.9,3.5-1.3,7.2,0.9,11.2c4.8-2.1,4.8-6.4,5.7-10
			c7.4-31,17.4-61.1,31.3-89.8c1.2-2.5,2.5-4.8,3.8-7.3c0.7,0.2,1.4,0.4,2,0.7c-2.1,14.7-4.2,29.4-6.3,44.1
			c-7.5,0.1-8.6,0.8-11.1,7.2c-1.1,3-2,6-3.1,9c-8.3,22.2-16.9,44.3-25,66.5c-3,8.1-5,16.6-7.3,24.9c-0.5,1.8,0.3,3.9,0.5,5.9
			c3.3-2.8,5.3-5.7,6.5-8.8c9.8-25.3,19.3-50.7,29.1-76.1c2.1-5.4,4.8-10.5,7.2-15.7c-0.3,15.6-1.8,30.6-8.4,44.9
			c-8.1,17.5-15.2,35.6-22.5,53.5c-1.2,2.9-1.8,6.1-2.1,9.2c-0.1,1.2,1.6,2.6,2.4,3.9c1.1-0.7,2.5-1.3,3.2-2.3
			c0.9-1.4,1.2-3.2,1.9-4.8c3.7-8.8,7.4-17.6,11.3-26.2c1.3-2.8,3.3-5.1,6.2-1.3c-0.8,2.6-1.8,4.9-2.4,7.4
			c-3.1,12.6-6.7,25-13.1,36.5c-2.9,5.3-4.8,11.1-6.9,16.8c-0.6,1.6-0.3,3.6-0.3,5.3c4.2,1.1,5.4-1.5,6.6-3.8
			c5.3-10.3,11.5-20.2,15.5-31c3.7-9.9,10.4-19.6,7.2-31.3c-0.3-1.2,1.9-3,4.1-6.3c5.9,20.5,11.2,39.3,16.6,58.3
			c4.2,0.3,4.8-2.6,4.3-6.1c-0.4-2.8-1.3-5.6-1.9-8.4c-4.4-20.8-7.7-42-18.7-60.8c-0.5-0.9-0.9-2.3-0.7-3.3
			c1.3-6.7,1.2-13.8,6.5-19.3c2.9-3,4.8-6.5,0.8-10.6c-1.2-1.3-1.1-4.3-0.8-6.4c1.9-14.6,4-29.1,6-43.7c0.2-1.5,0.9-2.8,1.6-4.8
			c9.7,14.4,16.4,29.5,22.9,44.5c6,13.8,11.7,27.6,14.9,42.3c0.5,2.5,1.2,5.3,6.2,4.2c-0.2-4.5,0.7-9.6-0.7-14
			c-4.9-14.7-10-29.5-16.3-43.7c-7.1-16.1-15.5-31.6-23.2-47.4c-1-2-1.7-4.4-1.5-6.5c0.9-7.1,2.2-14.2,3.4-21.3l-0.1,0.2l1.5-31
			c8.1,10,15.4,19.8,21.1,30.5c5.7,10.7,10.3,22,14.6,33.3c4.2,11.1,7.4,22.7,11.2,34.6c4.6-3,4.8-6.3,4-9.8
			c-1.9-8.1-2.9-16.7-6.1-24.3c-7.6-17.7-16-35.2-24.8-52.4c-4.3-8.4-9.6-16.6-15.8-23.6c-3.6-4.1-5.5-7.7-5.6-12.8
			c-0.1-6.6-0.5-13.3-0.6-19.9c0-1.8,0.3-3.6,0.6-6.6c2.7,3.5,4.3,5.8,6.1,8c16.6,19.9,29,42.3,37.7,66.7c1.1,3,2,6.1,3.5,8.8
			c0.7,1.3,2.8,1.8,4.2,2.7c0.6-0.4,1.1-0.7,1.7-1.1c-0.4-2.7-0.3-5.7-1.3-8.2c-3.6-10-6.7-20.3-11.5-29.8
			c-7.8-15.1-16.5-29.7-25.4-44.2c-3.6-5.9-8-11.8-16.1-11.2c-0.5-5.7-1.1-10.9-1.3-16.1c-0.2-4.9-2.8-9.9-0.2-15.7
			c1.7,1.5,3.1,2.5,4.1,3.8c5.2,6.5,10.8,12.8,15.5,19.8c14.6,21.9,27.3,44.8,36.4,69.6c1.4,3.9,2.7,8.1,7.9,10.4
			c0.4-2.1,1.3-3.7,1-5.1c-1.1-4.5-2.1-9.1-4-13.2c-6.5-14.2-13-28.3-20.1-42.2c-8.2-15.9-17.3-31.3-29.1-44.9
			c-3.4-4-7-7.7-13.9-4.4c-1.4-10.1-2.8-19.5-4.4-30.6c28.2,28.2,47.2,60.7,63.1,95.8c1.6-2.1,2.9-4.2,2.6-6c-0.5-4-1.2-8.1-3-11.7
			c-5.8-11.6-11.4-23.4-18.5-34.2c-9.9-15.2-21.2-29.5-31.7-44.3c-3.7-5.2-8-8.8-14.2-9.1c-3.1-12.2-3.6-19.7-1.5-26.6
			c3.9,3.5,8.1,6.2,11,9.9c10.8,14.2,21.8,28.4,31.6,43.3c7.2,11.1,12.8,23.2,18.9,35c1.3,2.5,1.9,5,5.8,3c0.4-5.3,0-10.4-3.1-15.5
			c-8.3-13.5-15.7-27.6-24.4-40.9c-8.1-12.3-17.1-24-26.1-35.5c-4.2-5.4-9.2-10.6-17.5-7.7c-0.8-8.7-6.7-15.2-6.4-25.3
			c30.2,24.6,52,54.6,75.1,83.7c4.3-1.6,4.3-4.2,2-7.4c-6.1-8.3-12.3-16.6-18.5-24.9c-2.7-3.6-5.3-7.3-1.8-11.7
			c3.5-4.4,2.8-8.4-0.2-12.5c-1.5-2.1-2.7-4.4-4.3-6.4c-8.1-10.1-15.4-20.5-17.4-34.5c6.3,4.6,9.5,12.6,17.6,12.4
			c4.8,13.8,8.9,27.1,14,39.9c3.6,9.1,8.5,17.6,13.1,26.2c0.9,1.7,3.4,2.5,5.2,3.6c0.9-1.7,1.8-3.5,2.6-5.2c0.3,0.3,0.7,0.7,0.9,1.2
			c4.6,11.2,9.1,22.5,13.9,33.7c1.5,3.4,2.3,7.9,8.8,8.2c0.3-5.1,0.6-9.9,0.9-14.7c0.7,2,1.5,4.1,2.2,6.1c3.6,10.4,6.9,20.8,10.8,31
			c0.9,2.5,2.1,6.4,7.7,4.5c-1.2-5-2.1-10.1-3.8-14.9c-4.7-13.4-8.2-27.1-8-41.3c0.2-9.1,1.5-18.2,7.3-26.3
			c7.4,4.9,13.2,9.6,10.5,19.8c-1.2,4.5,0.2,9.7,0.8,14.6c0.5,4,1.7,7.9,2.6,11.8c3.3,14.6,6.6,29.3,10,43.8
			c0.4,1.8,1.6,3.4,2.6,5.5c4.8-3.2,4.1-7.5,3.4-11.2c-2-10.5-5-20.8-6.7-31.3c-1.5-9.1-1.9-18.5-2.8-27.7c4.9,3.8,8.5,7.8,11.9,12
			c0.8,1,1.1,2.6,1.2,4c1.1,18.4,2.5,36.8,7.2,54.8c2.6,9.8,4.9,19.6,7.7,29.3c1.8,5.9,4.7,6.7,9.8,3.6c-8.6-20.7-15.3-57-13-73.7
			c6.1,10.6,10.1,20.8,13.2,31c5.9,19.3,10.4,39,15.9,58.5c1.3,4.5,4.1,8.5,6.5,13.3c5.3-4.1,3-8.3,2.3-11.8
			c-1-4.8-3.2-9.3-4.3-14.1c-0.5-2-0.5-5.6,0.5-6.3c6.3-3.8,4.2-9.5,4.1-14.7c-0.1-3-0.5-6-0.7-9.4c7.8,0.2,14.4,0.4,20.5,3.3
			c11.7,5.5,23.5,10.9,35.3,16.4c2.7,1.2,5.4,2.5,8-1.9c-2-1.7-3.8-3.9-6.1-5.2c-6.5-3.7-13-7.4-19.9-10.5
			c-13.6-6.1-27.1-13.1-42.8-12.2c-1.4,0.1-3.4-1.1-4.3-2.3c-2.3-2.9-4.5-6-6.2-9.3c-2.4-4.7-5.4-9.5-3.4-15.7
			c1.8,0.4,3.2,0.5,4.5,1c19.3,7,38.5,14,57.8,21c3.1,1.1,6,3.6,10.1,1.5c-0.5-5.6-5.1-7.1-8.8-8.6c-20.5-8.4-41.2-16.6-61.9-24.7
			c-2.8-1.1-6.1-1.2-9.6-1.9c-2.7-3.4-6-7.1-8.7-11.1c-1.1-1.7-1.1-4.2-1.6-6.3c2.1-0.4,4.3-1.6,6.2-1.2c8.7,1.9,17.4,4,26,6.4
			c9.7,2.7,19.3,5.9,29,8.8c3.5,1,7,2.6,11.8-0.8c-2.8-1.9-4.8-3.8-7.2-4.7c-7-2.7-14.1-5.1-21.2-7.5c-11.7-4-23.5-7.8-35.1-12
			c-6.9-2.5-12.8-1.9-17.4,6.5c-3.9-6.6-7-11.9-10.1-17.2c1.2,0.6,2.4,1.1,3.5,1.7c6.7,4.1,10.1,2.5,12-5.5c0.2-0.7,0.8-1.4,1.2-2.2
			c1.3,0,2.5-0.3,3.5,0c11,3.7,22,7.2,32.8,11.3c9.7,3.7,19.2,8,28.8,12c2.7,1.1,5.5,3.2,8.5,0.4c-2.4-5.2-6.8-7.5-11.2-9.5
			c-21.8-9.9-43.6-20.1-67.1-25.2c-10.9-2.4-15.4-10.3-22.3-17.5c16-1.8,30.2,2.6,44.3,6.6c19.1,5.4,37.9,12.1,56.9,18.2
			c2.3,0.7,4.8,2.6,7.3-0.7c-3.9-4.9-9.3-7.4-14.9-9.2c-17.2-5.8-34.4-11.6-51.9-16.7c-16.3-4.7-32.8-9.3-50.1-7.6
			c-0.8,0.1-1.9-0.1-2.5-0.6c-4.8-4.3-9.9-8.4-13.6-14.7c1.9-0.3,3-0.7,4-0.5c19,3.1,38.1,5.7,57,9.5c13,2.6,25.6,6.8,38.4,10.3
			c2.9,0.8,6.1,2.7,8.3-2.1c-1.1-1.2-2.1-2.8-3.5-3.4c-5.3-2.3-10.5-4.8-16-6.4c-26.6-7.9-54.1-11.3-81.3-16.2
			c-3.5-0.6-7.3,0.9-11,1c-2.1,0.1-4.9,0.3-6.4-0.8c-5.4-4-10.3-8.6-15.4-13c12.1-0.7,23.6-0.8,35,0.9c20.3,2.9,40.4,6.9,60.6,10.2
			c2.6,0.4,5.7,1.6,9.1-3.3c-2.1-0.8-3.9-1.7-5.7-2.2c-7.5-2.1-14.9-4.5-22.5-5.9c-12.2-2.2-24.5-3.9-36.8-5.5
			c-17.1-2.3-34.1-5.7-51.5-5c-6.2,0.3-10.9-3.4-16.2-8.3c3.9-1,6.6-1.9,9.4-2.5c15.5-3,31-1.5,46.5-0.5
			c20.7,1.3,40.2,7.2,59.4,14.8c2.7,1.1,6.6,5.5,8.7,0.5c1.5-3.6-3.1-5.8-6.1-7.1c-5-2.2-10.2-4-15.5-5.6c-11.4-3.3-22.6-7.5-34.3-9
			c-20.5-2.8-41.3-3.9-62.1-2.8c-4.6,0.3-9.2,0.5-13.7,1.6c-7.2,1.7-10.9,0.5-15.8-7.4c12-0.8,23.5-1.8,34.9-2.2
			c11.2-0.4,22.5-0.7,33.7,0c11.3,0.7,22.5,2.8,33.9,4.4c0.3-4.2-2.3-5.8-5-6.6c-5.8-1.7-11.7-3.1-17.6-4.4
			c-4.1-0.9-8.3-1.5-12.4-2.2c3-2.5,4.5-5.6,0.5-8.3c-9-6.1-19.9-6.3-30-9.1c-3.6-1-8,0.5-12,0.9c-15.6,1.7-31.1,0.5-46.7-2.2
			c4.4-2.3,8.9-4.8,13.5-5.1c15.5-1.1,31.1-1.5,46.6-2.2c2-0.1,4.2,0.2,5.9-0.6c5.2-2.4,10.9-4.4,15.1-7.9
			c7.7-6.5,16.6-10.3,25.4-14.6c2.4-1.2,5.3-2.1,5.9-6.1c-5.4-1.3-10.2,0-14.5,1.8c-15.7,6.6-32.3,8.5-49.1,8.9
			c-9.2,0.2-18.4,1.1-27.7,1.1c-5.2,0-10.6,1.3-16.4-1.3c4.7-4.3,8.4-8,14.9-5.9c2.6,0.8,5.7-0.1,8.6-0.2c6.1-0.3,12.1-0.6,18.2-1
			c19.9-1.5,39.8-2.9,59.6-4.7c8.4-0.8,16.3-3.6,23.5-8.3c2.1-1.3,4-2.6,1.6-6.4c-2.9,0.6-6.1,1.3-9.3,2.1c-7.5,1.8-15,4.5-22.6,5.3
			c-12.3,1.3-24.8,1.5-37.2,2c-9.9,0.4-19.8,0.5-29.7,0.8c0.5-1.7,1.1-2.4,1.8-2.4c13.8-1.3,27.6-2.1,41.3-3.8
			c16.9-2,33.7-4.6,50.5-7.1c15.7-2.3,31.4-4.6,46.9-7.6c5.3-1,10.3-3.7,15.2-6c2.8-1.4,4.4-3.8,0.3-7.2c4.3-1,7.8-1.5,11-2.7
			c3-1.2,5.7-3.1,8.5-4.7c-0.2-0.7-0.4-1.4-0.6-2.2c-3.3-0.1-6.7-0.6-9.9-0.1c-16.2,2.6-32.4,5.7-49,5c-16.7-0.8-33.4-1.3-50.1-2
			c-1.5-0.1-2.9-0.9-4.3-1.4c1.9-1.9,3.8-3,5.4-2.6c9.9,2.7,20,2.3,30,2.1c9.5-0.2,19-0.7,28.6-1.2c21-1.3,42.1-2.3,63.1-4.1
			c7.4-0.6,15.3-2,21.9-5.1c7.7-3.7,14.9-3,22.7-2.6c10.1,0.5,20.2,0.3,30.3-0.4c4.8-0.3,9.5-2.2,14.1-3.8c1.9-0.7,4.4-2,2.5-6.2
			c-14.9,2.3-30.2,5.1-45.8,2.9c-15.7-2.2-31.4-4.5-47.1-6.1c-16.8-1.7-37.6-7.2-44.5-13.1c10.3-3.7,20.2-7.2,30.9-11
			c-0.1,4.9,2.5,6.5,6.3,7.3c10.2,2.2,20.2,4.9,30.4,6.7c19.3,3.4,38.6,6.7,58.1,9.3c6.4,0.8,13.2-0.6,19.7-1.3
			c2.5-0.3,4.7-1.7,5.4-4.9c-18.4-2-36.4-3.3-54.2-6c-18-2.8-36.1-6.2-52.8-15c6.1-1.5,12.1-3,18-4.4c3,6.1,3,6.4,8.2,7
			c8.6,0.9,17.2,1.6,25.8,2c10.9,0.4,21.9,0.5,32.8,0.5c6.7,0,13.4-0.2,19.6-4c-24.3-6.5-49.5-3.4-74.9-8c14.2-5.4,27-7.4,41.2-3.6
			c24.5,6.7,49.5,11.7,74.3,17.3c3.6,0.8,7.5,1.1,11.2,1c3-0.1,6.2-1,6.6-6c-29.6-4.7-58.2-12.1-86.8-20.5
			c12.4-3.8,24.7-6.9,37.1-9.7c1.9-0.4,4.4,0.3,6.3,1.2c4.4,2,8.4,5,12.9,6.6c7.6,2.7,15.4,5,23.3,6.8c14,3.3,28.1,6.2,42.3,8.9
			c2.8,0.5,5.8-0.3,9.1-0.6c-1.2-5.6-5.3-6.1-8.2-7c-6.3-2-12.9-2.8-19.3-4.5c-13.4-3.4-26.8-6.9-40.1-10.5
			c-1.9-0.5-3.6-2.3-7.1-4.6c6.1-1.3,10.2-2.1,14.2-3c-0.1,0.6-0.2,1.1-0.4,1.7c5,2.5,9.8,6.1,15.1,7.4
			c23.5,5.9,47.2,11.1,70.9,16.5c3.6,0.8,7.2,1.2,11.2-2.7c-8.3-5.5-17.4-6.2-25.7-8.8c-8.5-2.7-17.2-4.9-25.8-7.2
			c-8.5-2.3-17-4.4-25.5-6.5c1.3-1.6,2.3-2,3.4-2.1c12.7-1,25.1,0,37.7,2.6c24.4,5.1,48.5,10.6,70.6,22.8c2.1,1.2,4.6,2.6,8-0.6
			C1240.7,356.8,1239.4,354.1,1237.3,352.8z M880.4,189.7c1.7,6.6,5.6,6.1,9.2,4.7c5-1.9,9.8-4.5,14.9-6.3
			c-18.8,17.1-40.8,30-61,45.2C853.5,217.4,866.2,204,880.4,189.7z M835,242.3c1.7,0.8,3.3,2.3,5,2.3c1.8,0.1,4-0.8,5.6-1.9
			c7.5-5.2,14.9-10.7,22.3-16.1c4-2.9,8.1-5.8,12.8-7.7c-14.3,13.4-30.8,23.6-47.4,34.3C829.7,247.8,832,245,835,242.3z
			 M328.2,352.8c-4.3-0.7-8.5-2.1-12.7-2.4c-5.5-0.3-9.1-2.1-12.5-7c-3.2-4.8-8.8-8.1-13.9-11.4c-11.3-7.4-22.9-14.4-34.4-21.6
			c28.1,9.6,58.3,16,78.8,42.5C331.1,352.8,329.6,353,328.2,352.8z M468.1,380.7c-3.5-6.5-10.7-11-16.4-16.1
			c-10.8-9.7-21.7-19.3-32.6-29c34.2,16.3,52.6,37.9,67.4,56.2C478.4,390.2,472.4,388.7,468.1,380.7z M510.3,489.3
			c11.2-6.5,22.1-12.2,32.3-19c7.3-4.9,13.8-11.2,20.5-17c1.7-1.5,3-3.6,3.8-5.7c0.5-1.3,0.4-3.7-0.4-4.5c-1-0.9-3.6-1.3-4.6-0.6
			c-2.9,1.8-5.5,4.1-7.8,6.7c-11.8,13-26.3,22-43.6,30.7c16.1-15.9,30.6-30.2,46.2-45.6c11.5,6.7,24.2,14.1,37.8,22
			C569.6,477.2,542.1,487.8,510.3,489.3z M588.6,441.5c2.6-8.6-1.7-15.1-6.9-21.4c-11.8-14.1-23.5-28.3-35.2-42.5
			c-0.7-0.8-1.2-1.7-1.8-2.5c26.9,19,45.5,44.4,58.3,74.7C598.4,447.1,593.8,444.5,588.6,441.5z M727.6,823.8c-3.7,0-7.1,0-11.8,0
			c3.7-7.8,7-14.6,10.3-21.4l2.2,0.5C728,809.6,727.8,816.4,727.6,823.8z M721.1,724.8c-3.4,2.2-5.6,6.4-8.2,9.7
			c-2,2.5-3.8,5-5.7,7.5c4.9-9.6,7.4-21,16.6-29.3C725.8,718.3,726,721.7,721.1,724.8z M832.2,612.6c10.8,10.7,21.6,21.4,32.1,32.4
			c3.2,3.4,5.9,7.6,5.5,12.8c-5.2-5.6-10.3-11.2-15.5-16.7c-7.8-8.4-15.8-16.7-23.6-25c-1.3-1.3-2.2-3-2.4-5.6
			C829.6,611.2,831.2,611.6,832.2,612.6z M829.9,645.8c-0.5-6.2-1-11.4-1.5-16.9C836,634,836,634.1,829.9,645.8z M813.6,595.6
			c3.2,3.1,6.4,6.2,9.6,9.3c-0.6,0.7-1.1,1.3-1.7,2c-3.1-3.3-6.1-6.6-9.2-9.9C812.7,596.5,813.2,596,813.6,595.6z M806.2,608.4
			c0.1-0.5,0.6-1,1.1-1.8c5.7,2.9,9.3,7.2,10.3,13.7c2.4,15.1,5.1,30.2,7.3,45.3c0.9,6.4,1,13,1.5,19.5c-2.5-3.3-6-6.2-7.3-9.9
			c-7.4-20.7-11.7-42.2-13-64.2C805.9,610.1,806,609.2,806.2,608.4z M776.5,576.5c3.4,2.7,6.8,4.8,9.4,7.6c1.1,1.2,1.6,3.7,1.2,5.5
			c-2.5,13.3,1.8,25.7,5.3,38c2.1,7.4,4.9,14.6,7.3,21.9C789.1,637.9,773.9,589,776.5,576.5z M771.5,381.8c-0.1-3.7,1.6-9-4.8-7.2
			c0.2-0.4,0.4-1,0.8-1.2c13.9-10.6,27.9-21.2,41.8-31.7c1-0.8,2.2-1.4,3.8-1.4C800.7,355,788.7,370.4,771.5,381.8z M844,293.2
			c1.3-5.5,6.3-7.2,10.3-9.9C851.3,287,848.9,291.5,844,293.2z M791.8,302.2c2.6-4.1,5.4-8.1,8.4-12.7c6.5,4.8,12.8,4.6,19.5,0.9
			c10-5.5,20.3-10.3,30.5-15.5c-19.7,16.8-41.7,29.5-64.6,40.9c-0.5-0.4-1-0.8-1.4-1.2C786.6,310.5,789.1,306.3,791.8,302.2z
			 M775.7,326.4c8.7,2.1,15.7-2.1,22.8-6.7c11.7-7.7,23.9-14.8,35.8-22.2c0.6,0.5,1.1,1,1.7,1.5c-2.8,3.5-5.2,7.5-8.5,10.3
			c-15,12.5-30.8,24-48.3,33.1c-5,2.6-9.9,5.3-14.8,8c-0.5-0.5-1.1-1-1.6-1.6C767.1,341.6,771.2,334.3,775.7,326.4z M764.6,360.6
			c3.7-2.4,8-3.8,12.5-4.6c-7.3,4.1-14.6,8.2-23.2,13.1C754.5,359.8,761.2,362.9,764.6,360.6z M766.4,374.8
			c-1.6,2.7-2.6,6.6-8.1,3.2C761.4,376.8,763.9,375.8,766.4,374.8z M754.5,390.8l1.6,1.1l-3.1,3.9c-0.4-0.3-0.8-0.5-1.2-0.8
			C752.7,393.5,753.6,392.2,754.5,390.8z M732,455.3c0.6,0.5,1.3,1.1,1.9,1.6c-1.6,1.8-3.1,3.6-5,5.7
			C725.7,456.9,730.3,457.1,732,455.3z M727,481.3c-0.7-0.4-1.5-0.8-2.2-1.2c1-2.1,2-4.2,3.4-7.1C731.7,477.8,730.2,479.8,727,481.3
			z M724.4,426.1l1.9,0.7c-1.3,2.7-2.6,5.5-3.8,8.2c-0.7-0.3-1.3-0.6-2-0.9C721.8,431.4,723.1,428.8,724.4,426.1z M725,520.2
			c-4.4,1.1-8.6,5.2-13.9,0.9C715.7,516.9,720.5,518.7,725,520.2z M711.8,507.7c3.9-6,6.5-4.7,10.5-0.3
			C718.4,507.6,715.8,507.6,711.8,507.7z M721.5,448.2c-2.9,2.6-5,4.4-7.8,6.9C714.7,447.4,714.7,447.4,721.5,448.2z M715.4,465.9
			c2.2,7.5-5.5,7.2-8,10.8C706,470.1,710.3,468,715.4,465.9z M711.4,487.5c0.7,5.9,0.7,5.9-6.6,10.4
			C703.2,491.7,703.5,491.2,711.4,487.5z M700.7,544c8.5,2.7,8.6,3,6.5,12.6C701.4,554.8,699.9,552.1,700.7,544z M705.8,607.3
			c3.7,8.8,6.9,16.2,6.6,24.3c-4.2,2.4-7.9,4.5-12.4,7C701.9,628.4,703.7,618.6,705.8,607.3z M689.1,553.7c4.8,3.2,3.9,8.8,5.8,12.9
			c0.6,1.3-1.4,3.8-2.1,5.8c-0.7-0.1-1.5-0.2-2.2-0.4C688.2,566.3,683.4,561,689.1,553.7z M683.5,535.5c2.8,4.8,3.5,8.6-1.8,11.9
			c-1.4-1.7-2.9-3.6-4.8-5.9C679.1,539.5,681.1,537.7,683.5,535.5z M686.1,631.3c3.2,3.5,3.2,4.9-0.7,16.7
			C680.2,641.6,682.3,636.5,686.1,631.3z M676.3,612.4c-8.5-14.7-4.8-27.5,4.4-40.5c2.9,7.1,6.8,13.1,3.1,20.9
			C680.9,598.9,678.9,605.5,676.3,612.4z M671.5,568.9c-3.9-6.3,1.8-10.6,0.4-15.5C676.2,559.1,676.2,559.1,671.5,568.9z
			 M668.4,512.4c-4.1,5.3-8.7,1-14.7-0.6c4.5-3.6,7.7-6.2,11.1-8.9C667,505.6,672.1,507.7,668.4,512.4z M645.2,595.7
			c0.5,3.3-1.5,7-2.6,11.8c-5.7-6.5-5.1-11.5-2.2-16.7c2.9-5.2,5.9-10.4,9.5-16.9c2,3.7,3.3,6,5.1,9.2
			C645.9,583.9,644.1,588.4,645.2,595.7z M632,639c-3-6.8-6.1-13.7-9.8-21.9c1.8-2,4.6-5.1,7.4-8.3C637.8,617.8,638.4,627.3,632,639
			z M638.3,722.3c0.2,1.8-2,3.9-3.9,7.3c-9.1-14.7-5.6-27.3-0.6-40.1C635.4,700.5,637.1,711.4,638.3,722.3z M643.2,544.2
			c-2,6.2-8,6.7-12.3,9.7C630.6,547.3,633.7,544.8,643.2,544.2z M640.8,520.6c4.6-3.2,4.6-3.2,13.3,2.6
			C649.7,522.3,645.3,521.5,640.8,520.6z M620.8,537.1c-1.6-1.8-3.3-3.6-4.8-5.4c6.7-7.1,14-3.3,21.1-1.2
			C631.8,532.6,626.5,534.7,620.8,537.1z M630.1,579.1c-0.8-14.3,0.3-16.3,11.1-19.7C642.2,569.9,638.2,577.3,630.1,579.1z
			 M651.1,611.5c1.1,0.1,2.1,0.2,3.2,0.3c0,2.7,0.4,5.4,0,8c-0.6,4.4,0.8,7.9,3.4,11.3c7.8,10.1,9.6,25,4.2,36.7
			c-0.6-0.5-1.5-0.9-1.7-1.5c-4-13.5-8.3-27-11.5-40.7C647.8,621.2,650.2,616.2,651.1,611.5z M654.2,536.7c3.3-2.6,6-4.1,8.4-0.4
			c0.5,0.7-0.2,3-1.1,3.5C658.2,542,655.8,540.8,654.2,536.7z M666,611.1c3.8,8.4,6.9,15.6,4.3,23.7
			C668,627.4,664.2,620.3,666,611.1z M652,424.4c6.3,13.4,10.8,27.3,12.7,42C658.4,453,649.5,440.5,652,424.4z M652.1,465.7
			c4.4,4,6.7,8.9,5.7,15.6C646.5,479.2,655.4,470.1,652.1,465.7z M651.5,490.2c2.4,2.2,4.8,4.4,8.2,7.4
			c-10.2,3.7-17.5,14.8-30.6,6.8C636.7,499.6,643.6,495.2,651.5,490.2z M632.7,421.5c-1.5-3.1-3.1-6.2-4.6-9.3
			C632.3,413.7,632.9,417.4,632.7,421.5z M625.9,405.7c0.6,1.9,1.2,3.9,1.8,5.8c-1-1.7-2.1-3.5-3.1-5.2
			C625,406.1,625.5,405.9,625.9,405.7z M618,395.5c0.8,0.7,1.6,1.2,2.3,2c0.1,0.2-0.4,0.9-0.6,1.4c-0.9-0.5-1.7-1-2.6-1.5
			C617.6,396.5,617.8,396,618,395.5z M628.4,435.9c-6.3-10.7-13.2-21-19.7-31.5c-1.3-2.1-2.3-4.4-3.4-6.6c0.5-0.4,1.1-0.7,1.6-1.1
			c3.7,4.6,8.2,8.8,11,13.9c7.2,13.1,13.9,26.5,20.4,40c1.9,3.8,2.8,8.2,3.6,12.4c0.4,2.3-0.3,4.7-0.6,7.1c-0.6,0-1.2,0-1.7-0.1
			c-0.2-1.8-0.5-3.6-0.5-5.4C639.3,453.7,633.6,444.8,628.4,435.9z M580,498.5c7.4-3,15.5-6.1,23.3-9.6c4.7-2.1,9.2-4.8,13.5-7.7
			c2.9-1.9,5-4.6,4.1-8.6c6,3.2,12,6.5,18.7,10.1c-1.7,2.3-2.5,4.7-4.2,5.8c-7,4.5-14.1,8.9-21.5,12.8c-2,1.1-5,0.4-7.5,0.2
			C597.6,500.6,588.7,499.5,580,498.5z M584.9,531.4c-2.4,0.5-5.3,0.7-7.6,0c-4.3-1.2-7.6-1.3-12,1c-5,2.6-11.4,2.2-17.4,0.9
			c17.3-6.4,35.1-8.6,53.2-8.8c0.1,0.8,0.3,1.6,0.4,2.5C595.9,528.5,590.5,530.2,584.9,531.4z M603.4,516.8c8-7.1,16-6.1,24.5-2.7
			C622.6,518.7,618.6,519.2,603.4,516.8z M618.4,553.4c2.9,6.6,2.9,6.6-9,13.3c-1.6-3.1-3-5.9-4.6-8.9
			C609.4,556.4,613.9,554.9,618.4,553.4z M611.2,588.2c-1.6-12.3-1.6-12.3,8.6-16.2C621.3,582.4,620.6,584,611.2,588.2z
			 M616.8,598.2c-1.6,1.2-3.1,2.4-5.3,4c-0.8-4.7,2.1-4.7,4-5.5C615.9,597.2,616.4,597.7,616.8,598.2z M607,644.3
			c2.3-4.6,5.2-8.8,8.2-13.8c13.5,17.9,13.9,35.8,5.7,54.5c-4.8-11.9-9.5-23.5-14-35.2C606.2,648.2,606.2,645.8,607,644.3z
			 M615.4,697.6c1.2,4.2,1.1,9.1,0.3,13.5c-1.2,7.3-3.5,14.3-5.3,21.5c-0.6-0.2-1.1-0.4-1.7-0.5c-3-14-6.1-28-9-42.1
			c-1.2-6.1-3.3-11.5-8.6-14.9c2.7-5.1,5.2-9.7,8.4-15.5c2.7,5.2,5.4,9.7,7.4,14.5C610,681.8,613.2,689.6,615.4,697.6z M599.8,622.1
			c-0.2,2-0.3,3.9-0.6,5.7c-0.3,2-0.7,3.9-1,5.7c-5.7,3-11.1,5.9-16.6,8.8C582,629.7,586.7,624.3,599.8,622.1z M583.5,616.6
			c5.3-3.4,10.6-6.9,15.8-10.3c0.3,0.5,0.7,1,1,1.5c-5.3,3.5-10.5,7-15.8,10.5C584.2,617.8,583.8,617.2,583.5,616.6z M582.2,570.4
			c4.9-2.3,9.5-5.3,14.3-8c2.6,7.2,2.4,13.1-4.2,17.7c-2.3,1.6-4.3,3.9-5.8,6.3c-1.5,2.4-2.3,5.3-3.8,9c9.2,0.1,11-8.9,17.5-10.3
			c2.7,7.5,2.5,8.7-3.4,12.8c-4.2,2.9-8.7,5.4-13.5,8.4c-1.8-9.7-3.4-18.6-5.1-27.5C577.5,575,578.3,572.2,582.2,570.4z
			 M567.5,579.3c4.3,10.1,5.5,20.3,7.2,30.3c0.2,1.3-0.8,3.4-2,4.3c-4.1,3.1-8.4,5.8-14.1,9.7c-0.9-12.5-1.7-23.4-2.6-35.6
			C558.9,585.8,562.9,582.8,567.5,579.3z M574.8,625c-4.5,4.8-9.2,9.4-15.2,12.3c-0.4-0.5-0.8-1-1.2-1.5l14.9-12.6
			C573.8,623.8,574.3,624.4,574.8,625z M572.8,639.1c-0.2,10.3-6.3,15.6-13.2,20.6C556.7,651.5,558.5,648.6,572.8,639.1z
			 M530.8,645.6c-0.6,12.9-2.1,25.8-3.5,38.7c-0.2,2.1-1.3,4.7-2.8,6.1c-9,7.9-14.4,17.9-19.4,28.7c0.6-2.8,1.3-5.6,1.6-8.5
			c2.3-18.3,4.3-36.6,2.1-55.1c-1.3-11.3-3.2-14.5-12-20c16.1-13.4,31.9-26.7,48.8-40.7c3.2,7.3,2.6,13.7,3.4,19.8
			c0.4,2.8,0,5.8,0.4,8.6c0.7,5.1-0.1,9.4-3.7,13.6c-3.1,3.7-5.6,8.2-3.1,13.5c2,4.2-1.8,6-3.8,8.6c0-8.5,0.2-17,0-25.4
			c-0.1-3.4-0.6-7-1.6-10.2c-0.8-2.3-2.4-4.7-4.2-6.3c-2.9-2.6-7.7-2.4-9.5-0.1c-2.3,3.1-1.3,6.2,1.2,8.5
			C530.6,631,531.1,638.5,530.8,645.6z M547.9,661.9c0.1,7.9-4.6,12-11.4,14.4C540.2,671.5,544.1,666.7,547.9,661.9z M555,679.5
			c-7.3,5.1-14,11-22,16c1.1-1.6,1.9-3.7,3.4-4.9c12-9.8,24.2-19.4,36.3-29.1c3.4-2.7,6.7-5.4,10.3-7.9c2.5-1.7,5.2-3,8.7-4.9
			c-1.3,7.5-4.2,11.3-10.5,14.2C571.9,667.3,563.5,673.6,555,679.5z M579.5,705.2c2.5-5.1,4.2-10.6,6.9-17.6
			c2.2,2.6,3.7,3.7,4.1,5.1c6,19,11.6,38.1,13.2,58c0.5,6.1-1.7,12.3-2.6,18.5c-0.7,0-1.4,0.1-2.1,0.1c-1.3-4.1-2.6-8.3-3.8-12.4
			c-3.7-13.9-7.3-27.8-14.8-40.3C578.2,712.8,577.5,709.4,579.5,705.2z M527.1,748.8c-15,13-29.3,26.7-43.1,39.4
			c8.1-24.8,57.5-63.9,81.7-75.9c-3,5.7-4.6,9.7-7,13.1c-1.7,2.4-4.6,4-7.1,5.8C543.4,737,534.7,742.2,527.1,748.8z M551.8,767.7
			c5.5-15,12.1-29.7,18.7-45.5c9.8,11.8,14.7,24.1,17.6,37.3c1.7,8.2,3.4,16.4,5,24.6c0.9,4.6,0.2,8.9-1.8,13.4
			c-2.5,5.6-3.9,11.7-5.9,18.3c-2.8-12.9-5-24.7-7.9-36.3c-2-8.1-4.7-16-7.5-23.9c-1.9-5.2-3-5.6-9-6c-2.1,5.4,1,10,2.5,14.8
			c3.7,12.1,7.9,24.1,10.9,36.3c2.1,8.6,3.2,17.7,3.4,26.5c0.2,10.1-3,19.7-8.6,30.6c-1-7.4-2-12.9-2.6-18.4
			c-1.7-15.3-5.6-30-11.8-44.1c-0.2-0.5-0.2-1.3-0.6-1.6C545.4,785.8,548.6,776.4,551.8,767.7z M502.4,820.9
			c-11.8,9.5-23,19.5-35,29.7c16.9-29.2,40.9-50.5,69.3-70.3c-1.1,9.3-3.5,16.1-6.9,22.5c-0.8,1.6-2.7,3.3-4.3,3.6
			C515.8,808,509.5,815.2,502.4,820.9z M526.3,851.7c3-18.3,9.1-36.8,17.2-54.8c13.8,14.8,23.3,77.6,14.3,93
			c-3.9-13.1-7.8-26.3-11.8-39.4c-1.2-3.9-2.7-7.6-4.1-11.4c-1.1-2.8-2.7-5.1-7.4-4.6c0,2.4-0.4,4.9,0.2,7.2
			c1.6,6.1,3.1,12.3,5.6,18.1c5.9,13.7,8.4,28.2,11.1,42.6c1.6,8.7-2.1,16.8-7.3,25.7c-0.6-2.4-1.3-3.6-1.2-4.8
			c1-21.3-2.2-42-9.3-62C532.3,858,529.2,855.4,526.3,851.7z M415.6,1496.3c-1.8-1.8-3.1-3.1-4.5-4.4c-5.3,0.1-8.6,4-12.6,6.8
			c-3.8,2.6-7.9,4.8-12,6.8c-4.2,2.1-9.7,1.5-12.8,6.2c2.7,4.7,6.5,3.8,10.1,3.2c8.7-1.3,16.4-5.3,24-9.3c1.2-0.6,2.3-1.3,4.5-2.5
			c-2.4,6.3-4.1,11.4-6.3,16.3c-0.7,1.6-2.6,3.8-4.1,3.9c-5.5,0.5-9,3.9-12.3,7.4c-6.7,7-15,9.3-24.2,9.7c-3.3,0.1-8.3-1.3-8.5,3.4
			c-0.2,5.1,4.9,3.3,8.1,3.6c1.1,0.1,2.3,0,3.5,0c10.1,0.6,19.6-1.1,28.3-8.1c-0.5,2-0.8,4-1.5,5.9c-1.8,4.2-3.8,8.4-5.8,12.6
			c-0.6,1.3-1,2.9-2,3.8c-12.9,11.1-26.6,19.7-45,18.6c-11.1-0.7-21.7-2.6-32.2-5.9c-1.8-0.6-3.6-1.6-5.5-2.5
			c17.7-42.4,35.3-84.4,53-126.7c24.4,5.8,48,14.5,75,6.6C426.6,1467.8,421.3,1481.7,415.6,1496.3z M496,1282.9
			c-0.5,1.2-1.6,3-2.6,3.1c-5.4,0.5-8.5,4.4-12.4,7.4c-9.2,6.9-19.9,8.8-31,9.3c-1.7,0.1-3.5-0.5-5.1-0.1c-1.1,0.3-2.4,1.5-2.9,2.6
			c-0.3,0.6,0.6,2.4,1.4,2.8c2.6,1.1,5.3,2.4,8,2.7c11.7,1,23-1,33.5-6.4c2.5,5.2,2.5,5.2-3.5,17.7c-4.3-2.4-7.4-0.6-11.2,2.3
			c-7.5,5.8-16.1,8.8-25.9,6.1c-1.8-0.5-4,0.5-6.7,0.9c2.3,6.5,5.7,9.2,11.7,9.6c9.9,0.7,18.5-3,27.9-7.7c-0.2,8.5-5.9,14.3-7,21.5
			c-6.9-3.5-7.3-3.4-12.3,2.3c-7.1,8.1-15.6,12.7-26.7,11.1c-0.6-0.1-1.1-0.2-1.7-0.3c-2.8-0.2-5.8,0.5-6,3.5
			c-0.3,3.3,2.3,5.6,5.4,5.5c6-0.1,12.1-0.3,17.9-1.8c6-1.5,11.7-4.5,18.6-7.3c-2,5.8-3.8,10.8-5.7,15.8c-0.4,1-1.3,2.1-2.2,2.5
			c-12.6,5.9-23.9,15.5-39.3,14.1c-1.4-0.1-2.9,2-4.4,3.1c1.1,1.4,2,3.4,3.5,4.1c1.7,0.9,4,1.2,5.9,0.8c9.2-1.8,19.1-1.5,27.2-7.5
			c0.8-0.6,2-0.8,4.2-1.7c-5.1,12.6-9.5,24.2-14.4,35.5c-0.9,2.2-3.1,4.3-5.3,5.4c-3.3,1.7-6.9,2.9-10.5,3.8
			c-21.6,5.1-42.3,1.6-63.5-6.3c3.3-15.1,10.7-28.2,15.6-42.2c5-14.2,10.3-28.2,15.8-42.2c5.3-13.7,11-27.3,16.5-41
			c5.6-13.9,11.2-27.7,16.6-41.1c14.4,0.5,27.8,1.3,41.3,1.3c13.2,0,25.5-4.3,38.8-10.9C501.6,1269.7,498.9,1276.3,496,1282.9z
			 M551.9,1106.4c-1,3.7-2.9,6.7-6.3,8.9c-6.1,4-12.3,7.3-19.6,8.8c-3.5,0.7-6.9,2.2-11.6,3.7c10.7,9.8,20.2,0.6,29.5,1.1
			c0.1,12.9-4.7,19.4-17.5,23.2c-3.8,1.1-7.9,1.2-11.9,1.7c-1.7,0.2-3.6-0.1-5.1,0.6c-1.4,0.6-3.1,2.1-3.3,3.4
			c-0.2,1.3,0.9,3.7,2.1,4.2c2.5,1.1,5.4,2.2,8,1.9c6.7-0.8,13.4-2.4,20-3.7c0,0,0.2,0.3,0.1,0.6c-1.9,15.1-13.2,18.5-25.6,20.6
			c-2,0.3-4.5-0.5-5.9,0.5c-1.9,1.3-2.9,3.7-4.3,5.7c1.5,1,2.9,2.6,4.6,2.9c7.2,1.4,14.2,0.3,21.8-2.8c0.6,8.4-5.9,14.5-5.1,23.4
			c-5.1-2.4-8.4-1-12.2,1.6c-7,4.7-14,10.5-23.7,8.4c-2.8-0.6-5.2,0.9-5.7,4c-0.5,2.9,1.8,3.9,4,4.8c7.7,3.2,14.7,1.2,21.4-2.7
			c3.9-2.2,7.5-5,11.2-7.5c0.5,0.4,1,0.7,1.5,1.1c-2.8,9.2-5.7,18.4-8.2,26.7c-6.2,2.6-11.7,4.3-16.7,7c-14.8,7.9-30.6,10-46.9,8.8
			c-5.5-0.4-11.7,0.6-17.2-4.5c22.6-58,45.3-116.1,68.3-175c8.4,5.5,17.2,8.8,26.8,8.7c7.2,0,14.4-0.5,21.6-0.7
			c3.1-0.1,6.3-0.1,9.5-0.1C554.3,1097,553.2,1101.7,551.9,1106.4z M586.6,995.9c-5.1,1.9-9.9,2.9-13.7,5.3
			c-7,4.4-14.2,7.6-22.3,8.9c-2.6,0.4-5.6,0.7-5.4,4.2c0.2,3.6,3,4.8,6.2,4.5c2.8-0.3,5.7-0.9,8.4-1.8c7.8-2.9,15.4-6,23.6-9.2
			c-2.1,6-4.2,12-6.6,18.5c-3.5-2.4-7.2-1.8-11.3-0.2c-3.7,1.4-7.8,1.7-11.8,2.4c-1.7,0.3-3.6-0.1-5,0.7c-1.3,0.7-2.4,2.5-2.6,3.9
			c-0.1,0.9,1.3,2.7,2.4,3.1c2.7,0.9,5.5,1.5,8.3,1.5c5.1,0,10.2-0.5,16.1-0.9c0.3,3-0.5,5.6-4.2,7.4c-7.9,3.9-15.1,9.7-24.7,8.6
			c-1-0.1-2.2,0.6-3.2,1.1c-0.7,0.4-1.1,1.2-1.6,1.8c5,9.5,10.8,9.7,28.9,0.5c-2.4,6.5-3.5,12.7-6.8,17.4c-2.5,3.6-7.5,6.7-11.9,7.7
			c-12.2,2.8-24.6,3.2-36.9,0.3c-4.1-1-7.9-3.3-12.3-5.2c10.6-37.4,27.3-72.2,39.9-108.5c0.2,7.6,7,8,11.9,9.7
			c3.6,1.2,8.1,1.1,11.9,0.4c10.3-1.9,20.5-4.4,31.1-6.8C594.1,980,589.8,988.4,586.6,995.9z M635.7,839.3c-0.8,3.4-1.8,6.7-3,9.9
			c-1.4,3.7-2.3,8.9-5.1,10.5c-5.8,3.3-11.9,7.2-19.3,6.4c-2.6-0.3-5.2-0.7-7.8-0.4c-1.4,0.2-3.5,1.3-3.9,2.5
			c-0.4,1.2,0.5,3.8,1.6,4.4c3,1.5,6.3,3,9.6,3.1c5.4,0.2,10.8-0.8,16.2-1.2c1.7,9.8-0.7,11.5-8.8,14c-6.8,2.1-14,2.9-21,4.2
			c-3,0.5-5.8,1.2-5.9,5c-0.1,3.6,2.8,4.1,5.3,4.6c3.6,0.8,7.3,1.3,11,1.9c4.2-1.9,7.4-6.3,12.7-5.5c0.4,1.2,0.9,1.9,0.8,2.3
			c-4.3,14-8.5,28.1-13,42.1c-1.2,3.9-3.6,6.8-7.5,9c-3.9,2.1-7,5.8-10.6,8.6c-11.6,8.7-24.4,11-37.9,5.6c-3.8-1.5-5.7,1.4-8.6,1.6
			c4.1-10.1,8.2-20.2,12.5-30.7c1.9-0.3,4.1-0.6,6.9-1c0.4-3.5,1.5-7,1-10.2c-1.1-8.1,0.7-15.2,3.9-22.6c3.5-7.9,5.8-16.3,8.7-24.4
			c0.9-2.4,2-4.3,4.9-5.4c2.3-0.9,4.8-3.6,5.4-5.9c1.4-5.8,2.5-12,2.4-17.9c-0.1-6.9,1.6-13.1,4.6-19.3c2,0.1,4.7,1.1,5.6,0.2
			c4.3-4.1,9.6-2.7,14.5-3.4c6-0.9,11.9-1.9,17.9-2.9c3.1-0.5,6.1-1.2,10.5-2.1C638,828.3,637,833.8,635.7,839.3z M643,807.6
			c-13.4,5.3-26,11.6-41.4,10.1c0.3-11-1-21.9,5.5-32.7c0.3,5,0.5,9.1,0.7,13c10,3,18.7,0.5,27.3-2.9c3.9-1.5,7.7-3.2,5.2-8.9
			c-8.3-1.4-15.9,5.9-24.6,2c-4.7-20.8,0.2-40.3,7.8-60.5c3.3,5.1,3,10.2,3.9,15c0.9,4.9,1.8,9.5-2.4,13.7c-1.1,1.1-0.4,4.1-0.2,6.3
			c0.2,1.8,0.7,3.7,1.4,5.4c0.5,1.5,1.2,3.9,2.2,4.1c1.7,0.4,4.9-0.2,5.3-1.2c2.4-6.4,7.9-6.9,13.3-7.9c1.1-0.2,2.5-0.7,3-1.6
			c1-1.5,2-3.5,1.8-5.1c-0.1-1-2.5-2.2-4-2.3c-3.4-0.2-6.8,0.3-10.7,0.6c-1.4-6.6-2.6-12.7-4.2-20.4c9.1,6,18.6,5.1,28.7,6.3
			C658.9,764.6,649.2,785.9,643,807.6z M665.2,724.3c-6.3,3.8-12.5,5.6-20.2,4c-0.2-5.9,0.1-11.9-0.6-17.8
			c-1.6-12.3-3.2-24.6-5.7-36.7c-2.4-11.2,2.2-20.7,5.6-30.8c5.9,16.4,11.9,32.6,11.9,51.1c-1.8-0.8-2.7-1.4-3.7-1.5
			c-1.6-0.2-3.9-0.8-4.6-0.1c-1.2,1.3-2.1,3.7-1.7,5.3c1.1,4.8,4,8.2,8.8,9.1c0.6,5-4.3,9.4-0.2,14.8c5.5-2.5,8.8-6.2,9.2-12.3
			c0.2-3,0.1-6.3,5.3-8.7C667.8,709.5,666.5,717.1,665.2,724.3z M665.4,691.7c0.5-3.3,1.1-6.3,1.6-9.6c3.9,4.1,5.7,4.1,6.4,0.1
			c1.3-7.2,2.1-14.5,3.1-21.9c1.5,1.5,3.3,3.3,5.2,5.1c-3.4,9-6.8,18.1-10.4,27.9C669.6,693,667.8,692.4,665.4,691.7z M697.6,689.6
			c-5.7,10-11.2,20.1-17.4,29.9c0.3-9.5,4.7-17.8,7.8-26.3c3.2-8.9,6.7-17.8,10.7-26.5c3.8-8.4,5.8-18,14.5-25.2
			c1.4,10.1,2.6,18.3,3.8,26.7C705.9,671.6,702.4,681.2,697.6,689.6z M714.1,581.9c-5.4-0.6-4.2-4.8-5-8.2
			C714.1,575.3,714.1,575.3,714.1,581.9z M723.7,545.2c-5.3,0.1-7.1-3.7-9.6-6.5C718,539.2,722,539.7,723.7,545.2z M717.7,554.7
			c9.7,3.2,8.7,12.3,12.2,19.5C721.1,571.3,719.3,568.4,717.7,554.7z M727,585.5c8.4,2.9,10.5,10.7,14.1,18
			C733,599.3,729,594,727,585.5z M763.5,580.4c-6.2-1.8-8.9-7.6-13.5-11.1c-4.5-3.4-6.8-7.5-5.4-15.5c3.9,2.9,6.7,5.1,9.5,7.2
			c1.1,0.9,2.2,1.9,3.3,2.7C765,569.4,765,569.4,763.5,580.4z M746.4,526.5c18.7-1.4,37.3-2.7,56-3.7c8.2-0.4,15.9,1.6,22.7,6.4
			c-5.7,0.2-11.3,0.5-17,0.7c-17,0.6-33.9,1.2-50.9,1.9c-5.2,0.2-10.3,0.7-15.5,0.7c-2.7,0-5.3-0.8-8-1.2c0-0.7-0.1-1.5-0.1-2.2
			C737.9,528.2,742.2,526.9,746.4,526.5z M731.5,445c1.7-5,1.7-5,5.7-7.2l1.3,1.2C736.5,440.7,734.5,442.4,731.5,445z M735.8,424.9
			c3.8-6.4,2.8-13.8,11.6-15.4C746.1,416.3,745.5,422.5,735.8,424.9z M744.8,470.1c-3.5-7.9-3.5-7.9,4.4-12.9
			C750.9,463.2,750.3,467.5,744.8,470.1z M740.9,395.4c-0.5-0.4-1-0.8-1.6-1.3c3.3-4.2,3.5-10.7,9-13.2c0.7,0.5,1.4,1,2,1.5
			C747.2,386.7,744.1,391,740.9,395.4z M753.2,428.7l-1.6-1.6c2.2-2.4,4.5-4.8,6.7-7.2c0.6,0.7,1.3,1.3,1.9,2
			C757.9,424.2,755.5,426.5,753.2,428.7z M772.2,391.3c-0.9,9.4-6.9,12.7-12.3,16.3C760.5,400,768,398.1,772.2,391.3z M775.3,442.8
			c-0.8,10.2-0.9,10.3-12.8,12.4c0.1-7.3,0.8-13.4,4.3-19.5c6.3-11.2,11.9-22.9,17.4-34.6c1.9-4,3.5-7.7,8.9-10.4
			c-1.7,3.9-2.8,6.8-4,9.5c-5.5,12.4-10.8,24.8-13.2,38.3C775.6,439.9,775.4,441.4,775.3,442.8z M787,455.6
			c-0.2-0.6-0.4-1.3-0.7-1.9c3.4-1.8,6.7-3.6,10-5.3c4.4,1.9,8.5,3.8,12.8,5.6C801.8,454.5,794.4,455.1,787,455.6z M842,438
			c8.6-0.5,17.2,0,25.9-0.3c12.9-0.4,25.9-1.1,38.8-1.7c3.1-0.1,6.2-0.3,9.3-0.4c-18.5,7.7-38.1,8.2-57.7,8.9
			c-10.6,0.4-21.2,0.5-31.8,0.2c-5.8-0.2-11.6-1.8-17.9-2.8c2.5-6.4,7.7-7.1,12-9.8C826.5,438.3,834,438.5,842,438z M849.9,414.1
			c7.9-3.9,14.7-7.4,21.6-10.5c1.6-0.7,4.3-0.4,5.7,0.6c8.8,6.1,18.9,8,29.1,10.1c0.5,0.1,0.9,0.6,1.3,0.9
			C895.9,417.2,860.6,416.8,849.9,414.1z M920.2,400.3c13.9,2.3,27.8,4.6,41.8,6.9c1.1,0.2,2.1,0.6,3.2,1
			c-25.2,0.4-50.3,1.1-75.8-7.3c4.8-4.4,6.3-10.4,13.4-10.7C905.9,397.7,913,399.1,920.2,400.3z"/>
		<path class="st2" d="M423.5,485.3c-1.9-1.3-4.4-2.1-5.2-3.7c-1.3-2.8,1.3-4.1,3.6-4.8c15.8-4.5,26.7-15.5,37-27.2
			c5.7-6.5,11.7-12.8,17.1-19.5c3.2-4,5.7-8.7,8.3-13.1c3.8-6.4,8.1-9.6,10.9-7.8c2.8,1.9,2.5,7.2-1.8,13.4c-4.3,6.1-9,12.1-14,17.6
			c-12.6,13.8-25.4,27.7-41.3,37.8C433.7,480.8,428.9,482.7,423.5,485.3z"/>
		<path class="st2" d="M737.2,822.5c3.4-2.1,6.8-1.9,9.3,1.2c3.2,4,6,8.2,8.8,12.5c3.2,5.1,6.3,10.3,9.3,15.6
			c9.3,16.3,16.4,33.6,22.3,51.4c1.6,4.8,2.6,9.8,1.4,15.2c-4.3,0-5.6-2.5-6.4-5.3c-5.3-18-12.2-35.4-21.7-51.6
			c-4.3-7.4-9.5-14.4-13.8-21.9c-3.3-5.6-8.6-10.2-9-17.3C737.3,822.4,737.2,822.5,737.2,822.5z"/>
		<path class="st2" d="M371.8,376.8c3,4.4,1.1,8-2,10.7c-6.5,5.7-12.8,11.8-20,16.3c-15.7,9.7-31.9,18.6-48,27.6
			c-4,2.2-8.4,3.9-12.8,5.3c-2.5,0.8-5.3,0.3-8.3,0.4c0.4-6.2,4.8-6.4,7.9-7.9c10.1-5,20.3-9.5,30.3-14.8
			c16.4-8.7,30.9-19.9,43.4-33.7C364.8,377.6,367.6,375.6,371.8,376.8z"/>
		<path class="st2" d="M330.4,444.1c-1.1-0.8-2.8-1.3-3.1-2.2c-0.3-1.1,0.3-3,1.2-3.7c5.2-4.1,10.4-8.2,16-11.7
			c14.1-8.9,27.5-18.7,39.5-30.5c4.3-4.2,9.2-7.8,13.8-11.6c1.8-1.4,3.6-3.2,5.7-3.9c1.6-0.6,4.7-0.4,5.3,0.6c0.9,1.6,1.1,4.7,0.1,6
			c-2.9,3.5-6.3,6.8-10,9.5c-19.6,14.1-39.4,28.1-59.2,42C336.9,440.6,333.8,442.1,330.4,444.1z"/>
		<path class="st2" d="M362.3,456.8c-0.9-6.8,3.2-7.7,5.8-9.6c12.5-9.2,25.4-17.8,37.5-27.6c8.7-7,16.4-15.2,24.2-23.2
			c2.5-2.6,5-4.2,8.2-2.1c3.1,2,2,5.2,0.6,7.8c-1,2-2.6,3.8-4.3,5.3c-19.1,17.2-40.1,31.7-62.2,44.9
			C369.3,454,366.2,455,362.3,456.8z"/>
		<path class="st2" d="M770.2,989.7c-6-2-6.1-6.7-6.9-10.2c-5.3-23.3-14.8-44.8-27.2-65.1c-1.8-2.9-3.3-6.1-4.3-9.4
			c-0.5-1.5,0.7-3.5,1.1-5.3c2,0.6,4.9,0.5,5.9,1.9c3.3,4.4,6.3,9.1,8.6,14c5.9,12.8,11.9,25.6,16.9,38.8c3.1,8,4.6,16.7,6.4,25.1
			C771.1,982.5,770.3,986,770.2,989.7z"/>
		<path class="st2" d="M396.6,745.9c-0.4,1.5-0.7,3-1.1,4.5c-8.6,4.5-17.6,8.4-25.7,13.6c-16.9,10.9-33.4,22.5-50.1,33.7
			c-2.1,1.4-4.7,2.1-8.2,3.7c0.8-5.9,4.1-8,6.8-10.2c30.3-24.9,65.3-48.2,75.4-50.1C394.6,742.5,395.6,744.2,396.6,745.9z"/>
		<path class="st2" d="M763.5,1031.1c-5.6-0.8-5.8-4.1-6.5-6.7c-2.7-9.7-5.5-19.4-7.7-29.2c-3.4-15-9.1-29.1-16-42.7
			c-0.3-0.5-0.5-1-0.8-1.5c-2.6-5.1-2.5-8.4,0.4-9.7c2.8-1.3,6.3,0.5,8.2,5.8c5.5,15.4,10.8,31,15.6,46.6c2.5,8,3.9,16.2,5.5,24.4
			C763.1,1022,763.1,1026.3,763.5,1031.1z"/>
		<path class="st2" d="M392.7,785.6c3.8,0.6,5.4,3.1,5.5,6.6c0.1,3.1,0.3,6.5-0.6,9.4c-3.6,12.7-7.4,25.4-11.6,38
			c-1.1,3.3-3.9,6-5.9,9c-0.7-0.2-1.4-0.4-2.1-0.6c0-2-0.4-4.1,0.1-5.9c1.7-6.1,3.3-12.2,5.6-18.2c3.2-8.5,4.3-17.3,4.3-26.2
			C388.1,790.9,388.4,789.9,392.7,785.6z"/>
		<path class="st2" d="M1174.4,324.1c-1-5.2,1.9-6.9,4.6-8.5c9.7-5.6,19.5-11.1,29.2-16.6c1-0.6,2.2-1.2,3.2-1.1
			c1.3,0.1,3,0.5,3.6,1.4c0.6,0.9,0.4,3-0.3,3.8c-2.3,2.6-4.7,5.2-7.5,7C1197.3,316.7,1187.7,324.2,1174.4,324.1z"/>
		<path class="st1" d="M71.6,2015.6c14.2-0.7,28.4-1,42.7-1.2c1.7-1.2,3.4-2.4,5.1-3.6c-2.8-4.1-10-1.9-10.3-9.7
			c6.2-0.2,12.1-0.8,18-0.5c15,0.7,28.7-3.2,41.4-11.3c-8.4-0.1-16.5,0-24.6-0.5c-3.6-0.2-7.3-1.5-10.7-2.9
			c-1.4-0.6-2.2-2.7-3.8-4.8c2.8-0.7,4.4-1.3,6-1.4c9.2-0.7,18.3-1.2,27.5-2.2c2.4-0.3,5.3-1.4,7-3c4.4-4.3,8.4-3.7,13.1-0.6
			c4.4,2.9,12.2,0.7,15.3-3.6c3.5-4.9,7.2-9.7,10.8-14.5c0.8-1.1,1.3-2.5,2-3.8c-16.6,8.1-33.8,11-51.5,11.9
			c-9.2,0.5-18.5,0.5-27.3-3.1c-4.4-1.8-4.6-2.9-1.7-8.6c3.5,1,7,2.6,10.6,3.1c25.8,3.1,49.8-1.3,72.1-15.4c11-7,13.8-17.9,19-29.4
			c-15.9,6-31.3,6.4-46.5,6.9c-3.5,0.1-7.2-1.7-10.6-3.2c-0.9-0.4-1.5-2.9-1.3-4.3c0.1-0.8,2.1-1.4,3.3-1.8c0.8-0.2,1.7,0,2.6,0.2
			c9.8,2.2,19.5,0.5,29.3-0.7c17.6-2.2,29.9-12.1,38.9-26.9c-13.6,4.2-27.4,6.5-41.7,6.3c-2.6,0-5.3,0-7.7-0.8
			c-1.9-0.6-4.6-2.4-4.7-3.8c-0.3-3.5,3-3.5,5.6-3.7c2.3-0.2,4.6,0.1,6.9-0.1c10.9-0.7,22-0.7,32.2-5.4c2.1-1,4.1-2,6.1-3.1
			c4.4-2.6,6.4-0.8,7.1,3.6c5.7-7.8,10-16.2,13.3-27.2c-5.5,3.1-8.9,6.1-12.9,7c-10.4,2.3-20.9,3.7-31.5,5.1
			c-2.8,0.4-5.9-0.2-8.5-1.3c-1.6-0.7-2.5-3.2-3.6-4.9c1.6-0.8,3.2-2.1,4.9-2.3c3.1-0.3,6.4-0.1,9.5,0.1c13.4,0.8,25-4.5,35.2-12.3
			c4.4-3.4,7.1-3.3,11.2,1.3c2.4-7,4.3-12.8,6.8-20.2c-3.7,1.2-5.5,1.7-7.3,2.4c-10.2,4.3-20.5,8.3-31.6,8.8
			c-5.9,0.3-12-0.6-17.8-1.7c-2.2-0.4-5.2-2.8-3.3-5.8c0.8-1.3,4.1-1.9,5.9-1.4c6.4,1.7,12.6,1.4,18.8-0.3c9.4-2.6,18.6-6.1,28.2-8
			c9.1-1.8,14.2-6.9,16.8-15.4c1.3-4.2,3.9-7.9,4.4-13.1c-2,0.5-3,0.9-4.1,1.1c-11.3,2.4-22.6,4.9-33.9,7.2
			c-2.8,0.6-6.2,1.3-8.8-2.1c2.6-4.1,6.8-4.2,10.6-5.2c11.7-2.9,23.5-5.7,35.2-8.9c7.9-2.2,8.8-3.8,9.5-12.8
			c-18.7,7.7-38.4,10.2-58.2,11.4c-6.3,0.4-12.7-0.4-19-1.3c-3.5-0.5-7.5-1.4-8.2-7.6c5.5,0.2,10.5,0.4,15.5,0.6
			c18.1,0.8,35.6-1.9,53.1-6.5c11.5-3,17.1-14.3,27.6-18.4c0.6-0.2,0.9-1.4,1.2-2.2c3.1-7.4,6.1-14.7,9.8-23.6
			c-4.8,1.7-8.3,2.8-11.7,4.1c-12,4.5-24,8.5-37,7.5c-3-0.2-7.7,0.7-7.6-3.6c0-5.1,5-3.4,8.1-3.5c14.7-0.8,28.5-4.5,40.8-12.8
			c3.3-2.3,6.2-5.8,9.8-7c5.9-1.9,7.7-6.2,9.7-11.1c6.7-16,13.7-31.8,20.6-47.7c3.3-7.7,6.5-15.4,9.7-23.1c0,0,0,0-0.1,0.1
			c5.3-12.2,10.5-24.5,15.8-36.7c-12.6,6.9-25.9,6.5-39.1,6.6c-13.5,0.1-25.9-4.7-38.5-9.1c-1.1,2.1-2.1,3.8-3,5.7
			c-11,24.8-21.8,49.7-32.9,74.5c-2.6,5.8-5.5,11.5-8.6,17c-6.2,11.1-13.5,21.6-18.8,33.1c-13.8,29.6-29.6,58.1-46,86.3
			c-12.3,21.2-24.4,42.6-36.5,63.9c-8.5,15.1-16.6,30.4-25.3,45.4c-10.4,18-21.3,35.7-31.9,53.5c-10.8,18.1-21.5,36.2-32.4,54.2
			c-0.6,0.9-1.2,1.8-1.9,2.7C66.6,2015.9,69.1,2015.7,71.6,2015.6z M301.8,1626.7c0.5-0.9,3.4-1.7,4.4-1.1c11.7,6.8,22.3,0.9,33-2.8
			c5.1-1.8,9.9-4.7,14.8-7.1c2.3-1.1,4.7-1.9,8.1-3.2c0.4,2.8,0.7,4.6,0.9,6.4c-15.2,11.3-32.4,16.9-51.1,18.3
			c-4.3,0.3-8.1-1.6-10.4-5.1C300.7,1630.9,301,1628.2,301.8,1626.7z M289.2,1653.1c2-0.2,4.2-1,5.9-0.5c12.9,4,25,1.1,36.9-3.9
			c3.1-1.3,6.5-2.3,9.9-2.8c1.2-0.2,3.1,1.3,3.9,2.5c0.5,0.7-0.5,2.6-1.2,3.7c-0.6,0.9-1.5,1.8-2.5,2.3
			c-14.8,7.3-30.1,11.3-46.5,5.9c-2.5-0.8-4.6-2.9-6.9-4.4C288.9,1655,289.1,1654.1,289.2,1653.1z M271.7,1685.7
			c7.4,3.3,14.2,5.9,22.1,4.8c6.4-0.9,12.3-2.5,17.9-5.8c3-1.8,5.9-3.6,9-5.1c1.3-0.6,4.3-0.6,4.5-0.1c0.6,1.6,0.9,4,0.2,5.4
			c-1.2,2.1-3.2,4.1-5.2,5.5c-11.3,7.3-23.8,9.9-37.1,8c-3.3-0.5-6.5-2.1-9.6-3.7C270.1,1693,269.6,1690.1,271.7,1685.7z"/>
		<path class="st1" d="M425.1,1270.7c14.4,0.5,27.8,1.3,41.3,1.3c13.2,0,25.5-4.3,38.8-10.9c-3.6,8.6-6.3,15.3-9.2,21.8
			c-0.5,1.2-1.6,3-2.6,3.1c-5.4,0.5-8.5,4.4-12.4,7.4c-9.2,6.9-19.9,8.8-31,9.3c-1.7,0.1-3.5-0.5-5.1-0.1c-1.1,0.3-2.4,1.5-2.9,2.6
			c-0.3,0.6,0.6,2.4,1.4,2.8c2.6,1.1,5.3,2.4,8,2.7c11.7,1,23-1,33.5-6.4c2.5,5.2,2.5,5.2-3.5,17.7c-4.3-2.4-7.4-0.6-11.2,2.3
			c-7.5,5.8-16.1,8.8-25.9,6.1c-1.8-0.5-4,0.5-6.7,0.9c2.3,6.5,5.7,9.2,11.7,9.6c9.9,0.7,18.5-3,27.9-7.7c-0.2,8.5-5.9,14.3-7,21.5
			c-6.9-3.5-7.3-3.4-12.3,2.3c-7.1,8.1-15.6,12.7-26.7,11.1c-0.6-0.1-1.1-0.2-1.7-0.3c-2.8-0.2-5.8,0.5-6,3.5
			c-0.3,3.3,2.3,5.6,5.4,5.5c6-0.1,12.1-0.3,17.9-1.8c6-1.5,11.7-4.5,18.6-7.3c-2,5.8-3.8,10.8-5.7,15.8c-0.4,1-1.3,2.1-2.2,2.5
			c-12.6,5.9-23.9,15.5-39.3,14.1c-1.4-0.1-2.9,2-4.4,3.1c1.1,1.4,2,3.4,3.5,4.1c1.7,0.9,4,1.2,5.9,0.8c9.2-1.8,19.1-1.5,27.2-7.5
			c0.8-0.6,2-0.8,4.2-1.7c-5.1,12.6-9.5,24.2-14.4,35.5c-0.9,2.2-3.1,4.3-5.3,5.4c-3.3,1.7-6.9,2.9-10.5,3.8
			c-21.6,5.1-42.3,1.6-63.5-6.3c3.3-15.1,10.7-28.2,15.6-42.2c5-14.2,10.3-28.2,15.8-42.2c5.3-13.7,11-27.3,16.5-41
			C414.1,1297.9,419.7,1284,425.1,1270.7z"/>
		<path class="st1" d="M429.4,1258.9c22.6-58,45.3-116.1,68.3-175c8.4,5.5,17.2,8.8,26.8,8.7c7.2,0,14.4-0.5,21.6-0.7
			c3.1-0.1,6.3-0.1,9.5-0.1c-1.3,5.2-2.4,9.9-3.7,14.6c-1,3.7-2.9,6.7-6.3,8.9c-6.1,4-12.3,7.3-19.6,8.8c-3.5,0.7-6.9,2.2-11.6,3.7
			c10.7,9.8,20.2,0.6,29.5,1.1c0.1,12.9-4.7,19.4-17.5,23.2c-3.8,1.1-7.9,1.2-11.9,1.7c-1.7,0.2-3.6-0.1-5.1,0.6
			c-1.4,0.6-3.1,2.1-3.3,3.4c-0.2,1.3,0.9,3.7,2.1,4.2c2.5,1.1,5.4,2.2,8,1.9c6.7-0.8,13.4-2.4,20-3.7c0,0,0.2,0.3,0.1,0.6
			c-1.9,15.1-13.2,18.5-25.6,20.6c-2,0.3-4.5-0.5-5.9,0.5c-1.9,1.3-2.9,3.7-4.3,5.7c1.5,1,2.9,2.6,4.6,2.9
			c7.2,1.4,14.2,0.3,21.8-2.8c0.6,8.4-5.9,14.5-5.1,23.4c-5.1-2.4-8.4-1-12.2,1.6c-7,4.7-14,10.5-23.7,8.4c-2.8-0.6-5.2,0.9-5.7,4
			c-0.5,2.9,1.8,3.9,4,4.8c7.7,3.2,14.7,1.2,21.4-2.7c3.9-2.2,7.5-5,11.2-7.5c0.5,0.4,1,0.7,1.5,1.1c-2.8,9.2-5.7,18.4-8.2,26.7
			c-6.2,2.6-11.7,4.3-16.7,7c-14.8,7.9-30.6,10-46.9,8.8C441,1263,434.8,1264,429.4,1258.9z"/>
		<path class="st1" d="M432.8,1451.8c-6.2,16-11.5,29.9-17.2,44.6c-1.8-1.8-3.1-3.1-4.5-4.4c-5.3,0.1-8.6,4-12.6,6.8
			c-3.8,2.6-7.9,4.8-12,6.8c-4.2,2.1-9.7,1.5-12.8,6.2c2.7,4.7,6.5,3.8,10.1,3.2c8.7-1.3,16.4-5.3,24-9.3c1.2-0.6,2.3-1.3,4.5-2.5
			c-2.4,6.3-4.1,11.4-6.3,16.3c-0.7,1.6-2.6,3.8-4.1,3.9c-5.5,0.5-9,3.9-12.3,7.4c-6.7,7-15,9.3-24.2,9.7c-3.3,0.1-8.3-1.3-8.5,3.4
			c-0.2,5.1,4.9,3.3,8.1,3.6c1.1,0.1,2.3,0,3.5,0c10.1,0.6,19.6-1.1,28.3-8.1c-0.5,2-0.8,4-1.5,5.9c-1.8,4.2-3.8,8.4-5.8,12.6
			c-0.6,1.3-1,2.9-2,3.8c-12.9,11.1-26.6,19.7-45,18.6c-11.1-0.7-21.7-2.6-32.2-5.9c-1.8-0.6-3.6-1.6-5.5-2.5
			c17.7-42.4,35.3-84.4,53-126.7C382.2,1451,405.8,1459.7,432.8,1451.8z M401,1484.8c0-0.1,0-0.3,0-0.4c2.3-0.2,4.7,0,6.8-0.7
			c4-1.3,8.2-2.6,11.7-4.9c1.4-0.9,1.9-4.8,1.2-6.8c-1.1-3.1-4.2-2.5-6.6-1.1c-8.7,5.2-18.4,6-28.2,5.9c-2.6,0-4.9,0.3-5.3,3.1
			c-0.4,3.2,2,4.7,4.9,4.8C390.7,1484.8,395.9,1484.7,401,1484.8z"/>
		<path class="st1" d="M540.3,967.7c4.1-10.1,8.2-20.3,12.5-30.8c1.9-0.3,4.1-0.6,6.9-1c0.4-3.5,1.5-7,1-10.2
			c-1.1-8.1,0.7-15.2,3.9-22.6c3.5-7.9,5.8-16.3,8.7-24.4c0.9-2.4,2-4.3,4.9-5.4c2.3-0.9,4.8-3.6,5.4-5.9c1.4-5.8,2.5-12,2.4-17.9
			c-0.1-6.9,1.6-13.1,4.6-19.3c2,0.1,4.7,1.1,5.6,0.2c4.3-4.1,9.6-2.7,14.5-3.4c6-0.9,11.9-1.9,17.9-2.9c3.1-0.5,6.1-1.2,10.5-2.1
			c-1.3,6.5-2.3,12.1-3.6,17.5c-0.8,3.4-1.8,6.7-3,9.9c-1.4,3.7-2.3,8.9-5.1,10.5c-5.8,3.3-11.9,7.2-19.3,6.4
			c-2.6-0.3-5.2-0.7-7.8-0.4c-1.4,0.2-3.5,1.3-3.9,2.5c-0.4,1.2,0.5,3.8,1.6,4.4c3,1.5,6.3,3,9.6,3.1c5.4,0.2,10.8-0.8,16.2-1.2
			c1.7,9.8-0.7,11.5-8.8,14c-6.8,2.1-14,2.9-21,4.2c-3,0.5-5.8,1.2-5.9,5c-0.1,3.6,2.8,4.1,5.3,4.6c3.6,0.8,7.3,1.3,11,1.9
			c4.2-1.9,7.4-6.3,12.7-5.5c0.4,1.2,0.9,1.9,0.7,2.3c-4.3,14-8.5,28.1-13,42.1c-1.2,3.9-3.6,6.8-7.5,9c-3.9,2.1-7,5.8-10.6,8.6
			c-11.6,8.7-24.4,11-37.9,5.6c-3.9-1.6-5.8,1.6-8.8,1.6L540.3,967.7z M609.5,922.9c-2-4.1-5.1-4.5-8.7-2.7
			c-6.7,3.4-13.6,5.8-21.4,5.3c-2.6-0.2-5.7,1-5.2,4.3c0.3,1.6,2.8,3.4,4.7,4c6.9,2.1,13.6,0.2,20.3-1.6
			C604.5,930.8,607.9,928,609.5,922.9z M594,847.8c9.5,5.1,17.6,4.9,25.7,3.3c1.5-0.3,3.1-3.1,3.3-5c0.1-1.2-2.1-3.9-3.3-3.9
			c-7.6,0.1-15.2,0.1-22.4,3C596.6,845.7,596,846.3,594,847.8z"/>
		<path class="st1" d="M540.2,967.6c-0.1,8,6.9,8.5,11.9,10.1c3.6,1.2,8.1,1.1,11.9,0.4c10.3-1.9,20.5-4.4,31.1-6.8
			c-1.1,8.6-5.3,17.1-8.5,24.5c-5.1,1.9-9.9,2.9-13.7,5.3c-7,4.4-14.2,7.6-22.3,8.9c-2.6,0.4-5.6,0.7-5.4,4.2c0.2,3.6,3,4.8,6.2,4.5
			c2.8-0.3,5.7-0.9,8.4-1.8c7.8-2.9,15.4-6,23.6-9.2c-2.1,6-4.2,12-6.6,18.5c-3.5-2.4-7.2-1.8-11.3-0.2c-3.7,1.4-7.8,1.7-11.8,2.4
			c-1.7,0.3-3.6-0.1-5,0.7c-1.3,0.7-2.4,2.5-2.6,3.9c-0.1,0.9,1.3,2.7,2.4,3.1c2.7,0.9,5.5,1.5,8.3,1.5c5.1,0,10.2-0.5,16.1-0.9
			c0.3,3-0.5,5.6-4.2,7.4c-7.9,3.9-15.1,9.7-24.7,8.6c-1-0.1-2.2,0.6-3.2,1.1c-0.7,0.4-1.1,1.2-1.6,1.8c5,9.5,10.8,9.7,28.9,0.5
			c-2.4,6.5-3.5,12.7-6.8,17.4c-2.5,3.6-7.5,6.7-11.9,7.7c-12.2,2.8-24.6,3.2-36.9,0.3c-4.1-1-7.9-3.3-12.3-5.2
			c10.6-37.6,27.4-72.5,40-108.9C540.3,967.7,540.2,967.6,540.2,967.6z M547,989.8c0.1,0.7,0.1,1.4,0.2,2.1c1.4,0.8,2.8,2,4.3,2.2
			c11.8,1.4,22.9-1.4,33.6-6.1c1-0.5,2-1.2,2.7-2.1c1.8-2.3,0.8-5.4-2.1-6.1c-1.6-0.3-3.4-0.2-5.1,0.2c-9.2,2.3-18.4,4.6-27.6,7.1
			C550.9,987.8,549,988.9,547,989.8z"/>
		<path class="st1" d="M585.3,815.8c-2.8-12.9-5-24.7-7.9-36.3c-2-8.1-4.7-16-7.5-23.9c-1.9-5.2-3-5.6-9-6c-2.1,5.4,1,10,2.5,14.8
			c3.7,12.1,7.9,24.1,10.9,36.3c2.1,8.6,3.2,17.7,3.4,26.5c0.2,10.1-3,19.7-8.6,30.6c-1-7.4-2-12.9-2.6-18.4
			c-1.7-15.3-5.6-30-11.8-44.1c-0.2-0.5-0.2-1.3-0.6-1.6c-8.7-8-5.5-17.4-2.3-26.1c5.5-15,12.1-29.7,18.7-45.5
			c9.8,11.8,14.7,24.1,17.6,37.3c1.7,8.2,3.4,16.4,5,24.6c0.9,4.6,0.2,8.9-1.8,13.4C588.7,803,587.4,809.1,585.3,815.8z"/>
		<path class="st1" d="M640.4,786.3c-8.3-1.4-15.9,5.9-24.6,2c-4.7-20.8,0.2-40.3,7.8-60.5c3.3,5.1,3,10.2,3.9,15
			c0.9,4.9,1.8,9.5-2.4,13.7c-1.1,1.1-0.4,4.1-0.2,6.3c0.2,1.8,0.7,3.7,1.4,5.4c0.5,1.5,1.2,3.9,2.2,4.1c1.7,0.4,4.9-0.2,5.3-1.2
			c2.4-6.4,7.9-6.9,13.3-7.9c1.1-0.2,2.5-0.7,3-1.6c1-1.5,2-3.5,1.8-5.1c-0.1-1-2.5-2.2-4-2.3c-3.4-0.2-6.8,0.3-10.7,0.6
			c-1.4-6.6-2.6-12.7-4.2-20.4c9.1,6,18.6,5.1,28.7,6.3c-2.5,24-12.3,45.3-18.5,67c-13.4,5.3-26,11.6-41.4,10.1
			c0.3-11-1-21.9,5.5-32.7c0.3,5,0.5,9.1,0.7,13c10,3,18.7,0.5,27.3-2.9C639,793.7,642.9,792,640.4,786.3z"/>
		<path class="st1" d="M496.8,635.5c16.1-13.4,31.9-26.7,48.8-40.7c3.2,7.3,2.6,13.7,3.4,19.8c0.4,2.8,0,5.8,0.4,8.6
			c0.7,5.1-0.1,9.4-3.7,13.6c-3.1,3.7-5.6,8.2-3.1,13.5c2,4.2-1.8,6-3.8,8.6c0-8.5,0.2-17,0-25.4c-0.1-3.4-0.6-7-1.6-10.2
			c-0.8-2.3-2.4-4.7-4.2-6.3c-2.9-2.6-7.7-2.4-9.5-0.1c-2.3,3.1-1.3,6.2,1.2,8.5c5.9,5.6,6.4,13,6.1,20.1
			c-0.6,12.9-2.1,25.8-3.5,38.7c-0.2,2.1-1.3,4.7-2.8,6.1c-9,7.9-14.4,17.9-19.4,28.7c0.6-2.8,1.3-5.6,1.6-8.5
			c2.3-18.3,4.3-36.6,2.1-55.1C507.5,644.2,505.6,641,496.8,635.5z"/>
		<path class="st1" d="M557.8,889.8c-3.9-13.1-7.8-26.3-11.8-39.4c-1.2-3.9-2.7-7.6-4.1-11.4c-1.1-2.8-2.7-5.1-7.4-4.6
			c0,2.4-0.4,4.9,0.2,7.2c1.6,6.1,3.1,12.3,5.6,18.1c5.9,13.7,8.4,28.2,11.1,42.6c1.6,8.7-2.1,16.8-7.3,25.7
			c-0.6-2.4-1.3-3.6-1.2-4.8c1-21.3-2.2-42-9.3-62c-1.2-3.3-4.3-5.9-7.2-9.6c3-18.3,9.1-36.8,17.2-54.8
			C557.3,811.6,566.8,874.5,557.8,889.8z"/>
		<path class="st1" d="M594.4,456.3c-24.9,20.9-52.3,31.5-84.1,33c11.2-6.5,22.1-12.2,32.3-19c7.3-4.9,13.8-11.2,20.5-17
			c1.7-1.5,3-3.6,3.8-5.7c0.5-1.3,0.4-3.7-0.4-4.5c-1-0.9-3.6-1.3-4.6-0.6c-2.9,1.8-5.5,4.1-7.8,6.7c-11.8,13-26.3,22-43.6,30.7
			c16.1-15.9,30.6-30.2,46.2-45.6C568.1,441,580.8,448.4,594.4,456.3z"/>
		<path class="st1" d="M644.3,643c5.9,16.4,11.9,32.6,11.9,51.1c-1.8-0.8-2.7-1.4-3.7-1.5c-1.6-0.2-3.9-0.8-4.6-0.1
			c-1.2,1.3-2.1,3.7-1.7,5.3c1.1,4.8,4,8.2,8.8,9.1c0.6,5-4.3,9.4-0.2,14.8c5.5-2.5,8.8-6.2,9.2-12.3c0.2-3,0.1-6.3,5.3-8.7
			c-1.5,8.7-2.8,16.3-4.1,23.5c-6.3,3.8-12.5,5.6-20.2,4c-0.2-5.9,0.1-11.9-0.6-17.8c-1.6-12.3-3.2-24.6-5.7-36.7
			C636.3,662.6,640.8,653.1,644.3,643z"/>
		<path class="st1" d="M586.4,687.6c2.2,2.6,3.7,3.7,4.1,5.1c6,19,11.6,38.1,13.2,58c0.5,6.1-1.7,12.3-2.6,18.5
			c-0.7,0-1.4,0.1-2.1,0.1c-1.3-4.1-2.6-8.3-3.8-12.4c-3.7-13.9-7.3-27.8-14.8-40.3c-2.2-3.7-3-7.1-0.9-11.3
			C581.9,700.1,583.7,694.6,586.4,687.6z"/>
		<path class="st1" d="M467.4,850.6c16.9-29.2,40.9-50.5,69.3-70.3c-1.1,9.3-3.5,16.1-6.9,22.5c-0.8,1.6-2.7,3.3-4.3,3.6
			c-9.8,1.6-16.1,8.7-23.2,14.4C490.7,830.4,479.4,840.4,467.4,850.6z"/>
		<path class="st1" d="M565.7,712.3c-3,5.7-4.6,9.7-7,13.1c-1.7,2.4-4.6,4-7.1,5.8c-8.2,5.9-16.9,11.1-24.5,17.6
			c-15,13-29.3,26.7-43.1,39.4C492.1,763.3,541.5,724.2,565.7,712.3z"/>
		<path class="st1" d="M608.8,732.1c-3-14-6.1-28-9-42.1c-1.2-6.1-3.3-11.5-8.6-14.9c2.7-5.1,5.2-9.7,8.4-15.5
			c2.7,5.2,5.4,9.7,7.4,14.5c3.2,7.7,6.3,15.5,8.6,23.5c1.2,4.2,1.1,9.1,0.3,13.5c-1.2,7.3-3.5,14.3-5.3,21.5
			C609.9,732.4,609.4,732.3,608.8,732.1z"/>
		<path class="st1" d="M836.1,299c-2.8,3.5-5.2,7.5-8.5,10.3c-15,12.5-30.8,24-48.3,33.1c-5,2.6-9.9,5.3-14.8,8
			c-0.5-0.5-1.1-1-1.6-1.6c4.2-7.3,8.3-14.6,12.8-22.4c8.7,2.1,15.7-2.1,22.8-6.7c11.7-7.7,23.9-14.8,35.8-22.2
			C834.9,298,835.5,298.5,836.1,299z"/>
		<path class="st1" d="M254.8,310.3c28.1,9.6,58.3,16,78.8,42.5c-2.4,0-3.9,0.2-5.3,0c-4.3-0.7-8.5-2.1-12.7-2.4
			c-5.5-0.3-9.1-2.1-12.5-7c-3.2-4.8-8.8-8.1-13.9-11.4C277.8,324.5,266.2,317.5,254.8,310.3z"/>
		<path class="st1" d="M713.2,641.5c1.4,10.1,2.6,18.3,3.8,26.7c-11,3.4-14.6,13-19.4,21.3c-5.7,10-11.2,20.1-17.4,29.9
			c0.3-9.5,4.7-17.8,7.8-26.3c3.2-8.9,6.7-17.8,10.7-26.5C702.6,658.3,704.6,648.7,713.2,641.5z"/>
		<path class="st1" d="M620.8,472.5c6,3.3,12.1,6.5,18.9,10.2c-1.7,2.3-2.5,4.7-4.2,5.8c-7,4.5-14.1,8.9-21.5,12.8
			c-2,1.1-5,0.4-7.5,0.2c-8.8-0.9-17.6-2-26.3-3c7.4-3,15.5-6.1,23.3-9.6c4.7-2.1,9.2-4.8,13.5-7.7c3-2,5.1-4.8,4.1-8.8
			C620.9,472.4,620.8,472.5,620.8,472.5z"/>
		<path class="st1" d="M915.9,435.6c-18.5,7.7-38.1,8.2-57.7,8.9c-10.6,0.4-21.2,0.5-31.8,0.2c-5.8-0.2-11.6-1.8-17.9-2.8
			c2.5-6.4,7.7-7.1,12-9.8c6,6.3,13.5,6.4,21.5,5.9c8.6-0.5,17.2,0,25.9-0.3c12.9-0.4,25.9-1.1,38.8-1.7
			C909.7,435.8,912.8,435.7,915.9,435.6z"/>
		<path class="st1" d="M826.5,685.2c-2.5-3.3-6.1-6.3-7.5-10.1c-7.4-20.7-11.7-42.2-13-64.2c-0.1-0.8,0-1.7,0.2-2.6
			c0.1-0.5,0.6-1,1.1-1.8c5.7,2.9,9.3,7.2,10.3,13.7c2.4,15.1,5.1,30.2,7.3,45.3c1,6.5,1,13.2,1.5,19.8
			C826.3,685.4,826.5,685.2,826.5,685.2z"/>
		<path class="st1" d="M615.2,630.5c13.5,17.9,13.9,35.8,5.7,54.5c-4.8-11.9-9.5-23.5-14-35.2c-0.6-1.6-0.6-4.1,0.1-5.6
			C609.3,639.7,612.2,635.5,615.2,630.5z"/>
		<path class="st1" d="M558.7,623.6c-0.9-12.5-1.7-23.4-2.6-35.6c2.8-2.1,6.9-5.2,11.4-8.6c4.3,10.1,5.5,20.3,7.2,30.3
			c0.2,1.3-0.8,3.4-2,4.3C568.7,617,564.3,619.7,558.7,623.6z"/>
		<path class="st1" d="M825.4,529.2c-5.8,0.2-11.5,0.5-17.3,0.7c-17,0.6-33.9,1.2-50.9,1.9c-5.2,0.2-10.3,0.7-15.5,0.7
			c-2.7,0-5.3-0.8-8-1.2c0-0.7-0.1-1.5-0.1-2.2c4.2-0.9,8.5-2.2,12.7-2.5c18.7-1.4,37.3-2.7,56-3.7c8.2-0.4,16,1.6,22.9,6.5
			C825.4,529.3,825.4,529.2,825.4,529.2z"/>
		<path class="st1" d="M880.4,189.7c1.7,6.6,5.6,6.1,9.2,4.7c5-1.9,9.8-4.5,14.9-6.3c-18.8,17.1-40.8,30-61,45.2
			C853.5,217.4,866.2,204,880.4,189.7z"/>
		<path class="st1" d="M596.5,562.3c2.6,7.2,2.4,13.1-4.2,17.7c-2.3,1.6-4.3,3.9-5.8,6.3c-1.5,2.4-2.3,5.3-3.8,9
			c9.2,0.1,11-8.9,17.5-10.3c2.7,7.5,2.5,8.7-3.4,12.8c-4.2,2.9-8.7,5.4-13.5,8.4c-1.8-9.7-3.4-18.6-5.1-27.5
			c-0.7-3.8,0.1-6.6,4-8.4C587.1,568.1,591.7,565.1,596.5,562.3z"/>
		<path class="st1" d="M850.1,274.9c-19.7,16.8-41.7,29.5-64.6,40.9c-0.5-0.4-1-0.8-1.4-1.2c2.6-4.2,5.1-8.3,7.7-12.4
			c2.6-4.1,5.4-8.1,8.4-12.7c6.5,4.8,12.8,4.6,19.5,0.9C829.6,284.9,839.9,280.1,850.1,274.9z"/>
		<path class="st2" d="M248.1,1880.8c-13.6,4.2-27.4,6.5-41.7,6.3c-2.6,0-5.3,0-7.7-0.8c-1.9-0.6-4.6-2.4-4.7-3.8
			c-0.3-3.5,3-3.5,5.6-3.7c2.3-0.2,4.6,0.1,6.9-0.1c10.9-0.7,22-0.7,32.2-5.4c2.1-1,4.1-2,6.1-3.1c4.4-2.6,6.4-0.8,7.1,3.6
			C250.6,1876.1,249.3,1878.5,248.1,1880.8z"/>
		<path class="st1" d="M965.2,408.2c-25.2,0.4-50.3,1.1-75.8-7.3c4.8-4.4,6.3-10.4,13.4-10.7c3.2,7.5,10.2,8.9,17.4,10.1
			c13.9,2.3,27.8,4.6,41.8,6.9C963.1,407.4,964.1,407.9,965.2,408.2z"/>
		<path class="st1" d="M419.1,335.6c34.2,16.3,52.6,37.9,67.4,56.2c-8.1-1.7-14.1-3.2-18.4-11.1c-3.5-6.5-10.7-11-16.4-16.1
			C440.9,354.9,430,345.3,419.1,335.6z"/>
		<path class="st1" d="M544.7,375.1c26.9,19,45.5,44.4,58.3,74.7c-4.6-2.7-9.2-5.3-14.3-8.3c2.6-8.6-1.7-15.1-6.9-21.4
			c-11.8-14.1-23.5-28.3-35.2-42.5C545.9,376.8,545.3,375.9,544.7,375.1z"/>
		<path class="st1" d="M799.9,649.5c-10.8-11.6-26.1-60.5-23.4-73c3.4,2.7,6.8,4.8,9.4,7.6c1.1,1.2,1.6,3.7,1.2,5.5
			c-2.5,13.3,1.8,25.7,5.3,38C794.7,635,797.4,642.2,799.9,649.5z"/>
		<path class="st1" d="M762.5,455.2c0.1-7.3,0.8-13.4,4.3-19.5c6.3-11.2,11.9-22.9,17.4-34.6c1.9-4,3.5-7.7,8.9-10.4
			c-1.7,3.9-2.8,6.8-4,9.5c-5.5,12.4-10.8,24.8-13.2,38.3c-0.3,1.4-0.4,2.9-0.6,4.3C774.4,453,774.4,453.1,762.5,455.2z"/>
		<path class="st1" d="M654.3,611.7c0,2.7,0.4,5.4,0,8c-0.6,4.4,0.8,7.9,3.4,11.3c7.8,10.1,9.6,25,4.2,36.7
			c-0.6-0.5-1.5-0.9-1.7-1.5c-4-13.5-8.3-27-11.5-40.7c-1-4.3,1.5-9.3,2.3-14C652.2,611.6,653.2,611.6,654.3,611.7z"/>
		<path class="st1" d="M907.7,415.2c-11.7,2-47,1.6-57.7-1.1c7.9-3.9,14.7-7.4,21.6-10.5c1.6-0.7,4.3-0.4,5.7,0.6
			c8.8,6.1,18.9,8,29.1,10.1C906.8,414.4,907.2,414.9,907.7,415.2z"/>
		<path class="st1" d="M766.6,374.7c0.3-0.5,0.5-1.1,0.9-1.4c13.9-10.6,27.9-21.2,41.8-31.7c1-0.8,2.2-1.4,3.8-1.4
			c-12.6,14.9-24.5,30.2-41.7,41.6c-0.1-3.7,1.7-9.1-5-7.1L766.6,374.7z"/>
		<path class="st1" d="M676.3,612.4c-8.5-14.7-4.8-27.5,4.4-40.5c2.9,7.1,6.8,13.1,3.1,20.9C680.9,598.9,678.9,605.5,676.3,612.4z"
			/>
		<path class="st1" d="M591.7,648.7c-1.3,7.5-4.2,11.3-10.5,14.2c-9.3,4.3-17.7,10.6-26.1,16.6c-7.3,5.1-14,11-22,16
			c1.1-1.6,1.9-3.7,3.4-4.9c12-9.8,24.2-19.4,36.3-29.1c3.4-2.7,6.7-5.4,10.2-7.9C585.4,652,588.2,650.7,591.7,648.7z"/>
		<path class="st1" d="M607,396.7c3.7,4.6,8.2,8.8,11,13.9c7.2,13.1,13.9,26.5,20.4,40c1.9,3.8,2.8,8.2,3.6,12.4
			c0.4,2.3-0.3,4.7-0.6,7.1c-0.6,0-1.2,0-1.7-0.1c-0.2-1.8-0.5-3.6-0.5-5.4c0-11-5.7-19.8-10.9-28.7c-6.3-10.7-13.2-21-19.7-31.5
			c-1.3-2.1-2.3-4.4-3.4-6.6C605.9,397.4,606.4,397,607,396.7z"/>
		<path class="st1" d="M869.9,658c-5.2-5.6-10.4-11.3-15.6-16.9c-7.8-8.4-15.8-16.7-23.6-25c-1.3-1.3-2.2-3-2.4-5.6
			c1.3,0.7,2.8,1.1,3.8,2.1c10.8,10.7,21.6,21.4,32.1,32.4c3.3,3.5,6,7.8,5.5,13.1C869.8,658.1,869.9,658,869.9,658z"/>
		<path class="st1" d="M601.4,527c-5.5,1.5-10.9,3.2-16.5,4.5c-2.4,0.5-5.3,0.7-7.6,0c-4.3-1.2-7.6-1.3-12,1
			c-5,2.6-11.4,2.2-17.4,0.9c17.3-6.4,35.1-8.6,53.2-8.8C601.2,525.3,601.3,526.1,601.4,527z"/>
		<path class="st1" d="M634.4,729.6c-9.1-14.7-5.6-27.3-0.6-40.1c1.6,10.9,3.3,21.8,4.5,32.8C638.5,724.1,636.3,726.2,634.4,729.6z"
			/>
		<path class="st1" d="M629.1,504.4c7.5-4.8,14.4-9.1,22.4-14.2c2.4,2.2,4.8,4.4,8.2,7.4C649.5,501.3,642.2,512.4,629.1,504.4z"/>
		<path class="st1" d="M632,639c-3-6.8-6.1-13.7-9.8-21.9c1.8-2,4.6-5.1,7.4-8.3C637.8,617.8,638.4,627.3,632,639z"/>
		<path class="st1" d="M744.6,553.7c3.9,2.9,6.7,5.1,9.5,7.2c1.1,0.9,2.2,1.9,3.3,2.7c7.6,5.7,7.6,5.7,6.2,16.7
			c-6.2-1.8-8.9-7.6-13.5-11.1C745.5,565.8,743.3,561.7,744.6,553.7z"/>
		<path class="st1" d="M581.6,642.3c0.4-12.6,5.1-18,18.2-20.2c-0.2,2-0.3,3.9-0.6,5.7c-0.3,2-0.7,3.9-1,5.7
			C592.5,636.6,587.1,639.4,581.6,642.3z"/>
		<path class="st1" d="M705.8,607.3c3.7,8.8,6.9,16.2,6.6,24.3c-4.2,2.4-7.9,4.5-12.4,7C701.9,628.4,703.7,618.6,705.8,607.3z"/>
		<path class="st1" d="M833.3,253.3c-3.6-5.5-1.3-8.3,1.7-11c1.7,0.8,3.3,2.3,5,2.3c1.8,0.1,4-0.8,5.6-1.9
			c7.5-5.2,14.9-10.7,22.3-16.1c4-2.9,8.1-5.8,12.8-7.7C866.4,232.4,849.9,242.6,833.3,253.3z"/>
		<path class="st1" d="M664.7,466.4c-6.3-13.4-15.2-25.9-12.7-42C658.3,437.8,662.8,451.7,664.7,466.4z"/>
		<path class="st1" d="M642.6,607.5c-5.7-6.5-5.1-11.5-2.2-16.7c2.9-5.2,5.9-10.4,9.5-16.9c2,3.7,3.3,6,5.1,9.2
			c-9.1,0.8-10.9,5.3-9.8,12.6C645.7,599,643.8,602.7,642.6,607.5z"/>
		<path class="st1" d="M630.1,579.1c-0.8-14.3,0.3-16.3,11.1-19.7C642.2,569.9,638.2,577.3,630.1,579.1z"/>
		<path class="st1" d="M681.7,665.6c-3.4,9-6.8,18.1-10.4,27.9c-1.7-0.5-3.5-1-6-1.7c0.5-3.3,1.1-6.3,1.6-9.6
			c3.9,4.1,5.7,4.1,6.4,0.1c1.3-7.2,2.1-14.5,3.1-21.9C678.1,662,679.9,663.7,681.7,665.6z"/>
		<path class="st1" d="M728.3,802.8c-0.2,6.8-0.4,13.6-0.7,20.9c-3.7,0-7.1,0-11.8,0c3.7-7.8,7-14.6,10.3-21.4
			C726.8,802.5,727.5,802.7,728.3,802.8z"/>
		<path class="st1" d="M572.8,639.1c-0.2,10.3-6.3,15.6-13.2,20.6C556.7,651.5,558.5,648.6,572.8,639.1z"/>
		<path class="st1" d="M707.1,742c4.9-9.6,7.4-21,16.6-29.3c2.1,5.6,2.3,9-2.6,12.1c-3.4,2.2-5.6,6.4-8.2,9.7
			C710.9,736.9,709,739.5,707.1,742z"/>
		<path class="st1" d="M611.2,588.2c-1.6-12.3-1.6-12.3,8.6-16.2C621.3,582.4,620.6,584,611.2,588.2z"/>
		<path class="st1" d="M603.4,516.8c8-7.1,16-6.1,24.5-2.7C622.6,518.7,618.6,519.2,603.4,516.8z"/>
		<path class="st1" d="M637.1,530.5c-5.3,2.1-10.6,4.3-16.3,6.6c-1.6-1.8-3.3-3.6-4.8-5.4C622.7,524.6,630,528.4,637.1,530.5z"/>
		<path class="st1" d="M609.4,566.8c-1.6-3.1-3-5.9-4.6-8.9c4.6-1.5,9.1-2.9,13.5-4.4C621.2,560.1,621.2,560.1,609.4,566.8z"/>
		<path class="st1" d="M653.7,511.8c4.5-3.6,7.7-6.2,11.1-8.9c2.1,2.7,7.2,4.9,3.6,9.6C664.3,517.7,659.8,513.4,653.7,511.8z"/>
		<path class="st1" d="M717.7,554.7c9.7,3.2,8.7,12.3,12.2,19.5C721.1,571.3,719.3,568.4,717.7,554.7z"/>
		<path class="st1" d="M690.5,572c-2.3-5.7-7.1-11-1.4-18.3c4.8,3.2,3.9,8.8,5.8,12.9c0.6,1.3-1.4,3.8-2.1,5.8
			C692,572.2,691.2,572.1,690.5,572z"/>
		<path class="st1" d="M727,585.5c8.4,2.9,10.5,10.7,14.1,18C733,599.3,729,594,727,585.5z"/>
		<path class="st1" d="M786.3,453.7c3.4-1.8,6.7-3.6,10-5.3c4.4,1.9,8.5,3.8,12.8,5.6c-7.3,0.5-14.7,1.1-22.1,1.6
			C786.7,455,786.5,454.3,786.3,453.7z"/>
		<path class="st1" d="M735.8,424.9c3.8-6.4,2.8-13.8,11.6-15.4C746.1,416.3,745.5,422.5,735.8,424.9z"/>
		<path class="st1" d="M670.3,634.7c-2.2-7.4-6.1-14.4-4.3-23.7C669.8,619.5,672.8,626.7,670.3,634.7z"/>
		<path class="st1" d="M700.7,544c8.5,2.7,8.6,3,6.5,12.6C701.4,554.8,699.9,552.1,700.7,544z"/>
		<path class="st1" d="M754,369.1c0.5-9.2,7.2-6.2,10.6-8.5c3.7-2.4,8-3.8,12.5-4.6C769.9,360.1,762.6,364.2,754,369.1z"/>
		<path class="st1" d="M749.2,457.2c1.7,6,1.1,10.3-4.4,12.9C741.3,462.2,741.3,462.2,749.2,457.2z"/>
		<path class="st1" d="M652.1,465.7c4.4,4,6.7,8.9,5.7,15.6C646.5,479.2,655.4,470.1,652.1,465.7z"/>
		<path class="st1" d="M828.4,628.9c7.6,5,7.6,5.2,1.5,16.9C829.3,639.5,828.9,634.4,828.4,628.9z"/>
		<path class="st1" d="M643.2,544.2c-2,6.2-8,6.7-12.3,9.7C630.6,547.3,633.7,544.8,643.2,544.2z"/>
		<path class="st1" d="M759.9,407.6c0.7-7.6,8.1-9.5,12.3-16.3C771.3,400.7,765.3,404,759.9,407.6z"/>
		<path class="st1" d="M685.4,648c-5.1-6.3-3.1-11.5,0.7-16.7C689.3,634.8,689.2,636.2,685.4,648z"/>
		<path class="st1" d="M547.9,661.9c0.1,7.9-4.6,12-11.4,14.4C540.2,671.5,544.1,666.7,547.9,661.9z"/>
		<path class="st1" d="M683.5,535.5c2.8,4.8,3.5,8.6-1.8,11.9c-1.4-1.7-2.9-3.6-4.8-5.9C679.1,539.5,681.1,537.7,683.5,535.5z"/>
		<path class="st1" d="M711.4,487.5c0.7,5.9,0.7,5.9-6.6,10.4C703.2,491.7,703.5,491.2,711.4,487.5z"/>
		<path class="st1" d="M574.8,625c-4.5,4.8-9.2,9.4-15.2,12.3c-0.4-0.5-0.8-1-1.2-1.5c5-4.2,9.9-8.4,14.9-12.6
			C573.8,623.8,574.3,624.4,574.8,625z"/>
		<path class="st1" d="M707.4,476.7c-1.4-6.6,2.9-8.7,8-10.8C717.6,473.4,709.8,473.1,707.4,476.7z"/>
		<path class="st1" d="M671.5,568.9c-3.9-6.3,1.8-10.6,0.4-15.5C676.2,559.1,676.2,559.1,671.5,568.9z"/>
		<path class="st1" d="M739.3,394.1c3.3-4.2,3.5-10.7,9-13.2c0.7,0.5,1.4,1,2,1.5c-3.2,4.3-6.3,8.6-9.5,13
			C740.4,395,739.8,394.5,739.3,394.1z"/>
		<path class="st1" d="M725,520.2c-4.4,1.1-8.6,5.2-13.9,0.9C715.7,516.9,720.5,518.7,725,520.2z"/>
		<path class="st1" d="M654.2,536.7c3.3-2.6,6-4.1,8.4-0.4c0.5,0.7-0.2,3-1.1,3.5C658.2,542,655.8,540.8,654.2,536.7z"/>
		<path class="st1" d="M583.5,616.6c5.3-3.4,10.6-6.9,15.8-10.3c0.3,0.5,0.7,1,1,1.5c-5.3,3.5-10.5,7-15.8,10.5
			C584.2,617.8,583.8,617.2,583.5,616.6z"/>
		<path class="st1" d="M854.3,283.2c-3,3.8-5.4,8.2-10.3,9.9C845.4,287.7,850.3,285.9,854.3,283.2z"/>
		<path class="st1" d="M714.1,581.9c-5.4-0.6-4.2-4.8-5-8.2C714.1,575.3,714.1,575.3,714.1,581.9z"/>
		<path class="st1" d="M654,523.2c-4.4-0.9-8.7-1.7-13.3-2.6C645.4,517.3,645.4,517.3,654,523.2z"/>
		<path class="st1" d="M721.5,448.2c-2.9,2.6-5,4.4-7.8,6.9C714.7,447.4,714.7,447.4,721.5,448.2z"/>
		<path class="st1" d="M821.5,606.8c-3.1-3.3-6.1-6.6-9.2-9.9c0.4-0.5,0.8-0.9,1.3-1.4c3.2,3.1,6.4,6.2,9.6,9.3
			C822.6,605.5,822.1,606.1,821.5,606.8z"/>
		<path class="st1" d="M714.1,538.7c3.9,0.5,7.9,1,9.6,6.5C718.4,545.3,716.6,541.5,714.1,538.7z"/>
		<path class="st1" d="M711.8,507.7c3.9-6,6.5-4.7,10.5-0.3C718.4,507.6,715.8,507.6,711.8,507.7z"/>
		<path class="st1" d="M760.2,421.9c-2.3,2.3-4.7,4.5-7,6.8c-0.5-0.5-1-1-1.6-1.6c2.2-2.4,4.5-4.8,6.7-7.2
			C759,420.6,759.6,421.3,760.2,421.9z"/>
		<path class="st1" d="M738.5,439c-2,1.7-3.9,3.4-6.9,6c1.7-5,1.7-5,5.7-7.2C737.6,438.2,738.1,438.6,738.5,439z"/>
		<path class="st1" d="M724.8,480.1c1-2.1,2-4.2,3.4-7.1c3.5,4.8,2,6.9-1.2,8.3C726.3,480.9,725.5,480.5,724.8,480.1z"/>
		<path class="st1" d="M733.9,456.9c-1.6,1.8-3.1,3.6-5,5.7c-3.2-5.7,1.4-5.5,3.1-7.3C732.6,455.8,733.2,456.4,733.9,456.9z"/>
		<path class="st1" d="M726.4,426.8c-1.3,2.7-2.6,5.5-3.8,8.2c-0.7-0.3-1.3-0.6-2-0.9c1.3-2.7,2.6-5.4,3.9-8
			C725.1,426.3,725.7,426.5,726.4,426.8z"/>
		<path class="st1" d="M627.9,412.1c4.5,1.4,5.1,5.2,4.8,9.4c-1.6-3.2-3.1-6.4-4.7-9.5L627.9,412.1z"/>
		<path class="st1" d="M616.8,598.2c-1.6,1.2-3.1,2.4-5.3,4c-0.8-4.7,2.1-4.7,4-5.5C615.9,597.2,616.4,597.7,616.8,598.2z"/>
		<path class="st1" d="M766.5,374.6c-1.7,2.7-2.6,6.9-8.2,3.4c3.2-1.3,5.8-2.3,8.3-3.3C766.6,374.7,766.5,374.6,766.5,374.6z"/>
		<path class="st1" d="M756.1,391.9c-1,1.3-2,2.6-3.1,3.9c-0.4-0.3-0.8-0.5-1.2-0.8c0.9-1.4,1.8-2.8,2.6-4.2
			C755,391.1,755.6,391.5,756.1,391.9z"/>
		<path class="st1" d="M628,412c-1.1-1.9-2.2-3.8-3.3-5.7c0.4-0.2,0.9-0.4,1.3-0.6c0.6,2.1,1.3,4.3,1.9,6.4
			C627.9,412.1,628,412,628,412z"/>
		<path class="st1" d="M617.1,397.4c0.4-0.9,0.7-1.4,0.9-1.9c0.8,0.7,1.6,1.2,2.3,2c0.1,0.2-0.4,0.9-0.6,1.4
			C618.8,398.4,618,397.9,617.1,397.4z"/>
		<path class="st2" d="M363.2,1618.9c-15.2,11.4-32.5,17-51.3,18.4c-4.3,0.3-8.1-1.6-10.4-5.1c-0.8-1.3-0.6-4,0.3-5.4
			c0.5-0.9,3.4-1.7,4.4-1.1c11.7,6.8,22.3,0.9,33-2.8c5.1-1.8,9.9-4.7,14.8-7.1c2.3-1.1,4.7-1.9,8.1-3.2c0.4,2.9,0.7,4.7,0.9,6.5
			C363.1,1619.1,363.2,1618.9,363.2,1618.9z"/>
		<path class="st2" d="M271.7,1685.7c7.4,3.3,14.2,5.9,22.1,4.8c6.4-0.9,12.3-2.5,17.9-5.8c3-1.8,5.9-3.6,9-5.1
			c1.3-0.6,4.3-0.6,4.5-0.1c0.6,1.6,0.9,4,0.2,5.4c-1.2,2.1-3.2,4.1-5.2,5.5c-11.3,7.3-23.8,9.9-37.1,8c-3.3-0.5-6.5-2.1-9.6-3.7
			C270.1,1693,269.6,1690.1,271.7,1685.7z"/>
		<path class="st2" d="M289.2,1653.1c2-0.2,4.2-1,5.9-0.5c12.9,4,25,1.1,36.9-3.9c3.1-1.3,6.5-2.3,9.9-2.8c1.2-0.2,3.1,1.3,3.9,2.5
			c0.5,0.7-0.5,2.6-1.2,3.7c-0.6,0.9-1.5,1.8-2.5,2.3c-14.8,7.3-30.1,11.3-46.5,5.9c-2.5-0.8-4.6-2.9-6.9-4.4
			C288.9,1655,289.1,1654.1,289.2,1653.1z"/>
		<path class="st2" d="M401,1484.8c-5.1,0-10.3,0.1-15.4-0.1c-2.9-0.1-5.2-1.6-4.9-4.8c0.3-2.8,2.7-3.1,5.3-3.1
			c9.8,0.1,19.5-0.7,28.2-5.9c2.4-1.4,5.5-2,6.6,1.1c0.7,2,0.2,5.8-1.2,6.8c-3.5,2.3-7.7,3.6-11.7,4.9c-2.1,0.7-4.5,0.5-6.8,0.7
			C401,1484.5,401,1484.6,401,1484.8z"/>
		<path class="st2" d="M609.5,922.9c-1.6,5.1-5,7.8-10.3,9.2c-6.8,1.8-13.4,3.7-20.3,1.6c-1.9-0.6-4.5-2.4-4.7-4
			c-0.5-3.3,2.6-4.4,5.2-4.3c7.8,0.5,14.7-1.9,21.4-5.3C604.4,918.4,607.5,918.9,609.5,922.9z"/>
		<path class="st2" d="M594,847.8c2-1.5,2.6-2.2,3.3-2.5c7.2-2.9,14.9-2.9,22.4-3c1.2,0,3.5,2.7,3.3,3.9c-0.2,1.8-1.9,4.7-3.3,5
			C611.7,852.7,603.6,852.9,594,847.8z"/>
		<path class="st2" d="M547,989.8c2-0.9,3.9-2.1,6-2.6c9.2-2.5,18.4-4.8,27.6-7.1c1.6-0.4,3.5-0.6,5.1-0.2c2.9,0.6,3.9,3.8,2.1,6.1
			c-0.7,0.9-1.7,1.7-2.7,2.1c-10.7,4.7-21.8,7.5-33.6,6.1c-1.5-0.2-2.9-1.4-4.3-2.2C547.1,991.3,547,990.5,547,989.8z"/>
	</g>
</g>
</svg>
