<?xml version="1.0" encoding="utf-8"?>
<!-- Generator: Adobe Illustrator 27.0.0, SVG Export Plug-In . SVG Version: 6.00 Build 0)  -->
<svg version="1.1" id="Layer_1" xmlns="http://www.w3.org/2000/svg" xmlns:xlink="http://www.w3.org/1999/xlink" x="0px" y="0px"
	 viewBox="0 0 77.8 96.7" style="enable-background:new 0 0 77.8 96.7;" xml:space="preserve">
<style type="text/css">
	.st0{fill:#5B3023;}
	.st1{fill:#FFFFFF;}
</style>
<path class="st0" d="M77.5,79.9c-1-3.2-2.2-6.4-3.9-9.4c-1.3-2.1-2.5-4.4-3.8-6.5c-1.2-2.2-3.4-3.8-5.9-4.3
	c-0.7-0.2-1.4-0.2-2.1,0.1c-1.5,0.7-3,1.6-4.5,2.5c-1.1,0.8-2.1,1.7-3.3,2.7c-0.7-1-1.3-2-1.9-3c-1.1-2.2-2-4.4-3.1-6.6
	c-1.4-2.8-2.9-5.6-4.2-8.4c-0.6-1.2-0.8-2.6-1.5-3.7c-1.2-2.6-2.2-5.4-2.9-8.2c-0.1-0.7-0.2-1.4-0.2-2.2c2.5-0.7,4.8-1.3,7-1.8
	c2.5-0.5,4.8-1.7,6.7-3.5c1-0.8,1.7-2,1.9-3.2c0.2-1.6,0.3-3.3,0.3-5c0-1.3-0.2-2.5-0.6-3.8c-1.2-4-2.8-7.8-4.7-11.5
	C48.7-0.2,44.4-1,40.4,1.1c-1.4,0.7-2.7,1.5-4,2.5c-0.8,0.6-1.6,1.1-2.4,1.7c-3.1,2.2-5.8,4.9-8,8c-1.6,2-2.7,4.4-3.2,6.9
	c-0.2,1.5-0.4,2.9-0.6,4.4c-0.4,3.3-0.5,6.7-0.2,10c0.3,3.5,1.3,6.8,2,10.3c1.3,5.5,3.2,10.9,5.7,16c1.5,3,3.2,5.9,5,8.7
	c3.3,5.4,6.8,10.7,10.7,15.7c0.7,0.8,0.8,1.9,0.4,2.8c-0.7,1.2-0.4,2.6,0.7,3.5c0.1,0,0,0.2,0,0.4c-1.3,0.8-2.9,0.7-4.1-0.2
	c0.2-0.6,0.5-1.2,0.6-1.8c0.7-1.6-0.1-3.5-1.7-4.2c0,0,0,0,0,0C40,85,39.2,85,38.4,85.9c-1,1.3-1.6,2.3-1,3.4
	c0.3,0.5,0.6,1.2,0.9,1.8c-1.1,0.3-2.2,0-3-0.8c-0.1-1.2-0.1-2.3-0.2-3.4c-0.1-0.4-0.1-0.8,0-1.1c0.4-0.9-0.3-1.4-0.8-1.8
	c-1.6-1.2-3.8-0.8-4.9,0.8c0,0,0,0,0,0c-0.5,0.7-0.6,1.5-0.3,2.3c0.1,0.8,0.8,1.5,0.3,2.3c-1-0.2-1-0.8-0.9-1.5
	c0.2-1.6,0-3.2-0.5-4.7c-0.2-0.8-0.8-1.3-1.6-1.4c-0.8-0.3-1.7,0-2.2,0.6c-1,1.2-1.4,2.9-0.9,4.4c0.2,0.6,0.4,1.2,0.6,1.8
	c-1.6,0.5-3.3,0.4-4.7-0.5c0.1-0.3,0.3-0.7,0.4-1.1c0.1-0.2,0.2-0.5,0.3-0.8c0-0.9-0.1-1.7-0.1-2.6c0-1.1-0.4-1.7-1.5-1.8
	c-0.8-0.1-1.5-0.1-2.3,0c-1.3,0-2.5,1-2.7,2.3c-0.2,0.8-0.3,1.7-0.4,2.5L11.1,86c0-0.8-0.3-1.6,0.6-1.8v-3.8c0.1-1-0.5-2-1.5-2.4
	c-0.9-0.5-2-0.4-2.8,0.3c-1,0.8-1.6,1.9-1.7,3.1v2.7c-1.9-0.3-3.4-2-5.8-1.5c0.2,0.6,0.2,1.2,0.5,1.5c2.1,1.6,4,3.3,6.9,3.3
	c0.4,0,0.9,0.1,1.2,0.3c1,0.5,1.9,1.1,2.8,1.7c1.1,0.8,2.5,1,3.8,0.8c0.9-0.2,1.8,0,2.5,0.5c2,1.1,4.2,1.8,6.5,0.8
	c1.2-0.6,2.7-0.4,3.8,0.5c0.8,0.7,1.8,0.9,2.8,0.6c0.9-0.2,1.9-0.1,2.7,0.4c2,1.1,4.1,2,6.5,1.1c0.6-0.1,1.2,0,1.7,0.3
	c1.1,0.6,2.3,0.8,3.5,0.5c1.1-0.3,2.1-0.7,3-1.3c0.5-0.3,1.4-0.7,1.8-0.5c1.4,0.6,2.2,0,2.9-1.1c0.2-0.3,0.4-0.6,0.7-1
	c0.6,0.3,1.2,0.6,1.9,0.8c1.9,0.8,4.1,1.2,6.2,1.1c1.8-0.2,3.7-0.4,5.5-0.7c1-0.1,2-0.4,2.8-1c0.7-0.7,1.5-1.3,2.3-1.8
	c1.6-1.2,3.2-2.3,4.3-4.1C77.7,83.6,78.1,81.7,77.5,79.9z M8.8,83.9C8.2,83.1,8,82,8.4,81c0.1-0.3,0.5-0.6,0.8-0.5
	c0.2,0,0.3,0.1,0.4,0.2C10.3,81.8,10.1,83,8.8,83.9z M16.2,86.6c-0.6-0.5-1.3-1-0.9-1.8c0.4-0.8,1.4-0.6,2.2-0.5
	C17.9,85.8,17.9,85.8,16.2,86.6z M26.4,86.9c-1.3-0.8-1.5-1.6-0.5-2.9C27,84.9,26.8,85.9,26.4,86.9z M33,88.9L33,88.9
	c-1.1-0.5-1.7-1.7-1.5-2.9c0.7-0.4,1.3-0.4,1.8,0.3C33.9,87.1,33.8,88.2,33,88.9z M40.7,89.6L40.7,89.6l-0.3,0.1
	c-0.3-0.4-0.6-0.8-0.8-1.2c-0.1-0.2,0.3-0.6,0.4-0.9c0.3,0.2,0.7,0.4,0.8,0.6C40.9,88.7,40.8,89.1,40.7,89.6z M42.6,2.7
	c0.3-1.2,0.9-1.4,2-1.2c1.9,0.3,3.5,1.6,4.3,3.3c1.6,3.8,3.2,7.6,4.5,11.5c0.8,2.5,0.9,5.2,0.3,7.8c-0.5,2.1-1.5,2.5-3.2,1.1
	c-2.2-1.7-3.9-4-5-6.5c-1.4-3.4-2.4-6.9-3-10.5c-0.1-0.8-0.2-1.7-0.3-2.8C42.2,4.5,42.4,3.6,42.6,2.7z M39.7,4.2
	C39.8,6,39.9,7.7,40,9.3c0.2,2.8,1.4,5.4,2,8.1c0.8,3.5,2.8,6.7,5.5,9.1c0.6,0.5,1.2,0.9,2,1.5c-0.4,0.2-0.8,0.4-1.2,0.6
	c-0.7,0.5-1.8,0.4-2.3-0.4c0,0,0,0,0,0c-1.3-1.5-2.6-3-3.8-4.6c-2.5-3.8-3.9-8.2-3.8-12.7c0-1.5,0-3.1-0.2-4.7
	C38.1,5,38.5,4.5,39.7,4.2z M51.2,90.5L51.2,90.5c-0.8,0.3-3.1-1-3.3-1.9c0-0.3,0.1-0.5,0.2-0.8c1.2,0.6,2.2,1.1,3.2,1.7
	c0.2,0.1,0.3,0.3,0.3,0.5C51.5,90.2,51.3,90.4,51.2,90.5z M65.9,90.1c-3.4,0.6-6.9,0.1-10.1-1.3c-2-1-4-1.9-6-2.8
	c-1-0.5-1.8-1.3-2.4-2.2c-2.1-3.1-4.1-6.2-6.1-9.3c-0.8-1.2-1.4-2.5-2.2-3.7c-1.7-2.7-3.4-5.3-5-8.1c-0.9-1.8-1.7-3.6-2.5-5.5
	c-0.9-1.9-1.6-3.8-2.3-5.7c-1.2-3.9-2.2-7.8-3.3-11.7c-1.6-5.6-1.5-11.4-1.1-17.2c0.2-3.3,1.5-6.5,3.8-8.9c1.9-2.2,4.1-4.1,6.1-6.1
	c0.3-0.2,0.7-0.5,1-0.7c-0.9,8.6,2.3,17.1,8.5,23.1c-0.8,0.2-1.7,0.3-2.5,0.3c-2.1-0.2-4.2-0.6-6.3-1c-0.4,0-0.7,0-1.1,0
	c0.1,0.3,0.2,0.7,0.2,1c-0.1,0.8-0.1,1.8-0.6,2.3c-0.8,0.8-1.1,1.9-0.8,3c0.7,2.7,1.4,5.5,2.2,8.2c1,3.2,2,6.5,3.1,9.7
	c0.9,2.4,2.2,4.6,3.2,7c0.9,2,2.1,3.9,3.5,5.7c0.8,0.9,1.8,1.6,3,1.9c0.3,0.2,0.6,0.1,0.8-0.2c0.1-0.2,0.1-0.3,0-0.5
	c0-0.4-0.2-0.9-0.4-1.2c-2.7-3.5-4.2-7.5-6.3-11.4c-2.5-4.8-4.4-10-5.5-15.3c-0.5-1.9-1-3.8-1.4-5.6c-0.1-0.8-0.2-1.6-0.2-2.5l2,0.8
	c0.3,2,0.8,4,1.3,5.9c1.5,4.5,3,9.1,4.9,13.5c1.9,4.4,4.1,8.5,6.3,12.7c0.7,1.1,1.5,2.2,2.4,3.2c-0.5,0.7-0.9,1.4-1.2,2.1
	c-0.5,1.4-1,2.9-1.4,4.4c0,0.1,0,0.2,0,0.3c0,0.5,0.1,1,0.8,1.1s1-0.3,1.1-0.9c0.3-1.2,0.8-2.3,1.2-3.5c0.2-1,1.2-1.6,2.2-1.5
	c1.9,8,6,14.7,12.9,19.3C67.5,89.6,66.8,90.1,65.9,90.1z M69.6,86.7c-1.6-0.6-3.1-1.6-4.2-2.9c-2.8-3-5.1-6.5-6.7-10.2
	c-0.8-2-1.2-4-2.1-5.9c-0.4-1,0.5-1.5,1.2-2.2c0.2,0.6,0.3,1.1,0.5,1.6c1.1,3.4,2.6,6.6,4.5,9.6C65,80.1,68,83,71.5,85
	c0.5,0.3,0.9,0.6,1.4,0.9C72,87.2,70.9,87.2,69.6,86.7z M75.4,83.4c-1.1,0.4-1.9-0.2-2.7-0.7c-4.8-2.9-8.6-7.3-10.7-12.5
	c-0.6-1.6-1.2-3.2-1.8-4.8c-0.5-1.2,0-2.5,1-3.2h-0.1c0.5-0.4,1.2-0.6,1.9-0.4c1.6,0.2,3,1,4,2.3c1.4,1.8,2.6,3.7,3.8,5.6
	c1.9,3.3,3.5,6.8,4.7,10.4C75.9,81.1,75.9,82.3,75.4,83.4z"/>
<path class="st1" d="M51.5,90c0,0.2-0.2,0.4-0.3,0.5h0c-0.8,0.3-3.1-1-3.3-1.9c0-0.3,0.1-0.5,0.2-0.8c1.2,0.6,2.2,1.1,3.2,1.7
	C51.4,89.6,51.5,89.8,51.5,90z"/>
<path class="st1" d="M72.9,85.9c-0.9,1.4-2,1.4-3.3,0.9c-1.6-0.6-3.1-1.6-4.2-2.9c-2.8-3-5.1-6.5-6.7-10.2c-0.8-2-1.2-4-2.1-5.9
	c-0.4-1,0.5-1.5,1.2-2.2c0.2,0.6,0.3,1.1,0.5,1.6c1.1,3.4,2.6,6.6,4.5,9.6C65,80.1,68,83,71.5,85C72,85.3,72.4,85.6,72.9,85.9z"/>
<path class="st1" d="M75.5,80.1c-1.2-3.6-2.7-7.1-4.7-10.4c-1.2-1.9-2.5-3.8-3.8-5.6c-1-1.3-2.4-2.1-4-2.3c-0.7-0.2-1.3,0-1.9,0.4
	h0.1c-1.1,0.7-1.5,2-1,3.2c0.5,1.6,1.2,3.2,1.8,4.8c2.1,5.2,5.9,9.6,10.7,12.5c0.8,0.5,1.6,1.1,2.7,0.7
	C75.9,82.3,75.9,81.1,75.5,80.1z M71.9,79.3c-1.5-1.1-3.2-2.1-4.4-3.5c-2.6-3-4.2-6.7-4.6-10.6c0-0.4,0.2-0.7,0.5-0.9
	c0.5-0.2,0.8,0.1,1,0.6c0.2,0.7,0.5,1.5,0.8,2.2C66,69,67,70.9,68,72.7c0.8,1,1.7,2,2.7,2.8c0.6,0.6,1.2,1.1,1.7,1.8
	C72.9,78,73.1,78.7,71.9,79.3z"/>
<path class="st1" d="M53.4,16.4c-1.2-3.9-2.9-7.7-4.5-11.5c-0.8-1.8-2.4-3-4.3-3.3c-1.1-0.3-1.7,0-2,1.2c-0.2,0.9-0.3,1.7-0.4,2.6
	c0.1,1.2,0.2,2,0.3,2.8c0.6,3.6,1.6,7.2,3,10.5c1.1,2.6,2.8,4.8,5,6.5c1.7,1.4,2.7,1,3.2-1.1C54.2,21.6,54.2,18.9,53.4,16.4z
	 M50.2,21.3c-0.7-0.5-1.3-1-1.8-1.7c-1.6-2.6-2.9-5.4-3.7-8.3c-0.4-1.2-0.4-2.4-0.2-3.6c0,0,0-0.1,0-0.1c0.1-0.5,0.6-0.9,1.2-0.8
	c0.4,0.2,0.7,0.5,0.7,0.9c0.1,1.9,0.6,3.7,1.5,5.4c1.1,2.7,2.3,5.2,3.6,8.2C51,21.3,50.5,21.5,50.2,21.3z"/>
<path class="st1" d="M49.5,28c-0.4,0.2-0.8,0.4-1.2,0.6c-0.7,0.5-1.8,0.4-2.3-0.4c0,0,0,0,0,0c-1.3-1.5-2.6-3-3.8-4.6
	c-2.5-3.8-3.9-8.2-3.8-12.7c0-1.5,0-3.1-0.2-4.7c-0.1-1.1,0.3-1.6,1.5-1.9C39.8,6,39.9,7.7,40,9.3c0.2,2.8,1.4,5.4,2,8.1
	c0.8,3.5,2.8,6.7,5.5,9.1C48.1,27,48.8,27.4,49.5,28z"/>
<path class="st1" d="M67.8,88.9c-0.3,0.8-1,1.2-1.8,1.2c-3.4,0.6-6.9,0.1-10.1-1.3c-2-1-4-1.9-6-2.8c-1-0.5-1.8-1.3-2.4-2.2
	c-2.1-3.1-4.1-6.2-6.1-9.3c-0.8-1.2-1.4-2.5-2.2-3.7c-1.7-2.7-3.4-5.3-5-8.1c-0.9-1.8-1.7-3.6-2.5-5.5c-0.9-1.9-1.6-3.8-2.3-5.7
	c-1.2-3.9-2.2-7.8-3.3-11.7c-1.6-5.6-1.5-11.4-1.1-17.2c0.2-3.3,1.5-6.5,3.8-8.9c1.9-2.2,4.1-4.1,6.1-6.1c0.3-0.2,0.7-0.5,1-0.7
	c-0.9,8.6,2.3,17.1,8.5,23.1c-0.8,0.2-1.7,0.3-2.5,0.3c-2.1-0.2-4.2-0.6-6.3-1c-0.4,0-0.7,0-1.1,0c0.1,0.3,0.2,0.7,0.2,1
	c-0.1,0.8-0.1,1.8-0.6,2.3c-0.8,0.8-1.1,1.9-0.8,3c0.7,2.7,1.4,5.5,2.2,8.2c1,3.2,2,6.5,3.1,9.7c0.9,2.4,2.2,4.6,3.2,7
	c0.9,2,2.1,3.9,3.5,5.7c0.8,0.9,1.8,1.6,3,1.9c0.3,0.2,0.6,0.1,0.8-0.2c0.1-0.2,0.1-0.3,0-0.5c0-0.4-0.2-0.9-0.4-1.2
	c-2.7-3.5-4.2-7.5-6.3-11.4c-2.5-4.8-4.4-10-5.5-15.3c-0.5-1.9-1-3.8-1.4-5.6c-0.1-0.8-0.2-1.6-0.2-2.5l2,0.8c0.3,2,0.8,4,1.3,5.9
	c1.5,4.5,3,9.1,4.9,13.5c1.9,4.4,4.1,8.5,6.3,12.7c0.7,1.1,1.5,2.2,2.4,3.2c-0.5,0.7-0.9,1.4-1.2,2.1c-0.5,1.4-1,2.9-1.4,4.4
	c0,0.1,0,0.2,0,0.3c0,0.5,0.1,1,0.8,1.1s1-0.3,1.1-0.9c0.3-1.2,0.8-2.3,1.2-3.5c0.2-1,1.2-1.6,2.2-1.5
	C56.8,77.5,60.9,84.2,67.8,88.9z"/>
<path class="st0" d="M51.5,21.3c-0.4,0-1,0.2-1.3,0c-0.7-0.5-1.3-1-1.8-1.7c-1.6-2.6-2.9-5.4-3.7-8.3c-0.4-1.2-0.4-2.4-0.2-3.6
	c0,0,0-0.1,0-0.1c0.1-0.5,0.6-0.9,1.2-0.8c0.4,0.2,0.7,0.5,0.7,0.9c0.1,1.9,0.6,3.7,1.5,5.4C49,15.8,50.2,18.3,51.5,21.3z"/>
<path class="st0" d="M71.9,79.3c-1.5-1.1-3.2-2.1-4.4-3.5c-2.6-3-4.2-6.7-4.6-10.6c0-0.4,0.2-0.7,0.5-0.9c0.5-0.2,0.8,0.1,1,0.6
	c0.2,0.7,0.5,1.5,0.8,2.2C66,69,67,70.9,68,72.7c0.8,1,1.7,2,2.7,2.8c0.6,0.6,1.2,1.1,1.7,1.8C72.9,78,73.1,78.7,71.9,79.3z"/>
</svg>
